<?xml version="1.0" encoding="UTF-8"?>
<!-- Generator: Adobe Illustrator 16.0.0, SVG Export Plug-In . SVG Version: 6.00 Build 0)  -->
<!DOCTYPE svg PUBLIC "-//W3C//DTD SVG 1.1//EN" "http://www.w3.org/Graphics/SVG/1.1/DTD/svg11.dtd">
<svg version="1.1" id="Layer_1" xmlns="http://www.w3.org/2000/svg" xmlns:xlink="http://www.w3.org/1999/xlink" x="0px" y="0px" width="288px" height="317px" viewBox="0 0 288 317" enable-background="new 0 0 288 317" xml:space="preserve">
<g>
	<rect width="288" height="317"/>
</g>
<rect x="8" y="10" fill="#FFFFFF" width="270" height="299"/>
<rect x="8" y="63" fill="#0D4E96" width="270" height="54"/>
<rect x="8" y="117" fill="#D92C27" width="270" height="54"/>
<rect x="8" y="171" fill="#E37325" width="270" height="54"/>
<g>
	<path d="M66.888,24.589c1.817,0.598,3.29,1.693,4.416,3.287c0.903,1.289,1.519,2.684,1.847,4.184s0.493,2.93,0.493,4.289   c0,3.445-0.692,6.363-2.076,8.754c-1.876,3.223-4.773,4.834-8.69,4.834H51.706v-25.91h11.171   C64.484,24.05,65.821,24.237,66.888,24.589z M56.962,28.526v16.91h5c2.559,0,4.343-1.26,5.352-3.779   c0.552-1.383,0.828-3.029,0.828-4.939c0-2.637-0.414-4.661-1.241-6.073c-0.828-1.412-2.474-2.118-4.938-2.118H56.962z"/>
	<path d="M82.45,28.491h-5.08v-4.623h5.08V28.491z M77.37,30.776h5.08v19.16h-5.08V30.776z"/>
	<path d="M99.787,31.165c1.336,0.599,2.44,1.543,3.311,2.834c0.785,1.138,1.293,2.458,1.526,3.961   c0.135,0.88,0.19,2.148,0.166,3.803H90.835c0.078,1.922,0.746,3.27,2.003,4.043c0.766,0.48,1.686,0.721,2.762,0.721   c1.142,0,2.069-0.293,2.782-0.879c0.389-0.316,0.732-0.756,1.031-1.318h5.115c-0.135,1.137-0.754,2.291-1.857,3.463   c-1.716,1.863-4.119,2.795-7.208,2.795c-2.55,0-4.8-0.786-6.749-2.357s-2.924-4.128-2.924-7.671c0-3.319,0.88-5.864,2.64-7.635   c1.759-1.771,4.043-2.657,6.852-2.657C96.949,30.267,98.451,30.566,99.787,31.165z M92.292,35.492   c-0.708,0.73-1.153,1.718-1.334,2.966h8.631c-0.091-1.33-0.536-2.339-1.334-3.027c-0.799-0.689-1.789-1.033-2.971-1.033   C93.997,34.397,93,34.763,92.292,35.492z"/>
	<path d="M111.208,43.819c0.106,0.891,0.335,1.523,0.689,1.898c0.624,0.668,1.778,1.002,3.461,1.002   c0.989,0,1.775-0.146,2.358-0.439c0.583-0.293,0.874-0.732,0.874-1.318c0-0.563-0.235-0.99-0.704-1.283   c-0.47-0.293-2.217-0.797-5.241-1.512c-2.177-0.539-3.711-1.213-4.602-2.021c-0.891-0.797-1.336-1.945-1.336-3.445   c0-1.77,0.696-3.29,2.087-4.562s3.35-1.907,5.875-1.907c2.396,0,4.348,0.478,5.857,1.433c1.509,0.955,2.375,2.604,2.599,4.948   h-5.01c-0.071-0.645-0.253-1.154-0.546-1.529c-0.553-0.68-1.493-1.02-2.82-1.02c-1.093,0-1.871,0.17-2.335,0.51   s-0.696,0.738-0.696,1.195c0,0.574,0.247,0.99,0.74,1.248c0.494,0.27,2.237,0.732,5.231,1.389c1.996,0.469,3.492,1.178,4.488,2.127   c0.984,0.961,1.477,2.162,1.477,3.604c0,1.898-0.708,3.448-2.123,4.649s-3.602,1.802-6.561,1.802c-3.018,0-5.246-0.636-6.685-1.907   s-2.158-2.892-2.158-4.86H111.208z"/>
	<path d="M139.83,31.165c1.336,0.599,2.44,1.543,3.311,2.834c0.785,1.138,1.293,2.458,1.526,3.961   c0.135,0.88,0.19,2.148,0.166,3.803h-13.955c0.078,1.922,0.746,3.27,2.003,4.043c0.766,0.48,1.686,0.721,2.762,0.721   c1.142,0,2.069-0.293,2.782-0.879c0.389-0.316,0.732-0.756,1.031-1.318h5.115c-0.135,1.137-0.754,2.291-1.857,3.463   c-1.716,1.863-4.119,2.795-7.208,2.795c-2.55,0-4.8-0.786-6.749-2.357s-2.924-4.128-2.924-7.671c0-3.319,0.88-5.864,2.64-7.635   c1.759-1.771,4.043-2.657,6.852-2.657C136.992,30.267,138.494,30.566,139.83,31.165z M132.335,35.492   c-0.708,0.73-1.153,1.718-1.334,2.966h8.631c-0.091-1.33-0.536-2.339-1.334-3.027c-0.799-0.689-1.789-1.033-2.971-1.033   C134.04,34.397,133.043,34.763,132.335,35.492z"/>
	<path d="M152.481,49.937h-5.01v-25.91h5.01V49.937z"/>
	<path d="M167.774,24.062h18.475v4.553h-13.096v5.959h11.479v4.5h-11.479v10.863h-5.379V24.062z"/>
	<path d="M194.353,30.776v11.549c0,1.09,0.128,1.91,0.385,2.461c0.455,0.973,1.347,1.459,2.676,1.459   c1.702,0,2.868-0.691,3.499-2.074c0.326-0.75,0.489-1.74,0.489-2.971V30.776h5.08v19.16h-4.869v-2.707   c-0.047,0.059-0.163,0.234-0.351,0.527s-0.408,0.551-0.666,0.773c-0.783,0.703-1.539,1.184-2.27,1.441s-1.587,0.387-2.568,0.387   c-2.828,0-4.732-1.02-5.715-3.059c-0.549-1.125-0.823-2.783-0.823-4.975V30.776H194.353z"/>
	<path d="M223.836,31.165c1.336,0.599,2.44,1.543,3.311,2.834c0.785,1.138,1.294,2.458,1.527,3.961   c0.135,0.88,0.189,2.148,0.165,3.803h-13.955c0.077,1.922,0.745,3.27,2.003,4.043c0.766,0.48,1.687,0.721,2.763,0.721   c1.142,0,2.069-0.293,2.782-0.879c0.389-0.316,0.732-0.756,1.031-1.318h5.114c-0.135,1.137-0.754,2.291-1.857,3.463   c-1.716,1.863-4.118,2.795-7.208,2.795c-2.551,0-4.8-0.786-6.749-2.357s-2.924-4.128-2.924-7.671c0-3.319,0.88-5.864,2.64-7.635   s4.043-2.657,6.852-2.657C220.998,30.267,222.5,30.566,223.836,31.165z M216.342,35.492c-0.709,0.73-1.153,1.718-1.335,2.966h8.631   c-0.091-1.33-0.536-2.339-1.335-3.027c-0.799-0.689-1.789-1.033-2.971-1.033C218.046,34.397,217.049,34.763,216.342,35.492z"/>
	<path d="M236.487,49.937h-5.01v-25.91h5.01V49.937z"/>
</g>
<rect x="230" y="72" fill="#FFFFFF" width="36" height="36"/>
<rect x="184" y="72" fill="#FFFFFF" width="36" height="36"/>
<rect x="230" y="126" fill="#FFFFFF" width="36" height="36"/>
<rect x="230" y="180" fill="#FFFFFF" width="36" height="36"/>
<g>
	<g>
		<path fill="#FFFFFF" d="M18.569,102.304V78.682h4.77v9.297h9.346v-9.297h4.77v23.622h-4.77V91.975h-9.346v10.329H18.569z"/>
		<path fill="#FFFFFF" d="M52.262,96.857l4.512,0.757c-0.58,1.654-1.496,2.914-2.747,3.779c-1.252,0.865-2.817,1.297-4.697,1.297    c-2.976,0-5.178-0.972-6.606-2.917c-1.128-1.558-1.692-3.523-1.692-5.897c0-2.836,0.741-5.057,2.224-6.663    s3.357-2.409,5.624-2.409c2.546,0,4.555,0.841,6.026,2.521c1.472,1.682,2.175,4.257,2.111,7.727H45.671    c0.032,1.343,0.397,2.388,1.096,3.134c0.698,0.747,1.568,1.12,2.61,1.12c0.709,0,1.305-0.193,1.789-0.58    S52.015,97.717,52.262,96.857z M52.52,92.281c-0.032-1.311-0.371-2.307-1.015-2.989c-0.645-0.682-1.429-1.023-2.353-1.023    c-0.988,0-1.805,0.36-2.449,1.08s-0.961,1.697-0.951,2.933H52.52z"/>
		<path fill="#FFFFFF" d="M64.089,90.412l-4.109-0.741c0.462-1.654,1.257-2.879,2.385-3.674s2.804-1.192,5.027-1.192    c2.02,0,3.523,0.239,4.512,0.717c0.988,0.479,1.684,1.085,2.087,1.821c0.402,0.736,0.604,2.086,0.604,4.052l-0.048,5.285    c0,1.504,0.072,2.613,0.218,3.328c0.145,0.714,0.416,1.479,0.813,2.296h-4.479c-0.118-0.301-0.263-0.747-0.435-1.337    c-0.075-0.269-0.129-0.446-0.161-0.532c-0.773,0.752-1.601,1.316-2.481,1.692s-1.821,0.564-2.82,0.564    c-1.762,0-3.15-0.478-4.165-1.434c-1.016-0.956-1.523-2.165-1.523-3.625c0-0.967,0.231-1.829,0.693-2.586    c0.462-0.758,1.109-1.338,1.941-1.74c0.833-0.403,2.033-0.755,3.602-1.056c2.116-0.397,3.583-0.768,4.399-1.112v-0.451    c0-0.87-0.215-1.491-0.645-1.861c-0.43-0.371-1.241-0.556-2.433-0.556c-0.806,0-1.434,0.159-1.885,0.475    C64.733,89.062,64.368,89.617,64.089,90.412z M70.147,94.086c-0.58,0.193-1.499,0.424-2.755,0.693s-2.079,0.532-2.465,0.79    c-0.591,0.419-0.886,0.951-0.886,1.595c0,0.634,0.236,1.182,0.709,1.644s1.074,0.693,1.805,0.693c0.816,0,1.595-0.269,2.336-0.806    c0.548-0.408,0.908-0.908,1.08-1.499c0.118-0.387,0.177-1.123,0.177-2.208V94.086z"/>
		<path fill="#FFFFFF" d="M79.058,102.304V78.682h4.528v23.622H79.058z"/>
		<path fill="#FFFFFF" d="M96.074,85.191v3.609H92.98v6.896c0,1.396,0.029,2.21,0.089,2.441c0.059,0.231,0.193,0.421,0.402,0.572    c0.21,0.15,0.465,0.226,0.766,0.226c0.419,0,1.026-0.145,1.821-0.435l0.387,3.513c-1.053,0.451-2.245,0.677-3.577,0.677    c-0.816,0-1.552-0.137-2.208-0.411c-0.655-0.273-1.136-0.628-1.442-1.063c-0.306-0.435-0.518-1.023-0.636-1.764    c-0.097-0.526-0.145-1.59-0.145-3.19v-7.46h-2.079v-3.609h2.079v-3.4l4.544-2.643v6.042H96.074z"/>
		<path fill="#FFFFFF" d="M103.728,78.682v8.685c1.461-1.708,3.207-2.562,5.237-2.562c1.042,0,1.982,0.193,2.82,0.58    s1.469,0.881,1.893,1.482s0.714,1.268,0.87,1.998s0.234,1.864,0.234,3.4v10.039h-4.528v-9.04c0-1.794-0.086-2.933-0.258-3.416    s-0.476-0.867-0.91-1.152c-0.436-0.285-0.98-0.427-1.636-0.427c-0.752,0-1.423,0.183-2.014,0.548s-1.023,0.916-1.297,1.652    c-0.273,0.736-0.411,1.823-0.411,3.263v8.572H99.2V78.682H103.728z"/>
	</g>
</g>
<g>
	<path fill="#FFFFFF" d="M18.585,156.304v-23.622h16.194v3.996H23.354v5.591h9.861v3.996h-9.861v10.039H18.585z"/>
	<path fill="#FFFFFF" d="M38.678,156.304v-23.622h4.528v23.622H38.678z"/>
	<path fill="#FFFFFF" d="M51.23,144.412l-4.109-0.741c0.462-1.654,1.257-2.879,2.385-3.674s2.804-1.192,5.027-1.192   c2.02,0,3.523,0.239,4.512,0.717c0.988,0.479,1.684,1.085,2.087,1.821c0.402,0.736,0.604,2.086,0.604,4.052l-0.048,5.285   c0,1.503,0.072,2.613,0.218,3.328c0.145,0.715,0.416,1.479,0.813,2.296H58.24c-0.118-0.301-0.263-0.747-0.435-1.337   c-0.075-0.27-0.129-0.446-0.161-0.532c-0.773,0.752-1.601,1.315-2.481,1.692c-0.881,0.375-1.821,0.563-2.82,0.563   c-1.762,0-3.15-0.478-4.165-1.435c-1.016-0.955-1.523-2.164-1.523-3.625c0-0.967,0.231-1.829,0.693-2.586   c0.462-0.758,1.109-1.338,1.941-1.74c0.833-0.403,2.033-0.755,3.602-1.056c2.116-0.397,3.583-0.768,4.399-1.112v-0.451   c0-0.87-0.215-1.491-0.645-1.861c-0.43-0.371-1.241-0.556-2.433-0.556c-0.806,0-1.434,0.159-1.885,0.475   C51.875,143.062,51.51,143.617,51.23,144.412z M57.289,148.086c-0.58,0.193-1.499,0.424-2.755,0.693s-2.079,0.532-2.465,0.79   c-0.591,0.419-0.886,0.951-0.886,1.595c0,0.634,0.236,1.182,0.709,1.643c0.473,0.463,1.074,0.693,1.805,0.693   c0.816,0,1.595-0.269,2.336-0.806c0.548-0.408,0.908-0.908,1.08-1.499c0.118-0.387,0.177-1.123,0.177-2.208V148.086z"/>
	<path fill="#FFFFFF" d="M65.861,139.191h4.173v2.336c1.493-1.815,3.271-2.723,5.333-2.723c1.096,0,2.046,0.226,2.852,0.677   s1.466,1.133,1.982,2.046c0.752-0.913,1.563-1.595,2.433-2.046s1.799-0.677,2.788-0.677c1.257,0,2.32,0.255,3.19,0.766   s1.52,1.259,1.95,2.248c0.312,0.73,0.467,1.912,0.467,3.545v10.941h-4.528v-9.781c0-1.697-0.156-2.793-0.467-3.287   c-0.419-0.645-1.063-0.967-1.934-0.967c-0.634,0-1.23,0.193-1.789,0.58s-0.961,0.954-1.208,1.7   c-0.247,0.747-0.371,1.926-0.371,3.537v8.218h-4.528v-9.378c0-1.665-0.081-2.739-0.242-3.223s-0.411-0.843-0.75-1.08   c-0.338-0.236-0.797-0.354-1.377-0.354c-0.698,0-1.327,0.188-1.885,0.564s-0.959,0.918-1.2,1.627   c-0.242,0.709-0.363,1.885-0.363,3.529v8.314h-4.528V139.191z"/>
	<path fill="#FFFFFF" d="M95.204,139.191h4.173v2.336c1.493-1.815,3.271-2.723,5.333-2.723c1.096,0,2.046,0.226,2.852,0.677   s1.466,1.133,1.982,2.046c0.752-0.913,1.563-1.595,2.433-2.046s1.799-0.677,2.788-0.677c1.257,0,2.32,0.255,3.19,0.766   s1.52,1.259,1.95,2.248c0.312,0.73,0.467,1.912,0.467,3.545v10.941h-4.528v-9.781c0-1.697-0.156-2.793-0.467-3.287   c-0.419-0.645-1.063-0.967-1.934-0.967c-0.634,0-1.23,0.193-1.789,0.58s-0.961,0.954-1.208,1.7   c-0.247,0.747-0.371,1.926-0.371,3.537v8.218h-4.528v-9.378c0-1.665-0.081-2.739-0.242-3.223s-0.411-0.843-0.75-1.08   c-0.338-0.236-0.797-0.354-1.377-0.354c-0.698,0-1.327,0.188-1.885,0.564s-0.959,0.918-1.2,1.627   c-0.242,0.709-0.363,1.885-0.363,3.529v8.314h-4.528V139.191z"/>
	<path fill="#FFFFFF" d="M128.268,144.412l-4.109-0.741c0.462-1.654,1.257-2.879,2.385-3.674s2.804-1.192,5.027-1.192   c2.02,0,3.523,0.239,4.512,0.717c0.988,0.479,1.684,1.085,2.087,1.821c0.402,0.736,0.604,2.086,0.604,4.052l-0.048,5.285   c0,1.503,0.072,2.613,0.218,3.328c0.145,0.715,0.416,1.479,0.813,2.296h-4.479c-0.118-0.301-0.263-0.747-0.435-1.337   c-0.075-0.27-0.129-0.446-0.161-0.532c-0.773,0.752-1.601,1.315-2.481,1.692c-0.881,0.375-1.821,0.563-2.82,0.563   c-1.762,0-3.15-0.478-4.165-1.435c-1.016-0.955-1.523-2.164-1.523-3.625c0-0.967,0.231-1.829,0.693-2.586   c0.462-0.758,1.109-1.338,1.941-1.74c0.833-0.403,2.033-0.755,3.602-1.056c2.116-0.397,3.583-0.768,4.399-1.112v-0.451   c0-0.87-0.215-1.491-0.645-1.861c-0.43-0.371-1.241-0.556-2.433-0.556c-0.806,0-1.434,0.159-1.885,0.475   C128.913,143.062,128.547,143.617,128.268,144.412z M134.327,148.086c-0.58,0.193-1.499,0.424-2.755,0.693s-2.079,0.532-2.465,0.79   c-0.591,0.419-0.886,0.951-0.886,1.595c0,0.634,0.236,1.182,0.709,1.643c0.473,0.463,1.074,0.693,1.805,0.693   c0.816,0,1.595-0.269,2.336-0.806c0.548-0.408,0.908-0.908,1.08-1.499c0.118-0.387,0.177-1.123,0.177-2.208V148.086z"/>
	<path fill="#FFFFFF" d="M143.044,156.304v-23.622h4.528v8.508c1.396-1.59,3.051-2.385,4.963-2.385c2.084,0,3.808,0.755,5.172,2.264   c1.364,1.51,2.047,3.677,2.047,6.502c0,2.922-0.696,5.172-2.088,6.752c-1.391,1.578-3.08,2.368-5.066,2.368   c-0.979,0-1.941-0.245-2.893-0.733s-1.77-1.211-2.457-2.167v2.514H143.044z M147.539,147.377c0,1.772,0.279,3.083,0.838,3.932   c0.785,1.203,1.826,1.805,3.127,1.805c0.998,0,1.85-0.427,2.553-1.281c0.704-0.854,1.057-2.199,1.057-4.036   c0-1.955-0.355-3.365-1.064-4.229s-1.616-1.297-2.723-1.297c-1.085,0-1.987,0.422-2.707,1.265S147.539,145.658,147.539,147.377z"/>
	<path fill="#FFFFFF" d="M163.395,136.871v-4.189h4.528v4.189H163.395z M163.395,156.304v-17.112h4.528v17.112H163.395z"/>
	<path fill="#FFFFFF" d="M172.563,156.304v-23.622h4.528v23.622H172.563z"/>
	<path fill="#FFFFFF" d="M181.732,136.871v-4.189h4.527v4.189H181.732z M181.732,156.304v-17.112h4.527v17.112H181.732z"/>
	<path fill="#FFFFFF" d="M198.748,139.191v3.609h-3.094v6.896c0,1.396,0.029,2.21,0.088,2.441c0.059,0.23,0.193,0.422,0.402,0.572   c0.211,0.15,0.465,0.225,0.766,0.225c0.42,0,1.026-0.145,1.821-0.435l0.387,3.513c-1.053,0.451-2.245,0.677-3.577,0.677   c-0.816,0-1.553-0.137-2.207-0.411c-0.656-0.273-1.137-0.628-1.443-1.063c-0.305-0.435-0.518-1.022-0.636-1.765   c-0.097-0.525-0.146-1.589-0.146-3.19v-7.46h-2.078v-3.609h2.078v-3.4l4.545-2.643v6.042H198.748z"/>
	<path fill="#FFFFFF" d="M199.746,139.191h4.818l4.093,12.149l3.996-12.149h4.688l-6.042,16.468l-1.079,2.981   c-0.398,0.998-0.777,1.762-1.137,2.287c-0.359,0.527-0.773,0.953-1.24,1.281s-1.043,0.583-1.725,0.766s-1.453,0.273-2.313,0.273   c-0.869,0-1.724-0.091-2.562-0.273l-0.403-3.545c0.709,0.14,1.349,0.209,1.918,0.209c1.053,0,1.832-0.309,2.336-0.926   c0.506-0.618,0.893-1.404,1.16-2.361L199.746,139.191z"/>
</g>
<g>
	<path fill="#FFFFFF" d="M18.116,211.329v-19.327h6.262c2.373,0,3.92,0.097,4.641,0.29c1.107,0.29,2.035,0.921,2.782,1.892   c0.747,0.972,1.121,2.227,1.121,3.764c0,1.188-0.215,2.185-0.646,2.993s-0.978,1.443-1.641,1.905   c-0.664,0.461-1.338,0.767-2.024,0.916c-0.932,0.185-2.281,0.277-4.047,0.277h-2.544v7.29H18.116z M22.019,195.271v5.484h2.136   c1.538,0,2.566-0.102,3.085-0.303c0.519-0.203,0.925-0.52,1.219-0.949c0.294-0.432,0.442-0.932,0.442-1.504   c0-0.703-0.207-1.283-0.62-1.74s-0.936-0.742-1.569-0.856c-0.466-0.088-1.402-0.132-2.808-0.132H22.019z"/>
	<path fill="#FFFFFF" d="M39.79,192.002v7.105c1.195-1.396,2.624-2.096,4.285-2.096c0.853,0,1.622,0.158,2.307,0.475   s1.202,0.721,1.549,1.213c0.347,0.492,0.584,1.037,0.712,1.635c0.127,0.598,0.191,1.525,0.191,2.781v8.214h-3.705v-7.396   c0-1.469-0.07-2.4-0.211-2.795c-0.141-0.396-0.389-0.71-0.745-0.943c-0.355-0.232-0.802-0.35-1.338-0.35   c-0.615,0-1.165,0.15-1.648,0.449s-0.837,0.749-1.061,1.351c-0.225,0.603-0.336,1.492-0.336,2.67v7.014h-3.705v-19.327H39.79z"/>
	<path fill="#FFFFFF" d="M50.838,197.328h3.942l3.349,9.94l3.27-9.94h3.836l-4.944,13.474l-0.883,2.438   c-0.325,0.818-0.635,1.441-0.93,1.873c-0.294,0.43-0.633,0.779-1.015,1.048c-0.383,0.268-0.853,0.477-1.411,0.626   s-1.188,0.225-1.892,0.225c-0.712,0-1.411-0.075-2.096-0.225l-0.33-2.9c0.58,0.114,1.103,0.172,1.569,0.172   c0.861,0,1.499-0.254,1.912-0.759s0.729-1.149,0.949-1.931L50.838,197.328z"/>
	<path fill="#FFFFFF" d="M66.302,207.334l3.718-0.566c0.158,0.721,0.479,1.268,0.962,1.642s1.16,0.56,2.03,0.56   c0.958,0,1.679-0.176,2.162-0.527c0.325-0.246,0.488-0.575,0.488-0.988c0-0.281-0.088-0.514-0.264-0.699   c-0.185-0.176-0.598-0.338-1.239-0.487c-2.988-0.659-4.882-1.261-5.682-1.806c-1.107-0.756-1.661-1.807-1.661-3.151   c0-1.213,0.479-2.232,1.437-3.059s2.443-1.239,4.456-1.239c1.916,0,3.34,0.313,4.271,0.936c0.932,0.625,1.573,1.547,1.925,2.77   l-3.494,0.646c-0.149-0.545-0.433-0.962-0.85-1.253c-0.418-0.289-1.013-0.435-1.787-0.435c-0.976,0-1.674,0.136-2.096,0.409   c-0.281,0.193-0.422,0.443-0.422,0.751c0,0.264,0.123,0.487,0.369,0.673c0.334,0.246,1.487,0.593,3.461,1.041   c1.973,0.448,3.351,0.998,4.133,1.648c0.773,0.658,1.16,1.577,1.16,2.755c0,1.283-0.536,2.386-1.608,3.31   c-1.072,0.922-2.659,1.384-4.759,1.384c-1.907,0-3.417-0.387-4.529-1.16S66.645,208.662,66.302,207.334z"/>
	<path fill="#FFFFFF" d="M82.624,195.43v-3.428h3.705v3.428H82.624z M82.624,211.329v-14.001h3.705v14.001H82.624z"/>
	<path fill="#FFFFFF" d="M102.333,201.468l-3.652,0.659c-0.123-0.729-0.402-1.279-0.837-1.648c-0.436-0.369-1-0.553-1.694-0.553   c-0.923,0-1.659,0.318-2.208,0.955c-0.55,0.638-0.824,1.703-0.824,3.197c0,1.661,0.279,2.834,0.837,3.52s1.308,1.029,2.248,1.029   c0.703,0,1.279-0.2,1.727-0.601c0.448-0.399,0.765-1.087,0.949-2.063l3.639,0.62c-0.378,1.67-1.103,2.931-2.175,3.784   c-1.072,0.852-2.509,1.278-4.311,1.278c-2.048,0-3.681-0.646-4.898-1.938c-1.217-1.291-1.826-3.08-1.826-5.365   c0-2.312,0.611-4.111,1.833-5.398s2.874-1.932,4.957-1.932c1.705,0,3.061,0.367,4.067,1.101   C101.17,198.847,101.894,199.965,102.333,201.468z"/>
	<path fill="#FFFFFF" d="M107.91,201.6l-3.362-0.606c0.378-1.354,1.028-2.355,1.951-3.006s2.294-0.976,4.113-0.976   c1.652,0,2.883,0.195,3.691,0.587s1.378,0.888,1.707,1.489c0.33,0.603,0.495,1.707,0.495,3.316l-0.04,4.324   c0,1.23,0.06,2.138,0.178,2.722c0.119,0.585,0.341,1.211,0.666,1.879h-3.665c-0.097-0.246-0.215-0.61-0.356-1.095   c-0.062-0.219-0.105-0.364-0.132-0.435c-0.633,0.615-1.31,1.077-2.03,1.384c-0.721,0.309-1.49,0.462-2.307,0.462   c-1.441,0-2.577-0.392-3.408-1.173c-0.83-0.783-1.246-1.771-1.246-2.967c0-0.791,0.189-1.496,0.567-2.116   c0.378-0.619,0.907-1.094,1.589-1.424c0.681-0.329,1.663-0.617,2.946-0.863c1.731-0.325,2.931-0.628,3.599-0.909v-0.369   c0-0.713-0.176-1.22-0.527-1.523c-0.352-0.303-1.015-0.455-1.991-0.455c-0.659,0-1.173,0.131-1.542,0.39   S108.138,200.949,107.91,201.6z M112.867,204.605c-0.475,0.158-1.226,0.348-2.254,0.566c-1.028,0.221-1.701,0.436-2.017,0.646   c-0.483,0.343-0.725,0.777-0.725,1.305c0,0.52,0.193,0.967,0.58,1.346c0.387,0.377,0.879,0.566,1.477,0.566   c0.668,0,1.305-0.22,1.912-0.659c0.448-0.334,0.743-0.743,0.883-1.226c0.097-0.316,0.145-0.919,0.145-1.807V204.605z"/>
	<path fill="#FFFFFF" d="M120.157,211.329v-19.327h3.705v19.327H120.157z"/>
	<path fill="#FFFFFF" d="M135.2,211.329v-19.327h3.902v7.607h7.646v-7.607h3.902v19.327h-3.902v-8.45h-7.646v8.45H135.2z"/>
	<path fill="#FFFFFF" d="M157.428,201.6l-3.362-0.606c0.378-1.354,1.028-2.355,1.951-3.006s2.294-0.976,4.113-0.976   c1.652,0,2.883,0.195,3.691,0.587s1.378,0.888,1.707,1.489c0.33,0.603,0.495,1.707,0.495,3.316l-0.04,4.324   c0,1.23,0.06,2.138,0.178,2.722c0.119,0.585,0.341,1.211,0.666,1.879h-3.665c-0.097-0.246-0.215-0.61-0.355-1.095   c-0.063-0.219-0.105-0.364-0.133-0.435c-0.633,0.615-1.309,1.077-2.029,1.384c-0.721,0.309-1.49,0.462-2.308,0.462   c-1.441,0-2.577-0.392-3.408-1.173c-0.83-0.783-1.245-1.771-1.245-2.967c0-0.791,0.188-1.496,0.566-2.116   c0.378-0.619,0.907-1.094,1.589-1.424c0.681-0.329,1.663-0.617,2.946-0.863c1.731-0.325,2.932-0.628,3.6-0.909v-0.369   c0-0.713-0.176-1.22-0.527-1.523c-0.352-0.303-1.016-0.455-1.991-0.455c-0.659,0-1.173,0.131-1.542,0.39   S157.656,200.949,157.428,201.6z M162.385,204.605c-0.475,0.158-1.227,0.348-2.255,0.566c-1.028,0.221-1.7,0.436-2.017,0.646   c-0.484,0.343-0.726,0.777-0.726,1.305c0,0.52,0.193,0.967,0.58,1.346c0.387,0.377,0.879,0.566,1.477,0.566   c0.668,0,1.306-0.22,1.911-0.659c0.449-0.334,0.743-0.743,0.884-1.226c0.097-0.316,0.146-0.919,0.146-1.807V204.605z"/>
	<path fill="#FFFFFF" d="M168.186,211.329v-2.888l5.246-6.024c0.861-0.984,1.499-1.683,1.912-2.097   c-0.431,0.027-0.998,0.045-1.701,0.053l-4.943,0.027v-3.072h11.575v2.623l-5.353,6.17l-1.885,2.044   c1.027-0.062,1.665-0.093,1.911-0.093h5.735v3.257H168.186z"/>
	<path fill="#FFFFFF" d="M185.943,201.6l-3.361-0.606c0.377-1.354,1.027-2.355,1.951-3.006c0.922-0.65,2.293-0.976,4.113-0.976   c1.652,0,2.883,0.195,3.691,0.587s1.377,0.888,1.707,1.489c0.33,0.603,0.494,1.707,0.494,3.316l-0.039,4.324   c0,1.23,0.059,2.138,0.178,2.722c0.119,0.585,0.34,1.211,0.666,1.879h-3.666c-0.096-0.246-0.215-0.61-0.355-1.095   c-0.062-0.219-0.105-0.364-0.132-0.435c-0.633,0.615-1.31,1.077-2.03,1.384c-0.721,0.309-1.49,0.462-2.307,0.462   c-1.441,0-2.578-0.392-3.408-1.173c-0.83-0.783-1.246-1.771-1.246-2.967c0-0.791,0.189-1.496,0.566-2.116   c0.379-0.619,0.908-1.094,1.59-1.424c0.68-0.329,1.662-0.617,2.945-0.863c1.732-0.325,2.932-0.628,3.6-0.909v-0.369   c0-0.713-0.176-1.22-0.527-1.523c-0.352-0.303-1.016-0.455-1.99-0.455c-0.66,0-1.174,0.131-1.543,0.39   S186.172,200.949,185.943,201.6z M190.9,204.605c-0.475,0.158-1.227,0.348-2.254,0.566c-1.029,0.221-1.701,0.436-2.018,0.646   c-0.483,0.343-0.725,0.777-0.725,1.305c0,0.52,0.193,0.967,0.58,1.346c0.387,0.377,0.879,0.566,1.477,0.566   c0.668,0,1.305-0.22,1.911-0.659c0.448-0.334,0.743-0.743,0.884-1.226c0.096-0.316,0.145-0.919,0.145-1.807V204.605z"/>
	<path fill="#FFFFFF" d="M201.737,211.329h-3.704v-14.001h3.44v1.99c0.589-0.939,1.118-1.56,1.589-1.858   c0.47-0.299,1.004-0.448,1.602-0.448c0.844,0,1.656,0.232,2.439,0.699l-1.147,3.229c-0.624-0.404-1.204-0.606-1.74-0.606   c-0.519,0-0.958,0.143-1.318,0.429s-0.644,0.802-0.851,1.549s-0.31,2.312-0.31,4.693V211.329z"/>
	<path fill="#FFFFFF" d="M221.539,211.329h-3.441v-2.057c-0.57,0.8-1.246,1.396-2.023,1.786s-1.563,0.587-2.354,0.587   c-1.607,0-2.986-0.647-4.133-1.944s-1.721-3.105-1.721-5.426c0-2.373,0.559-4.176,1.675-5.411s2.526-1.853,4.231-1.853   c1.564,0,2.918,0.65,4.061,1.951v-6.961h3.705V211.329z M211.651,204.025c0,1.494,0.206,2.575,0.62,3.243   c0.598,0.967,1.432,1.45,2.504,1.45c0.854,0,1.578-0.362,2.176-1.088c0.598-0.725,0.896-1.809,0.896-3.25   c0-1.607-0.29-2.766-0.87-3.474c-0.58-0.707-1.323-1.062-2.228-1.062c-0.879,0-1.615,0.35-2.209,1.049   C211.947,201.593,211.651,202.637,211.651,204.025z"/>
</g>
<g>
	<path d="M12.398,242.975V230.09h4.175c1.582,0,2.613,0.064,3.094,0.193c0.738,0.193,1.356,0.613,1.854,1.262   c0.498,0.646,0.747,1.483,0.747,2.509c0,0.791-0.144,1.456-0.431,1.995s-0.652,0.963-1.094,1.27   c-0.442,0.309-0.892,0.512-1.349,0.611c-0.621,0.123-1.521,0.185-2.698,0.185H15v4.86H12.398z M15,232.27v3.656h1.424   c1.025,0,1.711-0.067,2.057-0.202s0.617-0.346,0.813-0.633s0.294-0.621,0.294-1.002c0-0.469-0.138-0.855-0.413-1.16   s-0.624-0.495-1.046-0.571c-0.311-0.059-0.935-0.088-1.872-0.088H15z"/>
	<path d="M29.792,240.004l2.461,0.413c-0.316,0.902-0.816,1.589-1.499,2.062c-0.683,0.471-1.537,0.707-2.562,0.707   c-1.623,0-2.824-0.53-3.604-1.591c-0.615-0.85-0.923-1.922-0.923-3.217c0-1.547,0.404-2.759,1.213-3.634   c0.809-0.877,1.831-1.314,3.067-1.314c1.389,0,2.484,0.459,3.287,1.375c0.803,0.918,1.187,2.322,1.151,4.215h-6.188   c0.018,0.732,0.217,1.303,0.598,1.709c0.381,0.408,0.855,0.611,1.424,0.611c0.387,0,0.712-0.105,0.976-0.316   S29.657,240.473,29.792,240.004z M29.932,237.508c-0.018-0.715-0.202-1.258-0.554-1.631c-0.352-0.371-0.779-0.558-1.283-0.558   c-0.539,0-0.984,0.196-1.336,0.589s-0.524,0.926-0.519,1.6H29.932z"/>
	<path d="M36.761,242.975h-2.47v-9.334h2.294v1.327c0.393-0.627,0.746-1.04,1.059-1.239s0.669-0.299,1.068-0.299   c0.563,0,1.104,0.155,1.626,0.466l-0.765,2.153c-0.416-0.27-0.803-0.404-1.16-0.404c-0.346,0-0.639,0.096-0.879,0.285   c-0.24,0.191-0.429,0.535-0.567,1.033s-0.207,1.541-0.207,3.129V242.975z"/>
	<path d="M40.532,240.312l2.479-0.378c0.105,0.48,0.319,0.846,0.642,1.094c0.322,0.25,0.773,0.374,1.354,0.374   c0.639,0,1.119-0.117,1.441-0.352c0.217-0.164,0.325-0.384,0.325-0.659c0-0.188-0.059-0.343-0.176-0.466   c-0.123-0.117-0.398-0.226-0.826-0.325c-1.992-0.439-3.255-0.841-3.788-1.204c-0.738-0.504-1.107-1.204-1.107-2.101   c0-0.809,0.319-1.488,0.958-2.039s1.629-0.826,2.971-0.826c1.277,0,2.227,0.208,2.848,0.624s1.049,1.031,1.283,1.846l-2.329,0.431   c-0.1-0.363-0.289-0.642-0.567-0.835s-0.675-0.29-1.191-0.29c-0.65,0-1.116,0.091-1.397,0.272   c-0.188,0.129-0.281,0.296-0.281,0.501c0,0.176,0.082,0.325,0.246,0.448c0.223,0.164,0.992,0.396,2.307,0.694   s2.234,0.665,2.755,1.099c0.516,0.439,0.773,1.052,0.773,1.837c0,0.855-0.357,1.591-1.072,2.206s-1.772,0.923-3.173,0.923   c-1.271,0-2.278-0.258-3.019-0.773S40.76,241.196,40.532,240.312z"/>
	<path d="M50.841,238.176c0-0.82,0.202-1.614,0.606-2.382s0.977-1.354,1.718-1.758s1.569-0.606,2.483-0.606   c1.412,0,2.569,0.459,3.472,1.375c0.902,0.918,1.354,2.076,1.354,3.477c0,1.412-0.456,2.582-1.367,3.512   c-0.911,0.928-2.058,1.393-3.441,1.393c-0.855,0-1.671-0.193-2.448-0.58s-1.367-0.953-1.771-1.701   C51.043,240.158,50.841,239.248,50.841,238.176z M53.373,238.308c0,0.926,0.22,1.635,0.659,2.127s0.981,0.738,1.626,0.738   s1.185-0.246,1.622-0.738s0.655-1.207,0.655-2.145c0-0.914-0.218-1.617-0.655-2.109s-0.977-0.738-1.622-0.738   s-1.187,0.246-1.626,0.738S53.373,237.382,53.373,238.308z"/>
	<path d="M70.898,242.975h-2.47v-4.764c0-1.008-0.053-1.66-0.158-1.955c-0.105-0.297-0.277-0.526-0.514-0.69   s-0.523-0.246-0.857-0.246c-0.428,0-0.812,0.117-1.151,0.352s-0.573,0.545-0.699,0.932s-0.189,1.102-0.189,2.145v4.228h-2.47   v-9.334h2.294v1.371c0.814-1.055,1.84-1.582,3.076-1.582c0.545,0,1.043,0.098,1.494,0.295c0.451,0.195,0.792,0.446,1.024,0.751   s0.393,0.65,0.483,1.037s0.136,0.94,0.136,1.661V242.975z"/>
	<path d="M75.249,236.488l-2.241-0.404c0.252-0.902,0.686-1.57,1.301-2.004s1.529-0.65,2.742-0.65c1.102,0,1.922,0.131,2.461,0.391   c0.539,0.262,0.918,0.592,1.138,0.994c0.22,0.4,0.33,1.138,0.33,2.21l-0.026,2.883c0,0.82,0.04,1.425,0.119,1.815   c0.079,0.389,0.227,0.807,0.444,1.252h-2.443c-0.064-0.164-0.144-0.407-0.237-0.729c-0.041-0.146-0.07-0.243-0.088-0.29   c-0.422,0.41-0.873,0.718-1.354,0.923s-0.993,0.308-1.538,0.308c-0.961,0-1.718-0.261-2.272-0.782s-0.831-1.181-0.831-1.978   c0-0.527,0.126-0.998,0.378-1.41c0.252-0.414,0.605-0.73,1.059-0.949c0.454-0.221,1.109-0.412,1.964-0.576   c1.154-0.217,1.954-0.419,2.399-0.606v-0.246c0-0.475-0.117-0.813-0.352-1.015c-0.234-0.203-0.677-0.304-1.327-0.304   c-0.439,0-0.782,0.087-1.028,0.259C75.6,235.752,75.401,236.055,75.249,236.488z M78.553,238.492   c-0.316,0.105-0.817,0.231-1.503,0.378s-1.134,0.29-1.345,0.431c-0.322,0.229-0.483,0.519-0.483,0.87   c0,0.346,0.129,0.645,0.387,0.896s0.586,0.378,0.984,0.378c0.445,0,0.87-0.146,1.274-0.439c0.299-0.223,0.495-0.495,0.589-0.817   c0.064-0.211,0.097-0.612,0.097-1.204V238.492z"/>
	<path d="M83.414,242.975V230.09h2.47v12.885H83.414z"/>
	<path d="M93.433,242.975V230.09h4.175c1.582,0,2.613,0.064,3.094,0.193c0.738,0.193,1.356,0.613,1.854,1.262   c0.498,0.646,0.747,1.483,0.747,2.509c0,0.791-0.144,1.456-0.431,1.995s-0.652,0.963-1.094,1.27   c-0.442,0.309-0.892,0.512-1.349,0.611c-0.621,0.123-1.521,0.185-2.698,0.185h-1.696v4.86H93.433z M96.035,232.27v3.656h1.424   c1.025,0,1.711-0.067,2.057-0.202s0.617-0.346,0.813-0.633s0.294-0.621,0.294-1.002c0-0.469-0.138-0.855-0.413-1.16   s-0.624-0.495-1.046-0.571c-0.311-0.059-0.935-0.088-1.872-0.088H96.035z"/>
	<path d="M107.786,242.975h-2.47v-9.334h2.294v1.327c0.393-0.627,0.746-1.04,1.059-1.239s0.669-0.299,1.068-0.299   c0.563,0,1.104,0.155,1.626,0.466l-0.765,2.153c-0.416-0.27-0.803-0.404-1.16-0.404c-0.346,0-0.639,0.096-0.879,0.285   c-0.24,0.191-0.429,0.535-0.567,1.033s-0.207,1.541-0.207,3.129V242.975z"/>
	<path d="M111.855,238.176c0-0.82,0.202-1.614,0.606-2.382s0.977-1.354,1.718-1.758s1.569-0.606,2.483-0.606   c1.412,0,2.569,0.459,3.472,1.375c0.902,0.918,1.354,2.076,1.354,3.477c0,1.412-0.456,2.582-1.367,3.512   c-0.911,0.928-2.058,1.393-3.441,1.393c-0.855,0-1.671-0.193-2.448-0.58s-1.367-0.953-1.771-1.701   C112.057,240.158,111.855,239.248,111.855,238.176z M114.386,238.308c0,0.926,0.22,1.635,0.659,2.127s0.981,0.738,1.626,0.738   s1.185-0.246,1.622-0.738s0.655-1.207,0.655-2.145c0-0.914-0.218-1.617-0.655-2.109s-0.977-0.738-1.622-0.738   s-1.187,0.246-1.626,0.738S114.386,237.382,114.386,238.308z"/>
	<path d="M127.702,233.641v1.969h-1.688v3.762c0,0.762,0.016,1.205,0.048,1.332c0.032,0.125,0.105,0.229,0.22,0.312   s0.253,0.123,0.417,0.123c0.229,0,0.56-0.079,0.993-0.237l0.211,1.916c-0.574,0.246-1.225,0.369-1.951,0.369   c-0.445,0-0.847-0.074-1.204-0.225c-0.357-0.148-0.62-0.342-0.787-0.58c-0.167-0.236-0.283-0.558-0.347-0.962   c-0.053-0.287-0.079-0.867-0.079-1.74v-4.069h-1.134v-1.969h1.134v-1.854l2.479-1.441v3.296H127.702z"/>
	<path d="M134.821,240.004l2.461,0.413c-0.316,0.902-0.816,1.589-1.499,2.062c-0.683,0.471-1.537,0.707-2.562,0.707   c-1.623,0-2.824-0.53-3.604-1.591c-0.615-0.85-0.923-1.922-0.923-3.217c0-1.547,0.404-2.759,1.213-3.634   c0.809-0.877,1.831-1.314,3.067-1.314c1.389,0,2.484,0.459,3.287,1.375c0.803,0.918,1.187,2.322,1.151,4.215h-6.188   c0.018,0.732,0.217,1.303,0.598,1.709c0.381,0.408,0.855,0.611,1.424,0.611c0.387,0,0.712-0.105,0.976-0.316   S134.686,240.473,134.821,240.004z M134.961,237.508c-0.018-0.715-0.202-1.258-0.554-1.631c-0.352-0.371-0.779-0.558-1.283-0.558   c-0.539,0-0.984,0.196-1.336,0.589s-0.524,0.926-0.519,1.6H134.961z"/>
	<path d="M147.564,236.4l-2.434,0.439c-0.082-0.486-0.268-0.853-0.558-1.099s-0.667-0.369-1.129-0.369   c-0.615,0-1.106,0.212-1.472,0.638c-0.366,0.424-0.549,1.135-0.549,2.131c0,1.107,0.186,1.89,0.558,2.347s0.872,0.686,1.499,0.686   c0.469,0,0.853-0.134,1.151-0.399c0.299-0.268,0.51-0.726,0.633-1.376l2.425,0.413c-0.252,1.113-0.734,1.954-1.449,2.522   c-0.715,0.568-1.673,0.853-2.875,0.853c-1.365,0-2.454-0.431-3.265-1.292s-1.217-2.054-1.217-3.577c0-1.541,0.407-2.74,1.222-3.6   c0.814-0.857,1.916-1.287,3.305-1.287c1.137,0,2.041,0.244,2.711,0.734C146.79,234.652,147.271,235.398,147.564,236.4z"/>
	<path d="M153.717,233.641v1.969h-1.688v3.762c0,0.762,0.017,1.205,0.049,1.332c0.032,0.125,0.105,0.229,0.22,0.312   s0.253,0.123,0.417,0.123c0.229,0,0.561-0.079,0.994-0.237l0.211,1.916c-0.574,0.246-1.225,0.369-1.951,0.369   c-0.445,0-0.848-0.074-1.205-0.225c-0.357-0.148-0.619-0.342-0.786-0.58c-0.167-0.236-0.282-0.558-0.347-0.962   c-0.053-0.287-0.08-0.867-0.08-1.74v-4.069h-1.133v-1.969h1.133v-1.854l2.479-1.441v3.296H153.717z"/>
	<path d="M155.432,232.375v-2.285h2.469v2.285H155.432z M155.432,242.975v-9.334h2.469v9.334H155.432z"/>
	<path d="M159.861,238.176c0-0.82,0.201-1.614,0.605-2.382s0.978-1.354,1.719-1.758s1.568-0.606,2.482-0.606   c1.412,0,2.57,0.459,3.473,1.375c0.902,0.918,1.354,2.076,1.354,3.477c0,1.412-0.456,2.582-1.367,3.512   c-0.911,0.928-2.059,1.393-3.441,1.393c-0.855,0-1.671-0.193-2.447-0.58s-1.367-0.953-1.771-1.701   C160.063,240.158,159.861,239.248,159.861,238.176z M162.393,238.308c0,0.926,0.219,1.635,0.658,2.127s0.982,0.738,1.627,0.738   s1.185-0.246,1.621-0.738s0.654-1.207,0.654-2.145c0-0.914-0.218-1.617-0.654-2.109s-0.977-0.738-1.621-0.738   s-1.188,0.246-1.627,0.738S162.393,237.382,162.393,238.308z"/>
	<path d="M179.918,242.975h-2.471v-4.764c0-1.008-0.053-1.66-0.158-1.955c-0.105-0.297-0.276-0.526-0.514-0.69   s-0.523-0.246-0.857-0.246c-0.428,0-0.811,0.117-1.15,0.352s-0.573,0.545-0.699,0.932s-0.189,1.102-0.189,2.145v4.228h-2.469   v-9.334h2.293v1.371c0.814-1.055,1.84-1.582,3.076-1.582c0.545,0,1.043,0.098,1.494,0.295c0.451,0.195,0.793,0.446,1.024,0.751   s0.393,0.65,0.483,1.037s0.137,0.94,0.137,1.661V242.975z"/>
</g>
<g>
	<path d="M240.065,84.726v-3.41c1.578-0.07,2.683-0.176,3.313-0.316c1.006-0.223,1.824-0.668,2.455-1.336   c0.433-0.457,0.76-1.066,0.982-1.828c0.128-0.457,0.192-0.797,0.192-1.02h4.184v25.488h-5.133V84.726H240.065z"/>
</g>
<g>
	<path d="M239.872,151.294c0.715-1.699,2.402-3.498,5.063-5.396c2.309-1.652,3.803-2.836,4.482-3.551   c1.043-1.113,1.564-2.332,1.564-3.656c0-1.078-0.299-1.975-0.896-2.689s-1.453-1.072-2.566-1.072c-1.523,0-2.561,0.568-3.111,1.705   c-0.316,0.656-0.504,1.699-0.563,3.129h-4.869c0.082-2.168,0.476-3.92,1.179-5.256c1.338-2.543,3.713-3.814,7.127-3.814   c2.697,0,4.844,0.747,6.439,2.241s2.394,3.472,2.394,5.933c0,1.887-0.563,3.563-1.69,5.027c-0.74,0.973-1.955,2.057-3.646,3.252   l-2.008,1.424c-1.256,0.891-2.115,1.535-2.578,1.934s-0.853,0.861-1.169,1.389h11.127v4.412h-17.455   C238.741,154.476,239.134,152.806,239.872,151.294z"/>
</g>
<g>
	<path d="M254.313,189.093c1.307,2.285,1.96,5.531,1.96,9.738s-0.653,7.447-1.96,9.721s-3.583,3.41-6.829,3.41   s-5.522-1.137-6.829-3.41s-1.96-5.514-1.96-9.721s0.653-7.453,1.96-9.738s3.583-3.428,6.829-3.428S253.006,186.808,254.313,189.093   z M244.53,205.555c0.48,1.553,1.465,2.329,2.953,2.329s2.464-0.776,2.927-2.329s0.694-3.794,0.694-6.724   c0-3.07-0.231-5.344-0.694-6.82s-1.438-2.215-2.927-2.215s-2.473,0.738-2.953,2.215s-0.721,3.75-0.721,6.82   C243.81,201.761,244.05,204.002,244.53,205.555z"/>
</g>
<g>
	<path d="M190.061,81.293l7.833,2.529v-9.033h6.487v9.035l7.834-2.527l1.765,5.583l-7.987,2.458l5.213,7.461l-4.8,3.412l-5.2-7.052   l-5.373,7.052l-4.8-3.412l5.249-7.461l-7.986-2.458L190.061,81.293z"/>
</g>
<g>
	<rect x="13.29" y="249.547" stroke="#000000" stroke-width="0.0945" stroke-miterlimit="10" width="52.759" height="52.759"/>
	<g id="layer1" transform="translate(-87.278,-213.93)">
		<g transform="translate(1178,-197.65)">
			<path fill="#FFFFFF" d="M-1063.064,679.378l-1.694-6.448c0,0,2.81-3.802,3.264-4.959c0,0,3.224,0.123,6.159-3.432     c0,0,2.149-0.33,4.257-1.405c2.033,0.73,7.192,1.86,7.192,1.86c2.356,3.72,6.489,8.143,6.489,8.143l-1.487,6.488l-0.909-0.041     l1.529-6.075l-5.869-5.456c-0.29,0.661,0.413,1.777,0.413,1.777c0-0.041-2.935-0.455-4.546-2.107c0.14,1.119,1.157,1.9,1.157,1.9     c0.207,0.166-5.91-0.123-8.018-3.596c0,0-2.273,4.711-5.91,3.39l-2.852,3.72l1.736,6.488L-1063.064,679.378z"/>
			<path fill="#FFFFFF" d="M-1056.605,680.613c-1.498,0.012-3.088,0.203-4.216,0.651c0,0,0.983,6.048,1.193,6.397     c1.469,1.594,2.446,1.367,3.526,1.31c0.981-0.046,2.506-0.423,3.339-2.405c0.21-0.491,0.093-5.396,0.093-5.396     C-1053.328,680.824-1054.908,680.602-1056.605,680.613z M-1055.588,681.756c0.979-0.016,1.792,0.041,1.959,0.21     c0.304-0.28,0.087,3.913,0,4.249c-0.268,0.923-1.186,1.604-2.398,1.842c-1.339,0.261-2.646-0.184-3.112-1.584     c-0.234-0.421-0.543-4.184-0.56-4.228C-1059.32,682.012-1057.219,681.784-1055.588,681.756z"/>
			<path fill="#FFFFFF" d="M-1055.047,682.306c-1.356,0.052-2.73,0.001-4.051,0.339c0.244,1.382,0.026,2.919,0.732,4.179     c0.848,1.087,2.589,0.925,3.579,0.121c0.673-0.475,0.748-1.325,0.711-2.077c0.01-0.824,0.144-1.694-0.004-2.494     C-1054.377,682.264-1054.734,682.332-1055.047,682.306z"/>
			<path fill="#FFFFFF" d="M-1063.222,680.092c0.599,0,1.782,0.538,2.04,0.869c0.1,0.128-0.029,0.982-0.029,0.982     c-0.527-0.498-2.082-1.154-2.082-1.154L-1063.222,680.092z"/>
			<path fill="#FFFFFF" d="M-1061.625,679.963c0,0,3.336,0.071,3.15,0.171c-0.432,0.231-2.423,0.584-2.423,0.584L-1061.625,679.963z     "/>
			<path fill="#FFFFFF" d="M-1062.182,681.928c0.19,0.189,1.013,0.569,1.013,0.569c-0.105,0.38,1.002,4.472,0.77,4.504     C-1061.769,686.685-1062.246,681.863-1062.182,681.928z"/>
			<path fill="#FFFFFF" d="M-1051.046,681.055c-0.013,0.001-0.026,0.004-0.038,0.004c-0.006,0-0.013,0-0.02,0     c-0.013,0-0.026,0.002-0.039,0.003c-0.032,0.001-0.064,0.005-0.096,0.01c-0.004,0.001-0.007,0-0.011,0     c-0.421,0.056-0.69,0.228-0.69,0.228v0.66c0,0,0.064-0.034,0.184-0.072c0.294-0.063,0.547-0.086,0.761-0.091     c0.214,0.005,0.468,0.031,0.764,0.094c0.116,0.038,0.177,0.069,0.177,0.069v-0.66c0,0-0.27-0.172-0.69-0.228     c-0.003,0-0.007,0.001-0.011,0c-0.032-0.003-0.064-0.009-0.096-0.01c-0.014-0.002-0.026-0.003-0.04-0.003     c-0.006,0-0.013,0-0.019,0c-0.029-0.002-0.058-0.004-0.085-0.004C-1051.013,681.055-1051.029,681.055-1051.046,681.055z"/>
			<path fill="#FFFFFF" d="M-1051.046,682.437c-0.013,0-0.026,0.002-0.038,0.002c-0.006,0-0.013,0-0.02,0     c-0.013,0-0.026,0.002-0.039,0.004c-0.032,0.001-0.064,0.006-0.096,0.01c-0.004,0.002-0.007,0-0.011,0     c-0.421,0.055-0.69,0.227-0.69,0.227v0.661c0,0,0.064-0.034,0.184-0.072c0.294-0.062,0.547-0.086,0.761-0.091     c0.214,0.005,0.468,0.03,0.764,0.093c0.116,0.038,0.177,0.07,0.177,0.07v-0.661c0,0-0.27-0.172-0.69-0.227     c-0.003,0-0.007,0.002-0.011,0c-0.032-0.004-0.064-0.009-0.096-0.01c-0.014-0.003-0.026-0.004-0.04-0.004     c-0.006,0-0.013,0-0.019,0c-0.029-0.001-0.058-0.004-0.085-0.004C-1051.013,682.437-1051.029,682.437-1051.046,682.437z"/>
			<path fill="#FFFFFF" d="M-1045.694,680.613c-1.583,0.016-3.018,0.23-3.637,0.557c0,0-0.116,4.905,0.094,5.396     c0.833,1.982,2.358,2.359,3.339,2.405c1.08,0.058,2.057,0.284,3.526-1.31c0.209-0.35,1.19-6.397,1.19-6.397     C-1042.385,680.785-1044.112,680.599-1045.694,680.613z M-1046.888,681.756c1.669-0.016,4.17,0.232,4.587,0.489     c-0.017,0.044-0.33,3.807-0.563,4.228c-0.467,1.4-1.773,1.845-3.112,1.584c-1.211-0.237-2.13-0.919-2.397-1.842     c-0.087-0.336-0.305-4.529,0-4.249C-1048.234,681.824-1047.646,681.764-1046.888,681.756z"/>
			<path fill="#FFFFFF" d="M-1046.954,682.306c1.355,0.052,2.73,0.001,4.052,0.339c-0.245,1.382-0.027,2.919-0.732,4.179     c-0.85,1.087-2.59,0.925-3.58,0.121c-0.673-0.475-0.747-1.325-0.711-2.077c-0.01-0.824-0.144-1.694,0.004-2.494     C-1047.625,682.264-1047.267,682.332-1046.954,682.306z"/>
			<path fill="#FFFFFF" d="M-1038.78,680.092c-0.599,0-1.781,0.538-2.039,0.869c-0.099,0.128,0.028,0.982,0.028,0.982     c0.528-0.498,2.083-1.154,2.083-1.154L-1038.78,680.092z"/>
			<path fill="#FFFFFF" d="M-1040.377,679.963c0,0-3.335,0.071-3.15,0.171c0.433,0.231,2.424,0.584,2.424,0.584L-1040.377,679.963z"/>
			<path fill="#FFFFFF" d="M-1039.819,681.928c-0.19,0.189-1.013,0.569-1.013,0.569c0.105,0.38-1.002,4.472-0.77,4.504     C-1040.233,686.685-1039.756,681.863-1039.819,681.928z"/>
			<path fill="#FFFFFF" d="M-1063.7,681.301c-0.017-0.001-0.032,0.002-0.044,0.003c-0.524,0.057-0.905,0.788-0.886,0.962     c0.059,0.611,1.516,6.406,1.516,6.406c0.367,3.363,1.717,2.508,1.855,2.64c0.382,0.365,0.552,2.401,0.859,3.146     c0.45,4.229,2.341,5.009,3.243,5.789c2.919,3.033,4.302,2.417,6.156,2.526c0.007,0.001,0.015,0,0.022,0     c1.854-0.109,3.24,0.507,6.159-2.526c0.901-0.78,2.79-1.56,3.239-5.789c0.309-0.744,0.478-2.78,0.86-3.146     c0.137-0.132,1.488,0.724,1.854-2.64c0,0,1.46-5.795,1.519-6.406c0.021-0.174-0.361-0.905-0.885-0.962     c-0.217-0.023-0.944,0.271-0.938,0.507c1.089,0.164,1.065,0.219,0.924,1.018c0,0-1.49,5.973-1.984,7.639     c-1.433,0.117-1.414,0.666-1.573,1.52c-0.167,0.899-0.743,4.011-1.292,5.393c-1.745,2.134-2.975,2.92-4.889,4.325     c-0.583,0.333-2.044,0.29-2.977,0.341c0,0-2.451-0.008-3.034-0.341c-1.914-1.405-3.142-2.191-4.886-4.325     c-0.549-1.382-1.125-4.493-1.292-5.393c-0.158-0.854-0.143-1.402-1.575-1.52c-0.494-1.666-1.981-7.639-1.981-7.639     c-0.142-0.799-0.167-0.854,0.922-1.018C-1062.804,681.59-1063.441,681.314-1063.7,681.301z"/>
		</g>
	</g>
	<g>
		<path fill="#FFFFFF" d="M16.71,297.81c0.032,0.224,0.094,0.392,0.187,0.503c0.169,0.201,0.46,0.302,0.872,0.302    c0.247,0,0.447-0.026,0.601-0.08c0.292-0.102,0.437-0.291,0.437-0.567c0-0.162-0.071-0.287-0.214-0.375s-0.37-0.164-0.68-0.23    l-0.53-0.116c-0.522-0.115-0.88-0.239-1.075-0.376c-0.33-0.226-0.495-0.578-0.495-1.06c0-0.438,0.161-0.803,0.484-1.093    c0.324-0.291,0.798-0.436,1.423-0.436c0.522,0,0.968,0.137,1.338,0.41c0.369,0.273,0.562,0.67,0.58,1.191h-0.983    c-0.019-0.295-0.15-0.504-0.396-0.628c-0.164-0.083-0.367-0.123-0.61-0.123c-0.271,0-0.486,0.053-0.647,0.159    c-0.162,0.106-0.242,0.255-0.242,0.445c0,0.175,0.08,0.307,0.238,0.393c0.103,0.057,0.319,0.125,0.651,0.203l0.86,0.202    c0.377,0.089,0.659,0.207,0.847,0.356c0.292,0.229,0.438,0.563,0.438,0.999c0,0.448-0.173,0.819-0.519,1.115    c-0.346,0.296-0.834,0.444-1.466,0.444c-0.645,0-1.152-0.146-1.521-0.438c-0.369-0.292-0.554-0.691-0.554-1.202H16.71z"/>
		<path fill="#FFFFFF" d="M21.87,297.119c0.176-0.022,0.302-0.05,0.378-0.083c0.137-0.058,0.204-0.147,0.204-0.27    c0-0.149-0.052-0.251-0.157-0.308c-0.104-0.057-0.258-0.084-0.46-0.084c-0.227,0-0.387,0.055-0.481,0.166    c-0.067,0.082-0.112,0.192-0.134,0.332h-0.915c0.021-0.316,0.109-0.577,0.267-0.781c0.251-0.319,0.684-0.479,1.295-0.479    c0.398,0,0.752,0.078,1.062,0.236c0.309,0.156,0.464,0.453,0.464,0.891v1.661c0,0.116,0.002,0.255,0.007,0.419    c0.007,0.124,0.025,0.209,0.057,0.253c0.031,0.044,0.078,0.081,0.139,0.109v0.14h-1.03c-0.029-0.073-0.049-0.142-0.061-0.206    c-0.01-0.063-0.02-0.138-0.026-0.22c-0.131,0.143-0.282,0.263-0.455,0.362c-0.205,0.118-0.437,0.177-0.695,0.177    c-0.33,0-0.603-0.094-0.817-0.281s-0.323-0.453-0.323-0.796c0-0.445,0.173-0.767,0.519-0.967c0.19-0.108,0.469-0.187,0.837-0.232    L21.87,297.119z M22.45,297.561c-0.061,0.038-0.122,0.068-0.183,0.092c-0.062,0.023-0.147,0.045-0.254,0.064l-0.215,0.04    c-0.202,0.036-0.348,0.079-0.436,0.13c-0.149,0.086-0.224,0.221-0.224,0.402c0,0.162,0.046,0.278,0.138,0.35    c0.091,0.072,0.201,0.109,0.332,0.109c0.207,0,0.397-0.061,0.572-0.18c0.174-0.12,0.265-0.338,0.271-0.655V297.561z"/>
		<path fill="#FFFFFF" d="M25.72,294.379c0.049,0.004,0.115,0.008,0.199,0.015v0.771c-0.053-0.007-0.142-0.013-0.267-0.015    c-0.126-0.004-0.212,0.023-0.259,0.082c-0.048,0.059-0.072,0.124-0.072,0.195c0,0.07,0,0.172,0,0.306h0.621v0.667h-0.621v2.922    h-0.94V296.4h-0.533v-0.667h0.519V295.5c0-0.388,0.065-0.654,0.196-0.801c0.137-0.217,0.468-0.325,0.994-0.325    C25.617,294.374,25.671,294.375,25.72,294.379z"/>
		<path fill="#FFFFFF" d="M28.848,295.773c0.252,0.113,0.461,0.292,0.626,0.536c0.148,0.215,0.245,0.464,0.289,0.749    c0.025,0.166,0.036,0.405,0.031,0.719h-2.638c0.015,0.363,0.141,0.617,0.378,0.764c0.145,0.092,0.319,0.137,0.522,0.137    c0.215,0,0.391-0.057,0.526-0.166c0.073-0.061,0.138-0.143,0.194-0.25h0.967c-0.026,0.215-0.143,0.434-0.352,0.654    c-0.324,0.354-0.779,0.529-1.362,0.529c-0.482,0-0.908-0.148-1.276-0.445c-0.368-0.297-0.552-0.781-0.552-1.45    c0-0.628,0.167-1.109,0.499-1.444c0.332-0.334,0.764-0.502,1.295-0.502C28.311,295.604,28.596,295.66,28.848,295.773z     M27.432,296.592c-0.134,0.138-0.218,0.324-0.253,0.561h1.632c-0.017-0.252-0.101-0.442-0.252-0.572    c-0.151-0.131-0.338-0.195-0.562-0.195C27.753,296.385,27.565,296.453,27.432,296.592z"/>
		<path fill="#FFFFFF" d="M29.901,296.407v-0.674h0.505v-1.011h0.937v1.011h0.588v0.674h-0.588v1.915    c0,0.148,0.019,0.24,0.057,0.277s0.153,0.055,0.345,0.055c0.03,0,0.06,0,0.092-0.002c0.031-0.001,0.063-0.003,0.094-0.005v0.708    l-0.449,0.017c-0.447,0.016-0.753-0.062-0.917-0.232c-0.105-0.109-0.159-0.276-0.159-0.502v-2.23H29.901z"/>
		<path fill="#FFFFFF" d="M32.682,300.018l0.119,0.006c0.094,0.004,0.182,0.002,0.266-0.01c0.084-0.011,0.155-0.037,0.212-0.076    c0.055-0.037,0.107-0.117,0.155-0.236s0.069-0.193,0.062-0.219l-1.332-3.783h1.054l0.791,2.673l0.748-2.673h1.006l-1.242,3.563    c-0.24,0.687-0.43,1.112-0.57,1.276c-0.14,0.166-0.419,0.248-0.838,0.248c-0.083,0-0.152,0-0.203-0.001    c-0.052-0.001-0.128-0.005-0.229-0.012V300.018z"/>
		<path fill="#FFFFFF" d="M41.585,295.953c-0.077-0.335-0.267-0.568-0.567-0.702c-0.168-0.073-0.356-0.109-0.562-0.109    c-0.394,0-0.718,0.148-0.972,0.446c-0.254,0.297-0.381,0.744-0.381,1.342c0,0.602,0.137,1.027,0.412,1.277    c0.275,0.25,0.587,0.374,0.938,0.374c0.343,0,0.625-0.099,0.844-0.296c0.219-0.196,0.354-0.455,0.406-0.773h-1.133v-0.818h2.04    v2.629h-0.678l-0.103-0.611c-0.198,0.231-0.375,0.395-0.532,0.49c-0.27,0.164-0.603,0.248-0.997,0.248    c-0.649,0-1.182-0.225-1.596-0.676c-0.432-0.451-0.648-1.068-0.648-1.853c0-0.792,0.218-1.428,0.655-1.905    c0.437-0.479,1.014-0.719,1.731-0.719c0.623,0,1.123,0.158,1.5,0.474c0.378,0.315,0.595,0.71,0.65,1.183H41.585z"/>
		<path fill="#FFFFFF" d="M44.477,299.322h-0.948v-4.898h0.948V299.322z"/>
		<path fill="#FFFFFF" d="M46.835,297.119c0.176-0.022,0.302-0.05,0.378-0.083c0.136-0.058,0.205-0.147,0.205-0.27    c0-0.149-0.053-0.251-0.157-0.308c-0.104-0.057-0.258-0.084-0.459-0.084c-0.227,0-0.388,0.055-0.482,0.166    c-0.067,0.082-0.112,0.192-0.135,0.332h-0.914c0.02-0.316,0.109-0.577,0.267-0.781c0.251-0.319,0.683-0.479,1.295-0.479    c0.398,0,0.752,0.078,1.062,0.236c0.31,0.156,0.464,0.453,0.464,0.891v1.661c0,0.116,0.002,0.255,0.007,0.419    c0.007,0.124,0.025,0.209,0.057,0.253c0.031,0.044,0.077,0.081,0.139,0.109v0.14h-1.03c-0.029-0.073-0.048-0.142-0.06-0.206    c-0.011-0.063-0.02-0.138-0.026-0.22c-0.132,0.143-0.284,0.263-0.455,0.362c-0.205,0.118-0.438,0.177-0.695,0.177    c-0.33,0-0.603-0.094-0.817-0.281s-0.323-0.453-0.323-0.796c0-0.445,0.173-0.767,0.519-0.967c0.19-0.108,0.469-0.187,0.837-0.232    L46.835,297.119z M47.414,297.561c-0.061,0.038-0.122,0.068-0.183,0.092c-0.063,0.023-0.147,0.045-0.255,0.064l-0.216,0.04    c-0.202,0.036-0.347,0.079-0.435,0.13c-0.149,0.086-0.224,0.221-0.224,0.402c0,0.162,0.046,0.278,0.136,0.35    c0.091,0.072,0.202,0.109,0.333,0.109c0.208,0,0.397-0.061,0.572-0.18c0.174-0.12,0.265-0.338,0.271-0.655V297.561z"/>
		<path fill="#FFFFFF" d="M49.92,298.166c0.02,0.168,0.063,0.287,0.13,0.358c0.118,0.127,0.336,0.19,0.654,0.19    c0.187,0,0.336-0.029,0.446-0.084c0.11-0.055,0.165-0.139,0.165-0.249c0-0.106-0.044-0.188-0.132-0.243    c-0.089-0.055-0.419-0.15-0.992-0.285c-0.412-0.102-0.701-0.229-0.87-0.383c-0.168-0.15-0.252-0.367-0.252-0.65    c0-0.335,0.132-0.623,0.395-0.863s0.633-0.359,1.111-0.359c0.452,0,0.821,0.09,1.107,0.27c0.285,0.181,0.448,0.494,0.491,0.936    h-0.947c-0.014-0.121-0.048-0.217-0.104-0.288c-0.105-0.129-0.282-0.193-0.533-0.193c-0.207,0-0.354,0.032-0.441,0.097    c-0.088,0.064-0.131,0.14-0.131,0.226c0,0.108,0.046,0.187,0.14,0.235c0.093,0.052,0.423,0.139,0.989,0.263    c0.378,0.089,0.66,0.224,0.848,0.403c0.187,0.182,0.28,0.408,0.28,0.68c0,0.359-0.134,0.652-0.402,0.88    c-0.267,0.228-0.681,0.341-1.24,0.341c-0.571,0-0.991-0.12-1.263-0.361c-0.272-0.24-0.408-0.546-0.408-0.918H49.92z"/>
		<path fill="#FFFFFF" d="M53.705,298.166c0.021,0.168,0.063,0.287,0.131,0.358c0.118,0.127,0.336,0.19,0.654,0.19    c0.187,0,0.335-0.029,0.446-0.084c0.11-0.055,0.165-0.139,0.165-0.249c0-0.106-0.044-0.188-0.133-0.243    c-0.088-0.055-0.418-0.15-0.991-0.285c-0.412-0.102-0.701-0.229-0.87-0.383c-0.168-0.15-0.252-0.367-0.252-0.65    c0-0.335,0.131-0.623,0.395-0.863c0.262-0.24,0.633-0.359,1.11-0.359c0.453,0,0.822,0.09,1.107,0.27    c0.285,0.181,0.449,0.494,0.491,0.936h-0.947c-0.014-0.121-0.048-0.217-0.104-0.288c-0.103-0.129-0.281-0.193-0.533-0.193    c-0.207,0-0.354,0.032-0.441,0.097s-0.132,0.14-0.132,0.226c0,0.108,0.047,0.187,0.14,0.235c0.094,0.052,0.423,0.139,0.989,0.263    c0.377,0.089,0.66,0.224,0.849,0.403c0.187,0.182,0.279,0.408,0.279,0.68c0,0.359-0.133,0.652-0.401,0.88s-0.681,0.341-1.24,0.341    c-0.571,0-0.992-0.12-1.264-0.361c-0.272-0.24-0.408-0.546-0.408-0.918H53.705z"/>
		<path fill="#FFFFFF" d="M59.117,295.773c0.252,0.113,0.461,0.292,0.625,0.536c0.148,0.215,0.245,0.464,0.289,0.749    c0.026,0.166,0.036,0.405,0.031,0.719h-2.638c0.015,0.363,0.141,0.617,0.378,0.764c0.145,0.092,0.319,0.137,0.522,0.137    c0.216,0,0.392-0.057,0.526-0.166c0.073-0.061,0.138-0.143,0.194-0.25h0.968c-0.026,0.215-0.143,0.434-0.352,0.654    c-0.324,0.354-0.779,0.529-1.362,0.529c-0.482,0-0.908-0.148-1.276-0.445s-0.553-0.781-0.553-1.45    c0-0.628,0.166-1.109,0.499-1.444c0.333-0.334,0.765-0.502,1.295-0.502C58.58,295.604,58.864,295.66,59.117,295.773z     M57.7,296.592c-0.134,0.138-0.218,0.324-0.252,0.561h1.631c-0.017-0.252-0.101-0.442-0.252-0.572    c-0.151-0.131-0.338-0.195-0.562-0.195C58.022,296.385,57.834,296.453,57.7,296.592z"/>
		<path fill="#FFFFFF" d="M61.276,298.166c0.02,0.168,0.063,0.287,0.13,0.358c0.118,0.127,0.336,0.19,0.654,0.19    c0.186,0,0.335-0.029,0.446-0.084c0.11-0.055,0.165-0.139,0.165-0.249c0-0.106-0.044-0.188-0.134-0.243    c-0.088-0.055-0.418-0.15-0.99-0.285c-0.412-0.102-0.701-0.229-0.87-0.383c-0.168-0.15-0.253-0.367-0.253-0.65    c0-0.335,0.132-0.623,0.396-0.863c0.263-0.24,0.633-0.359,1.11-0.359c0.453,0,0.822,0.09,1.107,0.27    c0.285,0.181,0.449,0.494,0.492,0.936h-0.948c-0.014-0.121-0.047-0.217-0.104-0.288c-0.104-0.129-0.282-0.193-0.533-0.193    c-0.207,0-0.354,0.032-0.442,0.097s-0.131,0.14-0.131,0.226c0,0.108,0.046,0.187,0.14,0.235c0.093,0.052,0.423,0.139,0.989,0.263    c0.377,0.089,0.66,0.224,0.849,0.403c0.185,0.182,0.279,0.408,0.279,0.68c0,0.359-0.134,0.652-0.402,0.88    c-0.267,0.228-0.681,0.341-1.24,0.341c-0.571,0-0.992-0.12-1.264-0.361c-0.272-0.24-0.408-0.546-0.408-0.918H61.276z"/>
	</g>
</g>
<g>
	<rect x="73.38" y="249.547" stroke="#000000" stroke-width="0.0945" stroke-miterlimit="10" width="52.758" height="52.759"/>
	<g transform="translate(-107.73,-241.82)">
		<g id="g2893" transform="translate(668.47,6.5237)">
			<path id="path1983" fill="#FFFFFF" d="M-442.145,516.875c-5.127-1.499-11.975-0.532-12.876-0.044     c-7.225,1.543-8.817,0.802-10.967,0.67c-1.121-0.035-2.756-1.973,0.084-2.695c1.699-0.431,5.531-0.398,6.043-0.861     c0.146-0.363-8.157,0.844-8.927,0.611c-2.22-0.671-1.152-2.26,0.028-2.404c3.817-0.772,6.81-0.602,7.078-1.064     c-0.066-0.218-7.243,0.601-8.001,0.411c-1.666-0.416-0.989-1.829-0.37-2.126c1.381-0.645,7.169-0.933,7.026-1.286     c-0.097-0.245-3.964,0.312-5.597,0.261c-1.64-0.051-1.717-2.086-0.457-2.357c4.483-1.364,8.782-1.313,9.499-1.59     c5.58-0.121,14.25-3.367,16.564-4.756C-443.169,506.056-442.022,515.023-442.145,516.875z"/>
			<path id="path1985" fill="#FFFFFF" d="M-479.826,502.263c0.023,0.858,1.102,1.924,3.484,2.641     c-3.4,0.239-1.554,2.318-0.932,2.599c1.528,0.872,5.612,1.653,7.146,1.42c0.768-0.22,0.377-0.629-0.176-0.605     c-1.215,0.042-1.63-0.109-2.403-0.23c-1.566-0.392-3.007-0.45-4.371-1.387c-0.268-0.132-0.652-0.53-0.38-0.819     c1.546-1.052,6.581,0.525,6.609-0.244c0.032-0.869-4.441-0.658-5.63-1.404c-1.239-0.576-2.639-1.464-2.589-2.007l-0.004-0.005     c0.6-0.838,1.437-0.649,2.261-0.605c1.385,0.135,6.142,1.391,6.115,0.897c-0.037-0.675-1.242-0.56-3.169-1.249     c-1.083-0.388-1.482-0.26-3.229-1.332c-0.618-0.367-1.578-0.895-1.458-1.666c1.155-1.316,7.838,1.791,8.003,1.056     c-0.123-0.865-3.489-1.142-5.756-2.69c-0.601-0.453-0.63-0.808-0.542-1.258c0.241-0.631,2.565-0.013,3.773,0.32     c7.296,2.74,15.354,3.498,23.046,2.146c-0.351,1.804-0.781,3.573-1.177,5.372l0.748,0.111l1.426-6.425     c0,0-10.229,2.447-21.21-1.043c-9.267-3.561-7.855,0.596-6.377,1.369c-5.195-0.271-1.722,3.456-0.1,3.679     C-478.717,500.702-479.85,501.366-479.826,502.263z"/>
			<path id="path2891" fill="#FFFFFF" d="M-465.311,504.455c-0.813,0.01-3.506-2.324-4.042-3.353     c-1.789-3.429,2.073-2.954,3.624-2.671c2.439,0.31,6.816,2.64,6.816,2.64c0.62,0.601,0.13,0.915-0.431,0.614     c-7.298-3.809-9.919-3.133-9.801-1.856c0.117,1.275,2.932,3.313,3.906,4.067C-464.904,503.997-464.476,504.43-465.311,504.455z"/>
		</g>
	</g>
	<g>
		<path fill="#FFFFFF" d="M86.508,295.017c-0.099-0.428-0.341-0.726-0.726-0.896c-0.215-0.094-0.455-0.141-0.718-0.141    c-0.504,0-0.918,0.189-1.243,0.57c-0.324,0.38-0.486,0.951-0.486,1.715c0,0.768,0.176,1.311,0.527,1.631    c0.351,0.318,0.75,0.479,1.197,0.479c0.439,0,0.799-0.125,1.079-0.377s0.453-0.582,0.518-0.99h-1.448v-1.045h2.608v3.359H86.95    l-0.132-0.781c-0.252,0.295-0.479,0.504-0.679,0.626c-0.345,0.211-0.77,0.316-1.274,0.316c-0.829,0-1.509-0.287-2.038-0.862    c-0.553-0.576-0.829-1.365-0.829-2.367c0-1.013,0.279-1.824,0.837-2.436c0.557-0.611,1.295-0.916,2.212-0.916    c0.795,0,1.435,0.201,1.918,0.605c0.482,0.402,0.759,0.905,0.83,1.509H86.508z"/>
		<path fill="#FFFFFF" d="M89.064,293.063h1.308v5.135h3.125v1.125h-4.433V293.063z"/>
		<path fill="#FFFFFF" d="M99.197,298.766c-0.474,0.487-1.157,0.73-2.051,0.73c-0.895,0-1.578-0.243-2.051-0.73    c-0.634-0.598-0.952-1.458-0.952-2.582c0-1.146,0.317-2.006,0.952-2.582c0.473-0.486,1.156-0.73,2.051-0.73    c0.894,0,1.578,0.244,2.051,0.73c0.631,0.576,0.947,1.436,0.947,2.582C100.143,297.308,99.828,298.168,99.197,298.766z     M98.379,297.814c0.304-0.382,0.456-0.926,0.456-1.631c0-0.702-0.152-1.244-0.456-1.628c-0.305-0.384-0.716-0.575-1.234-0.575    c-0.518,0-0.931,0.191-1.24,0.573c-0.309,0.382-0.462,0.926-0.462,1.63c0,0.705,0.154,1.249,0.462,1.631    c0.309,0.383,0.722,0.574,1.24,0.574C97.663,298.389,98.074,298.197,98.379,297.814z"/>
		<path fill="#FFFFFF" d="M104.804,293.063h1.358l-2.133,6.26h-1.236l-2.117-6.26h1.398l1.358,4.752L104.804,293.063z"/>
		<path fill="#FFFFFF" d="M111.57,294.172h-3.312v1.328h3.041v1.088h-3.041v1.609h3.465v1.125h-4.744v-6.26h4.591V294.172z"/>
		<path fill="#FFFFFF" d="M113.685,297.39c0.041,0.286,0.12,0.5,0.239,0.642c0.217,0.258,0.588,0.387,1.114,0.387    c0.316,0,0.571-0.033,0.768-0.102c0.373-0.131,0.559-0.373,0.559-0.727c0-0.207-0.091-0.367-0.273-0.479    c-0.183-0.11-0.473-0.208-0.869-0.294l-0.678-0.148c-0.666-0.147-1.124-0.307-1.372-0.479c-0.422-0.289-0.634-0.742-0.634-1.355    c0-0.561,0.207-1.025,0.62-1.398c0.412-0.369,1.019-0.555,1.817-0.555c0.668,0,1.237,0.174,1.709,0.524    c0.471,0.349,0.718,0.856,0.741,1.522h-1.256c-0.023-0.377-0.192-0.645-0.504-0.803c-0.21-0.105-0.469-0.157-0.78-0.157    c-0.345,0-0.621,0.067-0.827,0.204c-0.207,0.135-0.309,0.325-0.309,0.568c0,0.225,0.101,0.391,0.305,0.501    c0.13,0.073,0.408,0.161,0.832,0.259l1.099,0.26c0.481,0.113,0.842,0.265,1.083,0.455c0.373,0.293,0.56,0.72,0.56,1.277    c0,0.572-0.221,1.047-0.664,1.424c-0.442,0.379-1.067,0.567-1.874,0.567c-0.824,0-1.472-0.187-1.944-0.559    c-0.473-0.372-0.708-0.884-0.708-1.535H113.685z"/>
	</g>
</g>
</svg>
