<?xml version="1.0" encoding="UTF-8" standalone="no"?>
<!-- Created with Inkscape (http://www.inkscape.org/) -->
<svg version="1.1" id="svg1" width="816" height="1056" viewBox="0 0 816 1056" sodipodi:docname="fbi-anti-piracy-seeklogo.ai" xmlns:inkscape="http://www.inkscape.org/namespaces/inkscape" xmlns:sodipodi="http://sodipodi.sourceforge.net/DTD/sodipodi-0.dtd" xmlns="http://www.w3.org/2000/svg" xmlns:svg="http://www.w3.org/2000/svg">
  <defs id="defs1">
    <clipPath clipPathUnits="userSpaceOnUse" id="clipPath3">
      <path d="M 0,792 H 612 V 0 H 0 Z" transform="translate(-331.93951,-259.71681)" id="path3"/>
    </clipPath>
    <clipPath clipPathUnits="userSpaceOnUse" id="clipPath5">
      <path d="M 0,792 H 612 V 0 H 0 Z" transform="translate(-463.50981,-436.98491)" id="path5"/>
    </clipPath>
    <clipPath clipPathUnits="userSpaceOnUse" id="clipPath7">
      <path d="M 0,792 H 612 V 0 H 0 Z" transform="translate(-372.96191,-406.09471)" id="path7"/>
    </clipPath>
  </defs>
  <sodipodi:namedview id="namedview1" pagecolor="#ffffff" bordercolor="#000000" borderopacity="0.25" inkscape:showpageshadow="2" inkscape:pageopacity="0.0" inkscape:pagecheckerboard="0" inkscape:deskcolor="#d1d1d1">
    <inkscape:page x="0" y="0" inkscape:label="1" id="page1" width="816" height="1056" margin="7.4270802 14.573334 11.994667 4.0039067" bleed="0"/>
  </sodipodi:namedview>
  <g id="layer-MC0" inkscape:groupmode="layer" inkscape:label="Layer 1">
    <path id="path1" d="M 601.07,5.57 H 3.003 V 783.004 H 601.07 Z" style="fill:#100f0d;fill-opacity:1;fill-rule:nonzero;stroke:none" transform="matrix(1.3333333,0,0,-1.3333333,0,1056)"/>
    <path id="path2" d="M 0,0 1.241,-8.618 C 1.4,-9.723 0.85,-9.855 -0.161,-10.11 l 0.064,-0.447 6.48,0.935 -0.067,0.445 C 5.05,-9.306 4.325,-9.373 4.155,-8.197 L 3.558,-4.049 C 5.825,-3.723 6.3,-4.981 6.709,-6.412 l 0.449,0.064 -0.866,6.02 -0.45,-0.066 C 5.796,-1.854 5.708,-3.157 3.471,-3.444 L 2.876,0.688 C 2.765,1.453 3.08,1.571 4.051,1.711 7.145,2.157 7.794,1.106 8.456,-0.688 L 8.887,-0.627 8.372,2.952 -1.83,1.48 -1.767,1.036 C -0.914,1.105 -0.17,1.175 0,0 m 35.819,9.527 8.833,-7.728 0.444,0.212 -0.799,11.313 c -0.072,1.083 -0.005,1.492 0.843,2.036 l -0.194,0.406 -3.496,-1.663 0.195,-0.407 c 0.958,0.397 1.464,0.559 1.766,-0.075 0.153,-0.325 0.176,-0.834 0.206,-1.277 l 0.461,-6.336 -4.595,4.109 c -0.356,0.327 -1.01,0.853 -1.157,1.161 -0.294,0.619 0.084,0.797 1.086,1.356 l -0.193,0.405 -5.513,-2.625 0.193,-0.407 c 0.76,0.223 1.029,0.292 1.92,-0.48 M 16.064,2.94 l 2.19,-8.426 c 0.282,-1.079 -0.387,-1.327 -1.315,-1.662 l 0.114,-0.435 6.158,1.602 -0.112,0.435 c -0.986,-0.183 -1.704,-0.313 -1.993,0.801 l -2.191,8.427 c -0.308,1.183 0.532,1.421 1.351,1.671 l -0.115,0.434 -6.159,-1.6 0.114,-0.435 C 14.93,3.91 15.766,4.09 16.064,2.94 m 7.061,1.866 2.822,-8.047 C 26.34,-4.361 25.9,-4.648 24.912,-5.128 l 0.15,-0.424 3.894,1.364 -0.147,0.424 c -1.319,-0.308 -1.791,-0.112 -2.22,1.112 l -2.381,6.788 0.033,0.012 10.864,-6.525 0.481,0.169 -3.506,9.998 c -0.285,0.814 -0.32,1.24 0.861,1.826 l -0.147,0.424 -3.69,-1.292 0.149,-0.425 c 1.426,0.385 1.828,-0.101 2.185,-1.121 L 33.241,2.06 33.208,2.047 24.71,7.209 21.09,5.94 21.238,5.518 c 0.222,0.076 0.516,0.121 1.887,-0.712 M -9.459,0.723 c 2.543,0.106 3.345,-3.03 3.455,-5.654 0.063,-1.564 0.129,-5.793 -2.976,-5.922 -3.107,-0.128 -3.391,4.091 -3.456,5.655 -0.107,2.625 0.433,5.816 2.977,5.921 m 0.503,-12.168 c 3.723,0.154 6.321,2.874 6.166,6.647 -0.163,3.919 -3.189,6.26 -6.693,6.114 -3.506,-0.145 -6.329,-2.729 -6.166,-6.647 0.154,-3.774 2.968,-6.269 6.693,-6.114 m -24.085,11.479 -0.625,-5.978 c -0.202,-1.932 0.203,-2.609 0.909,-3.369 1.069,-1.143 2.757,-1.428 3.553,-1.512 1.084,-0.113 2.694,0.061 3.699,0.934 0.844,0.725 1.263,2.291 1.373,3.348 l 0.598,5.708 c 0.123,1.182 0.559,1.335 1.569,1.374 l 0.048,0.447 -3.979,0.416 -0.046,-0.446 c 1.546,-0.235 1.7,-0.866 1.587,-1.959 l -0.573,-5.457 c -0.119,-1.144 -0.441,-3.88 -3.623,-3.546 -2.605,0.272 -2.346,2.741 -2.24,3.762 l 0.625,5.976 c 0.165,1.577 0.728,1.534 1.928,1.463 l 0.045,0.448 -6.112,0.639 -0.047,-0.447 c 1.002,-0.214 1.468,-0.299 1.311,-1.801 m -52.157,12.625 c -0.961,-1.687 -0.862,-2.468 -0.521,-3.449 0.519,-1.476 1.95,-2.415 2.645,-2.81 0.949,-0.539 2.492,-1.024 3.762,-0.63 1.064,0.326 2.078,1.59 2.603,2.512 l 2.84,4.986 c 0.588,1.031 1.049,0.996 1.989,0.626 l 0.223,0.391 -3.475,1.978 -0.223,-0.39 c 1.322,-0.837 1.21,-1.476 0.667,-2.429 l -2.716,-4.765 c -0.57,-1 -1.964,-3.374 -4.743,-1.792 -2.276,1.295 -1.047,3.452 -0.54,4.342 l 2.975,5.22 c 0.783,1.375 1.282,1.113 2.351,0.565 l 0.222,0.39 -5.339,3.041 -0.222,-0.392 c 0.831,-0.597 1.223,-0.862 0.476,-2.175 z m 18.217,-1.961 c 0.305,0.475 0.417,0.642 1.335,0.243 1.333,-0.58 1.709,-1.587 0.985,-3.253 -0.932,-2.145 -1.957,-2.129 -4.149,-1.197 z m -2.996,0.498 -3.169,-7.293 c -0.581,-1.336 -0.936,-1.24 -2.128,-0.88 l -0.179,-0.412 5.638,-2.451 0.178,0.413 c -1.036,0.627 -1.381,0.835 -0.807,2.156 l 1.405,3.234 0.45,-0.196 1.208,-6.664 3.418,-1.487 0.18,0.413 c -0.2,0.086 -0.443,0.212 -0.548,0.611 l -1.308,6.159 c 1.023,-0.111 2.963,-0.346 3.845,1.682 1.204,2.772 -2.274,4.441 -3.441,4.949 l -5.371,2.335 -0.179,-0.412 c 0.922,-0.481 1.424,-0.739 0.808,-2.157 m 7.878,-14.244 10.139,-3.209 1.824,3.348 -0.486,0.155 c -1.913,-2.245 -3.822,-2.132 -5.52,-1.594 -1.126,0.357 -1.391,0.666 -1.151,1.421 l 1.316,4.152 c 1.716,-0.543 2.436,-1.337 1.965,-3.548 l 0.45,-0.143 1.838,5.798 -0.451,0.143 c -0.934,-2.044 -1.959,-2.21 -3.617,-1.667 l 1.261,3.979 c 0.233,0.736 0.567,0.708 1.52,0.406 2.34,-0.742 3.434,-1.559 3.062,-4.121 l 0.432,-0.137 1.093,3.448 -10,3.165 -0.136,-0.429 c 0.782,-0.304 1.498,-0.568 1.14,-1.701 l -2.632,-8.301 c -0.337,-1.063 -0.89,-0.945 -1.91,-0.735 z m 19.582,3.403 0.915,-4.652 -3.472,0.716 z m -6.619,-7.432 3.614,-0.746 0.091,0.44 c -0.598,0.16 -1.443,0.39 -1.304,1.059 0.058,0.281 0.492,0.945 1.252,2.111 l 4.007,-0.826 c 0.133,-0.615 0.434,-2.036 0.336,-2.513 -0.121,-0.581 -0.444,-0.533 -1.566,-0.393 l -0.091,-0.44 5.769,-1.19 0.091,0.439 c -0.862,0.142 -1.024,0.799 -1.436,2.849 L -40.432,3.8 -40.93,3.903 -46.875,-4.936 c -0.808,-1.211 -1.181,-1.758 -2.171,-1.701 z M 48.077,15.62 52.611,8.186 C 53.192,7.234 52.738,6.894 51.91,6.263 l 0.235,-0.385 9.078,5.539 -1.328,3.574 -0.435,-0.266 C 59.897,11.81 58.558,10.444 57.036,9.517 56.028,8.9 55.62,8.906 55.208,9.582 l -2.267,3.717 c 1.538,0.936 2.611,0.96 3.966,-0.848 l 0.404,0.247 -3.166,5.193 -0.404,-0.247 c 0.93,-2.046 0.381,-2.93 -1.119,-3.823 l -2.173,3.563 c -0.403,0.661 -0.161,0.893 0.694,1.413 2.093,1.279 3.429,1.567 5.118,-0.397 l 0.387,0.238 -1.882,3.087 -8.954,-5.464 0.233,-0.383 c 0.743,0.39 1.412,0.756 2.032,-0.258 m 49.717,47.188 c -2.397,1.633 -1.623,3.341 -1.107,4.507 L 105.126,63 c 1.344,-0.687 1.177,-1.094 0.669,-2.325 l 0.401,-0.204 2.956,5.78 -0.4,0.206 c -0.693,-1.157 -0.924,-1.53 -2.284,-0.834 l -8.441,4.316 c 0.637,1.085 1.57,2.711 4.296,1.725 l 0.241,0.47 -3.236,1.614 -4.968,-9.716 3.196,-1.695 z m 4.186,12.952 8.042,-3.331 c 1.032,-0.427 0.826,-1.111 0.535,-2.051 l 0.415,-0.173 2.432,5.88 -0.414,0.171 c -0.45,-0.896 -0.776,-1.547 -1.841,-1.107 l -8.042,3.331 c -1.129,0.468 -0.814,1.282 -0.521,2.085 l -0.414,0.171 -2.433,-5.878 0.414,-0.172 c 0.37,0.752 0.73,1.529 1.827,1.074 m 2.982,12.152 c 0.76,2.429 3.982,2.125 6.489,1.343 1.495,-0.467 5.5,-1.833 4.57,-4.801 -0.927,-2.966 -4.995,-1.808 -6.49,-1.341 -2.507,0.783 -5.329,2.37 -4.569,4.799 m 3.609,-7.871 c 3.607,-1.127 6.904,0.681 8.018,4.236 1.11,3.558 -0.57,6.922 -4.175,8.048 -3.744,1.17 -6.97,-0.887 -8.018,-4.236 -1.047,-3.35 0.431,-6.877 4.175,-8.048 m -249.976,2.554 c -2.929,0.329 -3.903,1.974 -4.407,3.683 -0.335,1.135 -0.226,1.527 0.533,1.752 l 4.175,1.234 c 0.51,-1.727 0.255,-2.769 -1.839,-3.617 l 0.133,-0.452 5.831,1.724 -0.134,0.452 c -2.216,-0.37 -2.928,0.387 -3.404,2.066 l 4.001,1.183 c 0.743,0.22 0.904,-0.073 1.187,-1.034 0.696,-2.353 0.63,-3.719 -1.701,-4.845 l 0.129,-0.436 3.467,1.026 -2.971,10.062 -0.431,-0.127 c 0.185,-0.818 0.366,-1.56 -0.772,-1.896 l -8.35,-2.47 c -1.069,-0.315 -1.281,0.21 -1.678,1.173 l -0.431,-0.127 3.012,-10.203 3.795,0.363 z m -6.556,17.558 4.117,0.793 c 0.431,-2.251 -0.803,-2.784 -2.215,-3.258 l 0.086,-0.448 5.972,1.149 -0.086,0.446 c -1.462,-0.022 -2.768,0.005 -3.157,2.227 l 4.099,0.787 c 0.76,0.146 0.892,-0.162 1.077,-1.126 0.589,-3.072 -0.431,-3.768 -2.193,-4.514 l 0.082,-0.428 3.551,0.683 -1.942,10.124 -0.443,-0.085 c 0.109,-0.851 0.214,-1.588 -0.952,-1.813 l -8.551,-1.643 c -1.096,-0.211 -1.255,0.332 -1.556,1.329 l -0.443,-0.085 1.235,-6.428 0.442,0.085 c -0.188,1.26 -0.289,1.982 0.877,2.205 M 76.282,37.387 82.574,31.371 c 0.807,-0.77 0.367,-1.333 -0.244,-2.104 l 0.323,-0.311 4.398,4.601 -0.326,0.309 C 85.98,33.192 85.44,32.704 84.609,33.5 l -6.295,6.015 c -0.882,0.846 -0.293,1.49 0.272,2.131 l -0.326,0.312 -4.395,-4.601 0.324,-0.31 c 0.618,0.567 1.235,1.16 2.093,0.34 M 67.688,26.803 c -1.648,2.387 -0.312,3.703 0.587,4.604 l 6.323,-7.067 c 1.006,-1.126 0.705,-1.443 -0.211,-2.408 l 0.299,-0.334 4.838,4.323 -0.298,0.335 c -1.065,-0.828 -1.413,-1.093 -2.434,0.047 l -6.319,7.067 c 0.984,0.781 2.441,1.962 4.63,0.059 l 0.395,0.35 -2.438,2.672 -8.136,-7.267 2.37,-2.732 z m -4.195,-7.584 1.321,0.263 c 1.281,0.257 2.224,0.42 2.943,-0.548 0.14,-0.187 1.128,-1.67 -0.622,-2.971 -1.855,-1.376 -3.913,-0.373 -5.288,0.868 l -0.423,-0.313 2.649,-3.566 0.423,0.314 c -0.112,0.274 -0.233,0.588 0.074,0.816 0.452,0.336 1.473,0.332 2.861,1.361 2.685,1.994 2.32,4.435 1.377,5.705 -1.168,1.574 -2.9,1.587 -3.579,1.465 l -2.927,-0.539 c -1.678,-0.303 -2.192,-0.191 -2.771,0.589 -0.696,0.938 -0.217,1.967 0.543,2.53 1.723,1.279 3.832,0.269 4.844,-0.547 l 0.409,0.303 -2.326,3.132 -0.438,-0.324 c 0.13,-0.328 0.218,-0.599 -0.116,-0.848 -0.424,-0.314 -1.465,-0.347 -2.634,-1.214 -2.772,-2.058 -1.766,-4.358 -1.112,-5.239 0.493,-0.664 1.417,-1.906 4.792,-1.237 m 30.053,36.864 4.677,-0.781 -1.893,-2.998 z m 4.246,-8.572 0.381,-0.24 1.97,3.12 -0.379,0.24 c -0.363,-0.504 -0.872,-1.213 -1.451,-0.848 -0.245,0.155 -0.71,0.794 -1.537,1.916 l 2.184,3.459 c 0.623,-0.093 2.061,-0.311 2.472,-0.571 0.502,-0.316 0.339,-0.604 -0.184,-1.605 l 0.381,-0.24 3.143,4.981 -0.381,0.239 c -0.433,-0.757 -1.108,-0.676 -3.17,-0.34 l -10.166,1.625 -0.272,-0.431 6.18,-8.675 c 0.85,-1.181 1.232,-1.722 0.829,-2.63 M 84.033,38.954 c 2.442,-1.958 6.199,-2.36 9.044,1.185 0.987,1.233 2.131,3.463 2.196,4.526 l -1.78,1.429 c -1.151,0.923 -0.921,1.296 -0.312,2.255 l -0.351,0.281 -3.9,-4.864 0.35,-0.282 c 0.84,0.934 1.232,1.365 2.132,0.645 l 1.473,-1.181 c 0.603,-0.484 0.842,-1.048 -0.159,-2.296 -2.148,-2.681 -5.711,0.036 -6.706,0.834 -2.415,1.935 -4.093,4.213 -2.445,6.269 1.295,1.617 3.893,1.492 5.514,1.009 l 0.282,0.355 -3.283,2.632 -0.308,-0.383 c 0.237,-0.422 0.431,-0.787 0.124,-1.17 -0.297,-0.368 -1.86,-0.909 -2.883,-2.185 -2.455,-3.063 -1.752,-6.842 1.012,-9.059 m -178.909,-22.562 2.61,3.661 0.444,-0.317 c 0.931,-0.729 2.077,-1.879 0.585,-3.973 -0.638,-0.893 -1.759,-2.06 -3.387,-0.898 -0.622,0.443 -0.722,0.868 -0.252,1.527 m 5.261,7.381 c 0.255,0.328 0.541,0.698 1.297,0.159 1.198,-0.857 0.908,-1.953 0.177,-2.977 -1.065,-1.494 -1.828,-1.877 -3.812,-0.462 z m 0.966,-9.767 c 1.19,1.67 0.157,3.51 -0.94,4.602 l 0.021,0.03 c 0.756,-0.252 2.701,-1.066 3.86,0.56 1.628,2.285 -1.35,4.497 -2.179,5.089 l -4.575,3.261 -0.261,-0.364 c 0.65,-0.532 1.25,-1.003 0.562,-1.97 l -5.052,-7.089 c -0.637,-0.895 -1.152,-0.614 -2.044,-0.111 l -0.261,-0.367 4.767,-3.399 c 3.166,-2.169 5.225,-1.472 6.102,-0.242 m 197.544,82.634 8.374,-1.597 c 1.169,-0.222 1.196,-0.746 1.114,-1.84 l 0.444,-0.085 0.771,4.054 -0.442,0.084 c -0.392,-1.295 -0.799,-1.605 -2.071,-1.363 l -7.068,1.346 0.008,0.037 11.092,6.12 0.093,0.5 -10.403,1.983 c -0.851,0.162 -1.235,0.347 -1.15,1.662 l -0.441,0.085 -0.733,-3.84 0.442,-0.084 c 0.382,1.427 1.007,1.529 2.065,1.328 l 5.355,-1.02 -0.009,-0.035 -8.725,-4.76 -0.718,-3.767 0.441,-0.084 c 0.044,0.232 0.151,0.508 1.561,1.276 M -30.401,66.175 c 0.26,0.03 0.461,0.123 0.614,0.268 0.17,0.176 0.277,0.384 0.323,0.645 0.047,0.247 0.047,0.477 -0.046,0.669 -0.062,0.199 -0.169,0.383 -0.368,0.514 -0.193,0.13 -0.538,0.261 -0.976,0.376 l -1.344,0.361 -0.46,-2.389 1.198,-0.321 c 0.46,-0.123 0.828,-0.17 1.059,-0.123 M 45.32,76.971 c 0.04,-0.009 0.085,-0.039 0.132,-0.054 0.015,-0.031 0.084,-0.031 0.107,-0.055 0.154,-0.084 0.286,-0.122 0.371,-0.129 h 0.045 c 0.037,0 0.037,0 0.084,0.007 0.038,0 0.106,0.045 0.174,0.077 v 0.023 c 0.017,0.015 0.017,0.022 0.042,0.046 l 0.045,0.031 c 0.062,0.077 0.084,0.199 0.153,0.345 0.016,0.076 0.016,0.183 0.016,0.261 0.046,0.092 0.046,0.168 0,0.252 v 0.08 c 0,0.022 -0.016,0.052 -0.016,0.059 0,0.115 -0.069,0.224 -0.116,0.308 -0.037,0.007 -0.037,0.031 -0.037,0.031 -0.045,0.047 -0.07,0.054 -0.087,0.077 -0.089,0.107 -0.258,0.229 -0.435,0.345 l -0.653,0.415 -0.499,-1.675 0.629,-0.421 z m -84.259,-8.025 c 0.261,0 0.461,0.038 0.614,0.147 0.169,0.145 0.261,0.299 0.322,0.521 0.063,0.231 0.063,0.461 0.024,0.653 -0.07,0.207 -0.177,0.391 -0.346,0.568 -0.176,0.161 -0.522,0.361 -1.045,0.607 l -0.866,0.391 -0.608,-2.127 0.861,-0.391 c 0.46,-0.23 0.83,-0.337 1.044,-0.369 m 16.255,-2.955 -1.105,-2.481 1.626,-0.222 z M 2.169,65.867 c 0.477,0.147 0.807,0.292 1.023,0.461 0.193,0.169 0.368,0.346 0.413,0.56 0.085,0.23 0.085,0.468 0.041,0.729 C 3.583,67.871 3.491,68.041 3.344,68.193 3.215,68.34 2.999,68.424 2.784,68.448 2.585,68.486 2.263,68.424 1.755,68.302 L 0.449,67.926 1.004,65.521 Z m -222.168,117.176 h 409.902 v -68.865 h -409.902 z m 369.735,-73.526 h 11.712 l -0.438,-0.94 c -1.657,0.138 -7.51,0.625 -11.274,0.94 m 20.112,-3.337 -9.293,-14.6 -14.971,2.949 c 0.801,4.162 1.437,8.381 1.895,12.651 z m -3.024,-38.376 -26.029,8.207 c 1.752,5.372 3.217,10.868 4.38,16.47 l 15.083,-2.971 z m -19.669,-16.328 -13.692,6.163 c 2.526,5.312 4.756,10.783 6.671,16.394 l 26.027,-8.206 z m -2.946,-18.387 -17.126,12.507 c 1.944,3.313 3.769,6.701 5.472,10.158 l 13.547,-6.1 z M 132.294,21.526 118.157,32.039 c 2.74,3.732 5.319,7.586 7.727,11.549 2.929,-2.127 9.077,-6.597 10.642,-7.736 z M 118.185,11.131 c -1.525,1.282 -7.757,6.519 -10.126,8.512 2.956,3.283 5.779,6.684 8.453,10.198 l 14.919,-11.267 c 0.035,-0.027 0.074,-0.054 0.112,-0.078 z M 123.898,4.155 107.521,-2.362 97.134,8.63 c 3.195,2.926 6.269,5.975 9.21,9.141 z M 98.203,-25.188 82.048,-3.614 c 4.709,3.378 9.223,6.995 13.527,10.835 L 106.048,-3.86 Z m -25.816,-1.975 -7.375,12.85 c 5.299,2.89 10.412,6.059 15.324,9.487 L 96.48,-26.39 Z m -13.516,-13.201 -6.293,19.932 c 3.598,1.587 7.126,3.294 10.579,5.121 l 7.293,-12.711 z m -16.642,-2.556 -5.081,16.597 c 4.512,1.467 8.938,3.124 13.266,4.957 1.072,-3.371 3.351,-10.529 3.935,-12.364 z m -17.713,-0.361 c -0.469,1.953 -2.345,9.782 -3.045,12.696 4.416,0.97 8.763,2.113 13.037,3.426 l 5.253,-17.648 c 0.013,-0.047 0.028,-0.091 0.047,-0.135 z m -16.8,-4.833 -1.753,14.887 c 4.391,0.538 8.727,1.245 13.007,2.115 l 5.966,-21.076 z m -21.362,-13.149 v 26.805 c 5.917,0.027 11.758,0.362 17.513,0.99 l 1.767,-15.006 z m -117.892,170.78 H 100.677 C 99.309,99.522 96.585,89.795 92.512,80.457 86.614,66.933 78.172,54.787 67.417,44.354 45.29,22.894 15.867,11.074 -15.431,11.074 c -31.298,0 -60.72,11.82 -82.847,33.28 -10.755,10.433 -19.198,22.579 -25.095,36.103 -4.072,9.338 -6.797,19.065 -8.165,29.06 M -15.431,9.545 c 60.249,0 110.008,43.555 117.647,99.972 h 30.822 C 131.523,95.323 127.876,81.523 122.124,68.333 114.608,51.1 103.851,35.621 90.145,22.329 76.436,9.032 60.47,-1.408 42.692,-8.702 24.285,-16.255 4.729,-20.084 -15.431,-20.084 c -20.159,0 -39.715,3.829 -58.123,11.382 -17.777,7.294 -33.742,17.734 -47.45,31.031 -13.706,13.292 -24.465,28.771 -31.98,46.004 -5.752,13.19 -9.4,26.99 -10.914,41.184 h 30.821 C -125.438,53.1 -75.68,9.545 -15.431,9.545 m -109.876,6.153 c -25.035,24.519 -41.61,57.306 -45.107,93.819 h 4.559 c 7.809,-73.9 72.174,-131.546 150.424,-131.546 78.251,0 142.619,57.646 150.427,131.546 h 6.016 C 137.514,73.004 120.941,40.217 95.904,15.698 67.598,-12.022 28.498,-29.168 -14.699,-29.169 -57.9,-29.168 -97.001,-12.022 -125.307,15.698 m 109.554,-76.97 -19.973,13.121 1.844,14.814 c 5.952,-0.692 11.999,-1.07 18.129,-1.118 z m -22.05,13.545 -16.845,-3.38 7.063,19.944 c 3.822,-0.773 7.692,-1.413 11.606,-1.918 z m -31.859,4.042 6.045,16.602 c 4.492,-1.386 9.066,-2.588 13.716,-3.595 -1.138,-3.244 -3.744,-10.648 -4.39,-12.484 z m -3.136,-0.102 h 0.001 c -0.021,-0.058 -0.039,-0.114 -0.054,-0.171 l -11.366,10.066 c 0.848,1.951 4.321,9.926 5.373,12.341 4.113,-1.728 8.312,-3.297 12.59,-4.694 z m -16.475,2.45 -11.462,13.114 7.805,13.396 c 3.819,-2.052 7.731,-3.956 11.729,-5.71 z m -36.696,14.678 16.491,22.023 c 4.718,-3.307 9.624,-6.374 14.7,-9.184 l -7.861,-13.489 z m -1.733,1.184 -8.205,21.995 10.808,11.286 c 4.417,-3.983 9.06,-7.732 13.911,-11.227 z m -25.289,30.405 18.201,12.382 c 2.615,-2.791 5.33,-5.488 8.141,-8.088 l -10.684,-11.158 z m -7.655,14.563 15.338,10.245 c 2.816,-3.692 5.794,-7.261 8.921,-10.697 -2.628,-1.798 -9.838,-6.726 -11.527,-7.879 z m -2.604,1.727 c -0.055,-0.035 -0.107,-0.074 -0.157,-0.114 l -3.092,14.605 c 1.885,1.103 9.816,5.743 11.964,7.001 0.587,-0.827 1.82,-2.565 3.157,-4.449 1.416,-2.137 2.897,-4.253 4.427,-6.332 z m -11.854,11.375 -1.327,17.121 14.759,6.535 c 1.75,-3.589 3.633,-7.105 5.647,-10.537 l 0.351,-0.706 z m -2.321,18.968 -18.464,13.819 26.934,8.489 c 1.843,-5.379 3.975,-10.629 6.38,-15.733 z m -12.469,38.236 15.776,3.006 c 1.183,-5.771 2.689,-11.428 4.499,-16.956 l -26.952,-8.497 z m -1.23,19.718 h 14.542 c 0.037,-0.403 0.068,-0.807 0.107,-1.207 -3.051,0.042 -12.159,0.172 -14.273,0.203 z m -7.501,-3.164 22.4,-0.369 c 0.433,-3.751 1.002,-7.463 1.702,-11.13 l -15.601,-2.973 z m 21.581,89.71 14.539,-6.545 c -0.486,-1.03 -0.952,-2.07 -1.415,-3.112 h -25.91 z m 2.944,18.386 17.853,-13.037 c -1.902,-3.265 -3.687,-6.603 -5.352,-10.009 l -14.39,6.478 z m 11.917,11.563 14.812,-11.013 c -2.727,-3.74 -5.293,-7.601 -7.683,-11.572 -2.48,1.802 -9.647,7.013 -11.362,8.258 z m 14.111,10.395 c 1.63,-1.37 8.6,-7.231 10.544,-8.865 -0.594,-0.754 -1.771,-2.246 -3.077,-3.903 -1.76,-2.093 -3.476,-4.244 -5.134,-6.44 l -15.577,11.764 c -0.038,0.028 -0.076,0.054 -0.115,0.079 z m -5.716,6.974 16.38,6.518 10.877,-11.508 c -3.117,-2.878 -6.115,-5.874 -8.99,-8.982 l -0.114,-0.106 z m 25.697,29.345 16.526,-22.071 c -4.671,-3.384 -9.149,-7.009 -13.416,-10.848 l -10.955,11.591 z m 25.816,1.975 7.631,-13.299 c -5.259,-2.906 -10.338,-6.089 -15.213,-9.527 l -16.513,22.052 z m 13.514,13.2 6.428,-20.357 c -3.557,-1.593 -7.046,-3.306 -10.459,-5.136 l -7.549,13.153 z m 16.645,2.555 5.181,-16.927 c -4.504,-1.494 -8.919,-3.177 -13.236,-5.035 -1.005,3.156 -3.455,10.857 -4.065,12.772 z m 17.714,0.362 c 0.481,-2.006 2.456,-10.248 3.103,-12.941 -4.404,-0.994 -8.742,-2.163 -13.002,-3.499 l -5.346,17.963 c -0.015,0.047 -0.031,0.094 -0.048,0.139 z m 16.797,4.834 1.773,-15.045 c -4.377,-0.559 -8.699,-1.29 -12.96,-2.183 l -6.031,21.3 z m 21.364,13.148 v -26.841 c -5.913,-0.063 -11.75,-0.434 -17.496,-1.097 l -1.785,15.147 z m 0.81,-69.048 c -42.107,0 -79.09,-21.275 -100.154,-53.346 h -34.88 c 7.329,15.058 17.214,28.685 29.461,40.562 13.708,13.299 29.673,23.738 47.45,31.031 18.408,7.553 37.964,11.382 58.123,11.382 20.16,0 39.716,-3.829 58.123,-11.382 17.778,-7.293 33.744,-17.732 47.453,-31.031 12.247,-11.877 22.131,-25.504 29.459,-40.562 H 84.725 C 63.66,218.477 26.677,239.752 -15.431,239.752 m -4.568,-53.346 h -10.826 v 18.479 h 10.826 z m 21.662,0 H -9.174 v 18.479 H 1.663 Z m -0.285,27.821 c 0.139,0 0.243,-0.114 0.243,-0.262 v -0.21 h 4.552 c -0.721,-1.872 -2.727,-3.212 -5.091,-3.212 -2.364,0 -4.371,1.34 -5.09,3.212 h 4.131 v 0.21 c 0,0.148 0.091,0.262 0.239,0.262 h 0.255 v 3.969 c -0.044,0.007 -0.074,0.007 -0.132,0.007 l -4.196,-4.344 c -0.074,-0.066 -0.206,-0.066 -0.287,0 -0.072,0.091 -0.1,0.225 -0.01,0.308 l 4.011,4.147 c -0.795,0.247 -1.441,0.802 -1.8,1.514 l -10.593,-0.265 -2.147,-2.072 -0.044,0.03 -0.032,-0.03 -2.138,2.072 -10.582,0.265 c -0.359,-0.712 -1.005,-1.267 -1.799,-1.514 l 4.01,-4.147 c 0.09,-0.083 0.065,-0.217 -0.01,-0.308 -0.079,-0.066 -0.227,-0.066 -0.285,0 l -4.212,4.344 c -0.043,0 -0.085,0 -0.133,-0.007 v -3.969 h 0.254 c 0.154,0 0.255,-0.114 0.255,-0.262 v -0.21 h 4.131 c -0.719,-1.872 -2.724,-3.212 -5.09,-3.212 -2.364,0 -4.371,1.34 -5.09,3.212 h 4.54 v 0.21 c 0,0.148 0.1,0.262 0.253,0.262 h 0.297 v 3.953 c -0.058,0.016 -0.137,0.016 -0.19,0.023 l -4.556,-4.344 c -0.09,-0.066 -0.227,-0.066 -0.302,0 -0.074,0.098 -0.074,0.225 0.022,0.308 l 4.339,4.132 c -1.259,0.352 -2.17,1.477 -2.17,2.807 v 0.114 h 1.122 v -0.114 c 0,-0.965 0.761,-1.751 1.735,-1.834 v 0.428 c 0,0.128 0.09,0.231 0.223,0.231 0.136,0 0.227,-0.103 0.227,-0.231 v -0.419 c 0.926,0.134 1.615,0.904 1.615,1.825 v 0.114 c 3.507,0.695 7.037,1.384 10.541,2.065 0.93,0.181 0.84,0.099 0.84,1.019 v 1.765 c 0,1.31 0.989,2.373 2.185,2.398 1.228,-0.025 2.218,-1.088 2.218,-2.398 0,-0.057 -0.016,-0.119 -0.016,-0.189 v -1.57 c 0,-0.897 -0.106,-0.837 0.793,-1.017 l 10.583,-2.073 v -0.114 c 0,-0.921 0.72,-1.691 1.62,-1.825 v 0.419 c 0,0.128 0.104,0.231 0.222,0.231 0.138,0 0.243,-0.103 0.243,-0.231 v -0.428 c 0.958,0.083 1.734,0.869 1.734,1.834 v 0.114 h 1.112 v -0.114 c 0,-1.33 -0.899,-2.455 -2.157,-2.807 l 4.337,-4.132 c 0.096,-0.083 0.096,-0.21 0.022,-0.308 -0.074,-0.066 -0.211,-0.066 -0.318,0 l -4.55,4.344 c -0.064,-0.007 -0.121,-0.007 -0.18,-0.023 v -3.953 z m 9.361,15.286 H -7.247 c -5.058,0 -7.375,5.922 -7.375,5.922 0,0 -2.323,-5.922 -7.382,-5.922 h -17.999 l -8.295,-7.126 c 0,0 6.572,-2.24 6.572,-7.727 v -28.254 h -72.035 c 4.451,6.652 9.62,12.849 15.483,18.536 22.127,21.462 51.549,33.281 82.847,33.281 31.298,0 60.721,-11.819 82.848,-33.281 5.861,-5.687 11.032,-11.884 15.483,-18.536 H 12.458 v 28.254 c 0,5.487 6.605,7.727 6.605,7.727 z m -25.438,47.655 c 43.197,0 82.297,-17.146 110.603,-44.865 13.43,-13.154 24.423,-28.688 32.274,-45.897 h -6.416 c -24.033,50.148 -76.422,84.921 -137.193,84.921 -60.769,0 -113.157,-34.773 -137.192,-84.921 h -4.956 c 7.85,17.209 18.843,32.743 32.272,45.897 28.306,27.719 67.407,44.865 110.608,44.865 m 0.564,31.642 19.972,-13.122 -1.833,-14.727 c -5.956,0.656 -12.008,0.997 -18.139,1.008 z m 22.048,-13.544 16.847,3.379 -7.005,-19.781 c -3.839,0.75 -7.725,1.369 -11.652,1.853 z m 31.861,-4.045 -5.952,-16.345 c -4.501,1.359 -9.087,2.535 -13.747,3.517 1.168,3.328 3.694,10.502 4.326,12.307 z m 3.135,0.104 -0.607,0.227 0.607,-0.224 c 0.023,0.056 0.039,0.111 0.053,0.167 l 11.366,-10.066 c -0.812,-1.865 -4.033,-9.263 -5.226,-12.006 -4.127,1.706 -8.341,3.252 -12.633,4.629 z m 16.477,-2.45 11.46,-13.111 -7.575,-13.006 c -3.849,2.039 -7.793,3.933 -11.82,5.673 z M 96.08,274.197 79.925,252.619 c -4.751,3.296 -9.691,6.347 -14.798,9.141 l 7.619,13.085 z m 1.733,-1.185 8.205,-21.993 -10.352,-10.815 c -4.454,3.981 -9.137,7.725 -14.024,11.208 z m 25.29,-30.403 -17.601,-11.974 c -2.658,2.814 -5.42,5.536 -8.278,8.158 l 10.222,10.68 z m 7.656,-14.566 -14.683,-9.806 c -2.834,3.685 -5.826,7.247 -8.97,10.674 2.991,2.046 9.343,6.388 10.917,7.465 z m 2.605,-1.727 c 0.055,0.037 0.107,0.076 0.157,0.116 l 3.09,-14.606 c -1.76,-1.031 -8.793,-5.146 -11.465,-6.709 -2.32,3.746 -4.794,7.39 -7.417,10.927 z m 11.852,-11.373 1.328,-17.123 -13.942,-6.171 c -1.893,3.858 -3.945,7.631 -6.142,11.31 z m 2.32,-18.97 12.785,-9.567 h -25.273 c -0.502,1.126 -1.009,2.248 -1.538,3.36 z m 47.099,-86.456 v 76.889 h -30.321 l -15.357,11.492 -1.418,18.305 c -0.076,0.924 -0.858,1.602 -1.761,1.602 -0.038,0 -0.085,0 -0.145,-0.007 -0.278,-0.018 -0.573,-0.115 -0.818,-0.274 l -6.119,-3.909 -3.121,14.749 c -0.179,0.829 -0.916,1.381 -1.728,1.381 -0.113,0 -0.234,-0.011 -0.363,-0.038 -0.188,-0.036 -0.388,-0.113 -0.564,-0.221 l -12.67,8.29 5.192,3.532 c 0.492,0.333 0.76,0.876 0.76,1.426 0,0.345 -0.109,0.699 -0.326,0.999 -0.176,0.251 -0.437,0.46 -0.719,0.58 l -16.317,7.154 c -0.102,0.122 -0.205,0.216 -0.323,0.332 -0.116,0.111 -0.237,0.218 -0.332,0.305 l -8.479,22.732 c -0.162,0.518 -0.312,0.954 -0.729,1.294 -0.431,0.323 -0.873,0.355 -1.394,0.406 -0.044,0.008 -0.132,0.016 -0.219,0.016 -0.039,0 -0.083,-0.001 -0.132,-0.006 l -24.477,0.681 -12.247,14.009 c -0.352,0.402 -0.848,0.606 -1.342,0.606 -0.395,0 -0.804,-0.133 -1.135,-0.408 -0.223,-0.18 -0.409,-0.435 -0.511,-0.706 l -2.578,-6.643 -11.476,10.164 c -0.337,0.3 -0.765,0.449 -1.185,0.446 -0.468,0.003 -0.947,-0.184 -1.297,-0.56 -0.134,-0.141 -0.25,-0.318 -0.33,-0.502 l -15.297,-0.518 2.065,5.822 c 0.067,0.188 0.098,0.381 0.098,0.569 0,0.732 -0.475,1.4 -1.198,1.64 -0.179,0.061 -0.371,0.093 -0.564,0.093 -0.117,0 -0.239,-0.012 -0.362,-0.037 l -17.535,-3.52 c -0.155,0.043 -0.297,0.057 -0.466,0.086 -0.163,0.024 -0.327,0.043 -0.458,0.059 l -20.638,13.558 c -0.463,0.342 -0.868,0.617 -1.432,0.629 -0.505,-0.01 -0.865,-0.224 -1.3,-0.47 -0.077,-0.038 -0.179,-0.105 -0.274,-0.182 l -20.228,-13.42 -18.401,4.352 c -0.137,0.033 -0.277,0.049 -0.414,0.049 -0.787,0.002 -1.511,-0.517 -1.715,-1.319 -0.032,-0.13 -0.052,-0.272 -0.052,-0.414 0,-0.151 0.022,-0.313 0.068,-0.469 l 1.926,-6.805 -15.422,1.674 c -0.062,0.009 -0.129,0.011 -0.195,0.011 -0.877,10e-4 -1.648,-0.639 -1.753,-1.539 -0.009,-0.061 -0.012,-0.132 -0.012,-0.201 -0.001,-0.126 0.014,-0.257 0.045,-0.384 l -12.06,-9.145 -1.869,5.915 c -0.241,0.752 -0.94,1.221 -1.686,1.221 -0.169,0 -0.344,-0.024 -0.518,-0.078 -0.289,-0.082 -0.572,-0.257 -0.779,-0.482 l -12.061,-12.853 c -0.308,-0.112 -0.6,-0.284 -0.821,-0.405 l -24.917,-0.802 c -0.047,0.004 -0.125,0.005 -0.203,0.005 -0.507,-0.001 -0.955,-0.039 -1.36,-0.331 -0.393,-0.3 -0.553,-0.676 -0.751,-1.115 -0.04,-0.074 -0.085,-0.191 -0.115,-0.307 l -8.232,-22.381 -17.514,-6.97 c -0.674,-0.269 -1.103,-0.913 -1.102,-1.606 -10e-4,-0.218 0.043,-0.449 0.14,-0.671 0.106,-0.261 0.3,-0.512 0.534,-0.687 l 5.679,-4.404 -13.467,-7.428 c -0.569,-0.313 -0.902,-0.901 -0.9,-1.51 -0.002,-0.291 0.076,-0.594 0.237,-0.867 0.095,-0.166 0.229,-0.324 0.38,-0.448 l -4.212,-14.257 -5.106,3.73 c -0.317,0.231 -0.688,0.344 -1.053,0.342 -0.527,0.002 -1.059,-0.231 -1.408,-0.687 -0.189,-0.237 -0.316,-0.546 -0.348,-0.851 l -1.967,-17.261 c -0.088,-0.13 -0.147,-0.254 -0.225,-0.399 -0.071,-0.14 -0.141,-0.283 -0.195,-0.396 l -15.042,-11.363 h -28.333 v -76.889 h 28.437 l 0.326,-0.871 -6.337,0.104 c -0.012,0.001 -0.029,0.002 -0.063,0.002 -0.939,0.002 -1.733,-0.728 -1.764,-1.681 -0.001,-0.03 -0.001,-0.047 -0.001,-0.052 -0.002,-0.293 0.082,-0.608 0.239,-0.866 l 8.862,-15.09 c 0.022,-0.297 0.092,-0.63 0.143,-0.875 l -6.91,-23.225 c -0.134,-0.376 -0.242,-0.7 -0.245,-1.076 0,-0.699 0.463,-1.14 0.943,-1.535 0.062,-0.063 0.163,-0.139 0.269,-0.204 l 19.39,-14.51 1.419,-18.305 c 0.074,-0.923 0.855,-1.601 1.757,-1.599 0.047,0 0.079,0.002 0.099,0.002 0.324,0.021 0.622,0.118 0.866,0.277 l 6.118,3.911 3.123,-14.751 c 0.178,-0.829 0.915,-1.38 1.727,-1.379 0.118,0 0.232,0.013 0.341,0.032 0.21,0.039 0.412,0.117 0.588,0.225 l 12.668,-8.289 -5.191,-3.533 c -0.488,-0.33 -0.763,-0.871 -0.761,-1.423 -0.001,-0.345 0.107,-0.702 0.326,-1.003 0.178,-0.251 0.435,-0.459 0.72,-0.579 l 16.319,-7.155 c 0.101,-0.121 0.205,-0.213 0.322,-0.332 0.116,-0.109 0.236,-0.217 0.331,-0.304 l 8.479,-22.733 c 0.163,-0.515 0.313,-0.952 0.729,-1.292 0.43,-0.325 0.873,-0.356 1.395,-0.407 0.049,-0.007 0.133,-0.014 0.219,-0.014 0.047,0 0.085,0.002 0.117,0.004 l 24.492,-0.68 12.245,-14.011 c 0.353,-0.403 0.851,-0.603 1.341,-0.602 0.396,-10e-4 0.8,0.133 1.129,0.4 0.232,0.184 0.417,0.442 0.521,0.715 l 2.575,6.639 11.477,-10.164 c 0.336,-0.3 0.764,-0.446 1.181,-0.446 0.473,0 0.945,0.187 1.297,0.554 0.137,0.142 0.253,0.321 0.333,0.507 l 15.295,0.52 -2.061,-5.822 c -0.065,-0.184 -0.1,-0.375 -0.098,-0.569 -0.002,-0.73 0.471,-1.399 1.197,-1.64 0.18,-0.061 0.373,-0.094 0.562,-0.092 0.125,0 0.241,0.013 0.342,0.031 l 17.559,3.523 c 0.154,-0.041 0.295,-0.057 0.465,-0.084 0.162,-0.024 0.327,-0.044 0.459,-0.059 l 20.637,-13.56 c 0.463,-0.34 0.867,-0.615 1.43,-0.626 0.507,0.01 0.863,0.224 1.295,0.465 0.084,0.041 0.186,0.111 0.278,0.185 l 20.231,13.419 18.4,-4.35 c 0.14,-0.033 0.279,-0.05 0.413,-0.049 0.788,0 1.507,0.518 1.714,1.316 0.034,0.141 0.052,0.282 0.052,0.418 0,0.162 -0.024,0.315 -0.063,0.456 l -1.93,6.817 15.424,-1.675 c 0.069,-0.007 0.134,-0.01 0.195,-0.009 0.878,0 1.642,0.64 1.753,1.532 0.008,0.079 0.011,0.143 0.011,0.206 0,0.131 -0.017,0.262 -0.047,0.387 l 12.063,9.144 1.867,-5.917 c 0.243,-0.753 0.939,-1.22 1.685,-1.219 0.172,-0.001 0.342,0.027 0.508,0.075 0.303,0.083 0.585,0.255 0.792,0.485 l 12.06,12.851 c 0.308,0.113 0.599,0.285 0.821,0.405 l 24.919,0.8 c 0.049,-0.001 0.124,-0.001 0.197,-0.001 0.508,0.001 0.955,0.038 1.36,0.33 0.393,0.299 0.555,0.676 0.755,1.112 0.041,0.077 0.085,0.193 0.115,0.308 l 8.232,22.382 17.512,6.97 c 0.678,0.271 1.104,0.916 1.104,1.608 0,0.222 -0.047,0.447 -0.135,0.658 -0.112,0.273 -0.304,0.522 -0.538,0.698 l -5.68,4.406 13.467,7.427 c 0.571,0.314 0.901,0.903 0.901,1.511 0,0.297 -0.08,0.593 -0.234,0.858 -0.098,0.172 -0.233,0.329 -0.384,0.456 l 4.21,14.256 5.108,-3.729 c 0.315,-0.23 0.688,-0.343 1.053,-0.343 0.527,0 1.053,0.235 1.404,0.68 0.195,0.242 0.321,0.553 0.351,0.86 l 1.97,17.26 c 0.085,0.13 0.145,0.254 0.222,0.399 0.074,0.14 0.142,0.282 0.194,0.397 l 19.667,14.853 c 0.316,0.213 0.581,0.405 0.801,0.673 0.225,0.262 0.351,0.64 0.34,0.968 -0.002,0.296 -0.063,0.559 -0.132,0.869 -0.014,0.087 -0.049,0.212 -0.096,0.325 l -6.895,22.788 9.94,15.614 c 0.181,0.284 0.269,0.605 0.269,0.917 0,0.589 -0.307,1.158 -0.845,1.479 -0.247,0.152 -0.549,0.243 -0.839,0.251 l -7.294,0.326 0.321,0.684 z m -299.788,-72.906 -5.968,-6.336 c -0.752,-0.798 -1.186,-0.462 -2.013,0.143 l -0.308,-0.327 7.647,-7.207 3.341,2.46 -0.383,0.362 c -2.002,-0.905 -3.766,-1.293 -5.764,0.588 -0.887,0.836 -1.08,1.216 -0.488,1.844 l 5.82,6.179 c 1.085,1.153 1.507,0.78 2.471,-0.054 l 0.308,0.326 -4.617,4.351 -0.309,-0.326 c 0.559,-0.6 1.077,-1.138 0.263,-2.003 m 19.461,39.937 0.131,0.007 0.047,-0.09 1.257,-2.689 0.044,-0.106 -0.085,-0.077 -0.783,-0.584 -0.153,-0.108 -0.086,0.154 c -0.111,0.184 -0.194,0.345 -0.302,0.483 -0.07,0.132 -0.177,0.238 -0.243,0.316 -0.083,0.106 -0.172,0.176 -0.26,0.251 -0.066,0.055 -0.172,0.101 -0.262,0.154 v 0.009 c -0.084,0.03 -0.173,0.076 -0.257,0.083 -0.088,0.039 -0.176,0.039 -0.261,0.039 h -0.046 c -0.042,0 -0.13,0 -0.26,-0.039 h -0.043 c -0.108,-0.007 -0.219,-0.037 -0.392,-0.076 l -0.652,-0.146 0.349,-2.058 0.284,0.07 c 0.019,0 0.019,0 0.062,0.007 l 0.046,0.023 c 0.084,0.031 0.129,0.055 0.173,0.109 0.022,0.022 0.042,0.052 0.065,0.082 0.023,0.047 0.023,0.078 0.042,0.124 v 0.177 c 0,0.085 -0.019,0.168 -0.019,0.276 l -0.088,0.484 -0.044,0.146 0.151,0.024 0.849,0.207 0.172,0.021 0.024,-0.151 0.718,-3.978 0.022,-0.155 -0.154,-0.015 -0.848,-0.199 -0.15,-0.031 -0.045,0.153 -0.085,0.576 -0.023,0.062 -0.023,0.07 c 0,0.076 -0.02,0.153 -0.042,0.167 -0.043,0.062 -0.043,0.077 -0.089,0.108 0,0.039 -0.019,0.069 -0.042,0.078 -0.042,0.021 -0.042,0.038 -0.066,0.045 -0.022,0 -0.022,0.023 -0.065,0.023 h -0.022 -0.065 c -0.066,-0.023 -0.131,-0.023 -0.217,-0.047 l -0.218,-0.053 0.304,-1.711 c 0.023,-0.116 0.046,-0.2 0.065,-0.277 0,-0.062 0.023,-0.107 0.023,-0.116 l 0.043,-0.03 v -0.017 c 0.045,-0.021 0.045,-0.03 0.065,-0.03 0.022,-0.022 0.045,-0.022 0.087,-0.022 0.066,0 0.108,0.031 0.219,0.052 l 0.28,0.056 0.132,0.029 0.041,-0.146 0.22,-1.228 0.022,-0.153 -0.152,-0.031 -3.238,-0.729 -0.172,-0.03 -0.024,0.16 -0.219,1.214 -0.042,0.152 0.174,0.031 0.218,0.047 c 0.084,0.031 0.173,0.062 0.262,0.099 0.041,0.009 0.065,0.039 0.084,0.077 0,0 0.023,0.055 0.023,0.116 0,0.091 -0.023,0.184 -0.023,0.284 l -0.91,5.129 c -0.024,0.106 -0.046,0.193 -0.088,0.27 0,0.068 -0.042,0.099 -0.042,0.13 l -0.024,0.021 v 0.024 c -0.018,0.009 -0.018,0.009 -0.065,0.009 -0.023,0.023 -0.042,0.023 -0.084,0.023 -0.088,-0.023 -0.153,-0.023 -0.242,-0.032 l -0.216,-0.069 -0.153,-0.031 -0.023,0.177 -0.214,1.214 -0.024,0.153 0.131,0.03 z m 0.783,0.369 3.11,1.305 0.15,0.068 0.065,-0.176 0.327,-1.197 0.043,-0.132 -0.131,-0.052 -0.262,-0.117 h -0.018 l -0.066,-0.021 -0.046,-0.047 c -0.085,-0.007 -0.131,-0.046 -0.131,-0.076 -0.019,-0.007 -0.019,-0.031 -0.019,-0.063 -0.023,-0.022 -0.023,-0.045 -0.023,-0.092 0,-0.031 0,-0.068 0.023,-0.146 0.019,-0.091 0.043,-0.184 0.065,-0.308 l 1.366,-4.774 c 0.024,-0.139 0.066,-0.246 0.09,-0.308 0.022,-0.053 0.041,-0.123 0.065,-0.13 v -0.023 l 0.022,-0.007 0.019,-0.017 h 0.046 c 0,-0.022 0.043,-0.022 0.066,-0.022 0.019,0.022 0.066,0.039 0.108,0.046 l 0.345,0.153 0.176,0.062 0.042,-0.185 0.351,-1.182 0.018,-0.122 -0.108,-0.062 -3.128,-1.291 -0.154,-0.075 -0.06,0.183 -0.33,1.183 -0.021,0.139 0.109,0.045 0.242,0.108 h 0.018 l 0.066,0.03 0.042,0.024 c 0.088,0.038 0.13,0.068 0.154,0.106 0.022,0 0.022,0.039 0.022,0.039 v 0.008 c 0.02,0.022 0.02,0.054 0.02,0.077 0,0.024 0,0.076 -0.02,0.138 0,0.077 -0.022,0.169 -0.046,0.277 l -1.389,4.791 c -0.019,0.145 -0.043,0.245 -0.088,0.322 -0.02,0.077 -0.043,0.124 -0.085,0.162 v 0.046 c -0.042,0 -0.066,0.023 -0.089,0.023 h -0.042 c -0.042,-0.023 -0.107,-0.032 -0.172,-0.069 l -0.307,-0.116 -0.15,-0.076 -0.024,0.184 -0.345,1.183 -0.046,0.129 z m 3.652,1.642 3.236,1.651 c 0.369,0.208 0.718,0.339 1.066,0.415 0.325,0.063 0.651,0.077 0.934,0.03 0.304,-0.045 0.587,-0.153 0.849,-0.306 0.281,-0.161 0.542,-0.369 0.778,-0.637 0.089,-0.055 0.132,-0.153 0.219,-0.231 0.042,-0.078 0.132,-0.153 0.197,-0.261 0.303,-0.438 0.587,-0.967 0.825,-1.621 v -0.031 c 0.024,-0.075 0.065,-0.153 0.085,-0.26 0.022,-0.077 0.046,-0.154 0.069,-0.239 0.126,-0.444 0.214,-0.858 0.214,-1.251 l 0.023,-0.03 v -0.454 c 0,-0.391 -0.045,-0.798 -0.153,-1.174 -0.043,-0.262 -0.131,-0.499 -0.214,-0.737 -0.09,-0.223 -0.197,-0.438 -0.309,-0.599 -0.083,-0.153 -0.213,-0.293 -0.345,-0.445 -0.176,-0.153 -0.306,-0.284 -0.522,-0.461 l -0.172,-0.115 -0.131,-0.107 c -0.261,-0.177 -0.48,-0.331 -0.653,-0.423 l -2.825,-1.46 -0.173,-0.077 -0.066,0.156 -0.409,1.181 -0.047,0.123 0.13,0.061 0.195,0.108 0.066,0.046 0.065,0.031 c 0.089,0.045 0.131,0.077 0.155,0.099 v 0.055 c 0.019,0.045 0.019,0.085 0.019,0.153 v 0.078 l -0.019,0.015 c -0.024,0.114 -0.046,0.229 -0.089,0.384 l -1.65,4.629 c -0.066,0.139 -0.09,0.222 -0.131,0.314 -0.023,0.056 -0.042,0.093 -0.042,0.132 -0.047,0.007 -0.047,0.007 -0.066,0.023 0,0.014 -0.023,0.014 -0.023,0.014 h -0.043 l -0.046,-0.014 c -0.065,-0.016 -0.13,-0.062 -0.214,-0.099 l -0.218,-0.101 -0.175,-0.085 -0.041,0.162 -0.415,1.174 -0.042,0.139 z m 6.627,3.272 5.127,2.994 0.108,0.076 0.089,-0.13 1.651,-2.18 0.084,-0.101 -0.084,-0.098 -0.653,-0.86 -0.13,-0.147 -0.107,0.147 h -0.023 c -0.025,0.045 -0.043,0.099 -0.09,0.122 -0.065,0.062 -0.084,0.107 -0.13,0.13 -0.215,0.207 -0.388,0.361 -0.565,0.468 l -0.022,0.008 c -0.02,0.023 -0.063,0.039 -0.108,0.053 -0.02,0.016 -0.042,0.025 -0.084,0.047 -0.177,0.047 -0.349,0.078 -0.48,0.047 -0.13,-0.015 -0.238,-0.047 -0.346,-0.108 -0.131,-0.047 -0.26,-0.115 -0.391,-0.199 l -0.849,-0.469 0.63,-1.781 0.153,0.085 c 0.131,0.068 0.216,0.123 0.281,0.183 0.045,0.04 0.088,0.076 0.13,0.123 0.023,0.024 0.023,0.03 0.023,0.069 l 0.023,0.032 v 0.021 c 0.019,0.031 0.019,0.062 0.019,0.092 0,0.047 -0.019,0.124 -0.042,0.209 -0.023,0.1 -0.065,0.222 -0.108,0.36 l -0.11,0.308 -0.043,0.115 0.108,0.053 0.783,0.477 0.154,0.091 0.065,-0.183 1.283,-3.479 0.018,-0.116 -0.088,-0.068 -0.779,-0.468 -0.173,-0.101 -0.069,0.193 -0.128,0.345 c -0.022,0.116 -0.064,0.215 -0.111,0.292 -0.042,0.054 -0.083,0.107 -0.108,0.13 l -0.022,0.031 v 0.024 l -0.042,0.022 h -0.089 c 0,0 -0.065,0 -0.13,-0.022 -0.061,-0.055 -0.172,-0.102 -0.303,-0.178 l -0.173,-0.084 0.672,-1.781 c 0.023,-0.084 0.065,-0.184 0.087,-0.23 0,-0.039 0.025,-0.078 0.025,-0.078 h 0.018 l 0.023,0.016 0.042,0.023 c 0.047,0.008 0.089,0.039 0.131,0.077 l 0.522,0.3 c 0.042,0.007 0.088,0.052 0.153,0.084 0.042,0.038 0.085,0.069 0.15,0.1 0.22,0.16 0.392,0.345 0.546,0.553 0.019,0.038 0.065,0.077 0.065,0.129 0.042,0.047 0.065,0.092 0.084,0.131 0.131,0.231 0.218,0.499 0.284,0.807 v 0.029 c 0,0.078 0.024,0.124 0.024,0.185 0,0.078 0.019,0.146 0.019,0.2 0.046,0.322 0.022,0.653 0,1.006 l -0.019,0.152 0.15,0.009 0.935,0.092 0.174,0.031 v -0.162 l 0.303,-3.538 0.023,-0.1 -0.089,-0.054 -5.32,-3.112 -0.154,-0.075 -0.065,0.162 -0.434,1.144 -0.023,0.144 0.088,0.039 0.174,0.101 0.065,0.054 0.065,0.046 c 0.13,0.06 0.196,0.107 0.196,0.145 l 0.023,0.024 0.019,0.015 v 0.03 c 0,0.046 0.023,0.085 0.023,0.138 -0.023,0.024 -0.023,0.077 -0.042,0.154 -0.023,0.077 -0.065,0.199 -0.112,0.331 l -1.651,4.506 v 0.008 l -0.019,0.075 -0.046,0.102 c -0.042,0.099 -0.066,0.192 -0.107,0.223 l -0.042,0.023 c 0,0.024 0,0.024 -0.046,0.024 0,0 -0.019,0 -0.066,-0.024 -0.042,-0.023 -0.108,-0.039 -0.15,-0.085 l -0.284,-0.161 -0.149,-0.102 -0.089,0.186 -0.391,1.145 -0.042,0.114 z m 6.583,4.026 3.041,1.686 0.173,0.077 0.065,-0.166 0.414,-1.162 0.023,-0.119 -0.11,-0.055 -0.262,-0.149 c -0.085,-0.057 -0.13,-0.069 -0.172,-0.099 -0.043,-0.032 -0.043,-0.044 -0.043,-0.044 -0.022,-0.034 -0.047,-0.064 -0.047,-0.087 0,-0.021 -0.041,-0.054 -0.041,-0.101 v -0.072 l 0.041,-0.035 c 0,-0.075 0.025,-0.148 0.047,-0.25 l 1.65,-4.764 v -0.015 l 0.019,-0.062 0.023,-0.077 c 0.043,-0.076 0.089,-0.122 0.089,-0.153 l 0.042,0.023 c 0.024,0.008 0.065,0.032 0.131,0.077 0.042,0.006 0.13,0.053 0.173,0.084 0.046,0.024 0.088,0.061 0.13,0.1 0.219,0.147 0.392,0.316 0.522,0.477 l 0.024,0.023 v 0.007 c 0.019,0.023 0.041,0.068 0.065,0.101 0.02,0.044 0.042,0.085 0.042,0.123 0.131,0.222 0.219,0.46 0.261,0.736 l 0.023,0.03 c 0,0.047 0.019,0.109 0.019,0.17 0,0.077 0.046,0.138 0.046,0.199 v 1.097 l -0.046,0.155 0.177,0.007 0.933,0.084 h 0.15 l 0.046,-0.145 0.214,-3.547 0.046,-0.085 -0.111,-0.045 -4.715,-2.635 -0.172,-0.077 -0.065,0.169 -0.411,1.145 -0.046,0.116 0.131,0.076 0.307,0.154 c 0.042,0.045 0.084,0.068 0.125,0.107 0,0.015 0.047,0.046 0.047,0.053 v 0.04 l 0.043,0.014 v 0.139 c 0.041,0.015 0,0.015 0,0.038 v 0.099 c 0,0.054 -0.043,0.115 -0.066,0.208 l -1.628,4.739 -0.046,0.076 -0.019,0.054 c -0.022,0.107 -0.066,0.179 -0.111,0.214 -0.02,0.031 -0.042,0.031 -0.065,0.065 -0.019,0 -0.019,0.013 -0.019,0.013 -0.024,0 -0.046,0 -0.046,-0.013 -0.043,0 -0.085,-0.034 -0.127,-0.065 l -0.349,-0.183 -0.154,-0.078 -0.065,0.172 -0.411,1.153 -0.023,0.106 z m 6.234,3.771 3.105,1.477 0.155,0.078 0.066,-0.177 0.344,-1.183 0.047,-0.119 -0.131,-0.064 -0.26,-0.13 -0.066,-0.031 -0.065,-0.036 c -0.09,-0.034 -0.131,-0.076 -0.131,-0.076 0,-0.043 -0.023,-0.054 -0.023,-0.077 -0.019,-0.031 -0.019,-0.055 -0.019,-0.108 0,-0.011 0.019,-0.077 0.019,-0.154 0.023,-0.053 0.064,-0.162 0.064,-0.28 l 1.437,-4.705 c 0.042,-0.132 0.084,-0.225 0.084,-0.301 0.047,-0.076 0.047,-0.107 0.089,-0.13 v -0.038 c 0.042,0 0.042,-0.016 0.042,-0.016 h 0.023 0.065 c 0.043,0.016 0.089,0.031 0.131,0.054 l 0.345,0.16 0.155,0.078 0.041,-0.184 0.35,-1.176 0.065,-0.122 -0.13,-0.055 -3.087,-1.465 -0.173,-0.071 -0.042,0.186 -0.35,1.152 -0.042,0.137 0.108,0.061 0.238,0.125 0.088,0.031 0.042,0.021 c 0.089,0.032 0.131,0.078 0.154,0.101 l 0.023,0.008 v 0.03 0.016 c 0.019,0.031 0.019,0.054 0.019,0.076 0,0.053 0,0.092 -0.019,0.147 0,0.076 -0.046,0.153 -0.065,0.283 l -1.436,4.729 c -0.022,0.115 -0.066,0.228 -0.085,0.305 -0.023,0.071 -0.045,0.118 -0.065,0.141 v 0.008 l -0.045,0.012 v 0.022 c 0,0.012 -0.044,0.03 -0.066,0.03 h -0.042 c -0.043,-0.03 -0.109,-0.052 -0.196,-0.095 l -0.261,-0.13 -0.173,-0.065 -0.042,0.161 -0.349,1.174 -0.043,0.142 z m 4.584,-0.726 0.131,3.344 0.042,0.089 0.088,0.041 0.607,0.208 0.131,0.019 0.087,-0.119 0.043,-0.149 3.498,1.105 v 0.218 l 0.022,0.109 0.089,0.042 0.631,0.196 0.129,0.034 0.042,-0.119 1.501,-2.815 0.042,-0.099 -0.087,-0.084 -0.784,-0.684 -0.126,-0.111 -0.111,0.143 -0.131,0.183 -0.108,0.162 c -0.172,0.241 -0.303,0.391 -0.367,0.502 -0.109,0.119 -0.239,0.215 -0.328,0.303 -0.131,0.077 -0.238,0.155 -0.35,0.196 h -0.042 c 0,0.02 -0.041,0.02 -0.041,0.02 -0.046,0.034 -0.065,0.034 -0.065,0.034 -0.113,0.011 -0.196,0.011 -0.285,0 l -0.019,-0.034 h -0.023 v -0.061 c 0,-0.059 0.023,-0.124 0.023,-0.209 l 1.105,-5.04 c 0.025,-0.153 0.047,-0.272 0.089,-0.349 0,-0.085 0.019,-0.151 0.019,-0.151 l 0.023,-0.01 v -0.054 c 0.023,-0.023 0.047,-0.023 0.047,-0.044 h 0.018 v -0.01 h 0.065 l 0.043,0.01 h 0.046 c 0.084,0.021 0.215,0.062 0.411,0.12 l 0.176,0.062 0.019,-0.161 0.262,-1.218 0.042,-0.14 -0.151,-0.039 -3.192,-1.029 -0.174,-0.061 -0.045,0.176 -0.261,1.213 v 0.13 l 0.13,0.054 0.176,0.055 0.084,0.032 0.09,0.035 c 0.087,0.032 0.129,0.055 0.172,0.085 0,0 0,0.031 0.046,0.046 v 0.246 c 0,0.111 -0.046,0.207 -0.07,0.384 l -1.105,5.148 c 0,0.066 -0.043,0.107 -0.043,0.15 h -0.045 c -0.042,-0.02 -0.108,-0.054 -0.174,-0.119 -0.087,-0.054 -0.152,-0.131 -0.237,-0.261 -0.024,-0.011 -0.024,-0.043 -0.065,-0.072 0,-0.023 -0.043,-0.058 -0.043,-0.101 -0.111,-0.173 -0.199,-0.38 -0.26,-0.607 v -0.075 l -0.024,-0.101 c -0.022,-0.191 -0.107,-0.499 -0.153,-0.943 l -0.02,-0.13 -0.154,0.008 -0.955,0.122 -0.131,0.034 z m 13.514,-21.546 1.352,4.87 c 0.085,0.26 0.107,0.437 0.085,0.522 0,0.083 -0.047,0.16 -0.085,0.237 -0.093,0.077 -0.224,0.154 -0.439,0.254 l -0.306,0.161 0.346,1.206 4.522,-2.12 c 0.698,-0.307 1.22,-0.653 1.566,-1.022 0.346,-0.36 0.56,-0.758 0.699,-1.197 0.107,-0.422 0.107,-0.836 0,-1.236 -0.069,-0.284 -0.224,-0.529 -0.399,-0.729 -0.169,-0.207 -0.415,-0.354 -0.691,-0.469 -0.262,-0.093 -0.569,-0.138 -0.953,-0.093 0.339,-0.275 0.6,-0.536 0.753,-0.736 0.245,-0.33 0.399,-0.676 0.461,-1.06 0.084,-0.39 0.084,-0.792 -0.047,-1.182 -0.107,-0.445 -0.345,-0.829 -0.713,-1.097 -0.376,-0.262 -0.831,-0.393 -1.345,-0.377 -0.506,0 -1.243,0.222 -2.134,0.638 l -4.193,1.941 0.37,1.206 0.306,-0.138 c 0.193,-0.108 0.369,-0.155 0.432,-0.131 0.106,0 0.175,0.023 0.213,0.084 0.046,0.07 0.108,0.223 0.2,0.468 m 8.039,-4.13 c 0.085,0.015 0.176,0.062 0.216,0.154 0.022,0.045 0.084,0.207 0.13,0.485 l 1.044,5.198 c 0.046,0.22 0.062,0.352 0.046,0.444 0,0.092 -0.046,0.169 -0.107,0.207 -0.093,0.077 -0.178,0.131 -0.308,0.154 l -0.153,0.055 -0.308,0.075 0.262,1.313 4.976,-1.313 c 0.329,-0.075 0.676,-0.215 1.028,-0.384 0.384,-0.169 0.691,-0.397 0.952,-0.713 0.26,-0.293 0.431,-0.639 0.523,-1.03 0.13,-0.406 0.13,-0.798 0.015,-1.242 -0.124,-0.691 -0.453,-1.214 -0.969,-1.529 -0.551,-0.323 -1.135,-0.477 -1.742,-0.447 l 1.221,-2.639 0.038,-0.132 c 0.084,-0.176 0.154,-0.315 0.239,-0.4 0.069,-0.106 0.154,-0.174 0.244,-0.228 0.063,-0.062 0.192,-0.108 0.339,-0.153 l 0.352,-0.078 -0.26,-1.291 -2.588,0.699 -1.804,4.669 -0.645,0.161 -0.368,-1.836 c -0.069,-0.321 -0.115,-0.522 -0.069,-0.63 0,-0.083 0.038,-0.175 0.107,-0.231 0.038,-0.051 0.192,-0.113 0.369,-0.16 l 0.391,-0.106 -0.26,-1.275 -3.955,1.038 0.261,1.287 0.345,-0.107 c 0.2,-0.046 0.354,-0.046 0.438,-0.015 m 8.838,-2.31 c 0.092,0.014 0.199,0.076 0.246,0.152 0.085,0.078 0.153,0.209 0.277,0.414 l 3.331,7.05 1.844,-0.239 1.673,-7.623 c 0.084,-0.393 0.2,-0.67 0.277,-0.76 0.116,-0.1 0.292,-0.178 0.568,-0.207 l -0.153,-1.312 -3.871,0.559 0.137,1.297 0.239,-0.038 c 0.215,-0.023 0.371,-0.009 0.453,0.054 0.093,0.046 0.154,0.099 0.154,0.207 0.022,0.076 0,0.253 -0.061,0.499 l -0.138,0.905 -2.496,0.37 -0.408,-0.915 c -0.09,-0.183 -0.153,-0.329 -0.153,-0.399 0,-0.076 0,-0.122 0.063,-0.201 0.045,-0.059 0.107,-0.113 0.199,-0.16 0.061,-0.023 0.261,-0.053 0.537,-0.099 l -0.124,-1.305 -3.177,0.438 0.129,1.313 c 0.225,-0.031 0.346,-0.031 0.454,0 m 10.982,6.841 0.035,-1.321 h -0.129 c -0.238,0 -0.384,0 -0.476,-0.046 -0.061,-0.024 -0.108,-0.062 -0.17,-0.139 -0.046,-0.076 -0.046,-0.153 -0.046,-0.207 0,-0.106 0.046,-0.292 0.155,-0.599 l 1.579,-4.699 1.437,4.86 c 0.039,0.254 0.085,0.438 0.085,0.515 0,0.13 -0.046,0.207 -0.132,0.269 -0.038,0.046 -0.213,0.091 -0.473,0.077 h -0.224 l -0.062,1.305 3.217,0.061 0.023,-1.319 c -0.261,0 -0.437,-0.033 -0.522,-0.094 -0.13,-0.107 -0.26,-0.376 -0.392,-0.776 l -2.264,-7.355 -1.867,-0.023 -2.74,7.326 c -0.109,0.275 -0.192,0.459 -0.252,0.536 -0.047,0.092 -0.132,0.155 -0.223,0.2 -0.126,0.038 -0.263,0.062 -0.455,0.062 l -0.038,1.305 z m 12.16,0.851 1.212,-2.871 -1.013,-0.559 c -0.244,0.452 -0.475,0.813 -0.767,1.096 -0.262,0.247 -0.522,0.423 -0.822,0.477 -0.299,0.062 -0.668,0.076 -1.066,0.022 l -1.238,-0.144 0.223,-2.359 0.384,0.047 c 0.306,0.053 0.523,0.099 0.631,0.153 0.106,0.077 0.198,0.153 0.214,0.284 0.031,0.092 0.031,0.346 0.031,0.661 l -0.047,0.367 1.044,0.123 0.369,-3.992 -1.044,-0.13 -0.047,0.407 c -0.014,0.285 -0.059,0.475 -0.153,0.591 -0.062,0.122 -0.122,0.199 -0.261,0.231 -0.085,0.03 -0.299,0.03 -0.644,-0.008 L -7.059,62.973 -6.844,60.8 c 0,-0.231 0.014,-0.369 0.047,-0.438 0.014,-0.023 0.061,-0.077 0.12,-0.085 0.072,-0.014 0.2,-0.014 0.371,0.008 l 0.7,0.07 c 0.52,0.076 0.957,0.214 1.28,0.405 0.324,0.209 0.63,0.539 0.867,0.946 0.238,0.407 0.414,0.884 0.501,1.413 l 1.135,-0.292 -0.744,-3.625 -7.126,-0.86 -0.108,1.314 0.193,0.007 c 0.306,0.047 0.477,0.092 0.567,0.147 0.094,0.053 0.132,0.153 0.169,0.245 0,0.077 0,0.284 -0.037,0.591 l -0.478,5.136 c 0,0.269 -0.046,0.453 -0.083,0.546 -0.047,0.062 -0.092,0.139 -0.176,0.169 -0.07,0.024 -0.223,0.024 -0.438,0.017 l -0.346,-0.047 -0.131,1.305 z m 5.82,1.39 c 0.306,0.085 0.66,0.155 1.068,0.192 0.391,0.046 0.76,0 1.113,-0.137 C 4.688,69.923 4.95,69.706 5.194,69.4 5.425,69.108 5.625,68.747 5.719,68.323 5.862,67.617 5.779,67.004 5.425,66.436 5.079,65.867 4.643,65.445 4.081,65.146 L 6.208,63.425 6.3,63.326 c 0.124,-0.1 0.263,-0.192 0.347,-0.238 0.13,-0.061 0.191,-0.076 0.297,-0.084 0.094,0 0.263,0.008 0.401,0.054 l 0.3,0.106 0.306,-1.282 -2.564,-0.73 -3.432,3.226 -0.699,-0.192 0.414,-1.827 c 0.085,-0.324 0.107,-0.515 0.177,-0.592 0.015,-0.061 0.108,-0.122 0.192,-0.154 0.085,-0.015 0.224,0 0.391,0.04 l 0.392,0.13 0.261,-1.275 -3.906,-1.136 -0.309,1.282 0.369,0.106 c 0.176,0.048 0.308,0.125 0.393,0.17 0.068,0.07 0.082,0.171 0.106,0.262 0,0.069 -0.024,0.238 -0.085,0.514 l -1.129,5.175 c -0.044,0.192 -0.083,0.346 -0.113,0.424 -0.04,0.075 -0.11,0.122 -0.147,0.122 -0.13,0.031 -0.238,0.007 -0.377,-0.016 L -2.261,67.356 -2.567,67.273 -2.82,68.579 Z M 9.128,72.256 9.471,71.066 9.21,70.911 C 8.988,70.835 8.865,70.736 8.843,70.681 8.774,70.621 8.774,70.551 8.818,70.467 8.843,70.382 8.973,70.229 9.142,70.075 l 1.659,-1.428 0.474,2.534 c 0.064,0.23 0.109,0.338 0.109,0.36 0,0.055 -0.045,0.108 -0.045,0.155 -0.047,0.062 -0.064,0.107 -0.132,0.131 -0.023,0.006 -0.132,-0.024 -0.299,-0.1 l -0.4,-0.193 -0.384,1.214 3.102,1.474 0.4,-1.213 c -0.293,-0.124 -0.46,-0.254 -0.554,-0.369 -0.085,-0.131 -0.145,-0.354 -0.26,-0.661 l -0.952,-4.392 0.523,-1.543 c 0.045,-0.292 0.13,-0.452 0.214,-0.523 0.048,-0.076 0.108,-0.106 0.2,-0.106 0.108,0 0.275,0.046 0.454,0.153 l 0.282,0.139 0.393,-1.214 -3.802,-1.818 -0.368,1.211 0.192,0.108 c 0.261,0.115 0.437,0.222 0.522,0.299 0.038,0.077 0.085,0.162 0.085,0.277 0,0.116 -0.047,0.316 -0.124,0.608 L 9.993,66.521 6.777,69.085 C 6.516,69.283 6.316,69.392 6.171,69.4 6.086,69.4 5.908,69.339 5.625,69.217 L 5.21,70.421 Z m 9.212,13.127 0.339,1.115 0.03,0.155 0.145,-0.055 0.224,-0.077 h 0.015 l 0.023,-0.011 0.045,-0.012 h 0.085 0.047 v 0.012 c 0.016,0.011 0.016,0.036 0.046,0.066 0.036,0.022 0.036,0.054 0.061,0.119 0.022,0.041 0.061,0.106 0.061,0.184 l 1.305,4.584 c 0.047,0.065 0.047,0.131 0.063,0.153 v 0.13 l 0.03,0.013 v 0.06 0.046 l -0.03,0.031 v 0.053 c -0.016,0.025 -0.063,0.036 -0.123,0.047 l -0.285,0.098 -0.131,0.034 0.023,0.153 0.324,1.106 0.044,0.153 0.148,-0.047 2.156,-0.659 0.085,-0.013 v -0.11 l 0.199,-4.193 0.539,1.935 c 0.046,0.119 0.09,0.231 0.09,0.303 v 0.12 0.087 0.023 0.02 c 0,0 0,0.023 -0.021,0.023 -0.023,0.031 -0.069,0.041 -0.132,0.054 l -0.283,0.076 -0.131,0.054 0.046,0.153 0.308,1.088 0.06,0.149 0.153,-0.042 2.167,-0.653 0.176,-0.043 -0.06,-0.153 -0.308,-1.097 -0.068,-0.162 -0.109,0.043 -0.275,0.076 c -0.025,0.011 -0.094,0.034 -0.132,0.034 0,0 -0.023,0.009 -0.047,0 v -0.023 c -0.038,-0.011 -0.038,-0.029 -0.068,-0.052 v -0.035 l -0.015,-0.043 c -0.047,-0.078 -0.062,-0.207 -0.132,-0.358 l -1.78,-6.199 -0.045,-0.138 -0.148,0.045 -1.113,0.315 -0.085,0.047 -0.023,0.107 -0.222,5.54 -0.905,-3.214 C 20.681,86.476 20.637,86.399 20.637,86.314 20.612,86.25 20.599,86.207 20.599,86.173 l 0.013,-0.011 V 86.13 c 0,-0.012 0.025,-0.029 0.025,-0.029 v -0.037 c 0.044,-0.01 0.069,-0.041 0.176,-0.051 l 0.213,-0.101 0.177,-0.02 -0.045,-0.153 -0.329,-1.098 -0.063,-0.177 -0.129,0.057 -2.219,0.685 -0.123,0.022 z m 8.647,6.253 0.107,-0.042 0.491,-0.219 0.093,-0.03 v -0.109 l -0.046,-0.176 2.694,-1.136 0.046,0.115 0.085,0.122 0.13,-0.047 0.484,-0.226 0.107,-0.034 V 89.736 L 30.979,86.66 v -0.114 l -0.108,-0.025 -0.828,-0.076 -0.154,-0.011 v 0.391 l -0.039,0.206 c 0,0.275 -0.023,0.465 -0.023,0.589 -0.016,0.173 -0.061,0.303 -0.085,0.445 -0.023,0.13 -0.085,0.261 -0.152,0.357 -0.041,0.019 -0.041,0.054 -0.041,0.066 -0.03,0.011 -0.03,0.042 -0.03,0.066 -0.061,0.077 -0.107,0.118 -0.167,0.129 v -0.011 c -0.026,-0.041 -0.026,-0.108 -0.064,-0.173 l -1.35,-4.603 c -0.024,-0.124 -0.045,-0.23 -0.092,-0.322 -0.014,-0.077 -0.014,-0.117 -0.014,-0.146 v -0.146 -0.03 c 0.014,0 0.061,-0.009 0.061,-0.023 l 0.021,-0.024 c 0.085,-0.038 0.193,-0.084 0.33,-0.153 l 0.124,-0.047 -0.038,-0.137 -0.331,-1.107 -0.015,-0.16 -0.152,0.053 -2.543,1.067 -0.085,0.061 0.038,0.148 0.308,1.082 0.038,0.176 0.176,-0.07 0.132,-0.053 v -0.022 l 0.106,-0.031 0.025,-0.009 c 0.069,-0.017 0.082,-0.038 0.082,-0.038 0.047,0 0.047,0 0.047,0.021 0.025,0 0.025,0.026 0.046,0.047 v 0.01 l 0.039,0.022 v 0.046 c 0.046,0.077 0.085,0.206 0.132,0.392 l 1.349,4.679 v 0.036 l 0.047,0.03 v 0.119 c -0.047,0.034 -0.091,0.034 -0.153,0.034 -0.069,-0.012 -0.108,-0.047 -0.223,-0.077 h -0.022 l -0.063,-0.011 c -0.022,-0.023 -0.061,-0.036 -0.061,-0.065 -0.153,-0.066 -0.26,-0.185 -0.4,-0.315 -0.06,-0.053 -0.122,-0.142 -0.214,-0.25 -0.085,-0.153 -0.215,-0.315 -0.346,-0.51 l -0.131,-0.178 -0.129,0.178 -0.546,0.652 -0.085,0.077 0.069,0.085 1.452,2.541 z m 4.421,-3.919 0.261,1.074 0.047,0.184 0.176,-0.095 4.324,-2.382 0.108,-0.053 v -0.089 l -0.047,-2.798 v -0.153 h -1.061 v 0.207 c 0,0.054 -0.023,0.115 -0.023,0.169 v 0.184 c -0.038,0.301 -0.068,0.538 -0.174,0.764 0,0.042 0,0.096 -0.017,0.119 0,0.053 0,0.077 -0.023,0.131 -0.069,0.172 -0.154,0.327 -0.285,0.456 -0.061,0.087 -0.153,0.162 -0.237,0.239 -0.085,0.065 -0.224,0.142 -0.309,0.196 l -0.606,0.337 -0.429,-1.632 0.169,-0.088 c 0.093,-0.06 0.131,-0.091 0.215,-0.106 0.045,-0.032 0.092,-0.032 0.108,-0.032 h 0.031 c 0,0.023 0.038,0.032 0.038,0.047 v 0.014 c 0.022,0.017 0.039,0.054 0.039,0.135 0.046,0.096 0.068,0.203 0.092,0.335 l 0.106,0.295 0.062,0.195 0.137,-0.107 0.693,-0.351 0.107,-0.064 -0.062,-0.119 -0.828,-3.305 -0.015,-0.193 -0.2,0.101 -0.652,0.375 -0.132,0.047 0.061,0.114 0.071,0.339 c 0.022,0.106 0.045,0.2 0.045,0.283 0.037,0.078 0.037,0.139 0.037,0.209 v 0.054 l -0.037,0.021 c 0,0.055 -0.023,0.085 -0.023,0.116 v 0.014 c -0.022,0.026 -0.062,0.04 -0.107,0.078 -0.071,0.039 -0.178,0.093 -0.262,0.169 l -0.045,0.016 -0.393,-1.59 C 32.33,81.492 32.33,81.408 32.283,81.347 v -0.084 -0.032 c 0,-0.006 0,-0.006 0.047,-0.03 0,0 0,-0.014 0.038,-0.047 0.023,-0.008 0.047,-0.029 0.115,-0.052 l 0.407,-0.263 h 0.047 c 0.038,-0.029 0.084,-0.045 0.131,-0.075 0.045,-0.025 0.085,-0.025 0.107,-0.047 0.214,-0.076 0.367,-0.107 0.521,-0.092 h 0.017 c 0.046,0 0.068,0.016 0.092,0.016 0.045,0 0.091,0 0.106,0.014 0.155,0.047 0.309,0.155 0.461,0.27 h 0.016 c 0.024,0.046 0.069,0.076 0.108,0.099 0.029,0.045 0.045,0.078 0.092,0.101 0.131,0.184 0.322,0.375 0.431,0.659 l 0.106,0.193 0.153,-0.169 0.616,-0.739 0.038,-0.068 -0.038,-0.106 -1.398,-2.52 -0.108,-0.146 -0.108,0.078 -4.469,2.487 -0.092,0.054 v 0.123 l 0.307,1.067 0.017,0.214 0.198,-0.107 0.109,-0.077 h 0.022 v -0.015 l 0.068,-0.031 0.062,-0.031 c 0.061,-0.03 0.085,-0.045 0.13,-0.03 0.025,0 0.025,0.016 0.039,0.054 v 0.038 c 0.046,0.062 0.068,0.199 0.14,0.385 l 1.058,4.257 0.023,0.106 v 0.1 l 0.038,0.097 c 0,0.054 0.033,0.088 0,0.118 v 0.077 c 0,0 0,0.066 -0.038,0.066 0,0 0,0.047 -0.039,0.054 0,0.034 -0.069,0.064 -0.137,0.1 l -0.216,0.13 -0.092,0.041 z m 5.79,-4.159 h 0.039 c 0.038,0.077 0.082,0.138 0.13,0.2 0.061,0.06 0.131,0.099 0.2,0.153 0.322,0.277 0.667,0.438 1.058,0.516 0.261,0.037 0.523,0.037 0.784,-0.017 0.261,-0.038 0.522,-0.144 0.738,-0.299 0.129,-0.078 0.238,-0.176 0.344,-0.261 0.131,-0.092 0.224,-0.215 0.355,-0.315 v -0.022 l 0.061,-0.085 c 0.022,-0.039 0.069,-0.07 0.092,-0.115 0.062,-0.108 0.147,-0.216 0.214,-0.331 l 0.061,0.093 0.094,0.092 0.129,-0.07 0.5,-0.315 0.107,-0.061 -0.046,-0.092 -0.238,-2.816 -0.023,-0.156 -0.168,0.007 -0.783,0.086 -0.131,0.039 v 0.107 c -0.025,0.345 -0.047,0.653 -0.093,0.898 -0.014,0.23 -0.039,0.431 -0.131,0.553 -0.014,0.145 -0.037,0.284 -0.106,0.383 -0.062,0.131 -0.109,0.247 -0.154,0.338 h -0.039 c -0.023,0.032 -0.023,0.077 -0.045,0.093 0,0 -0.041,0.061 -0.041,0.077 -0.09,0.122 -0.175,0.207 -0.304,0.275 -0.085,0.078 -0.179,0.109 -0.299,0.116 -0.094,0.016 -0.187,0 -0.262,-0.03 -0.138,-0.008 -0.262,-0.086 -0.355,-0.161 -0.106,-0.1 -0.237,-0.216 -0.322,-0.37 -0.106,-0.13 -0.2,-0.314 -0.306,-0.512 -0.094,-0.217 -0.2,-0.454 -0.285,-0.717 -0.023,-0.122 -0.023,-0.229 -0.036,-0.337 -0.048,-0.084 -0.072,-0.192 -0.072,-0.308 -0.021,-0.106 -0.068,-0.191 -0.068,-0.298 -0.039,-0.239 -0.061,-0.493 -0.061,-0.714 0,-0.122 0,-0.246 0.022,-0.362 v -0.176 c 0.039,-0.078 0.039,-0.116 0.039,-0.161 0.047,-0.215 0.068,-0.383 0.14,-0.554 0.013,-0.045 0.036,-0.083 0.036,-0.13 0.048,-0.045 0.069,-0.075 0.069,-0.108 v -0.014 c 0.122,-0.184 0.275,-0.339 0.431,-0.431 0.068,-0.045 0.152,-0.077 0.199,-0.1 0.085,-0.022 0.17,-0.03 0.261,-0.03 l 0.015,0.008 h 0.07 0.045 c 0.085,0.045 0.131,0.062 0.178,0.101 0.015,0.037 0.036,0.083 0.075,0.16 0.069,0.06 0.093,0.153 0.14,0.261 l 0.047,0.268 0.06,0.092 v 0.14 c 0.015,0.069 0.06,0.083 0.015,0.107 v 0.077 c -0.015,0.029 -0.015,0.053 -0.015,0.083 0,0.024 -0.022,0.038 -0.06,0.07 -0.033,0.007 -0.094,0.054 -0.14,0.083 l -0.277,0.185 -0.107,0.069 0.039,0.116 0.298,1.075 0.069,0.183 0.178,-0.106 2.458,-1.574 0.107,-0.054 -0.024,-0.101 -0.307,-1.097 -0.083,-0.185 -0.176,0.109 -0.17,0.122 c -0.069,0.03 -0.094,0.046 -0.132,0.077 h -0.023 -0.024 v -0.031 c -0.043,-0.016 -0.043,-0.046 -0.082,-0.108 -0.024,-0.06 -0.046,-0.13 -0.093,-0.207 l -0.691,-2.433 -0.047,-0.185 -0.17,0.108 -0.743,0.468 -0.086,0.03 v 0.085 l -0.021,0.492 c -0.085,-0.009 -0.17,-0.046 -0.277,-0.046 -0.137,0 -0.307,0 -0.438,0.037 -0.068,0 -0.083,0.009 -0.177,0.009 0,0.023 -0.047,0.023 -0.085,0.045 -0.237,0.054 -0.414,0.139 -0.628,0.277 -0.238,0.154 -0.453,0.33 -0.675,0.576 -0.178,0.231 -0.331,0.492 -0.477,0.799 -0.153,0.298 -0.283,0.613 -0.346,0.967 -0.091,0.345 -0.137,0.714 -0.137,1.097 -0.037,0.377 0,0.768 0.031,1.152 0.06,0.378 0.106,0.776 0.19,1.168 0.13,0.383 0.284,0.722 0.438,1.036 0.146,0.3 0.346,0.592 0.523,0.837 m 4.991,-8.347 c 0.022,0.055 0.045,0.132 0.084,0.262 l 1.244,4.316 c 0.023,0.092 0.023,0.146 0.062,0.214 v 0.106 0.009 0.07 0.006 0.039 0.008 c -0.039,0.03 -0.062,0.069 -0.062,0.075 -0.022,0.033 -0.07,0.047 -0.092,0.063 l -0.083,0.061 -0.194,0.109 -0.107,0.076 0.015,0.114 0.352,1.092 0.039,0.191 0.178,-0.084 3.124,-2.012 0.093,-0.045 0.085,-0.068 c 0.151,-0.118 0.305,-0.254 0.452,-0.41 0.07,-0.03 0.092,-0.053 0.116,-0.084 0.039,-0.046 0.083,-0.076 0.108,-0.106 0.153,-0.17 0.282,-0.393 0.367,-0.623 0.085,-0.177 0.132,-0.337 0.17,-0.521 0.046,-0.162 0.09,-0.339 0.09,-0.531 v -0.369 c 0,-0.237 -0.044,-0.497 -0.128,-0.76 -0.024,-0.092 -0.047,-0.16 -0.085,-0.238 -0.025,-0.077 -0.047,-0.146 -0.091,-0.231 -0.17,-0.345 -0.431,-0.621 -0.739,-0.773 -0.199,-0.108 -0.415,-0.17 -0.629,-0.187 -0.154,0 -0.283,0 -0.414,0.041 l 0.437,-2.273 0.037,-0.108 c 0.046,-0.092 0.046,-0.154 0.07,-0.231 0.023,-0.054 0.023,-0.107 0.023,-0.129 v -0.024 l 0.038,-0.03 0.023,-0.024 c 0,-0.061 0.024,-0.107 0.07,-0.131 v -0.022 l 0.022,-0.024 c 0.063,-0.039 0.108,-0.069 0.146,-0.114 l 0.222,-0.14 0.085,-0.053 -0.022,-0.122 -0.307,-1.052 -0.061,-0.199 -0.155,0.107 -1.627,1.035 -0.085,0.032 v 0.077 l -0.652,4.267 -0.177,0.124 -0.416,-1.337 c -0.014,-0.121 -0.059,-0.229 -0.059,-0.321 -0.024,-0.07 -0.024,-0.123 -0.024,-0.146 v -0.101 c 0,0 0,-0.03 0.024,-0.052 v -0.031 c 0.045,-0.039 0.083,-0.077 0.19,-0.145 l 0.245,-0.131 0.085,-0.062 -0.023,-0.108 -0.32,-1.067 -0.047,-0.2 -0.177,0.116 -2.473,1.574 -0.129,0.061 0.082,0.109 0.308,1.065 0.017,0.192 0.174,-0.107 0.24,-0.129 V 75.15 l 0.069,-0.038 0.024,-0.008 c 0.037,-0.03 0.083,-0.03 0.083,-0.03 h 0.024 c 0,0.023 0,0.03 0.021,0.038 0,0 0,0.055 0.04,0.099 m 7.326,1 c 0.021,0.145 0.021,0.23 0.059,0.33 0.024,0.054 0.024,0.114 0.024,0.152 v 0.071 l -0.024,0.021 v 0.024 0.031 0.015 l -0.038,0.007 c -0.021,0.024 -0.093,0.055 -0.129,0.07 l -0.261,0.107 -0.092,0.038 v 0.148 l 0.306,1.105 0.061,0.16 0.177,-0.053 2.456,-1.113 0.132,-0.047 -0.025,-0.123 -0.282,-1.129 -0.039,-0.162 -0.198,0.077 -0.216,0.085 c -0.069,0.024 -0.093,0.055 -0.109,0.055 h -0.045 v 0.014 L 51.249,76.08 c 0,-0.024 -0.023,-0.031 -0.023,-0.055 -0.038,-0.038 -0.038,-0.076 -0.085,-0.129 -0.022,-0.078 -0.045,-0.155 -0.084,-0.269 l -1.174,-4.469 c 0,-0.069 -0.048,-0.146 -0.07,-0.208 -0.016,-0.107 -0.016,-0.184 -0.016,-0.222 v -0.07 c 0,0 0,-0.03 0.016,-0.03 v -0.007 c 0,0 0.022,-0.047 0.07,-0.07 0,-0.007 0.022,-0.024 0.037,-0.045 l 0.308,-0.115 0.108,-0.071 -0.023,-0.113 -0.278,-1.122 -0.068,-0.177 -0.154,0.076 -2.518,1.099 -0.131,0.07 0.068,0.114 0.302,1.114 0.044,0.184 0.178,-0.078 0.17,-0.076 v -0.022 l 0.066,-0.024 v 0.016 l 0.063,-0.039 c 0.047,-0.007 0.047,-0.007 0.085,-0.007 0.046,0.007 0.046,0.03 0.046,0.046 0,0.03 0.023,0.061 0.044,0.115 0,0.045 0.039,0.145 0.064,0.253 z m 3.039,0.958 0.109,-0.045 0.522,-0.192 0.083,-0.046 v -0.291 l 2.78,-1.099 0.07,0.108 0.062,0.137 0.113,-0.061 0.498,-0.207 0.109,-0.031 v -0.176 l 2.342,-0.231 0.153,-0.008 V 74.89 l -0.061,-1.152 -0.022,-0.169 -0.154,0.015 -0.192,0.009 c -0.046,0.021 -0.107,0.021 -0.178,0.021 v -0.191 c 0.047,-0.077 0.071,-0.177 0.085,-0.261 l 0.484,-1.521 0.775,1.451 0.023,0.023 0.092,0.231 v 0.04 c 0.017,0.014 0.017,0.037 0.017,0.037 v 0.038 l -0.017,0.016 v -0.016 c 0,0 -0.021,0.038 -0.092,0.038 l -0.284,0.007 -0.123,0.032 v 0.132 l 0.038,1.167 0.047,0.143 h 0.132 l 2.211,-0.22 0.13,-0.024 v -0.13 l -0.084,-1.167 v -0.164 l -0.155,0.017 h -0.152 c -0.039,0 -0.124,-0.017 -0.147,-0.017 -0.023,-0.036 -0.07,-0.059 -0.092,-0.113 -0.062,-0.077 -0.107,-0.177 -0.192,-0.277 l -1.613,-3.063 -0.085,-1.443 v -0.47 c 0,-0.03 0.047,-0.038 0.047,-0.06 0,-0.016 0,-0.032 0.021,-0.046 h 0.017 c 0.046,-0.031 0.094,-0.031 0.2,-0.046 h 0.023 l 0.17,-0.017 0.176,-0.014 -0.046,-0.154 -0.04,-1.136 v -0.162 l -0.175,0.009 -2.672,0.276 h -0.153 v 0.145 l 0.068,1.167 v 0.162 l 0.192,-0.032 0.107,-0.014 h 0.155 0.13 c 0.023,0 0.023,0.014 0.023,0.031 0.023,0.015 0.023,0.045 0.023,0.077 v 0.023 l 0.038,0.069 c 0.023,0.084 0.023,0.214 0.047,0.392 l 0.083,1.266 -1.212,3.325 0.023,-0.914 v -0.154 l -0.131,-0.007 -0.782,-0.1 -0.155,-0.009 v 0.155 l -0.061,0.221 v 0.186 c -0.071,0.283 -0.092,0.507 -0.115,0.622 -0.038,0.154 -0.108,0.291 -0.123,0.444 -0.068,0.124 -0.131,0.24 -0.223,0.362 0,0.023 0,0.054 -0.038,0.061 -0.023,0.015 -0.023,0.045 -0.023,0.068 -0.07,0.055 -0.109,0.101 -0.177,0.132 -0.022,-0.047 -0.022,-0.108 -0.06,-0.17 L 54.29,69.431 c -0.023,-0.139 -0.061,-0.246 -0.061,-0.338 0,-0.07 -0.046,-0.139 -0.046,-0.147 v -0.015 c 0,-0.03 0,-0.053 0.046,-0.06 v -0.032 -0.038 c 0,-0.008 0,-0.015 0.038,-0.015 0,-0.023 0,-0.039 0.023,-0.039 l 0.023,-0.024 0.045,-0.007 c 0.085,-0.03 0.17,-0.084 0.324,-0.153 l 0.107,-0.04 -0.016,-0.122 -0.2,-1.121 v -0.169 l -0.215,0.077 -2.61,1.005 -0.106,0.055 0.021,0.122 0.216,1.122 0.045,0.169 0.177,-0.062 0.146,-0.062 v -0.015 l 0.093,-0.015 0.014,-0.015 c 0.093,-0.023 0.13,-0.023 0.13,-0.023 0.047,0.007 0.047,0.023 0.07,0.053 v 0.062 c 0.024,0.077 0.085,0.207 0.085,0.393 l 0.889,4.736 0.024,0.023 v 0.154 l -0.024,0.022 c -0.037,0.031 -0.084,0.031 -0.152,0.031 C 53.314,74.912 53.244,74.89 53.161,74.867 53.1,74.812 53.006,74.767 52.924,74.713 52.839,74.637 52.771,74.56 52.708,74.451 V 74.43 h -0.045 l -0.024,-0.024 -0.061,-0.077 c -0.047,-0.123 -0.224,-0.353 -0.392,-0.637 l -0.085,-0.186 -0.154,0.155 -0.614,0.637 -0.084,0.092 0.068,0.092 1.167,2.565 z m -148.998,2.295 c 3.263,-3.866 4.727,-7.753 5.305,-12.718 0.128,-1.106 0.482,-2.66 1.674,-3.147 0.781,-0.29 1.499,-0.391 2.33,-0.328 1.055,0.068 1.942,0.173 2.983,0.36 3.248,0.597 7.221,2.023 10.402,3.579 3.955,1.96 7.215,3.777 10.961,6.108 3.003,1.862 6.493,3.945 9.757,5.525 2.293,1.107 5.183,2.167 7.82,1.817 0.701,-0.094 1.196,-0.728 1.116,-1.432 l -1.489,-12.923 c -0.088,-0.658 -0.078,-1.224 0.032,-1.876 0.195,-0.994 1.276,-1.988 2.179,-2.555 2.059,-1.271 3.924,-2.145 6.219,-2.908 2.463,-0.838 4.58,-1.439 7.116,-2.019 4.953,-1.117 9.997,-1.758 15.068,-1.602 0.149,0.007 0.278,-0.012 0.42,-0.056 2.158,-0.059 3.986,0.01 6.134,0.231 4.633,0.471 9.602,1.443 14.146,2.885 1.977,0.627 9.113,3.04 9.917,5.766 0.15,0.594 0.188,1.119 0.12,1.726 L 14.25,79.22 c -0.08,0.705 0.42,1.343 1.124,1.431 3.239,0.412 6.944,-1.301 9.698,-2.777 2.161,-1.161 3.957,-2.195 6.046,-3.483 3.716,-2.293 6.914,-4.136 10.763,-6.201 4.451,-2.353 9.745,-4.46 14.886,-4.92 1.19,-0.107 3.087,-0.12 3.823,1.139 0.403,0.736 0.614,1.43 0.687,2.262 0.367,3.991 1.761,8.157 4.228,11.395 0.409,0.542 0.768,0.991 1.21,1.509 -2.504,-0.266 -5.342,0.156 -7.022,0.557 -0.31,-0.191 -0.642,-0.24 -0.996,-0.15 -0.926,0.235 -1.697,0.469 -2.598,0.789 l -0.032,0.012 c -2.713,1.044 -4.936,2.103 -7.458,3.547 -2.638,1.481 -4.848,2.765 -7.441,4.322 -2.074,1.235 -3.835,2.26 -5.934,3.452 -4.252,2.417 -8.967,4.818 -13.659,6.254 -2.567,0.785 -5.338,1.252 -8.039,0.972 C 11.234,99.093 8.558,98.043 7.06,96.355 6.551,95.789 6.289,95.153 6.254,94.394 6.242,94.096 6.146,93.846 5.956,93.617 6.229,93.5 6.429,93.322 6.574,93.064 6.758,92.793 6.889,92.546 7.014,92.243 7.222,91.604 7.537,91.107 8.025,90.646 l 3.358,-1.962 c 0.974,-0.405 1.761,-0.835 2.625,-1.442 0.403,-0.287 0.74,-0.621 1.017,-0.991 l 0.005,0.022 0.193,1.104 0.031,0.155 0.169,-0.036 0.214,-0.03 0.047,-0.03 h 0.061 l 0.07,-0.015 c 0.044,0 0.044,0 0.083,0.015 h 0.046 c 0,0.03 0.025,0.053 0.025,0.053 v 0.007 c 0.022,0.036 0.068,0.067 0.068,0.124 0.014,0.062 0.014,0.151 0.014,0.26 l 0.891,4.455 c 0.047,0.119 0.047,0.226 0.047,0.303 0,0.073 0.044,0.119 0,0.149 v 0.047 0.064 l -0.023,0.011 -0.024,0.02 c -0.061,0.012 -0.085,0.034 -0.17,0.034 l -0.26,0.044 -0.153,0.042 0.016,0.152 0.222,1.108 0.039,0.152 0.136,-0.03 2.935,-0.556 0.154,-0.033 -0.047,-0.154 -0.2,-1.104 -0.015,-0.153 -0.177,0.023 -0.261,0.052 c -0.068,0.013 -0.153,0.019 -0.177,0.019 l -0.045,-0.006 c -0.038,0 -0.038,-0.013 -0.038,-0.013 -0.023,-0.022 -0.023,-0.052 -0.047,-0.065 0,-0.034 -0.038,-0.076 -0.038,-0.14 -0.022,-0.055 -0.045,-0.152 -0.045,-0.274 l -0.89,-4.443 -0.026,-0.041 -0.038,-0.089 v -0.095 c 0,-0.089 -0.03,-0.166 0,-0.196 v -0.088 c 0.038,-0.023 0.064,-0.031 0.064,-0.031 0.014,-0.013 0.082,-0.034 0.106,-0.046 l 0.353,-0.065 0.146,-0.032 -0.024,-0.152 -0.214,-1.111 -0.047,-0.148 -0.122,0.032 -2.933,0.563 h -0.001 c 0.443,-0.652 0.699,-1.415 0.747,-2.264 0.05,-0.782 -0.761,-2.27 -1.234,-2.929 -0.59,-0.821 -1.179,-1.449 -1.962,-2.086 C 10.851,77.308 9.208,76.503 6.95,75.618 6.802,75.262 6.537,75.015 6.173,74.892 2.724,73.719 -0.292,73.02 -3.906,72.558 c -3.851,-0.518 -7.131,-0.746 -11.016,-0.769 -0.106,0 -0.197,0.01 -0.299,0.034 -3.459,0.034 -6.377,0.227 -9.808,0.648 -3.736,0.439 -7.969,1.325 -11.496,2.647 -0.046,0.011 -0.085,0.025 -0.13,0.041 -0.26,0.079 -0.466,0.188 -0.677,0.358 l -0.615,0.565 c -1.581,0.686 -2.849,1.431 -4.219,2.476 -0.802,0.617 -1.415,1.224 -2.038,2.021 -0.737,0.934 -1.199,1.856 -1.507,3.006 -0.04,0.152 -0.052,0.289 -0.039,0.447 0.039,0.429 0.131,0.831 0.273,1.207 l -2.345,-0.161 -0.15,-0.015 v 0.154 l -0.131,1.251 -0.024,0.149 0.155,0.013 0.196,0.023 h 0.107 l 0.065,0.007 c 0.107,0.011 0.153,0.035 0.172,0.045 0.024,0 0.024,0.031 0.066,0.031 v 0.089 c 0.046,0.035 0.046,0.076 0.046,0.142 v 0.138 c 0,0.078 -0.046,0.165 -0.046,0.254 l -0.131,1.368 -2.172,3.484 c -0.065,0.124 -0.127,0.23 -0.216,0.314 -0.042,0.071 -0.088,0.113 -0.13,0.143 -0.042,0 -0.088,0.013 -0.131,0.013 h -0.26 l -0.174,-0.013 v 0.153 l -0.13,1.248 v 0.155 l 0.151,0.011 3.37,0.248 h 0.173 v -0.14 l 0.131,-1.25 v -0.152 l -0.131,-0.012 -0.261,-0.031 c -0.089,0 -0.155,0 -0.196,-0.012 h -0.042 v -0.065 c 0,-0.042 0.018,-0.088 0.042,-0.164 0.022,-0.073 0.065,-0.173 0.153,-0.261 l 0.91,-1.617 0.675,1.805 0.02,0.019 0.088,0.261 v 0.099 0.044 0.011 c 0,0 0,-0.011 -0.023,-0.011 -0.042,0.011 -0.085,0.011 -0.15,0 l -0.349,-0.024 -0.13,-0.012 -0.019,0.154 -0.112,1.259 -0.042,0.142 0.173,0.011 2.717,0.186 0.154,0.01 V 94.58 l 0.124,-1.236 0.03,-0.143 -0.154,-0.011 h -0.046 c -0.022,-0.019 -0.046,-0.019 -0.061,-0.019 -0.03,0 -0.047,0 -0.069,-0.015 -0.131,-0.02 -0.192,-0.043 -0.239,-0.097 -0.022,0 -0.061,-0.052 -0.107,-0.13 -0.046,-0.095 -0.092,-0.196 -0.153,-0.326 l -1.455,-3.585 0.171,-1.552 c 0,-0.13 0.04,-0.261 0.04,-0.35 0.03,-0.072 0.03,-0.118 0.046,-0.149 0,-0.034 0.045,-0.045 0.045,-0.066 0,0 0,-0.022 0.047,-0.041 h 0.039 c 0.069,-0.015 0.153,-0.035 0.284,0 h 0.238 l 0.153,0.019 v -0.107 c 0.124,0.121 0.253,0.239 0.394,0.35 0.917,0.699 1.777,1.181 2.851,1.601 l 3.349,1.962 c 0.497,0.463 0.818,0.965 1.033,1.611 l 0.432,0.804 c 0.149,0.257 0.352,0.436 0.627,0.55 -0.193,0.233 -0.289,0.49 -0.297,0.792 -0.033,1.285 -1.114,2.469 -2.192,3.15 -1.621,1.021 -3.198,1.568 -5.103,1.773 -2.116,0.192 -3.935,0.057 -6.001,-0.442 -2.336,-0.555 -4.27,-1.195 -6.476,-2.144 -2.236,-0.961 -4.091,-1.852 -6.238,-3 -2.379,-1.277 -4.364,-2.397 -6.688,-3.771 l -7.679,-4.513 c -1.488,-0.868 -2.763,-1.567 -4.292,-2.355 -1.766,-0.933 -3.307,-1.627 -5.176,-2.329 -0.485,-0.18 -2.177,-0.753 -2.611,-0.77 -0.455,-0.228 -1.591,-0.282 -2.222,-0.351 -1.83,-0.195 -3.875,-0.388 -5.68,-0.226 m 55.033,-13.78 0.567,-0.269 c 0.346,-0.162 0.631,-0.263 0.861,-0.285 0.26,-0.03 0.484,0.016 0.698,0.161 0.223,0.148 0.346,0.378 0.438,0.677 0.085,0.252 0.085,0.499 0.046,0.729 -0.092,0.231 -0.199,0.431 -0.398,0.638 -0.193,0.198 -0.524,0.405 -0.976,0.613 l -1.022,0.476 -0.537,-1.903 c -0.07,-0.247 -0.092,-0.423 -0.092,-0.47 0,-0.06 0.022,-0.113 0.061,-0.16 0.031,-0.031 0.139,-0.109 0.354,-0.207 m -35.025,7.301 0.023,-0.053 0.023,-0.062 c 0.043,-0.077 0.043,-0.122 0.066,-0.138 v -0.017 h 0.065 v 0.017 c 0.065,0.023 0.149,0.061 0.215,0.099 h 0.023 c 0.065,0.039 0.13,0.07 0.195,0.108 0.043,0.038 0.109,0.07 0.174,0.101 0.261,0.199 0.456,0.391 0.61,0.621 0.085,0.16 0.151,0.338 0.173,0.545 0.065,0.215 0.084,0.444 0.084,0.706 0,0.255 -0.019,0.53 -0.065,0.815 -0.041,0.275 -0.131,0.584 -0.238,0.868 -0.108,0.322 -0.215,0.574 -0.346,0.82 -0.13,0.238 -0.283,0.44 -0.438,0.622 v 0.023 c -0.041,0.04 -0.084,0.078 -0.13,0.131 -0.042,0.038 -0.083,0.099 -0.108,0.116 -0.214,0.183 -0.411,0.292 -0.606,0.361 -0.023,0 -0.065,0 -0.108,0.007 h -0.111 c -0.237,-0.007 -0.476,-0.085 -0.76,-0.238 l -0.564,-0.291 1.823,-5.137 z m -13.046,8.124 c 0.12,0.03 0.239,0.058 0.357,0.087 -0.393,0.797 -4.875,9.875 -5.286,10.7 -0.72,-0.794 -2.894,-3.186 -2.894,-3.186 -1.723,-1.316 -3.374,-2.58 -3.374,-4.43 0,-0.695 0.234,-1.474 0.783,-2.373 2.569,-2.029 8.314,-0.909 10.414,-0.798 M -132.5,78.813 c 0.358,0.169 0.766,0.359 1.212,-0.715 1.2,-2.888 -2.179,-4.744 -3.691,-5.372 -3.972,-1.65 -5.649,-0.615 -6.43,1.266 -0.334,0.805 -0.098,1.08 0.566,1.356 z m -1.313,2.643 -8.192,-3.402 c -0.616,-0.255 -1.237,-0.119 -1.676,0.938 l -0.415,-0.173 2.203,-5.304 c 1.89,-4.175 5.235,-4.911 8.292,-3.64 2.559,1.063 4.817,3.79 2.865,8.491 l -2.127,5.118 -0.415,-0.171 c 0.206,-0.682 0.479,-1.435 -0.535,-1.857 M -7.39,20.96 l -7.699,4.936 -7.621,-5.2 2.746,8.415 -7.904,5.268 9.567,0.05 2.46,8.733 3.181,-8.508 9.573,0.024 -7.447,-5.135 z m -4.371,14.993 -4.252,11.375 -3.272,-11.606 -12.835,-0.069 10.615,-7.078 -3.623,-11.103 10.062,6.868 10.224,-6.557 -0.663,1.812 -3.465,9.449 10.064,6.943 z m -126.149,29.504 -0.395,-0.215 5.092,-9.34 3.633,1.153 -0.243,0.447 c -2.934,-0.294 -4.232,1.11 -5.085,2.675 -0.566,1.037 -0.542,1.444 0.154,1.823 l 3.822,2.083 c 0.861,-1.581 0.831,-2.653 -1.039,-3.921 l 0.227,-0.415 5.339,2.91 -0.226,0.414 c -2.09,-0.827 -2.944,-0.237 -3.765,1.304 l 3.666,1.997 c 0.678,0.37 0.898,0.116 1.377,-0.761 1.176,-2.156 1.398,-3.505 -0.644,-5.093 l 0.217,-0.4 3.176,1.731 -5.023,9.211 -0.395,-0.215 c 0.353,-0.76 0.687,-1.448 -0.356,-2.015 l -7.645,-4.167 c -0.979,-0.533 -1.297,-0.064 -1.887,0.794 m 17.806,-9.97 c 0.511,0.242 0.694,0.325 1.262,-0.498 0.825,-1.197 0.611,-2.251 -0.884,-3.28 -1.924,-1.328 -2.786,-0.775 -4.153,1.175 z m -11.093,-2.13 -0.37,-0.255 3.488,-5.058 0.37,0.257 c -0.548,1.079 -0.73,1.438 0.454,2.256 l 2.902,2.001 0.279,-0.405 -2.498,-6.294 2.115,-3.068 0.37,0.257 c -0.123,0.18 -0.264,0.414 -0.142,0.807 l 2.145,5.918 c 0.81,-0.634 2.332,-1.859 4.153,-0.603 2.486,1.715 0.418,4.969 -0.304,6.017 l -3.324,4.818 -0.37,-0.256 c 0.53,-0.894 0.82,-1.378 -0.454,-2.256 l -6.544,-4.514 c -1.199,-0.826 -1.45,-0.557 -2.27,0.378 m 17.702,-10.236 -2.109,-4.246 -2.316,2.684 z m -9.435,-1.565 -0.341,-0.293 2.411,-2.795 0.34,0.293 c -0.376,0.492 -0.905,1.187 -0.389,1.635 0.219,0.187 0.968,0.45 2.28,0.911 l 2.671,-3.097 c -0.269,-0.569 -0.896,-1.881 -1.264,-2.197 -0.449,-0.389 -0.677,-0.153 -1.481,0.642 l -0.341,-0.293 3.848,-4.462 0.34,0.294 c -0.597,0.638 -0.324,1.258 0.598,3.135 l 4.515,9.254 -0.333,0.385 -10.098,-3.386 c -1.377,-0.469 -2.007,-0.675 -2.756,-0.026 M 5.875,76.587 c 0.125,0.049 1.486,0.582 1.486,0.582 4.115,1.75 6.556,4.005 7.241,6.565 -0.207,2.154 -1.798,2.87 -3.794,3.786 0,0 -3.556,2.073 -3.556,2.078 C 6.421,90.341 6.058,91.09 5.783,91.838 5.657,92.036 5.546,92.23 5.45,92.424 5.637,89.008 6.001,81.802 6.001,78.38 c 0,-1.062 -0.035,-1.729 -0.126,-1.793 m 27.777,-35.451 -5.223,-7.605 -0.487,8.838 -9.271,2.052 8.897,3.508 -0.864,9.032 6.043,-6.78 8.917,3.486 -5.085,-7.481 6.038,-6.866 z m 4.565,5.151 6.873,10.111 -11.974,-4.681 -8.082,9.068 1.15,-12.009 -11.936,-4.704 12.454,-2.759 0.639,-11.659 6.895,10.04 11.908,-2.415 -1.276,1.451 z m -82.714,39.019 0.175,0.018 v 0.154 l -0.153,1.258 v 0.036 c -0.453,-0.446 -0.787,-0.959 -1.002,-1.533 z m 7.386,4.33 -3.556,-2.085 c -1.996,-0.91 -3.578,-1.632 -3.792,-3.633 0.69,-2.671 3.132,-4.939 7.224,-6.732 l 0.779,-0.716 c 0.088,-0.034 0.176,-0.069 0.266,-0.102 0.015,0.267 0.707,12.661 0.897,16.086 -0.095,-0.187 -0.203,-0.377 -0.327,-0.566 -0.277,-0.753 -0.647,-1.507 -1.491,-2.252 m 52.103,-3.518 0.153,-0.033 c -0.039,0.057 -0.079,0.111 -0.12,0.166 z m 55.552,-3.815 c 0.353,0.65 0.508,1.239 0.508,1.784 0,1.848 -1.759,3.191 -3.594,4.593 0,0 -2.172,2.39 -2.901,3.185 -0.393,-0.795 -2.445,-4.977 -2.445,-4.977 0,0 -2.54,-5.189 -3.024,-5.261 1.943,-0.507 8.208,-1.915 11.456,0.676 m -121.773,-38.9 -9.276,-2.053 -0.485,-8.836 -5.224,7.606 -8.964,-1.816 6.039,6.863 -5.085,7.482 8.914,-3.486 6.045,6.782 -0.865,-9.034 z m -6.366,16.366 -8.084,-9.067 -11.968,4.678 6.868,-10.109 -7.921,-9.004 1.889,0.38 10.014,2.03 6.895,-10.041 0.639,11.661 12.462,2.758 -11.943,4.705 z m 97.835,189.357 0.168,0.422 -6.128,2.42 -0.167,-0.423 c 0.979,-0.425 1.739,-0.744 1.285,-1.894 l -3.711,-9.398 c -0.208,-0.525 -0.582,-1.472 -1.713,-1.024 -0.487,0.191 -0.672,0.538 -0.56,0.825 0.189,0.474 0.645,0.255 0.905,0.913 0.369,0.93 -0.37,1.613 -0.754,1.764 -0.504,0.199 -1.382,0.115 -1.75,-0.814 -0.112,-0.287 -0.515,-2.277 2.096,-3.309 1.794,-0.707 4.048,-0.856 5.257,2.205 l 2.911,7.37 c 0.579,1.471 1.144,1.268 2.161,0.943 m -24.886,8.087 c 0.838,-0.276 1.571,-0.507 1.266,-1.667 l -2.239,-8.507 c -0.285,-1.091 -0.861,-0.996 -1.92,-0.83 l -0.117,-0.439 6.517,-1.714 0.117,0.439 c -1.253,0.386 -1.969,0.611 -1.664,1.772 l 1.077,4.095 c 2.282,-0.6 2.232,-1.959 2.054,-3.452 l 0.452,-0.119 1.564,5.94 -0.452,0.12 c -0.624,-1.34 -1.224,-2.517 -3.46,-1.892 l 1.073,4.079 c 0.198,0.756 0.543,0.741 1.52,0.483 3.115,-0.819 3.312,-2.054 3.228,-3.988 l 0.437,-0.114 0.929,3.533 -10.265,2.7 z m -6.246,-4.641 c -0.246,-1.56 -1.022,-5.762 -4.183,-5.264 -3.161,0.497 -2.608,4.734 -2.361,6.296 0.414,2.621 1.597,5.673 4.185,5.266 2.588,-0.407 2.774,-3.675 2.359,-6.298 m -2.265,6.89 c -3.569,0.561 -6.934,-1.428 -7.551,-5.342 -0.595,-3.771 1.749,-6.808 5.539,-7.405 3.79,-0.598 6.956,1.572 7.55,5.343 0.617,3.914 -1.971,6.842 -5.538,7.404 m -25.608,-2.12 0.544,-0.008 c 0.422,2.902 2.351,2.961 3.661,3.012 l -0.156,-9.577 c -0.024,-1.526 -0.474,-1.555 -1.843,-1.642 l -0.006,-0.455 6.682,-0.108 0.006,0.454 c -1.383,0.113 -1.833,0.156 -1.807,1.702 l 0.159,9.576 c 1.289,-0.093 3.213,-0.216 3.542,-3.129 l 0.543,-0.01 0.023,3.654 -11.232,0.184 z m 83.431,-33.942 5.807,7.615 c 0.981,-0.841 2.46,-2.082 0.996,-4.622 l 0.429,-0.329 2.187,2.928 -8.931,6.809 -2.26,-2.87 0.433,-0.329 c 2.061,2.084 3.649,0.987 4.735,0.252 l -5.81,-7.616 c -0.924,-1.214 -1.304,-0.969 -2.457,-0.227 l -0.274,-0.363 5.312,-4.051 0.277,0.361 c -1.047,0.912 -1.382,1.214 -0.444,2.442 m 7.392,-6.759 5.864,6.551 c 0.826,0.922 1.506,0.336 2.186,-0.223 l 0.305,0.338 -4.883,4.367 -0.301,-0.339 c 0.606,-0.614 1.237,-1.227 0.436,-2.12 l -5.867,-6.553 c -0.752,-0.839 -1.344,-0.407 -2.158,0.199 l -0.302,-0.339 4.879,-4.366 0.304,0.339 c -0.718,0.74 -1.24,1.279 -0.463,2.146 m -20.706,25.364 c 0.538,1.072 1.012,1.057 1.999,0.724 l 0.204,0.407 -3.679,1.848 -0.204,-0.404 c 1.406,-0.789 1.328,-1.442 0.83,-2.432 l -2.493,-4.949 c -0.522,-1.04 -1.806,-3.507 -4.748,-2.028 -2.407,1.212 -1.281,3.451 -0.814,4.377 l 2.728,5.421 c 0.72,1.429 1.245,1.184 2.374,0.677 l 0.204,0.407 -5.65,2.841 -0.205,-0.406 c 0.888,-0.568 1.305,-0.819 0.62,-2.182 l -2.73,-5.421 c -0.881,-1.753 -0.732,-2.54 -0.324,-3.519 0.62,-1.471 2.142,-2.359 2.878,-2.729 1.004,-0.504 2.614,-0.928 3.89,-0.47 1.07,0.376 2.032,1.703 2.514,2.661 z m 31.683,-35.037 c -2.296,-0.033 -3.656,0.612 -4.657,1.673 -0.4,0.421 -1.216,1.683 -0.804,3.153 0.367,1.302 1.558,2.582 2.354,3.332 2.232,2.111 4.753,3.491 6.632,1.505 1.464,-1.549 0.998,-4.152 0.298,-5.714 l 0.322,-0.341 3.091,2.923 -0.346,0.366 c -0.461,-0.176 -0.853,-0.316 -1.201,0.051 -0.332,0.354 -0.675,2.013 -1.832,3.236 -2.7,2.856 -6.611,2.865 -9.293,0.331 -2.472,-2.336 -3.018,-6.098 -0.023,-9.264 1.647,-1.74 3.482,-2.015 5.514,-1.971 z m -139.258,-0.203 4.243,-7.544 -7.943,3.444 -6.327,-6.013 1.286,8.274 -8.175,3.72 8.922,1.498 0.974,8.528 4.259,-7.46 8.931,1.474 z m -7.861,15.995 -1.312,-11.499 -12.141,-2.037 11.14,-5.072 -1.723,-11.066 8.469,8.045 10.692,-4.637 -0.947,1.683 -4.693,8.345 8.463,8.124 -12.168,-2.006 z m 122.941,16.725 c 1.872,-1.174 1.711,-3.541 1.32,-4.797 l 0.443,-0.279 2.099,3.34 -0.477,0.297 c -0.262,-0.241 -0.486,-0.422 -0.851,-0.194 -0.459,0.289 -0.886,1.264 -2.155,2.061 -3.012,1.891 -4.817,0.107 -5.407,-0.833 -0.444,-0.707 -1.275,-2.031 0.642,-4.995 l 0.754,-1.16 c 0.729,-1.123 1.243,-1.961 0.595,-2.992 -0.126,-0.199 -1.16,-1.673 -3.064,-0.479 -2.013,1.263 -1.84,3.581 -1.182,5.334 l -0.458,0.289 -2.389,-3.802 0.461,-0.289 c 0.216,0.207 0.47,0.435 0.803,0.225 0.491,-0.309 0.877,-1.28 2.383,-2.226 2.917,-1.831 5.103,-0.605 5.953,0.749 1.054,1.677 0.408,3.327 0.033,3.926 l -1.624,2.587 c -0.926,1.482 -1.014,2.01 -0.494,2.841 0.629,1 1.791,0.915 2.615,0.397 m -79.728,21.021 -0.038,0.453 -4.008,-0.334 0.036,-0.452 c 1.52,0.016 1.794,-0.562 1.885,-1.65 l 0.455,-5.487 -0.037,-0.004 -7.113,7.198 -3.935,-0.326 0.038,-0.452 c 0.242,0.02 0.544,-0.009 1.693,-1.173 l 0.713,-8.585 c 0.099,-1.196 -0.412,-1.366 -1.52,-1.586 l 0.037,-0.452 4.235,0.351 -0.039,0.452 c -1.392,0.031 -1.812,0.343 -1.92,1.646 l -0.603,7.246 0.038,0.003 9.113,-9.129 0.523,0.043 -0.886,10.668 c -0.072,0.87 0.004,1.294 1.333,1.57 m -96.351,-61.28 c -0.548,-0.713 -0.91,-0.647 -1.486,-0.204 l -7.233,5.558 c -0.329,0.228 -0.7,0.49 0.03,1.441 1.962,2.553 5.293,0.536 6.605,-0.471 3.443,-2.647 3.362,-4.662 2.084,-6.324 m -0.243,9.017 c -2.22,1.705 -5.764,2.281 -8.959,-1.876 l -3.48,-4.527 0.361,-0.277 c 0.502,0.535 1.033,1.166 1.912,0.49 l 7.104,-5.459 c 0.532,-0.41 0.722,-1.027 0.004,-1.962 l 0.36,-0.277 3.605,4.69 c 2.76,3.83 1.744,7.161 -0.907,9.198 m 102.884,19.475 c -0.804,-0.025 -1.498,-0.741 -1.498,-1.649 0,-0.89 0.694,-1.609 1.498,-1.631 0.836,0.022 1.514,0.741 1.514,1.631 0,0.908 -0.678,1.624 -1.514,1.649 m 36.214,-14.169 8.93,-1.472 4.26,7.46 0.973,-8.527 8.924,-1.498 -8.178,-3.721 1.287,-8.273 -6.327,6.013 -7.94,-3.444 4.24,7.543 z m -1.093,-16.187 1.769,0.768 8.921,3.868 8.473,-8.052 -1.728,11.072 11.147,5.071 -12.148,2.04 -1.314,11.495 -5.776,-10.12 -12.166,2.007 8.46,-8.122 z m -59.437,49.717 c -1.196,-0.222 -1.585,-0.072 -1.731,0.714 l -0.801,4.324 c 1.822,0.338 2.86,-0.025 3.494,-2.218 l 0.478,0.09 -1.118,6.038 -0.478,-0.089 c 0.134,-2.266 -0.718,-2.905 -2.488,-3.213 l -0.768,4.144 c -0.141,0.768 0.176,0.901 1.188,1.089 2.485,0.459 3.874,0.254 4.767,-2.204 l 0.46,0.085 -0.666,3.591 -10.616,-1.966 0.083,-0.447 c 0.855,0.105 1.635,0.212 1.853,-0.968 l 1.601,-8.647 c 0.205,-1.108 -0.355,-1.267 -1.384,-1.568 l 0.082,-0.446 10.765,1.992 0.048,3.852 -0.515,-0.094 c -0.66,-2.913 -2.451,-3.725 -4.254,-4.059 m -67.99,-31.305 c 1.176,-2.747 0.202,-4.455 -1.062,-5.785 -0.84,-0.88 -1.242,-0.987 -1.822,-0.436 l -3.187,3.031 c 1.277,1.343 2.331,1.658 4.132,0.255 l 0.335,0.352 -4.451,4.234 -0.336,-0.352 c 1.44,-1.757 1.124,-2.773 -0.128,-4.062 l -3.055,2.906 c -0.567,0.539 -0.388,0.832 0.322,1.578 1.742,1.831 2.988,2.48 5.155,1.014 l 0.322,0.337 -2.647,2.519 -7.445,-7.823 0.328,-0.313 c 0.634,0.585 1.202,1.129 2.071,0.304 l 6.376,-6.064 c 0.816,-0.777 0.455,-1.235 -0.201,-2.082 l 0.329,-0.313 7.549,7.931 -2.223,3.147 z m 58.967,31.117 -2.381,7.667 c -0.464,1.494 0.097,1.705 1.077,2.086 l -0.135,0.434 -4.505,-1.401 -1.032,-9.3 -6.118,7.079 -4.523,-1.406 0.136,-0.435 c 1.296,0.309 1.693,0.166 1.973,-0.736 l 2.559,-8.241 c 0.313,-1.007 0.161,-1.34 -1.196,-1.894 l 0.135,-0.433 4.182,1.299 -0.134,0.434 c -1.51,-0.375 -1.962,-0.058 -2.338,1.156 l -2.506,8.068 0.036,0.011 7.642,-8.831 0.483,0.151 1.214,11.869 0.037,0.011 2.714,-8.745 c 0.356,-1.145 -0.146,-1.359 -1.187,-1.796 l 0.136,-0.434 5.934,1.845 -0.135,0.433 c -1.228,-0.211 -1.637,-0.279 -2.068,1.109 m -19.386,-6.785 -3.904,8.747 c 1.21,0.461 3.007,1.163 4.534,-1.34 l 0.495,0.221 -1.523,3.32 -10.256,-4.575 1.438,-3.358 0.496,0.22 c -0.844,2.809 0.88,3.677 2.047,4.278 l 3.904,-8.747 c 0.621,-1.395 0.227,-1.612 -0.977,-2.267 l 0.185,-0.416 6.102,2.723 -0.185,0.415 c -1.301,-0.481 -1.726,-0.631 -2.356,0.779 m -36.439,-18.363 -3.191,3.678 c -0.247,0.314 -0.218,0.651 0.263,1.068 1.16,1.005 2.121,0.926 3.478,-0.639 1.476,-1.702 1.185,-2.652 -0.55,-4.107 m 2.631,-3.034 -2.215,2.552 c 1.856,1.632 2.565,2.271 3.041,3.551 0.597,1.598 -0.094,2.707 -0.51,3.187 -2.012,2.32 -4.764,0.295 -5.896,-0.686 l -4.554,-3.948 0.298,-0.343 c 0.809,0.582 1.283,0.92 2.283,-0.233 l 5.262,-6.067 c 0.667,-0.768 0.623,-1.118 0.561,-1.389 -0.04,-0.154 -0.056,-0.193 -0.654,-0.903 l 0.298,-0.343 4.723,4.094 -0.298,0.344 c -1.082,-0.723 -1.374,-0.928 -2.339,0.184 m 5.866,7.628 -1.149,4.612 4.111,-2.484 z m 6.704,3.207 -8.967,5.326 -0.426,-0.306 2.44,-10.511 c 0.339,-1.434 0.488,-2.088 -0.248,-2.796 l 0.266,-0.369 3.083,2.217 -0.265,0.37 c -0.538,-0.343 -1.298,-0.823 -1.702,-0.262 -0.169,0.236 -0.361,1.016 -0.7,2.383 l 3.419,2.459 c 0.552,-0.319 1.823,-1.063 2.109,-1.46 0.35,-0.487 0.087,-0.699 -0.801,-1.45 l 0.265,-0.369 4.922,3.538 -0.265,0.371 c -0.709,-0.554 -1.312,-0.228 -3.13,0.859 m 5.299,7.139 -2.287,4.03 c -0.197,0.537 -0.263,0.729 0.632,1.238 1.301,0.739 2.354,0.437 3.261,-1.159 1.166,-2.055 0.517,-2.883 -1.606,-4.109 m 9.177,-1.079 -5.828,2.646 c 0.727,0.769 2.124,2.21 1.021,4.155 -1.507,2.655 -5.029,0.821 -6.168,0.175 l -5.239,-2.975 0.224,-0.396 c 0.964,0.465 1.486,0.719 2.258,-0.64 l 3.965,-6.986 c 0.727,-1.28 0.429,-1.513 -0.606,-2.268 l 0.224,-0.395 5.5,3.123 -0.224,0.395 c -1.156,-0.467 -1.54,-0.624 -2.258,0.641 l -1.759,3.098 0.44,0.251 6.177,-3.035 3.335,1.894 -0.225,0.395 c -0.195,-0.111 -0.448,-0.233 -0.837,-0.078 m 166.213,-38.693 -0.319,0.417 c -2.899,-0.727 -4.432,0.504 -5.546,1.961 -0.738,0.967 -0.782,1.381 -0.145,1.867 l 3.497,2.667 c 1.124,-1.473 1.269,-2.562 -0.401,-4.118 l 0.296,-0.387 4.885,3.726 -0.296,0.387 c -1.964,-1.144 -2.918,-0.672 -3.993,0.767 l 3.352,2.557 c 0.622,0.475 0.882,0.251 1.508,-0.567 1.534,-2.008 1.978,-3.34 0.189,-5.248 l 0.283,-0.371 2.904,2.215 -6.555,8.584 -0.36,-0.276 c 0.481,-0.719 0.928,-1.364 -0.027,-2.092 l -6.991,-5.334 c -0.898,-0.685 -1.292,-0.257 -2.028,0.525 l -0.359,-0.276 6.644,-8.702 z" style="fill:#ffffff;fill-opacity:1;fill-rule:nonzero;stroke:none" transform="matrix(1.3333333,0,0,-1.3333333,442.586,709.71093)" clip-path="url(#clipPath3)"/>
    <path id="path4" d="m 0,0 h 2.485 l 2.392,-8.762 -3.25,-0.941 c -1.084,2.087 -2.105,3.567 -3.059,4.441 -1.33,1.199 -2.77,1.802 -4.32,1.802 -1.127,0 -2.191,-0.315 -3.176,-0.944 -0.985,-0.633 -1.769,-1.556 -2.343,-2.783 -0.579,-1.22 -0.864,-2.653 -0.864,-4.303 0,-2.507 0.661,-4.661 1.984,-6.472 1.325,-1.806 3.055,-2.71 5.203,-2.71 1.363,0 2.675,0.391 3.933,1.172 1.575,0.966 2.932,2.268 4.078,3.904 l 2.71,-2.012 c -1.76,-2.406 -3.373,-4.076 -4.83,-5.021 -2.252,-1.456 -4.758,-2.184 -7.52,-2.184 -2.293,0 -4.375,0.549 -6.233,1.652 -1.862,1.1 -3.343,2.639 -4.454,4.622 -1.105,1.981 -1.657,4.148 -1.657,6.49 0,2.334 0.535,4.458 1.616,6.374 1.08,1.92 2.551,3.415 4.408,4.487 1.863,1.069 3.93,1.609 6.218,1.609 2.315,0 4.35,-0.491 6.1,-1.469 z m -38.519,0 h 5.475 l 7.329,-18.831 c 0.393,-1.004 0.746,-1.623 1.057,-1.858 0.312,-0.232 0.88,-0.349 1.7,-0.334 v -3.372 h -11.539 v 3.372 l 0.699,0.017 c 0.639,0 1.092,0.093 1.35,0.259 0.255,0.166 0.381,0.375 0.381,0.619 0,0.211 -0.107,0.638 -0.334,1.297 l -0.716,2.219 h -7.434 l -0.905,-2.466 c -0.187,-0.526 -0.282,-0.87 -0.282,-1.03 0,-0.185 0.065,-0.359 0.203,-0.509 0.134,-0.155 0.353,-0.262 0.658,-0.332 0.197,-0.048 0.749,-0.074 1.643,-0.074 v -3.372 h -9.444 v 3.372 c 0.604,0 1.051,0.054 1.33,0.159 0.275,0.103 0.508,0.265 0.686,0.476 0.183,0.207 0.384,0.594 0.603,1.167 z m -0.753,-13.129 h 4.876 l -2.373,6.715 z M -79.185,0 h 15.039 c 0.966,0 2.031,-0.088 3.174,-0.263 1.15,-0.172 2.189,-0.561 3.117,-1.151 0.926,-0.597 1.642,-1.348 2.158,-2.256 0.51,-0.915 0.768,-1.939 0.768,-3.079 0,-1.851 -0.664,-3.355 -1.98,-4.502 -1.325,-1.151 -2.892,-1.895 -4.698,-2.251 l 5.018,-5.838 0.209,-0.264 c 0.326,-0.398 0.628,-0.689 0.895,-0.881 0.262,-0.191 0.531,-0.329 0.803,-0.411 0.266,-0.084 0.645,-0.127 1.119,-0.127 h 1.05 v -3.372 h -7.819 l -7.833,10.511 h -2.028 v -4.864 c 0,-0.835 0.041,-1.371 0.137,-1.599 0.096,-0.229 0.245,-0.395 0.448,-0.507 0.205,-0.11 0.614,-0.169 1.232,-0.169 h 1.12 v -3.372 h -11.929 v 3.372 h 1.082 c 0.576,0 0.979,0.065 1.217,0.185 0.24,0.128 0.42,0.308 0.532,0.549 0.058,0.143 0.091,0.58 0.091,1.314 v 13.73 c 0,0.537 -0.044,0.919 -0.132,1.148 -0.09,0.224 -0.227,0.372 -0.43,0.448 -0.28,0.125 -0.599,0.189 -0.96,0.189 l -0.491,-0.018 h -0.909 z m 8.992,-4.003 v -6.316 h 3.618 c 1.421,0 2.487,0.131 3.195,0.393 0.702,0.264 1.234,0.638 1.586,1.131 0.358,0.487 0.537,1.084 0.537,1.783 0,0.643 -0.167,1.194 -0.502,1.654 -0.326,0.458 -0.806,0.799 -1.412,1.023 -0.617,0.218 -1.613,0.332 -3.004,0.332 z M -96.334,0 h 11.892 v -3.378 h -1.079 c -0.633,0 -1.052,-0.053 -1.255,-0.161 -0.203,-0.11 -0.352,-0.286 -0.453,-0.524 -0.102,-0.238 -0.151,-0.7 -0.151,-1.374 v -13.5 c 0,-0.736 0.044,-1.209 0.126,-1.417 0.077,-0.209 0.223,-0.366 0.417,-0.452 0.247,-0.143 0.61,-0.217 1.1,-0.217 h 1.295 v -3.372 h -11.892 v 3.372 h 0.964 c 0.682,0 1.139,0.054 1.349,0.149 0.207,0.102 0.363,0.257 0.458,0.471 0.102,0.222 0.149,0.646 0.149,1.291 v 13.549 c 0,0.763 -0.047,1.262 -0.149,1.5 -0.095,0.238 -0.263,0.423 -0.498,0.546 -0.159,0.1 -0.56,0.139 -1.187,0.139 h -1.086 z m -26.194,0 h 12.889 c 1.635,0 2.993,-0.166 4.071,-0.5 1.074,-0.327 2.006,-0.834 2.779,-1.511 0.773,-0.676 1.369,-1.479 1.795,-2.404 0.417,-0.927 0.624,-1.912 0.624,-2.943 0,-2.09 -0.798,-3.837 -2.404,-5.244 -1.601,-1.418 -3.815,-2.121 -6.631,-2.121 h -4.166 v -4.568 c 0,-0.567 0.041,-0.934 0.123,-1.081 0.102,-0.222 0.263,-0.389 0.477,-0.492 0.217,-0.105 0.581,-0.159 1.093,-0.159 h 1.244 v -3.372 h -11.894 v 3.372 h 0.827 c 0.721,0 1.198,0.054 1.431,0.159 0.231,0.103 0.405,0.27 0.507,0.495 0.108,0.228 0.159,0.702 0.159,1.414 v 13.409 c 0,0.749 -0.044,1.245 -0.142,1.483 -0.096,0.238 -0.238,0.414 -0.447,0.524 -0.202,0.108 -0.591,0.161 -1.158,0.161 h -1.177 z m 8.957,-3.985 v -6.925 h 2.083 c 1.269,0 2.204,0.13 2.799,0.394 0.59,0.262 1.068,0.662 1.433,1.205 0.358,0.543 0.541,1.186 0.541,1.934 0,1.116 -0.435,2.006 -1.294,2.658 -0.644,0.488 -1.594,0.734 -2.852,0.734 z m -22.173,-8.352 h 9.481 v -4.176 h -9.481 z M -151.879,0 h 11.891 v -3.378 h -1.078 c -0.634,0 -1.051,-0.053 -1.256,-0.161 -0.2,-0.11 -0.349,-0.286 -0.451,-0.524 -0.104,-0.238 -0.15,-0.7 -0.15,-1.374 v -13.5 c 0,-0.736 0.041,-1.209 0.123,-1.417 0.079,-0.209 0.224,-0.366 0.42,-0.452 0.244,-0.143 0.609,-0.217 1.099,-0.217 h 1.293 v -3.372 h -11.891 v 3.372 h 0.963 c 0.686,0 1.139,0.054 1.35,0.149 0.208,0.102 0.362,0.257 0.458,0.471 0.102,0.222 0.149,0.646 0.149,1.291 v 13.549 c 0,0.763 -0.047,1.262 -0.149,1.5 -0.096,0.238 -0.262,0.423 -0.497,0.546 -0.159,0.1 -0.559,0.139 -1.186,0.139 h -1.088 z m -25.996,0.823 h 2.304 L -175.325,0 h 13.766 l 0.297,0.823 h 2.327 l 3.023,-8.552 -3.255,-1.133 c -0.721,1.419 -1.241,2.345 -1.552,2.774 -0.619,0.855 -1.331,1.524 -2.137,2.011 -0.602,0.378 -1.206,0.56 -1.796,0.56 -0.28,0 -0.478,-0.064 -0.578,-0.2 -0.11,-0.131 -0.157,-0.438 -0.157,-0.911 v -14.033 c 0,-0.829 0.026,-1.345 0.084,-1.555 0.061,-0.21 0.161,-0.378 0.298,-0.494 0.139,-0.128 0.336,-0.203 0.581,-0.248 0.244,-0.039 0.893,-0.065 1.956,-0.065 v -3.372 h -11.891 v 3.372 h 0.717 c 0.792,0 1.294,0.054 1.523,0.149 0.221,0.102 0.387,0.275 0.505,0.527 0.115,0.248 0.176,0.774 0.176,1.564 v 14.345 c 0,0.405 -0.05,0.663 -0.143,0.768 -0.091,0.103 -0.287,0.153 -0.592,0.153 -0.609,0 -1.284,-0.224 -2.031,-0.677 -0.745,-0.452 -1.408,-1.098 -1.993,-1.924 -0.232,-0.326 -0.729,-1.24 -1.486,-2.744 l -3.2,1.133 z M -208.82,0 h 9.915 l 7.15,-14.235 v 8.708 c 0,0.746 -0.041,1.211 -0.122,1.404 -0.115,0.275 -0.275,0.474 -0.472,0.584 -0.198,0.108 -0.579,0.161 -1.154,0.161 h -1.186 V 0 h 10.068 v -3.378 h -1.114 c -0.561,0 -0.961,-0.059 -1.201,-0.189 -0.238,-0.126 -0.406,-0.306 -0.495,-0.527 -0.095,-0.222 -0.145,-0.699 -0.145,-1.433 v -18.868 h -5.019 l -9.054,17.981 v -12.579 c 0,-0.724 0.041,-1.182 0.129,-1.379 0.084,-0.195 0.245,-0.357 0.472,-0.473 0.228,-0.119 0.62,-0.178 1.18,-0.178 h 1.172 v -3.372 h -10.124 v 3.372 h 1.047 c 0.583,0 0.984,0.054 1.196,0.149 0.216,0.102 0.391,0.275 0.514,0.52 0.133,0.246 0.198,0.608 0.198,1.098 v 13.994 c 0,0.537 -0.059,0.929 -0.179,1.18 -0.114,0.251 -0.274,0.433 -0.472,0.543 -0.195,0.108 -0.53,0.161 -0.996,0.161 h -1.308 z m -20.797,0 h 5.475 l 7.329,-18.831 c 0.395,-1.004 0.747,-1.623 1.059,-1.858 0.308,-0.232 0.875,-0.349 1.698,-0.334 v -3.372 h -11.538 v 3.372 l 0.699,0.017 c 0.639,0 1.092,0.093 1.348,0.259 0.257,0.166 0.383,0.375 0.383,0.619 0,0.211 -0.107,0.638 -0.335,1.297 l -0.716,2.219 h -7.432 l -0.909,-2.466 c -0.184,-0.526 -0.279,-0.87 -0.279,-1.03 0,-0.185 0.066,-0.359 0.205,-0.509 0.129,-0.155 0.35,-0.262 0.655,-0.332 0.197,-0.048 0.745,-0.074 1.642,-0.074 v -3.372 h -9.445 v 3.372 c 0.604,0 1.051,0.054 1.331,0.159 0.275,0.103 0.508,0.265 0.687,0.476 0.185,0.207 0.382,0.594 0.602,1.167 z m -0.753,-13.129 h 4.878 l -2.376,6.715 z M -268.556,0 h 11.892 v -3.378 h -1.081 c -0.633,0 -1.05,-0.053 -1.252,-0.161 -0.203,-0.11 -0.352,-0.286 -0.454,-0.524 -0.103,-0.238 -0.149,-0.7 -0.149,-1.374 v -13.5 c 0,-0.736 0.042,-1.209 0.124,-1.417 0.079,-0.209 0.221,-0.366 0.417,-0.452 0.246,-0.143 0.611,-0.217 1.1,-0.217 h 1.295 v -3.372 h -11.892 v 3.372 h 0.962 c 0.686,0 1.142,0.054 1.349,0.149 0.21,0.102 0.366,0.257 0.459,0.471 0.101,0.222 0.151,0.646 0.151,1.291 v 13.549 c 0,0.763 -0.05,1.262 -0.151,1.5 -0.093,0.238 -0.26,0.423 -0.494,0.546 -0.161,0.1 -0.562,0.139 -1.189,0.139 h -1.087 z m -28.755,-3.378 V 0 h 13.874 c 2.12,0 3.786,-0.248 5.003,-0.745 1.212,-0.495 2.143,-1.207 2.794,-2.13 0.654,-0.927 0.979,-1.948 0.979,-3.052 0,-0.802 -0.169,-1.568 -0.514,-2.292 -0.346,-0.721 -0.842,-1.362 -1.487,-1.916 -0.645,-0.553 -1.504,-1.011 -2.561,-1.373 1.141,-0.293 2.018,-0.612 2.62,-0.961 0.879,-0.487 1.572,-1.176 2.084,-2.049 0.516,-0.889 0.77,-1.865 0.77,-2.951 0,-1.298 -0.393,-2.486 -1.177,-3.577 -0.775,-1.095 -1.879,-1.924 -3.313,-2.488 -1.426,-0.574 -3.516,-0.861 -6.266,-0.861 h -12.806 v 3.372 h 0.967 c 0.64,0 1.075,0.059 1.303,0.169 0.225,0.112 0.387,0.267 0.478,0.469 0.093,0.21 0.141,0.665 0.141,1.373 v 13.61 c 0,0.724 -0.048,1.182 -0.141,1.381 -0.091,0.196 -0.253,0.358 -0.478,0.47 -0.228,0.12 -0.663,0.173 -1.303,0.173 z m 8.942,-6.5 h 2.675 c 1.399,0 2.43,0.116 3.105,0.345 0.669,0.235 1.176,0.586 1.509,1.06 0.341,0.476 0.509,1.019 0.509,1.634 0,0.643 -0.161,1.194 -0.48,1.647 -0.321,0.454 -0.785,0.777 -1.389,0.968 -0.609,0.196 -1.694,0.291 -3.254,0.291 h -2.675 z m 0,-3.587 v -5.283 c 0.006,-0.747 0.036,-1.182 0.085,-1.308 0.058,-0.169 0.155,-0.281 0.292,-0.347 0.131,-0.06 0.495,-0.095 1.092,-0.095 h 1.781 c 1.037,0 1.897,0.095 2.583,0.294 0.683,0.19 1.26,0.59 1.738,1.192 0.478,0.61 0.717,1.338 0.717,2.193 0,0.721 -0.168,1.331 -0.508,1.831 -0.335,0.503 -0.841,0.885 -1.522,1.14 -0.676,0.258 -1.708,0.383 -3.092,0.383 z M -324.769,0 h 20.166 l 2.762,-7.782 -3.164,-1.098 c -0.512,1.129 -1.001,1.98 -1.466,2.56 -0.467,0.579 -1.023,1.058 -1.661,1.443 -0.644,0.383 -1.338,0.641 -2.082,0.765 -0.502,0.084 -1.394,0.127 -2.658,0.127 h -3.007 v -6.472 h 1.533 c 0.584,0 1.043,0.09 1.371,0.265 0.336,0.173 0.573,0.399 0.725,0.678 0.143,0.28 0.213,0.746 0.213,1.405 v 1.287 h 3.152 v -10.911 h -3.152 v 1.576 c 0,0.451 -0.041,0.789 -0.119,0.996 -0.107,0.28 -0.251,0.507 -0.442,0.68 -0.184,0.174 -0.393,0.3 -0.633,0.369 -0.243,0.069 -0.675,0.104 -1.307,0.104 h -1.341 v -5.122 c 0,-0.62 0.046,-1.036 0.153,-1.255 0.108,-0.214 0.275,-0.376 0.508,-0.479 0.232,-0.105 0.68,-0.159 1.349,-0.159 h 0.997 v -3.372 h -11.897 v 3.372 h 0.788 c 0.878,0 1.453,0.115 1.725,0.347 0.276,0.226 0.412,0.682 0.412,1.373 V -5.28 c 0,0.643 -0.054,1.07 -0.16,1.277 -0.102,0.21 -0.283,0.37 -0.524,0.47 -0.247,0.109 -0.731,0.155 -1.453,0.155 h -0.788 z M 9.104,0 h 12.121 v -3.378 h -0.909 c -0.647,0 -1.045,-0.046 -1.207,-0.143 -0.167,-0.101 -0.247,-0.261 -0.247,-0.482 0,-0.305 0.187,-0.76 0.56,-1.364 l 3.201,-5.3 3.566,5.528 c 0.318,0.479 0.488,0.747 0.524,0.804 0.049,0.129 0.074,0.253 0.074,0.384 0,0.196 -0.066,0.341 -0.203,0.434 -0.135,0.1 -0.45,0.139 -0.938,0.139 H 24.403 V 0 h 9.724 V -3.378 C 33.282,-3.385 32.682,-3.483 32.339,-3.67 31.99,-3.858 31.584,-4.308 31.102,-5.02 l -6.501,-9.479 v -4.35 c 0,-0.771 0.049,-1.27 0.148,-1.498 0.099,-0.229 0.266,-0.395 0.508,-0.507 0.238,-0.11 0.707,-0.169 1.404,-0.169 h 0.859 v -3.372 H 15.626 v 3.372 h 0.647 c 0.842,0 1.38,0.059 1.611,0.169 0.233,0.112 0.405,0.296 0.534,0.561 0.118,0.262 0.185,0.787 0.185,1.581 v 3.814 l -6.491,9.878 c -0.512,0.771 -0.963,1.257 -1.349,1.453 -0.28,0.13 -0.828,0.189 -1.659,0.189 z" style="fill:#ffffff;fill-opacity:1;fill-rule:nonzero;stroke:none" transform="matrix(1.3333333,0,0,-1.3333333,618.01307,473.35347)" clip-path="url(#clipPath5)"/>
    <path id="path6" d="m 0,0 h 9.597 l 6.921,-13.143 v 8.041 c 0,0.687 -0.041,1.118 -0.122,1.292 -0.11,0.255 -0.267,0.437 -0.458,0.541 -0.189,0.1 -0.559,0.151 -1.116,0.151 H 13.673 V 0 h 9.746 v -3.118 h -1.078 c -0.543,0 -0.93,-0.056 -1.162,-0.176 C 20.947,-3.412 20.785,-3.578 20.699,-3.78 20.607,-3.984 20.56,-4.427 20.56,-5.102 V -22.518 H 15.703 L 6.939,-5.923 v -11.609 c 0,-0.667 0.04,-1.092 0.126,-1.272 0.082,-0.182 0.238,-0.331 0.456,-0.436 0.222,-0.11 0.603,-0.166 1.145,-0.166 H 9.8 v -3.112 H 0 v 3.112 h 1.009 c 0.568,0 0.955,0.048 1.163,0.138 0.207,0.093 0.376,0.251 0.497,0.479 0.126,0.226 0.19,0.562 0.19,1.014 v 12.916 c 0,0.495 -0.056,0.859 -0.171,1.09 -0.111,0.232 -0.266,0.396 -0.459,0.5 -0.189,0.1 -0.515,0.151 -0.962,0.151 l -1.267,0 z m -21.337,0 h 11.506 v -3.118 h -1.043 c -0.613,0 -1.018,-0.051 -1.216,-0.151 -0.195,-0.104 -0.338,-0.264 -0.437,-0.485 -0.099,-0.221 -0.144,-0.643 -0.144,-1.268 v -12.462 c 0,-0.675 0.038,-1.112 0.122,-1.305 0.071,-0.194 0.213,-0.336 0.403,-0.418 0.236,-0.133 0.59,-0.199 1.065,-0.199 h 1.25 v -3.112 h -11.506 v 3.112 h 0.93 c 0.667,0 1.105,0.048 1.305,0.138 0.204,0.093 0.354,0.237 0.445,0.435 0.098,0.202 0.142,0.596 0.142,1.19 v 12.507 c 0,0.699 -0.044,1.161 -0.142,1.382 -0.091,0.221 -0.255,0.394 -0.479,0.507 -0.155,0.088 -0.545,0.129 -1.149,0.129 h -1.052 z m -32.492,0 h 9.596 l 6.919,-13.143 v 8.041 c 0,0.687 -0.041,1.118 -0.121,1.292 -0.11,0.255 -0.266,0.437 -0.456,0.541 -0.191,0.1 -0.56,0.151 -1.116,0.151 h -1.149 V 0 h 9.746 v -3.118 h -1.081 c -0.54,0 -0.929,-0.056 -1.16,-0.176 -0.231,-0.118 -0.393,-0.284 -0.481,-0.486 -0.09,-0.204 -0.137,-0.647 -0.137,-1.322 v -17.416 h -4.86 l -8.764,16.595 v -11.609 c 0,-0.667 0.041,-1.092 0.128,-1.272 0.081,-0.182 0.238,-0.331 0.456,-0.436 0.22,-0.11 0.603,-0.166 1.145,-0.166 h 1.131 v -3.112 h -9.796 v 3.112 h 1.01 c 0.564,0 0.954,0.048 1.162,0.138 0.209,0.093 0.375,0.251 0.497,0.479 0.126,0.226 0.19,0.562 0.19,1.014 v 12.916 c 0,0.495 -0.058,0.859 -0.173,1.09 -0.111,0.232 -0.267,0.396 -0.457,0.5 -0.19,0.1 -0.515,0.151 -0.964,0.151 h -1.265 z m -34.44,0 h 13.995 c 0.899,0 1.89,-0.084 2.955,-0.242 1.068,-0.163 2.034,-0.518 2.901,-1.065 0.861,-0.551 1.527,-1.245 2.007,-2.084 0.474,-0.84 0.716,-1.789 0.716,-2.842 0,-1.708 -0.618,-3.097 -1.846,-4.155 -1.234,-1.061 -2.689,-1.75 -4.372,-2.076 l 4.671,-5.387 0.196,-0.244 c 0.306,-0.369 0.583,-0.637 0.834,-0.816 0.243,-0.174 0.494,-0.303 0.745,-0.381 0.249,-0.076 0.598,-0.114 1.043,-0.114 h 0.979 v -3.112 h -7.279 l -7.29,9.703 h -1.888 v -4.493 c 0,-0.772 0.039,-1.265 0.128,-1.477 0.089,-0.207 0.227,-0.363 0.417,-0.466 0.188,-0.099 0.57,-0.155 1.145,-0.155 h 1.042 v -3.112 h -11.099 v 3.112 h 1.006 c 0.534,0 0.911,0.059 1.133,0.172 0.223,0.115 0.388,0.281 0.494,0.506 0.056,0.132 0.084,0.535 0.084,1.211 v 12.673 c 0,0.495 -0.039,0.847 -0.123,1.059 -0.085,0.207 -0.21,0.347 -0.4,0.412 -0.262,0.116 -0.556,0.179 -0.894,0.179 l -0.454,-0.021 h -0.846 z m 8.367,-3.699 v -5.829 h 3.367 c 1.322,0 2.317,0.124 2.973,0.365 0.654,0.242 1.148,0.59 1.476,1.042 0.334,0.452 0.5,1.003 0.5,1.645 0,0.595 -0.156,1.102 -0.465,1.528 -0.306,0.422 -0.751,0.739 -1.319,0.941 -0.57,0.205 -1.5,0.308 -2.793,0.308 z M -110.917,0 h 5.296 l 7.095,-17.383 c 0.381,-0.928 0.723,-1.499 1.021,-1.715 0.301,-0.215 0.851,-0.319 1.647,-0.308 v -3.112 h -11.164 v 3.112 l 0.673,0.016 c 0.62,0 1.058,0.084 1.306,0.238 0.25,0.153 0.37,0.348 0.37,0.572 0,0.191 -0.103,0.588 -0.323,1.197 l -0.693,2.047 h -7.193 l -0.878,-2.273 c -0.179,-0.486 -0.271,-0.805 -0.271,-0.954 0,-0.169 0.062,-0.331 0.197,-0.468 0.125,-0.144 0.339,-0.242 0.634,-0.309 0.192,-0.044 0.722,-0.066 1.589,-0.066 v -3.112 h -9.139 v 3.112 c 0.583,0 1.016,0.048 1.288,0.149 0.267,0.095 0.491,0.24 0.664,0.435 0.181,0.191 0.371,0.551 0.583,1.081 z m -0.728,-12.122 h 4.719 l -2.299,6.199 z M -159.395,0 h 10.393 v -3.118 c -0.669,0 -1.081,-0.019 -1.25,-0.063 -0.16,-0.044 -0.298,-0.137 -0.421,-0.279 -0.114,-0.151 -0.179,-0.314 -0.179,-0.496 0,-0.163 0.076,-0.514 0.22,-1.046 l 3.166,-11.688 2.762,8.308 -1.088,3.38 c -0.033,0.069 -0.075,0.207 -0.131,0.399 -0.146,0.53 -0.371,0.904 -0.66,1.125 -0.293,0.221 -0.716,0.341 -1.27,0.36 V 0 h 9.865 v -3.118 h -0.795 c -0.572,0 -0.948,-0.063 -1.115,-0.195 -0.237,-0.18 -0.359,-0.412 -0.359,-0.694 0,-0.202 0.087,-0.618 0.255,-1.238 l 2.796,-10.381 2.877,10.381 c 0.214,0.749 0.317,1.201 0.317,1.336 0,0.262 -0.097,0.453 -0.3,0.591 -0.202,0.133 -0.589,0.2 -1.156,0.2 h -0.86 V 0 h 8.972 v -3.118 c -0.648,0 -1.103,-0.063 -1.381,-0.183 -0.278,-0.126 -0.508,-0.313 -0.693,-0.574 -0.185,-0.257 -0.41,-0.803 -0.671,-1.63 l -5.228,-17.013 h -5.113 l -2.738,9.022 -2.946,-9.022 h -5.316 l -5.279,17.273 c -0.225,0.749 -0.422,1.238 -0.594,1.46 -0.168,0.219 -0.406,0.39 -0.7,0.507 -0.301,0.119 -0.762,0.17 -1.38,0.16 z M 45.444,-10.507 h 11.221 v -3.154 h -0.84 c -0.551,0 -0.929,-0.044 -1.13,-0.143 -0.203,-0.098 -0.353,-0.247 -0.455,-0.455 -0.095,-0.214 -0.148,-0.612 -0.148,-1.21 v -7.049 h -3.379 l -0.872,1.615 c -1.034,-0.667 -2.104,-1.169 -3.212,-1.499 -1.113,-0.336 -2.269,-0.502 -3.462,-0.502 -2.101,0 -4.007,0.502 -5.735,1.499 -1.728,1.002 -3.088,2.401 -4.095,4.196 -1.007,1.797 -1.509,3.81 -1.509,6.041 0,2.203 0.494,4.175 1.492,5.923 0.996,1.742 2.384,3.118 4.166,4.121 1.792,1.007 3.728,1.508 5.813,1.508 1.013,0 2.021,-0.128 3.025,-0.38 1.001,-0.254 1.863,-0.588 2.575,-1.007 L 49.509,0 h 2.312 l 2.076,-7.461 -3.033,-0.965 c -1.034,1.638 -1.849,2.751 -2.447,3.341 -0.601,0.589 -1.289,1.051 -2.063,1.386 -0.773,0.339 -1.53,0.505 -2.262,0.505 -1.048,0 -2.019,-0.299 -2.924,-0.889 -0.914,-0.595 -1.627,-1.457 -2.156,-2.596 -0.527,-1.133 -0.787,-2.509 -0.787,-4.121 0,-1.773 0.288,-3.315 0.861,-4.617 0.579,-1.3 1.333,-2.268 2.266,-2.898 0.935,-0.627 1.966,-0.942 3.083,-0.942 0.793,0 1.541,0.154 2.249,0.468 0.711,0.309 1.193,0.661 1.456,1.048 0.266,0.389 0.401,0.909 0.401,1.563 v 0.828 c 0,0.569 -0.039,0.929 -0.118,1.079 -0.118,0.215 -0.283,0.369 -0.484,0.467 -0.202,0.099 -0.602,0.143 -1.198,0.143 h -1.297 z" style="fill:#ffffff;fill-opacity:1;fill-rule:nonzero;stroke:none" transform="matrix(1.3333333,0,0,-1.3333333,497.28253,514.5404)" clip-path="url(#clipPath7)"/>
  </g>
</svg>