<svg enable-background="new 0 0 484.526 484.536" height="316.227766" viewBox="0 0 484.526 484.536" width="316.227766" xmlns="http://www.w3.org/2000/svg" xmlns:xlink="http://www.w3.org/1999/xlink"><clipPath id="a"><path d="m0 .02h482.059v484.526h-482.059z"/></clipPath><clipPath id="b"><path d="m0 .02h482.059v485.112h-482.059z"/></clipPath><clipPath id="c"><path d="m0 .02h482.059v484.526h-482.059z"/></clipPath><clipPath id="d"><path d="m0 .02h482.059v485.112h-482.059z"/></clipPath><clipPath id="e"><path d="m0 .02h482.059v484.526h-482.059z"/></clipPath><clipPath id="f"><path d="m0 .02h482.059v485.112h-482.059z"/></clipPath><clipPath id="g"><path d="m0 .02h482.059v484.526h-482.059z"/></clipPath><clipPath id="h"><path d="m0 .02h482.059v485.112h-482.059z"/></clipPath><clipPath id="i"><path d="m0 .02h482.059v484.526h-482.059z"/></clipPath><clipPath id="j"><path d="m0 .02h482.059v485.112h-482.059z"/></clipPath><clipPath id="k"><path d="m0 .02h482.059v484.526h-482.059z"/></clipPath><clipPath id="l"><path d="m0 .02h482.059v485.112h-482.059z"/></clipPath><clipPath id="m"><path d="m0 .02h482.059v484.526h-482.059z"/></clipPath><clipPath id="n"><path d="m0 .02h482.059v485.112h-482.059z"/></clipPath><clipPath id="o"><path d="m0 .02h482.059v484.526h-482.059z"/></clipPath><clipPath id="p"><path d="m0 .02h482.059v485.112h-482.059z"/></clipPath><clipPath id="q"><path d="m0 .02h482.059v484.526h-482.059z"/></clipPath><clipPath id="r"><path d="m0 .02h482.059v485.112h-482.059z"/></clipPath><path d="m.009.01h484.517v484.526h-484.517z"/><g fill="#58585a"><path d="m.009 99.176 7.848-5.917-7.848-10.431z"/><path clip-path="url(#a)" d="m28.134 77.982-31.504-41.814 12.41-9.342c8.928-6.73 15.873-7.215 23.19 2.509 7.28 9.654 6.265 15.272-3.845 22.887l-1.909 1.438 12.289 16.292zm-7.532-32.118c3.547-2.676 4.646-4.51 1.136-9.161-2.998-3.957-4.626-4.091-8.77-.973z"/><path clip-path="url(#a)" d="m57.403 55.914-31.504-41.79 23.907-18.019 6.489 8.63-12.866 9.691 5.344 7.103 10.631-8.015 6.768 8.96-10.64 8.025 6.144 8.141 13.527-10.189 6.758 8.96z"/><path clip-path="url(#a)" d="m88.003 15.147c1.89 2.509 3.817 2.611 5.53 1.327 1.704-1.29 2.142-3.174.261-5.684l-3.119-4.129-2.765 2.072-5.875-7.802 13.789-10.389 17.502 23.232-5.642 4.25-3.249-1.01c-.801 3.71-2.598 6.521-5.875 9.002-10.976 8.244-16.934 4.706-29.344-11.763-11.888-15.78-12.465-24.466-1.825-32.491 5.893-4.45 12.884-6.247 18.731-2.439 1.825 1.192 3.612 3.124 6.154 6.507l-11.041 8.306-1.834-2.439c-1.89-2.5-3.817-2.593-5.521-1.308-1.713 1.29-2.141 3.166-.27 5.665z"/><path clip-path="url(#a)" d="m119.749 8.938-31.513-41.8 11.041-8.304 31.485 41.795z"/><path clip-path="url(#a)" d="m9.245 180.793-31.494-41.814 12.4-9.342c8.928-6.74 15.873-7.215 23.2 2.509 7.28 9.654 6.256 15.272-3.863 22.888l-1.899 1.438 12.289 16.292zm-7.532-32.118c3.547-2.681 4.646-4.511 1.136-9.161-2.988-3.957-4.626-4.092-8.76-.973z"/><path d="m38.514 158.725-31.504-41.805 23.898-18.005 6.488 8.616-12.856 9.696 5.353 7.112 10.632-8.02 6.759 8.965-10.641 8.025 6.144 8.142 13.517-10.19 6.759 8.961z"/><path clip-path="url(#b)" d="m69.114 117.958c1.899 2.495 3.817 2.611 5.53 1.322 1.704-1.285 2.142-3.184.261-5.679l-3.128-4.129-2.755 2.067-5.875-7.797 13.788-10.39 17.502 23.232-5.642 4.25-3.249-1.01c-.801 3.701-2.598 6.512-5.875 8.998-10.976 8.248-16.934 4.71-29.344-11.763-11.888-15.775-12.465-24.461-1.825-32.486 5.893-4.455 12.884-6.247 18.74-2.444 1.815 1.191 3.603 3.128 6.145 6.512l-11.042 8.304-1.834-2.439c-1.89-2.5-3.808-2.602-5.521-1.317-1.704 1.285-2.141 3.175-.261 5.674z"/><path clip-path="url(#b)" d="m100.86 111.748-31.513-41.813 11.041-8.3 31.504 41.8z"/><path clip-path="url(#b)" d="m132.149 88.163-31.494-41.81 12.41-9.342c8.937-6.731 15.873-7.215 23.208 2.518 7.271 9.654 6.247 15.268-3.863 22.888l-1.908 1.429 12.289 16.292zm-7.522-32.114c3.547-2.672 4.636-4.511 1.126-9.161-2.979-3.957-4.608-4.092-8.751-.973z"/><path clip-path="url(#c)" d="m161.428 66.108-31.504-41.804 23.898-18.014 6.498 8.625-12.875 9.696 5.363 7.103 10.631-8.011 6.759 8.961-10.641 8.02 6.144 8.141 13.518-10.189 6.759 8.969z"/><path clip-path="url(#c)" d="m192.038 25.332c1.899 2.504 3.817 2.611 5.521 1.322 1.704-1.285 2.141-3.175.27-5.679l-3.128-4.128-2.756 2.076-5.874-7.796 13.787-10.39 17.493 23.232-5.651 4.25-3.24-1.02c-.8 3.71-2.597 6.521-5.883 8.998-10.958 8.258-16.916 4.711-29.325-11.753-11.889-15.785-12.484-24.47-1.843-32.486 5.911-4.464 12.903-6.247 18.74-2.444 1.834 1.182 3.603 3.128 6.154 6.503l-11.033 8.313-1.843-2.453c-1.881-2.495-3.808-2.593-5.521-1.304-1.704 1.275-2.142 3.166-.251 5.66z"/><path clip-path="url(#c)" d="m223.774 19.123-31.503-41.814 11.041-8.3 31.485 41.8z"/><path clip-path="url(#c)" d="m-9.645 283.599-31.503-41.814 12.41-9.342c8.928-6.74 15.873-7.22 23.199 2.504 7.28 9.663 6.256 15.268-3.863 22.893l-1.899 1.442 12.298 16.292zm-7.531-32.119c3.547-2.682 4.646-4.506 1.136-9.161-2.989-3.966-4.627-4.092-8.761-.973z"/><path clip-path="url(#c)" d="m19.625 261.535-31.504-41.809 23.898-18.01 6.488 8.621-12.856 9.696 5.353 7.108 10.632-8.025 6.759 8.969-10.642 8.03 6.154 8.132 13.518-10.194 6.759 8.974z"/><path clip-path="url(#d)" d="m50.234 220.759c1.89 2.5 3.808 2.602 5.512 1.317 1.713-1.29 2.15-3.175.27-5.674l-3.128-4.124-2.755 2.066-5.865-7.796 13.778-10.395 17.502 23.232-5.642 4.254-3.24-1.02c-.81 3.705-2.607 6.531-5.884 8.998-10.976 8.258-16.934 4.72-29.344-11.753-11.888-15.78-12.465-24.47-1.834-32.491 5.902-4.44 12.894-6.242 18.75-2.439 1.815 1.182 3.603 3.137 6.145 6.512l-11.042 8.304-1.834-2.443c-1.89-2.504-3.817-2.602-5.521-1.313-1.713 1.285-2.141 3.166-.261 5.67z"/><path clip-path="url(#d)" d="m81.98 214.554-31.503-41.805 11.022-8.313 31.513 41.804z"/><path clip-path="url(#d)" d="m113.27 190.973-31.494-41.809 12.4-9.342c8.937-6.74 15.873-7.22 23.209 2.504 7.271 9.659 6.247 15.272-3.854 22.888l-1.908 1.443 12.289 16.292zm-7.532-32.119c3.547-2.676 4.646-4.496 1.136-9.16-2.979-3.966-4.618-4.087-8.76-.973z"/><path clip-path="url(#d)" d="m142.548 168.904-31.512-41.8 23.906-18.009 6.498 8.621-12.875 9.691 5.363 7.113 10.631-8.025 6.759 8.969-10.641 8.025 6.144 8.132 13.518-10.189 6.759 8.97z"/><path clip-path="url(#d)" d="m173.149 128.138c1.89 2.5 3.817 2.602 5.53 1.317 1.694-1.29 2.141-3.174.261-5.674l-3.119-4.124-2.765 2.067-5.874-7.797 13.787-10.394 17.502 23.232-5.632 4.254-3.259-1.019c-.81 3.706-2.597 6.531-5.874 8.998-10.976 8.257-16.934 4.72-29.344-11.753-11.889-15.78-12.475-24.47-1.834-32.49 5.902-4.45 12.894-6.242 18.74-2.439 1.825 1.183 3.603 3.128 6.153 6.512l-11.041 8.304-1.834-2.444c-1.89-2.504-3.808-2.602-5.53-1.313-1.704 1.285-2.142 3.165-.251 5.669z"/><path clip-path="url(#d)" d="m204.885 121.933-31.503-41.814 11.041-8.304 31.503 41.805z"/><path clip-path="url(#d)" d="m236.184 98.347-31.494-41.814 12.409-9.342c8.928-6.73 15.873-7.215 23.19 2.519 7.28 9.659 6.266 15.263-3.863 22.878l-1.899 1.443 12.289 16.292zm-7.532-32.118c3.557-2.667 4.627-4.506 1.136-9.161-2.988-3.957-4.617-4.087-8.751-.973z"/><path clip-path="url(#e)" d="m265.462 76.288-31.512-41.8 23.907-18.018 6.488 8.63-12.865 9.691 5.353 7.103 10.631-8.016 6.759 8.97-10.64 8.016 6.162 8.132 13.508-10.181 6.759 8.97z"/><path clip-path="url(#e)" d="m296.063 35.512c1.899 2.509 3.808 2.602 5.512 1.327 1.722-1.29 2.159-3.175.27-5.684l-3.128-4.129-2.746 2.081-5.884-7.811 13.797-10.389 17.502 23.241-5.651 4.254-3.239-1.033c-.81 3.719-2.598 6.531-5.884 9.002-10.967 8.253-16.925 4.715-29.344-11.758-11.879-15.775-12.466-24.461-1.824-32.486 5.893-4.455 12.884-6.247 18.73-2.439 1.834 1.191 3.603 3.133 6.153 6.507l-11.041 8.313-1.824-2.448c-1.899-2.509-3.826-2.593-5.53-1.308-1.703 1.28-2.142 3.165-.251 5.665z"/><path clip-path="url(#e)" d="m327.809 29.303-31.522-41.809 11.041-8.305 31.522 41.805z"/><path clip-path="url(#e)" d="m359.108 5.722-31.504-41.805 12.409-9.352c8.938-6.731 15.864-7.215 23.209 2.518 7.262 9.654 6.237 15.263-3.863 22.878l-1.918 1.438 12.308 16.301zm-7.532-32.118c3.538-2.667 4.637-4.51 1.136-9.161-2.988-3.957-4.626-4.091-8.76-.973z"/><path clip-path="url(#e)" d="m.735 364.331-31.494-41.8 23.898-18.005 6.489 8.62-12.866 9.692 5.362 7.113 10.623-8.015 6.758 8.955-10.631 8.034 6.144 8.137 13.518-10.194 6.758 8.965z"/><path clip-path="url(#f)" d="m31.355 323.573c1.88 2.495 3.798 2.607 5.511 1.322 1.704-1.284 2.15-3.184.251-5.679l-3.109-4.134-2.765 2.067-5.865-7.792 13.788-10.399 17.493 23.237-5.642 4.254-3.24-1.015c-.81 3.705-2.606 6.517-5.884 9.002-10.957 8.239-16.916 4.711-29.334-11.758-11.897-15.789-12.475-24.465-1.834-32.49 5.902-4.45 12.885-6.247 18.74-2.439 1.825 1.192 3.603 3.119 6.145 6.508l-11.032 8.295-1.834-2.439c-1.899-2.495-3.817-2.597-5.53-1.313-1.704 1.294-2.132 3.175-.261 5.67z"/><path clip-path="url(#f)" d="m63.082 317.354-31.495-41.799 11.032-8.304 31.495 41.8z"/><path clip-path="url(#f)" d="m94.38 293.783-31.485-41.818 12.4-9.348c8.928-6.735 15.873-7.21 23.2 2.514 7.28 9.654 6.256 15.268-3.854 22.883l-1.908 1.443 12.289 16.292zm-7.522-32.118c3.547-2.682 4.636-4.506 1.126-9.161-2.979-3.966-4.618-4.096-8.76-.977z"/><path clip-path="url(#f)" d="m123.659 271.71-31.503-41.8 23.907-18.009 6.488 8.616-12.865 9.695 5.353 7.113 10.631-8.015 6.759 8.96-10.641 8.025 6.144 8.145 13.518-10.193 6.768 8.965z"/><path clip-path="url(#f)" d="m154.269 230.943c1.89 2.5 3.817 2.611 5.521 1.327 1.704-1.29 2.141-3.184.261-5.684l-3.119-4.129-2.765 2.072-5.874-7.802 13.796-10.389 17.502 23.232-5.651 4.25-3.249-1.01c-.81 3.71-2.597 6.512-5.874 9.002-10.967 8.243-16.925 4.706-29.334-11.768-11.898-15.775-12.484-24.461-1.843-32.486 5.912-4.455 12.884-6.247 18.74-2.439 1.834 1.192 3.603 3.124 6.153 6.507l-11.041 8.304-1.834-2.439c-1.899-2.5-3.808-2.602-5.521-1.317-1.713 1.29-2.141 3.174-.261 5.674z"/><path clip-path="url(#f)" d="m149.597 192.77h52.336v13.814h-52.336z" transform="matrix(.6018 .7987 -.7987 .6018 229.4733 -60.8601)"/><path clip-path="url(#f)" d="m217.304 201.157-31.494-41.814 12.41-9.342c8.918-6.731 15.873-7.215 23.19 2.518 7.271 9.654 6.256 15.272-3.845 22.888l-1.909 1.429 12.279 16.292zm-7.522-32.117c3.538-2.672 4.636-4.501 1.126-9.161-2.989-3.957-4.627-4.092-8.761-.973z"/><path clip-path="url(#f)" d="m246.574 179.099-31.504-41.801 23.897-18.018 6.49 8.625-12.867 9.696 5.353 7.103 10.641-8.006 6.749 8.96-10.64 8.016 6.144 8.141 13.527-10.189 6.759 8.97z"/><path clip-path="url(#f)" d="m277.174 138.322c1.898 2.504 3.826 2.611 5.529 1.322 1.704-1.285 2.142-3.17.252-5.679l-3.109-4.129-2.766 2.081-5.883-7.801 13.796-10.39 17.502 23.232-5.65 4.25-3.24-1.02c-.81 3.71-2.597 6.512-5.883 9.002-10.967 8.253-16.925 4.706-29.335-11.758-11.889-15.785-12.475-24.47-1.843-32.486 5.901-4.464 12.894-6.247 18.768-2.439 1.806 1.177 3.594 3.123 6.126 6.498l-11.041 8.313-1.825-2.449c-1.899-2.5-3.808-2.593-5.529-1.308-1.704 1.28-2.142 3.166-.252 5.665z"/><path clip-path="url(#f)" d="m308.919 132.113-31.494-41.814 11.014-8.299 31.521 41.799z"/><path clip-path="url(#f)" d="m340.218 108.527-31.513-41.81 12.419-9.342c8.938-6.731 15.882-7.215 23.209 2.518 7.28 9.654 6.237 15.268-3.863 22.888l-1.899 1.429 12.288 16.292zm-7.531-32.113c3.538-2.672 4.636-4.511 1.136-9.161-2.988-3.957-4.627-4.092-8.761-.973z"/><path clip-path="url(#f)" d="m369.478 86.473-31.494-41.805 23.907-18.014 6.498 8.625-12.875 9.697 5.362 7.103 10.623-8.011 6.758 8.96-10.632 8.02 6.136 8.141 13.527-10.193 6.758 8.974z"/><path clip-path="url(#g)" d="m400.107 45.697c1.881 2.504 3.808 2.611 5.512 1.322 1.694-1.285 2.15-3.175.27-5.679l-3.128-4.128-2.765 2.076-5.865-7.797 13.778-10.389 17.502 23.232-5.642 4.25-3.24-1.02c-.81 3.71-2.606 6.521-5.874 8.998-10.967 8.258-16.925 4.711-29.335-11.753-11.906-15.784-12.483-24.47-1.843-32.485 5.902-4.464 12.885-6.247 18.73-2.444 1.844 1.182 3.604 3.128 6.163 6.502l-11.041 8.313-1.834-2.448c-1.89-2.5-3.817-2.593-5.53-1.308-1.703 1.275-2.132 3.166-.261 5.66z"/><path clip-path="url(#g)" d="m431.825 39.487-31.494-41.804 11.041-8.309 31.494 41.8z"/><path clip-path="url(#g)" d="m463.132 15.901-31.494-41.8 12.4-9.352c8.928-6.721 15.883-7.219 23.2 2.514 7.279 9.659 6.265 15.272-3.864 22.892l-1.88 1.438 12.27 16.292zm-7.531-32.117c3.557-2.667 4.646-4.487 1.136-9.151-2.979-3.966-4.617-4.096-8.77-.968z"/><path clip-path="url(#g)" d="m-18.144 467.146-31.504-41.8 23.898-18.005 6.498 8.611-12.875 9.692 5.362 7.112 10.622-8.006 6.759 8.956-10.632 8.024 6.145 8.137 13.517-10.184 6.759 8.956z"/><path clip-path="url(#g)" d="m12.466 426.379c1.88 2.495 3.798 2.598 5.521 1.313 1.694-1.284 2.141-3.174.251-5.669l-3.119-4.124-2.765 2.066-5.865-7.802 13.778-10.389 17.502 23.236-5.632 4.245-3.249-1.006c-.81 3.696-2.606 6.518-5.884 8.984-10.957 8.258-16.916 4.72-29.334-11.758-11.897-15.771-12.475-24.466-1.834-32.481 5.902-4.459 12.894-6.247 18.74-2.448 1.825 1.191 3.603 3.128 6.145 6.517l-11.032 8.304-1.834-2.438c-1.899-2.495-3.817-2.606-5.53-1.322-1.704 1.285-2.132 3.184-.26 5.679z"/><path clip-path="url(#h)" d="m44.202 420.17-31.504-41.81 11.042-8.303 31.494 41.799z"/><path clip-path="url(#h)" d="m75.492 396.589-31.495-41.81 12.41-9.347c8.928-6.74 15.873-7.215 23.2 2.514 7.28 9.645 6.265 15.268-3.854 22.883l-1.908 1.434 12.289 16.292zm-7.513-32.118c3.538-2.682 4.627-4.516 1.117-9.161-2.979-3.966-4.618-4.087-8.76-.978z"/><path clip-path="url(#h)" d="m104.779 374.516-31.512-41.8 23.906-18.005 6.489 8.621-12.875 9.69 5.362 7.114 10.641-8.016 6.75 8.955-10.632 8.026 6.135 8.145 13.518-10.193 6.758 8.965z"/><path clip-path="url(#h)" d="m135.38 333.758c1.89 2.495 3.808 2.598 5.521 1.304 1.694-1.284 2.141-3.165.261-5.66l-3.119-4.134-2.765 2.067-5.874-7.802 13.797-10.39 17.502 23.237-5.642 4.245-3.258-1.015c-.81 3.714-2.598 6.525-5.875 9.002-10.967 8.248-16.925 4.711-29.334-11.758-11.897-15.78-12.484-24.475-1.843-32.481 5.912-4.459 12.903-6.256 18.75-2.448 1.825 1.183 3.593 3.128 6.144 6.508l-11.041 8.304-1.834-2.439c-1.89-2.495-3.808-2.597-5.53-1.313-1.704 1.294-2.132 3.175-.251 5.67z"/><path clip-path="url(#h)" d="m167.116 327.539-31.503-41.809 11.041-8.294 31.503 41.799z"/><path clip-path="url(#h)" d="m198.424 303.958-31.494-41.8 12.4-9.355c8.928-6.74 15.873-7.216 23.19 2.513 7.28 9.654 6.266 15.269-3.854 22.884l-1.89 1.442 12.279 16.292zm-7.531-32.108c3.547-2.681 4.646-4.515 1.126-9.16-2.989-3.966-4.618-4.097-8.76-.978z"/><path clip-path="url(#h)" d="m227.685 281.895-31.495-41.805 23.898-18.005 6.489 8.616-12.867 9.696 5.353 7.118 10.623-8.025 6.759 8.955-10.632 8.034 6.154 8.146 13.508-10.203 6.777 8.974z"/><path clip-path="url(#h)" d="m258.285 241.124c1.899 2.5 3.826 2.611 5.53 1.317 1.703-1.285 2.141-3.175.27-5.67l-3.128-4.128-2.765 2.066-5.865-7.797 13.778-10.389 17.502 23.232-5.632 4.25-3.259-1.015c-.81 3.705-2.598 6.517-5.884 8.993-10.967 8.257-16.925 4.72-29.334-11.754-11.888-15.775-12.465-24.47-1.843-32.49 5.921-4.45 12.912-6.242 18.759-2.439 1.815 1.182 3.603 3.128 6.135 6.512l-11.022 8.304-1.843-2.443c-1.881-2.495-3.808-2.602-5.512-1.313-1.722 1.285-2.16 3.175-.27 5.669z"/><path clip-path="url(#h)" d="m290.031 234.918-31.494-41.814 11.012-8.304 31.523 41.805z"/><path clip-path="url(#h)" d="m321.33 211.337-31.513-41.8 12.419-9.356c8.937-6.726 15.882-7.215 23.208 2.519 7.28 9.659 6.237 15.263-3.863 22.878l-1.89 1.443 12.279 16.292zm-7.532-32.118c3.537-2.667 4.636-4.506 1.136-9.161-2.989-3.957-4.627-4.087-8.761-.973z"/><path clip-path="url(#h)" d="m350.598 189.283-31.503-41.804 23.907-18.019 6.498 8.63-12.875 9.696 5.362 7.098 10.632-8.006 6.758 8.96-10.64 8.02 6.135 8.142 13.527-10.194 6.759 8.969z"/><path clip-path="url(#h)" d="m381.218 148.502c1.871 2.509 3.808 2.602 5.511 1.327 1.694-1.285 2.15-3.175.271-5.684l-3.129-4.124-2.765 2.076-5.865-7.806 13.778-10.394 17.502 23.241-5.632 4.254-3.249-1.029c-.811 3.715-2.606 6.521-5.875 8.998-10.966 8.257-16.925 4.72-29.344-11.753-11.897-15.78-12.475-24.461-1.834-32.491 5.902-4.45 12.895-6.242 18.731-2.439 1.843 1.192 3.603 3.137 6.163 6.512l-11.042 8.313-1.834-2.453c-1.89-2.495-3.816-2.593-5.529-1.303-1.704 1.275-2.132 3.165-.261 5.66z"/><path clip-path="url(#h)" d="m412.955 142.298-31.514-41.814 11.041-8.304 31.485 41.804z"/><path clip-path="url(#i)" d="m444.244 118.712-31.504-41.814 12.429-9.342c8.909-6.731 15.863-7.215 23.181 2.519 7.28 9.659 6.266 15.263-3.845 22.878l-1.908 1.438 12.288 16.301zm-7.513-32.118c3.537-2.667 4.636-4.51 1.117-9.161-2.979-3.957-4.618-4.091-8.761-.973z"/><path clip-path="url(#i)" d="m473.522 96.653-31.494-41.8 23.889-18.019 6.488 8.63-12.865 9.696 5.352 7.099 10.632-8.007 6.759 8.961-10.641 8.016 6.162 8.141 13.509-10.19 6.759 8.97z"/><path clip-path="url(#i)" d="m504.123 55.877c1.899 2.509 3.826 2.602 5.53 1.327 1.703-1.29 2.141-3.175.251-5.684l-3.109-4.129-2.765 2.081-5.884-7.811 13.797-10.39 17.502 23.242-5.651 4.254-3.239-1.02c-.81 3.705-2.598 6.517-5.884 8.998-10.967 8.244-16.925 4.706-29.344-11.762-11.879-15.78-12.466-24.466-1.824-32.491 5.893-4.45 12.902-6.242 18.749-2.439 1.815 1.191 3.603 3.137 6.135 6.507l-11.041 8.313-1.824-2.448c-1.899-2.5-3.808-2.593-5.53-1.308-1.703 1.28-2.132 3.165-.251 5.665z"/><path clip-path="url(#i)" d="m25.313 522.984-31.504-41.799 11.032-8.323 31.494 41.8z"/><path clip-path="url(#i)" d="m56.603 499.395-31.485-41.801 12.4-9.347c8.938-6.739 15.873-7.224 23.209 2.495 7.271 9.664 6.256 15.277-3.864 22.901l-1.908 1.435 12.289 16.291zm-7.514-32.119c3.538-2.682 4.636-4.506 1.126-9.161-2.979-3.947-4.617-4.087-8.76-.968z"/><path clip-path="url(#j)" d="m85.89 477.33-31.513-41.8 23.907-18.013 6.489 8.629-12.856 9.701 5.353 7.094 10.631-8.015 6.759 8.965-10.641 8.024 6.135 8.137 13.517-10.185 6.759 8.956z"/><path clip-path="url(#j)" d="m116.491 436.555c1.899 2.514 3.817 2.616 5.521 1.331 1.704-1.284 2.142-3.175.27-5.688l-3.128-4.114-2.755 2.066-5.875-7.801 13.788-10.39 17.502 23.228-5.642 4.254-3.249-1.005c-.81 3.705-2.598 6.517-5.875 8.992-10.976 8.249-16.934 4.711-29.344-11.767-11.888-15.771-12.475-24.456-1.843-32.49 5.912-4.45 12.903-6.237 18.75-2.439 1.825 1.191 3.603 3.128 6.153 6.517l-11.041 8.305-1.843-2.439c-1.88-2.495-3.808-2.598-5.511-1.304-1.722 1.285-2.15 3.165-.261 5.66z"/><path clip-path="url(#j)" d="m148.236 430.354-31.512-41.799 11.041-8.324 31.503 41.81z"/><path clip-path="url(#j)" d="m179.535 406.764-31.494-41.8 12.4-9.347c8.928-6.73 15.873-7.225 23.199 2.504 7.28 9.654 6.256 15.277-3.863 22.893l-1.89 1.434 12.28 16.292zm-7.531-32.118c3.547-2.671 4.646-4.505 1.136-9.16-2.988-3.947-4.627-4.077-8.76-.968z"/><path clip-path="url(#j)" d="m208.805 384.7-31.504-41.791 23.898-18.013 6.489 8.621-12.857 9.7 5.353 7.094 10.631-8.006 6.759 8.956-10.641 8.024 6.145 8.137 13.517-10.185 6.75 8.956z"/><path clip-path="url(#j)" d="m239.405 343.934c1.89 2.504 3.817 2.616 5.52 1.331 1.704-1.294 2.142-3.184.271-5.688l-3.128-4.124-2.765 2.066-5.856-7.802 13.769-10.39 17.503 23.237-5.633 4.245-3.258-1.006c-.792 3.705-2.598 6.517-5.865 8.993-10.985 8.248-16.944 4.711-29.344-11.758-11.888-15.78-12.465-24.466-1.825-32.49 5.893-4.45 12.885-6.247 18.731-2.439 1.815 1.191 3.603 3.119 6.154 6.508l-11.041 8.304-1.843-2.439c-1.881-2.494-3.798-2.588-5.511-1.303-1.704 1.284-2.142 3.165-.261 5.66z"/><path clip-path="url(#j)" d="m271.141 337.725-31.494-41.801 11.032-8.304 31.503 41.8z"/><path clip-path="url(#j)" d="m302.44 314.143-31.484-41.809 12.391-9.347c8.938-6.722 15.882-7.215 23.209 2.514 7.28 9.663 6.256 15.276-3.863 22.892l-1.899 1.434 12.288 16.292zm-7.531-32.118c3.557-2.672 4.637-4.506 1.136-9.161-2.988-3.956-4.608-4.087-8.76-.978z"/><path clip-path="url(#j)" d="m331.709 292.089-31.503-41.8 23.907-18.014 6.498 8.63-12.875 9.682 5.362 7.102 10.632-8.005 6.759 8.964-10.642 8.007 6.136 8.146 13.526-10.195 6.759 8.975z"/><path clip-path="url(#j)" d="m362.329 251.313c1.899 2.514 3.808 2.607 5.512 1.322 1.713-1.285 2.15-3.175.261-5.679l-3.119-4.134-2.746 2.086-5.884-7.807 13.797-10.389 17.492 23.232-5.65 4.255-3.24-1.024c-.81 3.705-2.606 6.517-5.884 9.002-10.957 8.258-16.915 4.701-29.325-11.758-11.888-15.784-12.483-24.47-1.843-32.486 5.902-4.464 12.885-6.247 18.73-2.439 1.844 1.178 3.604 3.124 6.163 6.498l-11.041 8.313-1.834-2.439c-1.89-2.509-3.816-2.602-5.53-1.317-1.703 1.29-2.132 3.165-.241 5.674z"/><path clip-path="url(#j)" d="m394.065 245.094-31.513-41.795 11.041-8.304 31.494 41.79z"/><path clip-path="url(#j)" d="m425.354 221.522-31.484-41.805 12.409-9.351c8.929-6.722 15.864-7.215 23.2 2.518 7.271 9.659 6.246 15.272-3.864 22.888l-1.908 1.419 12.289 16.306zm-7.513-32.118c3.538-2.667 4.637-4.506 1.117-9.161-2.979-3.957-4.617-4.087-8.741-.973z"/><path clip-path="url(#k)" d="m454.633 199.458-31.494-41.79 23.888-18.01 6.489 8.621-12.848 9.682 5.354 7.103 10.622-8.006 6.749 8.961-10.622 8.015 6.145 8.151 13.507-10.19 6.759 8.97z"/><path clip-path="url(#k)" d="m485.234 158.687c1.899 2.514 3.826 2.611 5.529 1.322 1.704-1.285 2.142-3.17.271-5.679l-3.128-4.128-2.766 2.076-5.864-7.796 13.777-10.39 17.502 23.232-5.65 4.25-3.24-1.02c-.791 3.71-2.597 6.521-5.864 9.002-10.985 8.253-16.943 4.706-29.354-11.758-11.888-15.784-12.475-24.47-1.843-32.485 5.921-4.464 12.912-6.247 18.759-2.444 1.815 1.182 3.603 3.128 6.135 6.502l-11.022 8.313-1.844-2.439c-1.88-2.509-3.808-2.602-5.511-1.317-1.704 1.29-2.16 3.166-.271 5.674z"/><path clip-path="url(#k)" d="m160.637 509.579-31.494-41.818 12.41-9.338c8.918-6.73 15.873-7.215 23.19 2.522 7.29 9.654 6.256 15.268-3.845 22.883l-1.909 1.435 12.289 16.291zm-7.532-32.118c3.547-2.662 4.646-4.506 1.136-9.161-2.988-3.956-4.627-4.096-8.76-.968z"/><path clip-path="url(#k)" d="m189.906 487.516-31.504-41.801 23.908-18.004 6.488 8.62-12.865 9.691 5.362 7.113 10.622-8.016 6.759 8.956-10.632 8.025 6.135 8.136 13.527-10.184 6.759 8.966z"/><path clip-path="url(#l)" d="m220.525 446.739c1.88 2.514 3.798 2.616 5.521 1.331 1.694-1.294 2.132-3.174.251-5.688l-3.119-4.115-2.765 2.066-5.865-7.801 13.778-10.39 17.502 23.236-5.632 4.255-3.258-1.015c-.81 3.705-2.597 6.498-5.884 8.993-10.957 8.248-16.915 4.71-29.344-11.759-11.879-15.779-12.456-24.475-1.815-32.48 5.902-4.469 12.894-6.247 18.74-2.439 1.834 1.173 3.603 3.119 6.145 6.498l-11.032 8.305-1.834-2.439c-1.899-2.504-3.817-2.598-5.53-1.313-1.704 1.294-2.132 3.165-.261 5.669z"/><path clip-path="url(#l)" d="m252.252 440.539-31.494-41.8 11.013-8.323 31.513 41.81z"/><path clip-path="url(#l)" d="m283.551 416.948-31.504-41.809 12.41-9.338c8.937-6.74 15.882-7.224 23.208 2.514 7.28 9.654 6.237 15.268-3.863 22.883l-1.908 1.443 12.298 16.292zm-7.531-32.117c3.537-2.663 4.636-4.506 1.136-9.161-2.988-3.947-4.627-4.087-8.761-.959z"/><path clip-path="url(#l)" d="m312.821 394.895-31.504-41.81 23.907-18.005 6.498 8.621-12.875 9.7 5.362 7.113 10.631-8.025 6.759 8.965-10.641 8.016 6.135 8.155 13.528-10.203 6.758 8.974z"/><path clip-path="url(#l)" d="m343.44 354.118c1.88 2.505 3.808 2.616 5.511 1.322 1.694-1.285 2.15-3.175.261-5.679l-3.118-4.124-2.766 2.075-5.865-7.801 13.778-10.39 17.502 23.228-5.632 4.254-3.249-1.015c-.811 3.705-2.606 6.517-5.875 8.993-10.966 8.258-16.924 4.72-29.334-11.748-11.907-15.789-12.484-24.476-1.844-32.491 5.902-4.468 12.895-6.246 18.731-2.438 1.843 1.173 3.603 3.128 6.163 6.507l-11.041 8.305-1.834-2.448c-1.891-2.495-3.817-2.589-5.53-1.304-1.704 1.284-2.132 3.165-.261 5.66z"/><path clip-path="url(#l)" d="m375.158 347.918-31.495-41.809 11.042-8.304 31.484 41.791z"/><path clip-path="url(#l)" d="m406.465 324.318-31.494-41.8 12.4-9.347c8.928-6.722 15.882-7.225 23.199 2.514 7.28 9.663 6.266 15.268-3.863 22.901l-1.89 1.434 12.288 16.292zm-7.512-32.108c3.537-2.672 4.646-4.497 1.117-9.161-2.979-3.956-4.618-4.087-8.761-.959z"/><path clip-path="url(#m)" d="m435.744 302.273-31.513-41.809 23.907-18.005 6.488 8.63-12.865 9.682 5.353 7.113 10.64-8.025 6.75 8.974-10.64 8.007 6.143 8.155 13.528-10.204 6.758 8.975z"/><path clip-path="url(#m)" d="m466.344 261.497c1.899 2.514 3.808 2.607 5.512 1.322 1.722-1.284 2.16-3.165.27-5.679l-3.128-4.124-2.746 2.076-5.884-7.802 13.797-10.385 17.502 23.223-5.65 4.255-3.24-1.015c-.81 3.714-2.598 6.525-5.884 8.983-10.967 8.267-16.925 4.729-29.334-11.749-11.889-15.789-12.476-24.47-1.834-32.481 5.893-4.459 12.884-6.242 18.759-2.439 1.806 1.173 3.593 3.119 6.125 6.502l-11.041 8.313-1.824-2.453c-1.899-2.504-3.826-2.602-5.53-1.313-1.703 1.285-2.132 3.166-.251 5.669z"/><path clip-path="url(#m)" d="m498.09 255.297-31.494-41.818 11.013-8.3 31.513 41.796z"/><path clip-path="url(#m)" d="m264.671 519.764-31.522-41.8 12.419-9.356c8.938-6.73 15.882-7.215 23.209 2.514 7.28 9.654 6.266 15.277-3.863 22.883l-1.899 1.443 12.289 16.291zm-7.531-32.118c3.528-2.672 4.627-4.506 1.126-9.16-2.988-3.957-4.627-4.097-8.76-.969z"/><path clip-path="url(#m)" d="m293.931 497.7-31.504-41.8 23.917-18.004 6.489 8.62-12.866 9.691 5.353 7.104 10.632-8.026 6.758 8.975-10.641 8.025 6.144 8.136 13.528-10.193 6.759 8.974z"/><path clip-path="url(#n)" d="m324.55 456.924c1.881 2.514 3.808 2.616 5.512 1.322 1.713-1.285 2.15-3.165.27-5.679l-3.128-4.115-2.746 2.066-5.884-7.801 13.778-10.39 17.502 23.236-5.633 4.245-3.249-1.015c-.81 3.715-2.606 6.508-5.874 9.003-10.967 8.248-16.925 4.71-29.334-11.759-11.889-15.788-12.484-24.475-1.844-32.49 5.902-4.459 12.894-6.246 18.73-2.448 1.844 1.191 3.604 3.138 6.163 6.517l-11.041 8.305-1.834-2.449c-1.89-2.494-3.816-2.597-5.529-1.303-1.704 1.284-2.133 3.165-.261 5.66z"/><path clip-path="url(#n)" d="m356.268 450.724-31.494-41.81 11.041-8.304 31.494 41.791z"/><path clip-path="url(#n)" d="m387.577 427.134-31.485-41.801 12.391-9.355c8.929-6.713 15.883-7.215 23.2 2.522 7.289 9.663 6.265 15.268-3.846 22.883l-1.898 1.434 12.279 16.302zm-7.514-32.118c3.538-2.663 4.637-4.497 1.117-9.161-2.979-3.956-4.617-4.087-8.76-.968z"/><path clip-path="url(#n)" d="m416.855 405.088-31.513-41.818 23.907-18.005 6.489 8.63-12.866 9.691 5.353 7.094 10.631-8.006 6.759 8.974-10.641 8.006 6.163 8.137 13.508-10.185 6.759 8.965z"/><path clip-path="url(#o)" d="m447.464 364.294c1.881 2.522 3.817 2.616 5.521 1.331s2.142-3.165.242-5.688l-3.1-4.114-2.766 2.085-5.874-7.811 13.788-10.398 17.502 23.236-5.651 4.264-3.239-1.024c-.811 3.706-2.598 6.518-5.884 8.993-10.958 8.258-16.916 4.711-29.335-11.748-11.888-15.789-12.475-24.476-1.834-32.491 5.894-4.468 12.885-6.246 18.75-2.438 1.815 1.173 3.603 3.128 6.135 6.507l-11.041 8.313-1.825-2.457c-1.898-2.495-3.826-2.598-5.529-1.304-1.704 1.285-2.132 3.165-.252 5.66z"/><path clip-path="url(#o)" d="m479.201 358.094-31.513-41.8 11.032-8.305 31.523 41.8z"/><path clip-path="url(#o)" d="m510.5 334.503-31.503-41.8 12.409-9.347c8.938-6.722 15.882-7.225 23.209 2.514 7.262 9.663 6.256 15.268-3.863 22.883l-1.899 1.434 12.289 16.301zm-7.532-32.118c3.538-2.662 4.637-4.496 1.136-9.16-2.988-3.947-4.627-4.087-8.76-.959z"/><path clip-path="url(#o)" d="m375.818 524.576-31.494-41.809 12.4-9.347c8.938-6.722 15.882-7.215 23.209 2.513 7.28 9.664 6.256 15.269-3.863 22.893l-1.899 1.434 12.289 16.302zm-7.531-32.117c3.557-2.672 4.637-4.497 1.136-9.151-2.988-3.966-4.627-4.097-8.76-.987z"/><path clip-path="url(#o)" d="m405.106 502.522-31.523-41.818 23.917-17.996 6.489 8.621-12.875 9.692 5.362 7.112 10.632-8.016 6.759 8.965-10.641 8.016 6.135 8.146 13.526-10.204 6.759 8.966z"/><path clip-path="url(#p)" d="m435.707 461.746c1.881 2.505 3.808 2.607 5.512 1.322 1.703-1.285 2.15-3.175.27-5.679l-3.128-4.134-2.765 2.086-5.865-7.802 13.797-10.39 17.502 23.218-5.66 4.264-3.24-1.023c-.81 3.705-2.606 6.535-5.874 9.002-10.967 8.258-16.925 4.72-29.334-11.758-11.907-15.789-12.484-24.466-1.844-32.49 5.902-4.45 12.885-6.237 18.73-2.439 1.844 1.191 3.604 3.119 6.163 6.517l-11.041 8.305-1.834-2.439c-1.89-2.514-3.816-2.616-5.529-1.331-1.704 1.294-2.132 3.175-.261 5.688z"/><path clip-path="url(#q)" d="m467.443 455.546-31.513-41.818 11.041-8.304 31.486 41.8z"/><path clip-path="url(#q)" d="m498.751 431.956-31.504-41.801 12.409-9.365c8.929-6.722 15.864-7.205 23.182 2.514 7.279 9.663 6.265 15.268-3.845 22.901l-1.899 1.425 12.298 16.301zm-7.532-32.118c3.538-2.682 4.637-4.506 1.117-9.161-2.979-3.966-4.617-4.096-8.741-.978z"/></g><path clip-path="url(#r)" d="m342.545 74.375-19.484 22.98-47.889-40.561-.949 17.292 6.926 6.256-131.73 159.436-1.266 72.224 5.846 3.602 71.014-9.812 134.783-159.156 5.214 4.375 19.597-1.545-48.262-40.869 19.457-23.013 21.934 18.619 21.924-1.69-79.932-67.703 1.583 21.593z" fill="#fff"/><path clip-path="url(#r)" d="m355.802 85.584 21.934 18.619 21.924-1.685-79.932-67.704 1.583 21.589 21.234 17.972-19.484 22.985-47.889-40.566-.949 17.292 6.926 6.256-134.104 159.44-1.266 72.219-60.903 79.606 68.258-72.587 71.879-13.229 48.913-57.766c-.866-.754-1.918-1.647-3.185-2.746-3.155-2.719-7.363-6.308-11.544-9.873-8.341-7.149-16.673-14.244-16.673-14.244l4.096-4.822c.01 0 23.907 20.36 31.393 26.863l11.236-13.271c-.754-.703-1.61-1.485-2.653-2.402-3.175-2.821-7.484-6.475-11.768-10.008-8.602-7.131-17.194-14.006-17.213-14.024l3.956-4.939c.047.046 23.19 18.54 31.783 26.523l10.437-12.316c-1.08-.81-2.318-1.811-3.827-3.063-3.286-2.695-7.4-6.233-11.469-9.808-8.146-7.112-16.021-14.207-16.021-14.225l4.235-4.697c.019.019 7.373 6.643 15.202 13.485 6.173 5.493 13.22 11.404 15.967 13.48l10.687-12.638c-3.286-2.793-8.825-7.731-14.849-12.987-8.192-7.215-16.245-14.355-16.245-14.355l4.199-4.748c.037.038 23.646 20.956 31.01 27.254l12.103-14.299c-.14-.14-.214-.219-.41-.382-.847-.759-2.132-1.839-3.687-3.124-3.081-2.546-7.252-5.865-11.413-9.17-8.305-6.628-16.608-13.098-16.627-13.122l3.91-4.976c.093.079 26.066 20.318 32.322 25.932l20.919-24.689 5.214 4.375 19.597-1.545-48.262-40.878zm-97.386 168.54-37.016 43.736-66.331 10.576-.317-66.852c6.554 3.417 6.74 4.459 27.612 11.935 17.912 5.958 22.334-1.686 37.322-1.48 16.414-2.998 34.698-1.396 38.73 2.085"/><path clip-path="url(#r)" d="m342.545 74.371-19.484 22.989-47.889-40.571-.949 17.302 6.926 6.247-131.73 159.45-1.266 72.223 5.846 3.593 71.014-9.802 134.783-159.166 5.214 4.375 19.597-1.54-48.262-40.869 19.457-23.014 21.934 18.62 21.924-1.699-79.932-67.704 1.583 21.603z"/><path clip-path="url(#r)" d="m355.802 85.584 21.934 18.619 21.924-1.685-79.932-67.704 1.583 21.589 21.234 17.963-19.484 23.004-47.889-40.585-.949 17.302 6.926 6.256-134.104 159.44-1.266 72.219-60.903 79.606 68.258-72.587 71.879-13.229 48.913-57.766c-.866-.754-1.918-1.647-3.185-2.746-3.155-2.719-7.363-6.308-11.544-9.873-8.341-7.149-16.673-14.244-16.673-14.244l4.096-4.822c.01 0 23.907 20.36 31.393 26.863l11.236-13.271c-.754-.703-1.61-1.485-2.653-2.402-3.175-2.821-7.484-6.475-11.768-10.008-8.602-7.131-17.194-14.006-17.213-14.024l3.956-4.939c.047.046 23.19 18.54 31.783 26.523l10.437-12.316c-1.08-.81-2.318-1.811-3.827-3.063-3.286-2.695-7.4-6.233-11.469-9.808-8.146-7.112-16.021-14.207-16.021-14.225l4.235-4.697c.019.019 7.373 6.643 15.202 13.485 6.173 5.493 13.22 11.404 15.967 13.48l10.687-12.638c-3.286-2.793-8.825-7.731-14.849-12.987-8.192-7.215-16.245-14.355-16.245-14.355l4.199-4.748c.037.038 23.646 20.956 31.01 27.254l12.103-14.299c-.14-.14-.214-.219-.41-.382-.847-.759-2.132-1.839-3.687-3.124-3.081-2.546-7.252-5.865-11.413-9.17-8.305-6.628-16.608-13.098-16.627-13.122l3.91-4.976c.093.079 26.066 20.318 32.322 25.932l20.919-24.689 5.214 4.375 19.597-1.545-48.262-40.869zm-97.386 168.54-37.016 43.736-66.331 10.576-.317-66.852c6.554 3.417 6.74 4.459 27.612 11.935 17.912 5.958 22.334-1.686 37.322-1.48 16.414-2.998 34.698-1.396 38.73 2.085" fill="#fff"/><path clip-path="url(#r)" d="m.009 484.536h484.517v-484.526h-484.517zm474.825-9.682h-465.133v-465.139h465.134v465.139z"/><path clip-path="url(#r)" d="m.009 407.016h484.517v77.521h-484.517z"/><path clip-path="url(#r)" d="m154.464 418.587h12.373c13.815 0 18.033 3.501 18.033 26.123 0 20.006-2.979 26.113-18.033 26.113h-12.373zm12.224 42.2c5.53 0 5.967-1.955 5.967-11.497v-9.458c0-9.524-.438-11.498-5.967-11.498z" fill="#fff"/><path clip-path="url(#r)" d="m190.809 470.832v-52.245h15.128c10.474 0 14.989 3.491 14.989 14.709 0 8.36-3.491 10.901-5.819 11.712v.13c4.366.811 5.67 8.23 5.67 14.784 0 5.231.586 8.862 1.601 10.91h-11.926c-1.015-4.301-1.452-7.131-1.452-10.836 0-8.807-.726-10.408-4.655-10.408h-1.759v21.244zm11.777-30.274h2.188c3.352 0 4.506-2.029 4.506-6.247 0-4.227-1.154-6.256-4.506-6.256h-2.188z" fill="#fff"/><path clip-path="url(#r)" d="m257.41 418.587v39.436c0 8.732-5.39 13.676-15.128 13.676-9.756 0-15.137-4.943-15.137-13.676v-39.436h12.223v37.983c0 2.625.652 4.077 2.914 4.077 2.253 0 2.896-1.452 2.896-4.077v-37.983z" fill="#fff"/><path clip-path="url(#r)" d="m275.125 456.719c0 3.129 1.304 4.366 3.203 4.366 1.89 0 3.193-1.237 3.193-4.366v-5.166h-3.054v-9.747h15.286v29.026h-6.266l-1.74-2.773c-2.551 2.476-5.316 3.631-8.947 3.631-12.158 0-14.476-6.387-14.476-26.979 0-19.708 4.217-26.998 16.003-26.998 6.535 0 12.438 2.774 14.551 9.319.651 2.038.875 4.654.875 8.872h-12.232v-3.054c0-3.119-1.304-4.357-3.193-4.357-1.899 0-3.203 1.238-3.203 4.357z" fill="#fff"/><path clip-path="url(#r)" d="m318.742 434.748c-.149-5.688-1.834-7.279-4.441-7.279-2.327 0-3.565 1.592-3.565 3.491 0 6.246 19.644 11.348 19.644 25.898 0 10.474-6.331 14.831-16.44 14.831-12.866 0-15.287-8.938-15.287-18.247h11.358v2.401c0 3.482 1.89 6.107 4.804 6.107 2.467 0 4.217-1.452 4.217-4.227 0-6.898-19.644-12.289-19.644-26.327 0-8.808 6.982-13.686 14.979-13.686 9.17 0 15.426 6.042 15.426 14.784v2.252h-11.051z" fill="#fff"/><path clip-path="url(#r)" d="m433.919 19.407v3.603h-7.671v24.27h-4.497v-24.27h-7.671v-3.603zm31.225 27.872h-4.497v-21.956h-.13l-7.728 21.957h-3.677l-7.336-21.957h-.14v21.957h-4.497v-27.873h7.15l6.944 20.732h.14l6.759-20.732h7.011v27.872z" fill="#fff"/></svg>