<?xml version="1.0" encoding="UTF-8" standalone="no"?>
<svg enable-background="new 0 0 484.542 484.492" height="315.90159" viewBox="0 0 484.542 484.492" width="316.554279" version="1.1" id="svg152" sodipodi:docname="PEGI_Gambling_annotated (1).svg" inkscape:version="1.3.2 (091e20ef0f, 2023-11-25)" xmlns:inkscape="http://www.inkscape.org/namespaces/inkscape" xmlns:sodipodi="http://sodipodi.sourceforge.net/DTD/sodipodi-0.dtd" xmlns="http://www.w3.org/2000/svg" xmlns:svg="http://www.w3.org/2000/svg">
  <defs id="defs152"/>
  <sodipodi:namedview id="namedview152" pagecolor="#ffffff" bordercolor="#000000" borderopacity="0.25" inkscape:showpageshadow="2" inkscape:pageopacity="0.0" inkscape:pagecheckerboard="0" inkscape:deskcolor="#d1d1d1" inkscape:zoom="7.165219" inkscape:cx="146.95992" inkscape:cy="16.538224" inkscape:window-width="1280" inkscape:window-height="729" inkscape:window-x="0" inkscape:window-y="0" inkscape:window-maximized="1" inkscape:current-layer="svg152"/>
  <clipPath id="a">
    <path d="m.064-.009h484.306v484.501h-484.306z" id="path1"/>
  </clipPath>
  <clipPath id="b">
    <path d="m.064 0h484.306v485.415h-484.306z" id="path2"/>
  </clipPath>
  <clipPath id="c">
    <path d="m.064-.009h484.306v484.501h-484.306z" id="path3"/>
  </clipPath>
  <clipPath id="d">
    <path d="m.064 0h484.306v485.415h-484.306z" id="path4"/>
  </clipPath>
  <clipPath id="e">
    <path d="m.064-.009h484.306v484.501h-484.306z" id="path5"/>
  </clipPath>
  <clipPath id="f">
    <path d="m.064 0h484.306v485.415h-484.306z" id="path6"/>
  </clipPath>
  <clipPath id="g">
    <path d="m.064-.009h484.306v484.501h-484.306z" id="path7"/>
  </clipPath>
  <clipPath id="h">
    <path d="m.064 0h484.306v485.415h-484.306z" id="path8"/>
  </clipPath>
  <clipPath id="i">
    <path d="m.064-.009h484.306v484.501h-484.306z" id="path9"/>
  </clipPath>
  <clipPath id="j">
    <path d="m.064 0h484.306v485.415h-484.306z" id="path10"/>
  </clipPath>
  <clipPath id="k">
    <path d="m.064-.009h484.306v484.501h-484.306z" id="path11"/>
  </clipPath>
  <clipPath id="l">
    <path d="m.064 0h484.306v485.415h-484.306z" id="path12"/>
  </clipPath>
  <clipPath id="m">
    <path d="m.064-.009h484.306v484.501h-484.306z" id="path13"/>
  </clipPath>
  <clipPath id="n">
    <path d="m.064 0h484.306v485.415h-484.306z" id="path14"/>
  </clipPath>
  <clipPath id="o">
    <path d="m.064-.009h484.306v484.501h-484.306z" id="path15"/>
  </clipPath>
  <clipPath id="p">
    <path d="m.064 0h484.306v485.415h-484.306z" id="path16"/>
  </clipPath>
  <clipPath id="q">
    <path d="m.064-.009h484.306v484.501h-484.306z" id="path17"/>
  </clipPath>
  <clipPath id="r">
    <path d="m9.734 0h466.271v466.271h-466.271z" id="path18"/>
  </clipPath>
  <clipPath id="s">
    <path d="m.064 0h484.306v485.415h-484.306z" id="path19"/>
  </clipPath>
  <path d="m.055 0h484.492v484.492h-484.492z" id="path20"/>
  <g fill="#58585a" id="g122">
    <path d="m.055 99.144 7.853-5.911-7.853-10.42z" id="path21"/>
    <path clip-path="url(#a)" d="m28.178 77.96-31.504-41.807 12.408-9.348c8.933-6.726 15.864-7.215 23.195 2.505 7.284 9.665 6.26 15.273-3.848 22.897l-1.91 1.43 12.288 16.303zm-7.536-32.119c3.549-2.678 4.648-4.499 1.137-9.157-2.981-3.959-4.621-4.09-8.775-.969z" id="path22"/>
    <path clip-path="url(#a)" d="m57.447 55.892-31.495-41.788 23.894-18.021 6.493 8.621-12.865 9.702 5.338 7.098 10.638-8.011 6.772 8.957-10.638 8.021 6.13 8.155 13.535-10.195 6.753 8.965z" id="path23"/>
    <path clip-path="url(#a)" d="m88.048 15.128c1.881 2.506 3.819 2.613 5.524 1.323 1.705-1.285 2.143-3.167.261-5.673l-3.111-4.141-2.767 2.073-5.878-7.797 13.787-10.387 17.513 23.228-5.664 4.252-3.242-1.02c-.801 3.712-2.59 6.526-5.869 9.003-10.974 8.253-16.936 4.714-29.343-11.761-11.886-15.774-12.473-24.466-1.835-32.486 5.906-4.443 12.902-6.25 18.743-2.44 1.826 1.192 3.605 3.135 6.148 6.511l-11.029 8.31-1.854-2.441c-1.873-2.501-3.801-2.594-5.515-1.309-1.714 1.29-2.143 3.158-.261 5.659z" id="path24"/>
    <path clip-path="url(#a)" d="m83.385-23.039h52.335v13.809h-52.335z" transform="matrix(.6018 .7987 -.7987 .6018 30.739 -93.9193)" id="path25"/>
    <path clip-path="url(#a)" d="m9.296 180.765-31.514-41.808 12.417-9.348c8.924-6.735 15.864-7.215 23.195 2.506 7.275 9.665 6.26 15.272-3.866 22.893l-1.9 1.435 12.287 16.302zm-7.536-32.12c3.549-2.678 4.639-4.499 1.137-9.157-2.981-3.959-4.63-4.089-8.775-.983z" id="path26"/>
    <path d="m38.556 158.696-31.495-41.798 23.884-18.002 6.493 8.604-12.855 9.701 5.356 7.108 10.629-8.016 6.763 8.961-10.629 8.021 6.12 8.156 13.526-10.196 6.754 8.966z" id="path27"/>
    <path clip-path="url(#b)" d="m69.157 117.933c1.891 2.497 3.819 2.613 5.524 1.323 1.714-1.286 2.152-3.177.261-5.673l-3.121-4.141-2.757 2.068-5.878-7.792 13.787-10.387 17.513 23.228-5.654 4.252-3.242-1.02c-.801 3.703-2.599 6.525-5.878 9.003-10.974 8.253-16.936 4.713-29.343-11.761-11.887-15.776-12.464-24.467-1.826-32.487 5.897-4.448 12.893-6.251 18.752-2.445 1.807 1.192 3.596 3.139 6.129 6.516l-11.029 8.309-1.844-2.44c-1.882-2.501-3.801-2.604-5.515-1.318-1.705 1.29-2.152 3.167-.261 5.668z" id="path28"/>
    <path clip-path="url(#b)" d="m64.488 79.762h52.347v13.806h-52.347z" transform="matrix(.6017 .7988 -.7988 .6017 105.3376 -37.8936)" id="path29"/>
    <path clip-path="url(#b)" d="m132.194 88.142-31.496-41.808 12.408-9.348c8.934-6.726 15.864-7.215 23.205 2.515 7.275 9.665 6.25 15.272-3.866 22.897l-1.9 1.42 12.287 16.302zm-7.527-32.115c3.549-2.674 4.639-4.504 1.127-9.162-2.981-3.955-4.611-4.089-8.756-.969z" id="path30"/>
    <path clip-path="url(#c)" d="m161.462 66.083-31.485-41.798 23.884-18.02 6.493 8.626-12.864 9.697 5.346 7.098 10.639-8.002 6.763 8.957-10.638 8.011 6.138 8.156 13.526-10.196 6.754 8.975z" id="path31"/>
    <path clip-path="url(#c)" d="m192.073 25.31c1.891 2.505 3.819 2.613 5.515 1.323 1.714-1.286 2.143-3.163.271-5.673l-3.121-4.141-2.757 2.082-5.878-7.797 13.787-10.387 17.503 23.228-5.664 4.252-3.232-1.029c-.801 3.712-2.599 6.525-5.878 9.003-10.964 8.263-16.926 4.714-29.334-11.751-11.886-15.785-12.482-24.476-1.844-32.487 5.915-4.453 12.911-6.251 18.751-2.441 1.826 1.183 3.596 3.135 6.139 6.502l-11.02 8.318-1.854-2.45c-1.872-2.501-3.81-2.595-5.505-1.309-1.714 1.281-2.152 3.158-.261 5.659z" id="path32"/>
    <path id="path33" d="M 215.82694 0.94787421 L 239.74744 0.947542 L 239.74704 -12.861848 L 226.23061 -12.862016 L 215.82694 0.94787421 z " transform="matrix(0.6017,0.7987,-0.7987,0.6017,80.308,-172.9603)"/>
    <path clip-path="url(#c)" d="m-9.595 283.569-31.505-41.817 12.408-9.348c8.934-6.735 15.864-7.21 23.195 2.51 7.285 9.66 6.26 15.269-3.856 22.888l-1.9 1.435 12.295 16.303zm-7.536-32.119c3.549-2.683 4.648-4.509 1.136-9.167-2.972-3.964-4.63-4.089-8.766-.969z" id="path34"/>
    <path clip-path="url(#c)" d="m19.673 261.492-31.504-41.799 23.894-18.006 6.493 8.612-12.865 9.702 5.356 7.107 10.639-8.025 6.763 8.966-10.638 8.035 6.129 8.137 13.526-10.2 6.753 8.979z" id="path35"/>
    <path clip-path="url(#d)" d="m50.274 220.728c1.891 2.501 3.819 2.608 5.515 1.318 1.714-1.285 2.152-3.167.261-5.668l-3.111-4.136-2.757 2.068-5.878-7.792 13.786-10.388 17.513 23.228-5.664 4.253-3.232-1.03c-.81 3.708-2.599 6.535-5.887 9.003-10.964 8.263-16.926 4.723-29.334-11.751-11.886-15.78-12.473-24.476-1.844-32.482 5.915-4.453 12.901-6.246 18.761-2.44 1.817 1.183 3.596 3.13 6.139 6.506l-11.03 8.31-1.854-2.445c-1.873-2.506-3.81-2.604-5.515-1.313-1.714 1.286-2.143 3.158-.251 5.664z" id="path36"/>
    <path clip-path="url(#d)" d="m82.021 214.523-31.495-41.802 11.011-8.305 31.514 41.798z" id="path37"/>
    <path clip-path="url(#d)" d="m113.321 190.946-31.514-41.807 12.417-9.348c8.924-6.735 15.855-7.215 23.195 2.506 7.275 9.665 6.26 15.272-3.856 22.893l-1.91 1.435 12.296 16.302zm-7.536-32.119c3.549-2.678 4.639-4.499 1.127-9.157-2.971-3.968-4.62-4.089-8.766-.969z" id="path38"/>
    <path clip-path="url(#d)" d="m142.581 168.878-31.496-41.798 23.894-18.011 6.493 8.612-12.865 9.702 5.356 7.108 10.629-8.021 6.763 8.966-10.628 8.021 6.129 8.146 13.526-10.196 6.754 8.975z" id="path39"/>
    <path clip-path="url(#d)" d="m173.181 128.114c1.891 2.497 3.819 2.604 5.524 1.313 1.714-1.286 2.162-3.167.261-5.664l-3.111-4.141-2.767 2.068-5.878-7.792 13.787-10.387 17.513 23.228-5.645 4.252-3.242-1.029c-.811 3.712-2.608 6.535-5.887 9.003-10.974 8.263-16.936 4.723-29.344-11.751-11.886-15.776-12.464-24.476-1.826-32.487 5.896-4.448 12.883-6.251 18.752-2.445 1.807 1.183 3.596 3.139 6.129 6.516l-11.029 8.309-1.835-2.44c-1.891-2.511-3.819-2.604-5.524-1.318-1.705 1.291-2.152 3.158-.261 5.668z" id="path40"/>
    <path clip-path="url(#d)" d="m204.928 121.905-31.505-41.812 11.03-8.304 31.505 41.807z" id="path41"/>
    <path clip-path="url(#d)" d="m236.218 98.324-31.495-41.808 12.408-9.348c8.933-6.726 15.864-7.215 23.195 2.515 7.284 9.665 6.26 15.263-3.866 22.888l-1.891 1.43 12.288 16.302zm-7.536-32.115c3.559-2.673 4.639-4.504 1.137-9.162-2.972-3.955-4.621-4.089-8.757-.969z" id="path42"/>
    <path clip-path="url(#e)" d="m265.497 76.265-31.505-41.798 23.894-18.021 6.492 8.626-12.864 9.698 5.347 7.098 10.639-8.012 6.762 8.967-10.647 8.011 6.157 8.146 13.517-10.186 6.753 8.975z" id="path43"/>
    <path clip-path="url(#e)" d="m296.097 35.492c1.892 2.506 3.811 2.604 5.506 1.323 1.724-1.286 2.151-3.163.261-5.673l-3.112-4.142-2.748 2.082-5.888-7.806 13.796-10.387 17.514 23.237-5.674 4.252-3.232-1.039c-.81 3.721-2.589 6.535-5.887 9.003-10.955 8.263-16.917 4.723-29.325-11.751-11.886-15.776-12.482-24.467-1.844-32.487 5.905-4.444 12.892-6.251 18.742-2.441 1.835 1.192 3.586 3.144 6.148 6.512l-11.029 8.318-1.845-2.45c-1.882-2.511-3.811-2.595-5.524-1.309-1.704 1.281-2.133 3.158-.242 5.659z" id="path44"/>
    <path clip-path="url(#e)" d="m327.834 29.283-31.503-41.807 11.029-8.31 31.514 41.808z" id="path45"/>
    <path clip-path="url(#e)" d="m359.144 5.701-31.514-41.807 12.417-9.348c8.924-6.726 15.854-7.21 23.195 2.52 7.266 9.66 6.251 15.259-3.866 22.883l-1.9 1.43 12.306 16.311zm-7.536-32.115c3.54-2.674 4.639-4.504 1.137-9.157-2.99-3.959-4.64-4.094-8.767-.973z" id="path46"/>
    <path clip-path="url(#e)" d="m.782 364.295-31.486-41.797 23.885-18.006 6.492 8.606-12.864 9.707 5.347 7.108 10.638-8.021 6.763 8.962-10.629 8.029 6.13 8.152 13.525-10.201 6.754 8.971z" id="path47"/>
    <path clip-path="url(#f)" d="m31.392 323.532c1.882 2.497 3.81 2.608 5.515 1.323 1.705-1.286 2.161-3.168.261-5.674l-3.111-4.136-2.767 2.068-5.878-7.797 13.796-10.387 17.504 23.223-5.654 4.267-3.232-1.024c-.811 3.707-2.608 6.521-5.888 8.998-10.964 8.254-16.926 4.714-29.334-11.756-11.896-15.78-12.473-24.462-1.844-32.491 5.906-4.444 12.902-6.241 18.761-2.441 1.816 1.192 3.596 3.14 6.129 6.521l-11.029 8.309-1.835-2.449c-1.891-2.497-3.819-2.6-5.524-1.313-1.714 1.285-2.143 3.167-.261 5.663z" id="path48"/>
    <path clip-path="url(#f)" d="m63.12 317.328-31.486-41.808 11.03-8.309 31.495 41.807z" id="path49"/>
    <path clip-path="url(#f)" d="m94.429 293.742-31.495-41.808 12.408-9.343c8.915-6.735 15.864-7.215 23.186 2.505 7.294 9.67 6.27 15.277-3.847 22.897l-1.9 1.435 12.287 16.302zm-7.527-32.12c3.549-2.673 4.639-4.489 1.127-9.147-2.972-3.968-4.63-4.099-8.766-.978z" id="path50"/>
    <path clip-path="url(#f)" d="m123.698 271.682-31.495-41.802 23.894-18.011 6.492 8.611-12.864 9.703 5.347 7.107 10.638-8.011 6.763 8.957-10.638 8.015 6.129 8.161 13.526-10.191 6.754 8.961z" id="path51"/>
    <path clip-path="url(#f)" d="m154.309 230.914c1.891 2.496 3.81 2.613 5.515 1.323 1.714-1.286 2.152-3.177.251-5.673l-3.102-4.141-2.767 2.068-5.878-7.792 13.787-10.387 17.513 23.228-5.654 4.252-3.242-1.02c-.811 3.712-2.599 6.525-5.887 9.003-10.955 8.258-16.917 4.718-29.325-11.76-11.896-15.776-12.482-24.467-1.844-32.487 5.916-4.448 12.893-6.242 18.752-2.445 1.826 1.192 3.596 3.139 6.139 6.516l-11.029 8.309-1.844-2.44c-1.891-2.501-3.801-2.604-5.515-1.318s-2.142 3.167-.261 5.664z" id="path52"/>
    <path clip-path="url(#f)" d="m186.037 224.705-31.486-41.798 11.011-8.309 31.513 41.798z" id="path53"/>
    <path clip-path="url(#f)" d="m217.345 201.119-31.514-41.798 12.427-9.348c8.915-6.726 15.854-7.215 23.186 2.515 7.275 9.665 6.26 15.272-3.857 22.897l-1.9 1.421 12.277 16.292zm-7.526-32.11c3.54-2.669 4.629-4.5 1.127-9.157-2.981-3.959-4.63-4.089-8.775-.969z" id="path54"/>
    <path clip-path="url(#f)" d="m246.605 179.069-31.495-41.798 23.884-18.021 6.493 8.626-12.864 9.698 5.356 7.098 10.629-8.002 6.763 8.957-10.629 8.011 6.12 8.156 13.535-10.196 6.754 8.976z" id="path55"/>
    <path clip-path="url(#f)" d="m277.206 138.296c1.892 2.506 3.829 2.613 5.524 1.323 1.714-1.286 2.151-3.167.252-5.673l-3.103-4.141-2.767 2.082-5.888-7.797 13.797-10.387 17.513 23.228-5.664 4.252-3.232-1.029c-.811 3.712-2.599 6.525-5.888 9.003-10.964 8.263-16.926 4.713-29.334-11.751-11.886-15.785-12.473-24.476-1.844-32.487 5.905-4.458 12.901-6.25 18.771-2.44 1.807 1.183 3.596 3.134 6.12 6.502l-11.029 8.318-1.836-2.45c-1.891-2.501-3.8-2.594-5.523-1.309-1.714 1.281-2.143 3.158-.252 5.659z" id="path56"/>
    <path clip-path="url(#f)" d="m308.953 132.087-31.495-41.812 11.01-8.304 31.514 41.807z" id="path57"/>
    <path clip-path="url(#f)" d="m340.252 108.505-31.514-41.808 12.417-9.348c8.934-6.726 15.873-7.21 23.205 2.52 7.284 9.66 6.241 15.268-3.866 22.893l-1.892 1.421 12.287 16.302zm-7.536-32.114c3.54-2.673 4.639-4.504 1.137-9.157-2.99-3.959-4.64-4.094-8.767-.973z" id="path58"/>
    <path clip-path="url(#f)" d="m369.512 86.447-31.495-41.799 23.902-18.02 6.494 8.626-12.865 9.702 5.347 7.094 10.639-8.002 6.762 8.956-10.638 8.012 6.12 8.155 13.536-10.195 6.753 8.975z" id="path59"/>
    <path clip-path="url(#g)" d="m400.131 45.673c1.872 2.506 3.811 2.613 5.506 1.327 1.704-1.29 2.161-3.167.27-5.678l-3.12-4.141-2.767 2.082-5.869-7.797 13.777-10.387 17.513 23.228-5.654 4.252-3.232-1.029c-.811 3.712-2.608 6.525-5.878 9.008-10.964 8.258-16.926 4.709-29.334-11.756-11.905-15.785-12.482-24.476-1.845-32.487 5.906-4.453 12.902-6.25 18.743-2.441 1.835 1.183 3.596 3.135 6.147 6.502l-11.029 8.318-1.844-2.45c-1.882-2.501-3.811-2.594-5.524-1.309-1.705 1.281-2.133 3.158-.261 5.659z" id="path60"/>
    <path clip-path="url(#g)" d="m431.85 39.464-31.485-41.797 11.019-8.319 31.505 41.812z" id="path61"/>
    <path clip-path="url(#g)" d="m463.159 15.887-31.504-41.812 12.408-9.348c8.924-6.712 15.873-7.21 23.195 2.52 7.284 9.66 6.269 15.272-3.856 22.893l-1.892 1.43 12.277 16.302zm-7.535-32.119c3.558-2.669 4.647-4.495 1.136-9.148-2.972-3.968-4.62-4.103-8.766-.973z" id="path62"/>
    <path clip-path="url(#g)" d="m-18.091 467.1-31.505-41.798 23.885-18.007 6.502 8.608-12.874 9.707 5.356 7.107 10.639-8.02 6.763 8.961-10.638 8.03 6.129 8.142 13.526-10.192 6.754 8.962z" id="path63"/>
    <path clip-path="url(#g)" d="m12.51 426.336c1.873 2.496 3.801 2.608 5.515 1.322 1.705-1.295 2.152-3.167.252-5.673l-3.111-4.146-2.767 2.077-5.869-7.797 13.778-10.387 17.513 23.224-5.645 4.257-3.242-1.015c-.811 3.697-2.608 6.521-5.888 8.998-10.955 8.254-16.917 4.714-29.334-11.756-11.896-15.78-12.473-24.48-1.835-32.492 5.906-4.443 12.902-6.25 18.752-2.44 1.826 1.183 3.596 3.14 6.129 6.512l-11.02 8.309-1.845-2.44c-1.891-2.506-3.81-2.599-5.524-1.313-1.705 1.286-2.133 3.167-.261 5.664z" id="path64"/>
    <path clip-path="url(#h)" d="m44.248 420.132-31.496-41.807 11.02-8.31 31.514 41.808z" id="path65"/>
    <path clip-path="url(#h)" d="m75.538 396.545-31.504-41.807 12.417-9.344c8.924-6.735 15.864-7.22 23.195 2.506 7.285 9.669 6.27 15.277-3.856 22.897l-1.9 1.425 12.287 16.302zm-7.518-32.119c3.54-2.674 4.63-4.49 1.118-9.147-2.972-3.969-4.621-4.099-8.766-.979z" id="path66"/>
    <path clip-path="url(#h)" d="m104.816 374.487-31.495-41.808 23.884-18.006 6.493 8.617-12.865 9.697 5.348 7.107 10.638-8.011 6.763 8.961-10.639 8.012 6.14 8.16 13.525-10.191 6.754 8.962z" id="path67"/>
    <path clip-path="url(#h)" d="m135.417 333.713c1.891 2.506 3.81 2.608 5.515 1.313 1.705-1.285 2.161-3.167.261-5.664l-3.111-4.136-2.767 2.068-5.878-7.788 13.805-10.396 17.503 23.232-5.654 4.248-3.242-1.016c-.82 3.698-2.608 6.53-5.887 8.989-10.964 8.272-16.926 4.732-29.334-11.747-11.896-15.771-12.474-24.471-1.845-32.491 5.925-4.443 12.911-6.251 18.752-2.441 1.826 1.184 3.605 3.14 6.139 6.512l-11.029 8.31-1.835-2.44c-1.891-2.497-3.81-2.608-5.524-1.313-1.714 1.285-2.143 3.167-.261 5.663z" id="path68"/>
    <path clip-path="url(#h)" d="m167.154 327.509-31.495-41.816 11.029-8.3 31.505 41.807z" id="path69"/>
    <path clip-path="url(#h)" d="m198.463 303.932-31.505-41.808 12.408-9.353c8.924-6.734 15.864-7.21 23.186 2.506 7.294 9.66 6.269 15.269-3.847 22.889l-1.9 1.434 12.287 16.303zm-7.536-32.119c3.549-2.683 4.639-4.509 1.127-9.166-2.981-3.969-4.621-4.08-8.756-.969z" id="path70"/>
    <path clip-path="url(#h)" d="m227.723 281.855-31.495-41.793 23.884-18.012 6.502 8.612-12.874 9.702 5.357 7.108 10.629-8.012 6.762 8.953-10.628 8.03 6.129 8.15 13.516-10.2 6.773 8.971z" id="path71"/>
    <path clip-path="url(#h)" d="m258.324 241.096c1.891 2.492 3.819 2.603 5.524 1.318 1.704-1.29 2.133-3.172.261-5.668l-3.111-4.141-2.767 2.068-5.869-7.792 13.769-10.387 17.521 23.228-5.654 4.257-3.251-1.025c-.811 3.708-2.59 6.521-5.887 8.999-10.955 8.253-16.917 4.714-29.325-11.756-11.886-15.776-12.473-24.476-1.845-32.487 5.925-4.448 12.902-6.251 18.762-2.445 1.816 1.183 3.596 3.139 6.129 6.516l-11.011 8.309-1.863-2.44c-1.872-2.501-3.8-2.604-5.505-1.318-1.724 1.286-2.152 3.167-.261 5.668z" id="path72"/>
    <path clip-path="url(#h)" d="m290.061 234.887-31.485-41.812 11.001-8.296 31.523 41.799z" id="path73"/>
    <path clip-path="url(#h)" d="m321.37 211.3-31.522-41.798 12.427-9.348c8.924-6.726 15.863-7.215 23.195 2.515 7.284 9.665 6.25 15.263-3.866 22.888l-1.891 1.439 12.286 16.283zm-7.537-32.105c3.531-2.673 4.63-4.504 1.128-9.162-2.981-3.954-4.63-4.089-8.766-.969z" id="path74"/>
    <path clip-path="url(#h)" d="m350.621 189.251-31.487-41.798 23.894-18.021 6.493 8.626-12.864 9.697 5.346 7.099 10.639-8.002 6.763 8.957-10.629 8.011 6.12 8.156 13.535-10.196 6.754 8.975z" id="path75"/>
    <path clip-path="url(#h)" d="m381.24 148.478c1.872 2.506 3.811 2.604 5.506 1.323 1.714-1.286 2.161-3.167.27-5.673l-3.12-4.141-2.767 2.082-5.869-7.806 13.777-10.387 17.513 23.237-5.645 4.252-3.232-1.029c-.811 3.712-2.618 6.525-5.888 8.994-10.964 8.263-16.926 4.723-29.334-11.751-11.905-15.775-12.474-24.467-1.845-32.487 5.906-4.448 12.893-6.25 18.752-2.44 1.826 1.192 3.587 3.144 6.139 6.511l-11.029 8.319-1.835-2.45c-1.891-2.501-3.828-2.594-5.523-1.309-1.705 1.281-2.143 3.158-.271 5.659z" id="path76"/>
    <path clip-path="url(#h)" d="m412.977 142.269-31.504-41.808 11.029-8.309 31.496 41.807z" id="path77"/>
    <path clip-path="url(#i)" d="m444.268 118.687-31.496-41.807 12.418-9.348c8.915-6.726 15.854-7.21 23.186 2.52 7.285 9.66 6.26 15.259-3.847 22.883l-1.91 1.43 12.287 16.311zm-7.518-32.115c3.539-2.673 4.639-4.504 1.117-9.157-2.962-3.959-4.62-4.094-8.766-.974z" id="path78"/>
    <path clip-path="url(#i)" d="m473.545 96.628-31.485-41.798 23.875-18.02 6.493 8.626-12.865 9.702 5.348 7.093 10.637-8.002 6.764 8.957-10.639 8.011 6.149 8.156 13.516-10.196 6.754 8.976z" id="path79"/>
    <path clip-path="url(#i)" d="m504.147 55.855c1.891 2.51 3.828 2.604 5.523 1.327 1.705-1.29 2.143-3.167.242-5.678l-3.092-4.141-2.768 2.082-5.887-7.801 13.796-10.392 17.513 23.237-5.673 4.257-3.232-1.03c-.811 3.708-2.59 6.521-5.888 9.003-10.954 8.249-16.916 4.714-29.324-11.761-11.887-15.78-12.482-24.471-1.845-32.492 5.906-4.443 12.901-6.246 18.761-2.441 1.817 1.192 3.596 3.149 6.13 6.516l-11.029 8.314-1.845-2.45c-1.882-2.497-3.801-2.594-5.523-1.304-1.705 1.276-2.134 3.158-.242 5.654z" id="path80"/>
    <path clip-path="url(#i)" d="m-11.048 490.973h52.343v13.81h-52.343z" transform="matrix(.6017 .7987 -.7987 .6017 403.6826 186.2169)" id="path81"/>
    <path clip-path="url(#i)" d="m56.655 499.35-31.495-41.808 12.408-9.353c8.924-6.726 15.864-7.21 23.195 2.516 7.285 9.659 6.26 15.276-3.857 22.896l-1.9 1.426 12.287 16.302zm-7.527-32.119c3.549-2.674 4.648-4.5 1.137-9.148-2.981-3.968-4.63-4.099-8.766-.978z" id="path82"/>
    <path clip-path="url(#j)" d="m85.934 477.292-31.505-41.799 23.884-18.016 6.503 8.617-12.865 9.706 5.357 7.099 10.638-8.012 6.762 8.952-10.638 8.021 6.121 8.16 13.526-10.2 6.753 8.971z" id="path83"/>
    <path clip-path="url(#j)" d="m116.535 436.518c1.882 2.506 3.81 2.617 5.515 1.332 1.714-1.295 2.152-3.167.261-5.683l-3.121-4.136-2.757 2.068-5.869-7.788 13.777-10.396 17.513 23.232-5.654 4.247-3.242-1.015c-.801 3.707-2.599 6.521-5.878 9.008-10.964 8.244-16.926 4.713-29.343-11.766-11.877-15.78-12.464-24.472-1.835-32.492 5.916-4.443 12.902-6.25 18.761-2.44 1.816 1.192 3.596 3.14 6.129 6.512l-11.02 8.31-1.854-2.441c-1.882-2.496-3.81-2.59-5.515-1.304-1.714 1.285-2.143 3.158-.261 5.654z" id="path84"/>
    <path clip-path="url(#j)" d="m148.272 430.304-31.504-41.788 11.029-8.328 31.504 41.816z" id="path85"/>
    <path clip-path="url(#j)" d="m179.572 406.737-31.505-41.808 12.408-9.353c8.934-6.726 15.864-7.21 23.205 2.506 7.275 9.66 6.25 15.268-3.856 22.888l-1.91 1.435 12.287 16.302zm-7.536-32.119c3.549-2.684 4.648-4.509 1.136-9.167-2.972-3.949-4.62-4.08-8.766-.969z" id="path86"/>
    <path clip-path="url(#j)" d="m208.84 384.66-31.495-41.789 23.885-18.016 6.493 8.626-12.855 9.697 5.346 7.098 10.639-8.011 6.753 8.952-10.628 8.03 6.129 8.151 13.526-10.2 6.744 8.97z" id="path87"/>
    <path clip-path="url(#j)" d="m239.432 343.895c1.891 2.516 3.829 2.618 5.524 1.323 1.704-1.286 2.151-3.167.27-5.673l-3.121-4.137-2.767 2.068-5.869-7.797 13.777-10.378 17.513 23.214-5.645 4.267-3.251-1.024c-.792 3.707-2.6 6.521-5.869 8.999-10.982 8.253-16.944 4.713-29.343-11.757-11.886-15.779-12.464-24.462-1.835-32.491 5.906-4.443 12.892-6.241 18.751-2.441 1.808 1.192 3.596 3.14 6.139 6.521l-11.029 8.309-1.854-2.449c-1.873-2.497-3.801-2.6-5.505-1.305-1.714 1.286-2.152 3.158-.261 5.654z" id="path88"/>
    <path clip-path="url(#j)" d="m271.169 337.691-31.485-41.807 11.029-8.301 31.495 41.799z" id="path89"/>
    <path clip-path="url(#j)" d="m302.479 314.105-31.496-41.789 12.399-9.362c8.924-6.716 15.873-7.219 23.195 2.516 7.294 9.66 6.269 15.268-3.848 22.897l-1.9 1.425 12.287 16.302zm-7.537-32.12c3.559-2.664 4.64-4.489 1.137-9.147-2.99-3.968-4.62-4.099-8.766-.978z" id="path90"/>
    <path clip-path="url(#j)" d="m331.738 292.046-31.495-41.789 23.894-18.016 6.502 8.626-12.874 9.688 5.357 7.099 10.637-8.002 6.763 8.952-10.638 8.011 6.12 8.16 13.536-10.191 6.753 8.971z" id="path91"/>
    <path clip-path="url(#j)" d="m362.358 251.282c1.891 2.516 3.801 2.608 5.505 1.323 1.724-1.286 2.161-3.168.261-5.683l-3.12-4.136-2.739 2.077-5.887-7.792 13.786-10.387 17.495 23.228-5.646 4.257-3.232-1.034c-.811 3.717-2.608 6.53-5.888 9.009-10.955 8.253-16.916 4.713-29.334-11.757-11.877-15.785-12.473-24.476-1.835-32.487 5.906-4.458 12.893-6.25 18.742-2.445 1.836 1.183 3.596 3.139 6.14 6.507l-11.021 8.318-1.845-2.44c-1.891-2.511-3.81-2.604-5.523-1.318-1.705 1.291-2.134 3.158-.242 5.668z" id="path92"/>
    <path clip-path="url(#j)" d="m357.682 213.114h52.342v13.802h-52.342z" transform="matrix(.6019 .7986 -.7986 .6019 328.5057 -218.9456)" id="path93"/>
    <path clip-path="url(#j)" d="m425.385 221.482-31.504-41.789 12.426-9.357c8.925-6.716 15.846-7.21 23.195 2.52 7.267 9.66 6.251 15.268-3.865 22.883l-1.91 1.43 12.287 16.292zm-7.517-32.106c3.54-2.673 4.63-4.504 1.108-9.157-2.962-3.959-4.61-4.094-8.747-.974z" id="path94"/>
    <path clip-path="url(#k)" d="m454.654 199.428-31.486-41.789 23.875-18.011 6.494 8.626-12.846 9.684 5.347 7.093 10.619-8.002 6.763 8.966-10.62 8.016 6.13 8.142 13.517-10.187 6.754 8.966z" id="path95"/>
    <path clip-path="url(#k)" d="m485.255 158.659c1.891 2.515 3.828 2.613 5.523 1.323 1.715-1.286 2.152-3.163.271-5.673l-3.12-4.141-2.767 2.082-5.869-7.797 13.777-10.386 17.513 23.228-5.663 4.252-3.232-1.029c-.792 3.712-2.6 6.525-5.869 9.003-10.982 8.263-16.944 4.713-29.353-11.751-11.887-15.785-12.474-24.476-1.845-32.487 5.925-4.453 12.921-6.25 18.771-2.44 1.808 1.183 3.596 3.134 6.12 6.502l-11.011 8.319-1.854-2.441c-1.872-2.51-3.801-2.604-5.506-1.318-1.714 1.29-2.161 3.158-.27 5.668z" id="path96"/>
    <path clip-path="url(#k)" d="m160.68 509.542-31.505-41.817 12.417-9.343c8.915-6.726 15.864-7.21 23.186 2.515 7.285 9.66 6.26 15.277-3.856 22.897l-1.9 1.425 12.296 16.302zm-7.536-32.121c3.549-2.673 4.648-4.509 1.136-9.166-2.981-3.95-4.629-4.09-8.766-.96z" id="path97"/>
    <path clip-path="url(#k)" d="m189.949 487.482-31.505-41.807 23.894-18.007 6.502 8.617-12.873 9.697 5.356 7.108 10.638-8.011 6.763 8.952-10.638 8.02 6.12 8.152 13.535-10.202 6.754 8.981z" id="path98"/>
    <path clip-path="url(#l)" d="m220.559 446.7c1.873 2.515 3.801 2.608 5.515 1.322 1.705-1.285 2.143-3.167.252-5.673l-3.111-4.127-2.767 2.068-5.869-7.788 13.777-10.396 17.513 23.232-5.645 4.248-3.251-1.016c-.811 3.698-2.599 6.512-5.888 8.989-10.955 8.263-16.917 4.732-29.334-11.746-11.877-15.79-12.464-24.472-1.826-32.492 5.906-4.453 12.902-6.251 18.752-2.44 1.826 1.183 3.596 3.139 6.129 6.511l-11.02 8.31-1.845-2.45c-1.891-2.496-3.819-2.599-5.524-1.304-1.705 1.285-2.133 3.158-.261 5.654z" id="path99"/>
    <path clip-path="url(#l)" d="m252.288 440.496-31.487-41.808 11.002-8.309 31.514 41.807z" id="path100"/>
    <path clip-path="url(#l)" d="m283.587 416.909-31.515-41.807 12.418-9.353c8.934-6.717 15.873-7.211 23.204 2.524 7.285 9.659 6.241 15.268-3.865 22.888l-1.91 1.435 12.306 16.302zm-7.536-32.119c3.539-2.664 4.639-4.499 1.136-9.147-2.98-3.969-4.63-4.099-8.766-.969z" id="path101"/>
    <path clip-path="url(#l)" d="m312.846 394.85-31.485-41.798 23.893-18.007 6.494 8.608-12.866 9.707 5.348 7.107 10.638-8.02 6.763 8.961-10.638 8.011 6.13 8.169 13.535-10.2 6.753 8.971z" id="path102"/>
    <path clip-path="url(#l)" d="m343.466 354.086c1.872 2.496 3.81 2.608 5.505 1.322 1.705-1.285 2.161-3.167.271-5.682l-3.121-4.127-2.767 2.068-5.868-7.798 13.777-10.377 17.513 23.224-5.645 4.257-3.242-1.024c-.811 3.707-2.608 6.521-5.878 8.998-10.964 8.254-16.926 4.714-29.334-11.756-11.905-15.78-12.482-24.48-1.845-32.492 5.906-4.452 12.902-6.241 18.742-2.44 1.836 1.183 3.596 3.14 6.148 6.521l-11.029 8.31-1.845-2.459c-1.882-2.497-3.81-2.59-5.515-1.305-1.714 1.286-2.143 3.158-.27 5.654z" id="path103"/>
    <path clip-path="url(#l)" d="m375.185 347.882-31.486-41.807 11.029-8.31 31.495 41.799z" id="path104"/>
    <path clip-path="url(#l)" d="m406.494 324.295-31.495-41.807 12.398-9.354c8.925-6.716 15.874-7.21 23.195 2.516 7.294 9.669 6.27 15.277-3.856 22.897l-1.891 1.435 12.287 16.302zm-7.518-32.119c3.54-2.674 4.64-4.509 1.118-9.166-2.972-3.95-4.62-4.08-8.757-.96z" id="path105"/>
    <path clip-path="url(#m)" d="m435.772 302.237-31.514-41.808 23.894-18.006 6.502 8.626-12.873 9.688 5.355 7.107 10.639-8.011 6.763 8.961-10.638 8.012 6.12 8.16 13.535-10.21 6.754 8.981z" id="path106"/>
    <path clip-path="url(#m)" d="m466.373 261.473c1.882 2.496 3.801 2.599 5.506 1.304 1.724-1.285 2.161-3.148.261-5.663l-3.121-4.137-2.748 2.077-5.878-7.797 13.787-10.382 17.513 23.219-5.663 4.267-3.232-1.034c-.811 3.717-2.6 6.53-5.888 8.989-10.955 8.272-16.917 4.732-29.334-11.747-11.887-15.789-12.474-24.476-1.835-32.478 5.905-4.458 12.893-6.25 18.761-2.44 1.816 1.169 3.596 3.125 6.12 6.502l-11.02 8.318-1.845-2.45c-1.891-2.51-3.819-2.604-5.524-1.318-1.704 1.291-2.133 3.158-.251 5.673z" id="path107"/>
    <path clip-path="url(#m)" d="m498.111 255.259-31.486-41.807 11-8.309 31.524 41.798z" id="path108"/>
    <path clip-path="url(#m)" d="m264.705 519.713-31.514-41.808 12.417-9.353c8.925-6.726 15.874-7.21 23.195 2.524 7.294 9.66 6.27 15.269-3.865 22.888l-1.882 1.426 12.287 16.311zm-7.537-32.119c3.54-2.664 4.64-4.5 1.137-9.148-2.99-3.968-4.639-4.099-8.766-.969z" id="path109"/>
    <path clip-path="url(#m)" d="m293.964 497.655-31.495-41.798 23.894-18.007 6.502 8.608-12.873 9.706 5.355 7.098 10.639-8.011 6.763 8.961-10.648 8.031 6.13 8.141 13.535-10.2 6.754 8.98z" id="path110"/>
    <path clip-path="url(#n)" d="m324.583 456.881c1.863 2.506 3.801 2.617 5.506 1.332 1.724-1.295 2.161-3.167.261-5.683l-3.121-4.126-2.748 2.067-5.878-7.797 13.769-10.377 17.513 23.214-5.645 4.266-3.232-1.033c-.811 3.707-2.618 6.521-5.888 9.008-10.955 8.244-16.917 4.713-29.334-11.756-11.887-15.79-12.474-24.481-1.835-32.492 5.905-4.453 12.893-6.241 18.742-2.45 1.826 1.192 3.596 3.148 6.139 6.53l-11.02 8.31-1.845-2.46c-1.892-2.496-3.829-2.589-5.524-1.304-1.704 1.285-2.133 3.158-.27 5.654z" id="path111"/>
    <path clip-path="url(#n)" d="m356.302 450.686-31.495-41.807 11.029-8.309 31.497 41.798z" id="path112"/>
    <path clip-path="url(#n)" d="m387.602 427.1-31.495-41.808 12.398-9.353c8.934-6.716 15.874-7.21 23.205 2.516 7.284 9.669 6.26 15.277-3.848 22.896l-1.909 1.416 12.287 16.312zm-7.518-32.119c3.54-2.674 4.64-4.509 1.118-9.167-2.962-3.949-4.611-4.08-8.757-.959z" id="path113"/>
    <path clip-path="url(#n)" d="m416.88 405.042-31.505-41.808 23.895-18.007 6.492 8.617-12.864 9.698 5.348 7.097 10.637-8.001 6.763 8.961-10.638 8.011 6.149 8.151 13.515-10.2 6.754 8.98z" id="path114"/>
    <path clip-path="url(#o)" d="m447.481 364.258c1.892 2.516 3.829 2.618 5.524 1.323 1.705-1.286 2.134-3.148.252-5.664l-3.103-4.136-2.767 2.077-5.888-7.797 13.797-10.396 17.513 23.232-5.664 4.266-3.232-1.043c-.819 3.708-2.599 6.521-5.887 8.999-10.965 8.271-16.927 4.713-29.335-11.747-11.886-15.789-12.473-24.472-1.844-32.482 5.905-4.462 12.901-6.26 18.761-2.45 1.816 1.184 3.587 3.14 6.13 6.512l-11.029 8.328-1.835-2.46c-1.892-2.506-3.829-2.599-5.524-1.313-1.714 1.295-2.143 3.158-.252 5.674z" id="path115"/>
    <path clip-path="url(#o)" d="m479.219 358.064-31.505-41.816 11.03-8.31 31.513 41.808z" id="path116"/>
    <path clip-path="url(#o)" d="m510.528 334.468-31.514-41.789 12.417-9.361c8.925-6.717 15.874-7.22 23.195 2.515 7.275 9.679 6.27 15.268-3.856 22.897l-1.891 1.425 12.286 16.302zm-7.536-32.11c3.54-2.674 4.639-4.499 1.137-9.157-2.99-3.959-4.64-4.099-8.766-.969z" id="path117"/>
    <path clip-path="url(#o)" d="m375.856 524.539-31.505-41.816 12.408-9.344c8.924-6.726 15.873-7.21 23.195 2.506 7.284 9.679 6.269 15.269-3.866 22.907l-1.882 1.415 12.278 16.321zm-7.536-32.12c3.559-2.683 4.63-4.49 1.136-9.147-2.99-3.969-4.639-4.099-8.766-.987z" id="path118"/>
    <path clip-path="url(#o)" d="m405.125 502.48-31.505-41.816 23.894-17.997 6.502 8.616-12.874 9.688 5.357 7.116 10.628-8.01 6.763 8.961-10.629 8.011 6.12 8.151 13.536-10.2 6.753 8.97z" id="path119"/>
    <path clip-path="url(#p)" d="m435.725 461.707c1.873 2.506 3.811 2.608 5.506 1.313 1.714-1.285 2.17-3.167.27-5.664l-3.12-4.145-2.767 2.077-5.869-7.788 13.797-10.396 17.513 23.214-5.664 4.267-3.232-1.025c-.811 3.708-2.617 6.54-5.888 8.999-10.964 8.271-16.926 4.732-29.334-11.756-11.904-15.78-12.473-24.462-1.835-32.482 5.896-4.444 12.893-6.251 18.743-2.441 1.825 1.184 3.596 3.13 6.139 6.512l-11.029 8.31-1.836-2.44c-1.891-2.506-3.819-2.608-5.523-1.323-1.705 1.285-2.134 3.167-.271 5.673z" id="path120"/>
    <path clip-path="url(#q)" d="m467.472 455.502-31.514-41.816 11.03-8.3 31.495 41.798z" id="path121"/>
    <path clip-path="url(#q)" d="m498.772 431.907-31.514-41.789 12.417-9.361c8.934-6.726 15.854-7.22 23.186 2.506 7.285 9.669 6.261 15.277-3.847 22.906l-1.91 1.425 12.306 16.303zm-7.536-32.119c3.54-2.674 4.639-4.49 1.118-9.147-2.963-3.969-4.611-4.1-8.748-.979z" id="path122"/>
  </g>
  <path clip-path="url(#r)" d="m-7.062 205.227c1.938 4.127 11.942 15.659 15.799 20.508 18.631 23.396 31.011 36.065 47.275 55.478 7.937 9.464 20.717 16.497 37.644 15.202 16.711-1.285 35.37-4.844 53.898-7.405 9.027-1.248 18.268-2.087 27.117-3.521 14.057-2.245 27.843-3.223 37.699-8.086 2.385-2.328 5.626-5.654 7.396-7.415 1.621 9.297 3.633 19.936 5.626 30.647 1.956 10.545 3.344 21.742 5.99 30.294 3.642 11.719 11.877 14.961 22.543 19.73 23.195 10.367 43.875 21.648 66.931 31.69 9.632 4.21 18.631 9.79 28.887 10.582 9.502.727 18.91-1.118 25.003-4.583 2.17-1.229 4.657-1.248 6.986-2.646 29.93-17.923 67.946-39.739 98.044-57.438 3.288-1.938 10.116-4.975 11.756-7.723 3.111-5.198 1.034-14.233 0-20.801-5.291-33.498-14.494-91.1-16.265-104.551-5.766-43.535-7.76-47.168-14.215-49.19-5.356-1.681-10.442-4.457-16.898-5.985-20.195-4.797-39.897-10.298-59.897-15.156-8.104-1.965-16.153-4.788-23.94-5.98-12.437-1.919-24.854 2.632-34.523 7.392-25.17 12.371-52.659 25.785-76.655 36.372 3.083-22.604 7.787-29.474 2.915-34.434-5.347-5.459-5.868-5.953-10.098-9.33-16.441-13.116-29.912-23.792-46.502-36.637-6.977-5.421-12.604-11.565-19.022-14.443-10.982-4.914-31.365-3.722-43.689-3.521-13.926.229-38.966.862-47.899 1.062-8.943.2-35.436 1.104-41.192 2.161-5.748 1.062-9.996 2.958-13.321 5.459-6.334 4.732-8.151 9.767-10.116 18.169-4.351 18.556-26.512 97.234-27.89 102.259-1.231 4.462-1.324 7.717.613 11.84" fill="#fff" id="path123"/>
  <path clip-path="url(#r)" d="m42.738 77.238c.605 2.175 5.766 6.954 8.291 9.576 7.62 7.927 16.069 16.381 23.251 23.964 5.505 5.817 10.507 11.276 15.491 16.195 8.486 8.379 17.755 20.121 33.47 21.504 9.343.801 20.475-1.136 30.657-2.119 24.378-2.366 46.829-4.523 72.204-6.698 8.346-.722 19.981-.391 19.021-10.224-.456-4.695-11.16-11.058-15.854-14.788-11.914-9.488-22.133-17.597-33.815-27.136-5.515-4.485-10.917-9.758-16.898-13.372-16.19-9.781-47.331-5.762-70.806-5.641-12.184.07-53.647 1.127-58.947 2.482-5.301 1.362-6.652 4.091-6.065 6.257m-19.217 19.185c-6.176 23.787-16.721 53.513-20.038 66.284-3.316 12.795-7.639 24.593-8.048 33.633-.513 11.295 8.16 17.117 9.008 18.449.196.326 8.813 11.132 13.274 16.409 12.287 14.495 26.567 30.163 39.078 45.72 2.133 2.627 8.775 7.378 12.511 7.825 11.318 1.295 11.029-10.079 13.787-19.692 6.502-22.655 13.144-45.832 19.367-68.668 2.487-9.092 6.27-18.021 7.042-27.485 1.099-13.363-4.35-19.171-10.908-25.706-17.606-17.55-34.197-34.588-52.147-53.2-4.788-4.97-13.153-14.728-18.081-7.495-2.274 3.325-3.765 9.749-4.845 13.926" id="path124"/>
  <path clip-path="url(#r)" d="m225.841 180.15c-6.456 4.849-6.856 8.481 3.633 12.916 15.436 6.516 75.688 29.888 86.801 32.194 11.635 2.403 23.428-1.56 32.762-6.693 30.703-16.866 61.649-35.361 92.642-52.846 7.442-4.187 15.193-7.489 10.936-17.965-14.196-5.71-30.274-8.649-46.157-13.018-11.505-3.176-23.94-6.115-35.585-8.826-6.502-1.495-11.97-3.442-19.711-2.804-14.886 1.211-27.005 9.255-38.407 14.444-25.198 11.439-49.931 23.19-56.237 26.05-8.87 4.023-22.535 10.446-30.677 16.548m-12.063 35.249c5.598 30.871 11.868 60.699 17.615 92.278 2.292 12.575 3.829 27.275 11.97 33.125 2.971 2.134 8.123 3.671 12.324 5.627 25.516 11.886 49.297 22.972 74.318 34.896 4.816 2.264 9.353 5.216 14.104 4.21 2.767-.596 8.058-5.039 8.803-8.803.866-4.425-1.322-11.374-2.105-16.917-3.838-26.931-7.908-55.547-12.333-83.121-1.714-10.693-3.261-23.698-7.406-31.355-5.039-9.306-12.948-12.007-22.896-15.859-24.695-9.521-49.642-19.167-74.318-28.878-3.978-1.556-8.095-3.004-11.234-4.252-8.03-3.176-9.595-1.057-10.498 3.177-.841 3.93.379 8.848 1.656 15.872" id="path125"/>
  <path clip-path="url(#r)" d="m216.6 180.876c-1.63-8.519-7.61-15.785-15.854-11.616-11.309 5.673-20.643 35.883-9.167 47.895 1.239 1.285 4.015 3.148 6.698 3.167 3.643.056 9.986-3.628 10.563-7.042.484-2.86-1.546-6.8-1.76-9.501-.829-10.462 4.881-16.577 9.52-22.903" id="path126"/>
  <path clip-path="url(#r)" d="m438.167 200.248c-2.842.638-5.748 3.279-7.052 5.636-8.18 14.76 2.133 44.393 15.5 46.153 9.67 1.267 13.042-10.536 13.042-19.376-.019-12.553-8.347-35.39-21.49-32.413" id="path127"/>
  <path clip-path="url(#r)" d="m134.513 219.279c-10.536 1.994-17.914 18.99-17.261 33.456.382 8.272 4.173 18.202 11.271 18.296 11.719.195 19.376-19.078 19.376-32.38 0-10.504-4.191-21.128-13.386-19.372" id="path128"/>
  <path clip-path="url(#r)" d="m417.02 248.86c-2.161-.819-5.021-.54-5.989-.354-2.823.596-5.133 2.683-6.344 4.564-8.496 13.349.019 41.472 12.333 46.502 5.711 2.348 10.191-1.034 12.334-4.22 8.821-13.097-.597-42.03-12.334-46.492" id="path129"/>
  <path clip-path="url(#r)" d="m392.363 301.697c-5.301-.987-8.925 2.571-10.563 5.281-8.627 14.225 1.201 49.083 19.021 46.856 12.576-6.977 10.442-29.558 3.167-41.928-2.348-3.987-7.481-9.446-11.625-10.209" id="path130"/>
  <path clip-path="url(#r)" d="m124.648 112.888c6.232 3.451 13.582 5.226 19.73 5.636 9.79.657 21.276-1.556 22.198-9.166.773-6.544-5.72-11.076-10.936-13.736-8.226-4.206-16.917-6.334-27.117-5.286-6.94.727-13.386 3.167-14.439 8.463-1.341 6.698 5.459 11.262 10.564 14.089" fill="#fff" id="path131"/>
  <path clip-path="url(#r)" d="m359.013 146.643c3.242-1.817 7.872-5.44 7.052-10.21-.95-5.542-8.831-6.218-16.916-5.291-4.527.531-7.993 1.267-11.626 3.163-2.599 1.383-8.458 5.421-7.731 10.238 1.443 9.873 23.875 5.085 29.221 2.1" fill="#fff" id="path132"/>
  <path clip-path="url(#r)" d="m77.457 194.295c8.337-.075 13.023-16.428 12.883-25.906-.112-9.026-2.562-21.625-10.88-18.831-8.58 2.869-12.669 21.519-9.958 34.835.996 4.961 3.781 9.94 7.955 9.902" fill="#fff" id="path133"/>
  <path clip-path="url(#r)" d="m37.764 152.157c8.328.144 13.415-16.092 13.517-25.585.103-9.022-2.049-21.681-10.424-19.087-8.645 2.664-13.19 21.197-10.806 34.597.885 4.98 3.558 10.019 7.713 10.075" fill="#fff" id="path134"/>
  <path clip-path="url(#r)" d="m57.633 250.034c8.337.037 13.2-16.274 13.172-25.748-.019-9.036-2.329-21.645-10.676-18.957-8.598 2.776-12.911 21.379-10.34 34.723.951 4.98 3.69 9.982 7.844 9.982" fill="#fff" id="path135"/>
  <path clip-path="url(#r)" d="m22.151 211.859c8.337.116 13.386-16.12 13.47-25.613.074-9.022-2.087-21.682-10.461-19.068-8.645 2.673-13.144 21.225-10.741 34.597.904 4.989 3.578 10.028 7.732 10.084" fill="#fff" id="path136"/>
  <path clip-path="url(#r)" d="m402.134 152.073c-8.337.82-22.087 5.524-20.773 13.391.829 5.035 8.365 6.935 15.491 6.334 7.108-.591 21.621-5.454 20.783-13.745-.642-6.362-9.176-6.59-15.501-5.98" fill="#fff" id="path137"/>
  <path clip-path="url(#r)" d="m336.415 161.174c-5.524.629-8.887 1.91-12.334 3.885-2.282 1.304-7.666 5.063-7.387 9.157.316 4.742 7.182 6.6 12.678 6.688 8.71.112 24.5-4.802 23.96-13.386-.457-6.926-9.707-7.173-16.917-6.344" fill="#fff" id="path138"/>
  <path clip-path="url(#r)" d="m277.849 168.785c-5.012.573-8.943 1.947-12.334 3.871-2.674 1.518-7.452 4.97-7.033 9.157.96 9.637 21.611 6.316 28.533 2.827 3.754-1.91 8.915-5.752 7.75-10.932-1.155-5.095-9.045-5.831-16.916-4.923" fill="#fff" id="path139"/>
  <path clip-path="url(#r)" d="m330.704 193.038c-7.237.703-21.825 4.854-20.772 13.391.484 4.066 5.318 5.888 9.846 6.334 8.096.801 17.392-2.338 21.845-5.636 2.143-1.583 5.161-4.867 4.583-8.463-.858-5.342-8.208-6.344-15.502-5.626" fill="#fff" id="path140"/>
  <path clip-path="url(#r)" d="m272.25 311.217c8.877 10.824 17.96 3.288 17.96-11.979 0-12.418-7.704-38.082-19.721-35.585-6.186 1.285-7.872 11.011-7.76 17.96.196 10.452 4.91 23.977 9.521 29.604" fill="#fff" id="path141"/>
  <path clip-path="url(#s)" d="m.055 484.492h484.492v-484.492h-484.492zm474.804-9.698h-465.116v-465.111h465.116z" id="path142"/>
  <path clip-path="url(#s)" d="m.055 406.969h484.492v77.522h-484.492z" id="path143"/>
  <path clip-path="url(#s)" d="m119.739 456.676c0 3.121 1.304 4.359 3.195 4.359 1.9 0 3.205-1.238 3.205-4.359v-5.17h-3.055v-9.744h15.277v29.027h-6.25l-1.751-2.776c-2.552 2.478-5.319 3.633-8.952 3.633-12.138 0-14.467-6.391-14.467-26.978 0-19.711 4.21-26.995 15.994-26.995 6.558 0 12.436 2.775 14.551 9.314.652 2.031.875 4.658.875 8.888h-12.222v-3.065c0-3.12-1.304-4.359-3.205-4.359-1.891 0-3.195 1.239-3.195 4.359z" fill="#fff" id="path144"/>
  <path clip-path="url(#s)" d="m173.898 470.79h-11.635l-1.025-6.559h-7.415l-1.024 6.559h-11.635l9.017-52.241h14.69zm-19.422-16.731h6.111l-3.056-21.463h-.149z" fill="#fff" id="path145"/>
  <path clip-path="url(#s)" d="m176.339 470.79v-52.242h14.402l5.095 24.891h.149l5.012-24.891h14.411v52.242h-10.48v-31.142h-.149l-5.524 31.142h-6.763l-5.524-31.142h-.149v31.142z" fill="#fff" id="path146"/>
  <path clip-path="url(#s)" d="m221.109 418.548h15.128c10.769 0 14.541 4.509 14.541 12.958 0 7.992-3.046 10.471-5.439 11.561v.14c2.673.232 6.902 4.592 6.902 12.809 0 10.116-4.797 14.774-14.262 14.774h-16.87zm11.774 21.109h1.537c2.981 0 4.583-1.546 4.583-5.831 0-4.006-1.09-5.813-4.005-5.813h-2.115zm0 21.379h2.627c3.13 0 4.21-1.761 4.21-6.12 0-4.648-.866-6.39-4.359-6.39h-2.478z" fill="#fff" id="path147"/>
  <path clip-path="url(#s)" d="m257.439 470.79v-52.242h12.222v41.026h15.714v11.216z" fill="#fff" id="path148"/>
  <path clip-path="url(#s)" d="m290.658 418.548h12.222v52.241h-12.222z" fill="#fff" id="path149"/>
  <path clip-path="url(#s)" d="m309.913 470.79v-52.242h11.718l7.909 23.14h.158v-23.14h10.47v52.242h-11.336l-8.3-27.072h-.15v27.072z" fill="#fff" id="path150"/>
  <path clip-path="url(#s)" d="m357.886 456.676c0 3.121 1.313 4.359 3.195 4.359 1.9 0 3.204-1.238 3.204-4.359v-5.17h-3.055v-9.744h15.276v29.027h-6.25l-1.752-2.776c-2.543 2.478-5.3 3.633-8.933 3.633-12.157 0-14.485-6.391-14.485-26.978 0-19.711 4.22-26.995 15.994-26.995 6.558 0 12.454 2.775 14.56 9.314.652 2.031.866 4.658.866 8.888h-12.222v-3.065c0-3.12-1.304-4.359-3.204-4.359-1.882 0-3.195 1.239-3.195 4.359v23.866z" fill="#fff" id="path151"/>
  <path clip-path="url(#s)" d="m433.937 19.385v3.596h-7.657v24.276h-4.499v-24.276h-7.677v-3.596zm31.234 27.872h-4.509v-21.947h-.13l-7.723 21.947h-3.671l-7.34-21.947h-.131v21.947h-4.509v-27.872h7.154l6.949 20.727h.131l6.763-20.727h7.015v27.872z" fill="#fff" id="path152"/>
</svg>