<?xml version="1.0" encoding="UTF-8" standalone="no"?>
<!-- Created with Inkscape (http://www.inkscape.org/) -->
<svg xmlns:dc="http://purl.org/dc/elements/1.1/" xmlns:cc="http://creativecommons.org/ns#" xmlns:rdf="http://www.w3.org/1999/02/22-rdf-syntax-ns#" xmlns:svg="http://www.w3.org/2000/svg" xmlns="http://www.w3.org/2000/svg" xmlns:sodipodi="http://sodipodi.sourceforge.net/DTD/sodipodi-0.dtd" xmlns:inkscape="http://www.inkscape.org/namespaces/inkscape" width="1000" height="951.58801" viewBox="0 0 282.22221 268.5593" version="1.1" id="svg4137" sodipodi:docname="International Alliance of Theatrical Stage Employees 2.svg" inkscape:version="0.92.2 (5c3e80d, 2017-08-06)">
  <defs id="defs4131"/>
  <sodipodi:namedview id="base" pagecolor="#ffffff" bordercolor="#666666" borderopacity="1.0" inkscape:pageopacity="0.0" inkscape:pageshadow="2" inkscape:zoom="0.37979368" inkscape:cx="417.52122" inkscape:cy="413.82803" inkscape:document-units="px" inkscape:current-layer="layer3" showgrid="false" inkscape:snap-global="false" inkscape:window-width="1024" inkscape:window-height="706" inkscape:window-x="-8" inkscape:window-y="-8" inkscape:window-maximized="1" units="px"/>
  <metadata id="metadata4134">
    <rdf:RDF>
      <cc:Work rdf:about="">
        <dc:format>image/svg+xml</dc:format>
        <dc:type rdf:resource="http://purl.org/dc/dcmitype/StillImage"/>
        <dc:title/>
      </cc:Work>
    </rdf:RDF>
  </metadata>
  <g inkscape:groupmode="layer" id="layer3" inkscape:label="Layer 2" style="opacity:1" transform="translate(-11.840869,36.070712)">
    <g transform="matrix(0.46737621,0,0,0.46737621,52.34356,-142.74221)" id="layer1-9" inkscape:label="Layer 1" style="stroke-width:0.85229009">
      <g transform="matrix(31.287888,0,0,31.287888,10636.072,-28376.815)" id="g5858" style="stroke-width:0.85229009">
        <g id="g4944" transform="matrix(1.25,0,0,-1.25,-329.45591,924.4578)" style="stroke-width:0.85229009">
          <g id="g4405" transform="translate(8.6657129,-0.36107138)" style="stroke-width:0.85229009">
            <g id="g5066" style="stroke-width:0.85229009">
              <g style="stroke-width:3.14527488" transform="matrix(0.27097477,0,0,0.27097477,-12.72828,1.5543952)" id="g4437"/>
              <g id="g4953" style="stroke-width:0.85229009">
                <g style="opacity:1;stroke-width:3.14527488" id="g4882" transform="matrix(0.27097477,0,0,0.27097477,-12.553718,2.9425165)">
                  <path d="m 0,0 c 0,0 -0.077,-0.843 -0.243,-1.802 0.088,-0.1 0.186,-0.197 0.289,-0.291 0.157,0.9 0.23,1.698 0.23,1.698 0,0 0.78,-0.145 1.684,-0.263 C 1.961,-0.66 1.961,-0.662 1.962,-0.665 1.92,-0.546 1.88,-0.419 1.842,-0.287 0.856,-0.158 0,0 0,0 M 9.233,-5.585 C 9.078,-5.564 8.931,-5.54 8.789,-5.511 9.11,-6.273 9.391,-6.9 9.391,-6.9 c 0,0 -0.674,-0.311 -1.54,-0.81 -0.007,0.007 -0.014,0.013 -0.021,0.019 0.095,-0.09 0.18,-0.188 0.253,-0.292 0.993,0.578 1.782,0.943 1.782,0.943 0,0 -0.293,0.652 -0.632,1.455 m -5.414,-4.919 c 0,0 -0.494,0.385 -1.549,1.224 -0.035,-0.12 -0.073,-0.234 -0.112,-0.335 1.142,-0.91 1.676,-1.326 1.676,-1.326 0,0 0.536,0.4 1.378,1.012 -0.029,0.128 -0.059,0.255 -0.089,0.382 -0.796,-0.578 -1.304,-0.957 -1.304,-0.957 m -5.573,4.06 c 0,0 0.378,0.589 0.768,1.325 -0.128,0.002 -0.255,0.005 -0.38,0.008 -0.422,-0.798 -0.831,-1.436 -0.831,-1.436 0,0 0.703,-0.293 2.037,-1.257 0.127,0.083 0.278,0.19 0.442,0.305 -0.055,-0.032 -0.109,-0.065 -0.163,-0.1 -1.226,0.885 -1.873,1.155 -1.873,1.155 M 8.03,-1.725 C 7.895,-0.802 7.847,0 7.847,0 c 0,0 -1.01,-0.171 -2.11,-0.302 -0.069,-0.12 -0.142,-0.248 -0.218,-0.379 1.038,0.122 2.008,0.286 2.008,0.286 0,0 0.042,-0.702 0.159,-1.525 -0.003,-0.003 -0.005,-0.005 -0.007,-0.007 0.097,0.088 0.211,0.162 0.351,0.202" style="fill:#000000;fill-opacity:1;fill-rule:nonzero;stroke:none;stroke-width:3.14527488" id="path4884" inkscape:connector-curvature="0"/>
                </g>
                <g style="opacity:1;stroke-width:3.14527488" id="g4886" transform="matrix(0.27097477,0,0,0.27097477,-11.520925,4.4370248)">
                  <path d="m 0,0 c -1.256,0 -5.336,0.673 -5.336,0.673 l 3.885,-8.489 c 0.377,0.177 0.592,0.181 0.987,0.181 l -3.033,6.873 c 0,0 1.748,-0.314 3.497,-0.314 1.749,0 3.632,0.314 3.632,0.314 l -3.079,-6.89 c 0.293,-0.06 0.586,-0.261 0.879,-0.256 L 5.426,0.673 C 5.426,0.673 1.255,0 0,0" style="fill:#000000;fill-opacity:1;fill-rule:nonzero;stroke:none;stroke-width:3.14527488" id="path4888" inkscape:connector-curvature="0"/>
                </g>
                <g style="opacity:1;stroke-width:3.14527488" id="g4890" transform="matrix(0.27097477,0,0,0.27097477,-12.016891,0.6891727)">
                  <path d="m 0,0 -2.015,-7.194 c 0,0 -1.151,1.354 -2.501,2.465 -1.35,1.112 -3.003,2.066 -3.003,2.066 l 6.103,3.038 c -0.072,0.284 -0.337,0.479 -0.53,0.762 l -7.87,-3.768 c 0,0 3.647,-2.131 4.616,-2.929 0.969,-0.798 3.692,-3.91 3.692,-3.91 l 2.445,9.209 C 0.625,-0.276 0.313,-0.051 0,0" style="fill:#000000;fill-opacity:1;fill-rule:nonzero;stroke:none;stroke-width:3.14527488" id="path4892" inkscape:connector-curvature="0"/>
                </g>
                <g style="opacity:1;stroke-width:3.14527488" id="g4894" transform="matrix(0.27097477,0,0,0.27097477,-10.519809,0.93131574)">
                  <path d="m 0,0 c -0.218,-0.289 -0.547,-0.467 -0.885,-0.637 l 6.211,-3.411 c 0,0 -1.58,-0.813 -2.969,-1.876 C 0.968,-6.986 -0.337,-8.38 -0.337,-8.38 l -1.767,7.457 C -2.442,-1.08 -2.653,-1.095 -2.991,-1.096 l 2.101,-9.513 c 0,0 2.904,3.068 3.901,3.83 0.997,0.763 4.647,2.708 4.647,2.708 z" style="fill:#000000;fill-opacity:1;fill-rule:nonzero;stroke:none;stroke-width:3.14527488" id="path4896" inkscape:connector-curvature="0"/>
                </g>
                <g style="opacity:1;stroke-width:3.14527488" id="g4898" transform="matrix(0.27097477,0,0,0.27097477,-14.463602,1.5436386)">
                  <path d="M 0,0 C 0,0 0.903,1.53 1.512,3.17 2.12,4.809 2.481,6.684 2.481,6.684 L 7.041,2.211 C 6.943,2.669 7.339,2.673 7.407,3.159 L 1.76,8.865 c 0,0 -0.82,-4.144 -1.257,-5.321 -0.437,-1.177 -2.488,-4.768 -2.488,-4.768 l 8.941,0.661 C 7.18,-0.23 7.279,0.103 7.303,0.44 Z" style="fill:#000000;fill-opacity:1;fill-rule:nonzero;stroke:none;stroke-width:3.14527488" id="path4900" inkscape:connector-curvature="0"/>
                </g>
                <g style="opacity:1;stroke-width:3.14527488" id="g4902" transform="matrix(0.27097477,0,0,0.27097477,-8.7178536,2.421081)">
                  <path d="m 0,0 c -0.403,1.189 -1.078,5.269 -1.078,5.269 l -5.984,-5.646 c 0.218,-0.308 0.512,-0.516 0.526,-0.863 l 4.69,4.307 c 0,0 0.265,-1.757 0.827,-3.413 0.562,-1.656 1.464,-3.338 1.464,-3.338 l -7.075,0.661 c 0.359,-0.225 -0.144,-0.696 0.164,-0.935 L 2.38,-4.922 c 0,0 -1.977,3.733 -2.38,4.922" style="fill:#000000;fill-opacity:1;fill-rule:nonzero;stroke:none;stroke-width:3.14527488" id="path4904" inkscape:connector-curvature="0"/>
                </g>
                <g style="opacity:1;stroke-width:3.14527488" id="g4906" transform="matrix(0.27097477,0,0,0.27097477,-11.154703,0.70190862)">
                  <path d="M 0,0 C 1.183,0.04 2.089,0.678 2.346,1.484 2.667,2.487 1.965,3.55 1.945,4.111 1.931,4.517 2.266,5.254 2.266,5.254 L 1.665,5.956 c 0,0 -0.903,-0.3 -1.705,-0.24 -0.802,0.06 -1.349,0.521 -1.349,0.521 0,0 -0.541,-0.461 -1.344,-0.521 -0.802,-0.06 -1.704,0.24 -1.704,0.24 L -5.039,5.254 c 0,0 0.335,-0.737 0.321,-1.143 C -4.738,3.55 -5.44,2.487 -5.119,1.484 -4.861,0.678 -3.956,0.04 -2.773,0 c 1.184,-0.04 1.384,-0.441 1.384,-0.441 0,0 0.206,0.401 1.389,0.441 m -1.396,-0.834 c 0,0 -0.225,0.449 -1.547,0.493 -1.323,0.045 -2.335,0.758 -2.623,1.66 -0.359,1.121 0.426,2.309 0.448,2.936 0.016,0.454 -0.359,1.279 -0.359,1.279 l 0.673,0.784 c 0,0 1.009,-0.336 1.905,-0.269 0.897,0.067 1.503,0.583 1.503,0.583 0,0 0.611,-0.516 1.507,-0.583 0.897,-0.067 1.906,0.269 1.906,0.269 L 2.69,5.534 c 0,0 -0.375,-0.825 -0.359,-1.279 C 2.353,3.628 3.138,2.44 2.779,1.319 2.491,0.417 1.479,-0.296 0.156,-0.341 -1.167,-0.385 -1.396,-0.834 -1.396,-0.834" style="fill:#000000;fill-opacity:1;fill-rule:nonzero;stroke:none;stroke-width:3.14527488" id="path4908" inkscape:connector-curvature="0"/>
                </g>
                <g style="opacity:1;stroke-width:3.14527488" id="g4910" transform="matrix(0.27097477,0,0,0.27097477,-11.224478,0.84788383)">
                  <path d="M 0,0 C 0.965,0.033 1.703,0.553 1.914,1.21 2.175,2.028 1.603,2.895 1.587,3.353 1.575,3.684 1.848,4.379 1.848,4.379 l -0.37,0.426 c 0,0 -0.734,-0.202 -1.511,-0.143 -0.654,0.049 -1.1,0.425 -1.1,0.425 0,0 -0.441,-0.376 -1.096,-0.425 -0.654,-0.049 -1.483,0.143 -1.483,0.143 L -4.11,4.392 c 0,0 0.274,-0.708 0.262,-1.039 C -3.864,2.895 -4.437,2.028 -4.175,1.21 -3.965,0.553 -3.226,0.033 -2.261,0 c 0.965,-0.033 1.128,-0.36 1.128,-0.36 0,0 0.168,0.327 1.133,0.36 m -1.132,-0.716 c 0,0 -0.184,0.37 -1.274,0.406 -1.089,0.038 -1.923,0.625 -2.16,1.367 -0.295,0.923 0.351,1.901 0.369,2.419 0.014,0.373 -0.295,1.052 -0.295,1.052 l 0.554,0.646 c 0,0 0.831,-0.277 1.569,-0.221 0.739,0.055 1.237,0.48 1.237,0.48 0,0 0.503,-0.425 1.242,-0.48 0.738,-0.056 1.569,0.221 1.569,0.221 L 2.233,4.528 c 0,0 -0.309,-0.679 -0.295,-1.052 C 1.956,2.958 2.602,1.98 2.307,1.057 2.069,0.315 1.236,-0.272 0.147,-0.31 -0.943,-0.346 -1.132,-0.716 -1.132,-0.716" style="fill:#000000;fill-opacity:1;fill-rule:nonzero;stroke:none;stroke-width:3.14527488" id="path4912" inkscape:connector-curvature="0"/>
                </g>
                <g style="opacity:1;stroke-width:3.14527488" id="g4914" transform="matrix(0.27097477,0,0,0.27097477,-12.684898,0.33750179)">
                  <path d="m 0,0 -2.082,-2.379 0.59,-0.517 2.082,2.379 z" style="fill:#000000;fill-opacity:1;fill-rule:nonzero;stroke:none;stroke-width:3.14527488" id="path4916" inkscape:connector-curvature="0"/>
                </g>
                <g style="opacity:1;stroke-width:3.14527488" id="g4918" transform="matrix(0.27097477,0,0,0.27097477,-11.612055,3.7800736)">
                  <path d="m 0,0 -0.874,0 0,0.74 2.511,0 0,-0.762 -0.897,0 0,-2.399 -0.74,0 z" style="fill:#000000;fill-opacity:1;fill-rule:nonzero;stroke:none;stroke-width:3.14527488" id="path4920" inkscape:connector-curvature="0"/>
                </g>
                <g style="opacity:1;stroke-width:3.14527488" id="g4922" transform="matrix(0.27097477,0,0,0.27097477,-9.3044336,2.0253212)">
                  <path d="m 0,0 0.566,-0.259 c 0,0 0.389,0.55 0.151,1.233 C 0.48,1.658 -0.135,1.817 -0.504,1.688 -0.874,1.56 -1.124,1.328 -1.09,0.573 -1.072,0.18 -1.106,-0.106 -1.228,-0.16 c -0.111,-0.05 -0.33,0.098 -0.389,0.343 -0.091,0.382 0.103,0.719 0.103,0.719 l -0.561,0.302 c 0,0 -0.475,-0.6 -0.25,-1.246 0.225,-0.647 0.829,-0.954 1.365,-0.768 0.535,0.186 0.548,0.625 0.517,1.132 -0.032,0.507 -0.021,0.655 0.145,0.713 C -0.132,1.093 0.025,0.94 0.096,0.737 0.166,0.534 0,0 0,0" style="fill:#000000;fill-opacity:1;fill-rule:nonzero;stroke:none;stroke-width:3.14527488" id="path4924" inkscape:connector-curvature="0"/>
                </g>
                <g style="opacity:1;stroke-width:3.14527488" id="g4926" transform="matrix(0.27097477,0,0,0.27097477,-10.277151,-0.72046621)">
                  <path d="M 0,0 1.885,1.447 -0.04,3.955 -1.925,2.508 -1.433,1.867 -0.259,2.768 -0.041,2.484 -0.824,1.883 -0.346,1.261 0.446,1.868 0.705,1.53 -0.478,0.622 Z" style="fill:#000000;fill-opacity:1;fill-rule:nonzero;stroke:none;stroke-width:3.14527488" id="path4928" inkscape:connector-curvature="0"/>
                </g>
                <g style="opacity:1;stroke-width:3.14527488" id="g4930" transform="matrix(0.27097477,0,0,0.27097477,-13.573992,2.2536987)">
                  <path d="m 0,0 0.746,-0.606 0.215,0.529 z M 1.324,-1.979 C 1.254,-1.975 -1.24,0.105 -1.24,0.105 L -0.969,0.77 2.33,0.492 2.06,-0.173 1.452,-0.119 1.127,-0.919 1.603,-1.294 Z" style="fill:#000000;fill-opacity:1;fill-rule:nonzero;stroke:none;stroke-width:3.14527488" id="path4932" inkscape:connector-curvature="0"/>
                </g>
                <g style="opacity:1;stroke-width:3.14527488" id="g4934" transform="matrix(0.27097477,0,0,0.27097477,-11.367393,1.6070466)">
                  <path d="m 0,0 -0.274,-0.848 0.519,0.002 z m -1.268,-1.819 c -0.019,0.063 0.944,2.926 0.944,2.926 l 0.654,0 0.866,-2.947 -0.655,0.001 -0.168,0.554 -0.79,0.003 -0.165,-0.538 z" style="fill:#000000;fill-opacity:1;fill-rule:nonzero;stroke:none;stroke-width:3.14527488" id="path4936" inkscape:connector-curvature="0"/>
                </g>
                <path transform="matrix(0.21677982,0,0,-0.21677982,58.691113,201.95819)" d="m -324.94554,922.8218 -0.9225,0 0,3.66375 0.9225,0 z" style="opacity:1;fill:#000000;fill-opacity:1;fill-rule:nonzero;stroke:none;stroke-width:3.14527488" id="path4938" inkscape:connector-curvature="0"/>
                <path transform="matrix(0.27097477,0,0,0.27097477,-12.72828,1.5543952)" d="m 0.09504923,0.00206894 c -0.35747345,-0.67413169 -0.70509914,-1.21382954 -0.70509914,-1.21382954 0,0 0.31709765,-0.1324713 0.92470406,-0.5181099 -0.16938137,0.5956301 -0.0196956,1.20696061 0.15264017,1.73684578 C 0.3441974,0.00305018 0.2201157,0.00206891 0.09504923,0.00206891 M 3.1951219,3.57585 C 3.0365731,3.6553329 2.9075676,3.8241111 2.7972728,4.0488216 1.9651377,4.1567612 1.2432973,4.2902138 1.2432973,4.2902138 c 0,0 -0.048254,-0.522035 -0.1496859,-1.1785039 C 1.1999672,3.0773657 2.1286103,2.7888725 2.9597608,2.8506924 3.2482999,2.87228 3.5053263,2.9409694 3.7219768,3.0233957 3.5516107,3.155867 3.3763207,3.3374017 3.1951219,3.57585 m 5.1168928,-5.8513061 c 0.714947,0.401339 1.2506647,0.6486188 1.2506647,0.6486188 0,0 -0.3298996,0.73300779 -0.6686624,1.54942346 C 8.7108488,-0.04306943 8.5444217,0.00697528 8.394736,0.0697765 8.5818432,-0.49249055 8.7561485,-1.1528845 8.5503305,-1.7907093 8.4961673,-1.9604687 8.4154161,-2.1223781 8.3120147,-2.2754561 m -3.8731214,-1.627925 c 0,0 -0.2048333,0.4072267 -1.3777007,0.4768968 -0.011817,-0.1148085 -0.025603,-0.2266732 -0.040375,-0.3316689 0.9916683,-0.7859964 1.4554976,-1.1471033 1.4554976,-1.1471033 0,0 0.4795856,0.3562006 1.2240756,0.8949171 -0.042345,0.1942913 -0.075828,0.3846574 -0.093554,0.5661922 C 4.6220615,-3.5471804 4.4388933,-3.9033811 4.4388933,-3.9033811 M 5.9022695,4.0154585 C 5.6974362,3.6190259 5.448288,3.2589002 5.1617185,3.0224144 5.3783691,2.9409691 5.6353954,2.8722803 5.9239345,2.8506924 6.8062932,2.7849474 7.7999316,3.1146537 7.7999316,3.1146537 L 8.0116583,2.8683552 C 7.9013634,3.6317824 7.8609876,4.2902138 7.8609876,4.2902138 c 0,0 -0.9650798,-0.1638719 -1.9587181,-0.2747553" style="opacity:1;fill:#000000;fill-opacity:1;fill-rule:nonzero;stroke:none;stroke-width:3.14527488" id="path4946" inkscape:connector-curvature="0"/>
                <g id="g4556" transform="matrix(0.40162995,0,0,0.40162995,-5.438048,-0.16002296)" style="stroke-width:2.12207794"/>
              </g>
              <g id="text4678" style="font-style:normal;font-variant:normal;font-weight:bold;font-stretch:normal;font-size:0.95457596px;line-height:1.25;font-family:'Futura Condensed';-inkscape-font-specification:'Futura Condensed, Bold';text-align:center;letter-spacing:0px;word-spacing:0px;writing-mode:lr-tb;text-anchor:middle;fill:#000000;fill-opacity:1;stroke:none;stroke-width:0.01405163" transform="matrix(1.5508665,0,0,-1.5508665,18.112208,-8.8151165)" aria-label="THIS PICTURE MADE UNDER THE JURISDICTION OF">
                <g id="g4794" style="stroke-width:0.01405163">
                  <path d="m -23.740324,-11.032303 -0.107975,0 0,0.587625 -0.143671,0 0,-0.587625 -0.112437,0 0,-0.136783 0.364083,0 z" style="stroke-width:0.01405163" id="path4682" inkscape:connector-curvature="0"/>
                  <path d="m -23.216173,-10.444678 -0.149442,0 0,-0.305062 -0.144829,0 0,0.305062 -0.151288,0 0,-0.724408 0.154054,0 0,0.281664 0.144831,0 0,-0.281664 0.146674,0 z" style="stroke-width:0.01405163" id="path4684" inkscape:connector-curvature="0"/>
                  <path d="m -22.946308,-10.444678 -0.157296,0 0,-0.724408 0.157296,0 z" style="stroke-width:0.01405163" id="path4686" inkscape:connector-curvature="0"/>
                  <path d="m -22.496695,-10.655252 q 0,0.09719 -0.05917,0.15838 -0.05824,0.06029 -0.148846,0.06029 -0.06287,0 -0.101686,-0.01889 -0.0037,-0.0018 -0.02959,-0.0207 l 0,-0.137682 q 0.0047,0.0072 0.03699,0.02249 0.0416,0.0198 0.07396,0.0198 0.03143,0 0.05731,-0.01889 0.02959,-0.0216 0.02959,-0.05579 0,-0.04319 -0.05917,-0.08729 -0.03236,-0.02249 -0.0638,-0.0459 -0.04992,-0.03959 -0.06749,-0.0657 -0.03421,-0.05129 -0.03421,-0.133183 0,-0.08099 0.04715,-0.139482 0.05085,-0.06299 0.127582,-0.06299 0.04993,0 0.103551,0.0162 0.01757,0.0054 0.04345,0.0162 l 0,0.143081 q -0.0028,-0.0072 -0.03699,-0.0243 -0.04253,-0.0216 -0.07951,-0.0216 -0.02773,0 -0.04345,0.01799 -0.01572,0.018 -0.01572,0.0441 -9.24e-4,0.0072 -9.24e-4,0.0099 0,0.04319 0.04623,0.08099 0.02959,0.0216 0.04067,0.0297 0.07212,0.05129 0.100775,0.09359 0.03329,0.0495 0.03329,0.119684 z" style="stroke-width:0.01405163" id="path4688" inkscape:connector-curvature="0"/>
                  <path d="m -21.841754,-10.968411 q 0,0.09359 -0.05354,0.15658 -0.058,0.06839 -0.149916,0.06839 -0.01963,0 -0.0464,-0.0045 l 0,0.303261 -0.145455,0 0,-0.724407 0.199889,0 q 0.0821,0 0.138316,0.05669 0.05712,0.05579 0.05712,0.143983 z m -0.142778,0.0126 q 0,-0.04409 -0.01784,-0.06839 -0.01695,-0.0243 -0.05086,-0.0243 l -0.03748,0 0,0.186276 q 0.0054,9e-4 0.01606,9e-4 0.03926,0 0.06425,-0.02249 0.02588,-0.0234 0.02588,-0.07199 z" style="stroke-width:0.01405163" id="path4690" inkscape:connector-curvature="0"/>
                  <path d="m -21.611165,-10.444678 -0.153657,0 0,-0.724408 0.153657,0 z" style="stroke-width:0.01405163" id="path4692" inkscape:connector-curvature="0"/>
                  <path d="m -21.112058,-11.032303 q -0.03197,-0.0081 -0.05521,-0.0081 -0.09009,0 -0.143364,0.06479 -0.05328,0.06389 -0.05328,0.162879 0,0.09359 0.04844,0.161079 0.05424,0.07559 0.141426,0.07559 0.02906,0 0.05909,-0.009 l 0,0.135882 q -0.01937,0.0045 -0.03874,0.0081 -0.0184,0.0036 -0.03681,0.0036 -0.150144,0 -0.247012,-0.116985 -0.09009,-0.108886 -0.09009,-0.260067 0,-0.145781 0.09009,-0.250168 0.09589,-0.111586 0.244107,-0.111586 0.02713,0 0.05037,0.0054 0.0049,9e-4 0.031,0.009 z" style="stroke-width:0.01405163" id="path4694" inkscape:connector-curvature="0"/>
                  <path d="m -20.696208,-11.032303 -0.107976,0 0,0.587625 -0.143669,0 0,-0.587625 -0.112437,0 0,-0.136783 0.364082,0 z" style="stroke-width:0.01405163" id="path4696" inkscape:connector-curvature="0"/>
                  <path d="m -20.183277,-10.635454 q 0,0.09359 -0.04561,0.142182 -0.05493,0.05849 -0.174092,0.05849 -0.107994,0 -0.163852,-0.0495 -0.05493,-0.05039 -0.05493,-0.136782 l 0,-0.54803 0.145232,0 0,0.529132 q 0,0.03149 0.02142,0.054 0.02234,0.0216 0.05399,0.0216 0.04003,0 0.05679,-0.0234 0.01303,-0.01889 0.01303,-0.05489 l 0,-0.526433 0.148025,0 z" style="stroke-width:0.01405163" id="path4698" inkscape:connector-curvature="0"/>
                  <path d="m -19.653082,-10.444678 -0.156149,0 -0.130902,-0.331158 0,0.331158 -0.151473,0 0,-0.724408 0.190744,0 q 0.09444,0 0.155213,0.05039 0.06639,0.05489 0.06639,0.14938 0,0.08189 -0.03834,0.135884 -0.02432,0.03419 -0.06639,0.05849 z m -0.170174,-0.511135 q 0,-0.0423 -0.02058,-0.06749 -0.02058,-0.0252 -0.0561,-0.0252 l -0.04114,0 0,0.186276 q 0.01309,0.0027 0.02618,0.0027 0.0402,0 0.06359,-0.0216 0.02805,-0.0252 0.02805,-0.07469 z" style="stroke-width:0.01405163" id="path4700" inkscape:connector-curvature="0"/>
                  <path d="m -19.289393,-11.032303 -0.158373,0 0,0.15568 0.137843,0 0,0.136782 -0.137843,0 0,0.15838 0.156418,0 0,0.136783 -0.310883,0 0,-0.724408 0.312838,0 z" style="stroke-width:0.01405163" id="path4702" inkscape:connector-curvature="0"/>
                  <path d="m -18.364557,-10.444678 -0.14907,0 -0.03497,-0.517434 -0.0865,0.517434 -0.113182,0 -0.09661,-0.499437 -0.02209,0.499437 -0.159193,0 0.06625,-0.724408 0.195079,0 0.06902,0.420247 0.05889,-0.420247 0.197839,0 z" style="stroke-width:0.01405163" id="path4704" inkscape:connector-curvature="0"/>
                  <path d="m -17.859797,-10.444678 -0.148131,0 -0.02856,-0.121486 -0.1401,0 -0.02588,0.121486 -0.141884,0 0.168655,-0.724408 0.149916,0 z m -0.195427,-0.23757 -0.05175,-0.296962 -0.04818,0.296962 z" style="stroke-width:0.01405163" id="path4706" inkscape:connector-curvature="0"/>
                  <path d="m -17.358519,-10.802833 q 0,0.177277 -0.0883,0.269965 -0.08442,0.08819 -0.234834,0.08819 l -0.140707,0 0,-0.724408 0.12518,0 q 0.161084,0 0.244538,0.08009 0.09413,0.09088 0.09413,0.286162 z m -0.155263,-0.018 q 0,-0.100789 -0.03882,-0.15658 -0.02814,-0.0405 -0.07375,-0.05489 -0.02135,-0.0036 -0.04172,-0.0072 l 0,0.46704 q 0.02426,-0.0063 0.04852,-0.0126 0.04367,-0.0171 0.06987,-0.06299 0.03591,-0.06209 0.03591,-0.172779 z" style="stroke-width:0.01405163" id="path4708" inkscape:connector-curvature="0"/>
                  <path d="m -16.960144,-11.032303 -0.171267,0 0,0.15568 0.149065,0 0,0.136782 -0.149065,0 0,0.15838 0.16915,0 0,0.136783 -0.336186,0 0,-0.724408 0.338303,0 z" style="stroke-width:0.01405163" id="path4710" inkscape:connector-curvature="0"/>
                  <path d="m -16.200297,-10.635454 q 0,0.09359 -0.04613,0.142182 -0.05555,0.05849 -0.176065,0.05849 -0.109216,0 -0.165706,-0.0495 -0.05555,-0.05039 -0.05555,-0.136782 l 0,-0.54803 0.146877,0 0,0.529132 q 0,0.03149 0.02165,0.054 0.0226,0.0216 0.0546,0.0216 0.04048,0 0.05744,-0.0234 0.01318,-0.01889 0.01318,-0.05489 l 0,-0.526433 0.149701,0 z" style="stroke-width:0.01405163" id="path4712" inkscape:connector-curvature="0"/>
                  <path d="m -15.621387,-11.169086 -9.63e-4,0.724408 -0.146457,0 -0.185963,-0.440045 0.01058,0.440045 -0.157057,0 0,-0.724408 0.149348,0 0.189817,0.433745 -0.01348,-0.433745 z" style="stroke-width:0.01405162" id="path4714" inkscape:connector-curvature="0"/>
                  <path d="m -15.063633,-10.802833 q 0,0.177277 -0.08605,0.269965 -0.08227,0.08819 -0.228846,0.08819 l -0.137118,0 0,-0.724408 0.121987,0 q 0.156978,0 0.238303,0.08009 0.09173,0.09088 0.09173,0.286162 z m -0.151302,-0.018 q 0,-0.100789 -0.03782,-0.15658 -0.02743,-0.0405 -0.07187,-0.05489 -0.0208,-0.0036 -0.04066,-0.0072 l 0,0.46704 q 0.02364,-0.0063 0.04728,-0.0126 0.04256,-0.0171 0.06808,-0.06299 0.03499,-0.06209 0.03499,-0.172779 z" style="stroke-width:0.01405163" id="path4716" inkscape:connector-curvature="0"/>
                  <path d="m -14.654188,-11.032303 -0.168001,0 0,0.15568 0.146225,0 0,0.136782 -0.146225,0 0,0.15838 0.165928,0 0,0.136783 -0.329781,0 0,-0.724408 0.331854,0 z" style="stroke-width:0.01405163" id="path4718" inkscape:connector-curvature="0"/>
                  <path d="m -14.148887,-10.444678 -0.149023,0 -0.124931,-0.331158 0,0.331158 -0.144562,0 0,-0.724408 0.182041,0 q 0.09012,0 0.148132,0.05039 0.06336,0.05489 0.06336,0.14938 0,0.08189 -0.03659,0.135884 -0.0232,0.03419 -0.06336,0.05849 z m -0.162409,-0.511135 q 0,-0.0423 -0.01964,-0.06749 -0.01963,-0.0252 -0.05354,-0.0252 l -0.03926,0 0,0.186276 q 0.01249,0.0027 0.02499,0.0027 0.03837,0 0.06067,-0.0216 0.02677,-0.0252 0.02677,-0.07469 z" style="stroke-width:0.01405163" id="path4720" inkscape:connector-curvature="0"/>
                  <path d="m -22.694531,-9.9650428 -0.113853,0 0,0.5811467 -0.151489,0 0,-0.5811467 -0.118557,0 0,-0.1352742 0.383899,0 z" style="stroke-width:0.01405162" id="path4722" inkscape:connector-curvature="0"/>
                  <path d="m -22.176033,-9.3838961 -0.149865,0 0,-0.3016979 -0.145238,0 0,0.3016979 -0.151714,0 0,-0.7164209 0.15449,0 0,0.2785585 0.145238,0 0,-0.2785585 0.147089,0 z" style="stroke-width:0.01405163" id="path4724" inkscape:connector-curvature="0"/>
                  <path d="m -21.751578,-9.9650428 -0.16831,0 0,0.1539639 0.146491,0 0,0.1352745 -0.146491,0 0,0.1566337 0.166231,0 0,0.1352746 -0.330385,0 0,-0.7164209 0.332464,0 z" style="stroke-width:0.01405163" id="path4726" inkscape:connector-curvature="0"/>
                  <path d="m -21.240847,-9.5903678 q 0,0.1005655 -0.03811,0.1566338 -0.04512,0.067637 -0.142403,0.067637 -0.04513,0 -0.08022,-0.00712 -0.0351,-0.00712 -0.05215,-0.024919 l 0.001,-0.1343845 q 0.0061,0.01335 0.03109,0.025809 0.02006,0.00979 0.04213,0.00979 0.008,0 0.01605,0 0.009,-0.00268 0.01205,-0.00355 0.03008,-0.00802 0.04112,-0.029368 0.008,-0.01602 0.008,-0.045389 0,-0.0178 0,-0.026699 l 0,-0.4983785 0.161458,0 z" style="stroke-width:0.01405163" id="path4728" inkscape:connector-curvature="0"/>
                  <path d="m -20.688465,-9.5725684 q 0,0.092557 -0.04883,0.1406144 -0.0588,0.057847 -0.186376,0.057847 -0.115611,0 -0.175409,-0.048948 -0.0588,-0.049838 -0.0588,-0.1352747 l 0,-0.5419873 0.155479,0 0,0.523298 q 0,0.031148 0.02292,0.053399 0.02392,0.021359 0.05781,0.021359 0.04284,0 0.0608,-0.023138 0.01396,-0.01869 0.01396,-0.054289 l 0,-0.520629 0.158468,0 z" style="stroke-width:0.01405163" id="path4730" inkscape:connector-curvature="0"/>
                  <path d="m -20.155399,-9.3838961 -0.156444,0 -0.13115,-0.3275068 0,0.3275068 -0.151762,0 0,-0.7164209 0.191106,0 q 0.09463,0 0.155507,0.04984 0.06652,0.054289 0.06652,0.1477348 0,0.080987 -0.03841,0.1343845 -0.02435,0.033819 -0.06652,0.057847 z m -0.170496,-0.5054997 q 0,-0.041829 -0.02062,-0.066748 -0.02062,-0.024918 -0.05621,-0.024918 l -0.04121,0 0,0.1842225 q 0.01312,0.00268 0.02623,0.00268 0.04027,0 0.06371,-0.021359 0.0281,-0.024919 0.0281,-0.073867 z" style="stroke-width:0.01405163" id="path4732" inkscape:connector-curvature="0"/>
                  <path d="m -19.941676,-9.3838961 -0.143764,0 0,-0.7164209 0.143764,0 z" style="stroke-width:0.01405163" id="path4734" inkscape:connector-curvature="0"/>
                  <path d="m -19.497227,-9.5921476 q 0,0.096116 -0.05827,0.1566336 -0.05736,0.059628 -0.146572,0.059628 -0.06191,0 -0.100146,-0.01869 -0.0037,-0.00178 -0.02913,-0.02047 l 0,-0.1361646 q 0.0046,0.00712 0.03641,0.022248 0.04096,0.01958 0.07283,0.01958 0.03095,0 0.05644,-0.01869 0.02912,-0.021359 0.02912,-0.055178 0,-0.042718 -0.05828,-0.086326 -0.03185,-0.022248 -0.06283,-0.045388 -0.04917,-0.039159 -0.06645,-0.064966 -0.03368,-0.050728 -0.03368,-0.1317147 0,-0.080098 0.04643,-0.1379447 0.05007,-0.0623 0.125634,-0.0623 0.04917,0 0.101972,0.01602 0.0173,0.0054 0.04279,0.01601 l 0,0.1415049 q -0.0028,-0.00712 -0.03642,-0.024029 -0.04188,-0.02136 -0.07829,-0.02136 -0.02731,0 -0.04279,0.0178 -0.01549,0.0178 -0.01549,0.043608 -9.1e-4,0.00712 -9.1e-4,0.00979 0,0.042718 0.04553,0.080097 0.02912,0.02136 0.04005,0.029369 0.07101,0.050728 0.09923,0.092557 0.03278,0.048949 0.03278,0.1183653 z" style="stroke-width:0.01405163" id="path4736" inkscape:connector-curvature="0"/>
                  <path d="m -18.963553,-9.7381019 q 0,0.175323 -0.08767,0.2669894 -0.08383,0.087216 -0.233173,0.087216 l -0.139713,0 0,-0.7164215 0.124297,0 q 0.159945,0 0.24281,0.0792 0.09346,0.089888 0.09346,0.2830103 z m -0.154163,-0.0178 q 0,-0.099676 -0.03854,-0.1548539 -0.02794,-0.040048 -0.07323,-0.054289 -0.0212,-0.00355 -0.04143,-0.00712 l 0,0.4618914 q 0.02408,-0.00622 0.04819,-0.01246 0.04334,-0.016909 0.06936,-0.062298 0.03565,-0.061407 0.03565,-0.1708732 z" style="stroke-width:0.01405163" id="path4738" inkscape:connector-curvature="0"/>
                  <path d="m -18.72183,-9.3838961 -0.151039,0 0,-0.7164209 0.151039,0 z" style="stroke-width:0.01405163" id="path4740" inkscape:connector-curvature="0"/>
                  <path d="m -18.222727,-9.9650428 q -0.03068,-0.00802 -0.053,-0.00802 -0.08647,0 -0.137614,0.064077 -0.05115,0.063187 -0.05115,0.1610836 0,0.092557 0.0465,0.1593036 0.05207,0.074758 0.135754,0.074758 0.02789,0 0.05673,-0.0089 l 0,0.1343846 q -0.0186,0.00444 -0.03719,0.00802 -0.01767,0.00355 -0.03533,0.00355 -0.144124,0 -0.237107,-0.1156952 -0.08647,-0.1076858 -0.08647,-0.2571998 0,-0.1441742 0.08647,-0.24741 0.09206,-0.110355 0.234317,-0.110355 0.02605,0 0.04836,0.0054 0.0047,8.89e-4 0.02975,0.0089 z" style="stroke-width:0.01405163" id="path4742" inkscape:connector-curvature="0"/>
                  <path d="m -17.79946,-9.9650428 -0.110616,0 0,0.5811467 -0.147182,0 0,-0.5811467 -0.115187,0 0,-0.1352742 0.372985,0 z" style="stroke-width:0.01405163" id="path4744" inkscape:connector-curvature="0"/>
                  <path d="m -17.574517,-9.3838961 -0.158314,0 0,-0.7164209 0.158314,0 z" style="stroke-width:0.01405163" id="path4746" inkscape:connector-curvature="0"/>
                  <path d="m -16.965815,-9.7487814 q 0,0.1504039 -0.05742,0.2518599 -0.06818,0.1210352 -0.195562,0.1210352 -0.130972,0 -0.198253,-0.1201452 -0.05652,-0.1005656 -0.05652,-0.25186 0,-0.1486239 0.05562,-0.2474101 0.06728,-0.1192554 0.196458,-0.1192554 0.131868,0 0.199149,0.1174756 0.05652,0.098785 0.05652,0.2483 z m -0.155192,0 q 0,-0.1290448 -0.02422,-0.1815528 -0.02333,-0.052507 -0.0637,-0.052507 -0.06011,0 -0.08881,0.081877 -0.02242,0.064077 -0.02242,0.1575238 0,0.095227 0.01794,0.1530738 0.02422,0.080097 0.08074,0.080097 0.05652,0 0.08164,-0.080987 0.01883,-0.060518 0.01883,-0.1575236 z" style="stroke-width:0.01405163" id="path4748" inkscape:connector-curvature="0"/>
                  <path d="m -16.430803,-10.100317 -8.88e-4,0.7164209 -0.134888,0 -0.171274,-0.4351925 0.0098,0.4351925 -0.144652,0 0,-0.7164209 0.137551,0 0.174824,0.4289625 -0.01243,-0.4289625 z" style="stroke-width:0.01405163" id="path4750" inkscape:connector-curvature="0"/>
                  <path d="m -15.632076,-9.7487814 q 0,0.1504039 -0.05681,0.2518599 -0.06744,0.1210352 -0.193458,0.1210352 -0.129564,0 -0.196121,-0.1201452 -0.05591,-0.1005656 -0.05591,-0.25186 0,-0.1486239 0.05502,-0.2474101 0.06656,-0.1192554 0.194347,-0.1192554 0.130451,0 0.197009,0.1174756 0.05591,0.098785 0.05591,0.2483 z m -0.153525,0 q 0,-0.1290448 -0.02396,-0.1815528 -0.02307,-0.052507 -0.063,-0.052507 -0.05945,0 -0.08786,0.081877 -0.02218,0.064077 -0.02218,0.1575238 0,0.095227 0.01775,0.1530738 0.02396,0.080097 0.07987,0.080097 0.05591,0 0.08075,-0.080987 0.01863,-0.060518 0.01863,-0.1575248 z" style="stroke-width:0.01405163" id="path4752" inkscape:connector-curvature="0"/>
                  <path d="m -15.216666,-9.9650428 -0.15845,0 0,0.1539639 0.138888,0 0,0.1352745 -0.138888,0 0,0.2919083 -0.155516,0 0,-0.7164209 0.313966,0 z" style="stroke-width:0.01405163" id="path4754" inkscape:connector-curvature="0"/>
                </g>
                <g id="text4798" style="font-style:normal;font-variant:normal;font-weight:bold;font-stretch:normal;font-size:0.97785532px;line-height:1.25;font-family:'Futura Condensed';-inkscape-font-specification:'Futura Condensed, Bold';text-align:center;letter-spacing:0px;word-spacing:0px;writing-mode:lr-tb;text-anchor:middle;fill:#000000;fill-opacity:1;stroke:none;stroke-width:0.00023166" transform="scale(0.96613932,1.0350474)" aria-label="AFFILIATED WITH">
                  <g id="g4843" style="stroke-width:0.00023166">
                    <path d="m -22.397367,-2.612618 -0.151704,0 -0.02924,-0.1233742 -0.143479,0 -0.0265,0.1233742 -0.145307,0 0.172724,-0.7356762 0.153532,0 z m -0.20014,-0.2412652 -0.053,-0.3015816 -0.04935,0.3015816 z" style="stroke-width:0.00023166" id="path4800" inkscape:connector-curvature="0"/>
                    <path d="m -22.026354,-3.2093839 -0.1585,0 0,0.1581019 0.138932,0 0,0.1389102 -0.138932,0 0,0.2997538 -0.155566,0 0,-0.7356762 0.314066,0 z" style="stroke-width:0.00023166" id="path4802" inkscape:connector-curvature="0"/>
                    <path d="m -21.625335,-3.2093839 -0.1566,0 0,0.1581019 0.137267,0 0,0.1389102 -0.137267,0 0,0.2997538 -0.1537,0 0,-0.7356762 0.3103,0 z" style="stroke-width:0.00023166" id="path4804" inkscape:connector-curvature="0"/>
                    <path d="m -21.381778,-2.612618 -0.159345,0 0,-0.7356762 0.159345,0 z" style="stroke-width:0.00023166" id="path4806" inkscape:connector-curvature="0"/>
                    <path d="m -20.946607,-2.612618 -0.313956,0 0,-0.7356762 0.155529,0 -9.66e-4,0.5967659 0.159393,0 z" style="stroke-width:0.00023166" id="path4808" inkscape:connector-curvature="0"/>
                    <path d="m -20.730157,-2.612618 -0.148049,0 0,-0.7356762 0.148049,0 z" style="stroke-width:0.00023166" id="path4810" inkscape:connector-curvature="0"/>
                    <path d="m -20.161002,-2.6130573 -0.155158,0 -0.02991,-0.1233742 -0.146746,0 -0.0271,0.1233742 -0.148615,0 0.176656,-0.7356762 0.157027,0 z m -0.204697,-0.2412652 -0.05421,-0.3015816 -0.05047,0.3015816 z" style="stroke-width:0.00023166" id="path4812" inkscape:connector-curvature="0"/>
                    <path d="m -19.816749,-3.2093839 -0.109463,0 0,0.5967659 -0.14565,0 0,-0.5967659 -0.113986,0 0,-0.1389103 0.369099,0 z" style="stroke-width:0.00023166" id="path4814" inkscape:connector-curvature="0"/>
                    <path d="m -19.434261,-3.2093839 -0.15758,0 0,0.1581019 0.137154,0 0,0.1389102 -0.137154,0 0,0.1608435 0.155636,0 0,0.1389103 -0.309324,0 0,-0.7356762 0.311268,0 z" style="stroke-width:0.00023166" id="path4816" inkscape:connector-curvature="0"/>
                    <path d="m -18.881535,-2.9763436 q 0,0.1800351 -0.08854,0.274165 -0.08465,0.089561 -0.235457,0.089561 l -0.14108,0 0,-0.7356762 0.125512,0 q 0.161513,0 0.245187,0.081336 0.09438,0.092302 0.09438,0.2906149 z m -0.155675,-0.018278 q 0,-0.1023549 -0.03891,-0.1590157 -0.02821,-0.041125 -0.07395,-0.055747 -0.02141,-0.00366 -0.04184,-0.00731 l 0,0.4743056 q 0.02433,-0.0064 0.04864,-0.012794 0.04379,-0.017364 0.07005,-0.063972 0.03599,-0.063058 0.03599,-0.1754657 z" style="stroke-width:0.00023166" id="path4818" inkscape:connector-curvature="0"/>
                    <path d="m -17.889981,-3.3482942 -0.155155,0.7356762 -0.128665,0 -0.09934,-0.5072053 -0.112582,0.5072053 -0.130557,0 -0.148532,-0.7356762 0.153262,0 q 0.0094,0.06123 0.01987,0.1224604 0.01797,0.109666 0.03784,0.243093 0.01987,0.133427 0.01987,0.1507908 0.0066,-0.043866 0.03027,-0.1690684 0.01892,-0.096872 0.04542,-0.2312126 0.0227,-0.1160632 0.02365,-0.1160632 l 0.122042,0 0.09271,0.5090331 q 0,-0.021019 0.01892,-0.1498769 0.0123,-0.083163 0.03595,-0.2357819 0.01892,-0.1233743 0.01987,-0.1233743 z" style="stroke-width:0.00023166" id="path4820" inkscape:connector-curvature="0"/>
                    <path d="m -17.690187,-2.612618 -0.151814,0 0,-0.7356762 0.151814,0 z" style="stroke-width:0.00023166" id="path4822" inkscape:connector-curvature="0"/>
                    <path d="m -17.229391,-3.2093839 -0.111138,0 0,0.5967659 -0.147878,0 0,-0.5967659 -0.115731,0 0,-0.1389103 0.374747,0 z" style="stroke-width:0.00023166" id="path4824" inkscape:connector-curvature="0"/>
                    <path d="m -16.708633,-2.612618 -0.151838,0 0,-0.3098065 -0.147152,0 0,0.3098065 -0.153712,0 0,-0.7356762 0.156524,0 0,0.2860456 0.147152,0 0,-0.2860456 0.149026,0 z" style="stroke-width:0.00023166" id="path4826" inkscape:connector-curvature="0"/>
                  </g>
                  <g id="text4847" style="font-style:normal;font-variant:normal;font-weight:bold;font-stretch:normal;font-size:0.94602692px;line-height:1.25;font-family:Futura-Bold;-inkscape-font-specification:'Futura-Bold Bold';text-align:center;letter-spacing:0px;word-spacing:0px;writing-mode:lr-tb;text-anchor:middle;fill:#000000;fill-opacity:1;stroke:none;stroke-width:0.00000382" transform="scale(1.0361188,0.96514032)" aria-label="A.F.L.-C.I.O.-C.L.C.">
                    <path id="path4849" style="stroke-width:0.00000382" d="m -22.96131,-1.8565876 -0.255427,0 -0.04919,0.1239296 -0.196774,0 0.274348,-0.7133043 0.20245,0 0.268671,0.7133043 -0.197719,0 -0.04636,-0.1239296 z m -0.05014,-0.141904 -0.07568,-0.2270465 -0.0019,0 -0.07663,0.2270465 0.154202,0 z" inkscape:connector-curvature="0"/>
                    <path id="path4851" style="stroke-width:0.00000382" d="m -22.55712,-1.9351078 q 0.04636,9.46e-4 0.07852,0.033111 0.03216,0.032165 0.03216,0.07852 0,0.045409 -0.03216,0.077574 -0.03217,0.032165 -0.07852,0.032165 -0.04635,0 -0.07852,-0.032165 -0.03217,-0.032165 -0.03217,-0.077574 0,-0.046355 0.03217,-0.07852 0.03216,-0.032165 0.07852,-0.032165 z" inkscape:connector-curvature="0"/>
                    <path inkscape:connector-curvature="0" id="path4853" style="stroke-width:0.00000382" d="m -21.924463,-2.2889219 -0.232647,0 0,0.1191994 0.21105,0 0,0.1570405 -0.21105,0 0,0.280024 -0.192401,0 0,-0.7133043 0.425048,0 z"/>
                    <path inkscape:connector-curvature="0" id="path4855" style="stroke-width:0.00000382" d="m -21.734852,-1.9351078 q 0.04636,9.46e-4 0.07852,0.033111 0.03216,0.032165 0.03216,0.07852 0,0.045409 -0.03216,0.077574 -0.03216,0.032165 -0.07852,0.032165 -0.04636,0 -0.07852,-0.032165 -0.03217,-0.032165 -0.03217,-0.077574 0,-0.046355 0.03217,-0.07852 0.03216,-0.032165 0.07852,-0.032165 z"/>
                    <path inkscape:connector-curvature="0" id="path4857" style="stroke-width:0.00000382" d="m -21.332243,-2.4459623 0,0.5562638 0.230723,0 0,0.1570405 -0.423156,0 0,-0.7133043 z"/>
                    <path inkscape:connector-curvature="0" id="path4859" style="stroke-width:0.00000382" d="m -20.960174,-1.9351078 q 0.04636,9.46e-4 0.07852,0.033111 0.03217,0.032165 0.03217,0.07852 0,0.045409 -0.03217,0.077574 -0.03216,0.032165 -0.07852,0.032165 -0.04635,0 -0.07852,-0.032165 -0.03216,-0.032165 -0.03216,-0.077574 0,-0.046355 0.03216,-0.07852 0.03217,-0.032165 0.07852,-0.032165 z"/>
                    <path inkscape:connector-curvature="0" id="path4861" style="stroke-width:0.00000382" d="m -20.744071,-2.1072847 0.270564,0 0,0.141904 -0.270564,0 z"/>
                    <path inkscape:connector-curvature="0" id="path4863" style="stroke-width:0.00000382" d="m -19.845099,-2.4289338 0,0.2223163 q -0.02838,-0.037841 -0.0719,-0.057708 -0.04352,-0.019867 -0.09082,-0.019867 -0.08514,0 -0.13812,0.057708 -0.05203,0.056762 -0.05203,0.140012 0,0.084196 0.05298,0.139066 0.05392,0.05487 0.140012,0.05487 0.04541,0 0.08798,-0.019867 0.04257,-0.020813 0.0719,-0.055816 l 0,0.2213703 q -0.02554,0.00851 -0.04825,0.01419 -0.0227,0.00662 -0.04446,0.011352 -0.01703,0.00378 -0.035,0.00568 -0.01703,0.00189 -0.03595,0.00189 -0.07474,0 -0.143796,-0.026489 -0.06811,-0.027435 -0.12393,-0.077574 -0.05865,-0.052978 -0.08703,-0.1210914 -0.02744,-0.06906 -0.02744,-0.1485262 0,-0.072844 0.02649,-0.140958 0.02743,-0.068114 0.07852,-0.1201455 0.05109,-0.052031 0.120145,-0.082304 0.06906,-0.031219 0.14285,-0.033111 0.0019,0 0.0038,0 0.0028,0 0.0047,0 0.04446,0 0.08609,0.00946 0.04257,0.00946 0.08325,0.026489 z"/>
                    <path inkscape:connector-curvature="0" id="path4865" style="stroke-width:0.00000382" d="m -19.650115,-1.9351078 q 0.04636,9.46e-4 0.07852,0.033111 0.03216,0.032165 0.03216,0.07852 0,0.045409 -0.03216,0.077574 -0.03217,0.032165 -0.07852,0.032165 -0.04635,0 -0.07852,-0.032165 -0.03216,-0.032165 -0.03216,-0.077574 0,-0.046355 0.03216,-0.07852 0.03217,-0.032165 0.07852,-0.032165 z"/>
                    <path inkscape:connector-curvature="0" id="path4867" style="stroke-width:0.00000382" d="m -19.236216,-2.4459623 0,0.7133043 -0.189055,0 0,-0.7133043 z"/>
                    <path inkscape:connector-curvature="0" id="path4869" style="stroke-width:0.00000382" d="m -19.027283,-1.9351078 q 0.04635,9.46e-4 0.07852,0.033111 0.03217,0.032165 0.03217,0.07852 0,0.045409 -0.03217,0.077574 -0.03216,0.032165 -0.07852,0.032165 -0.04636,0 -0.07852,-0.032165 -0.03216,-0.032165 -0.03216,-0.077574 0,-0.046355 0.03216,-0.07852 0.03217,-0.032165 0.07852,-0.032165 z"/>
                    <path inkscape:connector-curvature="0" id="path4871" style="stroke-width:0.00000382" d="m -18.443896,-2.469613 q 0.154202,9.46e-4 0.274348,0.104063 0.120145,0.1021709 0.120145,0.2639415 0,0.1731229 -0.111631,0.282862 -0.110685,0.1097391 -0.282862,0.1097391 -0.171231,0 -0.282862,-0.1097391 -0.111632,-0.1097391 -0.111632,-0.282862 0,-0.1617706 0.120146,-0.2639415 0.120145,-0.103117 0.274348,-0.103117 z m 0,0.1797451 q -0.08325,9.46e-4 -0.14285,0.058654 -0.05865,0.056762 -0.05865,0.1305517 0,0.091765 0.05865,0.1523103 0.0596,0.060546 0.14285,0.060546 0.08325,0 0.141904,-0.060546 0.0596,-0.060546 0.0596,-0.1523103 0,-0.07379 -0.0596,-0.1305517 -0.05865,-0.057708 -0.141904,-0.057708 z"/>
                    <path inkscape:connector-curvature="0" id="path4873" style="stroke-width:0.00000382" d="m -17.872312,-1.9351078 q 0.04636,9.46e-4 0.07852,0.033111 0.03216,0.032165 0.03216,0.07852 0,0.045409 -0.03216,0.077574 -0.03217,0.032165 -0.07852,0.032165 -0.04635,0 -0.07852,-0.032165 -0.03216,-0.032165 -0.03216,-0.077574 0,-0.046355 0.03216,-0.07852 0.03217,-0.032165 0.07852,-0.032165 z"/>
                    <path inkscape:connector-curvature="0" id="path4875" style="stroke-width:0.00000382" d="m -17.666369,-2.1072847 0.270564,0 0,0.141904 -0.270564,0 z"/>
                    <path inkscape:connector-curvature="0" id="path4877" style="stroke-width:0.00000382" d="m -16.789076,-2.4289338 0,0.2223163 q -0.02838,-0.037841 -0.0719,-0.057708 -0.04352,-0.019867 -0.09082,-0.019867 -0.08514,0 -0.13812,0.057708 -0.05203,0.056762 -0.05203,0.140012 0,0.084196 0.05298,0.139066 0.05392,0.05487 0.140012,0.05487 0.04541,0 0.08798,-0.019867 0.04257,-0.020813 0.0719,-0.055816 l 0,0.2213703 q -0.02554,0.00851 -0.04825,0.01419 -0.02271,0.00662 -0.04446,0.011352 -0.01703,0.00378 -0.035,0.00568 -0.01703,0.00189 -0.03595,0.00189 -0.07474,0 -0.143797,-0.026489 -0.06811,-0.027435 -0.123929,-0.077574 -0.05865,-0.052978 -0.08704,-0.1210914 -0.02743,-0.06906 -0.02743,-0.1485262 0,-0.072844 0.02649,-0.140958 0.02744,-0.068114 0.07852,-0.1201455 0.05109,-0.052031 0.120145,-0.082304 0.06906,-0.031219 0.14285,-0.033111 0.0019,0 0.0038,0 0.0028,0 0.0047,0 0.04446,0 0.08609,0.00946 0.04257,0.00946 0.08325,0.026489 z"/>
                    <path inkscape:connector-curvature="0" id="path4879" style="stroke-width:0.00000382" d="m -16.582581,-1.9351078 q 0.04636,9.46e-4 0.07852,0.033111 0.03216,0.032165 0.03216,0.07852 0,0.045409 -0.03216,0.077574 -0.03216,0.032165 -0.07852,0.032165 -0.04635,0 -0.07852,-0.032165 -0.03217,-0.032165 -0.03217,-0.077574 0,-0.046355 0.03217,-0.07852 0.03216,-0.032165 0.07852,-0.032165 z"/>
                    <path id="path4881" style="stroke-width:0.00000382" d="m -16.200898,-2.4459623 0,0.5562638 0.222317,0 0,0.1570405 -0.407738,0 0,-0.7133043 z" inkscape:connector-curvature="0"/>
                    <path id="path4883" style="stroke-width:0.00000382" d="m -15.816677,-1.9351078 q 0.04636,9.46e-4 0.07852,0.033111 0.03216,0.032165 0.03216,0.07852 0,0.045409 -0.03216,0.077574 -0.03217,0.032165 -0.07852,0.032165 -0.04636,0 -0.07852,-0.032165 -0.03216,-0.032165 -0.03216,-0.077574 0,-0.046355 0.03216,-0.07852 0.03217,-0.032165 0.07852,-0.032165 z" inkscape:connector-curvature="0"/>
                    <path id="path4885" style="stroke-width:0.00000382" d="m -15.083744,-2.4289338 0,0.2223163 q -0.02838,-0.037841 -0.0719,-0.057708 -0.04352,-0.019867 -0.09082,-0.019867 -0.08514,0 -0.13812,0.057708 -0.05203,0.056762 -0.05203,0.140012 0,0.084196 0.05298,0.139066 0.05392,0.05487 0.140012,0.05487 0.04541,0 0.08798,-0.019867 0.04257,-0.020813 0.0719,-0.055816 l 0,0.2213703 q -0.02554,0.00851 -0.04825,0.01419 -0.02271,0.00662 -0.04446,0.011352 -0.01703,0.00378 -0.035,0.00568 -0.01703,0.00189 -0.03595,0.00189 -0.07474,0 -0.143796,-0.026489 -0.06811,-0.027435 -0.12393,-0.077574 -0.05865,-0.052978 -0.08703,-0.1210914 -0.02743,-0.06906 -0.02743,-0.1485262 0,-0.072844 0.02649,-0.140958 0.02743,-0.068114 0.07852,-0.1201455 0.05109,-0.052031 0.120145,-0.082304 0.06906,-0.031219 0.14285,-0.033111 0.0019,0 0.0038,0 0.0028,0 0.0047,0 0.04446,0 0.08609,0.00946 0.04257,0.00946 0.08325,0.026489 z" inkscape:connector-curvature="0"/>
                    <path id="path4887" style="stroke-width:0.00000382" d="m -14.866955,-1.9351078 q 0.04636,9.46e-4 0.07852,0.033111 0.03216,0.032165 0.03216,0.07852 0,0.045409 -0.03216,0.077574 -0.03217,0.032165 -0.07852,0.032165 -0.04636,0 -0.07852,-0.032165 -0.03216,-0.032165 -0.03216,-0.077574 0,-0.046355 0.03216,-0.07852 0.03216,-0.032165 0.07852,-0.032165 z" inkscape:connector-curvature="0"/>
                  </g>
                </g>
              </g>
            </g>
          </g>
        </g>
      </g>
    </g>
  </g>
</svg>