<?xml version="1.0" encoding="UTF-8"?>
<svg version="1.1" viewBox="0 0 295.0867 61.23613" xmlns="http://www.w3.org/2000/svg">
 <defs>
  <clipPath id="a">
   <path d="M 0,45.927 H 221.315 V 0 H 0 Z"/>
  </clipPath>
 </defs>
 <g transform="matrix(1.333333 0 0 -1.333333 0 61.23613)">
  <g clip-path="url(#a)">
   <g transform="translate(59.7287,29.628)">
    <path d="m0 0h2.133v-11.425h-2.224l-1.66 4.068c-0.285 0.679-0.547 1.38-0.785 2.101-0.239 0.721-0.485 1.533-0.739 2.438h-0.03c0.04-0.478 0.081-0.995 0.121-1.554 0.041-0.559 0.077-1.127 0.107-1.706 0.031-0.579 0.056-1.143 0.076-1.691 0.021-0.548 0.031-1.051 0.031-1.508v-2.148h-2.133v11.425h2.209l1.66-4.159c0.275-0.66 0.531-1.351 0.77-2.071 0.238-0.721 0.489-1.544 0.754-2.468h0.03c-0.041 0.517-0.079 1.051-0.114 1.599-0.036 0.548-0.069 1.097-0.099 1.645-0.031 0.549-0.056 1.092-0.076 1.63-0.021 0.539-0.031 1.066-0.031 1.585z"/>
   </g>
   <g transform="translate(65.258,22.1329)">
    <path d="m0 0c0-0.233 0.013-0.495 0.038-0.784s0.087-0.562 0.183-0.815c0.096-0.255 0.249-0.464 0.457-0.632 0.208-0.167 0.495-0.251 0.861-0.251 0.375 0 0.667 0.086 0.876 0.258 0.208 0.173 0.362 0.394 0.464 0.663 0.101 0.269 0.16 0.558 0.175 0.869 0.015 0.309 0.023 0.601 0.023 0.876v2.923c0 0.224-5e-3 0.503-0.015 0.838s-0.063 0.66-0.16 0.976c-0.097 0.314-0.249 0.581-0.457 0.799s-0.51 0.328-0.906 0.328c-0.417 0-0.731-0.11-0.945-0.328-0.213-0.218-0.363-0.48-0.449-0.784-0.086-0.305-0.132-0.62-0.137-0.945-6e-3 -0.325-8e-3 -0.599-8e-3 -0.822zm-2.193 2.696c0.02 0.732 0.066 1.407 0.137 2.027 0.071 0.619 0.231 1.155 0.479 1.606 0.249 0.452 0.618 0.805 1.105 1.059s1.158 0.381 2.011 0.381 1.523-0.127 2.01-0.381c0.488-0.254 0.856-0.607 1.105-1.059 0.248-0.451 0.408-0.987 0.479-1.606 0.072-0.62 0.117-1.295 0.138-2.027v-1.63c0-0.761-0.031-1.464-0.092-2.109s-0.216-1.201-0.464-1.668c-0.249-0.468-0.623-0.833-1.12-1.097-0.498-0.264-1.183-0.396-2.056-0.396-0.874 0-1.56 0.132-2.057 0.396-0.498 0.264-0.871 0.629-1.119 1.097-0.249 0.467-0.404 1.023-0.465 1.668s-0.091 1.348-0.091 2.109z"/>
   </g>
   <g transform="translate(76.8498,22.1329)">
    <path d="m0 0c0-0.233 0.013-0.495 0.038-0.784s0.087-0.562 0.183-0.815c0.096-0.255 0.249-0.464 0.457-0.632 0.208-0.167 0.495-0.251 0.861-0.251 0.375 0 0.667 0.086 0.876 0.258 0.208 0.173 0.362 0.394 0.464 0.663 0.101 0.269 0.16 0.558 0.175 0.869 0.015 0.309 0.023 0.601 0.023 0.876v2.923c0 0.224-5e-3 0.503-0.015 0.838s-0.063 0.66-0.16 0.976c-0.097 0.314-0.249 0.581-0.457 0.799s-0.51 0.328-0.906 0.328c-0.417 0-0.731-0.11-0.945-0.328-0.213-0.218-0.363-0.48-0.449-0.784-0.086-0.305-0.132-0.62-0.137-0.945-6e-3 -0.325-8e-3 -0.599-8e-3 -0.822zm-2.193 2.696c0.02 0.732 0.066 1.407 0.137 2.027 0.071 0.619 0.231 1.155 0.479 1.606 0.249 0.452 0.618 0.805 1.105 1.059s1.158 0.381 2.011 0.381 1.523-0.127 2.01-0.381c0.488-0.254 0.856-0.607 1.105-1.059 0.248-0.451 0.408-0.987 0.479-1.606 0.072-0.62 0.117-1.295 0.138-2.027v-1.63c0-0.761-0.031-1.464-0.092-2.109s-0.216-1.201-0.464-1.668c-0.249-0.468-0.623-0.833-1.12-1.097-0.498-0.264-1.183-0.396-2.056-0.396-0.874 0-1.56 0.132-2.057 0.396-0.498 0.264-0.871 0.629-1.119 1.097-0.249 0.467-0.404 1.023-0.465 1.668s-0.091 1.348-0.091 2.109z"/>
   </g>
   <g transform="translate(88.4114,29.628)">
    <path d="m0 0h2.133v-11.425h-2.224l-1.66 4.068c-0.285 0.679-0.547 1.38-0.785 2.101-0.239 0.721-0.485 1.533-0.739 2.438h-0.03c0.04-0.478 0.081-0.995 0.121-1.554 0.041-0.559 0.077-1.127 0.107-1.706 0.031-0.579 0.056-1.143 0.076-1.691 0.021-0.548 0.031-1.051 0.031-1.508v-2.148h-2.133v11.425h2.209l1.66-4.159c0.275-0.66 0.531-1.351 0.77-2.071 0.238-0.721 0.489-1.544 0.754-2.468h0.03c-0.041 0.517-0.079 1.051-0.114 1.599-0.036 0.548-0.069 1.097-0.099 1.645-0.031 0.549-0.056 1.092-0.076 1.63-0.021 0.539-0.031 1.066-0.031 1.585z"/>
   </g>
   <g transform="translate(91.7932,18.2032)">
    <path d="m0 0v11.425h6.001v-1.676h-3.869v-2.879h3.565v-1.676h-3.565v-3.518h3.869v-1.676z"/>
   </g>
   <g transform="translate(106.8728,29.628)">
    <path d="m0 0h2.133v-7.967c0-0.63-0.059-1.179-0.175-1.645-0.117-0.467-0.312-0.856-0.587-1.165-0.274-0.31-0.642-0.541-1.104-0.694-0.462-0.152-1.044-0.228-1.745-0.228-0.7 0-1.284 0.076-1.751 0.228-0.467 0.153-0.84 0.384-1.12 0.694-0.279 0.309-0.477 0.698-0.594 1.165-0.117 0.466-0.175 1.015-0.175 1.645v7.967h2.133v-7.784c0-0.275 0.012-0.543 0.038-0.808 0.025-0.263 0.086-0.497 0.182-0.7 0.097-0.203 0.246-0.368 0.45-0.495 0.203-0.127 0.487-0.191 0.853-0.191 0.345 0 0.617 0.064 0.815 0.191s0.345 0.292 0.441 0.495c0.097 0.203 0.155 0.437 0.176 0.7 0.02 0.265 0.03 0.533 0.03 0.808z"/>
   </g>
   <g transform="translate(115.4031,29.628)">
    <path d="m0 0h2.133v-11.425h-2.224l-1.66 4.068c-0.285 0.679-0.547 1.38-0.785 2.101-0.239 0.721-0.485 1.533-0.739 2.438h-0.03c0.04-0.478 0.081-0.995 0.121-1.554 0.041-0.559 0.077-1.127 0.107-1.706 0.031-0.579 0.056-1.143 0.076-1.691 0.021-0.548 0.031-1.051 0.031-1.508v-2.148h-2.133v11.425h2.209l1.66-4.159c0.275-0.66 0.531-1.351 0.77-2.071 0.238-0.721 0.489-1.544 0.754-2.468h0.03c-0.041 0.517-0.079 1.051-0.114 1.599-0.036 0.548-0.069 1.097-0.099 1.645-0.031 0.549-0.056 1.092-0.076 1.63-0.021 0.539-0.031 1.066-0.031 1.585z"/>
   </g>
   <g transform="translate(121.9685,19.879)">
    <path d="m0 0c0.477 0 0.85 0.068 1.12 0.205 0.268 0.138 0.472 0.374 0.609 0.709s0.221 0.779 0.251 1.333c0.031 0.553 0.046 1.241 0.046 2.064 0 0.669-0.021 1.244-0.061 1.721-0.041 0.477-0.12 0.868-0.236 1.173-0.117 0.305-0.277 0.525-0.48 0.662-0.204 0.138-0.462 0.206-0.777 0.206h-1.401v-8.073zm-3.062-1.676v11.425h4.448c0.132 0 0.289-0.019 0.472-0.054 0.183-0.036 0.376-0.101 0.579-0.198s0.406-0.228 0.609-0.395c0.204-0.168 0.386-0.384 0.549-0.648 0.243-0.396 0.408-0.914 0.495-1.554 0.086-0.639 0.129-1.437 0.129-2.391 0-0.57-0.01-1.146-0.03-1.73-0.021-0.584-0.084-1.141-0.19-1.675-0.107-0.533-0.28-1.015-0.519-1.447-0.238-0.431-0.576-0.774-1.013-1.028-0.233-0.143-0.489-0.229-0.769-0.259-0.279-0.03-0.551-0.046-0.815-0.046z"/>
   </g>
   <g transform="translate(127.3303,18.2032)">
    <path d="m0 0v11.425h6.001v-1.676h-3.869v-2.879h3.565v-1.676h-3.565v-3.518h3.869v-1.676z"/>
   </g>
   <g transform="translate(136.3474,24.7989)">
    <path d="m0 0h1.676c0.345 0.021 0.639 0.157 0.883 0.411s0.366 0.665 0.366 1.235c0 0.314-0.033 0.571-0.099 0.768-0.066 0.198-0.158 0.351-0.274 0.457-0.117 0.107-0.257 0.181-0.419 0.221-0.163 0.041-0.345 0.061-0.549 0.061h-1.584zm0-1.676v-4.92h-2.132v11.425h4.045c0.458 0 0.885-0.044 1.282-0.13s0.74-0.236 1.031-0.449c0.289-0.213 0.518-0.495 0.686-0.846 0.168-0.35 0.252-0.789 0.252-1.317 0-0.315-0.026-0.625-0.077-0.93-0.051-0.303-0.14-0.584-0.268-0.837-0.128-0.254-0.307-0.47-0.537-0.647-0.23-0.178-0.524-0.292-0.882-0.343v-0.031c0.635-0.081 1.069-0.31 1.305-0.685 0.234-0.376 0.353-0.838 0.353-1.386v-0.412c0-0.193 2e-3 -0.414 7e-3 -0.663 5e-3 -0.248 0.015-0.509 0.031-0.784 0.015-0.274 0.038-0.53 0.068-0.769s0.074-0.45 0.129-0.632c0.056-0.183 0.13-0.3 0.222-0.351v-0.213h-2.36c-0.061 0.183-0.108 0.402-0.138 0.656-0.031 0.253-0.054 0.514-0.069 0.784-0.015 0.268-0.023 0.53-0.023 0.784v0.671c0 0.172-6e-3 0.357-0.015 0.555-0.011 0.199-0.038 0.386-0.084 0.564s-0.117 0.335-0.213 0.473c-0.097 0.136-0.237 0.23-0.419 0.281-0.295 0.081-0.594 0.127-0.899 0.138-0.305 9e-3 -0.609 0.014-0.914 0.014z"/>
   </g>
   <g transform="translate(148.0466,26.1241)">
    <path d="m0 0h-2.574v1.523c0.365 0 0.716 0.031 1.051 0.091 0.335 0.062 0.639 0.165 0.914 0.313 0.274 0.147 0.51 0.347 0.708 0.601s0.353 0.579 0.464 0.976h1.569v-11.425h-2.132z"/>
   </g>
   <g transform="translate(152.1438,29.4444)">
    <path d="m0 0h6.428v-1.538c-0.508-0.894-0.931-1.8-1.272-2.719-0.34-0.919-0.627-1.856-0.86-2.81-0.173-0.681-0.32-1.371-0.442-2.072s-0.198-1.401-0.229-2.102h-2.193c0.081 1.208 0.292 2.391 0.632 3.549s0.734 2.3 1.181 3.427c0.061 0.153 0.139 0.338 0.236 0.556 0.096 0.219 0.203 0.444 0.32 0.678 0.116 0.234 0.238 0.469 0.365 0.709 0.127 0.238 0.256 0.454 0.389 0.647h-4.555z"/>
   </g>
   <g transform="translate(164.8786,22.7725)">
    <path d="m0 0h1.828l-0.579 3.245c-0.051 0.264-0.091 0.527-0.122 0.792-0.03 0.264-0.061 0.528-0.091 0.792-0.011 0.132-0.021 0.262-0.031 0.389s-0.025 0.251-0.046 0.373h-0.03c-0.02-0.122-0.035-0.246-0.046-0.373-0.01-0.127-0.02-0.257-0.03-0.389-0.031-0.264-0.061-0.528-0.091-0.792-0.031-0.265-0.072-0.528-0.122-0.792zm-3.184-4.569 2.727 11.424h2.879l2.589-11.424h-2.284l-0.564 2.894h-2.498l-0.564-2.894z"/>
   </g>
   <g transform="translate(173.424,19.879)">
    <path d="m0 0c0.477 0 0.85 0.068 1.12 0.205 0.268 0.138 0.472 0.374 0.609 0.709s0.221 0.779 0.251 1.333c0.031 0.553 0.046 1.241 0.046 2.064 0 0.669-0.021 1.244-0.061 1.721-0.041 0.477-0.12 0.868-0.236 1.173-0.117 0.305-0.277 0.525-0.48 0.662-0.204 0.138-0.462 0.206-0.777 0.206h-1.401v-8.073zm-3.062-1.676v11.425h4.448c0.132 0 0.289-0.019 0.472-0.054 0.183-0.036 0.376-0.101 0.579-0.198s0.406-0.228 0.609-0.395c0.204-0.168 0.386-0.384 0.549-0.648 0.243-0.396 0.408-0.914 0.495-1.554 0.086-0.639 0.129-1.437 0.129-2.391 0-0.57-0.01-1.146-0.03-1.73-0.021-0.584-0.084-1.141-0.19-1.675-0.107-0.533-0.28-1.015-0.519-1.447-0.238-0.431-0.576-0.774-1.013-1.028-0.233-0.143-0.489-0.229-0.769-0.259-0.279-0.03-0.551-0.046-0.815-0.046z"/>
   </g>
   <g transform="translate(180.9641,18.2032)">
    <path d="m0 0h-2.133v11.425h3.397l1.143-5.302c0.091-0.436 0.167-0.873 0.228-1.31 0.061-0.436 0.116-0.878 0.168-1.325h0.03c0.051 0.569 0.099 1.056 0.145 1.462 0.045 0.406 0.109 0.798 0.19 1.173l1.143 5.302h3.381v-11.425h-2.132v3.595c0 1.137 0.012 2.272 0.038 3.404 0.025 1.133 0.073 2.268 0.145 3.405h-0.031l-2.285-10.404h-1.295l-2.239 10.419h-0.076c0.071-1.139 0.119-2.275 0.145-3.409 0.025-1.134 0.038-2.271 0.038-3.409z"/>
   </g>
   <path d="m189.951 29.628h2.132v-11.425h-2.132z"/>
   <g transform="translate(192.6316,29.628)">
    <path d="m0 0h7.114v-1.676h-2.483v-9.749h-2.132v9.749h-2.499z"/>
   </g>
   <g transform="translate(199.4865,29.628)">
    <path d="m0 0h7.114v-1.676h-2.483v-9.749h-2.132v9.749h-2.499z"/>
   </g>
   <g transform="translate(207.0573,18.2032)">
    <path d="m0 0v11.425h6.001v-1.676h-3.869v-2.879h3.565v-1.676h-3.565v-3.518h3.869v-1.676z"/>
   </g>
   <g transform="translate(217.0954,19.879)">
    <path d="m0 0c0.477 0 0.85 0.068 1.12 0.205 0.268 0.138 0.472 0.374 0.609 0.709s0.221 0.779 0.251 1.333c0.031 0.553 0.046 1.241 0.046 2.064 0 0.669-0.021 1.244-0.061 1.721-0.041 0.477-0.12 0.868-0.236 1.173-0.117 0.305-0.277 0.525-0.48 0.662-0.204 0.138-0.462 0.206-0.777 0.206h-1.401v-8.073zm-3.062-1.676v11.425h4.448c0.132 0 0.289-0.019 0.472-0.054 0.183-0.036 0.376-0.101 0.579-0.198s0.406-0.228 0.609-0.395c0.204-0.168 0.386-0.384 0.549-0.648 0.243-0.396 0.408-0.914 0.495-1.554 0.086-0.639 0.129-1.437 0.129-2.391 0-0.57-0.01-1.146-0.03-1.73-0.021-0.584-0.084-1.141-0.19-1.675-0.107-0.533-0.28-1.015-0.519-1.447-0.238-0.431-0.576-0.774-1.013-1.028-0.233-0.143-0.489-0.229-0.769-0.259-0.279-0.03-0.551-0.046-0.815-0.046z"/>
   </g>
   <g transform="translate(45.927,22.9639)">
    <path d="m0 0c0-12.683-10.281-22.964-22.963-22.964-12.683 0-22.964 10.281-22.964 22.964 0 12.682 10.281 22.963 22.964 22.963 12.682 0 22.963-10.281 22.963-22.963" fill="#fff"/>
   </g>
   <g transform="translate(23.5456,26.3565)">
    <path d="m0 0 2.546 2.546c0.787 0.808 1.181 1.388 1.181 1.739 0 0.694-0.293 1.134-0.878 1.319-0.584 0.187-0.947 0.399-1.086 0.637-0.14 0.238-0.21 0.441-0.21 0.606 0 0.611 0.429 0.942 1.289 0.994 1.935 0 4.388 0.01 7.359 0.031 1.263 0 1.925-0.155 1.987-0.466 0.062-0.31 0.094-0.492 0.094-0.544 0-0.424-0.43-0.822-1.289-1.195l-0.326-0.093c-0.88-0.393-2.282-1.558-4.208-3.494l-4.347-4.347 6.133-6.599c1.791-1.936 3.11-3.1 3.959-3.493l0.326-0.093c0.839-0.373 1.242-0.772 1.211-1.196-0.01-0.052-0.057-0.233-0.139-0.543-0.083-0.311-0.756-0.466-2.019-0.466-5.041 0.02-8.529 0.031-10.465 0.031-0.849 0.052-1.252 0.383-1.211 0.993 0.01 0.166 0.093 0.367 0.248 0.606 0.156 0.238 0.533 0.45 1.134 0.636 0.6 0.187 0.921 0.626 0.962 1.321 0.032 0.351-0.32 0.931-1.055 1.738l-2.966 3.184-3.183-3.184c-0.787-0.807-1.18-1.387-1.18-1.738 0-0.695 0.293-1.134 0.878-1.321 0.584-0.186 0.946-0.398 1.087-0.636 0.139-0.239 0.209-0.44 0.209-0.606 0-0.61-0.43-0.941-1.289-0.993-1.936 0-4.389-0.011-7.359-0.031-1.264 0-1.926 0.155-1.988 0.466-0.062 0.31-0.093 0.491-0.093 0.543 0 0.424 0.43 0.823 1.289 1.196l0.326 0.093c0.88 0.393 2.282 1.557 4.208 3.493l4.984 4.984-5.543 5.962c-1.791 1.936-3.111 3.101-3.96 3.494l-0.326 0.093c-0.828 0.373-1.227 0.771-1.195 1.195 0 0.052 0.041 0.234 0.124 0.544 0.083 0.311 0.755 0.466 2.018 0.466 5.041-0.021 8.53-0.031 10.465-0.031 0.86-0.052 1.268-0.383 1.227-0.994-0.011-0.165-0.096-0.368-0.256-0.606-0.161-0.238-0.539-0.45-1.134-0.637-0.595-0.185-0.918-0.625-0.97-1.319-0.021-0.351 0.331-0.931 1.056-1.739z"/>
   </g>
   <g transform="translate(22.9636,45.9268)">
    <path d="m0 0c-12.683 0-22.963-10.281-22.963-22.963 0-12.683 10.28-22.964 22.963-22.964 12.682 0 22.963 10.281 22.963 22.964 0 12.682-10.281 22.963-22.963 22.963m0-2c11.559 0 20.963-9.404 20.963-20.963s-9.404-20.964-20.963-20.964c-11.56 0-20.963 9.405-20.963 20.964s9.403 20.963 20.963 20.963"/>
   </g>
  </g>
 </g>
</svg>