<svg xmlns="http://www.w3.org/2000/svg" xmlns:xlink="http://www.w3.org/1999/xlink" width="256" height="256" viewBox="0 0 67.7333 67.7333" version="1.1">
	<defs>
		<g id="BAD_LANGUAGE">
			<path d="M 8.291 64.453 L 8.67 64.453 C 9.105 64.453 9.26 64.226 9.26 63.598 C 9.26 62.947 9.147 62.704 8.647 62.704 L 8.306 62.704 Z M 8.291 61.463 L 8.518 61.463 C 8.938 61.463 9.162 61.236 9.162 60.65 C 9.162 60.09 9.01 59.836 8.602 59.836 L 8.299 59.836 Z M 6.645 58.512 L 8.761 58.512 C 10.263 58.512 10.793 59.144 10.793 60.324 C 10.793 61.441 10.365 61.789 10.032 61.94 L 10.032 61.94 C 10.411 61.94 10.997 62.583 10.997 63.73 C 10.997 65.145 10.327 65.796 9.003 65.796 L 6.645 65.796 Z"/>
			<path d="M 13.131 63.476 L 13.987 63.476 L 13.559 60.476 L 13.559 60.476 Z M 15.849 65.815 L 14.221 65.815 L 14.07 64.899 L 13.033 64.899 L 12.882 65.815 L 11.254 65.815 L 12.515 58.512 L 14.569 58.512 Z"/>
			<path d="M 17.945 64.411 C 18.717 64.411 18.778 64.146 18.778 62.803 L 18.778 61.482 C 18.778 60.15 18.698 59.874 17.945 59.874 Z M 16.235 58.512 L 17.964 58.512 C 19.898 58.512 20.488 59 20.488 62.163 C 20.488 64.96 20.072 65.815 17.964 65.815 L 16.235 65.815 Z"/>
			<path d="M 23.572 65.815 L 23.572 58.512 L 25.283 58.512 L 25.283 64.248 L 27.478 64.248 L 27.478 65.815 Z"/>
			<path d="M 29.487 63.476 L 30.339 63.476 L 29.915 60.476 L 29.915 60.476 Z M 32.2 65.815 L 30.577 65.815 L 30.426 64.899 L 29.389 64.899 L 29.237 65.815 L 27.61 65.815 L 28.87 58.512 L 30.925 58.512 Z"/>
			<path d="M 32.594 65.815 L 32.594 58.512 L 34.233 58.512 L 35.341 61.747 L 35.341 61.747 L 35.341 58.512 L 36.806 58.512 L 36.806 65.815 L 35.22 65.815 L 34.059 62.031 L 34.059 62.031 L 34.059 65.815 Z"/>
			<path d="M 39.304 63.843 C 39.304 64.279 39.493 64.453 39.75 64.453 C 40.015 64.453 40.197 64.263 40.197 63.843 L 40.197 63.121 L 39.773 63.121 L 39.773 61.758 L 41.907 61.758 L 41.907 65.815 L 41.033 65.815 L 40.806 65.429 C 40.465 65.77 40.064 65.94 39.557 65.94 C 37.858 65.94 37.533 65.043 37.533 62.163 C 37.533 59.409 38.123 58.391 39.769 58.391 C 40.685 58.391 41.51 58.78 41.805 59.692 C 41.885 59.957 41.918 60.343 41.918 60.934 L 40.208 60.934 L 40.208 60.506 C 40.208 60.071 40.019 59.897 39.761 59.897 C 39.497 59.897 39.315 60.086 39.315 60.506 Z"/>
			<path d="M 46.986 58.512 L 46.986 64.025 C 46.986 65.244 46.233 65.936 44.87 65.936 C 43.508 65.936 42.755 65.244 42.755 64.025 L 42.755 58.512 L 44.462 58.512 L 44.462 63.821 C 44.462 64.199 44.575 64.392 44.87 64.392 C 45.173 64.392 45.275 64.203 45.275 63.821 L 45.275 58.512 Z"/>
			<path d="M 49.237 63.476 L 50.089 63.476 L 49.665 60.476 L 49.665 60.476 Z M 51.951 65.815 L 50.327 65.815 L 50.176 64.899 L 49.139 64.899 L 48.988 65.815 L 47.36 65.815 L 48.62 58.512 L 50.675 58.512 Z"/>
			<path d="M 53.971 63.843 C 53.971 64.279 54.161 64.453 54.418 64.453 C 54.683 64.453 54.865 64.263 54.865 63.843 L 54.865 63.121 L 54.441 63.121 L 54.441 61.758 L 56.575 61.758 L 56.575 65.815 L 55.701 65.815 L 55.436 65.429 C 55.095 65.77 54.694 65.94 54.187 65.94 C 52.488 65.94 52.163 65.043 52.163 62.163 C 52.163 59.409 52.753 58.391 54.399 58.391 C 55.315 58.391 56.14 58.78 56.435 59.692 C 56.515 59.957 56.549 60.343 56.549 60.934 L 54.838 60.934 L 54.838 60.506 C 54.838 60.071 54.649 59.897 54.391 59.897 C 54.127 59.897 53.945 60.086 53.945 60.506 Z"/>
			<path d="M 57.426 65.815 L 57.426 58.512 L 61.127 58.512 L 61.127 60.018 L 59.133 60.018 L 59.133 61.259 L 60.783 61.259 L 60.783 62.826 L 59.133 62.826 L 59.133 64.248 L 61.23 64.248 L 61.23 65.815 Z"/>
		</g>
	</defs>
	<path d="M 67.731 67.733 L 0 67.733 L 0 0.004 L 67.731 0.004 Z" fill="#000000" id="background"/>
	<path id="background_letters" fill="#515054" d="M 6.238 0.004 L 3.62 1.975 L 8.024 7.818 L 11.458 5.233 L 10.515 3.977 L 8.622 5.404 L 7.764 4.265 L 9.25 3.144 L 8.305 1.892 L 6.817 3.012 L 6.072 2.021 L 7.869 0.662 L 7.373 0.004 Z M 8.483 0.004 C 8.678 0.575 9.057 1.222 9.641 1.998 C 11.374 4.299 12.205 4.794 13.742 3.64 C 14.185 3.3 14.45 2.902 14.563 2.384 L 15.017 2.535 L 15.809 1.941 L 14.348 0.004 L 11.624 0.004 L 11.434 0.155 L 12.252 1.245 L 12.637 0.942 L 13.073 1.521 C 13.376 1.862 13.3 2.127 13.073 2.316 C 12.835 2.505 12.565 2.467 12.301 2.127 L 10.668 0.011 Z M 15.801 0.004 L 16.74 1.249 L 18.281 0.087 L 18.221 0.007 Z M 23.003 0.004 C 22.666 0.874 23.043 1.915 24.183 3.425 C 25.916 5.725 26.749 6.225 28.282 5.067 C 28.728 4.726 28.993 4.329 29.107 3.81 L 29.557 3.962 L 30.349 3.368 L 27.904 0.121 L 25.978 1.57 L 26.795 2.66 L 27.181 2.357 L 27.615 2.936 C 27.917 3.277 27.842 3.542 27.615 3.731 C 27.376 3.92 27.109 3.882 26.844 3.542 L 24.818 0.87 C 24.515 0.53 24.591 0.272 24.818 0.083 C 24.868 0.043 24.918 0.013 24.965 0.013 Z M 25.248 0.004 C 25.362 0.044 25.476 0.117 25.591 0.269 L 25.857 0.609 L 26.662 0 Z M 29.273 0.004 L 31.283 2.671 L 32.822 1.51 L 31.688 0.004 Z M 38.963 0.004 C 38.793 0.074 38.623 0.193 38.462 0.307 C 36.983 1.427 37.065 2.641 38.726 4.847 C 40.46 7.148 41.293 7.644 42.825 6.49 C 43.272 6.149 43.537 5.752 43.65 5.229 L 44.1 5.381 L 44.894 4.787 L 42.446 1.536 L 40.516 2.989 L 41.337 4.079 L 41.724 3.776 L 42.158 4.355 C 42.461 4.696 42.385 4.961 42.158 5.15 C 41.916 5.339 41.651 5.301 41.386 4.961 L 39.362 2.297 C 39.059 1.956 39.135 1.699 39.362 1.51 C 39.6 1.321 39.869 1.358 40.134 1.699 L 40.398 2.04 L 41.939 0.878 C 41.602 0.428 41.371 0.159 41.122 2.84217e-14 Z M 42.739 0.004 L 45.825 4.098 L 47.366 2.936 L 45.158 0.004 Z M 49.601 0.004 L 50.2 0.798 L 51.234 0.004 Z M 56.209 0.004 L 60.365 5.521 L 61.91 4.359 L 58.626 0.004 Z M 63.073 0.004 L 64.743 2.221 L 66.234 1.075 L 65.426 0.004 Z M 21.5 0.878 L 18.163 3.398 L 22.564 9.241 L 25.996 6.656 L 25.053 5.4 L 23.162 6.826 L 22.303 5.687 L 23.79 4.567 L 22.843 3.315 L 21.357 4.431 L 20.612 3.44 L 22.409 2.085 Z M 54.656 1.105 C 54.098 1.105 53.524 1.332 53.008 1.737 C 51.528 2.857 51.609 4.072 53.274 6.278 C 55.007 8.578 55.838 9.078 57.371 7.92 C 57.817 7.579 58.083 7.182 58.196 6.664 L 58.646 6.815 L 59.438 6.221 L 56.99 2.974 L 55.063 4.423 L 55.885 5.513 L 56.27 5.211 L 56.706 5.79 C 57.009 6.13 56.933 6.395 56.706 6.584 C 56.464 6.773 56.198 6.736 55.933 6.395 L 53.87 3.723 C 53.605 3.383 53.682 3.126 53.91 2.936 C 54.149 2.747 54.416 2.785 54.681 3.126 L 54.947 3.466 L 56.486 2.304 C 56.13 1.831 55.892 1.548 55.627 1.396 C 55.321 1.207 54.992 1.094 54.657 1.094 Z M 36.047 2.308 L 32.705 4.828 L 37.111 10.671 L 40.543 8.086 L 39.597 6.83 L 37.708 8.253 L 36.849 7.118 L 38.337 5.998 L 37.391 4.741 L 35.902 5.861 L 35.154 4.87 L 36.955 3.515 Z M 67.733 3.046 C 67.673 3.086 67.607 3.126 67.548 3.16 C 66.094 4.261 66.157 5.457 67.733 7.587 Z M 2.967 3.046 C 2.44 3.046 1.886 3.273 1.261 3.735 L 0.002 4.685 L 0.002 5.668 L 3.931 10.883 L 5.421 9.744 L 3.702 7.466 L 3.968 7.277 C 5.379 6.21 5.524 5.426 4.506 4.075 C 3.993 3.398 3.493 3.08 2.967 3.046 Z M 50.591 3.708 L 47.249 6.228 L 51.649 12.071 L 55.085 9.486 L 54.14 8.23 L 52.247 9.657 L 51.393 8.518 L 52.879 7.398 L 51.934 6.145 L 50.446 7.261 L 49.697 6.27 L 51.494 4.915 Z M 17.51 4.465 C 16.984 4.465 16.429 4.692 15.805 5.158 L 14.072 6.463 L 18.472 12.306 L 19.965 11.163 L 18.246 8.885 L 18.512 8.696 C 19.923 7.632 20.065 6.849 19.047 5.498 C 18.535 4.821 18.037 4.499 17.51 4.465 Z M 2.478 4.692 C 2.66 4.692 2.821 4.844 3.029 5.135 C 3.529 5.782 3.374 6.035 2.879 6.414 L 1.803 4.984 C 2.093 4.756 2.296 4.681 2.478 4.681 Z M 65.133 5.15 L 61.794 7.67 L 66.196 13.513 L 67.733 12.355 L 67.733 10.387 L 66.795 11.098 L 65.934 9.959 L 67.423 8.839 L 66.476 7.587 L 64.99 8.703 L 64.241 7.712 L 66.042 6.357 Z M 32.054 5.911 C 31.527 5.911 30.973 6.138 30.349 6.599 L 28.614 7.905 L 33.016 13.747 L 34.506 12.604 L 32.789 10.327 L 33.053 10.137 C 34.465 9.07 34.609 8.291 33.591 6.94 C 33.078 6.263 32.58 5.945 32.054 5.911 Z M 17.019 6.1 C 17.201 6.1 17.365 6.251 17.573 6.543 C 18.069 7.19 17.916 7.443 17.42 7.822 L 16.347 6.391 C 16.636 6.164 16.837 6.088 17.019 6.088 Z M 46.596 7.314 C 46.069 7.314 45.515 7.541 44.89 8.007 L 43.154 9.312 L 47.56 15.155 L 49.05 14.012 L 47.331 11.734 L 47.597 11.545 C 49.008 10.482 49.153 9.698 48.135 8.347 C 47.622 7.67 47.122 7.349 46.596 7.314 Z M 31.563 7.541 C 31.745 7.541 31.906 7.693 32.115 7.98 C 32.61 8.627 32.463 8.881 31.964 9.259 L 30.888 7.829 C 31.178 7.602 31.381 7.526 31.563 7.526 Z M 11.237 8.616 L 9.694 9.778 L 14.098 15.62 L 15.639 14.459 Z M 61.141 8.768 C 60.615 8.768 60.06 8.995 59.438 9.456 L 57.701 10.762 L 62.105 16.604 L 63.594 15.461 L 61.875 13.183 L 62.14 12.994 C 63.556 11.927 63.698 11.148 62.676 9.797 C 62.165 9.119 61.668 8.802 61.141 8.768 Z M 46.107 8.957 C 46.289 8.957 46.45 9.108 46.658 9.399 C 47.154 10.046 47.003 10.3 46.508 10.678 L 45.432 9.248 C 45.721 9.021 45.925 8.945 46.107 8.945 Z M 25.78 10.035 L 24.236 11.197 L 28.641 17.039 L 30.18 15.878 Z M 60.656 10.376 C 60.838 10.376 60.999 10.527 61.206 10.818 C 61.701 11.465 61.549 11.719 61.053 12.097 L 59.98 10.667 C 60.271 10.44 60.474 10.364 60.656 10.364 Z M 8.387 11.189 C 7.828 11.189 7.253 11.416 6.737 11.821 C 5.257 12.941 5.342 14.156 7.003 16.362 C 8.736 18.663 9.569 19.158 11.106 18.004 C 11.548 17.664 11.812 17.266 11.925 16.748 L 12.381 16.899 L 13.171 16.305 L 10.722 13.059 L 8.796 14.512 L 9.614 15.601 L 9.999 15.299 L 10.435 15.878 C 10.738 16.218 10.662 16.483 10.435 16.672 C 10.197 16.861 9.927 16.824 9.663 16.483 L 7.638 13.815 C 7.336 13.475 7.411 13.214 7.638 13.024 C 7.877 12.835 8.146 12.873 8.411 13.214 L 8.675 13.554 L 10.22 12.393 C 9.864 11.92 9.624 11.632 9.359 11.481 C 9.051 11.291 8.723 11.178 8.387 11.178 Z M 40.324 11.454 L 38.783 12.616 L 43.185 18.458 L 44.724 17.297 Z M 0.002 11.568 L 0.002 13.853 L 1.099 13.024 Z M 22.927 12.612 C 22.368 12.612 21.792 12.839 21.277 13.244 C 19.797 14.364 19.881 15.579 21.543 17.785 C 23.276 20.085 24.107 20.581 25.643 19.427 C 26.086 19.086 26.351 18.689 26.465 18.167 L 26.919 18.318 L 27.711 17.724 L 25.262 14.478 L 23.336 15.931 L 24.153 17.02 L 24.539 16.718 L 24.975 17.297 C 25.277 17.637 25.202 17.902 24.975 18.091 C 24.736 18.28 24.467 18.243 24.202 17.902 L 22.178 15.238 C 21.875 14.898 21.951 14.636 22.178 14.447 C 22.417 14.258 22.684 14.296 22.949 14.636 L 23.215 14.977 L 24.758 13.815 C 24.402 13.342 24.164 13.055 23.899 12.903 C 23.591 12.714 23.263 12.601 22.927 12.601 Z M 54.866 12.877 L 53.323 14.039 L 57.727 19.881 L 59.268 18.719 Z M 4.32 13.819 L 0.978 16.335 L 5.384 22.178 L 8.816 19.593 L 7.869 18.337 L 5.98 19.764 L 5.122 18.625 L 6.61 17.505 L 5.663 16.252 L 4.175 17.372 L 3.43 16.377 L 5.227 15.022 Z M 37.473 14.046 C 36.914 14.046 36.34 14.273 35.824 14.678 C 34.345 15.798 34.427 17.013 36.088 19.219 C 37.821 21.52 38.655 22.019 40.187 20.861 C 40.634 20.521 40.899 20.123 41.012 19.605 L 41.462 19.756 L 42.256 19.162 L 39.808 15.912 L 37.88 17.365 L 38.699 18.455 L 39.086 18.152 L 39.52 18.731 C 39.823 19.071 39.747 19.336 39.52 19.525 C 39.282 19.715 39.015 19.677 38.75 19.336 L 36.724 16.665 C 36.421 16.324 36.497 16.067 36.724 15.878 C 36.962 15.688 37.231 15.726 37.496 16.067 L 37.762 16.407 L 39.301 15.246 C 38.949 14.773 38.712 14.489 38.447 14.338 C 38.139 14.148 37.808 14.035 37.473 14.035 Z M 18.863 15.253 L 15.521 17.77 L 19.925 23.612 L 23.357 21.028 L 22.417 19.771 L 20.524 21.198 L 19.665 20.059 L 21.152 18.939 L 20.207 17.683 L 18.719 18.806 L 17.974 17.811 L 19.771 16.457 Z M 52.014 15.48 C 51.456 15.48 50.882 15.707 50.366 16.112 C 48.886 17.232 48.967 18.447 50.632 20.653 C 52.365 22.954 53.198 23.449 54.731 22.295 C 55.177 21.955 55.441 21.557 55.554 21.039 L 56.006 21.19 L 56.796 20.596 L 54.348 17.346 L 52.421 18.799 L 53.243 19.889 L 53.628 19.586 L 54.064 20.165 C 54.367 20.505 54.291 20.77 54.064 20.96 C 53.822 21.149 53.556 21.111 53.291 20.77 L 51.23 18.103 C 50.965 17.762 51.04 17.505 51.27 17.316 C 51.509 17.126 51.778 17.164 52.043 17.505 L 52.307 17.845 L 53.848 16.684 C 53.492 16.211 53.252 15.923 52.987 15.772 C 52.681 15.582 52.352 15.469 52.017 15.469 Z M 33.405 16.684 L 30.063 19.204 L 34.469 25.046 L 37.901 22.462 L 36.955 21.205 L 35.064 22.628 L 34.207 21.493 L 35.695 20.373 L 34.749 19.12 L 33.262 20.237 L 32.514 19.245 L 34.315 17.891 Z M 66.591 16.911 C 66.033 16.911 65.459 17.138 64.941 17.543 C 63.461 18.663 63.544 19.877 65.205 22.083 C 66.261 23.483 66.983 24.21 67.733 24.305 L 67.733 22.072 L 65.811 19.533 C 65.546 19.192 65.621 18.931 65.851 18.742 C 66.086 18.553 66.355 18.591 66.62 18.931 L 66.884 19.272 L 67.736 18.625 L 67.736 17.346 C 67.676 17.306 67.623 17.232 67.566 17.194 C 67.26 17.005 66.929 16.892 66.594 16.892 Z M 0.327 17.448 C 0.22 17.448 0.111 17.448 0.002 17.448 L 0.002 19.136 C 0.123 19.216 0.244 19.325 0.387 19.514 C 0.887 20.161 0.732 20.415 0.237 20.793 L 0.002 20.49 L 0.002 23.582 L 1.289 25.292 L 2.779 24.153 L 1.062 21.875 L 1.326 21.686 C 2.737 20.619 2.882 19.836 1.864 18.485 C 1.351 17.807 0.853 17.486 0.327 17.452 Z M 47.949 18.114 L 44.607 20.634 L 49.009 26.477 L 52.441 23.892 L 51.498 22.636 L 49.605 24.062 L 48.751 22.923 L 50.239 21.803 L 49.292 20.551 L 47.804 21.667 L 47.055 20.676 L 48.852 19.321 Z M 14.872 18.878 C 14.346 18.878 13.791 19.105 13.167 19.567 L 11.434 20.872 L 15.834 26.715 L 17.326 25.576 L 15.607 23.298 L 15.873 23.109 C 17.285 22.042 17.429 21.258 16.411 19.908 C 15.898 19.23 15.399 18.912 14.872 18.878 Z M 62.493 19.541 L 59.154 22.057 L 63.554 27.899 L 66.986 25.315 L 66.042 24.059 L 64.153 25.485 L 63.298 24.346 L 64.78 23.226 L 63.834 21.974 L 62.352 23.09 L 61.603 22.098 L 63.4 20.744 Z M 67.733 19.692 L 66.998 20.248 L 67.733 21.228 Z M 29.414 20.316 C 28.887 20.316 28.333 20.543 27.711 21.009 L 25.974 22.314 L 30.378 28.157 L 31.87 27.014 L 30.151 24.736 L 30.415 24.547 C 31.827 23.483 31.971 22.7 30.953 21.349 C 30.44 20.672 29.941 20.35 29.414 20.316 Z M 14.383 20.543 C 14.565 20.543 14.727 20.695 14.935 20.986 C 15.434 21.633 15.278 21.887 14.782 22.265 L 13.709 20.835 C 13.998 20.608 14.201 20.532 14.383 20.532 Z M 43.956 21.762 C 43.429 21.762 42.875 21.989 42.25 22.45 L 40.512 23.756 L 44.918 29.598 L 46.408 28.456 L 44.691 26.178 L 44.955 25.988 C 46.366 24.921 46.511 24.142 45.493 22.791 C 44.98 22.114 44.482 21.796 43.956 21.762 Z M 28.925 21.951 C 29.107 21.951 29.27 22.102 29.478 22.394 C 29.974 23.041 29.822 23.294 29.326 23.673 L 28.252 22.242 C 28.542 22.015 28.743 21.94 28.925 21.94 Z M 8.599 23.029 L 7.056 24.191 L 11.46 30.034 L 13.001 28.872 Z M 58.501 23.181 C 57.975 23.181 57.42 23.408 56.796 23.869 L 55.059 25.175 L 59.463 31.017 L 60.955 29.875 L 59.236 27.597 L 59.502 27.407 C 60.914 26.344 61.058 25.557 60.04 24.21 C 59.527 23.533 59.028 23.215 58.501 23.181 Z M 43.465 23.37 C 43.647 23.37 43.808 23.521 44.016 23.813 C 44.512 24.46 44.361 24.713 43.866 25.092 L 42.79 23.661 C 43.08 23.434 43.283 23.359 43.465 23.359 Z M 23.138 24.448 L 21.599 25.61 L 25.999 31.453 L 27.54 30.291 Z M 58.014 24.789 C 58.196 24.789 58.358 24.94 58.564 25.232 C 59.06 25.879 58.907 26.132 58.411 26.511 L 57.341 25.08 C 57.631 24.853 57.833 24.778 58.014 24.778 Z M 5.745 25.602 C 5.186 25.602 4.613 25.83 4.097 26.234 C 2.617 27.354 2.7 28.569 4.361 30.771 C 6.094 33.072 6.927 33.572 8.464 32.417 C 8.907 32.077 9.172 31.68 9.285 31.157 L 9.739 31.309 L 10.529 30.715 L 8.08 27.468 L 6.154 28.921 L 6.972 30.011 L 7.359 29.708 L 7.793 30.287 C 8.096 30.628 8.02 30.892 7.793 31.082 C 7.555 31.271 7.287 31.233 7.022 30.892 L 4.997 28.229 C 4.694 27.888 4.769 27.627 4.997 27.438 C 5.235 27.249 5.504 27.286 5.769 27.627 L 6.033 27.967 L 7.578 26.806 C 7.222 26.333 6.984 26.049 6.719 25.898 C 6.411 25.708 6.081 25.595 5.745 25.595 Z M 37.682 25.867 L 36.141 27.029 L 40.543 32.872 L 42.082 31.71 Z M 20.289 27.021 C 19.73 27.021 19.154 27.249 18.639 27.653 C 17.159 28.773 17.24 29.988 18.905 32.194 C 20.638 34.495 21.471 34.991 23.003 33.836 C 23.45 33.496 23.713 33.099 23.827 32.58 L 24.282 32.732 L 25.069 32.137 L 22.624 28.891 L 20.694 30.344 L 21.515 31.434 L 21.9 31.131 L 22.337 31.71 C 22.639 32.05 22.564 32.315 22.337 32.504 C 22.098 32.694 21.829 32.656 21.564 32.315 L 19.503 29.648 C 19.238 29.307 19.313 29.046 19.543 28.857 C 19.781 28.668 20.051 28.705 20.315 29.046 L 20.58 29.386 L 22.12 28.225 C 21.765 27.752 21.529 27.464 21.264 27.313 C 20.956 27.124 20.627 27.01 20.292 27.01 Z M 52.228 27.286 L 50.685 28.448 L 55.089 34.291 L 56.63 33.129 Z M 1.678 28.225 L 0.002 29.485 L 0.002 32.951 L 2.742 36.584 L 6.174 33.999 L 5.231 32.743 L 3.34 34.169 L 2.48 33.03 L 3.968 31.91 L 3.021 30.654 L 1.535 31.778 L 0.788 30.783 L 2.587 29.428 Z M 34.868 28.452 C 34.31 28.452 33.734 28.679 33.215 29.084 C 31.736 30.204 31.82 31.418 33.482 33.625 C 35.215 35.925 36.048 36.421 37.58 35.267 C 38.027 34.926 38.29 34.529 38.404 34.01 L 38.859 34.162 L 39.649 33.572 L 37.201 30.325 L 35.275 31.778 L 36.092 32.868 L 36.479 32.565 L 36.917 33.144 C 37.182 33.485 37.107 33.749 36.877 33.939 C 36.639 34.128 36.37 34.09 36.105 33.749 L 34.085 31.082 C 33.82 30.741 33.895 30.48 34.125 30.291 C 34.359 30.102 34.628 30.139 34.893 30.48 L 35.157 30.821 L 36.694 29.659 C 36.343 29.186 36.103 28.898 35.838 28.747 C 35.531 28.558 35.203 28.444 34.868 28.444 Z M 66.767 28.717 L 65.228 29.878 L 67.733 33.205 L 67.733 29.999 Z M 16.222 29.655 L 12.883 32.171 L 17.285 38.014 L 20.717 35.429 L 19.775 34.173 L 17.882 35.6 L 17.023 34.461 L 18.512 33.341 L 17.565 32.088 L 16.077 33.208 L 15.332 32.213 L 17.129 30.858 Z M 49.374 29.882 C 48.816 29.882 48.242 30.109 47.726 30.514 C 46.246 31.634 46.329 32.849 47.99 35.055 C 49.723 37.356 50.556 37.855 52.089 36.697 C 52.535 36.357 52.801 35.959 52.914 35.441 L 53.364 35.592 L 54.154 34.998 L 51.709 31.751 L 49.779 33.201 L 50.601 34.291 L 50.988 33.988 L 51.422 34.567 C 51.725 34.907 51.649 35.172 51.422 35.361 C 51.18 35.551 50.916 35.513 50.651 35.172 L 48.626 32.504 C 48.323 32.164 48.398 31.903 48.626 31.714 C 48.864 31.524 49.133 31.562 49.398 31.903 L 49.662 32.243 L 51.203 31.082 C 50.847 30.609 50.609 30.325 50.344 30.174 C 50.038 29.984 49.709 29.871 49.374 29.871 Z M 30.763 31.089 L 27.427 33.606 L 31.827 39.448 L 35.263 36.864 L 34.315 35.607 L 32.425 37.034 L 31.567 35.895 L 33.053 34.775 L 32.107 33.522 L 30.62 34.642 L 29.875 33.647 L 31.673 32.293 Z M 63.914 31.316 C 63.355 31.316 62.779 31.543 62.264 31.948 C 60.784 33.068 60.868 34.283 62.53 36.489 C 64.263 38.79 65.096 39.289 66.629 38.131 C 67.075 37.791 67.338 37.393 67.452 36.875 L 67.733 36.988 L 67.733 35.168 L 66.249 33.201 L 64.319 34.654 L 65.14 35.744 L 65.526 35.441 L 65.962 36.02 C 66.264 36.36 66.189 36.625 65.962 36.814 C 65.719 37.004 65.454 36.966 65.189 36.625 L 63.165 33.958 C 62.862 33.617 62.938 33.356 63.165 33.167 C 63.404 32.977 63.673 33.015 63.938 33.356 L 64.202 33.696 L 65.743 32.535 C 65.391 32.062 65.151 31.778 64.886 31.627 C 64.578 31.437 64.25 31.324 63.914 31.324 Z M 45.311 32.523 L 41.969 35.04 L 46.371 40.882 L 49.803 38.298 L 48.86 37.041 L 46.969 38.464 L 46.113 37.329 L 47.601 36.209 L 46.654 34.956 L 45.168 36.073 L 44.417 35.081 L 46.216 33.727 Z M 12.23 33.276 C 11.704 33.276 11.149 33.503 10.525 33.969 L 8.792 35.274 L 13.194 41.117 L 14.684 39.978 L 12.967 37.7 L 13.231 37.511 C 14.643 36.444 14.787 35.66 13.769 34.309 C 13.256 33.632 12.757 33.31 12.23 33.276 Z M 59.851 33.946 L 56.508 36.466 L 60.914 42.309 L 64.346 39.721 L 63.4 38.468 L 61.507 39.895 L 60.652 38.752 L 62.14 37.636 L 61.194 36.379 L 59.706 37.499 L 58.957 36.508 L 60.758 35.153 Z M 26.774 34.699 C 26.247 34.699 25.693 34.926 25.069 35.392 L 23.336 36.697 L 27.736 42.54 L 29.228 41.401 L 27.509 39.123 L 27.775 38.933 C 29.187 37.866 29.331 37.083 28.313 35.732 C 27.8 35.055 27.3 34.733 26.774 34.699 Z M 11.741 34.926 C 11.923 34.926 12.085 35.078 12.293 35.369 C 12.789 36.016 12.638 36.27 12.142 36.648 L 11.067 35.218 C 11.356 34.991 11.559 34.915 11.741 34.915 Z M 41.314 36.145 C 40.787 36.145 40.233 36.372 39.608 36.833 L 37.876 38.139 L 42.276 43.981 L 43.768 42.839 L 42.049 40.561 L 42.313 40.371 C 43.724 39.308 43.869 38.525 42.851 37.174 C 42.338 36.497 41.84 36.179 41.314 36.145 Z M 26.285 36.334 C 26.467 36.334 26.628 36.485 26.836 36.777 C 27.332 37.424 27.18 37.677 26.684 38.056 L 25.61 36.625 C 25.9 36.398 26.103 36.323 26.285 36.323 Z M 5.955 37.416 L 4.414 38.578 L 8.816 44.42 L 10.355 43.259 Z M 55.857 37.567 C 55.33 37.567 54.776 37.794 54.152 38.256 L 52.417 39.562 L 56.823 45.404 L 58.309 44.261 L 56.593 41.987 L 56.857 41.798 C 58.272 40.731 58.416 39.948 57.394 38.597 C 56.883 37.919 56.384 37.601 55.857 37.567 Z M 40.823 37.757 C 41.005 37.757 41.168 37.908 41.376 38.199 C 41.872 38.846 41.723 39.1 41.224 39.478 L 40.15 38.048 C 40.439 37.821 40.641 37.745 40.823 37.745 Z M 0.002 38.37 L 0.002 38.672 L 0.143 38.559 Z M 20.5 38.839 L 18.957 40.001 L 23.361 45.843 L 24.902 44.681 Z M 55.372 39.179 C 55.554 39.179 55.716 39.331 55.922 39.622 C 56.418 40.269 56.267 40.523 55.771 40.901 L 54.696 39.471 C 54.987 39.244 55.19 39.168 55.372 39.168 Z M 3.104 39.989 C 2.544 39.989 1.971 40.216 1.455 40.621 C -0.025 41.741 0.054 42.956 1.719 45.162 C 3.452 47.463 4.285 47.958 5.818 46.804 C 6.264 46.464 6.53 46.066 6.643 45.548 L 7.093 45.699 L 7.885 45.105 L 5.44 41.858 L 3.51 43.312 L 4.332 44.401 L 4.717 44.099 L 5.153 44.678 C 5.456 45.018 5.38 45.283 5.153 45.472 C 4.911 45.661 4.645 45.624 4.38 45.283 L 2.317 42.615 C 2.052 42.275 2.129 42.014 2.357 41.824 C 2.595 41.635 2.862 41.673 3.127 42.014 L 3.393 42.354 L 4.932 41.193 C 4.576 40.72 4.342 40.432 4.077 40.281 C 3.769 40.091 3.439 39.978 3.104 39.978 Z M 35.04 40.254 L 33.501 41.416 L 37.901 47.258 L 39.442 46.097 Z M 67.733 40.368 L 66.957 40.954 L 67.733 41.983 Z M 17.647 41.397 C 17.088 41.397 16.514 41.624 15.999 42.029 C 14.519 43.149 14.598 44.363 16.263 46.57 C 17.996 48.87 18.829 49.366 20.361 48.212 C 20.808 47.871 21.073 47.474 21.187 46.956 L 21.64 47.107 L 22.43 46.513 L 19.982 43.266 L 18.052 44.715 L 18.873 45.809 L 19.26 45.506 L 19.695 46.085 C 19.997 46.426 19.922 46.691 19.695 46.88 C 19.452 47.069 19.189 47.031 18.924 46.691 L 16.861 44.023 C 16.596 43.682 16.671 43.421 16.901 43.232 C 17.139 43.043 17.409 43.081 17.673 43.421 L 17.937 43.762 L 19.478 42.6 C 19.123 42.127 18.889 41.84 18.624 41.688 C 18.316 41.499 17.986 41.385 17.65 41.385 Z M 49.584 41.662 L 48.043 42.823 L 52.445 48.666 L 53.984 47.504 Z M 32.224 42.816 C 31.666 42.816 31.091 43.043 30.575 43.448 C 29.1 44.568 29.178 45.782 30.84 47.989 C 32.573 50.289 33.406 50.785 34.942 49.631 C 35.385 49.29 35.65 48.893 35.764 48.375 L 36.217 48.526 L 37.007 47.932 L 34.559 44.685 L 32.633 46.138 L 33.45 47.228 L 33.837 46.925 L 34.275 47.504 C 34.54 47.845 34.465 48.11 34.235 48.299 C 33.997 48.488 33.728 48.45 33.463 48.11 L 31.435 45.438 C 31.17 45.098 31.245 44.84 31.475 44.651 C 31.713 44.462 31.979 44.5 32.244 44.84 L 32.51 45.181 L 34.053 44.019 C 33.697 43.546 33.459 43.259 33.194 43.107 C 32.887 42.918 32.559 42.804 32.224 42.804 Z M 64.125 43.081 L 62.582 44.242 L 66.986 50.085 L 67.733 49.521 L 67.733 47.867 Z M 13.583 44.019 L 10.241 46.535 L 14.647 52.378 L 18.079 49.794 L 17.133 48.537 L 15.246 49.964 L 14.385 48.825 L 15.873 47.705 L 14.927 46.452 L 13.441 47.572 L 12.69 46.577 L 14.491 45.222 Z M 46.732 44.246 C 46.174 44.246 45.6 44.473 45.084 44.878 C 43.604 45.998 43.683 47.213 45.348 49.419 C 47.081 51.723 47.914 52.219 49.447 51.061 C 49.893 50.721 50.159 50.323 50.272 49.805 L 50.722 49.956 L 51.514 49.362 L 49.065 46.115 L 47.139 47.565 L 47.961 48.655 L 48.346 48.352 L 48.782 48.927 C 49.085 49.268 49.009 49.532 48.782 49.722 C 48.54 49.911 48.274 49.873 48.009 49.532 L 45.946 46.865 C 45.681 46.524 45.758 46.267 45.986 46.078 C 46.225 45.888 46.492 45.926 46.757 46.267 L 47.023 46.607 L 48.562 45.446 C 48.206 44.973 47.968 44.689 47.703 44.538 C 47.397 44.348 47.068 44.235 46.733 44.235 Z M 0.379 45.033 L 0.002 45.336 L 0.002 47.3 L 1.326 46.301 Z M 28.127 45.449 L 24.785 47.966 L 29.189 53.805 L 32.619 51.224 L 31.676 49.968 L 29.787 51.394 L 28.929 50.255 L 30.415 49.135 L 29.471 47.883 L 27.982 49.003 L 27.237 48.011 L 29.034 46.653 Z M 61.276 45.677 C 60.717 45.677 60.143 45.904 59.628 46.308 C 58.148 47.429 58.23 48.643 59.892 50.849 C 61.625 53.15 62.458 53.649 63.991 52.491 C 64.437 52.151 64.702 51.754 64.816 51.235 L 65.266 51.387 L 66.06 50.792 L 63.611 47.546 L 61.681 48.995 L 62.502 50.085 L 62.889 49.782 L 63.324 50.357 C 63.626 50.698 63.551 50.963 63.324 51.152 C 63.085 51.341 62.816 51.303 62.551 50.963 L 60.527 48.299 C 60.224 47.958 60.3 47.697 60.527 47.508 C 60.766 47.319 61.035 47.357 61.3 47.697 L 61.564 48.038 L 63.105 46.872 C 62.753 46.399 62.515 46.115 62.25 45.964 C 61.942 45.775 61.612 45.661 61.276 45.661 Z M 42.669 46.884 L 39.329 49.4 L 43.729 55.242 L 47.161 52.658 L 46.22 51.402 L 44.327 52.824 L 43.473 51.689 L 44.959 50.569 L 44.012 49.317 L 42.526 50.437 L 41.777 49.442 L 43.574 48.087 Z M 2.591 47.111 L 0.698 48.537 L 0.002 47.61 L 0.002 50.819 L 0.102 50.932 L 3.534 48.348 Z M 9.59 47.622 C 9.064 47.622 8.509 47.849 7.885 48.31 L 6.148 49.616 L 10.552 55.458 L 12.042 54.319 L 10.325 52.041 L 10.589 51.852 C 12.001 50.785 12.145 50.002 11.127 48.651 C 10.615 47.973 10.117 47.656 9.59 47.622 Z M 57.208 48.284 L 53.866 50.804 L 58.272 56.646 L 61.704 54.058 L 60.758 52.806 L 58.871 54.228 L 58.01 53.089 L 59.498 51.973 L 58.552 50.717 L 57.066 51.837 L 56.315 50.845 L 58.118 49.491 Z M 24.132 49.044 C 23.605 49.044 23.051 49.271 22.427 49.733 L 20.694 51.038 L 25.096 56.881 L 26.586 55.742 L 24.869 53.464 L 25.133 53.275 C 26.545 52.208 26.689 51.424 25.671 50.074 C 25.158 49.396 24.658 49.078 24.132 49.044 Z M 9.099 49.233 C 9.281 49.233 9.443 49.385 9.651 49.676 C 10.147 50.323 9.996 50.577 9.5 50.955 L 8.425 49.525 C 8.714 49.298 8.917 49.222 9.099 49.222 Z M 38.676 50.448 C 38.149 50.448 37.595 50.675 36.97 51.141 L 35.234 52.446 L 39.164 57.66 L 40.455 57.66 L 41.13 57.142 L 39.411 54.868 L 39.677 54.679 C 41.088 53.615 41.231 52.832 40.213 51.481 C 39.7 50.804 39.202 50.482 38.676 50.448 Z M 23.643 50.675 C 23.825 50.675 23.986 50.827 24.194 51.118 C 24.694 51.765 24.54 52.018 24.044 52.397 L 22.968 50.967 C 23.258 50.74 23.461 50.664 23.643 50.664 Z M 3.317 51.757 L 1.774 52.919 L 5.36 57.679 L 7.613 57.679 L 7.719 57.609 Z M 53.217 51.909 C 52.69 51.909 52.134 52.136 51.51 52.597 L 49.777 53.903 L 52.632 57.691 L 54.985 57.691 L 53.954 56.321 L 54.218 56.132 C 55.63 55.068 55.774 54.285 54.752 52.934 C 54.241 52.257 53.744 51.939 53.217 51.905 Z M 38.185 52.098 C 38.367 52.098 38.53 52.249 38.738 52.541 C 39.234 53.188 39.081 53.441 38.586 53.82 L 37.512 52.389 C 37.801 52.162 38.002 52.087 38.185 52.087 Z M 67.733 52.828 C 67.514 52.942 67.289 53.055 67.051 53.256 L 65.314 54.561 L 67.665 57.679 L 67.735 57.679 L 67.735 54.667 L 67.598 54.478 C 67.648 54.438 67.688 54.438 67.735 54.398 Z M 17.86 53.169 L 16.315 54.331 L 18.832 57.668 L 21.249 57.668 Z M 52.732 53.509 C 52.914 53.509 53.074 53.661 53.28 53.948 C 53.775 54.595 53.625 54.849 53.129 55.227 L 52.054 53.797 C 52.345 53.57 52.55 53.494 52.732 53.494 Z M 0.467 54.315 C 0.313 54.315 0.157 54.315 0.002 54.395 L 0.002 56.06 C 0.161 56.06 0.327 56.14 0.491 56.363 L 0.755 56.703 L 2.296 55.542 C 1.94 55.069 1.704 54.781 1.439 54.63 C 1.131 54.44 0.803 54.327 0.467 54.327 Z M 32.402 54.58 L 30.863 55.742 L 32.304 57.657 L 34.719 57.657 Z M 15.005 55.734 C 14.446 55.734 13.872 55.961 13.357 56.366 C 12.824 56.767 12.5 57.187 12.373 57.657 L 14.18 57.657 C 14.21 57.657 14.22 57.577 14.26 57.577 C 14.468 57.426 14.701 57.426 14.933 57.657 L 15.885 57.657 L 16.841 56.938 C 16.486 56.465 16.248 56.177 15.983 56.026 C 15.675 55.837 15.344 55.723 15.009 55.723 Z M 46.942 55.999 L 45.403 57.161 L 45.77 57.649 L 48.185 57.649 Z M 2.802 56.188 L 0.872 57.638 L 0.892 57.638 L 3.915 57.638 Z M 62.485 56.684 L 61.182 57.664 L 63.222 57.664 Z M 29.549 57.176 C 29.072 57.176 28.59 57.365 28.137 57.664 L 30.755 57.664 C 30.675 57.584 30.601 57.513 30.523 57.475 C 30.215 57.286 29.884 57.172 29.549 57.172 Z M 0.002 57.365 L 0.002 57.668 L 0.235 57.668 Z M 17.342 57.63 L 17.272 57.67 L 17.382 57.67 Z"/>
	<path d="M 33.866 7.504 C 16.715 7.504 4.53 15.7 4.473 26.25 C 4.473 31.914 8.053 36.879 13.968 40.281 L 12.87 54.811 L 23.754 43.928 C 26.865 44.606 30.244 44.992 33.866 44.995 C 51.012 44.995 63.201 36.799 63.254 26.25 C 63.214 15.7 51.012 7.523 33.866 7.504" fill="#ffffff" id="speech_bubble"/>
		<g fill="#000000">
			<path d="M 47.3 28.898 C 46.104 28.471 44.049 27.445 41.831 26.25 C 43.883 25.05 45.763 24.112 47.216 23.427 C 46.528 21.546 45.332 19.582 45.332 19.582 C 43.966 20.608 42.085 21.89 39.947 23.169 C 39.947 20.434 40.027 17.959 40.212 16.676 C 40.212 16.676 38.074 17.187 36.193 17.017 C 36.382 18.386 36.458 20.608 36.458 23.169 C 34.236 21.89 32.269 20.608 31.243 19.923 C 31.243 19.923 30.475 22.061 29.105 23.427 C 30.305 23.941 32.439 25.05 34.747 26.337 C 32.356 27.703 30.221 28.815 29.022 29.409 C 29.022 29.409 30.475 31.036 31.33 32.66 C 32.356 31.891 34.236 30.692 36.458 29.326 C 36.378 31.717 36.306 33.855 36.117 35.482 C 38.168 35.634 40.56 35.747 40.56 35.747 C 40.295 34.465 40.132 32.156 40.053 29.421 C 42.187 30.703 44.151 31.986 45.434 32.928 C 46.289 30.79 47.315 28.91 47.315 28.91" id="asterisk"/>
			<path d="M 19.739 26.594 C 19.512 27.699 18.479 28.615 17.449 28.384 C 16.42 28.157 16.038 26.749 16.499 25.338 C 16.84 24.267 17.983 23.544 18.937 23.964 C 19.814 24.305 19.966 25.451 19.739 26.594 M 27.44 26.253 C 28.091 18.553 23.36 15.159 17.832 15.541 C 12.151 15.919 8.261 20.994 8.378 26.598 C 8.492 31.786 11.118 35.865 16.689 36.054 C 18.634 36.134 20.31 35.713 21.684 34.949 C 20.655 34.033 19.928 32.697 19.928 32.697 C 18.937 33.235 17.869 33.5 16.84 33.462 C 13.635 33.31 11.731 30.715 11.576 27.4 C 11.387 23.052 13.941 19.431 17.604 18.935 C 22.6 18.246 24.658 21.376 24.428 25.724 C 24.238 29.61 22.827 29.954 22.672 28.656 C 22.445 26.446 22.672 22.783 22.712 21.107 C 21.377 21.027 19.738 20.725 19.738 20.725 C 19.778 21.028 19.818 21.334 19.852 21.678 C 19.204 21.221 18.402 20.994 17.566 21.031 C 15.201 21.145 13.373 23.279 13.063 26.178 C 12.835 28.387 13.672 31.517 16.574 31.82 C 17.944 31.971 19.091 31.441 19.965 30.563 C 20.347 31.857 21.721 32.584 22.94 32.508 C 25.456 32.357 27.098 29.841 27.439 26.253" id="at-sign"/>
			<path d="M 55.837 34.544 C 55.988 33.519 55.145 32.353 53.676 32.243 C 52.287 32.092 51.235 32.909 51.182 34.018 C 51.142 35.206 52.015 36.345 53.483 36.345 C 54.728 36.345 55.671 35.596 55.837 34.544 M 55.951 16.192 C 53.82 16.343 51.266 16.744 51.266 16.744 C 51.765 20.876 51.818 27.222 51.493 31.188 C 51.493 31.188 53.714 30.688 55.621 30.847 C 55.235 26.662 55.508 20.172 55.962 16.211" id="bang"/>
		</g>
	<path d="M 66.376 66.379 L 1.351 66.379 L 1.351 1.358 L 66.376 1.358 Z M 0 67.73 L 67.731 67.73 L 67.731 0.004 L 0 0.004 Z" fill="#000000" id="boder"/>
	<path d="M 67.731 67.73 L 0 67.73 L 0 56.896 L 67.731 56.896 Z" fill="#000000" id="label_background"/>
	<path d="M 65.022 6.611 L 64.39 6.611 L 64.39 3.542 L 64.39 3.542 L 63.311 6.611 L 62.796 6.611 L 61.767 3.542 L 61.767 3.542 L 61.767 6.611 L 61.139 6.611 L 61.139 2.713 L 62.142 2.713 L 63.11 5.612 L 63.11 5.612 L 64.057 2.713 L 65.037 2.713 Z M 60.654 2.713 L 60.654 3.216 L 59.584 3.216 L 59.584 6.611 L 58.955 6.611 L 58.955 3.216 L 57.884 3.216 L 57.884 2.713 Z" fill="#ffffff" id="TM"/>
	<switch fill="#ffffff">
		<use xlink:href="#BAD_LANGUAGE" systemLanguage="en"/>
		<g id="SCHIMPFWÖRTER" systemLanguage="de">
			<path d="m 8.3818,59.9342 v 0.7509 0.5249 c -0.9014,-0.6753 -1.502,-0.4874 -1.5763,0.1879 -0.073,0.9757 1.763,1.1258 1.9513,2.6269 v 0.7879 C 8.5317,65.9009 7.8944,66.3888 7.1421,66.4639 H 6.6549 C 6.2415,66.4269 5.979,66.2763 5.7166,66.1265 v -1.2763 c 0.2249,0.1128 0.45,0.2629 0.8256,0.3379 h 0.3376 c 0,0 0.3756,-0.1125 0.5629,-0.4878 v -0.3381 c 0,-0.7505 -1.7635,-0.9378 -1.9518,-2.4012 0,-0.2255 -0.033,-0.4505 0,-0.751 0.1116,-0.8256 0.5255,-1.3881 1.3521,-1.6134 0.4132,-0.091 1.15,-0.021 1.5388,0.3376 z"/>
			<path d="m 12.8399,60.8914 v -1.2008 c -4.8075,-0.9872 -4.6583,7.7086 0,6.6296 v -1.2675 c -2.4747,0.9452 -3.169,-4.8249 0,-4.1613 z"/>
			<path d="m 13.5013,59.6883 v 6.6733 h 1.3251 v -2.8271 h 1.3245 v 2.8271 h 1.3245 v -6.6733 h -1.3245 v 2.6029 h -1.3245 v -2.6029 z"/>
			<rect width="1.33954" height="6.671" x="18.4197" y="59.6906"/>
			<path d="m 20.3909,66.3616 0.5638,-6.671 h 1.734 l 0.679,3.9197 0.527,-3.9197 h 1.735 l 0.755,6.671 h -1.396 l -0.301,-4.7489 -0.793,4.7489 h -1.018 l -0.866,-4.7112 -0.189,4.7112 z"/>
			<path d="m 27.0207,59.6906 v 6.671 h 1.319 V 63.621 c 1.102,0 1.993,-0.011 2.323,-1.7228 v -0.6563 c -0.239,-1.5171 -1.585,-1.5252 -2.291,-1.5484 -0.459,-0.011 -0.935,0 -1.347,0 z m 2.321,1.8096 v 0.1946 c -0.04,0.5597 -0.267,0.8092 -0.643,0.8594 h -0.354 v 0 0 -1.7235 c 0.117,-0.011 0.24,0 0.359,0 0.426,-0.011 0.614,0.3464 0.638,0.6695 z"/>
			<path d="m 31.3417,59.6906 v 6.671 h 1.319 v 0 -1.2814 -1.4698 h 1.17 v -1.2438 h -1.17 v -1.4323 h 1.32 v -1.2437 h -1.32 z"/>
			<path d="m 34.4267,59.6906 1.327,6.671 h 1.125 l 0.986,-4.5192 0.89,4.5192 h 1.119 l 1.366,-6.671 h -1.376 l -0.693,4.3139 -0.796,-4.3139 h -1.072 l -0.825,4.3139 -0.717,-4.3139 z"/>
			<path d="m 42.9866,57.8671 a 0.673917,0.673917 0 0 0 -0.6739,0.6744 0.673917,0.673917 0 0 0 0.6739,0.6739 0.673917,0.673917 0 0 0 0.6741,-0.6739 0.673917,0.673917 0 0 0 -0.6741,-0.6744 z m 1.8478,0 a 0.673917,0.673917 0 0 0 -0.6739,0.6744 0.673917,0.673917 0 0 0 0.6739,0.6739 0.673917,0.673917 0 0 0 0.6744,-0.6739 0.673917,0.673917 0 0 0 -0.6744,-0.6744 z m -0.9297,1.6915 c -3.2028,0 -3.31,6.8538 0,6.8993 3.3081,0.044 3.2012,-6.9027 0,-6.8993 z m 0,1.2541 c 1.3541,-0.021 1.252,4.4424 0,4.44 -1.251,0 -1.3539,-4.4169 0,-4.44 z"/>
			<path d="m 46.9457,59.6906 v 6.6819 h 1.321 v -2.9774 h 0.06 l 1.109,2.9665 h 1.4 l -1.126,-2.9906 c 0.398,-0.3623 0.842,-0.6832 0.886,-1.469 v -0.6573 c -0.206,-1.5621 -1.587,-1.5293 -2.295,-1.5512 -0.461,-0.01 -0.937,0 -1.35,0 z m 1.68,1.0937 c 0.305,0.033 0.639,0.1669 0.698,0.7191 v 0.1946 c -0.05,0.5127 -0.326,0.7922 -0.696,0.861 h -0.355 v 0 0 -1.7781 c 0.117,-0.01 0.24,0 0.36,0 z"/>
			<path d="m 51.0817,59.6906 v 1.252 h 1.027 v 5.419 h 1.298 v -5.419 h 1.033 v -1.252 z"/>
			<path d="m 55.0487,59.6906 v 6.671 h 1.32 v 0 h 1.357 v -1.2815 h -1.357 v -1.4697 h 1.168 v -1.2438 h -1.168 v -1.4322 h 1.319 v -1.2438 h -1.319 z"/>
			<path d="m 58.5057,59.6862 v 6.6863 h 1.322 v -2.9794 h 0.06 l 1.111,2.9685 h 1.4 l -1.127,-2.9926 c 0.398,-0.3626 0.843,-0.6836 0.887,-1.4699 v -0.6577 c -0.206,-1.5631 -1.588,-1.5303 -2.297,-1.5523 -0.461,-0.01 -0.938,0 -1.351,0 z m 1.68,1.0944 c 0.305,0.033 0.64,0.1671 0.698,0.7196 v 0.1948 c -0.05,0.5129 -0.325,0.7927 -0.695,0.8616 h -0.355 v 0 0 -1.7793 c 0.116,-0.01 0.24,0 0.359,0 z"/>
		</g>
		<use xlink:href="#BAD_LANGUAGE"/>
	</switch>
</svg>