<svg height="316.227766" viewBox="0 0 506 506.34647" width="316.227766" xmlns="http://www.w3.org/2000/svg" xmlns:xlink="http://www.w3.org/1999/xlink"><clipPath id="a"><path d="m0 0h49.667v49.632h-49.667z"/></clipPath><clipPath><path clip-rule="evenodd" d="m0 49.632v-50.2801h50.28v50.2801"/></clipPath><clipPath id="b"><path clip-rule="evenodd" d="m0 49.632v-50.2801h50.28v50.2801"/></clipPath><clipPath id="c"><path clip-rule="evenodd" d="m0 49.632v-50.2801h50.28v50.2801"/></clipPath><clipPath id="d"><path clip-rule="evenodd" d="m0 49.632v-50.2801h50.28v50.2801"/></clipPath><clipPath id="e"><path clip-rule="evenodd" d="m0 49.632v-50.2801h50.28v50.2801"/></clipPath><clipPath id="f"><path clip-rule="evenodd" d="m0 49.632v-50.2801h50.28v50.2801"/></clipPath><clipPath id="g"><path clip-rule="evenodd" d="m0 49.632v-50.2801h50.28v50.2801"/></clipPath><clipPath id="h"><path clip-rule="evenodd" d="m0 49.632v-50.2801h50.28v50.2801"/></clipPath><clipPath id="i"><path clip-rule="evenodd" d="m0 49.632v-50.2801h50.28v50.2801"/></clipPath><clipPath id="j"><path clip-rule="evenodd" d="m0 49.632v-50.2801h50.28v50.2801"/></clipPath><clipPath id="k"><path clip-rule="evenodd" d="m0 49.632v-50.2801h50.28v50.2801"/></clipPath><clipPath id="l"><path clip-rule="evenodd" d="m0 49.632v-50.2801h50.28v50.2801"/></clipPath><clipPath id="m"><path clip-rule="evenodd" d="m0 49.632v-50.2801h50.28v50.2801"/></clipPath><clipPath id="n"><path clip-rule="evenodd" d="m0 49.632v-50.2801h50.28v50.2801"/></clipPath><clipPath id="o"><path clip-rule="evenodd" d="m0 49.632v-50.2801h50.28v50.2801"/></clipPath><clipPath id="p"><path clip-rule="evenodd" d="m0 49.632v-50.2801h50.28v50.2801"/></clipPath><clipPath id="q"><path clip-rule="evenodd" d="m0 49.632v-50.2801h50.28v50.2801"/></clipPath><clipPath id="r"><path clip-rule="evenodd" d="m0 49.632v-50.2801h50.28v50.2801"/></clipPath><clipPath id="s"><path clip-rule="evenodd" d="m0 49.632v-50.2801h50.28v50.2801"/></clipPath><clipPath id="t"><path clip-rule="evenodd" d="m0 49.632v-50.2801h50.28v50.2801"/></clipPath><clipPath id="u"><path clip-rule="evenodd" d="m0 49.632v-50.2801h50.28v50.2801"/></clipPath><clipPath id="v"><path clip-rule="evenodd" d="m0 49.632v-50.2801h50.28v50.2801"/></clipPath><clipPath id="w"><path clip-rule="evenodd" d="m0 49.632v-50.2801h50.28v50.2801"/></clipPath><clipPath id="x"><path clip-rule="evenodd" d="m0 49.632v-50.2801h50.28v50.2801"/></clipPath><clipPath id="y"><path clip-rule="evenodd" d="m0 49.632v-50.2801h50.28v50.2801"/></clipPath><clipPath id="z"><path clip-rule="evenodd" d="m0 49.632v-50.2801h50.28v50.2801"/></clipPath><clipPath id="A"><path clip-rule="evenodd" d="m0 49.632v-50.2801h50.28v50.2801"/></clipPath><clipPath id="B"><path clip-rule="evenodd" d="m0 49.632v-50.2801h50.28v50.2801"/></clipPath><clipPath id="C"><path clip-rule="evenodd" d="m0 49.632v-50.2801h50.28v50.2801"/></clipPath><clipPath id="D"><path clip-rule="evenodd" d="m0 49.632v-50.2801h50.28v50.2801"/></clipPath><clipPath id="E"><path clip-rule="evenodd" d="m0 49.632v-50.2801h50.28v50.2801"/></clipPath><clipPath id="F"><path clip-rule="evenodd" d="m0 49.632v-50.2801h50.28v50.2801"/></clipPath><clipPath id="G"><path clip-rule="evenodd" d="m0 49.632v-50.2801h50.28v50.2801"/></clipPath><clipPath id="H"><path clip-rule="evenodd" d="m0 49.632v-50.2801h50.28v50.2801"/></clipPath><clipPath id="I"><path clip-rule="evenodd" d="m0 49.632v-50.2801h50.28v50.2801"/></clipPath><clipPath id="J"><path clip-rule="evenodd" d="m0 49.632v-50.2801h50.28v50.2801"/></clipPath><clipPath id="K"><path clip-rule="evenodd" d="m0 49.632v-50.2801h50.28v50.2801"/></clipPath><clipPath id="L"><path clip-rule="evenodd" d="m0 49.632v-50.2801h50.28v50.2801"/></clipPath><clipPath id="M"><path clip-rule="evenodd" d="m0 49.632v-50.2801h50.28v50.2801"/></clipPath><clipPath id="N"><path clip-rule="evenodd" d="m0 49.632v-50.2801h50.28v50.2801"/></clipPath><clipPath id="O"><path clip-rule="evenodd" d="m0 49.632v-50.2801h50.28v50.2801"/></clipPath><clipPath id="P"><path clip-rule="evenodd" d="m0 49.632v-50.2801h50.28v50.2801"/></clipPath><clipPath id="Q"><path clip-rule="evenodd" d="m0 49.632v-50.2801h50.28v50.2801"/></clipPath><clipPath id="R"><path clip-rule="evenodd" d="m0 49.632v-50.2801h50.28v50.2801"/></clipPath><clipPath id="S"><path clip-rule="evenodd" d="m0 49.632v-50.2801h50.28v50.2801"/></clipPath><clipPath id="T"><path clip-rule="evenodd" d="m0 49.632v-50.2801h50.28v50.2801"/></clipPath><clipPath id="U"><path clip-rule="evenodd" d="m0 49.632v-50.2801h50.28v50.2801"/></clipPath><clipPath id="V"><path clip-rule="evenodd" d="m0 49.632v-50.2801h50.28v50.2801"/></clipPath><clipPath id="W"><path clip-rule="evenodd" d="m0 49.632v-50.2801h50.28v50.2801"/></clipPath><clipPath id="X"><path clip-rule="evenodd" d="m0 49.632v-50.2801h50.28v50.2801"/></clipPath><clipPath id="Y"><path clip-rule="evenodd" d="m0 49.632v-50.2801h50.28v50.2801"/></clipPath><clipPath id="Z"><path clip-rule="evenodd" d="m0 49.632v-50.2801h50.28v50.2801"/></clipPath><clipPath id="aa"><path clip-rule="evenodd" d="m0 49.632v-50.2801h50.28v50.2801"/></clipPath><clipPath id="ab"><path clip-rule="evenodd" d="m0 49.632v-50.2801h50.28v50.2801"/></clipPath><clipPath id="ac"><path clip-rule="evenodd" d="m0 49.632v-50.2801h50.28v50.2801"/></clipPath><clipPath id="ad"><path clip-rule="evenodd" d="m0 49.632v-50.2801h50.28v50.2801"/></clipPath><clipPath id="ae"><path clip-rule="evenodd" d="m0 49.632v-50.2801h50.28v50.2801"/></clipPath><clipPath id="af"><path clip-rule="evenodd" d="m0 49.632v-50.2801h50.28v50.2801"/></clipPath><clipPath id="ag"><path clip-rule="evenodd" d="m0 49.632v-50.2801h50.28v50.2801"/></clipPath><clipPath id="ah"><path clip-rule="evenodd" d="m0 49.632v-50.2801h50.28v50.2801"/></clipPath><clipPath id="ai"><path clip-rule="evenodd" d="m0 49.632v-50.2801h50.28v50.2801"/></clipPath><clipPath id="aj"><path clip-rule="evenodd" d="m0 49.632v-50.2801h50.28v50.2801"/></clipPath><clipPath id="ak"><path clip-rule="evenodd" d="m0 49.632v-50.2801h50.28v50.2801"/></clipPath><clipPath id="al"><path clip-rule="evenodd" d="m0 49.632v-50.2801h50.28v50.2801"/></clipPath><clipPath id="am"><path clip-rule="evenodd" d="m0 49.632v-50.2801h50.28v50.2801"/></clipPath><clipPath id="an"><path clip-rule="evenodd" d="m0 49.632v-50.2801h50.28v50.2801"/></clipPath><clipPath id="ao"><path clip-rule="evenodd" d="m0 49.632v-50.2801h50.28v50.2801"/></clipPath><clipPath id="ap"><path clip-rule="evenodd" d="m0 49.632v-50.2801h50.28v50.2801"/></clipPath><clipPath id="aq"><path clip-rule="evenodd" d="m0 49.632v-50.2801h50.28v50.2801"/></clipPath><clipPath id="ar"><path clip-rule="evenodd" d="m0 49.632v-50.2801h50.28v50.2801"/></clipPath><clipPath id="as"><path clip-rule="evenodd" d="m0 49.632v-50.2801h50.28v50.2801"/></clipPath><clipPath id="at"><path clip-rule="evenodd" d="m0 49.632v-50.2801h50.28v50.2801"/></clipPath><clipPath id="au"><path clip-rule="evenodd" d="m0 49.632v-50.2801h50.28v50.2801"/></clipPath><clipPath id="av"><path clip-rule="evenodd" d="m0 49.632v-50.2801h50.28v50.2801"/></clipPath><clipPath id="aw"><path clip-rule="evenodd" d="m0 49.632v-50.2801h50.28v50.2801"/></clipPath><clipPath id="ax"><path clip-rule="evenodd" d="m0 49.632v-50.2801h50.28v50.2801"/></clipPath><clipPath id="ay"><path clip-rule="evenodd" d="m0 49.632v-50.2801h50.28v50.2801"/></clipPath><clipPath id="az"><path clip-rule="evenodd" d="m0 49.632v-50.2801h50.28v50.2801"/></clipPath><clipPath id="aA"><path clip-rule="evenodd" d="m0 49.632v-50.2801h50.28v50.2801"/></clipPath><clipPath id="aB"><path clip-rule="evenodd" d="m0 49.632v-50.2801h50.28v50.2801"/></clipPath><clipPath id="aC"><path clip-rule="evenodd" d="m0 49.632v-50.2801h50.28v50.2801"/></clipPath><clipPath id="aD"><path clip-rule="evenodd" d="m0 49.632v-50.2801h50.28v50.2801"/></clipPath><clipPath id="aE"><path clip-rule="evenodd" d="m0 49.632v-50.2801h50.28v50.2801"/></clipPath><clipPath id="aF"><path clip-rule="evenodd" d="m0 49.632v-50.2801h50.28v50.2801"/></clipPath><clipPath id="aG"><path clip-rule="evenodd" d="m0 49.632v-50.2801h50.28v50.2801"/></clipPath><clipPath id="aH"><path clip-rule="evenodd" d="m0 49.632v-50.2801h50.28v50.2801"/></clipPath><clipPath id="aI"><path clip-rule="evenodd" d="m0 49.632v-50.2801h50.28v50.2801"/></clipPath><clipPath id="aJ"><path clip-rule="evenodd" d="m0 49.632v-50.2801h50.28v50.2801"/></clipPath><clipPath id="aK"><path clip-rule="evenodd" d="m0 49.632v-50.2801h50.28v50.2801"/></clipPath><clipPath id="aL"><path clip-rule="evenodd" d="m0 49.632v-50.2801h50.28v50.2801"/></clipPath><clipPath id="aM"><path clip-rule="evenodd" d="m0 49.632v-50.2801h50.28v50.2801"/></clipPath><clipPath id="aN"><path clip-rule="evenodd" d="m0 49.632v-50.2801h50.28v50.2801"/></clipPath><clipPath id="aO"><path clip-rule="evenodd" d="m0 49.632v-50.2801h50.28v50.2801"/></clipPath><clipPath id="aP"><path clip-rule="evenodd" d="m0 49.632v-50.2801h50.28v50.2801"/></clipPath><clipPath id="aQ"><path clip-rule="evenodd" d="m0 49.632v-50.2801h50.28v50.2801"/></clipPath><clipPath id="aR"><path clip-rule="evenodd" d="m0 49.632v-50.2801h50.28v50.2801"/></clipPath><clipPath id="aS"><path clip-rule="evenodd" d="m0 49.632v-50.2801h50.28v50.2801"/></clipPath><clipPath id="aT"><path clip-rule="evenodd" d="m0 49.632v-50.2801h50.28v50.2801"/></clipPath><clipPath id="aU"><path clip-rule="evenodd" d="m0 49.632v-50.2801h50.28v50.2801"/></clipPath><clipPath id="aV"><path clip-rule="evenodd" d="m0 49.632v-50.2801h50.28v50.2801"/></clipPath><clipPath id="aW"><path clip-rule="evenodd" d="m0 49.632v-50.2801h50.28v50.2801"/></clipPath><clipPath id="aX"><path clip-rule="evenodd" d="m0 49.632v-50.2801h50.28v50.2801"/></clipPath><clipPath id="aY"><path clip-rule="evenodd" d="m0 49.632v-50.2801h50.28v50.2801"/></clipPath><clipPath><path clip-rule="evenodd" d="m0 49.632v-50.2801h50.28v50.2801"/></clipPath><clipPath><path clip-rule="evenodd" d="m0 49.632v-50.2801h50.28v50.2801"/></clipPath><clipPath><path clip-rule="evenodd" d="m0 49.632v-50.2801h50.28v50.2801"/></clipPath><clipPath><path clip-rule="evenodd" d="m0 49.632v-50.2801h50.28v50.2801"/></clipPath><clipPath><path clip-rule="evenodd" d="m0 49.632v-50.2801h50.28v50.2801"/></clipPath><clipPath><path clip-rule="evenodd" d="m0 49.632v-50.2801h50.28v50.2801"/></clipPath><clipPath><path clip-rule="evenodd" d="m0 49.632v-50.2801h50.28v50.2801"/></clipPath><clipPath><path clip-rule="evenodd" d="m0 49.632v-50.2801h50.28v50.2801"/></clipPath><clipPath><path clip-rule="evenodd" d="m0 49.632v-50.2801h50.28v50.2801"/></clipPath><clipPath><path clip-rule="evenodd" d="m0 49.632v-50.2801h50.28v50.2801"/></clipPath><clipPath><path clip-rule="evenodd" d="m0 49.632v-50.2801h50.28v50.2801"/></clipPath><clipPath><path clip-rule="evenodd" d="m0 49.632v-50.2801h50.28v50.2801"/></clipPath><clipPath><path clip-rule="evenodd" d="m0 49.632v-50.2801h50.28v50.2801"/></clipPath><clipPath><path clip-rule="evenodd" d="m0 49.632v-50.2801h50.28v50.2801"/></clipPath><clipPath><path clip-rule="evenodd" d="m0 49.632v-50.2801h50.28v50.2801"/></clipPath><clipPath><path clip-rule="evenodd" d="m0 49.632v-50.2801h50.28v50.2801"/></clipPath><clipPath><path clip-rule="evenodd" d="m0 49.632v-50.2801h50.28v50.2801"/></clipPath><clipPath><path clip-rule="evenodd" d="m0 49.632v-50.2801h50.28v50.2801"/></clipPath><clipPath><path clip-rule="evenodd" d="m0 49.632v-50.2801h50.28v50.2801"/></clipPath><clipPath><path clip-rule="evenodd" d="m0 49.632v-50.2801h50.28v50.2801"/></clipPath><path d="m0 506.34645h506v-506.34645h-506z"/><g clip-path="url(#a)" fill="#333" transform="matrix(10.12404965728 0 0 -10.13103329671 .00000022185 505.86274490709)"><g fill="#333"><g clip-path="url(#b)"><path d="m0 39.801.75045.601-.75045 1.05z" fill="#333"/></g><g clip-path="url(#c)"><path d="m2.1013 45.28c.3752.3.4502.45.075.975-.3002.375-.4503.375-.9005.075zm.7504-3.302-3.15188 4.277 1.20072.976c.90056.75 1.65096.75 2.40146-.225.7504-.976.6004-1.576-.3752-2.402l-.2252-.15 1.2758-1.651z" fill="#333"/></g><g clip-path="url(#d)"><path d="m5.8535 44.229-3.2269 4.353 2.4765 1.801.6754-.826-1.3508-1.05.6003-.676 1.0507.826.7504-.976-1.1257-.825.6004-.826 1.4259 1.051.6754-.901z" fill="#333"/></g><g clip-path="url(#e)"><path d="m9.0805 48.432c.1501-.226.3752-.226.5253-.076.2251.076.2251.301.075.526l-.3752.45-.3002-.225-.6003.75 1.4258 1.051 1.8011-2.326-.525-.451-.376.15c-.075-.375-.225-.675-.6-.975-1.1256-.826-1.7259-.45-3.0017 1.276-1.2758 1.501-1.2758 2.401-.2251 3.227.6003.45 1.3508.675 1.9511.3.2252-.15.3753-.375.6004-.676l-1.1257-.9-.1501.3c-.2251.225-.4502.225-.6003.075-.1501-.075-.2252-.3 0-.525z" fill="#333"/></g><g clip-path="url(#f)"><path d="m12.307 49.107-3.2265 4.202 1.1255.901 3.227-4.353z" fill="#333"/></g><g clip-path="url(#g)"><path d="m.15009 34.698c.37523.225.45027.45.07505.901-.22514.45-.37523.45-.8255.15zm.75045-3.377-3.15194 4.353 1.27581.975c.900545.676 1.57595.751 2.32639-.3.7505-.975.6004-1.576-.37521-2.326l-.22514-.15 1.27575-1.726z" fill="#333"/></g><g clip-path="url(#h)"><path d="m3.9024 33.648-3.22699 4.277 2.47649 1.876.6754-.9-1.3508-.976.6004-.75 1.0506.825.7504-.9-1.1256-.826.6003-.825 1.4259 1.05.6754-.975z" fill="#333"/></g><g clip-path="url(#i)"><path d="m7.1293 37.85c.1501-.3.3752-.3.5253-.15.2252.15.2252.3.0751.6l-.3753.451-.3001-.225-.6004.75 1.4259 1.126 1.801-2.402-.5253-.45-.3752.075c-.075-.375-.2251-.675-.6004-.901-1.1256-.825-1.726-.525-3.0018 1.201-1.2757 1.651-1.2757 2.552-.2251 3.377.6004.45 1.3508.601 1.9512.225.2251-.075.3752-.3.6003-.675l-1.1256-.826-.1501.226c-.2252.3-.3753.3-.6004.15-.1501-.15-.2251-.301 0-.601z" fill="#333"/></g><g clip-path="url(#j)"><path d="m10.356 38.45-3.2267 4.353 1.1257.826 3.227-4.278z" fill="#333"/></g><g clip-path="url(#k)"><path d="m12.833 44.229c.375.3.45.45.15.976-.375.375-.525.375-.976.075zm.75-3.302-3.227 4.278 1.276.975c.901.751 1.651.751 2.401-.225.751-.976.676-1.576-.375-2.401l-.225-.151 1.276-1.651z" fill="#333"/></g><g clip-path="url(#l)"><path d="m16.66 43.178-3.302 4.353 2.477 1.876.675-.9-1.351-1.051.601-.675 1.05.825.751-.976-1.126-.825.6-.826 1.426 1.051.676-.9z" fill="#333"/></g><g clip-path="url(#m)"><path d="m19.812 47.381c.15-.225.375-.225.525-.075.225.075.225.3.075.525l-.375.45-.225-.225-.6.826 1.35.975 1.877-2.326-.601-.45-.375.15c-.075-.375-.225-.676-.6-.976-1.126-.825-1.726-.45-3.002 1.276-1.201 1.576-1.276 2.401-.225 3.227.6.45 1.35.675 1.951.3.225-.15.375-.375.675-.675l-1.2-.826-.151.225c-.225.225-.375.225-.6.075-.15-.075-.225-.225 0-.45z" fill="#333"/></g><g clip-path="url(#n)"><path d="m23.039 48.056-3.227 4.203 1.126.9 3.302-4.277z" fill="#333"/></g><g clip-path="url(#o)"><path d="m-1.726 24.042c.3752.3.4502.45.075.975-.3002.376-.4503.376-.9005.075zm.75041-3.302-3.22691 4.352 1.2757.901c.9006.75 1.651.75 2.40148-.225.67541-.976.52532-1.576-.37522-2.402l-.22516-.15 1.200745-1.651z" fill="#333"/></g><g clip-path="url(#p)"><path d="m1.9512 22.991-3.1519 4.353 2.4014 1.876.6754-.901-1.35078-1.05.60038-.676 1.0506.826.7505-.976-1.1257-.825.6003-.826 1.4259 1.051.6754-.901z" fill="#333"/></g><g clip-path="url(#q)"><path d="m5.1781 27.194c.1501-.225.3753-.225.5253-.075.2252.075.2252.3.0751.525l-.3752.45-.3002-.225-.6004.826 1.4259 1.05 1.8011-2.401-.5254-.45-.3752.15c-.075-.376-.2251-.676-.6003-.901-1.1257-.9-1.7261-.525-3.0019 1.201-1.2757 1.576-1.2757 2.476-.2251 3.302.6004.45 1.3508.675 1.9512.3.2251-.15.3752-.375.6004-.675l-1.1257-.901-.1501.3c-.2252.225-.3752.225-.6004.15-.1501-.15-.2251-.375 0-.6z" fill="#333"/></g><g clip-path="url(#r)"><path d="m8.4051 27.869-3.227 4.353 1.1257.825 3.227-4.352z" fill="#333"/></g><g clip-path="url(#s)"><path d="m10.882 33.648c.375.225.45.45.15.9-.376.45-.526.45-.976.15zm.75-3.377-3.2269 4.352 1.2757.976c.9002.675 1.6512.75 2.4012-.3.751-.976.676-1.576-.375-2.327l-.225-.15 1.276-1.726z" fill="#333"/></g><g clip-path="url(#t)"><path d="m14.709 32.597-3.302 4.278 2.476 1.876.676-.901-1.351-.975.6-.751 1.051.826.75-.901-1.125-.825.6-.826 1.426 1.051.675-.976z" fill="#333"/></g><g clip-path="url(#u)"><path d="m17.861 36.799c.15-.3.375-.3.525-.15.225.15.225.301.075.601l-.375.45-.225-.225-.601.75 1.351 1.126 1.876-2.401-.6-.451-.375.075c-.075-.375-.225-.675-.601-.9-1.125-.826-1.726-.526-3.001 1.201-1.201 1.651-1.276 2.551-.226 3.377.601.45 1.351.6 1.952.225.225-.075.375-.3.675-.676l-1.201-.825-.15.225c-.225.3-.375.3-.6.15-.15-.15-.225-.3 0-.6z" fill="#333"/></g><g clip-path="url(#v)"><path d="m21.088 37.4-3.227 4.352 1.125.826 3.302-4.278z" fill="#333"/></g><g clip-path="url(#w)"><path d="m23.564 43.178c.375.301.45.451.15.976-.3.375-.525.375-.9.075zm.751-3.302-3.227 4.278 1.276.976c.9.75 1.65.75 2.401-.226.75-.975.675-1.576-.375-2.401l-.225-.15 1.275-1.651z" fill="#333"/></g><g clip-path="url(#x)"><path d="m27.392 42.128-3.302 4.352 2.476 1.876.675-.9-1.275-1.051.525-.675 1.126.825.675-.975-1.126-.826.676-.825 1.351 1.05.75-.9z" fill="#333"/></g><g clip-path="url(#y)"><path d="m30.543 46.33c.151-.225.376-.225.526-.075.225.075.225.3.075.526l-.375.45-.226-.225-.6.825 1.426 1.051 1.801-2.402-.6-.45-.376.15c-.075-.375-.225-.675-.6-.975-1.126-.826-1.726-.451-3.002 1.275-1.2 1.576-1.276 2.477-.225 3.227.676.451 1.351.676 1.951.3.225-.15.376-.375.676-.6l-1.126-.9-.225.3c-.225.225-.375.225-.6.075-.151-.075-.226-.3 0-.526z" fill="#333"/></g><g clip-path="url(#z)"><path d="m33.845 47.006-3.302 4.202 1.126.901 3.302-4.278z" fill="#333"/></g><g clip-path="url(#A)"><path d="m36.247 52.709c.375.225.525.45.15.901-.3.45-.525.45-.901.075zm.825-3.302-3.302 4.278 1.276.975c.976.676 1.651.751 2.402-.3.75-.975.675-1.576-.376-2.326l-.225-.15 1.276-1.726z" fill="#333"/></g><g clip-path="url(#B)"><path d="m.075045 12.41-3.226945 4.277 2.47649 1.876.67541-.9-1.3508-.976.60035-.75.97559.825.75045-.9-1.050635-.826.525315-.825 1.42583 1.05.6754-.975z" fill="#333"/></g><g clip-path="url(#C)"><path d="m3.2269 16.612c.1501-.225.3753-.3.5254-.15.2251.15.2251.375.075.601l-.3752.45-.3002-.225-.6004.825 1.4259 1.051 1.8011-2.402-.5253-.45-.3753.075c-.075-.375-.2251-.675-.6003-.9-1.1257-.826-1.7261-.451-3.0018 1.2-1.2758 1.651-1.2758 2.552-.2252 3.377.6004.451 1.3508.676 1.9512.226.2251-.076.3752-.301.6004-.676l-1.1257-.825-.1501.225c-.2251.3-.3752.3-.6004.15-.15-.15-.2251-.3 0-.601z" fill="#333"/></g><g clip-path="url(#D)"><path d="m6.4539 17.288-3.227 4.277 1.1257.826 3.227-4.278z" fill="#333"/></g><g clip-path="url(#E)"><path d="m8.9304 22.991c.3752.3.4503.45.1501.976-.3752.375-.5253.375-.9756.075zm.7504-3.302-3.2269 4.278 1.2758.975c.9005.751 1.651.751 2.4013-.225.751-.975.676-1.576-.3751-2.401l-.2251-.15 1.2762-1.651z" fill="#333"/></g><g clip-path="url(#F)"><path d="m12.758 21.941-3.3023 4.352 2.4763 1.876.676-.9-1.351-1.051.6-.675 1.051.825.75-.975-1.125-.826.675-.825 1.351 1.05.675-.9z" fill="#333"/></g><g clip-path="url(#G)"><path d="m15.91 26.143c.15-.225.375-.225.525-.075.225.075.225.3.075.525l-.375.451-.225-.226-.601.826 1.426 1.051 1.801-2.402-.6-.45-.375.15c-.075-.375-.226-.675-.601-.976-1.125-.825-1.726-.45-3.002 1.276-1.2 1.576-1.275 2.477-.225 3.302.601.45 1.351.676 1.951.3.226-.15.376-.375.676-.675l-1.201-.901-.15.301c-.225.225-.375.225-.6.15-.15-.15-.225-.376 0-.601z" fill="#333"/></g><g clip-path="url(#H)"><path d="m19.137 26.818-3.227 4.278 1.125.901 3.302-4.353z" fill="#333"/></g><g clip-path="url(#I)"><path d="m21.613 32.597c.375.225.525.45.15.9-.3.451-.525.451-.9.151zm.751-3.377-3.227 4.353 1.275.975c.976.676 1.651.751 2.402-.3.75-.976.675-1.576-.375-2.326l-.226-.151 1.276-1.726z" fill="#333"/></g><g clip-path="url(#J)"><path d="m25.44 31.546-3.302 4.278 2.477 1.876.675-.901-1.276-.975.526-.751 1.125.826.676-.901-1.126-.825.676-.826 1.35 1.051.751-.976z" fill="#333"/></g><g clip-path="url(#K)"><path d="m28.592 35.749c.15-.3.375-.3.526-.15.225.15.225.3.075.6l-.301.45-.3-.225-.6.751 1.426 1.125 1.801-2.401-.601-.45-.375.075c-.075-.376-.225-.676-.6-.901-1.126-.825-1.726-.525-3.002 1.201-1.201 1.651-1.276 2.551-.225 3.377.675.45 1.351.6 1.951.225.225-.075.375-.3.676-.675l-1.126-.826-.225.225c-.225.3-.376.3-.601.15-.15-.15-.225-.3 0-.6z" fill="#333"/></g><g clip-path="url(#L)"><path d="m31.894 36.349-3.302 4.353 1.126.825 3.302-4.277z" fill="#333"/></g><g clip-path="url(#M)"><path d="m34.296 42.128c.375.3.525.45.15.975-.3.376-.526.376-.901.075zm.825-3.302-3.302 4.277 1.276.976c.976.75 1.651.75 2.401-.225.751-1.051.676-1.576-.375-2.402l-.225-.15 1.276-1.651z" fill="#333"/></g><g clip-path="url(#N)"><path d="m38.123 41.077-3.227 4.353 2.402 1.876.675-.901-1.276-1.05.525-.676 1.126.826.676-.976-1.126-.825.675-.826 1.351 1.051.751-.901z" fill="#333"/></g><g clip-path="url(#O)"><path d="m41.275 45.28c.225-.226.375-.226.6-.15.15.15.225.375 0 .6l-.3.45-.3-.225-.6.826 1.425 1.05 1.802-2.401-.601-.451-.3.151c-.15-.376-.3-.676-.6-.976-1.201-.826-1.801-.45-3.077 1.276-1.201 1.576-1.276 2.476-.15 3.302.6.45 1.275.675 1.876.3.225-.15.375-.375.675-.676l-1.125-.9-.226.3c-.15.225-.375.225-.525.075-.225-.075-.225-.3-.075-.525z" fill="#333"/></g><g clip-path="url(#P)"><path d="m44.577 45.955-3.302 4.203 1.201.9 3.227-4.277z" fill="#333"/></g><g clip-path="url(#Q)"><path d="m46.978 51.658c.376.226.526.451.15.901-.3.45-.45.45-.9.075zm.826-3.302-3.302 4.278 1.276.976c.975.675 1.651.75 2.401-.301.751-.975.675-1.575-.375-2.326l-.225-.15 1.275-1.651z" fill="#333"/></g><g clip-path="url(#R)"><path d="m-1.8011 1.7533-3.302 4.3527 2.4765 1.8761.6754-.9005-1.3508-.9756.6004-.7505 1.0506.8255.75046-.9756-1.12566-.8255.6003-.8255 1.4259 1.0507.60036-.9006z" fill="#333"/></g><g clip-path="url(#S)"><path d="m1.2758 6.0309c.1501-.3002.3752-.3002.5253-.1501.2251.0751.2251.3002.075.6004l-.3752.3752-.3002-.2251-.60034.8255 1.42584 1.0506 1.8011-2.4014-.5253-.3753-.3752.0751c-.0751-.3752-.2252-.6754-.6004-.9006-1.1257-.9005-1.72604-.5253-2.92676 1.2008-1.27574 1.5759-1.27574 2.4765-.22514 3.302.60036.5253 1.27577.675 1.8761.3001.2252-.1501.3753-.3001.6004-.6754l-1.12568-.9005-.15009.3002c-.22514.2251-.37523.2251-.52532.1501-.15009-.1501-.22514-.3753 0-.6004z" fill="#333"/></g><g clip-path="url(#T)"><path d="m4.5027 6.6313-3.2269 4.3527 1.1256.825 3.227-4.3522z" fill="#333"/></g><g clip-path="url(#U)"><path d="m6.9792 12.41c.3752.225.4503.45.1501.9-.3752.451-.5253.451-.9005.15zm.7505-3.3022-3.227 4.2772 1.2758.976c.9005.675 1.651.75 2.4014-.3.7505-.976.6754-1.576-.3752-2.327l-.2251-.15 1.2757-1.6507z" fill="#333"/></g><g clip-path="url(#V)"><path d="m10.807 11.359-3.3025 4.278 2.4765 1.876.675-.901-1.3504-.975.6004-.751 1.051.826.75-.901-1.126-.825.676-.826 1.351 1.051.675-.976z" fill="#333"/></g><g clip-path="url(#W)"><path d="m13.958 15.562c.151-.225.376-.301.526-.15.225.15.225.375.075.6l-.375.45-.226-.225-.6.826 1.426 1.05 1.801-2.401-.6-.451-.376.076c-.075-.376-.225-.676-.6-.901-1.126-.826-1.726-.45-3.002 1.201-1.2 1.651-1.276 2.551-.225 3.377.676.45 1.351.675 1.951.225.225-.075.376-.3.676-.676l-1.201-.825-.15.225c-.225.3-.375.3-.6.15-.151-.15-.226-.3 0-.6z" fill="#333"/></g><g clip-path="url(#X)"><path d="m17.185 16.237-3.227 4.278 1.126.825 3.302-4.277z" fill="#333"/></g><g clip-path="url(#Y)"><path d="m19.662 21.941c.375.3.525.45.15.975-.3.375-.525.375-.901.075zm.825-3.302-3.302 4.277 1.276.976c.976.75 1.651.75 2.402-.225.75-.976.675-1.576-.376-2.402l-.225-.15 1.276-1.651z" fill="#333"/></g><g clip-path="url(#Z)"><path d="m23.489 20.89-3.302 4.353 2.477 1.876.675-.901-1.276-1.051.526-.675 1.125.826.676-.976-1.126-.826.675-.825 1.351 1.051.751-.901z" fill="#333"/></g><g clip-path="url(#aa)"><path d="m26.641 25.092c.15-.225.375-.225.525-.075.226.075.226.301.075.526l-.3.45-.3-.225-.6.825 1.426 1.051 1.801-2.401-.601-.451-.375.15c-.075-.375-.225-.675-.6-.975-1.126-.826-1.726-.451-3.002 1.276-1.201 1.575-1.276 2.476-.225 3.302.675.45 1.351.675 1.951.3.225-.15.375-.376.675-.676l-1.125-.9-.225.3c-.226.225-.376.225-.601.15-.15-.15-.225-.375 0-.6z" fill="#333"/></g><g clip-path="url(#ab)"><path d="m29.943 25.768-3.302 4.277 1.126.901 3.302-4.353z" fill="#333"/></g><g clip-path="url(#ac)"><path d="m32.345 31.546c.375.225.525.451.15.901-.301.45-.526.45-.901.15zm.825-3.377-3.302 4.353 1.276.975c.975.676 1.651.751 2.401-.3.751-.975.676-1.576-.375-2.326l-.225-.15 1.276-1.726z" fill="#333"/></g><g clip-path="url(#ad)"><path d="m36.172 30.496-3.227 4.277 2.401 1.876.676-.9-1.276-.976.525-.75 1.126.825.675-.9-1.125-.826.675-.825 1.351 1.05.75-.975z" fill="#333"/></g><g clip-path="url(#ae)"><path d="m39.324 34.698c.225-.3.375-.3.6-.15.15.15.225.3 0 .6l-.3.451-.3-.225-.601.75 1.426 1.126 1.801-2.402-.6-.45-.3.075c-.15-.375-.3-.675-.601-.9-1.2-.826-1.801-.526-3.076 1.2-1.201 1.651-1.276 2.552-.151 3.377.601.451 1.276.601 1.877.225.225-.075.375-.3.675-.675l-1.126-.825-.225.225c-.15.3-.375.3-.525.15-.225-.15-.225-.3-.075-.601z" fill="#333"/></g><g clip-path="url(#af)"><path d="m42.626 35.299-3.302 4.352 1.2.826 3.227-4.278z" fill="#333"/></g><g clip-path="url(#ag)"><path d="m45.027 41.077c.375.3.525.45.15.976-.3.375-.45.375-.9.075zm.826-3.302-3.302 4.278 1.275.975c.976.676 1.651.751 2.402-.225.75-1.051.675-1.576-.375-2.401l-.225-.15 1.275-1.651z" fill="#333"/></g><g clip-path="url(#ah)"><path d="m48.854 40.026-3.226 4.353 2.476 1.876.6-.9-1.275-1.051.525-.675 1.126.825.675-.975-1.126-.826.676-.825 1.426 1.05.675-.9z" fill="#333"/></g><g clip-path="url(#ai)"><path d="m52.006 44.229c.226-.225.376-.225.601-.15.15.15.225.375 0 .6l-.3.451-.301-.226-.6.826 1.426 1.051 1.801-2.402-.6-.45-.301.15c-.075-.375-.3-.676-.6-.976-1.126-.825-1.801-.45-3.077 1.276-1.201 1.576-1.276 2.477-.15 3.302.6.45 1.351.675 1.951.3.15-.15.376-.375.601-.675l-1.126-.901-.225.3c-.15.226-.375.226-.525.076-.226-.076-.226-.301-.076-.526z" fill="#333"/></g><g clip-path="url(#aj)"><path d="m2.5515-3.9501-3.15186 4.27758 1.05063.90052 3.22693-4.3526z" fill="#333"/></g><g clip-path="url(#ak)"><path d="m5.028 1.7533c.3753.3002.4503.4503.1501.9756-.3752.3753-.5253.3753-.9005.0751zm.7505-3.302-3.227 4.3527 1.2758.9005c.9006.7505 1.651.7505 2.4015-.2251.7504-.9756.6754-1.576-.3753-2.3264l-.2251-.1501 1.2758-1.72606z" fill="#333"/></g><g clip-path="url(#al)"><path d="m8.8553.7027-3.3019 4.3526 2.4764 1.8762.6755-.9006-1.3509-.9756.6004-.7504 1.0506.8255.7505-.9756-1.1257-.8255.6754-.8255 1.3504 1.0506.676-.9005z" fill="#333"/></g><g clip-path="url(#am)"><path d="m12.007 4.9803c.15-.3002.375-.3002.526-.1501.225.075.225.3002.075.6004l-.376.3752-.225-.2252-.6.8255 1.426 1.0507 1.801-2.4015-.601-.3752-.375.075c-.075-.3752-.225-.6754-.6-.9005-1.126-.9005-1.726-.5253-3.002 1.2007-1.2007 1.576-1.2757 2.4765-.2251 3.302.6751.5253 1.3511.6754 1.9511.3002.225-.1501.375-.3002.676-.6754l-1.201-.9005-.15.3001c-.225.2252-.376.2252-.601.1501-.15-.1501-.225-.3752 0-.6003z" fill="#333"/></g><g clip-path="url(#an)"><path d="m15.234 5.5806-3.227 4.3527 1.126.8257 3.302-4.3529z" fill="#333"/></g><g clip-path="url(#ao)"><path d="m17.711 11.359c.375.225.525.45.15.901-.3.45-.526.45-.901.15zm.825-3.3019-3.302 4.2779 1.276.975c.976.676 1.651.751 2.401-.3.751-.975.676-1.576-.375-2.326l-.225-.15 1.276-1.6514z" fill="#333"/></g><g clip-path="url(#ap)"><path d="m21.538 10.309-3.302 4.277 2.477 1.876.675-.9-1.276-.976.525-.75 1.126.825.676-.9-1.126-.826.675-.825 1.351 1.05.751-.975z" fill="#333"/></g><g clip-path="url(#aq)"><path d="m24.69 14.511c.15-.225.375-.3.525-.15.225.15.225.3.075.6l-.3.451-.3-.226-.6.826 1.425 1.051 1.801-2.402-.6-.45-.375.075c-.075-.375-.225-.676-.6-.901-1.126-.825-1.727-.45-3.002 1.201-1.201 1.651-1.276 2.552-.15 3.377.6.45 1.275.6 1.876.225.225-.075.375-.3.675-.675l-1.126-.826-.225.225c-.225.301-.375.301-.6.151-.15-.151-.15-.301 0-.601z" fill="#333"/></g><g clip-path="url(#ar)"><path d="m27.992 15.186-3.302 4.278 1.126.826 3.302-4.278z" fill="#333"/></g><g clip-path="url(#as)"><path d="m30.393 20.89c.376.3.526.45.15.975-.3.376-.525.376-.9.076zm.826-3.302-3.302 4.277 1.276.976c.975.751 1.651.751 2.401-.225.751-.976.675-1.576-.375-2.402l-.225-.15 1.275-1.651z" fill="#333"/></g><g clip-path="url(#at)"><path d="m34.221 19.839-3.227 4.353 2.401 1.876.676-.901-1.276-1.05.525-.676 1.126.826.675-.976-1.125-.825.675-.826 1.351 1.051.75-.901z" fill="#333"/></g><g clip-path="url(#au)"><path d="m37.373 24.042c.225-.225.375-.225.6-.075.15.075.225.3 0 .525l-.3.45-.3-.225-.601.826 1.426 1.05 1.801-2.401-.6-.45-.3.15c-.075-.376-.301-.676-.601-.976-1.2-.825-1.801-.45-3.077 1.276-1.2 1.576-1.275 2.476-.15 3.302.601.45 1.276.675 1.876.3.226-.15.376-.375.676-.675l-1.126-.901-.225.3c-.15.225-.375.225-.525.075-.225-.075-.225-.3-.075-.525z" fill="#333"/></g><g clip-path="url(#av)"><path d="m40.675 24.717-3.302 4.278 1.2.9 3.227-4.352z" fill="#333"/></g><g clip-path="url(#aw)"><path d="m43.076 30.496c.375.225.525.45.15.9-.3.451-.45.451-.9.15zm.826-3.377-3.302 4.352 1.35.976c.901.675 1.576.75 2.327-.3.75-.976.675-1.576-.375-2.327l-.226-.15 1.276-1.726z" fill="#333"/></g><g clip-path="url(#ax)"><path d="m46.903 29.445-3.227 4.278 2.477 1.876.6-.901-1.276-.975.526-.751 1.125.826.676-.901-1.126-.825.676-.826 1.425 1.051.676-.976z" fill="#333"/></g><g clip-path="url(#ay)"><path d="m50.055 33.648c.225-.301.375-.301.601-.151.15.151.225.301 0 .601l-.301.45-.3-.225-.6.75 1.426 1.126 1.801-2.401-.601-.451-.3.075c-.075-.375-.3-.675-.6-.9-1.126-.826-1.801-.525-3.077 1.201-1.201 1.651-1.276 2.551-.15 3.377.6.45 1.351.6 1.951.225.15-.075.375-.3.6-.676l-1.125-.825-.225.225c-.15.3-.376.3-.526.15-.225-.15-.225-.3-.075-.6z" fill="#333"/></g><g clip-path="url(#az)"><path d="m15.76.7027c.375.3002.525.4503.15.9756-.301.3752-.526.3752-.901.075zm.825-3.302-3.302 4.3526 1.276.9006c.975.7504 1.651.7504 2.401-.2252.751-.9755.676-1.5759-.375-2.401406l-.225-.150094 1.276-1.651z" fill="#333"/></g><g clip-path="url(#aA)"><path d="m19.587-.34793-3.302 4.35263 2.476 1.8761.676-.9005-1.276-1.0507.525-.6754 1.126.8255.675-.9755-1.125-.8255.675-.8255 1.351 1.0506.75-.9006z" fill="#333"/></g><g clip-path="url(#aB)"><path d="m22.739 3.9296c.15-.3001.375-.3001.525-.15.225.075.225.3001.075.5253l-.3.4502-.3-.2251-.601.8255 1.426 1.0506 1.801-2.4014-.6-.3752-.375.075c-.075-.3752-.225-.6754-.601-.9005-1.125-.9006-1.726-.5253-3.001 1.2007-1.201 1.5759-1.276 2.4765-.151 3.302.601.5253 1.276.6754 1.877.3002.225-.1501.375-.3753.675-.6754l-1.126-.9006-.225.3002c-.225.2251-.375.2251-.6.1501-.15-.1501-.15-.3752 0-.6004z" fill="#333"/></g><g clip-path="url(#aC)"><path d="m26.041 4.53-3.302 4.3526 1.125.8255 3.302-4.3526z" fill="#333"/></g><g clip-path="url(#aD)"><path d="m28.442 10.309c.375.225.525.45.15.9-.3.45-.525.45-.9.15zm.826-3.3025-3.302 4.2775 1.275.976c.976.675 1.651.75 2.402-.301.75-.975.675-1.575-.375-2.3259l-.225-.1501 1.275-1.651z" fill="#333"/></g><g clip-path="url(#aE)"><path d="m32.269 9.2579-3.226 4.2771 2.401 1.877.675-.901-1.275-.976.525-.75 1.126.825.675-.9-1.126-.826.676-.825 1.351 1.051.75-.976z" fill="#333"/></g><g clip-path="url(#aF)"><path d="m35.421 13.46c.226-.3.376-.3.601-.15.15.15.225.3 0 .601l-.3.45-.301-.225-.6.75 1.426 1.126 1.801-2.402-.6-.45-.301.075c-.075-.375-.3-.675-.6-.9-1.201-.826-1.801-.451-3.077 1.2-1.201 1.651-1.276 2.552-.15 3.377.6.451 1.276.601 1.876.226.225-.075.375-.301.676-.676l-1.126-.825-.225.225c-.15.3-.375.3-.525.15-.226-.15-.226-.3-.076-.6z" fill="#333"/></g><g clip-path="url(#aG)"><path d="m38.723 14.061-3.302 4.352 1.201.826 3.227-4.278z" fill="#333"/></g><g clip-path="url(#aH)"><path d="m41.125 19.839c.375.3.525.451.15.976-.3.375-.45.375-.901.075zm.825-3.302-3.302 4.278 1.276.975c.976.751 1.651.751 2.402-.225.75-.975.675-1.576-.376-2.401l-.225-.15 1.276-1.651z" fill="#333"/></g><g clip-path="url(#aI)"><path d="m44.952 18.789-3.227 4.352 2.477 1.876.675-.9-1.351-1.051.526-.675 1.125.825.676-.975-1.126-.826.675-.825 1.426 1.05.676-.9z" fill="#333"/></g><g clip-path="url(#aJ)"><path d="m48.104 22.991c.225-.225.375-.225.6-.075.15.075.226.3 0 .525l-.3.451-.3-.225-.6.825 1.426 1.051 1.801-2.402-.601-.45-.3.15c-.075-.375-.3-.675-.6-.976-1.126-.825-1.801-.45-3.077 1.276-1.201 1.576-1.276 2.477-.15 3.302.6.451 1.276.676 1.951.3.15-.15.375-.375.6-.675l-1.125-.901-.226.301c-.15.225-.375.225-.525.075-.225-.075-.225-.3-.075-.526z" fill="#333"/></g><g clip-path="url(#aK)"><path d="m51.406 23.667-3.302 4.277 1.201.901 3.227-4.353z" fill="#333"/></g><g clip-path="url(#aL)"><path d="m26.491-.34793c.375.300185.525.45027.15.97559-.3.37524-.525.37524-.9.07504zm.825-3.30197-3.302 4.3526 1.276.9005c.976.7505 1.651.7505 2.402-.2251.75-.97558.675-1.57594-.376-2.4014l-.225-.1501 1.276-1.651z" fill="#333"/></g><g clip-path="url(#aM)"><path d="m30.318-1.3986-3.227 4.3527 2.402 1.8761.675-.9006-1.276-1.0506.526-.6754 1.125.8255.676-.9756-1.126-.8255.676-.82548 1.35 1.05068.751-.90059z" fill="#333"/></g><g clip-path="url(#aN)"><path d="m33.47 2.804c.225-.2252.375-.2252.601-.0751.15.0751.225.3002 0 .5253l-.301.4503-.3-.2251-.6.8255 1.426 1.0506 1.801-2.4014-.601-.3753-.3.0751c-.075-.3752-.3-.6754-.6-.9006-1.201-.9005-1.801-.5253-3.077 1.2008-1.201 1.5759-1.276 2.4765-.15 3.302.6.5253 1.276.6754 1.876.3001.225-.1501.375-.3752.675-.6754l-1.125-.9005-.225.3002c-.15.2251-.376.2251-.526.1501-.225-.1501-.225-.3753-.075-.6004z" fill="#333"/></g><g clip-path="url(#aO)"><path d="m36.772 3.4794-3.302 4.3526 1.201.8255 3.227-4.3526z" fill="#333"/></g><g clip-path="url(#aP)"><path d="m39.174 9.2579c.375.2251.525.4502.15.9001-.3.451-.451.451-.901.151zm.825-3.3771-3.302 4.3522 1.276.976c.976.675 1.651.75 2.401-.3.751-.9757.676-1.5761-.375-2.3265l-.225-.1501 1.276-1.651z" fill="#333"/></g><g clip-path="url(#aQ)"><path d="m43.001 8.2072-3.227 4.2778 2.477 1.876.675-.901-1.351-.975.525-.751 1.126.826.676-.901-1.126-.825.675-.826 1.426 1.051.675-.976z" fill="#333"/></g><g clip-path="url(#aR)"><path d="m46.153 12.41c.225-.3.375-.3.6-.15.15.15.225.3 0 .6l-.3.45-.3-.225-.601.751 1.426 1.125 1.801-2.401-.6-.45-.3.075c-.075-.376-.3-.676-.6-.901-1.126-.825-1.802-.45-3.077 1.201-1.201 1.651-1.276 2.551-.15 3.377.6.45 1.35.6 1.951.225.15-.075.375-.3.6-.675l-1.126-.826-.225.225c-.15.3-.375.3-.525.15-.225-.15-.225-.3-.075-.6z" fill="#333"/></g><g clip-path="url(#aS)"><path d="m49.455 13.01-3.302 4.353 1.201.825 3.227-4.277z" fill="#333"/></g><g clip-path="url(#aT)"><path d="m51.931 18.789c.301.3.451.45.075.975-.3.375-.45.375-.9.075zm.751-3.302-3.227 4.277 1.276.976c.9.75 1.576.75 2.401-.225.751-.976.6-1.576-.45-2.402l-.15-.15 1.275-1.651z" fill="#333"/></g><g clip-path="url(#aU)"><path d="m37.973-.7982c.375.22513.525.45027.15.90054-.3.45027-.525.45027-.901.15009zm.825-3.377-3.302 4.35258 1.276.97562c.976.6754 1.651.7504 2.402-.3002.75-.9756.675-1.57596-.376-2.3264l-.225-.1501 1.276-1.726z" fill="#333"/></g><g clip-path="url(#aV)"><path d="m41.8-1.8488-3.227 4.2775 2.402 1.8762.675-.9006-1.276-.9756.526-.7504 1.125.8255.676-.9006-1.126-.82545.676-.825495 1.35 1.050645.751-.975606z" fill="#333"/></g><g clip-path="url(#aW)"><path d="m44.952 2.3537c.225-.3002.375-.3002.6-.1501.151.1501.226.3002 0 .6004l-.3.4502-.3-.2251-.6.7505 1.426 1.1256 1.801-2.4014-.601-.4503-.3.0751c-.15-.3753-.3-.6754-.675-.9006-1.126-.82548-1.726-.5253-3.002 1.2007-1.201 1.651-1.276 2.5516-.15 3.3771.6.4503 1.276.6003 1.876.2251.225-.075.375-.3002.675-.6754l-1.125-.8255-.225.2251c-.15.3002-.376.3002-.526.1501-.225-.1501-.225-.3001-.075-.6003z" fill="#333"/></g><g clip-path="url(#aX)"><path d="m48.254 2.9541-3.302 4.3526 1.126.8255 3.302-4.2776z" fill="#333"/></g><g clip-path="url(#aY)"><path d="m50.656 8.7326c.375.3001.525.4502.15.9755-.301.3749-.451.3749-.901.0751zm.825-3.302-3.302 4.2775 1.276.9759c.975.75 1.651.75 2.401-.225.751-1.051.676-1.5764-.375-2.4019l-.225-.15 1.276-1.651z" fill="#333"/></g></g></g><path d="m0 506.34645h506v-506.34645h-506zm9.8769216-497.2285209h486.2521184v486.5844109h-486.2521184z"/><path d="m0 506.34645h506v-81.35062h-506z"/><g fill="#fff"><path d="m456.61488 223.52098-171.70388 60.05677 7.59304-6.07862c15.19619-12.16737 17.47411-34.97232 4.56594-50.17901-12.15898-14.44685-33.42961-17.48616-48.62581-6.07861l-21.27063 15.9665s-8.36247 5.3188-15.9555 10.63759l-13.67759-38.01164 240.08171-82.87185 27.35518 79.07271c2.27791 7.59828-1.5186 15.20669-8.36246 17.48616zm-134.47775 83.63169c-5.31513 1.51965-9.11165 0-11.38956-3.03932l-3.04734-9.88788 16.71481-5.31879c3.04734 6.83844 4.56595 15.20667-2.27791 18.24599zm-37.22613 15.96651c-4.55582.75982-9.12177-2.27949-10.64038-6.84858 0-.75983 0-.75983-.7593-1.51966l-2.27791-8.3581 18.99271-6.08876 3.80665 12.16738c.7593 5.32893-3.80665 9.88789-9.12177 10.64772zm-34.94822 11.40753c-4.55582 1.51966-9.88107.75984-12.91829-3.04943.75931-1.51966 1.5186-3.03931 2.27791-5.3188l9.88108-12.16736 3.79651-1.51966 3.03721 8.36823c1.51862 5.31879-.75929 10.63759-6.07442 13.68702zm-59.26619-193.87757 213.49597-73.743795c6.84385-3.049443 15.19619.759825 17.47411 8.358103l3.03721 9.128059-184.62217 63.855903h-.75931l-54.70024 18.25612-3.03721-9.12805c-2.2779-6.83846 1.51861-14.44686 9.11164-16.72634zm290.99556 60.06689-43.31068-130.771372c-5.31513-16.726336-23.54854-25.854395-39.50405-19.76565l-213.49594 73.743792c-15.19621 4.55897-23.54854 19.76564-21.27064 34.97233-1.5186 0-2.2779 0-3.79652.75982-23.55865 3.79914-43.31067 17.48616-55.46967 38.01164l-75.973897 133.81069c-3.039239 4.56909-.759304 9.88788 3.798544 12.9272 4.558859 2.27947 9.877022.75982 12.916262-3.79914l75.973901-133.05087c9.12178-15.9665 24.31798-26.61422 41.79209-29.65353 2.2779 0 4.55582-.75983 6.83372-.75983l27.35518 82.87186c-7.60316 4.55897-15.9555 8.36823-24.31797 10.64771-5.31512 1.51966-8.35234 6.83845-6.83373 11.39742.7593 5.32892 6.07443 8.36823 11.39967 6.84858 9.11165-2.27949 17.47412-5.32893 25.82646-10.64772 1.51861-.75983 3.79651-1.51965 5.31513-3.03932 1.52873-1.51965 3.80664-2.27947 5.32525-3.79912l4.55582-3.79914 41.02265-31.93302c7.60316-5.32892 18.24353-3.80927 23.55866 3.03931 6.07443 7.59828 4.55582 18.24599-3.03721 23.56478l-34.18892 27.37405c-13.6776 10.63758-24.31797 25.84427-29.63309 42.57061-7.60316 22.81508-25.83658 39.54141-49.38512 45.62004l-3.03722.75983c-11.39968 3.03931-22.79935 8.36823-32.6703 15.96651-3.79652 3.79912-4.55582 9.12805-1.51861 13.686 3.79652 3.80117 9.11164 4.56201 13.67759 1.52067 7.59304-6.07862 15.95551-9.88788 25.82646-12.16737l2.27791-.75983c16.7148-4.55896 31.911-13.68702 44.06998-26.60409l12.15899-18.24599c.7593-.75983 1.5186-2.28961 2.27791-3.04944 9.11164 5.32892 21.27063 6.84857 30.39239.75983 4.55583-2.27949 7.59304-6.07862 10.63026-10.63758 14.43689 7.59826 31.911 1.51965 38.74474-12.92721 0-.75983.76942-1.51965.76942-2.27948 4.55582.75983 10.63025.75983 17.47411-1.51965 16.71481-4.55896 14.42677-25.09457 10.63025-38.7816l123.0882-43.33043c16.7148-5.31879 25.06715-22.80495 19.75202-39.53129z"/><path d="m485.48867 48.649228h-4.55583v-22.804963l-8.36245 22.804963h-3.79652l-7.60317-22.804963v22.804963h-4.55581v-28.883579h7.60316l6.83373 21.285301h.75931l6.84385-21.285301h6.83373zm-31.91101-28.883579v3.039313h-8.35233v25.844266h-4.56595v-25.844266h-8.35234v-3.039313z"/><path d="m91.170231 437.92146c-12.915251 0-13.674212 12.16305-13.674212 27.36871 0 14.44584.759188 27.37076 11.395515 27.37076 3.039241 0 6.079005-.76037 8.357928-5.32238v4.56348h7.594988v-28.89056h-12.9133v9.88384h3.039615v3.03961c0 4.562-.760691 6.84217-3.039615 6.84217-3.039241 0-3.039616-3.80084-3.039616-6.84217v-22.04838c0-3.04134.000375-6.08126 3.039616-6.08125 1.51962 0 2.278697 2.28009 2.278697 6.08125v1.51981h10.634603c0-9.88383-2.27859-17.48489-13.674219-17.48489zm240.847939 0c-13.67759 0-13.67826 11.40322-13.67826 27.36871 0 16.72634.00067 27.37076 13.67826 27.37076 9.87095 0 13.67829-6.84147 13.67829-19.76562v-3.04165h-10.6407v3.80053c0 6.8425-.75967 9.1229-3.03759 9.1229-2.2779 0-3.03757-2.28125-3.03757-17.48692 0-15.20566.75967-17.48489 3.03757-17.48488 2.27792 0 2.2787 3.80076 2.2787 6.08125v4.56146h10.63867v-3.80054c0-8.36316-.75838-16.726-12.91737-16.726zm92.68597 0c-4.55583 0-6.83485 1.52098-9.11276 3.04165-2.27791 2.28049-3.79647 6.84186-3.79647 13.68435 0 8.36317 1.51853 10.6442 7.59294 15.2062 2.27792.75982 3.79769 2.2808 5.31629 3.04165 1.5186 1.51965 2.27666 2.279 2.27666 5.32034 0 2.28049-.75806 4.56144-2.27666 4.56144-2.27791 0-3.03759-2.28095-3.03759-4.56144v-2.28073h-10.63053v1.51981c0 11.4045 4.55689 15.2062 12.90923 15.2062 10.64038 0 14.43716-4.56175 14.43716-17.48694 0-18.24699-15.95697-12.92451-15.95697-23.56817 0-2.2805.76009-3.80053 2.2787-3.80053 1.5186 0 2.27666 2.27986 2.27666 3.80053v2.28072h10.64069c0-8.36316-2.27697-15.96508-12.91735-15.96508zm56.98772 0c-3.80664 0-6.84338 1.52098-8.36198 3.04165-3.03722 2.28049-4.55537 6.84186-4.55537 13.68435 0 8.36317 2.27741 10.6442 8.35184 15.2062 1.52873.75982 3.8058 2.2808 5.32441 3.04165 1.51861 1.51965 2.2787 2.279 2.2787 5.32034 0 2.28049-.75968 4.56144-3.0376 4.56144-1.51859 0-2.27665-2.28095-2.27665-4.56144v-2.28073h-10.6407v1.51981c0 11.4045 4.55489 15.2062 12.91735 15.2062 9.87095 0 14.43717-4.56175 14.43717-17.48694 0-18.24699-16.71382-12.92451-16.71382-23.56817 0-2.2805.75806-3.80053 2.27665-3.80053 2.27792 0 3.0376 2.27986 3.0376 3.80053v2.28072h9.87164c0-8.36316-1.51967-15.96508-12.90924-15.96508zm-471.8141027.75889v53.22168h11.3955147v-53.22168zm15.1940197 0v53.22168h9.877738v-32.69311l6.077202 32.69311h12.156434v-53.22168h-10.636626v32.69311l-5.318313-32.69311zm90.413363 0-9.12089 53.22168h11.39959l.75888-8.36401h7.60309l1.51779 8.36401h11.38941l-9.86962-53.22168zm25.06769 0v53.22168h10.64069v-38.77438l4.55537 38.77438h8.36198l4.55537-38.77438v38.77438h10.64068v-53.22168h-15.95493l-3.03759 32.69311h-.75889l-3.04774-32.69311zm43.30944 0v53.22168h24.30881v-12.16455h-13.66811v-9.12493h12.14832v-11.40363h-12.14832v-8.36402h12.90923v-12.16455zm41.78154 0v53.22168h11.40161v-19.76765h3.03555c7.60316 0 12.91937-5.32353 12.91937-16.72803s-4.5569-16.726-12.91937-16.726zm30.39412 0v34.97384c0 12.92517 3.03587 19.00674 13.67624 19.00674 9.88107 0 13.67828-6.08157 13.67828-19.00674v-34.97384h-11.39958v38.01549c0 4.562-.00079 6.08125-2.2787 6.08125s-2.27666-1.51925-2.27666-6.08125v-38.01549zm31.15099 0v53.22168h11.39957v-21.28948h1.51778c2.27791 0 3.03759.76138 3.03759 5.32237v8.36199c0 2.2815.7605 6.08446 1.51981 7.60512h11.39957v-.76091l-1.51981-1.51981v-6.84422-3.80053c0-3.04134.00083-6.84241-1.51778-9.1229-.7593-2.28151-3.04852-3.80264-5.32643-4.56349 3.80664-.75982 6.84421-3.79934 6.84421-12.16252 0-9.124-3.03753-14.4473-10.64069-14.4473zm61.54309 0v53.22168h10.63054v-21.28948h5.32643v21.28948h11.38942v-53.22168h-11.38942v19.00876h-5.32643v-19.00876zm38.74597 0-9.11277 53.22168h10.63054l1.51981-8.36401h6.84422l1.51777 8.36401h11.38943l-9.11073-53.22168zm54.70091 0v53.22168h23.55803v-12.16455h-12.91937v-9.12493h12.16048v-11.40363h-12.16048v-8.36402h12.91937v-12.16455zm-205.13347 10.64475h.75889c3.03721 0 3.79647 2.28009 3.79647 6.08125 0 5.32183-1.51857 6.08329-3.79647 6.08329h-.75889zm61.54308 0h.75889c2.27791 0 4.55536 1.52019 4.55536 5.32236 0 5.32183-2.27786 6.84218-3.79647 6.84218h-1.51778zm-176.26931 1.5198 3.03759 21.28948h-5.31628zm272.00301 0 2.27666 21.28948h-5.3244zm-337.340544 13.68638v11.40364h17.474746v-11.40364z"/></g></svg>