<svg enable-background="new 0 0 483.728 483.732" height="316.227766" viewBox="0 0 483.728 483.732" width="316.227766" xmlns="http://www.w3.org/2000/svg" xmlns:xlink="http://www.w3.org/1999/xlink"><clipPath id="a"><path d="m0 0h483.728v483.732h-483.728z"/></clipPath><clipPath id="b"><path d="m0 0h484.473v485.521h-484.473z"/></clipPath><clipPath id="c"><path d="m0 0h483.728v483.732h-483.728z"/></clipPath><clipPath id="d"><path d="m0 0h484.473v485.521h-484.473z"/></clipPath><clipPath id="e"><path d="m0 0h483.728v483.732h-483.728z"/></clipPath><clipPath id="f"><path d="m0 0h484.473v485.521h-484.473z"/></clipPath><clipPath id="g"><path d="m0 0h483.728v483.732h-483.728z"/></clipPath><clipPath id="h"><path d="m0 0h484.473v485.521h-484.473z"/></clipPath><clipPath id="i"><path d="m0 0h483.728v483.732h-483.728z"/></clipPath><clipPath id="j"><path d="m0 0h484.473v485.521h-484.473z"/></clipPath><clipPath id="k"><path d="m0 0h483.728v483.732h-483.728z"/></clipPath><clipPath id="l"><path d="m0 0h484.473v485.521h-484.473z"/></clipPath><clipPath id="m"><path d="m0 0h483.728v483.732h-483.728z"/></clipPath><clipPath id="n"><path d="m0 0h484.473v485.521h-484.473z"/></clipPath><clipPath id="o"><path d="m0 0h483.728v483.732h-483.728z"/></clipPath><clipPath id="p"><path d="m0 0h484.473v485.521h-484.473z"/></clipPath><clipPath id="q"><path d="m0 0h483.728v483.732h-483.728z"/></clipPath><clipPath id="r"><path d="m0 0h484.473v485.521h-484.473z"/></clipPath><path d="m0 0h483.728v483.732h-483.728z"/><g fill="#58585a"><path d="m-.004 98.983 7.845-5.902-7.845-10.403z"/><path clip-path="url(#a)" d="m28.073 77.837-31.446-41.741 12.383-9.332c8.921-6.713 15.849-7.202 23.154 2.501 7.281 9.644 6.261 15.248-3.834 22.851l-1.91 1.439 12.262 16.269zm-7.519-32.066c3.541-2.674 4.636-4.496 1.137-9.149-2.986-3.941-4.621-4.077-8.758-.974z"/><path clip-path="url(#a)" d="m57.297 55.807-31.446-41.724 23.862-17.987 6.476 8.609-12.849 9.681 5.339 7.081 10.622-7.994 6.755 8.949-10.622 8.004 6.126 8.138 13.51-10.179 6.746 8.95z"/><path clip-path="url(#a)" d="m87.85 15.104c1.882 2.501 3.806 2.604 5.516 1.328 1.71-1.291 2.138-3.168.256-5.679l-3.107-4.123-2.758 2.073-5.87-7.785 13.77-10.385 17.479 23.196-5.642 4.244-3.243-1.011c-.801 3.704-2.585 6.508-5.87 8.991-10.953 8.232-16.897 4.701-29.299-11.745-11.859-15.755-12.441-24.425-1.819-32.433 5.893-4.444 12.872-6.238 18.709-2.441 1.822 1.192 3.597 3.13 6.145 6.499l-11.023 8.297-1.84-2.441c-1.877-2.487-3.806-2.585-5.506-1.295-1.714 1.276-2.143 3.149-.266 5.646z"/><path clip-path="url(#a)" d="m119.538 8.907-31.446-41.732 11.008-8.293 31.451 41.733z"/><path clip-path="url(#a)" d="m9.215 180.478-31.446-41.742 12.383-9.332c8.922-6.727 15.849-7.202 23.168 2.502 7.258 9.644 6.238 15.248-3.857 22.851l-1.896 1.439 12.257 16.269zm-7.519-32.066c3.541-2.674 4.635-4.496 1.137-9.149-2.977-3.941-4.617-4.077-8.749-.974z"/><path d="m38.439 158.447-31.446-41.733 23.852-17.978 6.476 8.596-12.84 9.685 5.353 7.1 10.618-8.004 6.745 8.95-10.617 8.003 6.122 8.14 13.501-10.18 6.746 8.95z"/><path clip-path="url(#b)" d="m68.991 117.744c1.892 2.492 3.811 2.604 5.516 1.328 1.71-1.291 2.138-3.177.261-5.669l-3.121-4.132-2.749 2.073-5.87-7.785 13.771-10.384 17.479 23.196-5.642 4.244-3.243-1.011c-.801 3.694-2.585 6.508-5.87 8.991-10.953 8.232-16.897 4.701-29.299-11.745-11.861-15.756-12.443-24.426-1.821-32.443 5.898-4.435 12.872-6.229 18.718-2.432 1.813 1.192 3.587 3.13 6.136 6.499l-11.022 8.297-1.84-2.441c-1.877-2.488-3.797-2.595-5.502-1.305-1.709 1.276-2.147 3.159-.261 5.656z"/><path clip-path="url(#b)" d="m64.33 79.639h52.261v13.782h-52.261z" transform="matrix(.6017 .7987 -.7987 .6017 105.1423 -37.7881)"/><path clip-path="url(#b)" d="m131.925 88.003-31.441-41.742 12.387-9.332c8.921-6.713 15.844-7.202 23.163 2.511 7.263 9.644 6.243 15.248-3.853 22.851l-1.901 1.43 12.262 16.268zm-7.509-32.066c3.541-2.66 4.626-4.496 1.127-9.15-2.977-3.941-4.612-4.076-8.74-.974z"/><path clip-path="url(#c)" d="m161.149 65.981-31.45-41.732 23.862-17.988 6.48 8.61-12.853 9.68 5.352 7.091 10.622-7.995 6.746 8.95-10.622 7.994 6.135 8.139 13.501-10.179 6.746 8.958z"/><path clip-path="url(#c)" d="m191.71 25.269c1.892 2.502 3.806 2.604 5.507 1.328 1.714-1.29 2.147-3.167.266-5.679l-3.122-4.118-2.744 2.078-5.87-7.785 13.767-10.38 17.47 23.191-5.637 4.249-3.233-1.02c-.801 3.699-2.595 6.503-5.879 8.986-10.943 8.241-16.888 4.701-29.29-11.735-11.861-15.765-12.452-24.435-1.835-32.439 5.907-4.449 12.881-6.233 18.723-2.437 1.822 1.184 3.587 3.131 6.131 6.49l-11.008 8.311-1.84-2.455c-1.882-2.488-3.806-2.585-5.506-1.295-1.71 1.267-2.148 3.149-.256 5.646z"/><path clip-path="url(#c)" d="m223.399 19.073-31.456-41.742 11.018-8.293 31.447 41.742z"/><path clip-path="url(#c)" d="m-9.644 283.11-31.446-41.738 12.383-9.331c8.921-6.723 15.849-7.203 23.168 2.501 7.258 9.648 6.247 15.248-3.857 22.851l-1.896 1.436 12.266 16.268zm-7.519-32.062c3.541-2.674 4.64-4.491 1.137-9.15-2.977-3.95-4.617-4.071-8.749-.974z"/><path clip-path="url(#c)" d="m19.581 261.083-31.456-41.732 23.862-17.978 6.475 8.6-12.839 9.68 5.353 7.1 10.617-8.013 6.746 8.959-10.617 8.004 6.135 8.125 13.501-10.175 6.742 8.963z"/><path clip-path="url(#d)" d="m50.137 220.38c1.887 2.493 3.806 2.595 5.502 1.319 1.719-1.291 2.147-3.168.27-5.661l-3.121-4.127-2.749 2.068-5.865-7.785 13.767-10.379 17.479 23.191-5.642 4.249-3.233-1.025c-.811 3.704-2.595 6.518-5.875 8.991-10.957 8.241-16.897 4.71-29.303-11.735-11.861-15.756-12.439-24.435-1.831-32.43 5.907-4.439 12.881-6.243 18.728-2.446 1.813 1.184 3.587 3.131 6.136 6.508l-11.018 8.292-1.845-2.446c-1.877-2.497-3.806-2.595-5.502-1.304-1.719 1.276-2.147 3.149-.261 5.655z"/><path clip-path="url(#d)" d="m81.831 214.184-31.447-41.733 11.004-8.302 31.455 41.743z"/><path clip-path="url(#d)" d="m113.076 190.644-31.451-41.742 12.387-9.331c8.921-6.723 15.844-7.203 23.163 2.501 7.272 9.644 6.252 15.248-3.843 22.86l-1.91 1.43 12.271 16.268zm-7.519-32.066c3.541-2.669 4.635-4.496 1.132-9.15-2.972-3.95-4.617-4.076-8.749-.974z"/><path clip-path="url(#d)" d="m142.3 168.612-31.45-41.732 23.861-17.978 6.48 8.6-12.853 9.681 5.353 7.1 10.622-8.013 6.746 8.958-10.622 8.004 6.135 8.129 13.501-10.179 6.746 8.959z"/><path clip-path="url(#d)" d="m172.852 127.909c1.892 2.493 3.806 2.595 5.516 1.318 1.705-1.29 2.147-3.167.256-5.669l-3.107-4.118-2.758 2.068-5.87-7.785 13.767-10.379 17.479 23.191-5.627 4.249-3.243-1.02c-.811 3.699-2.595 6.513-5.879 8.986-10.953 8.241-16.897 4.715-29.299-11.735-11.861-15.751-12.443-24.435-1.822-32.439 5.894-4.439 12.868-6.233 18.719-2.437 1.813 1.184 3.587 3.131 6.136 6.499l-11.022 8.302-1.831-2.441c-1.892-2.502-3.806-2.595-5.516-1.309-1.705 1.276-2.148 3.149-.256 5.655z"/><path clip-path="url(#d)" d="m204.541 121.713-31.447-41.742 11.009-8.292 31.46 41.733z"/><path clip-path="url(#d)" d="m235.782 98.168-31.437-41.742 12.383-9.332c8.921-6.713 15.849-7.202 23.158 2.511 7.272 9.648 6.257 15.238-3.857 22.841l-1.887 1.44 12.262 16.268zm-7.519-32.066c3.55-2.66 4.631-4.496 1.137-9.149-2.977-3.941-4.607-4.077-8.74-.974z"/><path clip-path="url(#e)" d="m265.01 76.146-31.46-41.732 23.876-17.988 6.476 8.61-12.849 9.68 5.349 7.091 10.621-8.004 6.746 8.959-10.622 7.994 6.149 8.13 13.493-10.17 6.746 8.959z"/><path clip-path="url(#e)" d="m295.572 35.434c1.882 2.501 3.802 2.595 5.497 1.328 1.724-1.291 2.152-3.168.261-5.679l-3.111-4.118-2.739 2.078-5.88-7.794 13.78-10.379 17.479 23.2-5.646 4.249-3.243-1.034c-.811 3.713-2.59 6.518-5.87 8.991-10.947 8.241-16.892 4.71-29.294-11.735-11.86-15.756-12.447-24.426-1.835-32.443 5.897-4.435 12.867-6.229 18.709-2.432 1.836 1.192 3.588 3.14 6.141 6.499l-11.014 8.312-1.826-2.455c-1.9-2.497-3.82-2.586-5.516-1.295-1.715 1.267-2.143 3.149-.252 5.646z"/><path clip-path="url(#e)" d="m327.26 29.238-31.465-41.742 11.014-8.292 31.474 41.741z"/><path clip-path="url(#e)" d="m358.511 5.693-31.456-41.742 12.393-9.327c8.917-6.718 15.84-7.207 23.172 2.506 7.249 9.648 6.233 15.239-3.857 22.842l-1.91 1.439 12.271 16.277zm-7.519-32.066c3.531-2.66 4.622-4.491 1.137-9.15-2.981-3.941-4.621-4.072-8.749-.974z"/><path clip-path="url(#e)" d="m.722 363.724-31.437-41.733 23.853-17.973 6.48 8.591-12.853 9.689 5.353 7.101 10.617-8.014 6.745 8.954-10.617 8.004 6.136 8.144 13.501-10.185 6.746 8.954z"/><path clip-path="url(#f)" d="m31.288 323.025c1.877 2.488 3.797 2.6 5.502 1.323 1.709-1.285 2.147-3.177.261-5.665l-3.112-4.137-2.758 2.068-5.865-7.779 13.776-10.38 17.47 23.19-5.637 4.249-3.238-1.006c-.811 3.689-2.595 6.503-5.875 8.981-10.943 8.237-16.888 4.705-29.294-11.739-11.866-15.756-12.448-24.431-1.831-32.435 5.898-4.444 12.872-6.242 18.719-2.45 1.822 1.192 3.587 3.131 6.136 6.504l-11.018 8.302-1.831-2.441c-1.892-2.488-3.811-2.6-5.516-1.313-1.71 1.285-2.138 3.168-.261 5.665z"/><path clip-path="url(#f)" d="m62.967 316.82-31.446-41.742 11.018-8.292 31.446 41.742z"/><path clip-path="url(#f)" d="m94.218 293.285-31.437-41.742 12.383-9.336c8.912-6.723 15.849-7.202 23.154 2.498 7.272 9.652 6.261 15.252-3.843 22.855l-1.901 1.444 12.262 16.268zm-7.51-32.072c3.541-2.664 4.626-4.491 1.127-9.149-2.977-3.941-4.622-4.071-8.749-.969z"/><path clip-path="url(#f)" d="m123.442 271.249-31.437-41.733 23.852-17.974 6.476 8.596-12.849 9.685 5.349 7.086 10.622-7.994 6.745 8.94-10.621 8.013 6.135 8.133 13.501-10.173 6.745 8.944z"/><path clip-path="url(#f)" d="m154.003 230.545c1.882 2.492 3.806 2.604 5.507 1.328 1.719-1.286 2.147-3.177.256-5.679l-3.107-4.119-2.758 2.068-5.87-7.785 13.78-10.379 17.465 23.191-5.627 4.249-3.243-1.011c-.811 3.699-2.595 6.504-5.879 8.987-10.934 8.227-16.888 4.706-29.289-11.745-11.871-15.751-12.453-24.426-1.831-32.438 5.903-4.44 12.868-6.233 18.719-2.437 1.822 1.192 3.587 3.13 6.136 6.499l-11.022 8.302-1.831-2.441c-1.887-2.492-3.806-2.6-5.507-1.309-1.714 1.276-2.143 3.159-.265 5.656z"/><path clip-path="url(#f)" d="m185.682 224.349-31.437-41.732 11-8.302 31.46 41.742z"/><path clip-path="url(#f)" d="m216.938 200.799-31.451-41.728 12.396-9.331c8.912-6.718 15.844-7.207 23.154 2.506 7.263 9.648 6.252 15.248-3.843 22.851l-1.901 1.431 12.252 16.268zm-7.51-32.056c3.531-2.66 4.626-4.491 1.123-9.14-2.977-3.951-4.617-4.081-8.749-.983z"/><path clip-path="url(#f)" d="m246.152 178.787-31.442-41.733 23.853-17.982 6.48 8.604-12.853 9.686 5.353 7.076 10.622-7.984 6.746 8.94-10.622 8.003 6.13 8.139 13.511-10.18 6.745 8.959z"/><path clip-path="url(#f)" d="m276.713 138.075c1.882 2.501 3.82 2.604 5.516 1.328 1.705-1.286 2.134-3.168.242-5.679l-3.093-4.119-2.758 2.078-5.88-7.785 13.78-10.379 17.48 23.195-5.646 4.244-3.243-1.021c-.811 3.699-2.59 6.504-5.87 8.987-10.947 8.241-16.892 4.705-29.294-11.735-11.86-15.76-12.447-24.435-1.835-32.438 5.897-4.449 12.867-6.233 18.728-2.437 1.817 1.183 3.588 3.13 6.122 6.49l-11.014 8.311-1.826-2.451c-1.9-2.492-3.802-2.585-5.516-1.3-1.715 1.267-2.144 3.149-.252 5.646z"/><path clip-path="url(#f)" d="m308.402 131.878-31.437-41.741 10.986-8.293 31.473 41.742z"/><path clip-path="url(#f)" d="m339.653 108.333-31.456-41.742 12.393-9.327c8.917-6.718 15.858-7.207 23.172 2.506 7.268 9.648 6.233 15.248-3.857 22.851l-1.891 1.43 12.262 16.268zm-7.52-32.065c3.531-2.66 4.631-4.491 1.137-9.15-2.981-3.941-4.621-4.071-8.749-.974z"/><path clip-path="url(#f)" d="m368.863 86.312-31.438-41.733 23.872-17.987 6.466 8.609-12.839 9.681 5.348 7.09 10.622-7.994 6.746 8.949-10.622 7.995 6.121 8.139 13.511-10.18 6.745 8.959z"/><path clip-path="url(#g)" d="m399.443 45.599c1.863 2.502 3.801 2.604 5.497 1.328 1.705-1.291 2.152-3.168.261-5.679l-3.112-4.118-2.758 2.078-5.87-7.785 13.771-10.379 17.479 23.191-5.637 4.249-3.233-1.02c-.811 3.699-2.609 6.503-5.88 8.986-10.947 8.242-16.893 4.701-29.284-11.735-11.889-15.765-12.457-24.435-1.836-32.439 5.898-4.449 12.868-6.233 18.71-2.437 1.835 1.184 3.587 3.131 6.14 6.49l-11.013 8.311-1.836-2.455c-1.892-2.488-3.811-2.581-5.516-1.295-1.705 1.267-2.134 3.149-.271 5.646z"/><path clip-path="url(#g)" d="m431.103 39.403-31.436-41.733 11.012-8.301 31.456 41.742z"/><path clip-path="url(#g)" d="m462.354 15.863-31.438-41.742 12.383-9.331c8.917-6.709 15.85-7.203 23.163 2.506 7.277 9.648 6.262 15.248-3.848 22.851l-1.901 1.44 12.262 16.268zm-7.51-32.071c3.54-2.66 4.64-4.481 1.137-9.14-2.973-3.946-4.612-4.081-8.759-.974z"/><path clip-path="url(#g)" d="m-18.127 466.365-31.446-41.733 23.852-17.973 6.481 8.591-12.854 9.689 5.353 7.082 10.617-7.995 6.746 8.945-10.617 8.013 6.136 8.125 13.501-10.166 6.745 8.954z"/><path clip-path="url(#g)" d="m12.43 425.667c1.877 2.497 3.797 2.59 5.506 1.313 1.705-1.295 2.143-3.168.256-5.656l-3.112-4.137-2.758 2.068-5.865-7.779 13.767-10.371 17.479 23.182-5.628 4.249-3.247-1.016c-.811 3.699-2.595 6.513-5.875 8.982-10.943 8.246-16.888 4.705-29.294-11.73-11.866-15.766-12.448-24.44-1.831-32.435 5.898-4.444 12.881-6.242 18.719-2.45 1.826 1.192 3.587 3.131 6.136 6.504l-11.018 8.302-1.831-2.451c-1.891-2.479-3.811-2.59-5.516-1.304-1.71 1.285-2.138 3.168-.256 5.665z"/><path clip-path="url(#h)" d="m44.118 419.46-31.446-41.742 11.008-8.292 31.456 41.742z"/><path clip-path="url(#h)" d="m75.359 395.925-31.446-41.742 12.392-9.336c8.912-6.728 15.849-7.203 23.159 2.497 7.268 9.652 6.247 15.252-3.848 22.855l-1.896 1.444 12.257 16.268zm-7.509-32.071c3.541-2.664 4.626-4.49 1.127-9.149-2.977-3.95-4.617-4.071-8.749-.969z"/><path clip-path="url(#h)" d="m104.593 373.889-31.447-41.732 23.853-17.974 6.476 8.6-12.849 9.681 5.353 7.09 10.617-7.994 6.746 8.936-10.617 8.012 6.13 8.135 13.501-10.175 6.746 8.945z"/><path clip-path="url(#h)" d="m135.145 333.191c1.882 2.487 3.802 2.6 5.507 1.313 1.709-1.286 2.147-3.168.256-5.665l-3.107-4.118-2.758 2.068-5.87-7.789 13.78-10.38 17.479 23.2-5.642 4.239-3.243-1.016c-.811 3.69-2.595 6.514-5.879 8.982-10.934 8.246-16.888 4.715-29.289-11.74-11.871-15.746-12.453-24.43-1.831-32.434 5.907-4.436 12.881-6.233 18.719-2.432 1.822 1.183 3.587 3.131 6.136 6.494l-11.022 8.302-1.831-2.441c-1.887-2.497-3.806-2.59-5.516-1.305-1.705 1.277-2.133 3.149-.256 5.656z"/><path clip-path="url(#h)" d="m166.833 326.995-31.456-41.743 11.019-8.292 31.459 41.742z"/><path clip-path="url(#h)" d="m198.083 303.45-31.446-41.742 12.388-9.327c8.917-6.727 15.844-7.211 23.154 2.497 7.282 9.644 6.261 15.243-3.843 22.847l-1.901 1.444 12.262 16.259zm-7.514-32.071c3.536-2.675 4.626-4.491 1.123-9.15-2.977-3.95-4.607-4.071-8.749-.979z"/><path clip-path="url(#h)" d="m227.303 281.414-31.442-41.733 23.853-17.973 6.48 8.595-12.853 9.686 5.353 7.099 10.612-8.008 6.746 8.95-10.613 8.003 6.136 8.143 13.497-10.183 6.764 8.954z"/><path clip-path="url(#h)" d="m257.855 240.71c1.892 2.492 3.82 2.595 5.516 1.319 1.705-1.286 2.134-3.168.261-5.665l-3.111-4.123-2.758 2.068-5.861-7.785 13.762-10.379 17.479 23.195-5.627 4.245-3.262-1.007c-.811 3.689-2.581 6.504-5.87 8.973-10.938 8.246-16.893 4.715-29.293-11.735-11.861-15.751-12.443-24.435-1.835-32.439 5.916-4.439 12.886-6.233 18.737-2.432 1.808 1.179 3.578 3.126 6.112 6.494l-10.995 8.302-1.845-2.441c-1.882-2.493-3.802-2.595-5.502-1.309-1.728 1.281-2.157 3.159-.266 5.66z"/><path clip-path="url(#h)" d="m289.543 234.515-31.436-41.743 10.985-8.292 31.474 41.742z"/><path clip-path="url(#h)" d="m320.794 210.969-31.456-41.732 12.393-9.332c8.916-6.718 15.858-7.202 23.172 2.506 7.268 9.648 6.233 15.239-3.857 22.842l-1.892 1.439 12.253 16.268zm-7.519-32.061c3.531-2.66 4.621-4.491 1.137-9.14-2.981-3.946-4.621-4.081-8.749-.983z"/><path clip-path="url(#h)" d="m350.004 188.953-31.437-41.733 23.872-17.983 6.476 8.605-12.85 9.685 5.349 7.086 10.622-7.994 6.746 8.949-10.622 7.995 6.131 8.138 13.501-10.179 6.745 8.958z"/><path clip-path="url(#h)" d="m380.584 148.24c1.863 2.502 3.801 2.6 5.497 1.328 1.695-1.286 2.152-3.168.261-5.674l-3.112-4.123-2.758 2.078-5.86-7.794 13.762-10.379 17.479 23.205-5.628 4.244-3.242-1.02c-.811 3.699-2.609 6.508-5.87 8.977-10.948 8.241-16.893 4.715-29.294-11.735-11.88-15.751-12.448-24.426-1.836-32.439 5.898-4.439 12.867-6.233 18.71-2.437 1.835 1.193 3.587 3.14 6.14 6.499l-11.013 8.311-1.826-2.45c-1.901-2.493-3.82-2.586-5.517-1.3-1.714 1.272-2.143 3.149-.27 5.651z"/><path clip-path="url(#h)" d="m412.273 142.044-31.466-41.742 11.014-8.293 31.456 41.742z"/><path clip-path="url(#i)" d="m443.504 118.503-31.437-41.742 12.392-9.331c8.898-6.718 15.83-7.207 23.145 2.506 7.277 9.648 6.262 15.238-3.829 22.841l-1.91 1.44 12.252 16.277zm-7.5-32.07c3.531-2.66 4.621-4.491 1.118-9.15-2.964-3.941-4.612-4.072-8.749-.974z"/><path clip-path="url(#i)" d="m472.733 96.477-31.437-41.733 23.853-17.982 6.466 8.604-12.839 9.686 5.348 7.086 10.622-7.994 6.746 8.949-10.622 7.994 6.14 8.139 13.491-10.18 6.747 8.959z"/><path clip-path="url(#i)" d="m503.294 55.765c1.882 2.501 3.82 2.595 5.516 1.328 1.705-1.286 2.134-3.168.242-5.679l-3.093-4.119-2.758 2.078-5.889-7.794 13.789-10.379 17.479 23.205-5.655 4.244-3.233-1.021c-.811 3.699-2.59 6.504-5.879 8.987-10.948 8.232-16.893 4.705-29.285-11.745-11.87-15.751-12.457-24.426-1.835-32.438 5.897-4.44 12.886-6.233 18.728-2.437 1.817 1.192 3.587 3.14 6.122 6.499l-11.014 8.311-1.835-2.451c-1.892-2.492-3.793-2.585-5.517-1.3-1.705 1.267-2.134 3.149-.251 5.646z"/><path clip-path="url(#i)" d="m25.26 522.101-31.447-41.723 11.009-8.311 31.446 41.742z"/><path clip-path="url(#i)" d="m56.501 498.566-31.437-41.742 12.383-9.336c8.921-6.709 15.849-7.203 23.168 2.497 7.258 9.652 6.247 15.252-3.857 22.855l-1.896 1.444 12.257 16.268zm-7.51-32.071c3.541-2.664 4.64-4.49 1.137-9.149-2.977-3.95-4.617-4.071-8.749-.969z"/><path clip-path="url(#j)" d="m85.734 476.53-31.455-41.724 23.862-17.982 6.475 8.599-12.839 9.691 5.353 7.081 10.617-7.994 6.746 8.945-10.618 8.013 6.126 8.133 13.497-10.183 6.746 8.944z"/><path clip-path="url(#j)" d="m116.291 435.822c1.887 2.507 3.806 2.609 5.501 1.333 1.719-1.286 2.148-3.168.271-5.675l-3.122-4.118-2.749 2.068-5.865-7.789 13.767-10.38 17.479 23.2-5.642 4.239-3.243-1.016c-.801 3.709-2.585 6.514-5.865 8.992-10.958 8.227-16.897 4.705-29.303-11.75-11.861-15.746-12.439-24.421-1.831-32.434 5.907-4.444 12.881-6.233 18.728-2.432 1.812 1.192 3.587 3.131 6.136 6.494l-11.018 8.302-1.845-2.441c-1.877-2.497-3.806-2.59-5.502-1.305-1.719 1.286-2.148 3.149-.261 5.656z"/><path clip-path="url(#j)" d="m147.979 429.635-31.46-41.742 11.023-8.292 31.455 41.742z"/><path clip-path="url(#j)" d="m179.23 406.09-31.451-41.742 12.388-9.327c8.921-6.727 15.844-7.211 23.163 2.497 7.272 9.644 6.252 15.244-3.853 22.847l-1.901 1.444 12.262 16.259zm-7.519-32.07c3.541-2.675 4.635-4.491 1.132-9.15-2.972-3.941-4.617-4.071-8.749-.978z"/><path clip-path="url(#j)" d="m208.454 384.054-31.446-41.722 23.852-17.984 6.476 8.61-12.839 9.68 5.353 7.072 10.617-7.994 6.745 8.945-10.622 8.012 6.127 8.144 13.501-10.184 6.736 8.954z"/><path clip-path="url(#j)" d="m238.997 343.356c1.892 2.497 3.815 2.609 5.516 1.323 1.705-1.286 2.144-3.168.261-5.665l-3.112-4.137-2.758 2.068-5.861-7.78 13.762-10.38 17.479 23.191-5.627 4.249-3.262-1.007c-.782 3.69-2.581 6.504-5.852 8.982-10.966 8.236-16.911 4.705-29.303-11.74-11.861-15.756-12.443-24.431-1.822-32.443 5.894-4.435 12.867-6.233 18.709-2.432 1.812 1.192 3.587 3.121 6.145 6.494l-11.022 8.302-1.849-2.441c-1.868-2.487-3.788-2.58-5.498-1.295-1.705 1.276-2.147 3.149-.256 5.646z"/><path clip-path="url(#j)" d="m270.685 337.151-31.446-41.724 11.013-8.293 31.456 41.724z"/><path clip-path="url(#j)" d="m301.936 313.615-31.438-41.732 12.374-9.346c8.916-6.708 15.858-7.193 23.172 2.516 7.268 9.644 6.252 15.243-3.857 22.847l-1.892 1.435 12.262 16.269zm-7.519-32.071c3.55-2.665 4.631-4.491 1.137-9.149-2.981-3.951-4.603-4.072-8.749-.97z"/><path clip-path="url(#j)" d="m331.146 291.588-31.438-41.732 23.872-17.974 6.475 8.605-12.848 9.677 5.348 7.081 10.622-7.995 6.745 8.955-10.621 7.994 6.131 8.134 13.51-10.175 6.746 8.964z"/><path clip-path="url(#j)" d="m361.725 250.872c1.883 2.516 3.802 2.608 5.498 1.332 1.724-1.286 2.152-3.168.261-5.674l-3.112-4.119-2.739 2.069-5.879-7.78 13.78-10.38 17.461 23.191-5.628 4.248-3.242-1.024c-.811 3.708-2.609 6.513-5.87 8.991-10.948 8.246-16.893 4.705-29.294-11.73-11.861-15.765-12.448-24.44-1.836-32.443 5.898-4.449 12.867-6.233 18.71-2.432 1.835 1.178 3.587 3.126 6.14 6.485l-11.013 8.311-1.826-2.441c-1.901-2.501-3.82-2.595-5.517-1.309-1.714 1.281-2.143 3.149-.251 5.661z"/><path clip-path="url(#j)" d="m393.415 244.684-31.466-41.737 11.013-8.288 31.456 41.733z"/><path clip-path="url(#j)" d="m424.646 221.135-31.437-41.723 12.392-9.341c8.917-6.708 15.84-7.203 23.173 2.506 7.249 9.648 6.233 15.248-3.857 22.851l-1.91 1.425 12.252 16.273zm-7.5-32.061c3.531-2.66 4.621-4.491 1.117-9.15-2.963-3.946-4.603-4.072-8.729-.969z"/><path clip-path="url(#k)" d="m453.875 199.113-31.437-41.723 23.853-17.983 6.465 8.605-12.82 9.676 5.348 7.086 10.603-7.995 6.746 8.95-10.603 8.008 6.122 8.125 13.491-10.17 6.746 8.958z"/><path clip-path="url(#k)" d="m484.436 158.405c1.882 2.511 3.811 2.609 5.516 1.328 1.705-1.286 2.134-3.168.261-5.679l-3.111-4.119-2.759 2.078-5.869-7.785 13.771-10.38 17.471 23.196-5.646 4.244-3.233-1.021c-.792 3.699-2.59 6.504-5.86 8.987-10.948 8.241-16.911 4.705-29.304-11.735-11.87-15.76-12.457-24.435-1.835-32.429 5.916-4.458 12.886-6.243 18.728-2.446 1.817 1.183 3.587 3.131 6.122 6.49l-10.995 8.311-1.854-2.441c-1.873-2.501-3.793-2.595-5.498-1.309-1.705 1.277-2.152 3.149-.27 5.661z"/><path clip-path="url(#k)" d="m160.362 508.731-31.451-41.742 12.397-9.327c8.912-6.727 15.849-7.211 23.154 2.507 7.282 9.644 6.252 15.243-3.843 22.847l-1.91 1.443 12.271 16.269zm-7.519-32.07c3.541-2.656 4.635-4.491 1.137-9.15-2.977-3.94-4.622-4.071-8.75-.959z"/><path clip-path="url(#k)" d="m189.586 486.705-31.455-41.733 23.871-17.973 6.476 8.599-12.849 9.681 5.352 7.1 10.618-8.004 6.746 8.936-10.617 8.004 6.121 8.143 13.51-10.184 6.746 8.954z"/><path clip-path="url(#l)" d="m220.152 445.997c1.877 2.497 3.797 2.609 5.502 1.323 1.71-1.286 2.139-3.168.261-5.675l-3.112-4.108-2.758 2.068-5.87-7.789 13.771-10.38 17.479 23.2-5.632 4.239-3.251-1.016c-.811 3.699-2.586 6.504-5.879 8.982-10.943 8.246-16.888 4.715-29.29-11.74-11.861-15.756-12.443-24.43-1.821-32.425 5.898-4.453 12.881-6.242 18.719-2.44 1.821 1.183 3.587 3.13 6.135 6.494l-11.022 8.302-1.831-2.451c-1.887-2.487-3.806-2.58-5.511-1.295-1.71 1.276-2.139 3.149-.261 5.646z"/><path clip-path="url(#l)" d="m251.827 439.792-31.437-41.724 10.989-8.302 31.47 41.742z"/><path clip-path="url(#l)" d="m283.078 416.255-31.456-41.742 12.393-9.336c8.916-6.708 15.857-7.193 23.172 2.516 7.268 9.644 6.233 15.243-3.857 22.855l-1.91 1.436 12.28 16.268zm-7.52-32.07c3.531-2.665 4.631-4.491 1.137-9.149-2.981-3.933-4.621-4.072-8.749-.96z"/><path clip-path="url(#l)" d="m312.288 394.229-31.438-41.732 23.871-17.974 6.476 8.591-12.849 9.69 5.349 7.1 10.622-8.013 6.745 8.954-10.621 7.994 6.131 8.153 13.509-10.194 6.747 8.964z"/><path clip-path="url(#l)" d="m342.867 353.521c1.864 2.497 3.802 2.6 5.498 1.323 1.705-1.286 2.152-3.168.261-5.674l-3.112-4.118-2.758 2.068-5.86-7.78 13.762-10.38 17.479 23.191-5.628 4.248-3.242-1.006c-.811 3.689-2.609 6.494-5.87 8.973-10.948 8.246-16.893 4.715-29.294-11.73-11.88-15.766-12.448-24.439-1.836-32.443 5.898-4.444 12.867-6.224 18.71-2.432 1.835 1.184 3.587 3.121 6.14 6.494l-11.013 8.302-1.826-2.45c-1.901-2.497-3.82-2.591-5.517-1.305-1.714 1.286-2.143 3.149-.27 5.655z"/><path clip-path="url(#l)" d="m374.537 347.326-31.437-41.743 11.004-8.283 31.455 41.733z"/><path clip-path="url(#l)" d="m405.788 323.78-31.437-41.732 12.373-9.336c8.917-6.709 15.858-7.212 23.163 2.506 7.277 9.653 6.262 15.244-3.848 22.856l-1.892 1.435 12.252 16.269zm-7.5-32.071c3.531-2.655 4.621-4.491 1.117-9.149-2.963-3.941-4.603-4.072-8.749-.96z"/><path clip-path="url(#m)" d="m435.016 301.763-31.455-41.742 23.871-17.973 6.466 8.6-12.839 9.681 5.348 7.09 10.622-7.995 6.746 8.946-10.622 7.994 6.121 8.143 13.511-10.183 6.746 8.953z"/><path clip-path="url(#m)" d="m465.578 261.055c1.882 2.497 3.802 2.6 5.497 1.313 1.724-1.285 2.152-3.158.261-5.655l-3.112-4.128-2.739 2.068-5.888-7.779 13.789-10.38 17.479 23.191-5.655 4.248-3.233-1.024c-.811 3.708-2.59 6.513-5.879 8.981-10.93 8.256-16.893 4.715-29.285-11.739-11.87-15.756-12.457-24.431-1.835-32.416 5.897-4.454 12.867-6.238 18.728-2.441 1.817 1.174 3.587 3.117 6.122 6.485l-11.014 8.312-1.836-2.451c-1.891-2.502-3.811-2.595-5.516-1.309-1.705 1.281-2.134 3.149-.251 5.66z"/><path clip-path="url(#m)" d="m497.256 254.859-31.436-41.747 10.994-8.287 31.475 41.732z"/><path clip-path="url(#m)" d="m264.228 518.896-31.465-41.742 12.401-9.336c8.917-6.708 15.849-7.193 23.163 2.516 7.268 9.644 6.243 15.243-3.857 22.837l-1.892 1.444 12.262 16.277zm-7.528-32.07c3.541-2.665 4.631-4.491 1.137-9.149-2.981-3.933-4.621-4.072-8.749-.96z"/><path clip-path="url(#m)" d="m293.438 496.87-31.446-41.733 23.871-17.973 6.475 8.59-12.848 9.691 5.348 7.09 10.622-8.003 6.746 8.944-10.622 8.013 6.131 8.135 13.492-10.185 6.764 8.964z"/><path clip-path="url(#n)" d="m324.008 456.162c1.864 2.497 3.802 2.6 5.498 1.323 1.724-1.286 2.152-3.168.261-5.665l-3.112-4.127-2.739 2.077-5.879-7.789 13.762-10.38 17.479 23.191-5.628 4.249-3.242-1.025c-.812 3.708-2.609 6.513-5.87 8.991-10.948 8.236-16.893 4.705-29.294-11.73-11.861-15.765-12.448-24.439-1.836-32.434 5.898-4.454 12.867-6.233 18.71-2.451 1.835 1.193 3.587 3.141 6.14 6.504l-11.013 8.302-1.826-2.45c-1.901-2.497-3.82-2.591-5.517-1.305-1.714 1.286-2.143 3.149-.27 5.655z"/><path clip-path="url(#n)" d="m355.678 449.966-31.446-41.742 11.014-8.283 31.455 41.732z"/><path clip-path="url(#n)" d="m386.929 426.42-31.437-41.732 12.373-9.336c8.917-6.709 15.858-7.212 23.173 2.507 7.268 9.652 6.252 15.243-3.839 22.855l-1.91 1.425 12.252 16.278zm-7.501-32.06c3.531-2.665 4.631-4.501 1.118-9.15-2.963-3.95-4.603-4.081-8.749-.969z"/><path clip-path="url(#n)" d="m416.158 404.404-31.455-41.742 23.871-17.974 6.466 8.601-12.839 9.68 5.347 7.081 10.622-7.985 6.747 8.945-10.623 7.994 6.15 8.144 13.482-10.184 6.746 8.953z"/><path clip-path="url(#o)" d="m446.719 363.687c1.882 2.506 3.82 2.608 5.516 1.322 1.705-1.285 2.134-3.158.242-5.665l-3.093-4.118-2.759 2.078-5.879-7.799 13.78-10.38 17.479 23.201-5.655 4.248-3.233-1.024c-.811 3.699-2.59 6.503-5.879 8.981-10.948 8.246-16.884 4.706-29.285-11.739-11.87-15.756-12.457-24.431-1.835-32.425 5.897-4.454 12.867-6.243 18.728-2.441 1.817 1.184 3.587 3.131 6.121 6.494l-11.013 8.312-1.836-2.451c-1.891-2.496-3.811-2.59-5.506-1.304-1.715 1.276-2.144 3.149-.261 5.655z"/><path clip-path="url(#o)" d="m478.408 357.5-31.465-41.743 11.013-8.292 31.474 41.724z"/><path clip-path="url(#o)" d="m509.659 333.946-31.466-41.733 12.401-9.345c8.917-6.709 15.85-7.193 23.164 2.516 7.258 9.652 6.261 15.243-3.849 22.846l-1.9 1.436 12.262 16.277zm-7.52-32.071c3.531-2.664 4.621-4.49 1.137-9.149-2.991-3.932-4.631-4.071-8.759-.96z"/><path clip-path="url(#o)" d="m375.199 523.704-31.438-41.741 12.374-9.337c8.917-6.708 15.858-7.192 23.163 2.507 7.268 9.652 6.242 15.243-3.857 22.855l-1.882 1.435 12.262 16.278zm-7.52-32.071c3.55-2.665 4.631-4.481 1.128-9.131-2.981-3.95-4.622-4.091-8.74-.987z"/><path clip-path="url(#o)" d="m404.427 501.677-31.456-41.742 23.862-17.964 6.486 8.591-12.859 9.681 5.349 7.1 10.621-7.995 6.746 8.936-10.622 8.013 6.131 8.134 13.511-10.183 6.746 8.953z"/><path clip-path="url(#p)" d="m434.979 460.979c1.873 2.497 3.802 2.591 5.497 1.323 1.715-1.295 2.162-3.168.271-5.665l-3.121-4.137-2.758 2.077-5.852-7.779 13.771-10.39 17.479 23.191-5.646 4.249-3.243-1.025c-.801 3.709-2.6 6.522-5.87 9.001-10.938 8.236-16.883 4.705-29.294-11.749-11.87-15.756-12.447-24.421-1.826-32.435 5.889-4.435 12.868-6.224 18.71-2.432 1.826 1.184 3.578 3.121 6.14 6.494l-11.022 8.302-1.826-2.441c-1.892-2.497-3.82-2.6-5.516-1.313-1.715 1.276-2.143 3.159-.271 5.665z"/><path clip-path="url(#q)" d="m466.677 454.783-31.465-41.742 11.013-8.292 31.446 41.732z"/><path clip-path="url(#q)" d="m497.927 431.229-31.465-41.733 12.401-9.336c8.917-6.727 15.831-7.212 23.145 2.497 7.277 9.653 6.262 15.243-3.839 22.865l-1.909 1.426 12.28 16.277zm-7.528-32.062c3.541-2.684 4.631-4.491 1.118-9.149-2.963-3.951-4.603-4.081-8.721-.979z"/></g><path clip-path="url(#r)" d="m275.26 300.943v-3.224zm-66.536-9.634c.028.019.075.056.103.074v-.037c-.019-.018-.103-.037-.103-.037m191.427 79.515c.019.54.037 1.229.037 2.031 0-.373-.019-1.1-.037-2.031m-215.918-151.077c-.163-1.747-.27-2.865-.27-2.968 0 3.652.238 3.214.27 2.968m24.463 76.584c-.154.941-.242 2.265-.242 4.109.126-3.681.172-2.973.242-4.109m47.388-176.025c0-7.449 5.031-13.538 5.031-17.871 0-6.21-1.677-7.221-5.916-5.511 0 10.673-3.718 19.082-4.771 22.734 1.194.001 5.656-.581 5.656.648m154.409-68.674c0 2.315-44.751 51.376-44.751 54.423 0 .401-6.867 14.959-29.248 9.206 0 11.964-65.948 26.159-67.626 23.042 8.246-7.994 43.289-47.784 43.289-50.263 0-.736 12.038-16.324 6.02-20.666 0-13.254-20.647-40.377-20.647-38.22 0 6.354 24.858 27.342-1.724 54.772 0-4.043-36.366 39.828-36.366 39.655-.578-3.723-1.034 2.166-1.249 3.778 0-12.891-3.857 1.393-7.845-7.338-.131.447-.215.82-.215 1.095-2.45-3.815-4.929.965-6.545 5.414 0-2.818-3.461 5.427-3.461-3.466-1.612 2.939-4.077-2.586-6.545-.955-.266-.419-.517-.769-.773-1.058.457.019.773.019.773.019 0 .088-5.069-16.878-5.069-17.153-4.244-6.564-5.931 1.011-5.931.783 0 .182 5.036 15.896 5.073 16.044-1.295.354-2.147-.275-2.147-6.038-.172 3.396-.554 6.089-.992 8.045 0 .713-35.816-36.468-35.816-37.442-18.435-19.254-12.126-40.158-6.527-53.407-6.093 11.102-15.849 24.481-15.849 24.244-6 13.748 6.033 25.101 6.033 26.34 0 2.241 36.063 38.22 36.063 46.797 0-1.561 6.354 9.182 7.538 4.323-.447 4.197-.792 6.41-1.174 6.261 0 4.589-67.589-19.361-67.589-18.961-22.353-1.286-29.233-11.917-29.233-13.692 0-3.853-44.728-49.993-44.728-59.431-3.461 18.873-.876 15.919-.876 20.517 0-7.072 31.819 36.626 31.819 41.052 8.633 20.191 30.98 23.806 30.98 19.618 4.31 1.756 74.008 21.97 74.008 21.542v8.577c0-6.476-110.141 7.328-110.141 3.932.848 6.145 10.342 4.142 10.342 11.517 0 .247 96.104-2.306 96.104 4.705-1.449.256-9.732 11.437-12.718 12.509.023-.438.051-.811.051-1.491 0 .699-.219 1.174-.554 1.574-.354-.056-.573-.4-.573-1.113 0 .568-.009 1.001-.019 1.533-2.814 1.719-11.67.801-31.535 8.777 0 2.94-24.081 33.618-24.081 36.962 0-8.604-49.909 53.333-49.909 53.37 0 10.809-2.138 71.223-2.53 71.754.308 9.289 3.056 18.346 11.116 23.479 0 3.718.862-68.716 6.033-91.097 0 7.864 37.856-35.518 49.909-60.787 0 11.945 18.048-15.076 33.542-18.56 0-3.597.233-7.594.233 1.346-.135-10.352-.172-2.022-.2 2.204v.042c.792 8.623 3.154 34.199 3.154 49.136 0-3.756.261-16.911.261-14.881 0 14.35.028 6.374.028 4.864 3.55 17.386 12.029 27.374 21.15 32.462v.019c.308.056 2.227.587 2.227.615-.251.224-.28.475-.573.689-.61-.447-1.127-.839-1.654-1.268-.056 3.038-.093 4.305-.13 4.947.512-3.158 1.84-1.425 3.699 4.948 4.677-1.51 9.35 4.416 13.529-1.621 5.642 5.199 11.535 2.329 15.938 10.687.759-8.265 1.705-2.068 2.563-.111-.275-8.19-.56-.587-.839-4.342 0-4.007.755-2.675 2.092 1.929.736-4.417 1.519 3.503 2.366-8.852 5.944 2.403 16.93 2.124 27.086-3.28 0-4.771.084-5.441.131 1.621 0-3.718-.028-8.591-.028-9.057 8.982-1.603 17.321-12.317 20.824-29.694 0 4.221 3.429-48.097 3.429-38.537 0-.629 0-.955-.074-2.176.047-.238.074-.746.074-1.793 15.495-5.772 33.599 16.352 33.599 22.986 12.011 15.504 49.867 67.337 49.867 58.97 5.189 15.625 6.038 86.251 6.038 86.363 8.068-4.221 10.845-21.607 11.162-13.548-.299-13.38-2.544-80.688-2.544-78.369 0-1.481-49.913-60.563-49.913-58.569 0 4.752-24.095-29.951-24.095-28.083-19.063-10.636-30.972-13.986-35.556-14.06-3.829-13.026-9.149-9.793-9.988-12.406 0-10.324 96.305-8.787 96.305-4.37 0-1.957 9.467.08 10.324-7.976 0-.955-110.113-5.325-110.113-6.336v-13.137c0-.629 69.666-22.087 73.979-13.492 0-12.108 22.353-12.21 30.99-27.37 0 4.435 31.81-45.874 31.81-37.405-.001-14.164 2.599-7.38-.858-17.616m-219.267 146.293c0-3.294.182-4.258.419-4.486-.116 9.35-.265 9.429-.419 4.486m82.366 94.884c-.094-.037-.094-.103-.177-.177l.708-.196c-.205.14-.354.289-.531.373m-91.423-260.906c2.786-5.069 4.817-9.676 4.817-12.299.001 2.068-2.342 6.429-4.817 12.299m-98.568 331.216c-.028-.588-.065-1.193-.065-1.799 0 1.305.027 1.854.065 1.799m166.529-243.497c.065.154.141.256.215.4.019-.098.056-.237.084-.363-.177.009-.299-.019-.299-.037" fill="#fff"/><path clip-path="url(#r)" d="m0 483.732h483.728v-483.732h-483.728zm474.056-9.671h-464.385v-464.385h464.385z"/><path clip-path="url(#r)" d="m0 406.333h483.728v77.399h-483.728z"/><path clip-path="url(#r)" d="m178.438 470.036v-52.141h27.458v10.753h-15.257v9.438h12.201v11.171h-12.201v20.779z" fill="#fff"/><path clip-path="url(#r)" d="m210.653 470.036v-52.141h26.438v10.753h-14.241v8.852h11.772v11.189h-11.772v10.166h14.968v11.181z" fill="#fff"/><path clip-path="url(#r)" d="m272.279 470.036h-11.619l-1.016-6.531h-7.398l-1.024 6.531h-11.619l9.001-52.141h14.675zm-19.381-16.698h6.104l-3.047-21.43h-.159z" fill="#fff"/><path clip-path="url(#r)" d="m275.092 470.036v-52.141h15.112c10.454 0 14.955 3.485 14.955 14.666 0 8.349-3.494 10.892-5.823 11.693v.14c4.379.802 5.665 8.218 5.665 14.759 0 5.218.596 8.852 1.611 10.883h-11.917c-1.016-4.286-1.453-7.109-1.453-10.809 0-8.795-.727-10.397-4.641-10.397h-1.751v21.206zm11.759-30.207h2.18c3.336 0 4.51-2.031 4.51-6.252 0-4.202-1.174-6.233-4.51-6.233h-2.18z" fill="#fff"/><path clip-path="url(#r)" d="m433.19 19.352v3.597h-7.64v24.234h-4.501v-24.234h-7.649v-3.597zm31.185 27.831h-4.5v-21.914h-.131l-7.705 21.915h-3.662l-7.342-21.915h-.131v21.915h-4.491v-27.832h7.138l6.932 20.694h.131l6.765-20.694h6.997v27.831z" fill="#fff"/></svg>