<svg height="316.227766" viewBox="0 0 400 400" width="316.227766" xmlns="http://www.w3.org/2000/svg" xmlns:xlink="http://www.w3.org/1999/xlink"><clipPath id="a"><path d="m315.365 207.436h34.011v34.011h-34.011z"/></clipPath><clipPath id="b"><path d="m315.854 208.072h33.003v33.005h-33.003z"/></clipPath><clipPath id="c"><path d="m315.365 207.436h34.011v34.011h-34.011z"/></clipPath><clipPath id="d"><path d="m315.365 207.436h34.011v34.011h-34.011z"/></clipPath><path d="m400 400h-400v-400h400z"/><g fill="#515054"><path d="m0 0 .548.413-.548.727z" transform="matrix(11.759172 0 0 -11.759172 .0364 81.82851)"/><g clip-path="url(#d)" transform="matrix(11.759172 0 0 -11.759172 -3708.3962 2839.2755)"><path d="m0 0c.249.188.326.316.08.643-.21.278-.325.287-.616.069zm.529-2.255-2.212 2.935.871.657c.627.472 1.114.506 1.629-.176.511-.679.439-1.073-.27-1.607l-.134-.101.862-1.144z" transform="translate(316.8079 238.2332)"/><path d="m0 0-2.212 2.934 1.678 1.265.456-.605-.903-.681.375-.499.747.563.475-.629-.747-.564.431-.572.95.716.474-.629z" transform="translate(319.3916 237.5276)"/><path d="m0 0c.132-.176.268-.183.388-.093s.15.223.018.399l-.219.29-.194-.146-.412.548.968.729 1.229-1.631-.397-.298-.228.071c-.056-.26-.182-.458-.412-.632-.77-.579-1.189-.331-2.06.826-.835 1.108-.875 1.718-.129 2.281.415.312.905.438 1.316.171.128-.083.253-.22.432-.457l-.775-.583-.13.171c-.132.176-.267.182-.387.092s-.151-.222-.018-.397z" transform="translate(321.5402 240.3897)"/><path d="m0 0-2.212 2.935.775.583 2.211-2.935z" transform="translate(323.7684 240.8255)"/><path d="m0 0c.249.188.326.316.08.643-.21.278-.325.287-.616.069zm.529-2.255-2.212 2.935.871.657c.627.473 1.114.506 1.629-.176.511-.679.439-1.073-.271-1.607l-.133-.101.862-1.145z" transform="translate(315.4818 231.0155)"/></g><path d="m0 0-2.212 2.934 1.678 1.265.456-.605-.903-.681.376-.499.747.563.474-.629-.747-.564.431-.572.949.716.474-.629z" transform="matrix(11.759172 0 0 -11.759172 31.79088 131.02068)"/><g clip-path="url(#c)" transform="matrix(11.759172 0 0 -11.759172 -3708.3962 2839.2755)"><path d="m0 0c.133-.175.268-.183.388-.093s.15.223.018.399l-.219.29-.194-.146-.412.548.968.729 1.229-1.631-.397-.298-.228.071c-.056-.26-.182-.458-.412-.632-.77-.579-1.189-.331-2.06.826-.835 1.108-.875 1.718-.129 2.281.415.312.905.438 1.316.171.128-.083.253-.22.432-.457l-.775-.583-.13.171c-.132.176-.267.183-.387.093-.119-.091-.151-.223-.018-.398z" transform="translate(320.2141 233.172)"/><path d="m0 0-2.212 2.935.775.584 2.211-2.936z" transform="translate(322.4424 233.6078)"/><path d="m0 0c.249.187.326.316.079.643-.209.278-.324.287-.615.069zm.528-2.255-2.211 2.935.871.657c.627.472 1.114.506 1.629-.177.511-.678.439-1.072-.271-1.607l-.133-.1.862-1.144z" transform="translate(324.1113 237.5183)"/><path d="m0 0-2.211 2.935 1.677 1.264.456-.605-.903-.681.376-.498.747.562.474-.629-.747-.563.431-.572.95.716.474-.63z" transform="translate(326.6944 236.8121)"/><path d="m0 0c.133-.176.268-.183.387-.093.121.09.151.223.019.399l-.219.29-.194-.146-.412.547.968.73 1.228-1.631-.396-.299-.228.072c-.056-.26-.182-.458-.413-.632-.769-.58-1.188-.331-2.059.825-.835 1.109-.876 1.719-.129 2.281.415.313.905.439 1.316.172.128-.083.252-.22.431-.457l-.774-.584-.13.172c-.132.176-.267.182-.387.092s-.151-.222-.018-.397z" transform="translate(328.8436 239.675)"/><path d="m0 0-2.212 2.935.775.583 2.211-2.935z" transform="translate(331.0719 240.1107)"/><path d="m0 0c.249.188.326.316.08.643-.21.279-.325.287-.615.069zm.529-2.255-2.212 2.935.871.657c.627.473 1.114.506 1.629-.176.511-.679.439-1.073-.271-1.607l-.133-.101.863-1.144z" transform="translate(314.1557 223.7981)"/><path d="m0 0-2.212 2.934 1.678 1.265.456-.605-.903-.681.376-.499.747.564.474-.63-.747-.564.431-.571.95.716.474-.63z" transform="translate(316.7394 223.0925)"/><path d="m0 0c.133-.175.268-.183.387-.092.121.09.151.222.019.398l-.219.29-.194-.146-.412.548.968.729 1.229-1.631-.397-.298-.227.072c-.057-.261-.183-.459-.413-.632-.77-.58-1.189-.332-2.06.825-.835 1.108-.875 1.718-.129 2.281.415.312.905.438 1.316.171.128-.083.253-.22.432-.457l-.775-.583-.13.171c-.132.176-.267.183-.387.093-.12-.091-.151-.222-.018-.398z" transform="translate(318.888 225.9547)"/><path d="m0 0-2.212 2.935.774.583 2.212-2.935z" transform="translate(321.117 226.3904)"/><path d="m0 0c.249.188.326.316.08.643-.21.278-.325.287-.615.069zm.529-2.255-2.212 2.935.871.657c.627.473 1.114.506 1.629-.176.511-.679.439-1.073-.27-1.608l-.134-.1.863-1.144z" transform="translate(322.7852 230.3006)"/><path d="m0 0-2.212 2.935 1.679 1.264.455-.605-.903-.681.376-.499.747.564.474-.63-.747-.564.431-.571.95.716.474-.63z" transform="translate(325.369 229.595)"/><path d="m0 0c.133-.175.268-.183.388-.092.12.09.151.222.018.398l-.219.29-.194-.146-.412.548.968.729 1.229-1.631-.396-.298-.228.072c-.057-.261-.183-.459-.413-.632-.77-.58-1.189-.332-2.06.825-.835 1.108-.875 1.718-.129 2.281.415.312.905.438 1.316.171.128-.083.253-.22.432-.457l-.775-.583-.129.171c-.133.176-.268.183-.388.093-.119-.091-.151-.222-.018-.398z" transform="translate(327.5175 232.4571)"/><path d="m0 0-2.212 2.935.775.584 2.212-2.936z" transform="translate(329.7458 232.8931)"/><path d="m0 0c.25.187.326.316.08.643-.21.278-.324.287-.615.069zm.529-2.255-2.211 2.935.871.657c.627.472 1.114.506 1.628-.177.512-.678.44-1.072-.271-1.606l-.133-.101.863-1.144z" transform="translate(331.414 236.8036)"/><path d="m0 0-2.212 2.935 1.678 1.264.456-.605-.904-.681.376-.498.747.563.474-.63-.747-.563.432-.571.949.715.474-.63z" transform="translate(333.9984 236.0972)"/><path d="m0 0c.133-.176.267-.183.387-.093.121.09.151.223.018.399l-.219.29-.193-.146-.413.548.969.729 1.229-1.631-.397-.299-.228.073c-.057-.261-.182-.459-.413-.632-.769-.58-1.188-.332-2.059.825-.835 1.108-.876 1.718-.129 2.281.414.312.904.438 1.315.171.129-.083.253-.22.432-.457l-.775-.584-.129.172c-.132.176-.268.182-.388.092-.119-.09-.15-.222-.017-.397z" transform="translate(336.1471 238.9601)"/><path d="m0 0-2.212 2.935.774.583 2.213-2.935z" transform="translate(338.3753 239.3958)"/><path d="m0 0c.248.187.326.316.08.643-.21.278-.326.287-.615.069zm.529-2.255-2.213 2.935.872.657c.627.472 1.114.506 1.629-.177.51-.678.439-1.072-.271-1.606l-.134-.101.864-1.145z" transform="translate(340.0443 243.3064)"/><path d="m0 0-2.211 2.935 1.678 1.264.455-.605-.903-.681.376-.499.747.563.474-.629-.747-.564.431-.572.95.716.474-.629z" transform="translate(315.4134 215.8748)"/><path d="m0 0c.132-.175.267-.183.387-.093s.151.223.018.399l-.218.29-.194-.146-.413.548.969.729 1.228-1.631-.396-.298-.228.071c-.057-.26-.182-.458-.413-.632-.769-.579-1.188-.331-2.059.826-.836 1.108-.876 1.718-.129 2.281.414.312.905.438 1.316.171.128-.083.252-.22.431-.457l-.775-.583-.129.171c-.132.176-.267.183-.388.093-.119-.091-.15-.223-.018-.398z" transform="translate(317.5626 218.7369)"/><path d="m0 0-2.211 2.935.775.583 2.211-2.935z" transform="translate(319.7903 219.1729)"/><path d="m0 0c.249.188.326.316.079.643-.209.278-.325.287-.615.069zm.528-2.255-2.211 2.935.871.657c.627.473 1.114.506 1.629-.176.511-.679.439-1.073-.271-1.608l-.133-.1.862-1.144z" transform="translate(321.4597 223.0833)"/><path d="m0 0-2.211 2.935 1.677 1.264.456-.605-.903-.681.376-.499.747.563.474-.629-.747-.564.431-.572.95.716.474-.629z" transform="translate(324.0428 222.3777)"/><path d="m0 0c.132-.175.268-.183.387-.093.121.09.151.223.018.399l-.218.29-.194-.146-.413.548.969.729 1.228-1.631-.396-.298-.228.071c-.057-.26-.182-.458-.413-.632-.769-.579-1.188-.331-2.059.826-.836 1.108-.876 1.718-.129 2.281.415.312.905.438 1.316.171.128-.083.252-.22.431-.457l-.775-.583-.129.171c-.132.176-.267.183-.387.093-.12-.091-.151-.223-.018-.398z" transform="translate(326.192 225.2397)"/><path d="m0 0-2.211 2.935.774.583 2.212-2.935z" transform="translate(328.4198 225.6756)"/><path d="m0 0c.248.187.326.316.079.643-.209.278-.325.287-.615.069zm.528-2.255-2.212 2.935.872.657c.627.472 1.114.506 1.628-.177.511-.678.44-1.072-.27-1.607l-.133-.1.861-1.144z" transform="translate(330.0893 229.5857)"/><path d="m0 0-2.212 2.935 1.678 1.265.456-.606-.904-.681.376-.498.747.562.474-.629-.747-.563.431-.572.95.716.474-.63z" transform="translate(332.6724 228.8795)"/><path d="m0 0c.133-.176.268-.183.388-.093s.15.223.017.399l-.218.29-.194-.146-.413.547.969.73 1.229-1.631-.397-.299-.228.072c-.057-.26-.182-.458-.413-.632-.769-.58-1.188-.331-2.059.825-.835 1.109-.876 1.719-.129 2.281.414.313.905.439 1.316.172.128-.083.253-.22.431-.457l-.775-.584-.129.172c-.132.176-.267.182-.387.092s-.151-.222-.018-.397z" transform="translate(334.8209 231.7423)"/><path d="m0 0-2.211 2.935.773.583 2.213-2.935z" transform="translate(337.0492 232.1781)"/><path d="m0 0c.248.187.326.316.08.643-.21.278-.326.287-.616.069zm.529-2.255-2.213 2.935.872.657c.627.472 1.115.506 1.629-.177.512-.678.439-1.072-.271-1.607l-.133-.1.863-1.144z" transform="translate(338.7182 236.0887)"/><path d="m0 0-2.211 2.935 1.678 1.264.456-.605-.904-.681.376-.498.747.562.475-.629-.747-.563.43-.572.95.716.475-.63z" transform="translate(341.3012 235.3824)"/><path d="m0 0c.132-.176.267-.183.387-.093.119.09.151.223.018.399l-.219.29-.194-.146-.412.547.967.73 1.23-1.631-.396-.299-.228.072c-.057-.26-.183-.458-.413-.632-.769-.58-1.188-.331-2.059.825-.836 1.109-.876 1.719-.129 2.281.414.313.905.439 1.315.172.129-.083.253-.22.432-.457l-.775-.584-.129.172c-.132.176-.268.182-.388.092-.119-.09-.15-.222-.018-.397z" transform="translate(343.451 238.2451)"/><path d="m0 0-2.211 2.935.775.583 2.211-2.935z" transform="translate(345.6779 238.6811)"/><path d="m0 0c.25.187.327.316.08.642-.209.279-.324.288-.615.069zm.529-2.255-2.211 2.935.87.657c.627.471 1.115.506 1.629-.177.512-.678.44-1.072-.271-1.607l-.133-.101.863-1.144z" transform="translate(347.347 242.5915)"/><path d="m0 0-2.212 2.935 1.678 1.264.456-.605-.904-.681.376-.499.747.563.474-.629-.747-.563.432-.572.949.715.474-.629z" transform="translate(314.088 208.6572)"/><path d="m0 0c.132-.175.267-.183.387-.092.12.09.151.222.018.398l-.218.29-.194-.146-.413.548.968.729 1.229-1.631-.396-.298-.228.071c-.057-.26-.182-.458-.413-.631-.769-.58-1.188-.332-2.059.825-.836 1.108-.876 1.718-.129 2.281.414.312.905.438 1.316.171.128-.083.252-.22.431-.457l-.775-.583-.129.171c-.132.176-.267.183-.388.093-.119-.091-.15-.223-.017-.398z" transform="translate(316.2365 211.5192)"/><path d="m0 0-2.212 2.935.775.584 2.212-2.936z" transform="translate(318.4648 211.955)"/><path d="m0 0c.249.188.326.316.079.643-.209.278-.325.287-.615.069zm.528-2.255-2.212 2.935.872.657c.627.473 1.114.506 1.628-.176.512-.679.44-1.073-.27-1.607l-.133-.101.862-1.144z" transform="translate(320.1337 215.8655)"/><path d="m0 0-2.212 2.935 1.678 1.264.456-.605-.904-.681.376-.499.747.563.474-.629-.746-.563.431-.573.949.716.474-.629z" transform="translate(322.7173 215.1599)"/><path d="m0 0c.132-.175.267-.183.387-.092.12.09.151.222.018.398l-.218.29-.194-.145-.413.547.969.729 1.229-1.631-.397-.298-.228.071c-.057-.26-.182-.458-.413-.631-.769-.58-1.188-.332-2.059.825-.836 1.108-.876 1.718-.129 2.281.415.312.905.438 1.316.171.128-.083.252-.22.431-.457l-.775-.583-.128.171c-.133.176-.268.183-.389.093-.119-.091-.15-.223-.017-.398z" transform="translate(324.866 218.022)"/><path d="m0 0-2.212 2.935.775.583 2.212-2.935z" transform="translate(327.0943 218.4579)"/><path d="m0 0c.249.188.326.316.079.643-.209.278-.324.287-.615.069zm.529-2.255-2.212 2.935.871.657c.627.473 1.114.506 1.628-.176.512-.679.44-1.073-.27-1.607l-.133-.101.862-1.144z" transform="translate(328.7632 222.3684)"/><path d="m0 0-2.211 2.935 1.677 1.264.456-.605-.903-.681.376-.499.746.563.474-.629-.746-.563.431-.573.949.716.476-.629z" transform="translate(331.3463 221.6628)"/><path d="m0 0c.133-.175.268-.183.388-.092.12.09.15.222.019.398l-.22.29-.194-.146-.412.548.968.729 1.229-1.631-.396-.298-.229.071c-.057-.26-.182-.458-.413-.631-.769-.58-1.188-.332-2.059.825-.835 1.108-.875 1.718-.129 2.281.416.312.906.438 1.316.171.128-.083.253-.22.431-.457l-.773-.583-.131.171c-.131.176-.267.183-.386.093-.121-.091-.152-.223-.019-.398z" transform="translate(333.4948 224.5249)"/><path d="m0 0-2.211 2.935.773.583 2.213-2.935z" transform="translate(335.7232 224.9608)"/><path d="m0 0c.249.187.326.316.08.643-.21.278-.326.287-.615.069zm.529-2.255-2.213 2.935.872.657c.627.472 1.115.506 1.629-.177.512-.678.439-1.072-.271-1.606l-.133-.101.863-1.144z" transform="translate(337.392 228.8709)"/><path d="m0 0-2.211 2.935 1.678 1.264.456-.605-.904-.681.376-.498.747.562.475-.629-.747-.563.43-.572.95.716.475-.63z" transform="translate(339.9751 228.1646)"/><path d="m0 0c.132-.176.267-.183.387-.093.119.09.151.223.018.399l-.219.29-.194-.146-.412.548.967.729 1.229-1.631-.395-.299-.228.072c-.057-.26-.183-.458-.413-.631-.769-.58-1.188-.332-2.059.825-.836 1.108-.876 1.718-.129 2.281.414.312.904.438 1.315.171.129-.083.253-.22.432-.457l-.775-.584-.129.172c-.132.176-.268.182-.388.092-.119-.09-.15-.222-.018-.397z" transform="translate(342.1251 231.0275)"/><path d="m0 0-2.212 2.935.774.583 2.211-2.935z" transform="translate(344.3534 231.4633)"/><path d="m0 0c.248.187.326.316.078.643-.208.278-.324.287-.615.069zm.527-2.255-2.211 2.935.872.657c.626.472 1.114.506 1.628-.177.511-.678.44-1.072-.27-1.606l-.134-.101.862-1.145z" transform="translate(346.0222 235.3737)"/><path d="m0 0-2.211 2.935 1.677 1.264.456-.605-.904-.681.376-.498.747.562.474-.629-.747-.563.432-.572.949.716.474-.63z" transform="translate(348.6053 234.6675)"/><path d="m0 0c.133-.176.268-.183.388-.093s.15.223.017.399l-.218.29-.194-.146-.413.548.969.729 1.229-1.631-.397-.299-.228.072c-.057-.26-.182-.458-.413-.632-.769-.579-1.188-.331-2.059.826-.835 1.108-.876 1.718-.129 2.281.414.312.906.438 1.316.171.128-.083.253-.22.431-.457l-.775-.584-.129.172c-.132.176-.267.182-.388.092-.119-.09-.15-.222-.017-.397z" transform="translate(350.7538 237.5304)"/><path d="m0 0-2.212 2.935.775.584 2.211-2.936z" transform="translate(317.1387 204.7374)"/><path d="m0 0c.249.188.326.316.08.643-.21.278-.325.287-.615.069zm.528-2.255-2.211 2.935.871.657c.627.472 1.114.506 1.629-.176.511-.679.439-1.073-.271-1.607l-.133-.101.862-1.144z" transform="translate(318.8076 208.6478)"/><path d="m0 0-2.212 2.934 1.678 1.265.456-.605-.903-.681.376-.499.747.563.474-.629-.747-.563.431-.572.949.715.474-.629z" transform="translate(321.3914 207.9422)"/><path d="m0 0c.133-.176.268-.183.387-.093.121.09.151.223.019.399l-.219.29-.194-.146-.412.548.968.729 1.229-1.631-.397-.298-.228.071c-.056-.26-.182-.458-.412-.632-.77-.579-1.189-.331-2.06.826-.835 1.108-.875 1.718-.129 2.281.415.312.905.438 1.316.171.128-.083.253-.22.432-.457l-.775-.583-.13.171c-.132.176-.267.182-.387.092s-.151-.222-.018-.397z" transform="translate(323.5399 210.8044)"/><path d="m0 0-2.212 2.935.775.584 2.212-2.936z" transform="translate(325.7682 211.2402)"/><path d="m0 0c.249.188.326.316.08.643-.21.278-.325.287-.615.069zm.529-2.255-2.212 2.935.871.657c.627.472 1.114.506 1.629-.176.511-.679.439-1.073-.271-1.607l-.133-.101.862-1.144z" transform="translate(327.4371 215.1507)"/><path d="m0 0-2.212 2.934 1.678 1.265.456-.605-.903-.681.376-.499.746.563.475-.629-.747-.563.431-.572.949.715.474-.629z" transform="translate(330.0208 214.4451)"/><path d="m0 0c.133-.176.268-.183.388-.093s.15.223.019.399l-.22.29-.194-.146-.412.548.968.729 1.229-1.631-.396-.298-.229.071c-.055-.26-.182-.458-.412-.632-.77-.579-1.189-.331-2.06.826-.834 1.108-.875 1.718-.128 2.281.415.312.905.438 1.315.171.128-.083.253-.22.432-.457l-.774-.583-.131.171c-.131.176-.266.182-.386.092s-.151-.222-.018-.397z" transform="translate(332.1688 217.3073)"/><path d="m0 0-2.211 2.935.775.583 2.211-2.935z" transform="translate(334.3971 217.743)"/><path d="m0 0c.25.187.326.316.08.643-.21.278-.325.287-.615.069zm.529-2.255-2.211 2.935.87.657c.627.471 1.115.506 1.629-.177.512-.678.44-1.072-.271-1.607l-.133-.1.863-1.144z" transform="translate(336.0659 221.6535)"/><path d="m0 0-2.211 2.934 1.678 1.265.456-.605-.904-.681.376-.498.747.562.474-.629-.746-.563.43-.572.95.716.475-.63z" transform="translate(338.6491 220.9473)"/><path d="m0 0c.133-.177.267-.183.387-.093.121.09.151.223.018.399l-.219.29-.193-.146-.413.547.969.73 1.228-1.631-.396-.299-.228.072c-.057-.26-.183-.458-.413-.632-.769-.58-1.188-.331-2.059.825-.835 1.109-.876 1.718-.129 2.281.414.313.905.439 1.315.172.129-.083.253-.22.432-.457l-.775-.584-.129.172c-.132.176-.268.182-.388.092-.119-.09-.15-.222-.017-.398z" transform="translate(340.7989 223.8102)"/><path d="m0 0-2.212 2.935.774.583 2.211-2.935z" transform="translate(343.0272 224.2459)"/><path d="m0 0c.248.187.326.316.078.643-.208.278-.324.287-.613.069zm.527-2.254-2.211 2.934.872.657c.627.471 1.114.506 1.629-.177.51-.678.439-1.072-.271-1.607l-.134-.1.862-1.144z" transform="translate(344.6962 228.1561)"/><path d="m0 0-2.211 2.934 1.677 1.265.456-.606-.903-.68.376-.498.746.562.474-.629-.745-.563.43-.572.949.715.474-.629z" transform="translate(347.2791 227.4501)"/><path d="m0 0c.133-.177.268-.183.388-.093s.15.223.019.399l-.22.29-.194-.146-.412.547.968.73 1.229-1.631-.397-.299-.228.072c-.055-.26-.182-.458-.412-.632-.77-.58-1.189-.331-2.06.825-.835 1.109-.876 1.719-.129 2.281.416.313.906.439 1.316.172.128-.083.253-.22.431-.457l-.773-.584-.131.172c-.131.176-.267.182-.386.092-.12-.09-.152-.222-.019-.398z" transform="translate(349.4276 230.3126)"/><path d="m0 0c.249.187.326.316.08.643-.21.278-.325.287-.615.068zm.529-2.255-2.212 2.935.872.657c.626.472 1.114.506 1.628-.177.512-.678.439-1.072-.27-1.607l-.134-.101.863-1.144z" transform="translate(326.1104 207.933)"/><path d="m0 0-2.212 2.935 1.678 1.264.456-.605-.903-.681.376-.499.746.563.475-.629-.747-.563.431-.572.95.716.474-.63z" transform="translate(328.6942 207.2267)"/><path d="m0 0c.132-.176.267-.183.387-.093s.15.223.018.399l-.218.289-.194-.145-.413.547.968.73 1.229-1.631-.396-.299-.228.071c-.057-.259-.182-.457-.414-.631-.769-.58-1.187-.331-2.059.825-.835 1.109-.875 1.719-.128 2.281.414.313.905.439 1.316.172.128-.083.252-.22.431-.457l-.775-.584-.129.172c-.132.176-.267.182-.388.092-.119-.09-.15-.222-.018-.397z" transform="translate(330.8434 210.0895)"/><path d="m0 0-2.211 2.935.773.584 2.213-2.936z" transform="translate(333.071 210.5253)"/><path d="m0 0c.248.187.326.316.08.643-.21.278-.326.287-.615.068zm.529-2.255-2.212 2.935.871.657c.627.472 1.115.506 1.629-.177.512-.678.439-1.072-.271-1.607l-.134-.101.864-1.144z" transform="translate(334.7399 214.4359)"/><path d="m0 0-2.211 2.935 1.678 1.264.456-.605-.904-.681.376-.499.747.563.475-.629-.747-.563.43-.573.95.717.475-.63z" transform="translate(337.323 213.7296)"/><path d="m0 0c.132-.176.267-.183.387-.093.119.09.151.223.018.399l-.219.289-.194-.145-.412.547.967.73 1.23-1.631-.396-.299-.228.071c-.057-.259-.183-.457-.413-.631-.769-.58-1.188-.331-2.059.825-.836 1.109-.876 1.719-.129 2.281.414.313.905.439 1.315.172.129-.083.253-.22.432-.457l-.775-.584-.129.172c-.132.176-.268.182-.388.092-.119-.09-.15-.222-.018-.397z" transform="translate(339.4727 216.5923)"/><path d="m0 0-2.211 2.935.775.584 2.211-2.935z" transform="translate(341.6998 217.0275)"/><path d="m0 0c.249.187.326.316.078.643-.208.278-.324.287-.615.068zm.528-2.255-2.212 2.935.871.657c.627.471 1.115.506 1.629-.177.511-.679.44-1.072-.271-1.608l-.133-.1.862-1.144z" transform="translate(343.37 220.9388)"/><path d="m0 0-2.212 2.935 1.678 1.264.456-.605-.904-.68.376-.499.747.563.474-.63-.747-.562.431-.573.95.716.474-.63z" transform="translate(345.9531 220.2318)"/><path d="m0 0c.133-.176.267-.183.387-.092.121.09.151.222.018.398l-.219.29-.193-.146-.413.547.969.73 1.229-1.631-.397-.299-.228.072c-.057-.26-.182-.458-.413-.631-.769-.581-1.188-.332-2.059.825-.835 1.108-.876 1.718-.129 2.28.414.313.905.439 1.316.172.128-.083.253-.22.431-.457l-.775-.584-.128.172c-.133.176-.269.183-.389.093-.119-.091-.15-.222-.017-.398z" transform="translate(348.1017 223.0945)"/><path d="m0 0-2.211 2.935.773.584 2.213-2.935z" transform="translate(350.33 223.5303)"/><path d="m0 0c.248.187.326.316.08.643-.21.278-.326.287-.615.068zm.529-2.255-2.213 2.935.872.657c.627.472 1.115.506 1.629-.177.512-.678.44-1.072-.271-1.607l-.133-.1.863-1.145z" transform="translate(333.4138 207.2181)"/><path d="m0 0-2.211 2.935 1.678 1.264.456-.605-.904-.681.376-.498.747.563.474-.63-.746-.563.43-.572.95.716.475-.63z" transform="translate(335.9969 206.5118)"/><path d="m0 0c.132-.176.267-.183.387-.093.121.09.151.223.018.399l-.219.289-.193-.145-.413.547.967.73 1.23-1.631-.396-.299-.228.072c-.057-.26-.183-.458-.413-.632-.769-.579-1.188-.331-2.059.825-.835 1.109-.876 1.718-.129 2.281.414.313.905.439 1.315.172.129-.083.253-.22.432-.457l-.775-.584-.129.172c-.132.176-.268.182-.388.092-.119-.09-.15-.222-.018-.397z" transform="translate(338.1468 209.3746)"/><path d="m0 0-2.211 2.935.775.583 2.211-2.934z" transform="translate(340.3737 209.8098)"/><path d="m0 0c.249.187.326.316.078.643-.208.278-.324.287-.615.068zm.528-2.255-2.212 2.935.871.657c.627.471 1.115.506 1.629-.177.511-.679.44-1.072-.27-1.607l-.134-.1.862-1.145z" transform="translate(342.0439 213.7209)"/><path d="m0 0-2.212 2.935 1.678 1.265.456-.606-.904-.68.376-.498.747.562.474-.63-.747-.562.432-.572.949.715.474-.629z" transform="translate(344.627 213.014)"/><path d="m0 0c.133-.177.268-.183.388-.093s.15.222.017.399l-.218.289-.194-.146-.413.548.969.73 1.229-1.631-.397-.299-.228.072c-.057-.26-.182-.458-.413-.632-.769-.58-1.188-.331-2.059.825-.835 1.109-.876 1.719-.129 2.281.414.313.905.439 1.316.172.128-.083.253-.22.431-.457l-.775-.584-.129.172c-.132.176-.268.182-.388.092-.119-.09-.15-.222-.017-.398z" transform="translate(346.7755 215.8775)"/><path d="m0 0-2.212 2.935.774.583 2.213-2.934z" transform="translate(349.0038 216.3127)"/><path d="m0 0c.249.187.326.316.08.643-.21.278-.326.287-.615.068zm.529-2.255-2.213 2.935.872.657c.627.471 1.115.506 1.629-.177.51-.679.44-1.072-.271-1.607l-.133-.1.863-1.145z" transform="translate(350.6728 220.2238)"/><path d="m0 0c.25.188.326.316.08.642-.21.279-.326.288-.615.07zm.529-2.255-2.211 2.935.87.657c.627.472 1.115.506 1.629-.176.512-.679.44-1.073-.271-1.608l-.133-.1.863-1.145z" transform="translate(341.2175 206.8799)"/><path d="m0 0-2.212 2.935 1.678 1.264.456-.605-.904-.68.376-.5.747.563.474-.629-.747-.563.431-.572.95.716.474-.629z" transform="translate(343.8019 206.1738)"/><path d="m0 0c.132-.175.267-.183.387-.092.119.09.151.222.018.398l-.219.291-.194-.147-.412.548.969.729 1.229-1.63-.397-.299-.228.072c-.057-.261-.183-.459-.413-.632-.769-.58-1.188-.332-2.059.826-.836 1.107-.876 1.717-.129 2.28.414.312.905.438 1.315.171.129-.083.253-.219.432-.457l-.775-.583-.129.171c-.132.176-.268.184-.388.093-.119-.09-.15-.222-.018-.398z" transform="translate(345.9503 209.0358)"/><path d="m0 0-2.212 2.935.774.584 2.211-2.935z" transform="translate(348.1788 209.4716)"/><path d="m0 0c.249.188.326.316.078.642-.208.279-.324.288-.613.07zm.529-2.255-2.213 2.935.872.657c.627.472 1.114.506 1.628-.176.511-.679.44-1.073-.27-1.608l-.134-.1.864-1.145z" transform="translate(349.8477 213.3828)"/></g></g><path d="m0 0 .644-1.157-4.677-3.299v-3.417l4.653-3.282-4.178-6.571 8.549-3.025-.519-8.145 7.46 2.481 5.438-6.59h1.441l3.596 4.852 6.563-3.774v3.019l-.038-.087-6.66 3.635-4.149-5.812-4.086 7.264-7.299-2.123.447 7.968-7.499 1.793 3.695 6.736-6.212 3.37 7.224 4.383-1.262 1.781z" fill="#fff" transform="matrix(11.759172 0 0 -11.759172 53.20791 4.41315)"/><path d="m0 0 1.165-1.644-7.486-4.542.7-.379.219.403.236-.394-.236.394-.219-.403 5.809-3.15-3.76-6.86 7.707-1.841-.461-8.235 7.571 2.203 4.259-7.577 4.332 6.07 6.563-3.581v1.787l-.26-.604-6.578 3.589-3.964-5.558-3.911 6.955-7.027-2.044.43 7.704-7.286 1.743 3.628 6.615-5.915 3.207 6.963 4.226-1.359 1.916z" transform="matrix(11.759172 0 0 -11.759172 83.44541 4.41315)"/><g clip-path="url(#b)" transform="matrix(11.759172 0 0 -11.759172 -3708.3962 2839.2755)"><path d="m0 0s3.007 3.825 3.653 4.567c.644.737.988 1.173.988 1.173s4.572.532 7.928 2.713c3.362 2.18 6.625 7.315 6.667 8.313.039 1-.565 2.302-1.3 2.69-.734.39-1.124.517-1.124.517s.644.809-.007 2.156c-.647 1.344-.991 1.45-1.853 1.623l-.863.17s.645.652-.348 1.825c-.995 1.17-2.076 1.645-2.504 1.559l-.431-.089s-.517.521-1.771 1.428c-1.251.914-1.988 1.129-2.587.779-.607-.346-2.329-1.741-3.879-1.921-1.552-.178-4.048-1.744-4.737-3.571-.686-1.827-1.799-5.307-1.966-7.391-.165-2.088-.597-2.955-1.026-3.39-.43-.435-5.129-3.855-5.557-4.551-.43-.697 0-9.421 0-9.421l10.091.01z" fill="#fff" transform="translate(326.8831 208.9441)"/><path d="m0 0c-.358-.182-1.076-1.08-1.432-1.353-.361-.271-2.335-2.434-2.335-2.434s-.492-1.034-1.394-.496c-.897.538-1.034.852-.811 1.62.223.763 1.21 1.934 1.972 2.878.763.948 1.794 1.804 2.288 2.118.494.319.988.453.988.453s1.165-.676 1.347-1.214c.18-.536-.264-1.392-.623-1.572m-9.807 3.306s-.538-.991-1.659-.138c-1.127.85-.993.895-.592 1.572.406.674.81.99.81.99s.136-.585.628-1.077c.498-.493 1.082-.809 1.082-.809zm5.115 4.956c-.089-.27-.366-.774-.952-1.092-.129-.071-.252-.108-.369-.138-.075.081-.148.16-.188.203-.031.028-1.176.926-1.176.926l-.993.901c.297.439.728 1.031.977 1.17.403.23.595.406.595.406s.151.362 1.277-.486c1.125-.855.92-1.623.829-1.89m-4.721 1.951s-.915.606-1.826.911c-.913.305-.791.548-.791.548s.425 1.033.791 1.155c.364.121 1.398 0 2.069-.67.668-.667.608-.667.486-1.094-.123-.425-.729-.85-.729-.85m9.63-6.842c-.762.404-1.17.536-1.17.536s.672.837-.006 2.228c-.676 1.392-1.035 1.503-1.934 1.681l-.9.176s.672.675-.361 1.889c-1.039 1.21-2.166 1.702-2.613 1.613l-.448-.093s-.54.539-1.847 1.477c-1.305.948-2.072 1.169-2.697.807-.633-.358-2.428-1.801-4.044-1.988-1.619-.184-4.221-1.805-4.939-3.696-.716-1.889-1.877-5.49-2.051-7.645-.172-2.162-.622-3.059-1.069-3.509-.449-.45-4.451-3.131-4.898-3.851-.222-.358-.3-2.719-.321-5.016 3.29 2.202 7.464 5.032 7.787 5.408.538.632.807 1.172.807 1.172s-.811.538-1.084 1.527c-.268.988.313 1.663.313 1.663s-.18 1.261.041 2.471c.222 1.217.623 3.15.71 3.419.091.271 1.028 2.747 1.43 3.781.403 1.034 1.435 1.89 2.29 2.386.852.499 2.066.636 3.278.954 1.214.316 3.103-.488 3.781-1.164.394-.393.792-.608 1.063-.726l1.045-.948c.002 0 1.198-.943 1.198-.943.002-.004.005-.007.008-.01-.012 0-.03-.004-.042-.004.172-.175.329-.345.473-.506.284-.358.495-.683.482-.835l.057-.593.283.566c-.02.118-.076.236-.127.353.082.123.173.247.285.376.627.72 1.032 1.125 1.032 1.125s1.345-.237 1.977-1.134c.631-.896.305-1.155.305-1.155s-1.103-1.558-1.643-2.009c-.538-.451-2.069-2.189-2.069-2.189s-1.16-1.698-2.193-1.386c-1.037.312-1.624 1.257-1.085 2.064.537.811 1.031 1.578 1.031 1.578s1.652.17 2.011.89c.155.313.149.504.095.627-.125-.14-.288-.263-.446-.39-.448-.362-.81-.002-2.293 1.028-1.489 1.033-2.345 2.691-2.345 2.691s-.18-.089-1.301-.494c-1.125-.409-2.612.529-2.612.529l-.4-.402c-.407-.404-1.439-.003-1.439-.003s-.135-.586-.581-1.755c-.12-.315-.193-.493-.238-.593.054-.091.206-.344.645-1.07.678-1.121.231-3.55.231-3.55s.973-.122 1.606-.571c.054-.038.093-.078.132-.117.034-.233.058-.507.058-.825 0-.385-.036-.829-.129-1.338-.2-1.083-.401-1.779-.547-2.202-.147-.421-.233-.545-.231-.549l.431-.268c.022.04.436.717.846 2.926.097.539.135 1.014.135 1.431 0 .598-.08 1.062-.168 1.403.534.548 1.239.791 1.239.791s.54-.089 1.667-.399c1.121-.313 3.644-2.647 3.963-3.321.316-.673-.406-.765-1.079-.81-.674-.049-1.481-2.028-.625-2.698.857-.673-.092-1.645-.27-1.917-.176-.27-.744-.279-1.46-.731-.717-.447-6.57-.729-6.57-.729s1.165-1.989.449-3.428c-.351-.706-2.677-2.634-4.962-4.424l3.083-.166.271.451s3.134 3.961 3.808 4.727c.673.764 1.031 1.215 1.031 1.215s4.767.55 8.266 2.806c3.504 2.256 6.907 7.569 6.951 8.601.041 1.034-.59 2.383-1.357 2.784" transform="translate(344.9127 224.9783)"/></g><path d="m392.00376 391.99199h-383.99579v-383.99575h383.99579zm-392.00376 8.00801h400v-400h-400z"/><path d="m400 400h-400v-64.00518h400z"/><path d="m0 0h.792l-.669-3.667h-.848l-.782 3.667h.823l.357-2.115h.01z" fill="#fff" transform="matrix(11.759172 0 0 -11.759172 110.90658 345.55505)"/><path d="m123.31843 345.55505h10.08936v43.12087h-10.08936z" fill="#fff"/><g clip-path="url(#a)" fill="#fff" transform="matrix(11.759172 0 0 -11.759172 -3708.3962 2839.2755)"><path d="m0 0c0-.22.092-.306.225-.306.132 0 .224.086.224.306v1.665c0 .219-.092.306-.224.306-.133 0-.225-.087-.225-.306zm-.843 1.91c.123.593.521.817 1.068.817.546 0 .945-.224 1.067-.817.041-.189.056-.516.056-1.078s-.015-.888-.056-1.077c-.122-.593-.521-.817-1.067-.817-.547 0-.945.224-1.068.817-.041.189-.056.515-.056 1.077s.015.889.056 1.078" transform="translate(328.0384 209.3998)"/><path d="m0 0v3.667h.858v-2.88h1.103v-.787z" transform="translate(329.7518 208.3987)"/><path d="m0 0v3.667h1.859v-.756h-1.001v-.623h.828v-.786h-.828v-.715h1.052v-.787z" transform="translate(332.0173 208.3987)"/><path d="m0 0v3.667h.823l.556-1.624h.01v1.624h.736v-3.667h-.797l-.583 1.9h-.009v-1.9z" transform="translate(334.2828 208.3987)"/><path d="m0 0c0-.22.092-.306.225-.306.132 0 .235.086.235.306v.643h.858c-.005-.48-.026-.766-.066-.96-.113-.531-.552-.745-1.058-.745-.868 0-1.123.531-1.123 1.894 0 1.364.255 1.895 1.123 1.895.506 0 .93-.209 1.058-.725.04-.179.061-.439.066-.879h-.858v.542c0 .219-.103.306-.235.306-.133 0-.225-.087-.225-.306z" transform="translate(337.6611 209.3998)"/><path d="m0 0v3.667h1.859v-.756h-1.001v-.623h.828v-.786h-.828v-.715h1.052v-.787z" transform="translate(339.3852 208.3987)"/><path d="m0 0h-.316v1.541h-.01l-.542-1.541h-.257l-.516 1.541h-.009v-1.541h-.317v1.957h.503l.487-1.455h.01l.475 1.455h.492zm-2.192 1.957v-.253h-.539v-1.704h-.316v1.704h-.538v.253z" transform="translate(348.0173 238.1339)"/></g></svg>