<svg height="316.227766" viewBox="0 0 400 400.00006" width="316.227766" xmlns="http://www.w3.org/2000/svg" xmlns:xlink="http://www.w3.org/1999/xlink"><clipPath id="a"><path d="m449.726 167.746h34.011v34.02h-34.011z"/></clipPath><clipPath id="b"><path d="m449.96 167.948h33.13v33.818h-33.13z"/></clipPath><clipPath id="c"><path d="m449.726 167.75h34.011v34.016h-34.011z"/></clipPath><clipPath id="d"><path d="m449.726 167.746h34.011v34.02h-34.011z"/></clipPath><clipPath id="e"><path d="m449.726 167.75h34.011v34.016h-34.011z"/></clipPath><clipPath id="f"><path d="m449.726 167.746h34.011v34.02h-34.011z"/></clipPath><clipPath id="g"><path d="m449.726 167.75h34.011v34.016h-34.011z"/></clipPath><clipPath id="h"><path d="m449.726 167.746h34.011v34.02h-34.011z"/></clipPath><clipPath id="i"><path d="m449.726 167.75h34.011v34.016h-34.011z"/></clipPath><clipPath id="j"><path d="m449.726 167.746h34.011v34.02h-34.011z"/></clipPath><clipPath id="k"><path d="m449.726 167.75h34.011v34.016h-34.011z"/></clipPath><clipPath id="l"><path d="m449.726 167.746h34.011v34.02h-34.011z"/></clipPath><clipPath id="m"><path d="m449.726 167.75h34.011v34.016h-34.011z"/></clipPath><clipPath id="n"><path d="m449.726 167.746h34.011v34.02h-34.011z"/></clipPath><clipPath id="o"><path d="m449.726 167.75h34.011v34.016h-34.011z"/></clipPath><clipPath id="p"><path d="m449.726 167.746h34.011v34.02h-34.011z"/></clipPath><clipPath id="q"><path d="m449.726 167.75h34.011v34.016h-34.011z"/></clipPath><clipPath id="r"><path d="m449.726 167.746h34.011v34.02h-34.011z"/></clipPath><clipPath id="s"><path d="m449.726 167.75h34.011v34.016h-34.011z"/></clipPath><path d="m400 399.98814h-400v-399.98814h400z"/><g fill="#515054"><path d="m0 0 .55.414-.55.73z" transform="matrix(11.759172 0 0 -11.758823 .0235 81.84256)"/><g clip-path="url(#s)" transform="matrix(11.759172 0 0 -11.758823 -5288.3818 2372.5426)"><path d="m0 0c.249.188.326.316.08.643-.21.278-.325.287-.616.069zm.529-2.255-2.212 2.935.871.657c.627.472 1.114.506 1.629-.176.511-.679.439-1.073-.27-1.607l-.134-.101.862-1.144z" transform="translate(451.17 198.5481)"/><path d="m0 0-2.212 2.934 1.678 1.265.456-.605-.903-.681.375-.499.747.563.475-.629-.747-.563.431-.573.95.716.474-.629z" transform="translate(453.7538 197.8427)"/><path d="m0 0c.132-.176.268-.183.388-.093s.15.223.018.399l-.219.29-.194-.146-.412.548.968.729 1.229-1.631-.397-.298-.228.071c-.056-.26-.182-.458-.412-.632-.77-.579-1.189-.331-2.06.826-.835 1.108-.875 1.718-.129 2.281.415.312.905.438 1.316.171.128-.083.253-.22.432-.457l-.775-.583-.13.171c-.132.176-.267.182-.387.092s-.151-.222-.018-.397z" transform="translate(455.9023 200.7047)"/><path d="m0 0-2.212 2.935.775.583 2.211-2.935z" transform="translate(458.1306 201.1405)"/><path d="m0 0c.249.188.326.316.08.643-.21.278-.325.287-.616.069zm.529-2.255-2.212 2.935.871.657c.627.473 1.114.506 1.629-.176.511-.679.439-1.073-.271-1.607l-.133-.101.862-1.145z" transform="translate(449.8439 191.3304)"/></g><path d="m0 0-2.212 2.934 1.678 1.265.456-.605-.903-.681.376-.499.747.563.474-.629-.747-.564.431-.572.949.716.474-.629z" transform="matrix(11.759172 0 0 -11.758823 31.79208 131.01796)"/><g clip-path="url(#r)" transform="matrix(11.759172 0 0 -11.758823 -5288.3818 2372.5426)"><path d="m0 0c.133-.175.268-.183.388-.093s.15.223.018.399l-.219.29-.194-.146-.412.548.968.729 1.229-1.631-.397-.298-.228.071c-.056-.26-.182-.458-.412-.632-.77-.579-1.189-.331-2.06.826-.835 1.108-.875 1.718-.129 2.281.415.312.905.438 1.316.171.128-.083.253-.22.432-.457l-.775-.583-.13.171c-.132.176-.267.183-.387.093-.119-.091-.151-.223-.018-.398z" transform="translate(454.5762 193.487)"/><path d="m0 0-2.212 2.935.775.584 2.211-2.936z" transform="translate(456.8045 193.9229)"/><path d="m0 0c.249.187.326.316.079.643-.209.278-.324.287-.615.069zm.528-2.255-2.211 2.935.871.657c.627.472 1.114.506 1.629-.177.511-.678.439-1.072-.271-1.607l-.133-.1.862-1.144z" transform="translate(458.4734 197.8333)"/></g><path d="m0 0-2.211 2.935 1.677 1.264.456-.605-.903-.681.376-.498.747.562.474-.629-.747-.563.431-.572.95.716.474-.63z" transform="matrix(11.759172 0 0 -11.758823 133.26076 54.55861)"/><g clip-path="url(#q)" transform="matrix(11.759172 0 0 -11.758823 -5288.3818 2372.5426)"><path d="m0 0c.133-.176.268-.183.387-.093.121.09.151.223.019.399l-.219.29-.194-.146-.412.547.968.73 1.228-1.631-.396-.299-.228.072c-.056-.26-.182-.458-.413-.632-.769-.58-1.188-.331-2.059.825-.835 1.109-.876 1.719-.129 2.281.415.313.905.439 1.316.172.128-.083.252-.22.431-.457l-.774-.584-.13.172c-.132.176-.267.182-.387.092s-.151-.222-.018-.397z" transform="translate(463.2057 199.9898)"/><path d="m0 0-2.212 2.935.775.584 2.211-2.936z" transform="translate(465.434 200.4256)"/><path d="m0 0c.249.188.326.316.08.643-.21.279-.325.287-.615.069zm.529-2.255-2.212 2.935.871.657c.627.473 1.114.506 1.629-.176.511-.679.439-1.073-.271-1.607l-.133-.101.863-1.144z" transform="translate(448.5179 184.113)"/><path d="m0 0-2.212 2.934 1.678 1.265.456-.605-.903-.681.376-.499.747.564.474-.63-.747-.564.431-.571.95.716.474-.63z" transform="translate(451.1016 183.4075)"/></g><g clip-path="url(#p)" transform="matrix(11.759172 0 0 -11.758823 -5288.3818 2372.5426)"><path d="m0 0c.133-.175.268-.183.387-.092.121.09.151.222.019.398l-.219.29-.194-.146-.412.548.968.729 1.229-1.631-.397-.298-.227.072c-.057-.261-.183-.459-.413-.632-.77-.58-1.189-.332-2.06.825-.835 1.108-.875 1.718-.129 2.281.415.312.905.438 1.316.171.128-.083.253-.22.432-.457l-.775-.583-.13.171c-.132.176-.267.183-.387.093-.12-.091-.151-.222-.018-.398z" transform="translate(453.2502 186.2696)"/><path d="m0 0-2.212 2.935.774.583 2.212-2.935z" transform="translate(455.4791 186.7054)"/><path d="m0 0c.249.188.326.316.08.643-.21.278-.325.287-.615.069zm.529-2.255-2.212 2.935.871.657c.627.473 1.114.506 1.629-.176.511-.679.439-1.073-.27-1.608l-.134-.1.863-1.144z" transform="translate(457.1472 190.6156)"/><path d="m0 0-2.212 2.935 1.679 1.264.455-.605-.903-.681.376-.499.747.564.474-.63-.747-.564.431-.571.95.716.474-.63z" transform="translate(459.731 189.91)"/><path d="m0 0c.133-.175.268-.183.388-.092.12.09.151.222.018.398l-.219.29-.194-.146-.412.548.968.729 1.229-1.631-.396-.298-.228.072c-.057-.261-.183-.459-.413-.632-.77-.58-1.189-.332-2.06.825-.835 1.108-.875 1.718-.129 2.281.415.312.905.438 1.316.171.128-.083.253-.22.432-.457l-.775-.583-.129.171c-.133.176-.268.183-.388.093-.119-.091-.151-.222-.018-.398z" transform="translate(461.8795 192.7721)"/><path d="m0 0-2.212 2.935.775.584 2.212-2.936z" transform="translate(464.1078 193.2079)"/><path d="m0 0c.25.187.326.316.08.643-.21.278-.324.287-.615.069zm.529-2.255-2.211 2.935.871.657c.627.472 1.114.506 1.628-.177.512-.678.44-1.072-.271-1.606l-.133-.101.863-1.144z" transform="translate(465.7762 197.1184)"/></g><path d="m0 0-2.212 2.935 1.678 1.264.456-.605-.904-.681.376-.498.747.563.474-.63-.747-.563.432-.571.949.715.474-.63z" transform="matrix(11.759172 0 0 -11.758823 219.15097 62.96617)"/><g clip-path="url(#o)" transform="matrix(11.759172 0 0 -11.758823 -5288.3818 2372.5426)"><path d="m0 0c.133-.176.267-.183.387-.093.121.09.151.223.018.399l-.219.29-.193-.146-.413.548.969.729 1.229-1.631-.397-.299-.228.073c-.057-.261-.182-.459-.413-.632-.769-.58-1.188-.332-2.059.825-.835 1.108-.876 1.718-.129 2.281.414.312.904.438 1.315.171.129-.083.253-.22.432-.457l-.775-.584-.129.172c-.132.176-.268.182-.388.092-.119-.09-.15-.222-.017-.397z" transform="translate(470.5092 199.275)"/><path d="m0 0-2.212 2.935.774.584 2.213-2.936z" transform="translate(472.7374 199.7108)"/><path d="m0 0c.248.187.326.316.08.643-.21.278-.326.287-.615.069zm.529-2.255-2.213 2.935.872.657c.627.472 1.114.506 1.629-.177.51-.678.439-1.072-.271-1.606l-.134-.101.864-1.145z" transform="translate(474.4064 203.6213)"/><path d="m0 0-2.211 2.935 1.678 1.264.455-.605-.903-.681.376-.499.747.563.474-.629-.747-.564.431-.572.95.716.474-.629z" transform="translate(449.7755 176.1898)"/></g><g clip-path="url(#n)" transform="matrix(11.759172 0 0 -11.758823 -5288.3818 2372.5426)"><path d="m0 0c.132-.175.267-.183.387-.093s.151.223.018.399l-.218.29-.194-.146-.413.548.969.729 1.228-1.631-.396-.298-.228.071c-.057-.26-.182-.458-.413-.632-.769-.579-1.188-.331-2.059.826-.836 1.108-.876 1.718-.129 2.281.414.312.905.438 1.316.171.128-.083.252-.22.431-.457l-.775-.583-.129.171c-.132.176-.267.183-.388.093-.119-.091-.15-.223-.018-.398z" transform="translate(451.9247 179.0519)"/><path d="m0 0-2.211 2.935.775.583 2.211-2.935z" transform="translate(454.1524 179.4877)"/><path d="m0 0c.249.188.326.316.079.643-.209.278-.325.287-.615.069zm.528-2.255-2.211 2.935.871.657c.627.473 1.114.506 1.629-.176.511-.679.439-1.073-.271-1.608l-.133-.1.862-1.144z" transform="translate(455.8219 183.3982)"/><path d="m0 0-2.211 2.935 1.677 1.264.456-.605-.903-.681.376-.499.747.563.474-.629-.747-.564.431-.572.95.716.474-.629z" transform="translate(458.405 182.6926)"/><path d="m0 0c.132-.175.268-.183.387-.093.121.09.151.223.018.399l-.218.29-.194-.146-.413.548.969.729 1.228-1.631-.396-.298-.228.071c-.057-.26-.182-.458-.413-.632-.769-.579-1.188-.331-2.059.826-.836 1.108-.876 1.718-.129 2.281.415.312.905.438 1.316.171.128-.083.252-.22.431-.457l-.775-.583-.129.171c-.132.176-.267.183-.387.093-.12-.091-.151-.223-.018-.398z" transform="translate(460.5542 185.5547)"/><path d="m0 0-2.211 2.935.774.583 2.212-2.935z" transform="translate(462.7819 185.9905)"/><path d="m0 0c.248.187.326.316.079.643-.209.278-.325.287-.615.069zm.528-2.255-2.212 2.935.872.657c.627.472 1.114.506 1.628-.177.511-.678.44-1.072-.27-1.607l-.133-.1.861-1.144z" transform="translate(464.4515 189.9007)"/><path d="m0 0-2.212 2.935 1.678 1.265.456-.606-.904-.681.376-.498.747.562.474-.629-.747-.563.431-.572.95.716.474-.63z" transform="translate(467.0345 189.1945)"/><path d="m0 0c.133-.176.268-.183.388-.093s.15.223.017.399l-.218.29-.194-.146-.413.547.969.73 1.229-1.631-.397-.299-.228.072c-.057-.26-.182-.458-.413-.632-.769-.58-1.188-.331-2.059.825-.835 1.109-.876 1.719-.129 2.281.414.313.905.439 1.316.172.128-.083.253-.22.431-.457l-.775-.584-.129.172c-.132.176-.267.182-.387.092s-.151-.222-.018-.397z" transform="translate(469.1831 192.0573)"/><path d="m0 0-2.211 2.935.773.583 2.213-2.935z" transform="translate(471.4114 192.4931)"/><path d="m0 0c.248.187.326.316.08.643-.21.278-.326.287-.616.069zm.529-2.255-2.213 2.935.872.657c.627.472 1.115.506 1.629-.177.512-.678.439-1.072-.271-1.607l-.133-.1.863-1.144z" transform="translate(473.0803 196.4036)"/><path d="m0 0-2.211 2.935 1.678 1.264.456-.605-.904-.681.376-.498.747.562.475-.629-.747-.563.43-.572.95.716.475-.63z" transform="translate(475.6633 195.6973)"/></g><g clip-path="url(#m)" transform="matrix(11.759172 0 0 -11.758823 -5288.3818 2372.5426)"><path d="m0 0c.132-.176.267-.183.387-.093.119.09.151.223.018.399l-.219.29-.194-.146-.412.547.967.73 1.23-1.631-.396-.299-.228.072c-.057-.26-.183-.458-.413-.632-.769-.58-1.188-.331-2.059.825-.836 1.109-.876 1.719-.129 2.281.414.313.905.439 1.315.172.129-.083.253-.22.432-.457l-.775-.584-.129.172c-.132.176-.268.182-.388.092-.119-.09-.15-.222-.018-.397z" transform="translate(477.8132 198.5602)"/><path d="m0 0-2.211 2.935.775.584 2.211-2.936z" transform="translate(480.0402 198.9959)"/><path d="m0 0c.25.187.327.316.08.642-.209.279-.324.288-.615.069zm.529-2.255-2.211 2.935.87.657c.627.471 1.115.506 1.629-.177.512-.678.44-1.072-.271-1.607l-.133-.101.863-1.144z" transform="translate(481.709 202.9064)"/><path d="m0 0-2.212 2.935 1.678 1.264.456-.605-.904-.681.376-.499.747.563.474-.629-.747-.563.432-.572.949.715.474-.629z" transform="translate(448.4501 168.972)"/><path d="m0 0c.132-.175.267-.183.387-.092.12.09.151.222.018.398l-.218.29-.194-.146-.413.548.968.729 1.229-1.631-.396-.298-.228.071c-.057-.26-.182-.458-.413-.631-.769-.58-1.188-.332-2.059.825-.836 1.108-.876 1.718-.129 2.281.414.312.905.438 1.316.171.128-.083.252-.22.431-.457l-.775-.583-.129.171c-.132.176-.267.183-.388.093-.119-.091-.15-.223-.017-.398z" transform="translate(450.5986 171.8342)"/></g><path d="m0 0-2.212 2.935.775.584 2.212-2.936z" transform="matrix(11.759172 0 0 -11.758823 36.48749 346.8488)"/><g clip-path="url(#l)" transform="matrix(11.759172 0 0 -11.758823 -5288.3818 2372.5426)"><path d="m0 0c.249.188.326.316.079.643-.209.278-.325.287-.615.069zm.528-2.255-2.212 2.935.872.657c.627.473 1.114.506 1.628-.176.512-.679.44-1.073-.27-1.607l-.133-.101.862-1.144z" transform="translate(454.4958 176.1805)"/><path d="m0 0-2.212 2.935 1.678 1.264.456-.605-.904-.681.376-.499.747.563.474-.629-.746-.563.431-.573.949.716.474-.629z" transform="translate(457.0795 175.4749)"/><path d="m0 0c.132-.175.267-.183.387-.092.12.09.151.222.018.398l-.218.29-.194-.145-.413.547.969.729 1.229-1.631-.397-.298-.228.071c-.057-.26-.182-.458-.413-.631-.769-.58-1.188-.332-2.059.825-.836 1.108-.876 1.718-.129 2.281.415.312.905.438 1.316.171.128-.083.252-.22.431-.457l-.775-.583-.128.171c-.133.176-.268.183-.389.093-.119-.091-.15-.223-.017-.398z" transform="translate(459.2281 178.3371)"/><path d="m0 0-2.212 2.935.775.583 2.212-2.935z" transform="translate(461.4564 178.7728)"/><path d="m0 0c.249.188.326.316.079.643-.209.278-.324.287-.615.069zm.529-2.255-2.212 2.935.871.657c.627.473 1.114.506 1.628-.176.512-.679.44-1.073-.27-1.607l-.133-.101.862-1.144z" transform="translate(463.1253 182.6833)"/><path d="m0 0-2.211 2.935 1.677 1.264.456-.605-.903-.681.376-.499.746.563.474-.629-.746-.563.431-.573.949.716.476-.629z" transform="translate(465.7083 181.9778)"/><path d="m0 0c.133-.175.268-.183.388-.092.12.09.15.222.019.398l-.22.29-.194-.146-.412.548.968.729 1.229-1.631-.396-.298-.229.071c-.057-.26-.182-.458-.413-.631-.769-.58-1.188-.332-2.059.825-.835 1.108-.875 1.718-.129 2.281.416.312.906.438 1.316.171.128-.083.253-.22.431-.457l-.773-.583-.131.171c-.131.176-.267.183-.386.093-.121-.091-.152-.223-.019-.398z" transform="translate(467.857 184.8398)"/><path d="m0 0-2.211 2.935.773.583 2.213-2.935z" transform="translate(470.0853 185.2757)"/><path d="m0 0c.249.187.326.316.08.643-.21.278-.326.287-.615.069zm.529-2.255-2.213 2.935.872.657c.627.472 1.115.506 1.629-.177.512-.678.439-1.072-.271-1.606l-.133-.101.863-1.144z" transform="translate(471.7542 189.1859)"/><path d="m0 0-2.211 2.935 1.678 1.264.456-.605-.904-.681.376-.498.747.562.475-.629-.747-.563.43-.572.95.716.475-.63z" transform="translate(474.3373 188.4796)"/><path d="m0 0c.132-.176.267-.183.387-.093.119.09.151.223.018.399l-.219.29-.194-.146-.412.548.967.729 1.229-1.631-.395-.299-.228.072c-.057-.26-.183-.458-.413-.631-.769-.58-1.188-.332-2.059.825-.836 1.108-.876 1.718-.129 2.281.414.312.904.438 1.315.171.129-.083.253-.22.432-.457l-.775-.584-.129.172c-.132.176-.268.182-.388.092-.119-.09-.15-.222-.018-.397z" transform="translate(476.4872 191.3424)"/><path d="m0 0-2.212 2.935.774.583 2.211-2.935z" transform="translate(478.7155 191.7782)"/></g><g clip-path="url(#k)" transform="matrix(11.759172 0 0 -11.758823 -5288.3818 2372.5426)"><path d="m0 0c.248.187.326.316.078.643-.208.278-.324.287-.615.069zm.527-2.255-2.211 2.935.872.657c.626.472 1.114.506 1.628-.177.511-.678.44-1.072-.27-1.606l-.134-.101.862-1.145z" transform="translate(480.3844 195.6888)"/><path d="m0 0-2.211 2.935 1.677 1.264.456-.605-.904-.681.376-.498.747.562.474-.629-.747-.563.432-.572.949.716.474-.63z" transform="translate(482.9673 194.9825)"/><path d="m0 0c.133-.176.268-.183.388-.093s.15.223.017.399l-.218.29-.194-.146-.413.548.969.729 1.229-1.631-.397-.299-.228.072c-.057-.26-.182-.458-.413-.632-.769-.579-1.188-.331-2.059.826-.835 1.108-.876 1.718-.129 2.281.414.312.906.438 1.316.171.128-.083.253-.22.431-.457l-.775-.584-.129.172c-.132.176-.267.182-.388.092-.119-.09-.15-.222-.017-.397z" transform="translate(485.116 197.8452)"/><path d="m0 0-2.212 2.935.775.584 2.211-2.936z" transform="translate(451.5009 165.0522)"/><path d="m0 0c.249.188.326.316.08.643-.21.278-.325.287-.615.069zm.528-2.255-2.211 2.935.871.657c.627.472 1.114.506 1.629-.176.511-.679.439-1.073-.271-1.607l-.133-.101.862-1.144z" transform="translate(453.1698 168.9627)"/></g><path d="m0 0-2.212 2.934 1.678 1.265.456-.605-.903-.681.376-.499.747.563.474-.629-.747-.563.431-.572.949.715.474-.629z" transform="matrix(11.759172 0 0 -11.758823 70.90072 394.03584)"/><g clip-path="url(#j)" transform="matrix(11.759172 0 0 -11.758823 -5288.3818 2372.5426)"><path d="m0 0c.133-.176.268-.183.387-.093.121.09.151.223.019.399l-.219.29-.194-.146-.412.548.968.729 1.229-1.631-.397-.298-.228.071c-.056-.26-.182-.458-.412-.632-.77-.579-1.189-.331-2.06.826-.835 1.108-.875 1.718-.129 2.281.415.312.905.438 1.316.171.128-.083.253-.22.432-.457l-.775-.583-.13.171c-.132.176-.267.182-.387.092s-.151-.222-.018-.397z" transform="translate(457.9021 171.1193)"/><path d="m0 0-2.212 2.935.775.584 2.212-2.936z" transform="translate(460.1303 171.5551)"/><path d="m0 0c.249.188.326.316.08.643-.21.278-.325.287-.615.069zm.529-2.255-2.212 2.935.871.657c.627.472 1.114.506 1.629-.176.511-.679.439-1.073-.271-1.607l-.133-.101.862-1.144z" transform="translate(461.7992 175.4656)"/><path d="m0 0-2.212 2.934 1.678 1.265.456-.605-.903-.681.376-.499.746.563.475-.629-.747-.563.431-.572.949.715.474-.629z" transform="translate(464.383 174.76)"/><path d="m0 0c.133-.176.268-.183.388-.093s.15.223.019.399l-.22.29-.194-.146-.412.548.968.729 1.229-1.631-.396-.298-.229.071c-.055-.26-.182-.458-.412-.632-.77-.579-1.189-.331-2.06.826-.834 1.108-.875 1.718-.128 2.281.415.312.905.438 1.315.171.128-.083.253-.22.432-.457l-.774-.583-.131.171c-.131.176-.266.182-.386.092s-.151-.222-.018-.397z" transform="translate(466.5309 177.6222)"/><path d="m0 0-2.211 2.935.775.583 2.211-2.935z" transform="translate(468.7592 178.058)"/><path d="m0 0c.25.187.326.316.08.643-.21.278-.325.287-.615.069zm.529-2.255-2.211 2.935.87.657c.627.471 1.115.506 1.629-.177.512-.678.44-1.072-.271-1.607l-.133-.1.863-1.144z" transform="translate(470.4281 181.9684)"/><path d="m0 0-2.211 2.934 1.678 1.265.456-.605-.904-.681.376-.498.747.562.474-.629-.746-.563.43-.572.95.716.475-.63z" transform="translate(473.0112 181.2623)"/><path d="m0 0c.133-.177.267-.183.387-.093.121.09.151.223.018.399l-.219.29-.193-.146-.413.547.969.73 1.228-1.631-.396-.299-.228.072c-.057-.26-.183-.458-.413-.632-.769-.58-1.188-.331-2.059.825-.835 1.109-.876 1.718-.129 2.281.414.313.905.439 1.315.172.129-.083.253-.22.432-.457l-.775-.584-.129.172c-.132.176-.268.182-.388.092-.119-.09-.15-.222-.017-.398z" transform="translate(475.1609 184.125)"/><path d="m0 0-2.212 2.935.774.583 2.211-2.935z" transform="translate(477.3893 184.5609)"/><path d="m0 0c.248.187.326.316.078.643-.208.278-.324.287-.613.069zm.527-2.254-2.211 2.934.872.657c.627.471 1.114.506 1.629-.177.51-.678.439-1.072-.271-1.607l-.134-.1.862-1.144z" transform="translate(479.0583 188.4709)"/></g><path d="m0 0-2.211 2.934 1.677 1.265.456-.606-.903-.68.376-.498.746.562.474-.629-.745-.563.43-.572.949.715.474-.629z" transform="matrix(11.759172 0 0 -11.758823 375.32097 164.64706)"/><g clip-path="url(#i)" transform="matrix(11.759172 0 0 -11.758823 -5288.3818 2372.5426)"><path d="m0 0c.133-.177.268-.183.388-.093s.15.223.019.399l-.22.29-.194-.146-.412.547.968.73 1.229-1.631-.397-.299-.228.072c-.055-.26-.182-.458-.412-.632-.77-.58-1.189-.331-2.06.825-.835 1.109-.876 1.719-.129 2.281.416.313.906.439 1.316.172.128-.083.253-.22.431-.457l-.773-.584-.131.172c-.131.176-.267.182-.386.092-.12-.09-.152-.222-.019-.398z" transform="translate(483.7899 190.6275)"/><path d="m0 0c.249.187.326.316.08.643-.21.278-.325.287-.615.068zm.529-2.255-2.212 2.935.872.657c.626.472 1.114.506 1.628-.177.512-.678.439-1.072-.27-1.607l-.134-.101.863-1.144z" transform="translate(460.4725 168.2479)"/><path d="m0 0-2.212 2.935 1.678 1.264.456-.605-.903-.681.376-.499.746.563.475-.629-.747-.563.431-.572.95.716.474-.63z" transform="translate(463.0562 167.5417)"/></g><g clip-path="url(#h)" transform="matrix(11.759172 0 0 -11.758823 -5288.3818 2372.5426)"><path d="m0 0c.132-.176.267-.183.387-.093s.15.223.018.399l-.218.289-.194-.145-.413.547.968.73 1.229-1.631-.396-.299-.228.071c-.057-.259-.182-.457-.414-.631-.769-.58-1.187-.331-2.059.825-.835 1.109-.875 1.719-.128 2.281.414.313.905.439 1.316.172.128-.083.252-.22.431-.457l-.775-.584-.129.172c-.132.176-.267.182-.388.092-.119-.09-.15-.222-.018-.397z" transform="translate(465.2055 170.4044)"/><path d="m0 0-2.211 2.935.773.584 2.213-2.936z" transform="translate(467.4331 170.8402)"/><path d="m0 0c.248.187.326.316.08.643-.21.278-.326.287-.615.068zm.529-2.255-2.212 2.935.871.657c.627.472 1.115.506 1.629-.177.512-.678.439-1.072-.271-1.607l-.134-.101.864-1.144z" transform="translate(469.102 174.7508)"/><path d="m0 0-2.211 2.935 1.678 1.264.456-.605-.904-.681.376-.499.747.563.475-.629-.747-.563.43-.573.95.717.475-.63z" transform="translate(471.6851 174.0445)"/><path d="m0 0c.132-.176.267-.183.387-.093.119.09.151.223.018.399l-.219.289-.194-.145-.412.547.967.73 1.23-1.631-.396-.299-.228.071c-.057-.259-.183-.457-.413-.631-.769-.58-1.188-.331-2.059.825-.836 1.109-.876 1.719-.129 2.281.414.313.905.439 1.315.172.129-.083.253-.22.432-.457l-.775-.584-.129.172c-.132.176-.268.182-.388.092-.119-.09-.15-.222-.018-.397z" transform="translate(473.835 176.9073)"/><path d="m0 0-2.211 2.935.775.584 2.211-2.935z" transform="translate(476.062 177.3424)"/><path d="m0 0c.249.187.326.316.078.643-.208.278-.324.287-.615.068zm.528-2.255-2.212 2.935.871.657c.627.471 1.115.506 1.629-.177.511-.679.44-1.072-.271-1.608l-.133-.1.862-1.144z" transform="translate(477.7321 181.2536)"/></g><path d="m0 0-2.212 2.935 1.678 1.264.456-.605-.904-.68.376-.499.747.563.474-.63-.747-.562.431-.573.95.716.474-.63z" transform="matrix(11.759172 0 0 -11.758823 359.72717 249.52571)"/><g clip-path="url(#g)" transform="matrix(11.759172 0 0 -11.758823 -5288.3818 2372.5426)"><path d="m0 0c.133-.176.267-.183.387-.092.121.09.151.222.018.398l-.219.29-.193-.146-.413.547.969.73 1.229-1.631-.397-.299-.228.072c-.057-.26-.182-.458-.413-.631-.769-.581-1.188-.332-2.059.825-.835 1.108-.876 1.718-.129 2.28.414.313.905.439 1.316.172.128-.083.253-.22.431-.457l-.775-.584-.128.172c-.133.176-.269.183-.389.093-.119-.091-.15-.222-.017-.398z" transform="translate(482.4637 183.4095)"/><path d="m0 0-2.211 2.935.773.584 2.213-2.935z" transform="translate(484.692 183.8453)"/><path d="m0 0c.248.187.326.316.08.643-.21.278-.326.287-.615.068zm.529-2.255-2.213 2.935.872.657c.627.472 1.115.506 1.629-.177.512-.678.44-1.072-.271-1.607l-.133-.1.863-1.145z" transform="translate(467.7758 167.5331)"/><path d="m0 0-2.211 2.935 1.678 1.264.456-.605-.904-.681.376-.498.747.563.474-.63-.746-.563.43-.572.95.716.475-.63z" transform="translate(470.359 166.8268)"/></g><g clip-path="url(#f)" transform="matrix(11.759172 0 0 -11.758823 -5288.3818 2372.5426)"><path d="m0 0c.132-.176.267-.183.387-.093.121.09.151.223.018.399l-.219.289-.193-.145-.413.547.967.73 1.23-1.631-.396-.299-.228.072c-.057-.26-.183-.458-.413-.632-.769-.579-1.188-.331-2.059.825-.835 1.109-.876 1.718-.129 2.281.414.313.905.439 1.315.172.129-.083.253-.22.432-.457l-.775-.584-.129.172c-.132.176-.268.182-.388.092-.119-.09-.15-.222-.018-.397z" transform="translate(472.5089 169.6897)"/><path d="m0 0-2.211 2.935.775.583 2.211-2.934z" transform="translate(474.7357 170.1248)"/><path d="m0 0c.249.187.326.316.078.643-.208.278-.324.287-.615.068zm.528-2.255-2.212 2.935.871.657c.627.471 1.115.506 1.629-.177.511-.679.44-1.072-.27-1.607l-.134-.1.862-1.145z" transform="translate(476.4061 174.0359)"/><path d="m0 0-2.212 2.935 1.678 1.265.456-.606-.904-.68.376-.498.747.562.474-.63-.747-.562.432-.572.949.715.474-.629z" transform="translate(478.9892 173.329)"/></g><g clip-path="url(#e)" transform="matrix(11.759172 0 0 -11.758823 -5288.3818 2372.5426)"><path d="m0 0c.133-.177.268-.183.388-.093s.15.222.017.399l-.218.289-.194-.146-.413.548.969.73 1.229-1.631-.397-.299-.228.072c-.057-.26-.182-.458-.413-.632-.769-.58-1.188-.331-2.059.825-.835 1.109-.876 1.719-.129 2.281.414.313.905.439 1.316.172.128-.083.253-.22.431-.457l-.775-.584-.129.172c-.132.176-.268.182-.388.092-.119-.09-.15-.222-.017-.398z" transform="translate(481.1378 176.1924)"/><path d="m0 0-2.212 2.935.774.583 2.213-2.934z" transform="translate(483.366 176.6276)"/><path d="m0 0c.249.187.326.316.08.643-.21.278-.326.287-.615.068zm.529-2.255-2.213 2.935.872.657c.627.471 1.115.506 1.629-.177.51-.679.44-1.072-.271-1.607l-.133-.1.863-1.145z" transform="translate(485.0349 180.5387)"/><path d="m0 0c.25.188.326.316.08.642-.21.279-.326.288-.615.07zm.529-2.255-2.211 2.935.87.657c.627.472 1.115.506 1.629-.176.512-.679.44-1.073-.271-1.608l-.133-.1.863-1.145z" transform="translate(475.5796 167.1948)"/><path d="m0 0-2.212 2.935 1.678 1.264.456-.605-.904-.68.376-.5.747.563.474-.629-.747-.563.431-.572.95.716.474-.629z" transform="translate(478.164 166.4886)"/></g></g><g clip-path="url(#d)" transform="matrix(11.759172 0 0 -11.758823 -5288.3818 2372.5426)"><path d="m0 0c.132-.175.267-.183.387-.092.119.09.151.222.018.398l-.219.291-.194-.147-.412.548.969.729 1.229-1.63-.397-.299-.228.072c-.057-.261-.183-.459-.413-.632-.769-.58-1.188-.332-2.059.826-.836 1.107-.876 1.717-.129 2.28.414.312.905.438 1.315.171.129-.083.253-.219.432-.457l-.775-.583-.129.171c-.132.176-.268.184-.388.093-.119-.09-.15-.222-.018-.398z" fill="#515054" transform="translate(480.3126 169.3508)"/></g><path d="m0 0-2.212 2.935.774.584 2.211-2.935z" fill="#515054" transform="matrix(11.759172 0 0 -11.758823 385.89951 376.05065)"/><g clip-path="url(#c)" transform="matrix(11.759172 0 0 -11.758823 -5288.3818 2372.5426)"><path d="m0 0c.249.188.326.316.078.642-.208.279-.324.288-.613.07zm.529-2.255-2.213 2.935.872.657c.627.472 1.114.506 1.628-.176.511-.679.44-1.073-.27-1.608l-.134-.1.864-1.145z" fill="#515054" transform="translate(484.2097 173.6977)"/></g><g clip-path="url(#b)" transform="matrix(11.759172 0 0 -11.758823 -5288.3818 2372.5426)"><path d="m0 0 1.365.217 1.387.195s-.365-.138-.597-.48c.204-.039.577-.128.957-.343l1.666-.993-1.064.485c.257-.308.437-.715.431-1.271l.234-.588-.195.001.048-.704s.637-.38.398-.992l-.558-1.452-.398-.078s-.079-.534-.16-.763c-.08-.229-.798-.84-1.037-1.07l.259-1.306s.881-.59 2.476-.973c0 0 1.278-.458 1.278-1.603v-12.859h-10.825v12.859c0 1.145 1.277 1.603 1.277 1.603 1.595.383 2.478.973 2.478.973l.256 1.306c-.239.23-.955.841-1.037 1.07-.078.229-.159.763-.159.763l-.399.078-.558 1.452c-.238.612.398.992.398.992l.047.704-.194-.001.236.588c-.006.556.173.963.431 1.271l-1.065.102 1.667.406c.38.215.752.304.956.343-.232.342-1.315.884-1.315.884l2.105-.599 1.365-.217" transform="translate(465.2789 191.7878)"/><path d="m0 0 1.365.217 1.387.195s-.365-.138-.597-.48c.204-.039.577-.128.957-.343l1.666-.993-1.064.485c.257-.308.437-.715.431-1.271l.234-.588-.195.001.048-.704s.637-.38.398-.992l-.558-1.452-.398-.078s-.079-.534-.16-.763c-.08-.229-.798-.84-1.037-1.07l.259-1.306s.881-.59 2.476-.973c0 0 1.278-.458 1.278-1.603v-12.859h-10.825v12.859c0 1.145 1.277 1.603 1.277 1.603 1.595.383 2.478.973 2.478.973l.256 1.306c-.239.23-.955.841-1.037 1.07-.078.229-.159.763-.159.763l-.399.078-.558 1.452c-.238.612.398.992.398.992l.047.704-.194-.001.236.588c-.006.556.173.963.431 1.271l-1.065.102 1.667.406c.38.215.752.304.956.343-.232.342-1.315.884-1.315.884l2.105-.599 1.365-.217" fill="none" stroke="#fff" stroke-width=".442" transform="translate(465.2789 191.7878)"/><path d="m0 0v17.816c0 1.245-2.378 1.744-2.378 1.744-1.659.417-2.58 1.059-2.58 1.059l-.268 1.419.726.725.548 2.029.394-.394.159 2.376-.048.766.202-.002-.244.64c.006.606-.181 1.047-.449 1.381l1.108.112-1.736.442c-.396.232-.783.33-.995.372.241.372 1.37.963 1.37.963l-2.193-.652h-3.292v-.781l-1.858-.719.785-.855.141-1.875.403-.338-.31-2.171s.53.138.459.21c-.161.16.021-.475.021-.475l.359-.43-.071-.358.215-1.288 1.643.286-.431-1.359-2.933-1.359s-1.432-.431-1.5-1.79v-17.494z" fill="#fff" transform="translate(484.4203 166.1638)"/><path d="m0 0v17.816c0 1.245-2.378 1.744-2.378 1.744-1.659.417-2.58 1.059-2.58 1.059l-.268 1.419.726.725.548 2.029.394-.394.159 2.376-.048.766.202-.002-.244.64c.006.606-.181 1.047-.449 1.381l1.108.112-1.736.442c-.396.232-.783.33-.995.372.241.372 1.37.963 1.37.963l-2.193-.652h-3.292v-.781l-1.858-.719.785-.855.141-1.875.403-.338-.31-2.171s.53.138.459.21c-.161.16.021-.475.021-.475l.359-.43-.071-.358.215-1.288 1.643.286-.431-1.359-2.933-1.359s-1.432-.431-1.5-1.79v-17.494z" fill="none" stroke="#000" stroke-linejoin="round" stroke-width=".578" transform="translate(484.4203 166.1638)"/><path d="m0 0v17.816c0 1.245 2.378 1.744 2.378 1.744 1.659.417 2.581 1.059 2.581 1.059l.268 1.419-.728.725-.547 2.029-.394-.394-.158 2.376.047.766-.203-.002.245.64c-.006.606.182 1.047.449 1.381l-1.108.112 1.736.442c.397.232.783.33.995.372-.241.372-1.368.963-1.368.963l2.192-.652h3.292v-.781l1.858-.719-.786-.855-.141-1.875-.401-.338.309-2.171s-.531.138-.46.21c.162.16-.02-.475-.02-.475l-.359-.43.071-.358-.214-1.288-1.645.286.431-1.359 2.932-1.359s1.431-.431 1.503-1.79v-17.494z" fill="#fff" transform="translate(448.1893 166.1638)"/><path d="m0 0v17.816c0 1.245 2.378 1.744 2.378 1.744 1.659.417 2.581 1.059 2.581 1.059l.268 1.419-.728.725-.547 2.029-.394-.394-.158 2.376.047.766-.203-.002.245.64c-.006.606.182 1.047.449 1.381l-1.108.112 1.736.442c.397.232.783.33.995.372-.241.372-1.368.963-1.368.963l2.192-.652h3.292v-.781l1.858-.719-.786-.855-.141-1.875-.401-.338.309-2.171s-.531.138-.46.21c.162.16-.02-.475-.02-.475l-.359-.43.071-.358-.214-1.288-1.645.286.431-1.359 2.932-1.359s1.431-.431 1.503-1.79v-17.494z" fill="none" stroke="#000" stroke-linejoin="round" stroke-width=".578" transform="translate(448.1893 166.1638)"/></g><path d="m392.00376 391.98041h-383.99579v-383.98441h383.99579zm-392.00376 8.00773h400v-399.98814h-400z"/><path d="m400 399.98814h-400v-64.00325h400z"/><g clip-path="url(#a)" fill="#fff" transform="matrix(11.759172 0 0 -11.758823 -5288.3818 2372.5426)"><path d="m0 0c.388 0 .419.137.419.807v.664c0 .669-.031.807-.419.807zm-.858 2.962h.868c.971 0 1.267-.245 1.267-1.833 0-1.405-.21-1.834-1.267-1.834h-.868z" transform="translate(452.3081 169.4185)"/><path d="m454.068 172.381h.858v-3.667h-.858z"/><path d="m0 0c-.01.399-.128.511-.312.511-.163 0-.25-.112-.25-.245 0-.439 1.379-.797 1.379-1.819 0-.735-.444-1.041-1.154-1.041-.904 0-1.072.627-1.072 1.281h.796v-.168c0-.245.133-.429.337-.429.174 0 .297.102.297.296 0 .485-1.38.863-1.38 1.849 0 .618.491.96 1.053.96.643 0 1.082-.424 1.082-1.037v-.158z" transform="translate(456.7474 171.2469)"/><path d="m0 0c0-.22.092-.306.225-.306.132 0 .234.086.234.306v.643h.858c-.005-.48-.025-.766-.066-.96-.112-.531-.551-.745-1.057-.745-.868 0-1.124.531-1.124 1.894 0 1.364.256 1.895 1.124 1.895.506 0 .929-.209 1.057-.725.041-.179.061-.439.066-.879h-.858v.542c0 .219-.102.306-.234.306-.133 0-.225-.087-.225-.306z" transform="translate(458.7982 169.7148)"/><path d="m0 0h.153c.235 0 .317.143.317.439s-.082.439-.317.439h-.153zm-.827-2.125v3.668h1.062c.735 0 1.052-.245 1.052-1.032 0-.587-.245-.766-.409-.823v-.01c.307-.056.399-.577.399-1.037 0-.367.04-.623.112-.766h-.838c-.071.302-.102.501-.102.761 0 .619-.051.731-.327.731h-.122v-1.492z" transform="translate(461.3495 170.8383)"/><path d="m463.139 172.381h.858v-3.667h-.858z"/><path d="m0 0v3.667h1.012l.357-1.747h.01l.353 1.747h1.011v-3.667h-.735v2.186h-.011l-.388-2.186h-.475l-.388 2.186h-.011v-2.186z" transform="translate(464.4659 168.7136)"/><path d="m467.676 172.381h.858v-3.667h-.858z"/><path d="m0 0v3.667h.822l.557-1.624h.01v1.624h.736v-3.667h-.797l-.583 1.9h-.009v-1.9z" transform="translate(469.0276 168.7136)"/><path d="m0 0h.429l-.214 1.507h-.011zm1.363-1.175h-.817l-.071.46h-.521l-.072-.46h-.817l.633 3.668h1.032z" transform="translate(472.2837 169.8882)"/><path d="m0 0v-2.911h-.858v2.911h-.663v.756h2.185v-.756z" transform="translate(475.0036 171.6249)"/><path d="m475.987 172.381h.858v-3.667h-.858z"/><path d="m0 0c0-.22.092-.306.225-.306.132 0 .224.086.224.306v1.665c0 .219-.092.306-.224.306-.133 0-.225-.087-.225-.306zm-.843 1.91c.123.593.521.817 1.068.817.546 0 .944-.224 1.067-.817.041-.189.056-.516.056-1.078s-.015-.888-.056-1.077c-.123-.593-.521-.817-1.067-.817-.547 0-.945.224-1.068.817-.041.189-.056.515-.056 1.077s.015.889.056 1.078" transform="translate(478.1772 169.7148)"/><path d="m0 0v3.667h.823l.556-1.624h.01v1.624h.736v-3.667h-.797l-.583 1.9h-.009v-1.9z" transform="translate(479.8907 168.7136)"/><path d="m0 0h-.316v1.541h-.01l-.542-1.541h-.257l-.516 1.541h-.009v-1.541h-.317v1.957h.503l.487-1.455h.01l.475 1.455h.492zm-2.192 1.957v-.253h-.539v-1.704h-.316v1.704h-.538v.253z" transform="translate(482.3795 198.4488)"/></g></svg>