<?xml version="1.0" encoding="UTF-8" standalone="no"?>
<!-- Created with Inkscape (http://www.inkscape.org/) -->
<svg xmlns:dc="http://purl.org/dc/elements/1.1/" xmlns:cc="http://creativecommons.org/ns#" xmlns:rdf="http://www.w3.org/1999/02/22-rdf-syntax-ns#" xmlns:svg="http://www.w3.org/2000/svg" xmlns="http://www.w3.org/2000/svg" xmlns:sodipodi="http://sodipodi.sourceforge.net/DTD/sodipodi-0.dtd" xmlns:inkscape="http://www.inkscape.org/namespaces/inkscape" width="54.83625" height="54.83625" id="svg3962" sodipodi:version="0.32" inkscape:version="0.46" version="1.0" sodipodi:docname="Couverture anti-feu.svg" inkscape:output_extension="org.inkscape.output.svg.inkscape">
  <defs id="defs3964">
    <clipPath clipPathUnits="userSpaceOnUse" id="clipPath12184">
      <path d="M 0,842.04 L 594.96,842.04 L 594.96,0 L 0,0 L 0,842.04 z" id="path12186"/>
    </clipPath>
    <clipPath clipPathUnits="userSpaceOnUse" id="clipPath12178">
      <path d="M -8.642,850.449 L 603.642,850.449 L 603.642,-8.449 L -8.642,-8.449 L -8.642,850.449 z" id="path12180"/>
    </clipPath>
    <clipPath clipPathUnits="userSpaceOnUse" id="clipPath12172">
      <path d="M 28.209,263.679 L 73.563,263.679 L 73.563,218.324 L 28.209,218.324 L 28.209,263.679 z" clip-rule="evenodd" id="path12174"/>
    </clipPath>
    <clipPath clipPathUnits="userSpaceOnUse" id="clipPath12408">
      <path d="M 0,842.04 L 594.96,842.04 L 594.96,0 L 0,0 L 0,842.04 z" id="path12410"/>
    </clipPath>
    <clipPath clipPathUnits="userSpaceOnUse" id="clipPath12402">
      <path d="M -8.642,850.449 L 603.642,850.449 L 603.642,-8.449 L -8.642,-8.449 L -8.642,850.449 z" id="path12404"/>
    </clipPath>
    <clipPath clipPathUnits="userSpaceOnUse" id="clipPath12396">
      <path d="M 301.752,340.213 L 347.106,340.213 L 347.106,294.858 L 301.752,294.858 L 301.752,340.213 z" clip-rule="evenodd" id="path12398"/>
    </clipPath>
    <clipPath clipPathUnits="userSpaceOnUse" id="clipPath12034">
      <path d="M 0,842.04 L 594.96,842.04 L 594.96,0 L 0,0 L 0,842.04 z" id="path12036"/>
    </clipPath>
    <clipPath clipPathUnits="userSpaceOnUse" id="clipPath12028">
      <path d="M -8.642,850.449 L 603.642,850.449 L 603.642,-8.449 L -8.642,-8.449 L -8.642,850.449 z" id="path12030"/>
    </clipPath>
    <clipPath clipPathUnits="userSpaceOnUse" id="clipPath12022">
      <path d="M 28.209,413.913 L 73.563,413.913 L 73.563,368.559 L 28.209,368.559 L 28.209,413.913 z" clip-rule="evenodd" id="path12024"/>
    </clipPath>
    <clipPath clipPathUnits="userSpaceOnUse" id="clipPath11640">
      <path d="M 0,842.04 L 594.96,842.04 L 594.96,0 L 0,0 L 0,842.04 z" id="path11642"/>
    </clipPath>
    <clipPath clipPathUnits="userSpaceOnUse" id="clipPath11634">
      <path d="M -8.642,850.449 L 603.642,850.449 L 603.642,-8.449 L -8.642,-8.449 L -8.642,850.449 z" id="path11636"/>
    </clipPath>
    <clipPath clipPathUnits="userSpaceOnUse" id="clipPath11628">
      <path d="M 28.209,583.992 L 76.398,583.992 L 76.398,524.465 L 28.209,524.465 L 28.209,583.992 z" clip-rule="evenodd" id="path11630"/>
    </clipPath>
    <clipPath clipPathUnits="userSpaceOnUse" id="clipPath11810">
      <path d="M 0,842.04 L 594.96,842.04 L 594.96,0 L 0,0 L 0,842.04 z" id="path11812"/>
    </clipPath>
    <clipPath clipPathUnits="userSpaceOnUse" id="clipPath11804">
      <path d="M -8.642,850.449 L 603.642,850.449 L 603.642,-8.449 L -8.642,-8.449 L -8.642,850.449 z" id="path11806"/>
    </clipPath>
    <clipPath clipPathUnits="userSpaceOnUse" id="clipPath11798">
      <path d="M 301.752,731.394 L 349.941,731.394 L 349.941,671.866 L 301.752,671.866 L 301.752,731.394 z" clip-rule="evenodd" id="path11800"/>
    </clipPath>
    <clipPath clipPathUnits="userSpaceOnUse" id="clipPath10106">
      <path d="M 0,842.04 L 594.96,842.04 L 594.96,0 L 0,0 L 0,842.04 z" id="path10108"/>
    </clipPath>
    <clipPath clipPathUnits="userSpaceOnUse" id="clipPath10100">
      <path d="M -8.642,850.449 L 603.642,850.449 L 603.642,-8.449 L -8.642,-8.449 L -8.642,850.449 z" id="path10102"/>
    </clipPath>
    <clipPath clipPathUnits="userSpaceOnUse" id="clipPath10094">
      <path d="M 301.752,402.575 L 349.941,402.575 L 349.941,343.047 L 301.752,343.047 L 301.752,402.575 z" clip-rule="evenodd" id="path10096"/>
    </clipPath>
    <clipPath clipPathUnits="userSpaceOnUse" id="clipPath8784">
      <path d="M 0,842.04 L 594.96,842.04 L 594.96,0 L 0,0 L 0,842.04 z" id="path8786"/>
    </clipPath>
    <clipPath clipPathUnits="userSpaceOnUse" id="clipPath8778">
      <path d="M -8.642,850.449 L 603.642,850.449 L 603.642,-8.449 L -8.642,-8.449 L -8.642,850.449 z" id="path8780"/>
    </clipPath>
    <clipPath clipPathUnits="userSpaceOnUse" id="clipPath8772">
      <path d="M 28.209,351.551 L 79.232,351.551 L 79.232,300.528 L 28.209,300.528 L 28.209,351.551 z" clip-rule="evenodd" id="path8774"/>
    </clipPath>
    <clipPath clipPathUnits="userSpaceOnUse" id="clipPath8758">
      <path d="M 0,842.04 L 594.96,842.04 L 594.96,0 L 0,0 L 0,842.04 z" id="path8760"/>
    </clipPath>
    <clipPath clipPathUnits="userSpaceOnUse" id="clipPath8752">
      <path d="M -8.642,850.449 L 603.642,850.449 L 603.642,-8.449 L -8.642,-8.449 L -8.642,850.449 z" id="path8754"/>
    </clipPath>
    <clipPath clipPathUnits="userSpaceOnUse" id="clipPath8746">
      <path d="M 28.209,439.425 L 79.232,439.425 L 79.232,388.402 L 28.209,388.402 L 28.209,439.425 z" clip-rule="evenodd" id="path8748"/>
    </clipPath>
    <clipPath clipPathUnits="userSpaceOnUse" id="clipPath7502">
      <path d="M 0,842.04 L 594.96,842.04 L 594.96,0 L 0,0 L 0,842.04 z" id="path7504"/>
    </clipPath>
    <clipPath clipPathUnits="userSpaceOnUse" id="clipPath7496">
      <path d="M -8.642,850.449 L 603.642,850.449 L 603.642,-8.449 L -8.642,-8.449 L -8.642,850.449 z" id="path7498"/>
    </clipPath>
    <clipPath clipPathUnits="userSpaceOnUse" id="clipPath7490">
      <path d="M 301.752,113.441 L 352.776,113.441 L 352.776,62.417 L 301.752,62.417 L 301.752,113.441 z" clip-rule="evenodd" id="path7492"/>
    </clipPath>
    <clipPath clipPathUnits="userSpaceOnUse" id="clipPath7476">
      <path d="M 0,842.04 L 594.96,842.04 L 594.96,0 L 0,0 L 0,842.04 z" id="path7478"/>
    </clipPath>
    <clipPath clipPathUnits="userSpaceOnUse" id="clipPath7470">
      <path d="M -8.642,850.449 L 603.642,850.449 L 603.642,-8.449 L -8.642,-8.449 L -8.642,850.449 z" id="path7472"/>
    </clipPath>
    <clipPath clipPathUnits="userSpaceOnUse" id="clipPath7464">
      <path d="M 301.752,201.315 L 352.776,201.315 L 352.776,150.291 L 301.752,150.291 L 301.752,201.315 z" clip-rule="evenodd" id="path7466"/>
    </clipPath>
    <clipPath clipPathUnits="userSpaceOnUse" id="clipPath7434">
      <path d="M 0,842.04 L 594.96,842.04 L 594.96,0 L 0,0 L 0,842.04 z" id="path7436"/>
    </clipPath>
    <clipPath clipPathUnits="userSpaceOnUse" id="clipPath7428">
      <path d="M -8.642,850.449 L 603.642,850.449 L 603.642,-8.449 L -8.642,-8.449 L -8.642,850.449 z" id="path7430"/>
    </clipPath>
    <clipPath clipPathUnits="userSpaceOnUse" id="clipPath7422">
      <path d="M 301.752,289.189 L 352.776,289.189 L 352.776,238.165 L 301.752,238.165 L 301.752,289.189 z" clip-rule="evenodd" id="path7424"/>
    </clipPath>
    <clipPath clipPathUnits="userSpaceOnUse" id="clipPath7410">
      <path d="M 0,842.04 L 594.96,842.04 L 594.96,0 L 0,0 L 0,842.04 z" id="path7412"/>
    </clipPath>
    <clipPath clipPathUnits="userSpaceOnUse" id="clipPath7404">
      <path d="M -8.642,850.449 L 603.642,850.449 L 603.642,-8.449 L -8.642,-8.449 L -8.642,850.449 z" id="path7406"/>
    </clipPath>
    <clipPath clipPathUnits="userSpaceOnUse" id="clipPath7398">
      <path d="M 301.752,377.063 L 352.776,377.063 L 352.776,326.039 L 301.752,326.039 L 301.752,377.063 z" clip-rule="evenodd" id="path7400"/>
    </clipPath>
    <clipPath clipPathUnits="userSpaceOnUse" id="clipPath7376">
      <path d="M 0,842.04 L 594.96,842.04 L 594.96,0 L 0,0 L 0,842.04 z" id="path7378"/>
    </clipPath>
    <clipPath clipPathUnits="userSpaceOnUse" id="clipPath7370">
      <path d="M -8.642,850.449 L 603.642,850.449 L 603.642,-8.449 L -8.642,-8.449 L -8.642,850.449 z" id="path7372"/>
    </clipPath>
    <clipPath clipPathUnits="userSpaceOnUse" id="clipPath7364">
      <path d="M 301.752,464.937 L 352.776,464.937 L 352.776,413.913 L 301.752,413.913 L 301.752,464.937 z" clip-rule="evenodd" id="path7366"/>
    </clipPath>
    <clipPath clipPathUnits="userSpaceOnUse" id="clipPath7340">
      <path d="M 0,842.04 L 594.96,842.04 L 594.96,0 L 0,0 L 0,842.04 z" id="path7342"/>
    </clipPath>
    <clipPath clipPathUnits="userSpaceOnUse" id="clipPath7334">
      <path d="M -8.642,850.449 L 603.642,850.449 L 603.642,-8.449 L -8.642,-8.449 L -8.642,850.449 z" id="path7336"/>
    </clipPath>
    <clipPath clipPathUnits="userSpaceOnUse" id="clipPath7328">
      <path d="M 301.752,552.811 L 352.776,552.811 L 352.776,501.787 L 301.752,501.787 L 301.752,552.811 z" clip-rule="evenodd" id="path7330"/>
    </clipPath>
    <clipPath clipPathUnits="userSpaceOnUse" id="clipPath7316">
      <path d="M 0,842.04 L 594.96,842.04 L 594.96,0 L 0,0 L 0,842.04 z" id="path7318"/>
    </clipPath>
    <clipPath clipPathUnits="userSpaceOnUse" id="clipPath7310">
      <path d="M -8.642,850.449 L 603.642,850.449 L 603.642,-8.449 L -8.642,-8.449 L -8.642,850.449 z" id="path7312"/>
    </clipPath>
    <clipPath clipPathUnits="userSpaceOnUse" id="clipPath7304">
      <path d="M 301.752,640.685 L 352.776,640.685 L 352.776,589.661 L 301.752,589.661 L 301.752,640.685 z" clip-rule="evenodd" id="path7306"/>
    </clipPath>
    <clipPath clipPathUnits="userSpaceOnUse" id="clipPath7278">
      <path d="M 0,842.04 L 594.96,842.04 L 594.96,0 L 0,0 L 0,842.04 z" id="path7280"/>
    </clipPath>
    <clipPath clipPathUnits="userSpaceOnUse" id="clipPath7272">
      <path d="M -8.642,850.449 L 603.642,850.449 L 603.642,-8.449 L -8.642,-8.449 L -8.642,850.449 z" id="path7274"/>
    </clipPath>
    <clipPath clipPathUnits="userSpaceOnUse" id="clipPath7266">
      <path d="M 28.209,113.441 L 79.232,113.441 L 79.232,62.417 L 28.209,62.417 L 28.209,113.441 z" clip-rule="evenodd" id="path7268"/>
    </clipPath>
    <clipPath clipPathUnits="userSpaceOnUse" id="clipPath7246">
      <path d="M 0,842.04 L 594.96,842.04 L 594.96,0 L 0,0 L 0,842.04 z" id="path7248"/>
    </clipPath>
    <clipPath clipPathUnits="userSpaceOnUse" id="clipPath7240">
      <path d="M -8.642,850.449 L 603.642,850.449 L 603.642,-8.449 L -8.642,-8.449 L -8.642,850.449 z" id="path7242"/>
    </clipPath>
    <clipPath clipPathUnits="userSpaceOnUse" id="clipPath7234">
      <path d="M 28.209,201.315 L 79.232,201.315 L 79.232,150.291 L 28.209,150.291 L 28.209,201.315 z" clip-rule="evenodd" id="path7236"/>
    </clipPath>
    <clipPath clipPathUnits="userSpaceOnUse" id="clipPath7222">
      <path d="M 0,842.04 L 594.96,842.04 L 594.96,0 L 0,0 L 0,842.04 z" id="path7224"/>
    </clipPath>
    <clipPath clipPathUnits="userSpaceOnUse" id="clipPath7216">
      <path d="M -8.642,850.449 L 603.642,850.449 L 603.642,-8.449 L -8.642,-8.449 L -8.642,850.449 z" id="path7218"/>
    </clipPath>
    <clipPath clipPathUnits="userSpaceOnUse" id="clipPath7210">
      <path d="M 28.209,289.189 L 79.232,289.189 L 79.232,238.165 L 28.209,238.165 L 28.209,289.189 z" clip-rule="evenodd" id="path7212"/>
    </clipPath>
    <clipPath clipPathUnits="userSpaceOnUse" id="clipPath7094">
      <path d="M 0,842.04 L 594.96,842.04 L 594.96,0 L 0,0 L 0,842.04 z" id="path7096"/>
    </clipPath>
    <clipPath clipPathUnits="userSpaceOnUse" id="clipPath7088">
      <path d="M -8.642,850.449 L 603.642,850.449 L 603.642,-8.449 L -8.642,-8.449 L -8.642,850.449 z" id="path7090"/>
    </clipPath>
    <clipPath clipPathUnits="userSpaceOnUse" id="clipPath7082">
      <path d="M 28.209,552.811 L 79.232,552.811 L 79.232,501.787 L 28.209,501.787 L 28.209,552.811 z" clip-rule="evenodd" id="path7084"/>
    </clipPath>
    <clipPath clipPathUnits="userSpaceOnUse" id="clipPath7038">
      <path d="M 0,842.04 L 594.96,842.04 L 594.96,0 L 0,0 L 0,842.04 z" id="path7040"/>
    </clipPath>
    <clipPath clipPathUnits="userSpaceOnUse" id="clipPath7032">
      <path d="M -8.642,850.449 L 603.642,850.449 L 603.642,-8.449 L -8.642,-8.449 L -8.642,850.449 z" id="path7034"/>
    </clipPath>
    <clipPath clipPathUnits="userSpaceOnUse" id="clipPath7026">
      <path d="M 28.209,728.559 L 79.232,728.559 L 79.232,677.535 L 28.209,677.535 L 28.209,728.559 z" clip-rule="evenodd" id="path7028"/>
    </clipPath>
    <clipPath clipPathUnits="userSpaceOnUse" id="clipPath5627">
      <path d="M 0,842.04 L 594.96,842.04 L 594.96,0 L 0,0 L 0,842.04 z" id="path5629"/>
    </clipPath>
    <clipPath clipPathUnits="userSpaceOnUse" id="clipPath5621">
      <path d="M -8.642,850.449 L 603.642,850.449 L 603.642,-8.449 L -8.642,-8.449 L -8.642,850.449 z" id="path5623"/>
    </clipPath>
    <clipPath clipPathUnits="userSpaceOnUse" id="clipPath5615">
      <path d="M 28.209,331.709 L 79.232,331.709 L 79.232,280.685 L 28.209,280.685 L 28.209,331.709 z" clip-rule="evenodd" id="path5617"/>
    </clipPath>
    <clipPath clipPathUnits="userSpaceOnUse" id="clipPath5261">
      <path d="M 0,842.04 L 594.96,842.04 L 594.96,0 L 0,0 L 0,842.04 z" id="path5263"/>
    </clipPath>
    <clipPath clipPathUnits="userSpaceOnUse" id="clipPath5255">
      <path d="M -8.642,850.449 L 603.642,850.449 L 603.642,-8.449 L -8.642,-8.449 L -8.642,850.449 z" id="path5257"/>
    </clipPath>
    <clipPath clipPathUnits="userSpaceOnUse" id="clipPath5249">
      <path d="M 28.209,649.189 L 79.232,649.189 L 79.232,598.165 L 28.209,598.165 L 28.209,649.189 z" clip-rule="evenodd" id="path5251"/>
    </clipPath>
    <clipPath clipPathUnits="userSpaceOnUse" id="clipPath3536">
      <path d="M 0,842.04 L 594.96,842.04 L 594.96,0 L 0,0 L 0,842.04 z" id="path3538"/>
    </clipPath>
    <clipPath clipPathUnits="userSpaceOnUse" id="clipPath3530">
      <path d="M -8.642,850.449 L 603.642,850.449 L 603.642,-8.449 L -8.642,-8.449 L -8.642,850.449 z" id="path3532"/>
    </clipPath>
    <clipPath clipPathUnits="userSpaceOnUse" id="clipPath3524">
      <path d="M 28.209,169.974 L 73.563,169.974 L 73.563,124.62 L 28.209,124.62 L 28.209,169.974 z" clip-rule="evenodd" id="path3526"/>
    </clipPath>
    <inkscape:perspective sodipodi:type="inkscape:persp3d" inkscape:vp_x="0 : 526.18109 : 1" inkscape:vp_y="0 : 1000 : 0" inkscape:vp_z="744.09448 : 526.18109 : 1" inkscape:persp3d-origin="372.04724 : 350.78739 : 1" id="perspective3970"/>
  </defs>
  <sodipodi:namedview id="base" pagecolor="#ffffff" bordercolor="#666666" borderopacity="1.0" gridtolerance="10000" guidetolerance="10" objecttolerance="10" inkscape:pageopacity="0.0" inkscape:pageshadow="2" inkscape:zoom="1" inkscape:cx="32.417244" inkscape:cy="29.531339" inkscape:document-units="px" inkscape:current-layer="layer1" showgrid="false" inkscape:window-width="640" inkscape:window-height="687" inkscape:window-x="0" inkscape:window-y="-4"/>
  <metadata id="metadata3967">
    <rdf:RDF>
      <cc:Work rdf:about="">
        <dc:format>image/svg+xml</dc:format>
        <dc:type rdf:resource="http://purl.org/dc/dcmitype/StillImage"/>
      </cc:Work>
    </rdf:RDF>
  </metadata>
  <g inkscape:label="Layer 1" inkscape:groupmode="layer" id="layer1" transform="translate(-11315.761,2629.6674)">
    <g transform="matrix(1.25,0,0,-1.25,11280.007,-2300.5649)" id="g12168">
      <g id="g12170" clip-path="url(#clipPath12172)">
        <g id="g12176" clip-path="url(#clipPath12178)">
          <g id="g12182" clip-path="url(#clipPath12184)">
            <path d="M 28.711,263.174 L 72.364,263.174 L 72.364,219.521 L 28.711,219.521 L 28.711,263.174 z" style="fill:#ffffff;fill-opacity:1;fill-rule:evenodd;stroke:#000000;stroke-width:0.21600001;stroke-linecap:butt;stroke-linejoin:miter;stroke-miterlimit:2.61299992;stroke-dasharray:none;stroke-opacity:1" id="path12188"/>
            <path d="M 29.802,262.082 L 71.273,262.082 L 71.273,220.611 L 29.802,220.611 L 29.802,262.082 z" style="fill:#de0029;fill-opacity:1;fill-rule:evenodd;stroke:none" id="path12190"/>
            <path d="M 57.058,251.538 C 57.058,250.382 57.996,249.444 59.152,249.444 C 60.308,249.444 61.245,250.382 61.245,251.538 C 61.245,252.694 60.308,253.632 59.152,253.632 C 57.996,253.632 57.058,252.694 57.058,251.538" style="fill:#ffffff;fill-opacity:1;fill-rule:evenodd;stroke:none" id="path12192"/>
            <path d="M 32.47,240.024 C 32.47,238.867 33.407,237.929 34.563,237.929 C 35.72,237.929 36.657,238.867 36.657,240.024 C 36.657,241.179 35.72,242.117 34.563,242.117 C 33.407,242.117 32.47,241.179 32.47,240.024" style="fill:#ffffff;fill-opacity:1;fill-rule:evenodd;stroke:none" id="path12194"/>
            <path d="M 68.191,244.21 L 67.586,244.21 C 67.425,245.424 66.364,245.257 66.364,245.257 L 65.612,245.257 C 65.27,245.257 64.818,245.478 64.607,245.747 L 62.559,248.365 C 62.349,248.635 61.897,248.856 61.555,248.856 L 56.749,248.856 C 56.406,248.856 55.954,248.635 55.744,248.365 L 53.696,245.747 C 53.486,245.478 53.033,245.257 52.691,245.257 L 51.94,245.257 C 51.94,245.257 50.879,245.424 50.718,244.21 L 50.112,244.21 C 49.884,244.21 49.698,244.025 49.698,243.796 L 49.698,236.84 C 49.698,236.61 49.884,236.425 50.112,236.425 L 56.469,236.425 L 56.469,231.125 C 56.469,230.475 56.997,229.947 57.647,229.947 C 58.297,229.947 58.824,230.475 58.824,231.125 L 58.824,236.425 L 59.479,236.425 L 59.479,231.125 C 59.479,230.475 60.007,229.947 60.656,229.947 C 61.307,229.947 61.834,230.475 61.834,231.125 L 61.834,236.425 L 68.191,236.425 C 68.42,236.425 68.606,236.61 68.606,236.84 L 68.606,243.796 C 68.606,244.025 68.42,244.21 68.191,244.21 z M 63.347,244.21 L 61.923,244.21 L 61.923,245.977 L 63.347,244.21 z M 56.381,245.977 L 56.381,244.21 L 54.956,244.21 L 56.381,245.977" style="fill:#ffffff;fill-opacity:1;fill-rule:evenodd;stroke:none" id="path12196"/>
            <path d="M 50.259,232.393 L 50.946,230.537 L 49.528,230.537 C 49.67,230.835 49.777,231.272 49.777,231.917 C 49.777,233.856 47.608,235.42 47.305,235.758 C 47.003,236.095 46.719,237.252 46.719,237.252 C 46.417,236.861 46.203,236.008 46.203,236.008 C 44.691,238.141 43.606,237.822 43.606,237.822 C 44.46,236.986 44.264,235.51 44.264,235.51 C 43.429,235.795 43.037,237.074 43.037,237.074 C 42.557,236.256 42.842,234.229 42.842,234.229 C 42.557,234.425 42.273,235.19 42.273,235.19 C 41.4,232.417 42.177,231.071 42.676,230.537 L 41.615,230.537 L 41.615,232.215 L 41.335,232.215 C 41.335,232.215 41.03,232.19 40.801,232.572 C 40.627,232.86 39.367,235.103 38.772,236.163 L 40.091,236.163 C 40.434,236.163 40.923,236.348 41.179,236.575 L 43.592,238.715 L 44.05,239.172 C 44.05,239.172 44.639,239.893 44.05,240.481 C 43.461,241.07 42.676,240.612 42.676,240.612 L 40.263,238.473 C 40.007,238.246 39.517,238.061 39.175,238.061 L 36.199,238.061 C 36.199,238.061 34.7,238.165 34.115,236.309 C 33.733,235.164 34.954,233.614 34.954,233.614 L 37.165,229.877 C 37.165,229.877 37.674,229.063 38.665,229.063 C 39.657,229.063 51.327,229.063 51.327,229.063 C 51.327,229.063 53.31,229.14 53.31,230.893 C 53.31,232.647 50.259,232.393 50.259,232.393" style="fill:#ffffff;fill-opacity:1;fill-rule:evenodd;stroke:none" id="path12198"/>
            <path d="M 44.549,230.547 C 44.549,230.547 43.927,231.117 43.802,231.758 C 43.678,232.397 43.464,233.429 43.393,233.606 L 43.98,233.056 C 43.98,233.056 44.549,234.318 44.976,234.62 C 44.976,234.62 44.976,233.358 45.367,233.02 C 45.367,233.02 45.545,233.304 45.527,233.536 C 45.509,233.767 45.652,234.406 45.741,234.549 C 45.741,234.549 45.847,233.679 46.078,233.429 C 46.078,233.429 46.629,234.39 46.096,235.331 C 46.096,235.331 47.287,234.958 47.554,232.949 C 47.554,232.949 48.212,233.695 48.533,233.713 C 48.533,233.713 48.426,233.197 48.496,232.895 C 48.568,232.593 48.55,231.047 48.159,230.547 L 44.549,230.547" style="fill:#de0029;fill-opacity:1;fill-rule:evenodd;stroke:none" id="path12200"/>
          </g>
        </g>
      </g>
    </g>
  </g>
</svg>