<?xml version="1.0" encoding="UTF-8"?>
<!DOCTYPE svg PUBLIC "-//W3C//DTD SVG 1.1//EN" "http://www.w3.org/Graphics/SVG/1.1/DTD/svg11.dtd">
<svg xmlns="http://www.w3.org/2000/svg" version="1.1" width="1453px" height="1252px" style="shape-rendering:geometricPrecision; text-rendering:geometricPrecision; image-rendering:optimizeQuality; fill-rule:evenodd; clip-rule:evenodd" xmlns:xlink="http://www.w3.org/1999/xlink">
<g><path style="opacity:0.993" fill="#000000" d="M 708.5,33.5 C 742.994,28.4965 772.16,38.4965 796,63.5C 798.422,67.3438 801.089,71.0105 804,74.5C 1000.78,406.034 1198.11,737.368 1396,1068.5C 1399.4,1075.63 1403.06,1082.63 1407,1089.5C 1422.89,1134.44 1412.39,1171.94 1375.5,1202C 1364.46,1209.18 1352.46,1214.18 1339.5,1217C 930.5,1217.67 521.5,1217.67 112.5,1217C 72.8789,1207.05 48.3789,1182.21 39,1142.5C 38.3333,1131.5 38.3333,1120.5 39,1109.5C 40.1903,1102.6 42.1903,1095.93 45,1089.5C 49.3333,1081.5 53.6667,1073.5 58,1065.5C 252.824,739.196 447.157,412.53 641,85.5C 655.683,57.9203 678.183,40.5869 708.5,33.5 Z"/></g>
<g><path style="opacity:1" fill="#d9660e" d="M 723.5,116.5 C 728.952,116.144 732.785,118.477 735,123.5C 933.252,456.335 1131.25,789.335 1329,1122.5C 1330.38,1126.9 1329.21,1130.4 1325.5,1133C 926.246,1134.67 526.913,1135 127.5,1134C 122.933,1131.37 121.433,1127.53 123,1122.5C 321.667,788.5 520.333,454.5 719,120.5C 720.397,118.93 721.897,117.596 723.5,116.5 Z"/></g>
<g><path style="opacity:1" fill="#0b0403" d="M 730.5,388.5 C 738.243,388.197 742.576,391.864 743.5,399.5C 744.616,415.159 745.116,430.826 745,446.5C 743.786,448.049 742.286,449.215 740.5,450C 734.833,450.667 729.167,450.667 723.5,450C 719.474,449.112 717.474,446.612 717.5,442.5C 718.082,438.845 718.582,435.178 719,431.5C 722.418,426.451 724.085,420.784 724,414.5C 724.692,413.975 725.192,413.308 725.5,412.5C 724.25,409.193 723.584,405.693 723.5,402C 722.254,395.259 724.588,390.759 730.5,388.5 Z"/></g>
<g><path style="opacity:1" fill="#0c0503" d="M 821.5,428.5 C 826.54,427.657 830.54,429.157 833.5,433C 835.717,441.369 837.217,449.869 838,458.5C 839.981,462.147 841.481,465.98 842.5,470C 842.297,472.406 841.297,474.406 839.5,476C 830.206,478.331 820.873,478.665 811.5,477C 808.651,474.441 807.817,471.274 809,467.5C 810.316,466.026 811.316,464.359 812,462.5C 812.317,455.76 813.484,449.26 815.5,443C 814.833,441.667 814.167,440.333 813.5,439C 815.633,435.042 818.299,431.542 821.5,428.5 Z"/></g>
<g><path style="opacity:1" fill="#010000" d="M 682.5,631.5 C 683.725,630.848 684.392,629.681 684.5,628C 685.331,622.196 685.665,616.362 685.5,610.5C 687.075,590.886 689.242,571.219 692,551.5C 693.127,547.686 694.294,543.853 695.5,540C 694.138,532.147 694.305,524.313 696,516.5C 696.833,515.667 697.667,514.833 698.5,514C 702.194,513.722 705.861,513.722 709.5,514C 710.887,511.955 712.054,509.788 713,507.5C 713.216,499.596 714.049,491.763 715.5,484C 714.877,480.519 714.377,477.019 714,473.5C 711.343,469.217 710.343,464.551 711,459.5C 712.8,455.765 715.8,454.098 720,454.5C 721.5,454.667 723,454.833 724.5,455C 726.263,456.564 728.263,457.731 730.5,458.5C 733.75,457.806 736.917,456.806 740,455.5C 742.967,456.711 745.967,457.711 749,458.5C 750.349,460.812 751.182,463.312 751.5,466C 750.301,473.825 747.301,480.825 742.5,487C 741.678,489.434 741.344,491.934 741.5,494.5C 739.656,496.279 738.99,498.612 739.5,501.5C 738.467,502.912 737.801,504.578 737.5,506.5C 738.021,510.191 738.688,513.857 739.5,517.5C 743.558,519.784 747.891,521.451 752.5,522.5C 755.068,525.396 756.735,528.73 757.5,532.5C 757.58,545.35 757.413,558.35 757,571.5C 751.082,608.764 751.082,646.097 757,683.5C 758.868,684.672 760.702,684.505 762.5,683C 767.507,676.426 770.007,668.926 770,660.5C 771.91,656.733 773.076,652.733 773.5,648.5C 773.868,647.09 774.701,646.09 776,645.5C 776.746,635.158 777.579,624.825 778.5,614.5C 779.243,613.092 780.077,611.759 781,610.5C 781.133,605.534 781.967,600.7 783.5,596C 781.15,592.437 781.817,589.27 785.5,586.5C 787.542,584.287 789.875,583.62 792.5,584.5C 794.167,584.167 795.167,583.167 795.5,581.5C 795.742,578.063 796.909,575.063 799,572.5C 799.418,568.822 799.918,565.155 800.5,561.5C 799.733,558.902 798.733,556.402 797.5,554C 798.291,549.548 800.791,546.715 805,545.5C 809.503,546.846 813.67,548.846 817.5,551.5C 821.621,548.91 825.621,549.076 829.5,552C 834.241,556.849 835.575,562.515 833.5,569C 830.842,577.061 827.676,584.895 824,592.5C 823.211,594.712 823.378,596.712 824.5,598.5C 824.5,599.5 824.5,600.5 824.5,601.5C 826.167,601.5 827.833,601.5 829.5,601.5C 832.561,603.83 834.228,606.997 834.5,611C 834.111,627.417 833.444,643.917 832.5,660.5C 831.274,664.749 830.607,669.083 830.5,673.5C 829.168,684.814 828.501,696.48 828.5,708.5C 828.5,720.338 828.833,732.005 829.5,743.5C 830.81,754.193 830.81,765.026 829.5,776C 830.078,777.811 830.578,779.645 831,781.5C 834.791,782.447 837.791,781.114 840,777.5C 844.426,772.05 848.092,766.05 851,759.5C 852.074,758.382 853.24,757.382 854.5,756.5C 854.992,752.161 856.326,748.161 858.5,744.5C 860.231,741.929 861.231,738.929 861.5,735.5C 861.517,733.435 861.85,731.435 862.5,729.5C 864.436,725.285 865.103,720.619 864.5,715.5C 866.914,709.656 869.08,703.656 871,697.5C 874.084,693.594 876.417,689.26 878,684.5C 882.092,681.661 885.259,677.994 887.5,673.5C 890.155,672.449 892.655,671.116 895,669.5C 898.662,668.976 902.162,667.976 905.5,666.5C 910.759,661.067 915.925,655.401 921,649.5C 921.333,648.167 921.667,646.833 922,645.5C 927.356,640.469 933.689,637.802 941,637.5C 942.833,637.667 944.667,637.833 946.5,638C 948.891,642.344 949.058,646.844 947,651.5C 942.924,659.87 939.091,668.37 935.5,677C 934.991,678.169 934.158,679.002 933,679.5C 932.173,683.541 932.34,687.541 933.5,691.5C 936.133,695.607 937.799,700.107 938.5,705C 935.43,717.854 932.597,730.687 930,743.5C 928.946,746.693 927.446,749.693 925.5,752.5C 924.117,761.682 922.284,770.682 920,779.5C 914.873,793.442 910.873,807.775 908,822.5C 904.328,829.503 900.661,836.503 897,843.5C 895.216,847.766 893.716,852.099 892.5,856.5C 890.952,856.821 890.285,857.821 890.5,859.5C 887.441,864.613 884.608,869.947 882,875.5C 879.656,886.196 876.323,896.53 872,906.5C 866.418,913.203 861.252,920.203 856.5,927.5C 848.572,934.938 840.238,941.771 831.5,948C 824.985,955.184 818.819,962.684 813,970.5C 811.917,974.751 810.25,978.751 808,982.5C 804.255,1005.62 798.589,1028.29 791,1050.5C 790.333,1051.17 789.667,1051.83 789,1052.5C 787.932,1064.55 787.265,1076.55 787,1088.5C 786.907,1091.01 786.074,1093.17 784.5,1095C 756.418,1096.16 728.251,1096.66 700,1096.5C 670.657,1096.48 641.324,1096.14 612,1095.5C 610.167,1095.17 608.333,1094.83 606.5,1094.5C 605.088,1092.42 603.588,1090.42 602,1088.5C 601.777,1083.75 601.277,1079.08 600.5,1074.5C 600.666,1066.83 600.5,1059.16 600,1051.5C 599.722,1050.58 599.222,1049.92 598.5,1049.5C 597.5,1049.17 596.833,1048.5 596.5,1047.5C 596.638,1042.59 595.972,1037.92 594.5,1033.5C 592.354,1024.18 590.687,1014.85 589.5,1005.5C 584.023,997.281 579.19,988.615 575,979.5C 565.93,971.647 559.097,962.314 554.5,951.5C 553.5,951.5 552.5,951.5 551.5,951.5C 549.69,948.476 548.523,945.142 548,941.5C 545.212,939.588 543.879,936.921 544,933.5C 542.829,931.411 541.496,929.411 540,927.5C 539.757,922.194 538.424,917.194 536,912.5C 535.667,906.167 535.333,899.833 535,893.5C 532.398,887.322 530.898,880.822 530.5,874C 532.41,865.475 531.577,857.308 528,849.5C 528.037,831.58 526.204,813.914 522.5,796.5C 521.692,783.831 520.859,771.165 520,758.5C 519.581,757.328 518.915,756.328 518,755.5C 517.458,745.825 516.791,736.158 516,726.5C 514.883,723.93 514.05,721.263 513.5,718.5C 513.041,707.924 511.541,697.591 509,687.5C 508.667,669.5 508.333,651.5 508,633.5C 507.443,628.272 506.11,623.272 504,618.5C 503.333,596.167 503.333,573.833 504,551.5C 506.558,544.048 508.225,536.381 509,528.5C 512.321,522.66 517.154,518.993 523.5,517.5C 524.833,517.667 526.167,517.833 527.5,518C 530.778,519.648 533.945,521.481 537,523.5C 538.67,528.172 540.337,532.839 542,537.5C 543.472,560.882 545.472,584.216 548,607.5C 549.044,608.623 549.71,609.956 550,611.5C 552.146,622.699 553.812,634.032 555,645.5C 556,647.167 557,648.833 558,650.5C 561.598,665.832 567.098,680.498 574.5,694.5C 581.699,700.898 588.366,700.065 594.5,692C 595.448,691.517 596.448,691.351 597.5,691.5C 597.47,687.963 598.97,685.296 602,683.5C 602.176,680.118 602.676,676.785 603.5,673.5C 604.229,647.998 604.895,622.498 605.5,597C 605.345,593.813 605.011,590.646 604.5,587.5C 607.145,573.961 608.812,560.295 609.5,546.5C 611.369,544.365 612.036,541.698 611.5,538.5C 613.06,524.5 612.727,510.5 610.5,496.5C 610.365,494.192 611.031,492.192 612.5,490.5C 607.678,483.472 609.178,478.472 617,475.5C 618.93,475.908 620.764,476.575 622.5,477.5C 624.16,476.213 625.826,474.88 627.5,473.5C 629.126,468.187 630.792,462.854 632.5,457.5C 632.431,453.949 631.598,450.616 630,447.5C 628.271,435.582 633.438,430.749 645.5,433C 650.556,435.962 652.556,440.462 651.5,446.5C 651.113,455.752 649.946,464.752 648,473.5C 648.785,475.286 649.951,476.786 651.5,478C 660.473,476.813 664.806,480.646 664.5,489.5C 663.383,501.308 662.716,513.142 662.5,525C 663.421,544.162 663.587,563.329 663,582.5C 658.639,604.43 658.472,626.43 662.5,648.5C 661.88,653.007 661.213,657.507 660.5,662C 660.833,664.167 661.167,666.333 661.5,668.5C 662.602,675.044 664.268,681.377 666.5,687.5C 669.766,689.831 672.6,689.164 675,685.5C 677.793,677.621 680.293,669.621 682.5,661.5C 683.086,651.523 683.086,641.523 682.5,631.5 Z"/></g>
<g><path style="opacity:1" fill="#7a372e" d="M 834.5,483.5 C 827.529,484.29 820.529,484.623 813.5,484.5C 819.337,483.704 825.337,483.038 831.5,482.5C 832.726,482.52 833.726,482.853 834.5,483.5 Z"/></g>
<g><path style="opacity:1" fill="#090302" d="M 834.5,483.5 C 836.383,484.95 837.383,486.95 837.5,489.5C 833.232,505.972 833.565,522.306 838.5,538.5C 837.985,540.225 837.318,541.892 836.5,543.5C 834.668,544.248 833.001,545.248 831.5,546.5C 829.78,545.066 827.78,544.233 825.5,544C 820.5,543.667 815.5,543.333 810.5,543C 808.416,542.222 806.583,541.055 805,539.5C 803.308,533.535 804.641,528.535 809,524.5C 810.503,520.49 811.336,516.324 811.5,512C 810.374,505.112 809.374,498.112 808.5,491C 809.251,488.088 810.918,485.921 813.5,484.5C 820.529,484.623 827.529,484.29 834.5,483.5 Z"/></g>
<g><path style="opacity:1" fill="#562620" d="M 741.5,494.5 C 740.935,496.952 740.268,499.285 739.5,501.5C 738.99,498.612 739.656,496.279 741.5,494.5 Z"/></g>
<g><path style="opacity:1" fill="#5c2922" d="M 611.5,538.5 C 612.036,541.698 611.369,544.365 609.5,546.5C 610.078,543.72 610.745,541.053 611.5,538.5 Z"/></g>
<g><path style="opacity:1" fill="#8b3e35" d="M 824.5,598.5 C 826.039,599.767 827.706,600.767 829.5,601.5C 827.833,601.5 826.167,601.5 824.5,601.5C 824.5,600.5 824.5,599.5 824.5,598.5 Z"/></g>
<g><path style="opacity:1" fill="#3b1b18" d="M 685.5,610.5 C 685.665,616.362 685.331,622.196 684.5,628C 684.392,629.681 683.725,630.848 682.5,631.5C 683.755,624.436 684.755,617.436 685.5,610.5 Z"/></g>
<g><path style="opacity:1" fill="#72332b" d="M 830.5,673.5 C 829.511,696.758 829.177,720.092 829.5,743.5C 828.833,732.005 828.5,720.338 828.5,708.5C 828.501,696.48 829.168,684.814 830.5,673.5 Z"/></g>
<g><path style="opacity:1" fill="#602b24" d="M 864.5,715.5 C 865.103,720.619 864.436,725.285 862.5,729.5C 863.117,724.731 863.784,720.064 864.5,715.5 Z"/></g>
<g><path style="opacity:1" fill="#542520" d="M 861.5,735.5 C 861.231,738.929 860.231,741.929 858.5,744.5C 858.769,741.071 859.769,738.071 861.5,735.5 Z"/></g>
<g><path style="opacity:1" fill="#7e382f" d="M 892.5,856.5 C 892.068,857.71 891.401,858.71 890.5,859.5C 890.285,857.821 890.952,856.821 892.5,856.5 Z"/></g>
<g><path style="opacity:1" fill="#592721" d="M 594.5,1033.5 C 595.972,1037.92 596.638,1042.59 596.5,1047.5C 595.199,1043.06 594.532,1038.39 594.5,1033.5 Z"/></g>
<g><path style="opacity:1" fill="#803930" d="M 598.5,1049.5 C 599.222,1049.92 599.722,1050.58 600,1051.5C 600.5,1059.16 600.666,1066.83 600.5,1074.5C 599.744,1066.31 599.078,1057.98 598.5,1049.5 Z"/></g>
</svg>