<svg version="1.1" xmlns="http://www.w3.org/2000/svg" xmlns:xlink="http://www.w3.org/1999/xlink" width="391.66032" height="376.0374" viewBox="0,0,391.66032,376.0374"><g transform="translate(-44.19317,7.43689)"><g data-paper-data="{&quot;isPaintingLayer&quot;:true}" fill-rule="evenodd" stroke="none" stroke-width="1" stroke-linecap="butt" stroke-linejoin="miter" stroke-miterlimit="10" stroke-dasharray="" stroke-dashoffset="0" style="mix-blend-mode: normal"><path d="M240.18,-6.32249c0.85,-1.314 1.793,-1.469 2.715,-0.449c0.335,0.37 42.689,82.13 94.121,181.689c51.431,99.559 94.702,183.315 96.155,186.125c2.838,5.484 3.266,7.06 2.023,7.455c-0.341,0.108 -0.7,0.117 -0.797,0.02c-0.097,-0.097 0.033,-0.177 0.29,-0.177c0.511,0 0.829,-0.602 0.829,-1.569c0,-0.343 -1.26,-3.056 -2.799,-6.029c-1.539,-2.973 -44.602,-86.325 -95.695,-185.227c-51.093,-98.901 -93.22,-180.383 -93.615,-181.071c-1.45,-2.525 -2.323,-2.078 -4.723,2.421c-0.885,1.658 -16.304,30.728 -34.265,64.599c-38.409,72.432 -44.409,83.743 -120.904,227.926c-21.321,40.187 -38.837,73.423 -38.924,73.858c-0.317,1.584 0.001,1.639 10.477,1.818l9.596,0.164l-9.815,-0.015c-10.88,-0.015 -10.932,-0.025 -10.547,-1.998c0.085,-0.433 7.07,-13.819 15.523,-29.746c28.467,-53.635 132.363,-249.504 156.097,-294.279c12.943,-24.417 23.859,-44.899 24.258,-45.515M240.397,27.90751c1.69,-1.883 -1.049,-6.772 31.815,56.797c29.762,57.569 41.282,79.852 69.745,134.907c19.052,36.852 18.7,36.027 14.067,32.946c-4.789,-3.185 -7.481,-4.073 -15.127,-4.993c-6.505,-0.783 -23.462,-3.456 -26.699,-4.209c-5.39,-1.254 -6.018,-2.271 -4.964,-8.049c1.363,-7.477 0.432,-10.733 -3.461,-12.106c-3.17,-1.119 -3.23,-1.604 -1.517,-12.173c6.302,-38.863 6.278,-44.145 -0.257,-57.485c-7.153,-14.601 -18.598,-24.96 -31.516,-28.527c-13.67,-3.775 -33.426,-4.388 -47.58,-1.476c-18.213,3.747 -31.62,14.396 -40.351,32.051c-6.116,12.367 -6.316,15.96 -2.815,50.717c1.028,10.208 1.019,9.884 0.294,11.306c-0.427,0.837 -1.365,1.794 -2.801,2.86c-4.919,3.649 -5.159,5.789 -2.027,18.058c1.465,5.734 1.516,5.711 -17.472,7.681c-5.59,0.579 -11.241,1.196 -12.556,1.37c-11.735,1.55 -19.559,7.208 -24.537,17.743c-2.799,5.925 -2.868,6.3 -3.152,17.066c-0.607,23.021 -1.192,28.991 -3.599,36.672c-1.069,3.414 -0.875,4.508 0.831,4.674c4.02,0.393 6.646,-12.633 7.583,-37.609c0.76,-20.283 4.199,-27.045 13.756,-27.053c11.41,-0.009 16.86,15.592 8.583,24.571c-4.366,4.736 -7.429,2.401 -3.833,-2.922c7.38,-10.923 -0.382,-19.989 -9.816,-11.466c-4.18,3.776 -2.686,8.535 1.777,5.659c3.727,-2.4 4.758,-0.223 1.675,3.537c-2.547,3.107 -2.904,5.558 -1.279,8.766c3.306,6.524 10.292,6.471 22.279,-0.17c4.76,-2.637 6.324,-2.776 6.324,-0.563c0,1.133 -1.507,2.591 -5.855,5.664c-8.493,6.001 -9.123,7.512 -10.576,25.367c-0.18,2.22 -0.604,6.572 -0.942,9.672c-0.666,6.118 -0.622,6.822 0.467,7.535c1.752,1.149 2.375,-0.087 3.165,-6.287c3.676,-28.854 2.666,-25.9 11.083,-32.401c7.381,-5.701 8.448,-7.412 8.506,-13.646c0.04,-4.232 0.095,-4.627 0.98,-7.025c1.13,-3.066 1.202,-4.961 0.347,-9.118c-1.146,-5.568 -0.784,-6.544 3.288,-8.879c4.964,-2.845 5.573,-2.561 7.174,3.337c1.278,4.71 2.057,6.035 4.7,7.99c2.967,2.196 3.429,3.104 5,9.846c5.724,24.562 8.58,31.617 16.685,41.218c13.421,15.898 28.95,21.431 46.981,16.741c19.355,-5.036 35.943,-29.136 41.143,-59.776c1.134,-6.684 1.533,-7.534 3.937,-8.388c2.891,-1.026 3.993,-2.709 4.735,-7.224c0.924,-5.631 1.648,-5.917 7.349,-2.901c6.753,3.573 6.507,2.923 4.735,12.52c-0.577,3.125 -0.446,6.201 0.351,8.221c0.416,1.056 0.533,2.255 0.544,5.578c0.02,5.976 0.673,6.812 8.734,11.18c8.916,4.831 9.111,5.395 9.81,28.325c0.235,7.678 0.553,14.364 0.708,14.857c0.526,1.675 0.714,1.965 1.561,2.403c3.629,1.877 4.821,-0.753 3.888,-8.577c-0.34,-2.852 -1.024,-9.154 -1.52,-14.005c-2.089,-20.433 -2.23,-20.779 -10.848,-26.568c-4.783,-3.213 -6.527,-5.236 -5.68,-6.587c0.667,-1.066 2.465,-0.757 5.173,0.888c11.721,7.121 19.902,7.412 23.272,0.826c1.794,-3.507 1.524,-5.316 -1.363,-9.117c-2.566,-3.378 -1.49,-5.389 1.741,-3.251c1.812,1.199 2.759,1.281 3.718,0.322c2.85,-2.85 -2.893,-8.63 -8.985,-9.043c-6.102,-0.414 -7.94,8.585 -2.951,14.44c4.263,5.002 1.037,7.662 -3.533,2.913c-10.656,-11.075 1.713,-30.48 14.61,-22.922c5.774,3.384 7.133,8.77 8.172,32.389c0.89,20.22 4.085,32.162 8.665,32.389c2.12,0.105 2.294,-0.891 0.922,-5.288c-2.358,-7.558 -3.162,-13.097 -4.066,-27.998c-0.254,-4.193 -0.66,-9.507 -0.901,-11.809c-0.787,-7.505 -0.526,-8.721 1.296,-6.053c0.948,1.386 39.028,74.998 39.351,76.068c0.654,2.162 2.767,2.093 -48.262,1.583c-16.196,-0.162 -86.151,-0.763 -155.456,-1.335c-144.07,-1.19 -133.669,-1.063 -134.363,-1.639c-0.931,-0.773 -0.421,-1.857 10.828,-23.033c17.192,-32.365 139.256,-262.464 152.168,-286.846c3.047,-5.755 5.812,-10.766 6.144,-11.136M235.207,128.11551c7.693,-1.1 21.247,-0.162 30.107,2.084c27.289,6.918 40.114,26.308 37.192,56.23c-0.99,10.138 -2.983,20.876 -3.973,21.406c-1.623,0.869 -2.384,-0.486 -2.906,-5.177c-0.178,-1.596 -0.657,-4.69 -1.065,-6.876c-1.575,-8.44 -1.494,-8.388 -11.786,-7.602c-14.789,1.128 -37.658,1.377 -44.121,0.48c-8.948,-1.241 -18.508,-7.505 -25.328,-16.594c-4.9,-6.532 -6.623,-6.615 -7.157,-0.348c-0.696,8.161 -2.91,14.097 -7.791,20.89c-1.196,1.666 -3.656,5.26 -5.464,7.987c-3.411,5.143 -4.334,6.054 -5.501,5.429c-2.045,-1.094 -4.115,-29.213 -2.759,-37.474c3.047,-18.564 26.001,-36.924 50.552,-40.435M209.578,177.20951c1.399,-0.563 2.39,-0.001 6.207,3.522c6.308,5.822 15.42,10.497 24.532,12.585c4.711,1.079 31.092,0.901 42.505,-0.287c5.17,-0.538 6.925,-0.172 7.863,1.643c0.46,0.89 1.495,6.062 4.159,20.79c2.007,11.091 2.337,11.716 6.469,12.245c4.247,0.543 4.269,0.709 2.072,16.016c-2.242,15.619 -2.763,17.594 -5.03,19.068c-0.608,0.395 -1.608,1.049 -2.223,1.453c-1.546,1.017 -2.366,2.884 -3.813,8.683c-4.674,18.737 -10.412,32.544 -17.351,41.751c-18.475,24.513 -49.156,22.769 -66.567,-3.785c-5.201,-7.933 -7.817,-16.136 -11.573,-36.296c-1.41,-7.572 -1.837,-8.238 -6.092,-9.499c-4.551,-1.35 -5.204,-2.515 -6.635,-11.855c-0.341,-2.22 -1.011,-6.457 -1.49,-9.417c-3.178,-19.623 -3.306,-17.288 1.19,-21.674c2.846,-2.777 2.958,-2.939 5.061,-7.324c2.9,-6.048 5.917,-11.018 8.77,-14.451c5.997,-7.214 9.37,-13.462 10.508,-19.463c0.491,-2.588 0.83,-3.46 1.438,-3.705M239.477,219.21151c-0.645,-0.759 -2.087,-0.971 -4.309,-0.633c-2.754,0.419 -13.004,1.146 -21.027,1.491c-8.646,0.373 -9.16,0.471 -11.03,2.117c-4.279,3.767 -2.198,7.305 2.689,4.572l1.921,-1.075l9.936,-0.259c14.715,-0.385 19.752,-1.255 21.717,-3.752c0.763,-0.971 0.792,-1.65 0.103,-2.461M255.931,219.75851c-5.389,-0.581 -6.663,-0.298 -6.663,1.476c0,3.19 6.181,4.664 21.375,5.096c10.089,0.287 10.999,0.412 13.295,1.824c4.113,2.531 5.904,-2.26 1.968,-5.263c-1.868,-1.424 -3.223,-1.62 -15.562,-2.245c-6.413,-0.325 -12.898,-0.725 -14.413,-0.888M234.483,232.45251c-0.936,-0.935 -4.104,-0.974 -8.833,-0.107c-1.726,0.316 -5.72,0.905 -8.876,1.308c-6.141,0.785 -7.73,1.235 -8.124,2.301c-0.737,1.993 0.582,2.639 5.401,2.646c2.709,0.003 4.267,0.161 5.919,0.6c5.363,1.424 8.655,1.055 11.9,-1.334c3.087,-2.273 3.955,-4.071 2.613,-5.414M266.756,232.91651c-10.696,-1.598 -13.004,-1.398 -13.004,1.128c0,0.997 2.69,3.551 5.086,4.828c2.717,1.447 5.218,1.571 9.758,0.483c2.565,-0.615 4.197,-0.812 7.069,-0.855c4.045,-0.06 4.993,-0.41 4.993,-1.843c0,-1.493 -1.812,-2.29 -6.129,-2.696c-1.151,-0.108 -4.649,-0.579 -7.773,-1.045M309.528,249.22951c0.69,-0.691 2.089,-0.578 4.988,0.402c3.401,1.15 4.939,1.433 9.935,1.834c9.304,0.745 7.655,3.597 -2.704,4.675c-4.968,0.517 -14.344,-4.786 -12.219,-6.911M169.814,249.96951c5.715,-1.211 7.429,-1.082 7.396,0.555c-0.032,1.634 -7.062,4.843 -11.052,5.046c-4.973,0.254 -9.267,-0.962 -9.267,-2.622c0,-1.234 0.525,-1.422 5.03,-1.804c2.158,-0.184 5.71,-0.712 7.893,-1.175M146.129,253.75051c1.851,-0.744 7.252,2.301 8.779,4.949c4.167,7.23 5.514,17.788 2.696,21.137c-1.764,2.097 -2.86,0.785 -2.604,-3.115c0.443,-6.737 -2.33,-14.019 -7.135,-18.742c-2.917,-2.867 -3.229,-3.628 -1.736,-4.229M338.822,254.03751c4.554,-1.398 5.141,0.698 1.11,3.964c-4.266,3.455 -6.957,10.607 -6.957,18.488c0,3.739 -0.168,4.258 -1.379,4.258c-1.75,0 -3.176,-3.444 -3.207,-7.747c-0.05,-6.792 5.877,-17.565 10.433,-18.963M258.378,259.33751c-1.387,-1.387 -2.653,-0.523 -2.962,2.02c-0.413,3.402 -0.552,3.902 -1.467,5.269c-1.559,2.328 -4.089,3.427 -8.289,3.6c-6.924,0.285 -10.114,-1.691 -11.489,-7.117c-1.377,-5.431 -4.64,-3.872 -4.631,2.212c0.019,13.782 29.143,13.093 30.12,-0.713c0.165,-2.338 -0.312,-4.301 -1.282,-5.271M324.017,260.94151c1.263,-1.27 1.823,-1.38 2.68,-0.523c1.775,1.776 -1.836,16.765 -4.093,16.983c-3.356,0.325 -2.23,-12.796 1.413,-16.46M161.794,260.34851c1.035,-0.692 2.318,0.489 3.406,3.134c3.297,8.015 3.648,12.712 1.027,13.708c-1.98,0.753 -2.622,-0.318 -4.051,-6.757c-1.636,-7.372 -1.705,-9.202 -0.382,-10.085M250.413,285.06951c-17.253,-4.245 -33.684,7.649 -24.57,17.786c8.6,9.564 30.748,7.932 36.305,-2.676c2.958,-5.649 -2.654,-12.876 -11.735,-15.11M74.006,365.57551c-4.316,-0.047 -0.785,-0.085 7.848,-0.085c8.632,0 12.163,0.038 7.847,0.085c-4.316,0.046 -11.379,0.046 -15.695,0M106.613,365.87451c-4.328,-0.047 -0.873,-0.085 7.677,-0.085c8.55,0 12.091,0.038 7.868,0.085c-4.222,0.046 -11.217,0.046 -15.545,0M139.178,366.17351c-4.481,-0.047 -0.815,-0.085 8.146,-0.085c8.962,0 12.627,0.038 8.147,0.085c-4.481,0.046 -11.813,0.046 -16.293,0M173.28,366.47251c-4.657,-0.047 -0.933,-0.085 8.275,-0.085c9.207,0 13.017,0.038 8.466,0.085c-4.551,0.046 -12.085,0.046 -16.741,0M207.788,366.77151c-4.563,-0.047 -0.83,-0.085 8.296,-0.085c9.125,0 12.858,0.038 8.296,0.085c-4.563,0.046 -12.029,0.046 -16.592,0M242.167,367.07051c-4.562,-0.047 -0.829,-0.085 8.296,-0.085c9.126,0 12.859,0.038 8.296,0.085c-4.562,0.046 -12.029,0.046 -16.592,0M275.821,367.36951c-4.657,-0.047 -0.933,-0.085 8.275,-0.085c9.207,0 13.017,0.038 8.466,0.084c-4.551,0.047 -12.084,0.047 -16.741,0.001M310.927,367.66751c-4.399,-0.046 -0.8,-0.084 7.997,-0.084c8.796,0 12.395,0.038 7.997,0.084c-4.399,0.047 -11.596,0.047 -15.994,0M343.982,367.96651c-3.999,-0.047 -0.813,-0.085 7.079,-0.085c7.893,0 11.164,0.038 7.271,0.085c-3.894,0.047 -10.352,0.048 -14.35,0M376.418,368.26551c-3.752,-0.047 -0.768,-0.086 6.631,-0.086c7.399,0 10.469,0.039 6.822,0.086c-3.647,0.048 -9.701,0.048 -13.453,0M408.087,368.56451c-3.577,-0.047 -0.651,-0.087 6.502,-0.087c7.152,0 10.078,0.04 6.502,0.087c-3.576,0.048 -9.428,0.048 -13.004,0" fill="#f2ea04"/><path d="M240.689,-6.47249c0.336,-0.37 0.8,-0.673 1.03,-0.673c0.884,0 3.888,5.753 86.874,166.368c46.894,90.763 90.136,174.453 96.092,185.98c11.383,22.026 11.62,22.579 9.93,23.198c-0.249,0.092 -18.612,-0.012 -40.807,-0.229c-55.669,-0.546 -98.81,-0.939 -178.621,-1.626c-158.147,-1.362 -169.298,-1.493 -170.062,-1.989c-0.548,-0.355 -0.668,-0.638 -0.54,-1.278c0.09,-0.451 17.609,-33.701 38.93,-73.888c72.805,-137.229 80.628,-151.975 119.559,-225.385c17.221,-32.473 32.592,-61.464 34.158,-64.424c1.565,-2.96 3.121,-5.684 3.457,-6.054M242.607,27.82851c-1.432,-1.672 -1.772,-1.216 -8.354,11.215c-12.912,24.382 -134.976,254.481 -152.168,286.846c-11.249,21.176 -11.759,22.26 -10.828,23.033c0.694,0.576 -9.707,0.449 134.363,1.639c69.305,0.572 139.26,1.173 155.456,1.335c51.029,0.51 48.916,0.579 48.262,-1.583c-0.323,-1.07 -38.403,-74.682 -39.351,-76.068c-1.822,-2.668 -2.083,-1.452 -1.296,6.053c0.241,2.302 0.647,7.616 0.901,11.809c0.904,14.901 1.708,20.44 4.066,27.998c1.372,4.397 1.198,5.393 -0.922,5.288c-4.58,-0.227 -7.775,-12.169 -8.665,-32.389c-1.039,-23.619 -2.398,-29.005 -8.172,-32.389c-12.897,-7.558 -25.266,11.847 -14.61,22.922c4.57,4.749 7.796,2.089 3.533,-2.913c-4.989,-5.855 -3.151,-14.854 2.951,-14.44c6.092,0.413 11.835,6.193 8.985,9.043c-0.959,0.959 -1.906,0.877 -3.718,-0.322c-3.231,-2.138 -4.307,-0.127 -1.741,3.251c2.887,3.801 3.157,5.61 1.363,9.117c-3.37,6.586 -11.551,6.295 -23.272,-0.826c-2.708,-1.645 -4.506,-1.954 -5.173,-0.888c-0.847,1.351 0.897,3.374 5.68,6.587c8.618,5.789 8.759,6.135 10.848,26.568c0.496,4.851 1.18,11.153 1.52,14.005c0.933,7.824 -0.259,10.454 -3.888,8.577c-1.684,-0.871 -1.794,-1.707 -2.269,-17.26c-0.699,-22.93 -0.894,-23.494 -9.81,-28.325c-8.061,-4.368 -8.714,-5.204 -8.734,-11.18c-0.011,-3.323 -0.128,-4.522 -0.544,-5.578c-0.797,-2.02 -0.928,-5.096 -0.351,-8.221c0.273,-1.48 0.677,-3.676 0.897,-4.88c0.718,-3.927 0.291,-4.506 -5.632,-7.64c-5.701,-3.016 -6.425,-2.73 -7.349,2.901c-0.742,4.515 -1.844,6.198 -4.735,7.224c-2.404,0.854 -2.803,1.704 -3.937,8.388c-5.2,30.64 -21.788,54.74 -41.143,59.776c-18.031,4.69 -33.56,-0.843 -46.981,-16.741c-8.105,-9.601 -10.961,-16.656 -16.685,-41.218c-1.571,-6.742 -2.033,-7.65 -5,-9.846c-2.643,-1.955 -3.422,-3.28 -4.7,-7.99c-1.601,-5.898 -2.21,-6.182 -7.174,-3.337c-4.072,2.335 -4.434,3.311 -3.288,8.879c0.855,4.157 0.783,6.052 -0.347,9.118c-0.885,2.398 -0.94,2.793 -0.98,7.025c-0.058,6.234 -1.125,7.945 -8.506,13.646c-8.417,6.501 -7.407,3.547 -11.083,32.401c-0.79,6.2 -1.413,7.436 -3.165,6.287c-1.089,-0.713 -1.133,-1.417 -0.467,-7.535c0.338,-3.1 0.762,-7.452 0.942,-9.672c1.453,-17.855 2.083,-19.366 10.576,-25.367c4.348,-3.073 5.855,-4.531 5.855,-5.664c0,-2.213 -1.564,-2.074 -6.324,0.563c-11.987,6.641 -18.973,6.694 -22.279,0.17c-1.625,-3.208 -1.268,-5.659 1.279,-8.766c3.083,-3.76 2.052,-5.937 -1.675,-3.537c-4.463,2.876 -5.957,-1.883 -1.777,-5.659c9.434,-8.523 17.196,0.543 9.816,11.466c-3.596,5.323 -0.533,7.658 3.833,2.922c8.277,-8.979 2.827,-24.58 -8.583,-24.571c-9.557,0.008 -12.996,6.77 -13.756,27.053c-0.937,24.976 -3.563,38.002 -7.583,37.609c-1.706,-0.166 -1.9,-1.26 -0.831,-4.674c2.407,-7.681 2.992,-13.651 3.599,-36.672c0.284,-10.766 0.353,-11.141 3.152,-17.066c4.978,-10.535 12.802,-16.193 24.537,-17.743c1.315,-0.174 6.966,-0.791 12.556,-1.37c18.988,-1.97 18.937,-1.947 17.472,-7.681c-3.132,-12.269 -2.892,-14.409 2.027,-18.058c1.436,-1.066 2.374,-2.023 2.801,-2.86c0.725,-1.422 0.734,-1.098 -0.294,-11.306c-3.501,-34.757 -3.301,-38.35 2.815,-50.717c11.697,-23.655 29.769,-33.745 60.381,-33.713c28.736,0.03 42.715,6.183 54.618,24.042c11.153,16.733 11.583,22.688 4.705,65.108c-1.713,10.569 -1.653,11.054 1.517,12.173c3.893,1.373 4.824,4.629 3.461,12.106c-1.054,5.778 -0.426,6.795 4.964,8.049c3.237,0.753 20.194,3.426 26.699,4.209c7.646,0.92 10.338,1.808 15.127,4.993c4.633,3.081 4.985,3.906 -14.067,-32.946c-28.463,-55.055 -39.983,-77.338 -69.745,-134.907c-16.003,-30.955 -29.325,-56.549 -29.605,-56.876M257.967,128.67751c-22.511,-3.948 -45.348,2.872 -60.735,18.138c-12.46,12.362 -14.856,21.984 -11.987,48.132c1.536,13.999 1.936,14.293 7.67,5.648c1.808,-2.727 4.268,-6.321 5.464,-7.987c4.881,-6.793 7.095,-12.729 7.791,-20.89c0.534,-6.267 2.257,-6.184 7.157,0.348c6.82,9.089 16.38,15.353 25.328,16.594c6.463,0.897 29.332,0.648 44.121,-0.48c10.292,-0.786 10.211,-0.838 11.786,7.602c0.408,2.186 0.887,5.28 1.065,6.876c0.522,4.691 1.283,6.046 2.906,5.177c0.99,-0.53 2.983,-11.268 3.973,-21.406c3.187,-32.639 -11.744,-51.999 -44.539,-57.752M212.048,177.56151c-2.248,-1.375 -3.159,-0.593 -3.908,3.353c-1.138,6.001 -4.511,12.249 -10.508,19.463c-2.853,3.433 -5.87,8.403 -8.77,14.451c-2.103,4.385 -2.215,4.547 -5.061,7.324c-4.496,4.386 -4.368,2.051 -1.19,21.674c0.479,2.96 1.149,7.197 1.49,9.417c1.431,9.34 2.084,10.505 6.635,11.855c4.255,1.261 4.682,1.927 6.092,9.499c3.756,20.16 6.372,28.363 11.573,36.296c17.411,26.554 48.092,28.298 66.567,3.785c6.939,-9.207 12.677,-23.014 17.351,-41.751c1.447,-5.799 2.267,-7.666 3.813,-8.683c0.615,-0.404 1.615,-1.058 2.223,-1.453c2.267,-1.474 2.788,-3.449 5.03,-19.068c2.197,-15.307 2.175,-15.473 -2.072,-16.016c-4.132,-0.529 -4.462,-1.154 -6.469,-12.245c-2.664,-14.728 -3.699,-19.9 -4.159,-20.79c-0.938,-1.815 -2.693,-2.181 -7.863,-1.643c-11.413,1.188 -37.794,1.366 -42.505,0.287c-9.112,-2.088 -18.224,-6.763 -24.532,-12.585c-1.562,-1.442 -3.244,-2.869 -3.737,-3.17M235.168,218.57851c6.377,-0.969 6.461,3.641 0.098,5.354c-2.983,0.804 -8.208,1.246 -17.609,1.492l-9.936,0.259l-1.921,1.075c-4.887,2.733 -6.968,-0.805 -2.689,-4.572c1.87,-1.646 2.384,-1.744 11.03,-2.117c8.023,-0.345 18.273,-1.072 21.027,-1.491M249.762,220.00851c0.58,-0.64 2.009,-0.698 6.169,-0.25c1.515,0.163 8,0.563 14.413,0.888c12.339,0.625 13.694,0.821 15.562,2.245c3.936,3.003 2.145,7.794 -1.968,5.263c-2.296,-1.412 -3.206,-1.537 -13.295,-1.824c-10.025,-0.285 -14.094,-0.712 -17.489,-1.836c-3.15,-1.043 -4.678,-3.064 -3.392,-4.486M225.65,232.34551c9.675,-1.774 12.601,0.824 6.22,5.521c-3.245,2.389 -6.537,2.758 -11.9,1.334c-1.652,-0.439 -3.21,-0.597 -5.919,-0.6c-4.819,-0.007 -6.138,-0.653 -5.401,-2.646c0.394,-1.066 1.983,-1.516 8.124,-2.301c3.156,-0.403 7.15,-0.992 8.876,-1.308M255.719,232.00251c1.579,-0.32 4.277,-0.096 11.037,0.914c3.124,0.466 6.622,0.937 7.773,1.045c4.317,0.406 6.129,1.203 6.129,2.696c0,1.433 -0.948,1.783 -4.993,1.843c-2.872,0.043 -4.504,0.24 -7.069,0.855c-6.013,1.441 -9.476,0.644 -13.263,-3.052c-2.227,-2.173 -2.08,-3.802 0.386,-4.301M314.516,249.63151c-3.591,-1.214 -5.458,-1.048 -5.458,0.484c0,2.26 8.786,6.431 12.689,6.025c10.359,-1.078 12.008,-3.93 2.704,-4.675c-4.996,-0.401 -6.534,-0.684 -9.935,-1.834M176.673,249.55351c-0.742,-0.672 -2.118,-0.589 -6.859,0.416c-2.183,0.463 -5.735,0.991 -7.893,1.175c-4.505,0.382 -5.03,0.57 -5.03,1.804c0,3.132 9.283,3.605 15.661,0.797c4.636,-2.04 5.513,-2.933 4.121,-4.192M149.852,254.49851c-2.528,-1.268 -4.598,-1.047 -4.616,0.492c-0.002,0.22 1.181,1.565 2.629,2.989c4.805,4.723 7.578,12.005 7.135,18.742c-0.256,3.9 0.84,5.212 2.604,3.115c2.818,-3.349 1.471,-13.907 -2.696,-21.137c-0.761,-1.32 -2.97,-3.155 -5.056,-4.201M341.963,253.85251c-2.324,-1.244 -7.215,2.068 -9.51,6.441c-2.569,4.893 -4.087,9.64 -4.064,12.707c0.031,4.303 1.457,7.747 3.207,7.747c1.211,0 1.379,-0.519 1.379,-4.258c0,-7.881 2.691,-15.033 6.957,-18.488c2.727,-2.209 3.335,-3.452 2.031,-4.149M256.176,259.19051c2.569,-2.569 4.697,4.312 2.717,8.787c-4.949,11.188 -29.337,8.981 -29.353,-2.656c-0.009,-6.084 3.254,-7.643 4.631,-2.212c1.375,5.426 4.565,7.402 11.489,7.117c4.2,-0.173 6.73,-1.272 8.289,-3.6c0.915,-1.367 1.054,-1.867 1.467,-5.269c0.117,-0.962 0.421,-1.828 0.76,-2.167M326.697,260.41851c-2.48,-2.48 -6.029,4.915 -6.103,12.717c-0.043,4.48 2.025,6.064 3.649,2.794c1.771,-3.569 3.496,-14.469 2.454,-15.511M163.549,260.71751c-1.768,-1.391 -2.978,0.034 -2.637,3.108c0.282,2.545 2.235,11.216 2.754,12.226c1.616,3.148 4.478,0.871 4.217,-3.355c-0.209,-3.367 -2.923,-10.869 -4.334,-11.979M236.263,284.89951c7.943,-2.178 19.723,0.74 24.277,6.012c10.582,12.249 -15.457,24.574 -31.208,14.772c-10.566,-6.575 -7.111,-16.935 6.931,-20.784" fill="#070704"/></g></g></svg>