<?xml version="1.0" encoding="UTF-8"?>
<!DOCTYPE svg PUBLIC "-//W3C//DTD SVG 1.1//EN" "http://www.w3.org/Graphics/SVG/1.1/DTD/svg11.dtd">
<svg xmlns="http://www.w3.org/2000/svg" version="1.1" width="919px" height="920px" style="shape-rendering:geometricPrecision; text-rendering:geometricPrecision; image-rendering:optimizeQuality; fill-rule:evenodd; clip-rule:evenodd" xmlns:xlink="http://www.w3.org/1999/xlink">
<g><path style="opacity:1" fill="#4e4945" d="M -0.5,-0.5 C 305.833,-0.5 612.167,-0.5 918.5,-0.5C 918.5,306.167 918.5,612.833 918.5,919.5C 612.167,919.5 305.833,919.5 -0.5,919.5C -0.5,612.833 -0.5,306.167 -0.5,-0.5 Z"/></g>
<g><path style="opacity:1" fill="#fefefe" d="M 83.5,37.5 C 232.794,37.8122 382.294,38.4789 532,39.5C 627.468,39.2858 722.968,39.1191 818.5,39C 838.752,36.8882 855.918,43.0548 870,57.5C 875.842,65.5263 879.175,74.5263 880,84.5C 881.196,180.18 881.696,275.68 881.5,371C 880.355,521.483 879.522,671.983 879,822.5C 879.673,840.83 873.507,856.33 860.5,869C 853.917,873.958 846.584,877.291 838.5,879C 825.865,880.077 813.198,880.577 800.5,880.5C 666.157,878.911 531.824,877.578 397.5,876.5C 294.001,876.571 190.501,876.571 87,876.5C 64.1624,875.953 47.9957,865.453 38.5,845C 39.1667,844 39.8333,843 40.5,842C 39.0589,837.993 38.2255,833.826 38,829.5C 37.5154,693.789 37.3487,558.123 37.5,422.5C 39.3008,310.163 40.4675,197.496 41,84.5C 42.6521,67.2323 50.4854,53.7323 64.5,44C 70.5905,40.738 76.9238,38.5713 83.5,37.5 Z"/></g>
<g><path style="opacity:1" fill="#fe5536" d="M 428.5,64.5 C 508.384,59.2339 583.217,75.9006 653,114.5C 736.81,164.785 795.476,234.118 829,322.5C 854.656,395.695 859.656,470.361 844,546.5C 833.787,588.225 818.287,627.225 797.5,663.5C 788.558,677.441 779.224,691.108 769.5,704.5C 763.196,710.855 757.863,717.355 753.5,724C 740.142,736.359 727.142,749.025 714.5,762C 708.426,765.243 703.093,769.41 698.5,774.5C 587.365,854.745 465.698,874.912 333.5,835C 287.076,819.635 245.409,796.301 208.5,765C 207.5,764.667 206.5,764.333 205.5,764C 195.822,754.831 186.156,745.664 176.5,736.5C 166.797,726.132 157.463,715.465 148.5,704.5C 138.919,691.007 129.586,677.34 120.5,663.5C 66.5454,568.52 52.212,466.687 77.5,358C 82.8386,341.318 88.172,324.651 93.5,308C 98.2951,299.148 102.628,289.981 106.5,280.5C 111.454,272.991 116.121,264.658 120.5,255.5C 125.253,249.575 129.42,243.242 133,236.5C 181.793,166.772 246.293,116.605 326.5,86C 342.347,81.4984 358.18,76.9984 374,72.5C 392.191,69.0416 410.358,66.3749 428.5,64.5 Z"/></g>
<g><path style="opacity:1" fill="#fefefe" d="M 611.5,565.5 C 616.459,558.707 622.292,552.707 629,547.5C 629.332,544.494 630.166,541.66 631.5,539C 633.289,538.48 634.956,538.813 636.5,540C 639.5,541.667 641.833,544 643.5,547C 644.784,547.684 645.951,547.517 647,546.5C 647.914,544.336 649.081,542.336 650.5,540.5C 647.542,538.044 644.709,535.378 642,532.5C 640,529.167 640,525.833 642,522.5C 646.916,515.953 653.416,511.786 661.5,510C 663.082,507.915 665.082,506.415 667.5,505.5C 669.57,501.465 671.737,497.465 674,493.5C 682.603,485.444 692.436,479.278 703.5,475C 707.25,470.736 710.75,466.903 714,463.5C 715.857,456.791 718.524,450.457 722,444.5C 731.884,436.141 742.384,428.641 753.5,422C 753.167,421.667 752.833,421.333 752.5,421C 755.383,419.568 756.717,417.235 756.5,414C 756.375,409.793 755.041,406.126 752.5,403C 752.957,402.586 753.291,402.086 753.5,401.5C 746.833,391.992 738.499,384.492 728.5,379C 724.674,377.267 720.674,376.101 716.5,375.5C 712.398,376.358 708.398,377.525 704.5,379C 672.256,411.524 640.59,443.857 609.5,476C 604.939,478.553 600.939,481.886 597.5,486C 596.056,486.781 594.723,486.614 593.5,485.5C 591.494,482.995 589.328,480.662 587,478.5C 584.367,480.296 581.867,482.296 579.5,484.5C 583.073,487.783 586.406,491.283 589.5,495C 582.597,501.913 575.43,508.746 568,515.5C 567.338,516.984 566.504,518.317 565.5,519.5C 564.448,519.649 563.448,519.483 562.5,519C 530.14,485.641 497.474,452.641 464.5,420C 460.487,417.82 457.487,414.653 455.5,410.5C 446.09,400.819 436.756,391.152 427.5,381.5C 429.308,381.509 430.975,381.009 432.5,380C 440.017,372.427 447.684,365.094 455.5,358C 458.174,356.412 461.008,355.245 464,354.5C 487.169,363.556 510.002,373.39 532.5,384C 536.169,385.355 539.835,386.355 543.5,387C 565.726,364.273 588.393,342.106 611.5,320.5C 613.373,316.917 613.707,313.251 612.5,309.5C 575.915,292.378 538.915,276.044 501.5,260.5C 498.759,258.047 495.925,255.714 493,253.5C 491.817,249.726 492.651,246.559 495.5,244C 495.167,243.667 494.833,243.333 494.5,243C 501.689,236.81 508.522,230.31 515,223.5C 515.982,222.241 516.315,220.908 516,219.5C 512.295,218.064 508.795,216.231 505.5,214C 485.5,206.837 465.833,199.004 446.5,190.5C 444.311,190.594 442.311,191.261 440.5,192.5C 438.679,194.243 436.679,195.743 434.5,197C 426.925,205.403 419.259,213.57 411.5,221.5C 389.193,243.532 366.693,265.199 344,286.5C 342.668,288.66 341.168,290.66 339.5,292.5C 327.899,282.402 316.733,271.735 306,260.5C 293.088,245.253 279.088,230.92 264,217.5C 257.628,209.967 251.128,202.634 244.5,195.5C 251.709,188.794 259.375,182.628 267.5,177C 349.721,122.807 439.388,106.141 536.5,127C 561.454,133.316 585.454,141.982 608.5,153C 654.404,175.532 692.404,206.365 722.5,245.5C 758.569,288.591 781.902,338.924 792.5,396.5C 792.709,397.994 793.376,399.161 794.5,400C 792.941,402.642 793.275,404.975 795.5,407C 794.919,407.893 794.585,408.893 794.5,410C 795.933,413.698 796.766,417.532 797,421.5C 798.977,442.866 799.31,464.2 798,485.5C 794.598,523.702 785.265,561.035 770,597.5C 768.861,600.295 767.361,602.795 765.5,605C 761.329,615.845 755.995,626.012 749.5,635.5C 745.768,641.39 742.268,647.39 739,653.5C 733.047,661.788 726.714,669.788 720,677.5C 683.21,640.71 646.377,603.877 609.5,567C 610.416,566.722 611.082,566.222 611.5,565.5 Z"/></g>
<g><path style="opacity:1" fill="#4f4a46" d="M 427.5,381.5 C 426.833,381.5 426.5,381.167 426.5,380.5C 425.2,379.399 424.7,378.066 425,376.5C 429.667,370.5 435,365.167 441,360.5C 444.095,356.811 446.261,352.644 447.5,348C 445.5,346.333 443.5,344.667 441.5,343C 431.198,338.847 421.198,334.181 411.5,329C 410.207,328.51 408.873,328.343 407.5,328.5C 407.297,330.39 407.963,331.89 409.5,333C 420.808,336.139 427.808,343.306 430.5,354.5C 429.861,357.475 429.361,360.475 429,363.5C 427.915,364.293 426.748,364.96 425.5,365.5C 424.684,363.713 423.684,362.046 422.5,360.5C 423.902,359.158 423.569,358.324 421.5,358C 418.782,352.78 414.782,348.113 409.5,344C 404.995,342.038 400.328,341.371 395.5,342C 394.29,343.039 393.29,344.206 392.5,345.5C 391.448,345.649 390.448,345.483 389.5,345C 373.39,327.889 356.89,311.055 340,294.5C 339.536,293.906 339.369,293.239 339.5,292.5C 341.168,290.66 342.668,288.66 344,286.5C 366.693,265.199 389.193,243.532 411.5,221.5C 419.259,213.57 426.925,205.403 434.5,197C 436.679,195.743 438.679,194.243 440.5,192.5C 442.311,191.261 444.311,190.594 446.5,190.5C 465.833,199.004 485.5,206.837 505.5,214C 508.795,216.231 512.295,218.064 516,219.5C 516.315,220.908 515.982,222.241 515,223.5C 508.522,230.31 501.689,236.81 494.5,243C 494.833,243.333 495.167,243.667 495.5,244C 492.651,246.559 491.817,249.726 493,253.5C 495.925,255.714 498.759,258.047 501.5,260.5C 538.915,276.044 575.915,292.378 612.5,309.5C 613.707,313.251 613.373,316.917 611.5,320.5C 588.393,342.106 565.726,364.273 543.5,387C 539.835,386.355 536.169,385.355 532.5,384C 510.002,373.39 487.169,363.556 464,354.5C 461.008,355.245 458.174,356.412 455.5,358C 447.684,365.094 440.017,372.427 432.5,380C 430.975,381.009 429.308,381.509 427.5,381.5 Z"/></g>
<g><path style="opacity:1" fill="#fefffe" d="M 297.5,333.5 C 261.854,368.479 226.521,403.812 191.5,439.5C 190.386,440.723 190.219,442.056 191,443.5C 197.678,451.344 204.844,458.677 212.5,465.5C 217.06,460.481 221.726,460.314 226.5,465C 233.317,465.731 239.817,464.564 246,461.5C 249.187,464.341 252.687,466.841 256.5,469C 260.295,469.837 263.961,469.504 267.5,468C 267.167,467.667 266.833,467.333 266.5,467C 267.5,466.667 268.5,466.333 269.5,466C 283.191,453.308 296.525,440.308 309.5,427C 310.5,426.667 311.5,426.333 312.5,426C 324.693,413.473 337.193,401.306 350,389.5C 350.483,388.552 350.649,387.552 350.5,386.5C 351.901,386.971 353.234,387.638 354.5,388.5C 367.348,402.182 380.682,415.349 394.5,428C 394.167,428.333 393.833,428.667 393.5,429C 428.756,463.922 463.589,499.089 498,534.5C 501.167,537.667 504.333,540.833 507.5,544C 508.448,544.483 509.448,544.649 510.5,544.5C 510.351,545.552 510.517,546.552 511,547.5C 515.722,551.058 519.889,555.058 523.5,559.5C 478.48,604.353 433.313,649.02 388,693.5C 386.436,704.281 382.436,713.947 376,722.5C 372.508,725.817 369.341,729.151 366.5,732.5C 380.375,735.208 394.375,736.875 408.5,737.5C 419.63,737.941 430.296,735.941 440.5,731.5C 445.15,727.508 450.15,724.008 455.5,721C 460.541,714.292 466.541,708.625 473.5,704C 476.301,698.699 480.301,694.532 485.5,691.5C 491.715,683.79 498.381,676.623 505.5,670C 507.167,669 508.833,668 510.5,667C 526.37,649.797 542.87,633.297 560,617.5C 560.346,615.152 561.513,613.319 563.5,612C 566.171,610.75 568.337,608.917 570,606.5C 570.383,607.056 570.883,607.389 571.5,607.5C 607.638,644.805 643.971,681.972 680.5,719C 650.2,744.221 616.534,764.221 579.5,779C 484.823,812.363 392.49,807.03 302.5,763C 243.639,731.779 198.305,688.112 166.5,632C 160.969,623.93 155.969,615.597 151.5,607C 146.033,592.142 140.199,576.975 134,561.5C 113.093,492.067 113.426,422.733 135,353.5C 140.626,338.957 146.126,324.791 151.5,311C 155.984,302.368 160.984,294.034 166.5,286C 166.5,285 166.5,284 166.5,283C 167.5,282.167 168.5,281.333 169.5,280.5C 177.653,268.203 185.82,255.87 194,243.5C 197.049,241.073 199.883,238.407 202.5,235.5C 203.7,236.531 205.034,237.365 206.5,238C 237.028,268.194 267.195,298.694 297,329.5C 298.334,330.878 298.501,332.211 297.5,333.5 Z"/></g>
<g><path style="opacity:1" fill="#fefffe" d="M 426.5,380.5 C 425.761,380.631 425.094,380.464 424.5,380C 414,369.5 403.5,359 393,348.5C 392.517,347.552 392.351,346.552 392.5,345.5C 393.29,344.206 394.29,343.039 395.5,342C 400.328,341.371 404.995,342.038 409.5,344C 414.782,348.113 418.782,352.78 421.5,358C 423.569,358.324 423.902,359.158 422.5,360.5C 423.684,362.046 424.684,363.713 425.5,365.5C 426.748,364.96 427.915,364.293 429,363.5C 429.361,360.475 429.861,357.475 430.5,354.5C 427.808,343.306 420.808,336.139 409.5,333C 407.963,331.89 407.297,330.39 407.5,328.5C 408.873,328.343 410.207,328.51 411.5,329C 421.198,334.181 431.198,338.847 441.5,343C 443.5,344.667 445.5,346.333 447.5,348C 446.261,352.644 444.095,356.811 441,360.5C 435,365.167 429.667,370.5 425,376.5C 424.7,378.066 425.2,379.399 426.5,380.5 Z"/></g>
<g><path style="opacity:1" fill="#4e4a45" d="M 297.5,333.5 C 298.239,333.369 298.906,333.536 299.5,334C 314.299,348.799 328.633,363.133 342.5,377C 345.777,379.766 348.443,382.933 350.5,386.5C 350.649,387.552 350.483,388.552 350,389.5C 337.193,401.306 324.693,413.473 312.5,426C 311.5,426.333 310.5,426.667 309.5,427C 296.525,440.308 283.191,453.308 269.5,466C 268.5,466.333 267.5,466.667 266.5,467C 266.833,467.333 267.167,467.667 267.5,468C 263.961,469.504 260.295,469.837 256.5,469C 252.687,466.841 249.187,464.341 246,461.5C 239.817,464.564 233.317,465.731 226.5,465C 221.726,460.314 217.06,460.481 212.5,465.5C 204.844,458.677 197.678,451.344 191,443.5C 190.219,442.056 190.386,440.723 191.5,439.5C 226.521,403.812 261.854,368.479 297.5,333.5 Z"/></g>
<g><path style="opacity:1" fill="#4e4946" d="M 611.5,565.5 C 610.078,565.291 608.745,564.791 607.5,564C 597.027,553.527 586.527,543.027 576,532.5C 572.014,528.511 568.514,524.178 565.5,519.5C 566.504,518.317 567.338,516.984 568,515.5C 575.43,508.746 582.597,501.913 589.5,495C 586.406,491.283 583.073,487.783 579.5,484.5C 581.867,482.296 584.367,480.296 587,478.5C 589.328,480.662 591.494,482.995 593.5,485.5C 594.723,486.614 596.056,486.781 597.5,486C 600.939,481.886 604.939,478.553 609.5,476C 640.59,443.857 672.256,411.524 704.5,379C 708.398,377.525 712.398,376.358 716.5,375.5C 720.674,376.101 724.674,377.267 728.5,379C 738.499,384.492 746.833,391.992 753.5,401.5C 753.291,402.086 752.957,402.586 752.5,403C 755.041,406.126 756.375,409.793 756.5,414C 756.717,417.235 755.383,419.568 752.5,421C 752.833,421.333 753.167,421.667 753.5,422C 742.384,428.641 731.884,436.141 722,444.5C 718.524,450.457 715.857,456.791 714,463.5C 710.75,466.903 707.25,470.736 703.5,475C 692.436,479.278 682.603,485.444 674,493.5C 671.737,497.465 669.57,501.465 667.5,505.5C 665.082,506.415 663.082,507.915 661.5,510C 653.416,511.786 646.916,515.953 642,522.5C 640,525.833 640,529.167 642,532.5C 644.709,535.378 647.542,538.044 650.5,540.5C 649.081,542.336 647.914,544.336 647,546.5C 645.951,547.517 644.784,547.684 643.5,547C 641.833,544 639.5,541.667 636.5,540C 634.956,538.813 633.289,538.48 631.5,539C 630.166,541.66 629.332,544.494 629,547.5C 622.292,552.707 616.459,558.707 611.5,565.5 Z"/></g>
<g><path style="opacity:1" fill="#fefffe" d="M 698.5,422.5 C 704.134,423.627 706.301,426.96 705,432.5C 702.442,436.212 698.942,437.378 694.5,436C 688.95,429.579 690.284,425.079 698.5,422.5 Z"/></g>
<g><path style="opacity:1" fill="#fefffe" d="M 637.5,480.5 C 643.262,479.762 646.595,482.262 647.5,488C 643.306,496.1 638.473,496.6 633,489.5C 632.053,485.279 633.553,482.279 637.5,480.5 Z"/></g>
<g><path style="opacity:1" fill="#4e4a45" d="M 523.5,559.5 C 524.552,559.351 525.552,559.517 526.5,560C 539.333,572.833 552.167,585.667 565,598.5C 565.483,599.448 565.649,600.448 565.5,601.5C 569.167,601.833 571.167,603.833 571.5,607.5C 570.883,607.389 570.383,607.056 570,606.5C 568.337,608.917 566.171,610.75 563.5,612C 561.513,613.319 560.346,615.152 560,617.5C 542.87,633.297 526.37,649.797 510.5,667C 508.833,668 507.167,669 505.5,670C 498.381,676.623 491.715,683.79 485.5,691.5C 480.301,694.532 476.301,698.699 473.5,704C 466.541,708.625 460.541,714.292 455.5,721C 450.15,724.008 445.15,727.508 440.5,731.5C 430.296,735.941 419.63,737.941 408.5,737.5C 394.375,736.875 380.375,735.208 366.5,732.5C 369.341,729.151 372.508,725.817 376,722.5C 382.436,713.947 386.436,704.281 388,693.5C 433.313,649.02 478.48,604.353 523.5,559.5 Z"/></g>
</svg>