<?xml version="1.0" encoding="UTF-8" standalone="no"?>
<!-- Created with Inkscape (http://www.inkscape.org/) -->
<svg xmlns:dc="http://purl.org/dc/elements/1.1/" xmlns:cc="http://creativecommons.org/ns#" xmlns:rdf="http://www.w3.org/1999/02/22-rdf-syntax-ns#" xmlns:svg="http://www.w3.org/2000/svg" xmlns="http://www.w3.org/2000/svg" xmlns:sodipodi="http://sodipodi.sourceforge.net/DTD/sodipodi-0.dtd" xmlns:inkscape="http://www.inkscape.org/namespaces/inkscape" version="1.1" id="svg2" width="400.03662" height="400" viewBox="0 0 400.03662 400" sodipodi:docname="ISO_No_Hunting.svg" inkscape:version="0.92.4 (5da689c313, 2019-01-14)">
  <metadata id="metadata8">
    <rdf:RDF>
      <cc:Work rdf:about="">
        <dc:format>image/svg+xml</dc:format>
        <dc:type rdf:resource="http://purl.org/dc/dcmitype/StillImage"/>
        <dc:title/>
      </cc:Work>
    </rdf:RDF>
  </metadata>
  <defs id="defs6"/>
  <sodipodi:namedview pagecolor="#ffffff" bordercolor="#666666" borderopacity="1" objecttolerance="10" gridtolerance="10" guidetolerance="10" inkscape:pageopacity="0" inkscape:pageshadow="2" inkscape:window-width="1920" inkscape:window-height="1027" id="namedview4" showgrid="false" showguides="true" inkscape:guide-bbox="true" fit-margin-top="0" fit-margin-left="0" fit-margin-right="0" fit-margin-bottom="0" inkscape:zoom="1" inkscape:cx="450.79046" inkscape:cy="143.95261" inkscape:window-x="-8" inkscape:window-y="-8" inkscape:window-maximized="1" inkscape:current-layer="svg2">
    <sodipodi:guide position="200.02468,199.99932" orientation="0,1" id="guide825" inkscape:locked="false"/>
    <sodipodi:guide position="200.02468,199.99932" orientation="1,0" id="guide827" inkscape:locked="false"/>
  </sodipodi:namedview>
  <g id="g866">
    <path style="fill:#ffffff;fill-opacity:1;stroke:#c0c0c0;stroke-width:1.10174942;stroke-miterlimit:4;stroke-dasharray:1.10174935, 2.20349869;stroke-dashoffset:2.4000001;stroke-opacity:1" id="path820" sodipodi:type="arc" sodipodi:cx="200.02428" sodipodi:cy="199.99971" sodipodi:rx="194.41191" sodipodi:ry="194.41815" sodipodi:start="1.0944756" sodipodi:end="1.0942045" sodipodi:open="true" d="M 289.16458,372.77677 A 194.41191,194.41815 0 0 1 27.2588,289.15458 194.41191,194.41815 0 0 1 110.86056,27.234731 194.41191,194.41815 0 0 1 372.77767,110.82142 194.41191,194.41815 0 0 1 289.21141,372.7526"/>
    <g transform="matrix(1.8409942,0,0,1.8409942,-36.894626,-24.858477)" id="g831">
      <path style="fill:#d61a0c;fill-opacity:1;stroke-width:0.31999999" d="m 121.14063,230.51779 c -9.94882,-0.67117 -20.13765,-2.85975 -29.935244,-6.43014 -5.25307,-1.91429 -15.23836,-6.8084 -19.92486,-9.76581 -26.0877,-16.46258 -43.72715,-42.28121 -49.47328,-72.41341 -2.35553,-12.35216 -2.35553,-27.32784 0,-39.68 3.4012,-17.835583 10.7473,-33.80005 22.1359,-48.10549 3.18432,-3.999898 10.58755,-11.612176 14.46224,-14.870621 16.82387,-14.148149 36.25752,-22.557483 58.239994,-25.20163 6.07387,-0.730591 17.92613,-0.730591 24,0 22.13506,2.6625 41.81871,11.221584 58.56,25.463774 3.15922,2.687619 9.97458,9.558826 12.72809,12.832387 2.82304,3.356221 6.37442,8.251018 8.96532,12.356736 2.93909,4.657472 7.83888,14.643555 9.77637,19.924861 6.92089,18.865273 8.48759,39.334233 4.51064,58.931623 -6.56487,32.35005 -27.81288,60.32944 -57.11424,75.20805 -18.1178,9.19984 -36.99061,13.0949 -56.93093,11.74967 z m 14.22475,-18.84911 c 13.67316,-1.16769 26.03015,-4.94131 37.53235,-11.46175 4.12428,-2.338 11.77634,-7.66458 12.00765,-8.35849 C 185.05531,191.39865 59.652515,65.782869 59.031224,65.760485 c -0.90168,-0.03248 -7.30039,9.636813 -10.37017,15.670692 -13.56459,26.662153 -13.075449,57.649413 1.3244,83.901053 6.74076,12.28875 17.52456,23.96578 29.286182,31.71198 13.0699,8.60782 27.174214,13.35413 43.773744,14.7305 2.89514,0.24006 8.86961,0.18864 12.32,-0.10603 z m 67.01422,-38.40025 c 20.99445,-30.0084 21.4861,-69.83496 1.24156,-100.57373 -6.35277,-9.645869 -15.83793,-19.131427 -25.53772,-25.538791 -11.61405,-7.671862 -24.42108,-12.419955 -38.42856,-14.247049 -5.59121,-0.729299 -16.42661,-0.728573 -22.0495,0.0016 -6.73481,0.874419 -13.68755,2.56927 -19.965215,4.866873 -4.24155,1.552391 -13.33024,6.078701 -16.99478,8.463668 -4.18643,2.72462 -8.32,5.81144 -8.32,6.213104 0,0.183619 28.331995,28.671382 62.959995,63.306125 l 62.96,62.97227 0.89175,-1.05197 c 0.49046,-0.57871 1.94957,-2.5641 3.24247,-4.4121 z" id="path817" inkscape:connector-curvature="0" sodipodi:nodetypes="scssscssssscsssscsccssscccssscssssccc"/>
      <path inkscape:connector-curvature="0" id="path819" d="m 93.605248,199.71697 c -1.90666,-0.89914 -2.77574,-1.78395 -3.65311,-3.71923 -0.64768,-1.42862 -0.65289,-1.81799 -0.65986,-49.27973 l -0.007,-47.839716 23.404342,23.404346 23.40435,23.40435 0.25568,3.15537 c 0.43211,5.33266 1.22167,18.63775 1.74814,29.45841 0.54918,11.28727 0.50275,11.86876 -1.12728,14.11896 -1.70115,2.34837 -4.97437,3.42181 -7.91959,2.59719 -1.9539,-0.54706 -4.37542,-2.88433 -4.86255,-4.69338 -0.18803,-0.69832 -0.62897,-7.9513 -0.97986,-16.11773 -0.35088,-8.16644 -0.79325,-16.85864 -0.98304,-19.316 l -0.34508,-4.46793 -2.21279,-2.89207 c -12.1592,-15.89176 -13.57849,-17.60988 -14.63167,-17.71235 l -1.03069,-0.10027 -0.003,32.42027 -0.003,32.42028 -0.75452,1.6 c -0.89913,1.90666 -1.78394,2.77574 -3.719222,3.65311 -1.92272,0.87168 -3.94034,0.83968 -5.92,-0.0939 z m 39.679992,-99.62262 c -0.352,-0.0853 -2.8278,-1.149996 -5.50179,-2.365886 -2.67398,-1.21589 -4.9354,-2.21071 -5.02538,-2.21071 -0.09,0 -0.20617,0.93765 -0.25821,2.08366 l -0.0946,2.08366 -12.63848,-12.643648 -12.638482,-12.64367 h 9.895502 9.89551 l 2.46623,-2.4 2.46623,-2.4 h 35.24192 35.24193 l 0.53408,-1.12 c 0.47255,-0.99093 0.67477,-1.12 1.75483,-1.12 h 1.22073 v 2.88 2.88 h -11.68 c -11.31135,0 -11.68,0.0194 -11.68,0.61545 0,0.90192 -1.48215,2.51181 -2.48865,2.70313 -0.47924,0.0911 -3.14586,0.26115 -5.9258,0.37789 l -5.05446,0.21227 0.20233,1.3492 c 0.38979,2.59932 0.1455,2.86168 -11.35486,12.19499 -5.84658,4.744888 -10.94253,8.790008 -11.32435,8.989158 -0.91165,0.475526 -2.4532,0.728726 -3.25421,0.534506 z m 8.32,-18.804994 c 2.112,-1.73113 3.984,-3.28503 4.16,-3.45312 0.30881,-0.29492 -6.15421,-0.16311 -13.76369,0.28071 l -3.20369,0.18685 -0.47631,1.48698 c -0.3885,1.21285 -0.7089,1.60051 -1.73797,2.10279 -1.25721,0.61365 -1.2589,0.61701 -0.48,0.95421 0.42991,0.18612 2.56943,1.16251 4.75449,2.16976 l 3.97282,1.83136 1.46718,-1.20602 c 0.80694,-0.66331 3.19517,-2.62239 5.30717,-4.35352 z m -37.18846,-10.21782 c -3.37496,-1.09986 -6.252782,-3.62561 -7.869842,-6.90705 -1.426809,-3.734884 -1.679129,-7.757937 -0.08135,-11.04673 2.54509,-5.19659 8.378322,-8.24261 13.853082,-7.23384 5.5109,1.01542 9.66309,5.1592 10.67552,10.65389 1.02409,5.55794 -2.02777,11.31211 -7.31191,13.78636 -1.83735,0.86031 -2.58388,1.02311 -5.03704,1.09841 -1.80823,0.0555 -3.38182,-0.0751 -4.22846,-0.35104 z m 20.38846,-7.71378 v -2.08 h 13.6 13.6 v 2.08 2.08 h -13.6 -13.6 z" style="fill:#000000;stroke-width:0.31999999" sodipodi:nodetypes="ccscccsscccccccccccccccccscccccccccccscccssccccscccscccsccsccscccccccccccsccccc"/>
    </g>
  </g>
</svg>