<?xml version="1.0" encoding="UTF-8"?>
<!DOCTYPE svg PUBLIC "-//W3C//DTD SVG 1.1//EN" "http://www.w3.org/Graphics/SVG/1.1/DTD/svg11.dtd">
<svg xmlns="http://www.w3.org/2000/svg" version="1.1" width="716px" height="593px" style="shape-rendering:geometricPrecision; text-rendering:geometricPrecision; image-rendering:optimizeQuality; fill-rule:evenodd; clip-rule:evenodd" xmlns:xlink="http://www.w3.org/1999/xlink">
<g><path style="opacity:0.987" fill="#010000" d="M 350.5,-0.5 C 354.833,-0.5 359.167,-0.5 363.5,-0.5C 368.373,1.53259 372.206,4.86592 375,9.5C 488.538,195.263 602.038,380.93 715.5,566.5C 715.5,570.167 715.5,573.833 715.5,577.5C 712.921,584.414 708.254,589.414 701.5,592.5C 472.167,592.5 242.833,592.5 13.5,592.5C 6.83333,589.833 2.16667,585.167 -0.5,578.5C -0.5,574.167 -0.5,569.833 -0.5,565.5C 113.041,378.609 227.041,191.943 341.5,5.5C 344.084,2.7196 347.084,0.719601 350.5,-0.5 Z"/></g>
<g><path style="opacity:1" fill="#d82822" d="M 659.5,552.5 C 457.831,553.166 256.497,552.499 55.5,550.5C 155.793,386.601 256.126,222.601 356.5,58.5C 358.654,60.8265 360.654,63.3265 362.5,66C 461.73,228.055 560.73,390.222 659.5,552.5 Z"/></g>
<g><path style="opacity:1" fill="#f0dfdd" d="M 383.5,149.5 C 403.085,158.988 413.418,174.655 414.5,196.5C 401.163,196.667 387.829,196.5 374.5,196C 371.411,190.482 368.077,185.149 364.5,180C 370.724,169.71 377.057,159.543 383.5,149.5 Z"/></g>
<g><path style="opacity:1" fill="#030303" d="M 384.5,152.5 C 401.387,161.4 410.72,175.4 412.5,194.5C 400.167,194.5 387.833,194.5 375.5,194.5C 373.918,188.845 370.918,184.012 366.5,180C 373.116,171.221 379.116,162.054 384.5,152.5 Z"/></g>
<g><path style="opacity:1" fill="#f3e6e6" d="M 345.5,187.5 C 342.55,189.728 340.884,192.728 340.5,196.5C 326.833,196.5 313.167,196.5 299.5,196.5C 300.531,175.131 310.531,159.464 329.5,149.5C 336.735,159.623 343.735,169.957 350.5,180.5C 348.395,182.592 346.728,184.925 345.5,187.5 Z"/></g>
<g><path style="opacity:1" fill="#030303" d="M 328.5,152.5 C 335.181,161.339 341.514,170.506 347.5,180C 343.519,183.82 340.519,188.32 338.5,193.5C 326.185,194.499 313.851,194.832 301.5,194.5C 303.261,175.759 312.261,161.759 328.5,152.5 Z"/></g>
<g><path style="opacity:1" fill="#eedddd" d="M 345.5,187.5 C 354.413,180.093 362.246,181.093 369,190.5C 369.88,205.958 363.047,211.125 348.5,206C 343.231,200.55 342.231,194.383 345.5,187.5 Z"/></g>
<g><path style="opacity:1" fill="#070707" d="M 352.5,185.5 C 362.615,184.12 367.448,188.453 367,198.5C 364.221,205.049 359.388,207.216 352.5,205C 346.975,202.081 345.142,197.581 347,191.5C 348.36,188.977 350.193,186.977 352.5,185.5 Z"/></g>
<g><path style="opacity:1" fill="#ecd9d8" d="M 344.5,208.5 C 348.604,209.477 352.77,210.143 357,210.5C 360.952,210.21 364.785,209.71 368.5,209C 375.167,219.333 381.833,229.667 388.5,240C 367.502,251.266 346.502,251.266 325.5,240C 324.549,239.282 324.383,238.449 325,237.5C 332.016,228.121 338.516,218.454 344.5,208.5 Z"/></g>
<g><path style="opacity:1" fill="#030303" d="M 345.5,211.5 C 352.843,212.663 360.176,212.83 367.5,212C 372.875,220.585 378.375,229.085 384,237.5C 384.749,238.635 384.583,239.635 383.5,240.5C 364.89,247.653 346.557,247.153 328.5,239C 328.167,238.667 327.833,238.333 327.5,238C 333.881,229.398 339.881,220.564 345.5,211.5 Z"/></g>
<g><path style="opacity:1" fill="#f9d8d6" d="M 342.5,254.5 C 343.496,254.414 344.329,254.748 345,255.5C 346.221,260.97 344.054,264.47 338.5,266C 337.291,269.025 337.791,271.859 340,274.5C 340.667,276.167 340.667,277.833 340,279.5C 337.238,280.981 334.571,282.647 332,284.5C 333.251,288.361 333.917,292.361 334,296.5C 331.749,298.377 329.249,299.877 326.5,301C 325.941,301.725 325.608,302.558 325.5,303.5C 327.285,307.006 328.118,310.672 328,314.5C 325.866,316.484 323.366,317.818 320.5,318.5C 319.401,321.359 319.901,324.026 322,326.5C 322.667,328.5 322.667,330.5 322,332.5C 318.882,333.971 316.048,335.804 313.5,338C 313.946,339.726 314.779,341.226 316,342.5C 316.769,345.099 316.602,347.599 315.5,350C 317.935,350.853 320.269,351.853 322.5,353C 319.221,355.223 315.721,357.057 312,358.5C 308.816,355.307 305.982,351.807 303.5,348C 305.955,348.251 308.455,348.751 311,349.5C 313.801,348.895 314.801,347.229 314,344.5C 312.445,342.557 311.278,340.39 310.5,338C 310.78,336.605 311.447,335.438 312.5,334.5C 315.54,333.32 318.206,331.653 320.5,329.5C 318.135,325.787 317.302,321.787 318,317.5C 320.333,316.167 322.667,314.833 325,313.5C 324.817,309.762 323.984,306.095 322.5,302.5C 323,301.5 323.5,300.5 324,299.5C 327.163,298.29 329.996,296.624 332.5,294.5C 331.069,291.374 329.736,288.207 328.5,285C 329.101,283.395 330.101,282.062 331.5,281C 334.184,280.222 336.517,278.889 338.5,277C 332.16,269.534 333.493,264.034 342.5,260.5C 343.248,258.584 343.248,256.584 342.5,254.5 Z"/></g>
<g><path style="opacity:1" fill="#f7d5d3" d="M 371.5,252.5 C 372.5,252.5 373.5,252.5 374.5,252.5C 372.07,257.942 373.737,261.442 379.5,263C 380.43,264.194 381.097,265.527 381.5,267C 379.56,270.349 378.393,273.849 378,277.5C 380.333,278.833 382.667,280.167 385,281.5C 384.923,286.292 384.257,290.958 383,295.5C 385.333,296.833 387.667,298.167 390,299.5C 389.923,304.292 389.257,308.958 388,313.5C 390.333,314.833 392.667,316.167 395,317.5C 395.667,319.167 395.667,320.833 395,322.5C 393.697,324.94 392.53,327.44 391.5,330C 394.048,332.196 396.882,334.029 400,335.5C 401.001,339.154 400.001,342.154 397,344.5C 395.92,347.237 396.754,348.904 399.5,349.5C 402.482,348.499 405.482,347.999 408.5,348C 406,351.872 403.166,355.372 400,358.5C 396.102,356.467 392.268,354.3 388.5,352C 390.218,351.654 391.885,351.154 393.5,350.5C 394.318,347.893 394.818,345.226 395,342.5C 397.265,341.084 398.431,339.084 398.5,336.5C 392.061,335.93 389.227,332.597 390,326.5C 391.112,324.61 391.946,322.61 392.5,320.5C 389.327,318.16 386.661,315.327 384.5,312C 385.971,308.891 387.305,305.724 388.5,302.5C 386.143,299.898 383.31,297.898 380,296.5C 379.551,292.218 380.717,288.385 383.5,285C 381.048,282.171 378.215,279.671 375,277.5C 375.393,273.849 376.56,270.349 378.5,267C 376.039,264.539 373.539,262.039 371,259.5C 370.666,257.153 370.833,254.819 371.5,252.5 Z"/></g>
<g><path style="opacity:1" fill="#f8d4d2" d="M 355.5,251.5 C 356.497,251.47 357.164,251.97 357.5,253C 355.971,254.582 355.471,256.415 356,258.5C 358.621,260.449 360.454,262.949 361.5,266C 359.945,269.561 357.612,272.561 354.5,275C 355.667,277.5 357.5,279.333 360,280.5C 360.781,281.729 361.281,283.062 361.5,284.5C 359.323,287.52 357.323,290.686 355.5,294C 357.714,296.709 359.714,299.542 361.5,302.5C 359.722,306.115 357.722,309.615 355.5,313C 357.131,314.926 358.965,316.76 361,318.5C 361.167,319.333 361.333,320.167 361.5,321C 359.77,324.453 357.77,327.787 355.5,331C 357.935,333.757 359.935,336.757 361.5,340C 360.787,343.052 358.954,345.218 356,346.5C 355.505,348.473 355.338,350.473 355.5,352.5C 358.85,352.335 362.183,352.502 365.5,353C 362.607,356.396 359.274,359.229 355.5,361.5C 352.349,358.85 349.349,356.016 346.5,353C 348.81,352.503 351.143,352.337 353.5,352.5C 353.337,350.143 353.503,347.81 354,345.5C 355.833,343.667 357.667,341.833 359.5,340C 356.388,337.561 354.055,334.561 352.5,331C 354.323,327.686 356.323,324.52 358.5,321.5C 356.535,318.524 354.535,315.524 352.5,312.5C 354.935,309.405 356.935,306.072 358.5,302.5C 355.783,300.091 353.783,297.091 352.5,293.5C 354.677,290.48 356.677,287.314 358.5,284C 356.286,281.291 354.286,278.458 352.5,275.5C 353.886,271.947 355.886,268.78 358.5,266C 357.015,263.844 355.515,261.677 354,259.5C 353.109,256.502 353.609,253.836 355.5,251.5 Z"/></g>
<g><path style="opacity:1" fill="#f9dddc" d="M 392.5,252.5 C 393.891,255.014 395.557,257.514 397.5,260C 400.007,260.093 402.174,260.926 404,262.5C 404.326,266.53 404.326,270.53 404,274.5C 407.645,275.093 410.979,276.426 414,278.5C 413.819,282.547 413.985,286.547 414.5,290.5C 418.089,290.912 421.256,292.245 424,294.5C 424.003,298.567 424.17,302.567 424.5,306.5C 427.508,307.065 430.341,308.065 433,309.5C 433.499,313.821 433.666,318.154 433.5,322.5C 436.553,322.911 439.553,323.577 442.5,324.5C 442.867,329.038 443.2,333.538 443.5,338C 446.361,338.085 449.028,337.251 451.5,335.5C 451.833,336 452.167,336.5 452.5,337C 450.954,340.592 449.287,344.092 447.5,347.5C 443.284,346.485 439.284,344.985 435.5,343C 437.847,342.288 439.847,341.121 441.5,339.5C 440.16,338.312 439.493,336.812 439.5,335C 440.617,332.269 441.283,329.435 441.5,326.5C 437.779,326.191 434.279,325.191 431,323.5C 430.585,319.152 430.751,314.819 431.5,310.5C 428.015,310.309 424.849,309.309 422,307.5C 421.667,303.5 421.333,299.5 421,295.5C 417.787,294.228 414.62,292.895 411.5,291.5C 410.312,287.912 410.645,284.412 412.5,281C 412.095,280.055 411.428,279.388 410.5,279C 407.648,278.731 404.982,277.897 402.5,276.5C 401.577,272.194 401.577,267.861 402.5,263.5C 394.893,263.565 391.56,259.898 392.5,252.5 Z"/></g>
<g><path style="opacity:1" fill="#222222" d="M 447.5,339.5 C 448.855,341.753 448.188,343.42 445.5,344.5C 444.062,344.281 442.729,343.781 441.5,343C 443.727,342.059 445.727,340.892 447.5,339.5 Z"/></g>
<g><path style="opacity:1" fill="#f9dedc" d="M 318.5,252.5 C 319.5,252.5 320.5,252.5 321.5,252.5C 321.619,259.549 318.119,263.216 311,263.5C 311.186,267.484 311.186,271.484 311,275.5C 308.2,277.495 305.033,278.495 301.5,278.5C 301.816,282.525 301.983,286.525 302,290.5C 301.5,291.667 300.667,292.5 299.5,293C 297.109,293.287 294.776,293.787 292.5,294.5C 291.667,298.486 291.501,302.486 292,306.5C 289.256,308.755 286.089,310.088 282.5,310.5C 282.231,314.764 282.064,319.097 282,323.5C 278.666,325.042 275.166,326.042 271.5,326.5C 272.158,329.156 272.825,331.822 273.5,334.5C 273.514,336.593 272.848,338.426 271.5,340C 272.984,341.574 274.651,342.907 276.5,344C 272.238,344.94 268.072,346.106 264,347.5C 262.695,343.252 261.195,339.085 259.5,335C 262.649,336.45 265.982,337.45 269.5,338C 270.293,336.915 270.96,335.748 271.5,334.5C 269.474,331.323 269.141,327.989 270.5,324.5C 273.637,323.309 276.803,322.309 280,321.5C 279.674,317.53 279.674,313.53 280,309.5C 282.8,307.505 285.967,306.505 289.5,306.5C 289.325,302.459 289.158,298.459 289,294.5C 291.89,291.729 295.39,290.396 299.5,290.5C 299.184,286.475 299.017,282.475 299,278.5C 301.744,276.245 304.911,274.912 308.5,274.5C 308.692,270.589 308.859,266.589 309,262.5C 312,260.833 315,259.167 318,257.5C 318.494,255.866 318.66,254.199 318.5,252.5 Z"/></g>
<g><path style="opacity:1" fill="#232323" d="M 263.5,340.5 C 265.97,340.027 268.304,340.861 270.5,343C 268.564,343.813 266.564,344.313 264.5,344.5C 264.768,342.901 264.434,341.568 263.5,340.5 Z"/></g>
<g><path style="opacity:1" fill="#212121" d="M 309.5,351.5 C 311.89,351.913 314.223,352.579 316.5,353.5C 313.098,356.477 310.765,355.81 309.5,351.5 Z"/></g>
<g><path style="opacity:1" fill="#141414" d="M 399.5,351.5 C 402.776,351.882 402.776,353.215 399.5,355.5C 394.232,353.629 394.232,352.295 399.5,351.5 Z"/></g>
<g><path style="opacity:1" fill="#232323" d="M 351.5,355.5 C 353.966,354.366 356.633,354.199 359.5,355C 358.315,356.353 356.981,357.52 355.5,358.5C 354.148,357.476 352.815,356.476 351.5,355.5 Z"/></g>
<g><path style="opacity:1" fill="#f2ebea" d="M 480.5,356.5 C 493.194,357.899 498.694,364.899 497,377.5C 491.343,387.789 483.177,390.289 472.5,385C 462.683,372.109 465.349,362.609 480.5,356.5 Z"/></g>
<g><path style="opacity:1" fill="#070707" d="M 481.5,359.5 C 492.499,361.499 496.333,367.832 493,378.5C 489.364,384.177 484.197,386.01 477.5,384C 467.63,377.566 466.963,370.232 475.5,362C 477.611,361.155 479.611,360.322 481.5,359.5 Z"/></g>
<g><path style="opacity:1" fill="#eee8e8" d="M 423.5,388.5 C 441.836,388.333 460.17,388.5 478.5,389C 481.735,390.36 484.235,392.527 486,395.5C 486.5,404.827 486.666,414.161 486.5,423.5C 491.844,423.334 497.177,423.501 502.5,424C 503,424.5 503.5,425 504,425.5C 504.772,429.89 504.606,434.223 503.5,438.5C 492.181,439.666 480.848,439.832 469.5,439C 468.712,435.924 468.212,432.758 468,429.5C 462.975,435.691 458.142,442.024 453.5,448.5C 463.037,455.525 472.87,462.192 483,468.5C 487.843,486.872 492.843,505.206 498,523.5C 499.192,530.034 496.359,532.7 489.5,531.5C 487.5,531.333 485.5,531.167 483.5,531C 483,530.5 482.5,530 482,529.5C 478.409,511.9 473.909,494.567 468.5,477.5C 457.135,471.485 445.802,465.485 434.5,459.5C 427.709,469.581 421.042,479.748 414.5,490C 398.456,490.832 382.456,490.332 366.5,488.5C 365.167,483.833 365.167,479.167 366.5,474.5C 377.797,473.567 388.964,473.234 400,473.5C 414.255,451.329 427.755,428.663 440.5,405.5C 437.167,404.167 433.833,404.167 430.5,405.5C 425.72,413.767 420.387,421.601 414.5,429C 410.167,429.667 405.833,429.667 401.5,429C 399.022,427.062 398.855,424.895 401,422.5C 408.262,410.967 415.762,399.633 423.5,388.5 Z"/></g>
<g><path style="opacity:1" fill="#040404" d="M 471.5,429.5 C 471.813,426.753 471.48,424.086 470.5,421.5C 469.893,421.624 469.56,421.957 469.5,422.5C 462.599,431.292 455.932,440.292 449.5,449.5C 459.537,456.858 469.87,463.858 480.5,470.5C 485.19,489.927 490.19,509.26 495.5,528.5C 491.327,529.044 487.494,528.377 484,526.5C 480.629,509.685 476.629,493.018 472,476.5C 459.407,469.119 446.573,462.119 433.5,455.5C 426.833,465.833 420.167,476.167 413.5,486.5C 398.506,487.5 383.506,487.5 368.5,486.5C 368.5,483.167 368.5,479.833 368.5,476.5C 379.77,476.638 390.937,476.638 402,476.5C 416.626,452.082 431.126,427.582 445.5,403C 442.691,401.878 439.691,401.378 436.5,401.5C 433.833,401.833 431.167,402.167 428.5,402.5C 423.697,410.467 418.697,418.301 413.5,426C 409.833,426.667 406.167,426.667 402.5,426C 409.5,415 416.5,404 423.5,393C 441.833,392.333 460.167,392.333 478.5,393C 480.081,393.707 481.581,394.54 483,395.5C 483.191,405.547 483.691,415.547 484.5,425.5C 490.128,426.495 495.794,426.829 501.5,426.5C 501.5,429.833 501.5,433.167 501.5,436.5C 491.5,436.5 481.5,436.5 471.5,436.5C 471.5,434.167 471.5,431.833 471.5,429.5 Z"/></g>
<g><path style="opacity:1" fill="#eddddc" d="M 281.5,430.5 C 279.631,428.365 278.964,425.698 279.5,422.5C 280.083,416.832 280.75,411.165 281.5,405.5C 281.194,402.468 280.694,399.468 280,396.5C 279.632,395.09 278.799,394.09 277.5,393.5C 277.986,404.353 277.32,415.187 275.5,426C 277.084,434.484 278.25,442.984 279,451.5C 277.833,453.333 276.333,454.833 274.5,456C 271.302,456.848 268.469,458.348 266,460.5C 264.72,464.159 263.22,467.659 261.5,471C 253.352,474.363 244.852,476.197 236,476.5C 228.537,475.308 221.037,474.308 213.5,473.5C 212.307,469.089 210.807,464.756 209,460.5C 204.574,457.512 199.741,455.345 194.5,454C 190.567,449.535 189.067,444.368 190,438.5C 192.045,431.369 193.878,424.202 195.5,417C 195.032,410.479 194.365,403.979 193.5,397.5C 191.156,399.194 190.156,401.528 190.5,404.5C 191.684,410.532 191.684,416.532 190.5,422.5C 188.993,423.739 187.826,423.405 187,421.5C 185.326,416.279 184.159,410.946 183.5,405.5C 190.758,379.192 208.091,365.859 235.5,365.5C 253.122,365.397 267.955,371.73 280,384.5C 281.92,387.339 283.587,390.339 285,393.5C 287.229,405.256 286.895,416.923 284,428.5C 283.292,429.381 282.458,430.047 281.5,430.5 Z"/></g>
<g><path style="opacity:1" fill="#030303" d="M 280.5,391.5 C 276.878,389.65 274.545,390.65 273.5,394.5C 274.648,398.76 275.315,403.093 275.5,407.5C 274.218,414.09 273.385,420.757 273,427.5C 271.749,424.619 269.583,422.786 266.5,422C 244.982,416.928 239.148,424.095 249,443.5C 256.966,450.621 264.299,449.954 271,441.5C 271.815,439.377 272.815,437.377 274,435.5C 274.714,438.595 275.714,441.595 277,444.5C 277.667,446.5 277.667,448.5 277,450.5C 272.705,453.497 268.372,456.497 264,459.5C 262.628,462.618 261.462,465.784 260.5,469C 245.338,475.921 230.171,476.088 215,469.5C 213.364,459.53 207.531,454.03 197.5,453C 192.789,448.86 191.289,443.694 193,437.5C 194.712,430.7 196.212,423.867 197.5,417C 196.912,410.173 196.412,403.34 196,396.5C 192.592,394.777 190.259,395.777 189,399.5C 189,406.167 189,412.833 189,419.5C 185.11,409.844 185.777,400.511 191,391.5C 198.383,379.804 208.883,372.304 222.5,369C 243.703,365.125 262.037,370.625 277.5,385.5C 279.038,387.243 280.038,389.243 280.5,391.5 Z"/></g>
<g><path style="opacity:1" fill="#242424" d="M 280.5,391.5 C 282.694,393.221 283.861,395.555 284,398.5C 285.011,407.963 284.344,417.296 282,426.5C 281.726,419.796 282.226,413.13 283.5,406.5C 283.248,401.312 282.248,396.312 280.5,391.5 Z"/></g>
<g><path style="opacity:1" fill="#ecdfde" d="M 215.5,420.5 C 228.811,419.167 233.645,424.834 230,437.5C 226.89,446.307 220.724,449.807 211.5,448C 201.214,441.845 199.214,433.845 205.5,424C 208.776,422.308 212.109,421.141 215.5,420.5 Z"/></g>
<g><path style="opacity:1" fill="#df2a21" d="M 213.5,423.5 C 229.061,421.709 232.895,427.709 225,441.5C 216.834,447.85 210.167,446.517 205,437.5C 202.809,429.563 205.642,424.896 213.5,423.5 Z"/></g>
<g><path style="opacity:1" fill="#df2d23" d="M 251.5,422.5 C 256.215,422.506 260.882,423.006 265.5,424C 270.426,426.353 272.26,430.186 271,435.5C 264.911,447.519 257.578,448.519 249,438.5C 244.995,432.198 245.829,426.865 251.5,422.5 Z"/></g>
<g><path style="opacity:1" fill="#6f6f6f" d="M 469.5,422.5 C 469.56,421.957 469.893,421.624 470.5,421.5C 471.48,424.086 471.813,426.753 471.5,429.5C 470.833,427.167 470.167,424.833 469.5,422.5 Z"/></g>
<g><path style="opacity:1" fill="#ea8783" d="M 279.5,422.5 C 278.964,425.698 279.631,428.365 281.5,430.5C 280.791,431.404 279.791,431.737 278.5,431.5C 278.19,428.287 278.523,425.287 279.5,422.5 Z"/></g>
<g><path style="opacity:1" fill="#ebe1e0" d="M 234.5,439.5 C 238.901,440.387 242.401,442.721 245,446.5C 246.384,453.411 246.884,460.411 246.5,467.5C 239.543,466.614 232.543,466.28 225.5,466.5C 223.269,457.825 224.769,449.825 230,442.5C 231.409,441.219 232.909,440.219 234.5,439.5 Z"/></g>
<g><path style="opacity:1" fill="#df2c23" d="M 233.5,442.5 C 237.025,442.346 239.859,443.679 242,446.5C 243.649,452.36 244.483,458.36 244.5,464.5C 238.862,463.78 233.196,463.447 227.5,463.5C 226.688,455.612 228.688,448.612 233.5,442.5 Z"/></g>
<g><path style="opacity:1" fill="#f6ebea" d="M 551.5,447.5 C 552.523,452.071 553.856,456.571 555.5,461C 555.43,461.765 555.097,462.265 554.5,462.5C 534.5,462.5 514.5,462.5 494.5,462.5C 494.181,467.363 494.514,472.03 495.5,476.5C 515.169,476.333 534.836,476.5 554.5,477C 554.957,477.414 555.291,477.914 555.5,478.5C 554.091,481.727 553.091,485.06 552.5,488.5C 551.566,487.432 551.232,486.099 551.5,484.5C 551.833,482.5 552.167,480.5 552.5,478.5C 532.5,478.5 512.5,478.5 492.5,478.5C 492.192,472.575 492.525,466.741 493.5,461C 513.175,460.833 532.842,460.333 552.5,459.5C 550.883,455.986 549.883,452.319 549.5,448.5C 550.167,448.167 550.833,447.833 551.5,447.5 Z"/></g>
<g><path style="opacity:1" fill="#020202" d="M 551.5,447.5 C 552.552,447.351 553.552,447.517 554.5,448C 565.009,455.088 575.342,462.421 585.5,470C 575.003,477.083 564.336,483.916 553.5,490.5C 552.702,490.043 552.369,489.376 552.5,488.5C 553.091,485.06 554.091,481.727 555.5,478.5C 555.291,477.914 554.957,477.414 554.5,477C 534.836,476.5 515.169,476.333 495.5,476.5C 495.5,472.167 495.5,467.833 495.5,463.5C 515.34,463.83 535.007,463.497 554.5,462.5C 555.097,462.265 555.43,461.765 555.5,461C 553.856,456.571 552.523,452.071 551.5,447.5 Z"/></g>
<g><path style="opacity:1" fill="#eed7d6" d="M 551.5,484.5 C 551.232,486.099 551.566,487.432 552.5,488.5C 552.369,489.376 552.702,490.043 553.5,490.5C 564.336,483.916 575.003,477.083 585.5,470C 575.342,462.421 565.009,455.088 554.5,448C 553.552,447.517 552.552,447.351 551.5,447.5C 550.833,447.833 550.167,448.167 549.5,448.5C 551.446,445.186 554.113,444.686 557.5,447C 566.167,453 574.833,459 583.5,465C 585.466,466.46 587.132,468.127 588.5,470C 577.79,477.699 566.79,485.032 555.5,492C 553.559,492.743 551.726,492.576 550,491.5C 549.412,488.861 549.912,486.527 551.5,484.5 Z"/></g>
<g><path style="opacity:1" fill="#eddfde" d="M 321.5,444.5 C 322.65,449.747 324.317,454.914 326.5,460C 321.833,460.333 317.167,460.667 312.5,461C 299.899,465.146 287.232,468.979 274.5,472.5C 274.187,469.753 274.52,467.086 275.5,464.5C 288.461,459.568 301.461,454.735 314.5,450C 317.266,448.629 319.599,446.796 321.5,444.5 Z"/></g>
<g><path style="opacity:1" fill="#0c0c0c" d="M 320.5,448.5 C 321.201,451.563 321.868,454.73 322.5,458C 318.5,458.333 314.5,458.667 310.5,459C 299.3,463.012 287.966,466.512 276.5,469.5C 276.33,468.178 276.663,467.011 277.5,466C 289.424,461.47 301.424,457.136 313.5,453C 316.239,451.974 318.572,450.474 320.5,448.5 Z"/></g>
<g><path style="opacity:1" fill="#636363" d="M 554.5,462.5 C 535.007,463.497 515.34,463.83 495.5,463.5C 495.5,467.833 495.5,472.167 495.5,476.5C 494.514,472.03 494.181,467.363 494.5,462.5C 514.5,462.5 534.5,462.5 554.5,462.5 Z"/></g>
<g><path style="opacity:1" fill="#ed9895" d="M 148.5,462.5 C 152.913,464.138 157.579,465.138 162.5,465.5C 157.125,465.828 151.792,465.495 146.5,464.5C 146.855,463.478 147.522,462.811 148.5,462.5 Z"/></g>
<g><path style="opacity:1" fill="#f2dedd" d="M 264.5,495.5 C 251.853,508.864 236.853,512.364 219.5,506C 216.238,503.408 213.738,500.241 212,496.5C 208.465,486.229 205.132,475.895 202,465.5C 201.219,464.056 201.386,462.723 202.5,461.5C 207.172,469.344 211.172,477.511 214.5,486C 224.648,492.663 235.648,494.329 247.5,491C 254.448,489.619 259.948,486.119 264,480.5C 265.333,475.833 266.667,471.167 268,466.5C 268.893,465.289 269.726,465.289 270.5,466.5C 269.236,476.367 267.236,486.034 264.5,495.5 Z"/></g>
<g><path style="opacity:1" fill="#eddddc" d="M 198.5,468.5 C 198.806,471.385 198.473,474.052 197.5,476.5C 185.677,473.295 174.01,469.628 162.5,465.5C 157.579,465.138 152.913,464.138 148.5,462.5C 149.18,458.881 149.68,455.214 150,451.5C 150.308,450.692 150.808,450.025 151.5,449.5C 154.368,451.532 157.368,453.365 160.5,455C 173.228,459.409 185.895,463.909 198.5,468.5 Z"/></g>
<g><path style="opacity:1" fill="#0f0f0f" d="M 152.5,453.5 C 166.64,459.394 180.973,465.061 195.5,470.5C 196.386,471.325 196.719,472.325 196.5,473.5C 184.649,470.717 172.982,467.217 161.5,463C 158.183,462.502 154.85,462.335 151.5,462.5C 151.704,459.482 152.037,456.482 152.5,453.5 Z"/></g>
<g><path style="opacity:1" fill="#eb918d" d="M 198.5,468.5 C 199.803,471.355 199.803,474.355 198.5,477.5C 197.893,477.376 197.56,477.043 197.5,476.5C 198.473,474.052 198.806,471.385 198.5,468.5 Z"/></g>
<g><path style="opacity:1" fill="#0a0a0a" d="M 264.5,483.5 C 264.424,491.444 260.758,497.611 253.5,502C 243.58,506.767 233.246,507.767 222.5,505C 215.745,500.655 212.245,494.488 212,486.5C 215.785,489.642 219.952,492.142 224.5,494C 237.284,496.216 249.284,494.216 260.5,488C 262.041,486.629 263.375,485.129 264.5,483.5 Z"/></g>
<g><path style="opacity:1" fill="#e87a77" d="M 264.5,495.5 C 265.791,495.263 266.791,495.596 267.5,496.5C 265.656,498.279 264.99,500.612 265.5,503.5C 264.527,501.052 264.194,498.385 264.5,495.5 Z"/></g>
<g><path style="opacity:1" fill="#efe0df" d="M 204.5,495.5 C 205.833,495.5 207.167,495.5 208.5,495.5C 208.813,498.247 208.48,500.914 207.5,503.5C 194.539,508.432 181.539,513.265 168.5,518C 166.301,519.697 163.968,521.197 161.5,522.5C 160.808,521.975 160.308,521.308 160,520.5C 160.202,515.859 159.035,511.693 156.5,508C 173.275,506.571 189.275,502.404 204.5,495.5 Z"/></g>
<g><path style="opacity:1" fill="#0f0f0f" d="M 202.5,498.5 C 203.833,498.5 205.167,498.5 206.5,498.5C 206.439,501.05 205.106,502.55 202.5,503C 191.577,507.197 180.577,511.197 169.5,515C 166.827,516.001 164.493,517.501 162.5,519.5C 161.796,516.296 161.13,513.129 160.5,510C 175.081,508.023 189.081,504.19 202.5,498.5 Z"/></g>
<g><path style="opacity:1" fill="#efdddc" d="M 267.5,496.5 C 278.845,499.892 290.179,503.392 301.5,507C 306.864,507.171 312.198,507.671 317.5,508.5C 314.929,511.98 313.763,515.98 314,520.5C 311.288,522.795 308.788,522.295 306.5,519C 292.618,514.099 278.951,508.933 265.5,503.5C 264.99,500.612 265.656,498.279 267.5,496.5 Z"/></g>
<g><path style="opacity:1" fill="#0e0e0e" d="M 302.5,509.5 C 305.833,510.167 309.167,510.833 312.5,511.5C 312.752,514.32 312.252,516.986 311,519.5C 297.163,513.162 282.996,507.495 268.5,502.5C 267.386,501.277 267.219,499.944 268,498.5C 279.388,502.462 290.888,506.129 302.5,509.5 Z"/></g>
<g><path style="opacity:1" fill="#6c6c6c" d="M 302.5,509.5 C 306.226,509.177 309.893,509.511 313.5,510.5C 313.376,511.107 313.043,511.44 312.5,511.5C 309.167,510.833 305.833,510.167 302.5,509.5 Z"/></g>
<g><path style="opacity:1" fill="#3f0c0a" d="M 55.5,550.5 C 256.497,552.499 457.831,553.166 659.5,552.5C 458.001,553.5 256.334,553.833 54.5,553.5C 54.2627,552.209 54.596,551.209 55.5,550.5 Z"/></g>
</svg>