<svg xmlns="http://www.w3.org/2000/svg" xmlns:xlink="http://www.w3.org/1999/xlink" width="500" zoomAndPan="magnify" viewBox="0 0 375 374.999991" height="500" preserveAspectRatio="xMidYMid meet" version="1.0"><defs><clipPath id="8e76b9797d"><path d="M 187.5 0 C 83.945312 0 0 83.945312 0 187.5 C 0 291.054688 83.945312 375 187.5 375 C 291.054688 375 375 291.054688 375 187.5 C 375 83.945312 291.054688 0 187.5 0 Z M 187.5 0 " clip-rule="nonzero"/></clipPath><clipPath id="ffe360ce12"><path d="M 59 105.183594 L 268 105.183594 L 268 282.183594 L 59 282.183594 Z M 59 105.183594 " clip-rule="nonzero"/></clipPath><clipPath id="6a05900556"><path d="M 73 76 L 307 76 L 307 301 L 73 301 Z M 73 76 " clip-rule="nonzero"/></clipPath><clipPath id="a4f7331eb4"><path d="M 95.535156 76.519531 L 306.996094 276.4375 L 284.625 300.097656 L 73.167969 100.179688 Z M 95.535156 76.519531 " clip-rule="nonzero"/></clipPath><clipPath id="6c668ec38e"><path d="M 95.535156 76.519531 L 306.949219 276.390625 L 284.578125 300.050781 L 73.167969 100.179688 Z M 95.535156 76.519531 " clip-rule="nonzero"/></clipPath><clipPath id="8b40c2dece"><path d="M 10.601562 10.601562 L 364.390625 10.601562 L 364.390625 364.390625 L 10.601562 364.390625 Z M 10.601562 10.601562 " clip-rule="nonzero"/></clipPath><clipPath id="c2e7b67060"><path d="M 187.496094 10.601562 C 89.796875 10.601562 10.601562 89.796875 10.601562 187.496094 C 10.601562 285.191406 89.796875 364.390625 187.496094 364.390625 C 285.191406 364.390625 364.390625 285.191406 364.390625 187.496094 C 364.390625 89.796875 285.191406 10.601562 187.496094 10.601562 Z M 187.496094 10.601562 " clip-rule="nonzero"/></clipPath></defs><g clip-path="url(#8e76b9797d)"><rect x="-37.5" width="450" fill="#ffffff" y="-37.499999" height="449.999989" fill-opacity="1"/><path stroke-linecap="butt" transform="matrix(0.75, 0, 0, 0.75, 0.0000045, 0)" fill="none" stroke-linejoin="miter" d="M 249.999994 0 C 111.927078 0 -0.000006 111.927084 -0.000006 250 C -0.000006 388.072917 111.927078 500.000001 249.999994 500.000001 C 388.072911 500.000001 499.999995 388.072917 499.999995 250 C 499.999995 111.927084 388.072911 0 249.999994 0 Z M 249.999994 0 " stroke="#343434" stroke-width="12" stroke-opacity="1" stroke-miterlimit="4"/></g><g clip-path="url(#ffe360ce12)"><path fill="#343434" d="M 264.105469 157.882812 C 262.003906 156.53125 259.484375 158.671875 257.660156 160.316406 C 255.972656 161.84375 241.011719 183.726562 238.476562 186.65625 C 235.9375 189.582031 234.992188 191.332031 233.464844 190.714844 C 232.171875 190.191406 232.800781 188.164062 233.703125 184.871094 C 234.597656 181.574219 245.808594 140.511719 247.347656 133.792969 C 248.886719 127.074219 246.386719 123.121094 242.496094 121.925781 C 238.605469 120.726562 235.621094 123.332031 233.226562 128.421875 C 231.277344 132.558594 220.097656 170.019531 219.496094 172.710938 C 218.898438 175.40625 217.488281 178.78125 215.992188 178.484375 C 215.046875 178.292969 215.179688 176.132812 215.714844 172.519531 C 216.152344 169.554688 223.976562 120.542969 224.578125 116.3125 C 225.183594 112.085938 224.714844 106.929688 218.925781 105.503906 C 212.4375 103.910156 209.984375 108.578125 208.269531 112.667969 C 206.554688 116.757812 196.269531 164.792969 195.464844 168.328125 C 194.652344 171.863281 194.046875 177.214844 192.25 177.214844 C 190.457031 177.214844 191.390625 173.417969 191.773438 168.03125 C 192.152344 162.644531 195.328125 129.925781 195.148438 124.535156 C 194.96875 119.144531 195.007812 115.359375 188.421875 114.824219 C 181.042969 114.226562 181.265625 126.46875 180.042969 132.457031 C 178.8125 138.441406 169.972656 200.386719 168.164062 206.035156 C 166.601562 210.902344 163.472656 208.054688 162.277344 205.0625 C 161.082031 202.066406 154.78125 191.21875 154.78125 191.21875 C 145.679688 178.496094 136.554688 177.40625 132.039062 179.402344 C 127.363281 181.464844 128.578125 187.03125 131.46875 190.324219 C 135.390625 194.785156 143.28125 205.433594 145.480469 209.34375 C 145.84375 209.992188 146.210938 210.964844 146.582031 212.171875 L 115.839844 212.171875 C 118.140625 205.03125 120.574219 196.417969 121.476562 192.585938 L 122.8125 187.15625 C 123.398438 184.828125 123.9375 182.675781 124.382812 180.589844 C 128.832031 180.148438 130.882812 178.988281 131.355469 176.832031 C 132.117188 173.378906 127.757812 171.359375 125.410156 170.273438 C 125.308594 170.226562 125.203125 170.1875 125.101562 170.15625 C 124.613281 167.988281 123.570312 165.714844 121.816406 162.785156 C 118.378906 157.066406 109.976562 150.296875 99.632812 148.945312 C 90.320312 147.730469 81.753906 152.273438 76.847656 156.921875 C 72.820312 160.742188 68.507812 168.214844 68.769531 172.84375 C 68.878906 174.820312 68.859375 176.484375 68.828125 177.535156 C 67.273438 178.496094 65.445312 180.25 66 183.832031 C 66.214844 185.253906 67.203125 189.835938 68.316406 194.082031 C 70.65625 203.042969 71.765625 203.898438 72.425781 204.414062 C 73.488281 205.242188 74.503906 205.738281 75.304688 206.035156 L 77.160156 213.964844 L 59.4375 213.964844 L 59.4375 218.453125 L 82.816406 218.453125 L 79.023438 202.207031 L 77.503906 202.015625 C 77.410156 202 76.453125 201.820312 75.304688 200.964844 C 74.015625 199.097656 70.96875 186.609375 70.433594 183.152344 C 70.265625 182.058594 70.292969 181.769531 72.011719 180.910156 L 73.148438 180.339844 L 73.246094 179.074219 C 73.257812 178.960938 73.457031 176.289062 73.25 172.59375 C 73.109375 170.046875 76.226562 163.695312 79.933594 160.179688 C 83.90625 156.417969 91.296875 152.382812 99.050781 153.394531 C 107.523438 154.5 114.976562 160.117188 117.96875 165.09375 C 120.820312 169.847656 121.171875 171.964844 120.851562 174.648438 C 120.828125 174.894531 120.789062 175.144531 120.753906 175.394531 C 120.289062 175.402344 119.808594 175.410156 119.292969 175.410156 C 116.671875 175.410156 95.550781 174.109375 84.746094 173.421875 C 83.261719 173.324219 81.980469 174.453125 81.886719 175.9375 C 81.796875 177.421875 82.921875 178.699219 84.402344 178.796875 C 85.6875 178.878906 115.847656 180.796875 119.292969 180.796875 C 119.441406 180.796875 119.589844 180.792969 119.738281 180.792969 C 119.359375 182.464844 118.925781 184.203125 118.457031 186.054688 L 117.105469 191.550781 C 115.324219 199.132812 109.675781 217.742188 108.007812 220.40625 C 107.222656 221.671875 104.816406 225.515625 96.128906 222.285156 L 94.566406 226.492188 C 104.582031 230.222656 109.476562 226.535156 111.816406 222.785156 C 112.433594 221.796875 113.332031 219.542969 114.339844 216.660156 L 147.773438 216.660156 C 149.863281 225.355469 152.3125 238.59375 156.050781 244.394531 C 156.75 245.480469 157.714844 246.597656 158.839844 247.714844 C 152.511719 246.300781 146.214844 244.542969 144.800781 244.027344 C 142.855469 243.320312 137.507812 241.855469 134.28125 242.105469 C 130.777344 242.371094 125.28125 246.894531 123.640625 249.242188 C 122.867188 250.34375 120.660156 252.695312 118.527344 254.96875 C 117.113281 256.46875 115.660156 258.023438 114.421875 259.410156 C 111.351562 262.867188 93.828125 278.625 93.652344 278.785156 L 96.652344 282.125 C 97.382812 281.46875 114.539062 266.035156 117.777344 262.390625 C 118.972656 261.050781 120.40625 259.519531 121.796875 258.039062 C 124.246094 255.433594 126.359375 253.179688 127.316406 251.816406 C 128.566406 250.023438 133 246.703125 134.628906 246.578125 C 136.699219 246.417969 141.054688 247.445312 143.261719 248.246094 C 145.476562 249.050781 158.0625 252.511719 166.292969 253.699219 C 170.359375 256.496094 174.339844 258.707031 176.03125 259.511719 C 179.417969 261.117188 186.15625 264.40625 189.882812 261.941406 C 196.902344 257.285156 206.441406 257.929688 211.769531 257.304688 C 217.097656 256.683594 215.347656 255.296875 219.246094 253.832031 C 226.929688 250.933594 230.558594 241.855469 231.695312 238.140625 C 232.828125 234.425781 236.945312 223.429688 236.945312 220.140625 C 236.945312 216.847656 241.265625 207.90625 243.671875 203.566406 C 246.089844 199.226562 264.808594 171.066406 267.128906 166.09375 C 269.078125 161.925781 266.503906 159.421875 264.105469 157.882812 " fill-opacity="1" fill-rule="nonzero"/></g><path fill="#343434" d="M 97.519531 204.722656 C 97.96875 199.03125 100.726562 195.710938 102.507812 195.835938 C 103.03125 195.871094 103.550781 196.1875 104.054688 196.769531 C 105.523438 198.476562 106.300781 201.816406 106.03125 205.28125 C 105.582031 210.96875 102.824219 214.289062 101.039062 214.167969 C 100.519531 214.132812 100 213.816406 99.496094 213.230469 C 98.027344 211.527344 97.25 208.1875 97.519531 204.722656 M 100.730469 218.644531 C 105.613281 218.988281 109.910156 213.265625 110.503906 205.628906 C 110.875 200.890625 109.734375 196.480469 107.453125 193.839844 C 106.15625 192.339844 104.554688 191.476562 102.820312 191.359375 C 97.933594 191.015625 93.640625 196.730469 93.046875 204.375 C 92.679688 209.109375 93.816406 213.519531 96.097656 216.160156 C 97.390625 217.664062 98.996094 218.523438 100.730469 218.644531 Z M 100.730469 218.644531 " fill-opacity="1" fill-rule="nonzero"/><g clip-path="url(#6a05900556)"><g clip-path="url(#a4f7331eb4)"><g clip-path="url(#6c668ec38e)"><path fill="#d7261a" d="M 95.535156 76.519531 L 306.902344 276.347656 L 284.535156 300.007812 L 73.167969 100.179688 Z M 95.535156 76.519531 " fill-opacity="1" fill-rule="nonzero"/></g></g></g><g clip-path="url(#8b40c2dece)"><g clip-path="url(#c2e7b67060)"><path stroke-linecap="butt" transform="matrix(0.75, 0, 0, 0.75, 10.600248, 10.600244)" fill="none" stroke-linejoin="miter" d="M 235.861143 0.00175807 C 105.595509 0.00175807 0.00175207 105.595515 0.00175207 235.861149 C 0.00175207 366.121574 105.595509 471.720539 235.861143 471.720539 C 366.121568 471.720539 471.720533 366.121574 471.720533 235.861149 C 471.720533 105.595515 366.121568 0.00175807 235.861143 0.00175807 Z M 235.861143 0.00175807 " stroke="#d7261a" stroke-width="108" stroke-opacity="1" stroke-miterlimit="4"/></g></g></svg>