<?xml version="1.0" encoding="UTF-8" standalone="no"?>
<!-- Generator: Adobe Illustrator 11.0, SVG Export Plug-In . SVG Version: 6.0.0 Build 78)  -->
<!-- Created by Cary Bass http://commons.wikipedia.com/wiki/User:Bastique on January 20, 2006 -->
<svg xmlns:dc="http://purl.org/dc/elements/1.1/" xmlns:cc="http://creativecommons.org/ns#" xmlns:rdf="http://www.w3.org/1999/02/22-rdf-syntax-ns#" xmlns:svg="http://www.w3.org/2000/svg" xmlns="http://www.w3.org/2000/svg" xmlns:sodipodi="http://sodipodi.sourceforge.net/DTD/sodipodi-0.dtd" xmlns:inkscape="http://www.inkscape.org/namespaces/inkscape" version="1.0" width="615.90002" height="540.0105" id="radioactive" sodipodi:version="0.32" inkscape:version="0.46" sodipodi:docname="PN Uwaga zły pies.svg" sodipodi:docbase="/export/henning/reference/Sicherheitskennzeichnung" inkscape:output_extension="org.inkscape.output.svg.inkscape">
  <defs id="defs58"/>
  <sodipodi:namedview inkscape:window-height="712" inkscape:window-width="1280" inkscape:pageshadow="2" inkscape:pageopacity="0.0" guidetolerance="10.0" gridtolerance="10.0" objecttolerance="10.0" borderopacity="1.0" bordercolor="#666666" pagecolor="#ffffff" id="base" inkscape:zoom="0.78403703" inkscape:cx="511.75358" inkscape:cy="216.60772" inkscape:window-x="-4" inkscape:window-y="-4" inkscape:current-layer="g1889" showguides="false" showgrid="false" inkscape:document-units="mm" width="169.33334mm" height="148.16667mm" units="mm"/>
  <metadata id="metadata60">
    <rdf:RDF>
      <cc:Work rdf:about="">
        <dc:format>image/svg+xml</dc:format>
        <dc:type rdf:resource="http://purl.org/dc/dcmitype/StillImage"/>
      </cc:Work>
    </rdf:RDF>
  </metadata>
  <path style="fill:none;fill-rule:evenodd;stroke:#000000;stroke-width:1px;stroke-linecap:butt;stroke-linejoin:miter;stroke-opacity:1" d="M 24.689244,-160.5126 C 24.757113,-160.5635 24.689244,-160.34292 24.689244,-160.5126 z" id="path1965"/>
  <g id="g1889" transform="translate(8.146196,8.022892)">
    <path id="path1875" d="M 299.09375,-8 C 285.2752,-7.992418 276.97358,5.3760798 271.875,16.53125 C 179.06241,177.95887 85.093615,338.77609 -7,500.5625 C -12.655568,516.74325 3.5954928,534.90536 20.3125,531.59287 C 209.912,531.32032 399.54938,532.21713 589.125,531.09375 C 605.71557,527.93 613.80037,504.94424 602.49938,492.16558 C 507.36358,328.05043 413.40661,163.19507 317.5,-0.4375 C 312.77524,-5.3226321 305.97101,-8.3168021 299.09375,-8 z" style="fill:#ffff00"/>
    <g id="g4">
      <path id="sign_border" d="M 597.6,499.6 L 313.8,8 C 310.9,3 305.6,0 299.9,0 C 294.2,0 288.9,3.1 286,8 L 2.2,499.6 C -0.7,504.6 -0.7,510.7 2.2,515.6 C 5.1,520.6 10.4,523.6 16.1,523.6 L 583.7,523.6 C 589.4,523.6 594.7,520.5 597.6,515.6 C 600.5,510.6 600.5,504.5 597.6,499.6 z"/>
      <polygon points="43.9,491.5 299.9,48.2 555.9,491.5 43.9,491.5 " id="sign_bg" style="fill:#f7f619"/>
    </g>
    <path style="fill:#000000" d="M 304.55569,469.14266 C 302.97662,467.37303 299.54854,452.45783 297.13943,436.87528 C 294.31435,418.6022 292.82699,399.72881 292.81364,381.98437 C 292.79941,363.08363 292.35729,361.1713 287.90173,360.73865 C 285.68314,360.52322 282.53842,362.04696 271.69425,368.59183 C 253.25964,379.71786 253.35882,379.6824 242.5099,379.02756 L 233.57133,378.48804 L 228.36616,383.92883 C 220.76491,391.87413 216.9467,393.35702 215.01372,389.11459 C 214.20242,387.33399 214.3615,385.77999 215.88516,380.60107 C 216.91029,377.11664 217.74904,372.31899 217.74904,369.93963 C 217.74904,364.26065 219.02146,362.01638 225.77244,355.78803 C 229.9645,351.92051 231.39944,350.02437 231.39944,348.35249 C 231.39944,345.86583 231.52666,345.91614 221.16165,344.30418 C 209.43422,342.48034 197.39222,337.79331 188.16166,331.45983 C 186.2002,330.11398 184.01881,329.01283 183.31415,329.01283 C 181.46287,329.01283 178.50362,324.4673 178.50735,321.62936 C 178.51325,317.13585 181.54513,313.84273 191.88072,307.10371 C 204.47825,298.88987 223.88612,288.11441 236.72205,282.20731 C 245.80787,278.02603 246.71027,277.40253 247.21763,274.95554 C 248.18554,270.28737 253.3409,260.42108 256.9614,256.30798 C 258.88279,254.12516 262.27997,250.99945 264.51068,249.36196 C 269.29594,245.84925 280.66359,240.06167 285.75732,238.54471 C 287.73483,237.9558 290.1835,236.58971 291.19881,235.50896 C 294.12927,232.38963 298.02745,217.47463 298.86962,206.15928 C 300.63759,182.40513 301.11402,174.12164 300.7487,173.48893 C 300.00435,172.19978 302.42998,170.32699 304.84402,170.32699 C 308.11056,170.32699 310.99223,174.63115 313.86898,183.80697 C 316.25124,191.40552 318.9481,196.1798 321.09119,196.59252 C 322.11731,196.79013 322.63447,195.5662 323.35037,191.24583 C 323.86101,188.16421 325.11957,184.2825 326.14715,182.61983 C 328.44648,178.89944 333.36216,175.54444 337.49699,174.87345 C 340.14558,174.44365 340.60355,174.60562 340.60903,175.97412 C 340.61257,176.85667 341.3597,185.57872 342.26932,195.35646 L 343.92317,213.13415 L 347.28645,217.53834 C 355.68853,228.54081 359.88352,237.14485 362.433,248.6043 C 363.79094,254.70798 364.31107,255.65335 369.40708,261.27997 C 380.34826,273.36037 391.47482,289.73375 401.45864,308.4457 L 405.279,315.60593 L 400.55421,321.17549 C 393.6165,329.35359 392.08398,333.3458 390.49792,347.37207 C 389.1808,359.0199 388.076,364.2933 386.54714,366.22956 C 386.13116,366.75638 383.53086,367.4431 380.76867,367.75561 C 373.90955,368.53163 370.16393,371.45098 363.5101,381.20699 C 360.53024,385.57613 354.22846,392.99209 349.50615,397.68688 C 339.88217,407.25478 339.40365,408.26811 338.43652,421.12812 C 337.56601,432.70324 332.67792,442.53805 326.13681,445.87508 C 321.83051,448.07199 318.72329,451.95416 313.8046,461.283 C 310.40836,467.72436 308.05311,470.63568 306.23836,470.63568 C 306.04561,470.63568 305.28841,469.96383 304.55569,469.14266 z M 264.85463,280.17001 C 266.13484,279.16734 268.54641,270.32264 267.75528,269.53152 C 266.99986,268.77611 262.2661,271.87855 259.68002,274.82393 C 257.04715,277.82262 256.42759,279.53257 257.5627,280.66768 C 258.52564,281.63063 263.41586,281.29687 264.85463,280.17001 z" id="path2439" sodipodi:nodetypes="csssscccssssssssssssssssssssssssscccsscccsssssssssccsssc"/>
  </g>
</svg>