<?xml version="1.0" encoding="UTF-8"?>
<!-- Generator: Adobe Illustrator 27.8.1, SVG Export Plug-In . SVG Version: 6.00 Build 0)  -->
<svg version="1.1" id="Image" xmlns="http://www.w3.org/2000/svg" xmlns:xlink="http://www.w3.org/1999/xlink" x="0px" y="0px" viewBox="0 0 141.73 141.73" style="enable-background:new 0 0 141.73 141.73;" xml:space="preserve">
<style type="text/css">
	.st0{fill:#010101;}
</style>
<g>
	<polygon class="st0" points="31.5,15.75 31.5,0 15.75,0 0,0 0,15.75 0,62.99 0,78.74 0,125.98 0,141.73 15.75,141.73 31.5,141.73    31.5,125.98 15.75,125.98 15.75,78.74 31.5,78.74 31.5,62.99 15.75,62.99 15.75,15.75  "/>
	<polygon class="st0" points="141.73,15.75 141.73,0 125.98,0 110.24,0 110.24,15.75 110.24,125.98 110.24,141.73 125.98,141.73    141.73,141.73 141.73,125.98 125.98,125.98 125.98,15.75  "/>
	<path class="st0" d="M78.74,0H62.99H47.24v15.75v47.24v15.75v62.99h15.75V78.74h15.75v62.99h15.75V78.74V62.99V15.75V0H78.74z    M78.74,62.99H62.99V15.75h15.75V62.99z"/>
</g>
</svg>